<?xml version="1.0" encoding="utf-8"?>
<!-- Generator: Adobe Illustrator 24.1.3, SVG Export Plug-In . SVG Version: 6.00 Build 0)  -->
<svg version="1.1" id="Layer_1" xmlns="http://www.w3.org/2000/svg" xmlns:xlink="http://www.w3.org/1999/xlink" x="0px" y="0px"
	 viewBox="0 0 600 600" style="enable-background:new 0 0 600 600;" xml:space="preserve">
<style type="text/css">
	.st0{fill:#B086BE;}
	.st1{fill:#EC9E8B;}
	.st2{fill:#7C3894;}
	.st3{fill:#D45382;}
	.st4{fill:none;stroke:#000000;stroke-width:6;stroke-miterlimit:10;}
	.st5{fill:#FEDE9C;}
	.st6{fill:#F7CA5E;}
	.st7{fill:#83C89C;}
	.st8{fill:#22345B;}
	.st9{fill:#767E99;}
	.st10{fill:#D65A47;}
	.st11{fill:#FFFFFF;}
	.st12{fill:#E99BB2;}
	.st13{fill:#B5DEC2;}
	.st14{fill:none;stroke:#000000;stroke-width:2;stroke-miterlimit:10;}
	.st15{opacity:0.41;}
	.st16{stroke:#000000;stroke-width:4;stroke-miterlimit:10;}
	.st17{fill:none;stroke:#414042;stroke-width:2;stroke-miterlimit:10;}
	.st18{fill:#6FBB8F;}
	.st19{fill:#DB6041;}
	.st20{stroke:#000000;stroke-miterlimit:10;}
	.st21{fill:none;stroke:#000000;stroke-miterlimit:10;}
	.st22{fill:none;stroke:#000000;stroke-width:3;stroke-miterlimit:10;}
	.st23{fill:#FFFFFF;stroke:#000000;stroke-width:6;stroke-miterlimit:10;}
	.st24{fill:none;}
	.st25{fill:none;stroke:#000000;stroke-width:8;stroke-linecap:round;stroke-linejoin:round;stroke-miterlimit:10;}
	.st26{fill-rule:evenodd;clip-rule:evenodd;fill:#D65A47;}
	.st27{fill-rule:evenodd;clip-rule:evenodd;fill:#83C89C;}
	.st28{fill-rule:evenodd;clip-rule:evenodd;fill:#D45382;}
	.st29{fill:none;stroke:#000000;stroke-width:12;stroke-miterlimit:10;}
	.st30{fill:none;stroke:#000000;stroke-width:10;stroke-miterlimit:10;}
</style>
<g>
	<path class="st5" d="M460.53,523.97l-352.67-28.91c-10.2-0.84-18.47-8.6-19.96-18.72l-53.16-362.5
		C32.52,98.67,46.1,85.94,61.08,89.14l511.23,108.92c13.13,2.8,20.71,16.61,16.02,29.19l-105.4,282.49
		C479.49,518.96,470.34,524.77,460.53,523.97z"/>
</g>
<g>
	<path d="M446.36,513.51l-206.16-15.75l-103.08-7.92l-25.77-1.98l-12.88-0.99l-3.22-0.25l-1.61-0.12l-1.77-0.21
		c-2.37-0.36-4.68-1.05-6.85-2.07c-4.36-2.01-8.05-5.4-10.53-9.51c-1.24-2.06-2.21-4.29-2.78-6.63c-0.57-2.45-0.78-4.47-1.13-6.62
		l-3.88-25.55L35.86,231.45L20.46,129.22l-3.85-25.56c-0.81-4.92-0.09-10.3,2.04-14.94c2.08-4.7,5.68-8.62,10-11.35
		c4.31-2.79,9.55-4.08,14.67-3.92c1.29-0.03,2.55,0.24,3.82,0.4c0.68,0.09,1.17,0.21,1.7,0.32l1.58,0.33l6.32,1.32l25.3,5.28
		l202.44,42.06l101.17,21.27l50.54,10.82l50.52,10.94l50.49,11.08l12.62,2.77l6.31,1.38l3.17,0.7l1.91,0.52l0.95,0.27l0.92,0.36
		l1.84,0.74l1.76,0.93l0.87,0.48l0.82,0.56c0.54,0.38,1.1,0.74,1.63,1.14c2.06,1.66,3.94,3.55,5.46,5.71
		c1.48,2.17,2.78,4.5,3.56,7.02l0.32,0.93l0.24,0.96c0.15,0.64,0.32,1.28,0.44,1.92c0.16,1.31,0.4,2.61,0.38,3.93
		c0.13,2.64-0.28,5.27-0.92,7.8c-0.8,2.71-1.57,4.45-2.34,6.52l-4.62,12.07l-9.25,24.14l-18.57,48.24
		c-24.81,64.3-49.82,128.54-75.39,192.56l-1.03-0.38c22.62-65.12,45.79-130.04,69.17-194.88l17.57-48.62l8.82-24.29l4.41-12.15
		c0.71-1.98,1.57-4.23,1.95-5.67c0.36-1.64,0.63-3.31,0.49-4.99c0.02-0.84-0.19-1.66-0.28-2.49c-0.09-0.41-0.21-0.81-0.31-1.22
		l-0.15-0.61l-0.23-0.59c-0.51-1.6-1.38-3.06-2.32-4.43c-0.98-1.36-2.19-2.52-3.48-3.56c-0.34-0.24-0.69-0.46-1.03-0.69l-0.51-0.35
		l-0.55-0.28l-1.1-0.58l-1.16-0.44l-0.58-0.23l-0.61-0.15l-1.21-0.32l-3.15-0.65l-6.33-1.31l-12.66-2.62l-50.62-10.47l-50.59-10.6
		l-50.57-10.72l-101.05-21.82l-202-44.11l-25.26-5.49l-6.31-1.37l-1.58-0.34c-0.53-0.11-1.08-0.24-1.47-0.28
		c-0.86-0.1-1.72-0.34-2.59-0.29c-3.45-0.13-6.98,0.67-9.93,2.57c-2.95,1.84-5.47,4.5-6.89,7.7c-1.45,3.19-2.02,6.68-1.47,10.28
		l3.65,25.59l14.59,102.35l29.18,204.69l3.62,25.59c0.31,2.1,0.57,4.38,0.97,6.13c0.42,1.86,1.18,3.62,2.14,5.26
		c1.94,3.27,4.83,6.01,8.29,7.64c1.72,0.83,3.56,1.4,5.45,1.71l1.44,0.19l1.61,0.14l3.22,0.28l12.87,1.12l25.75,2.24l102.99,8.97
		l205.98,18.04L446.36,513.51z"/>
</g>
<g>
	<g>
		<path d="M313.31,284.09c-0.06-0.04-0.11,0.27-0.13,0.32C313.3,284.37,313.33,284.01,313.31,284.09z"/>
	</g>
	<g>
		<polygon points="314.51,283.64 314.46,283.76 314.69,283.49 		"/>
	</g>
	<g>
		<path d="M315.48,283.87c0.03-0.54-0.37,0-0.5-0.22l0-0.13l-0.18,0.4C315.03,283.91,315.36,283.69,315.48,283.87z"/>
	</g>
	<g>
		<path d="M315.73,285.12c0.02-0.21,0.15-0.15-0.11-0.09c0.01,0.02,0.01,0.04,0.01,0.06C315.66,285.09,315.69,285.09,315.73,285.12z
			"/>
	</g>
	<g>
		<path d="M315.63,285.09C315.53,285.08,315.66,285.27,315.63,285.09L315.63,285.09z"/>
	</g>
	<g>
		<path d="M316.13,285.08l-0.18,0.15c0,0.13,0.11,0.18,0.05,0.26C316.17,285.42,316.17,285.29,316.13,285.08z"/>
	</g>
	<g>
		<path d="M316.35,284.73l-0.09,0.06C316.26,284.84,316.28,284.86,316.35,284.73z"/>
	</g>
	<g>
		<path d="M316.08,284.92l0.19-0.13c0-0.09,0.04-0.26-0.08,0.04C316.23,284.68,316.17,284.82,316.08,284.92z"/>
	</g>
	<g>
		<path d="M316.01,284.82c-0.05-0.13-0.13-0.23,0.05-0.37C315.79,284.45,315.74,284.83,316.01,284.82z"/>
	</g>
	<g>
		<path d="M315.65,283.34l-0.07-0.18l-0.13,0.15C315.52,283.25,315.62,283.51,315.65,283.34z"/>
	</g>
	<g>
		<path d="M316.91,285.55c0.03-0.11,0.02-0.31,0.05-0.45l-0.13,0.1C316.86,285.29,316.94,285.38,316.91,285.55z"/>
	</g>
	<g>
		<path d="M316.96,285.1l0.19-0.16C317.02,284.89,316.98,284.97,316.96,285.1z"/>
	</g>
	<g>
		<polygon points="316.51,284.16 316.17,284.5 316.56,284.16 		"/>
	</g>
	<g>
		<polygon points="317.47,285.69 317.33,285.93 317.57,285.58 		"/>
	</g>
	<g>
		<path d="M317.86,285.74c-0.11,0.2,0,0.38-0.1,0.5c0.11-0.01,0.24-0.18,0.36-0.32C318.02,285.98,317.93,285.94,317.86,285.74z"/>
	</g>
	<g>
		<path d="M318.31,285.7c-0.05,0.04-0.12,0.12-0.19,0.21C318.18,285.87,318.24,285.81,318.31,285.7z"/>
	</g>
	<g>
		<path d="M317.39,285.05c0,0.07-0.02,0.25,0.04,0.34l0.01-0.33C317.43,285.07,317.41,285.06,317.39,285.05z"/>
	</g>
	<g>
		<path d="M317.45,285.06l0,0.01c0.06,0.02,0.1,0.04,0.12,0.05C317.55,285.11,317.52,285.1,317.45,285.06z"/>
	</g>
	<g>
		<path d="M317.38,285.05c0.01,0,0.01,0,0.01,0C317.39,285.02,317.39,285.01,317.38,285.05z"/>
	</g>
	<g>
		<path d="M316.83,284.53c0.13-0.15,0.35-0.3,0.24-0.61C316.96,284.12,317.03,284.3,316.83,284.53z"/>
	</g>
	<g>
		<path d="M317.39,284.64l-0.14-0.11c-0.02,0.08-0.02,0.21-0.08,0.29L317.39,284.64z"/>
	</g>
	<g>
		<polygon points="317.49,284.56 317.39,284.64 317.45,284.68 		"/>
	</g>
	<g>
		<path d="M318.11,285.35c0.1-0.12,0.18-0.11,0.27-0.12c-0.08-0.08-0.16-0.14-0.25-0.16C318.09,285.17,318.01,285.33,318.11,285.35z
			"/>
	</g>
	<g>
		<path d="M317.79,285.18c0.01-0.01,0.01-0.01,0.02-0.01C317.81,285.14,317.8,285.13,317.79,285.18z"/>
	</g>
	<g>
		<path d="M319.21,285.43c0-0.02,0-0.04,0-0.06c-0.01,0.02-0.01,0.04-0.02,0.05L319.21,285.43z"/>
	</g>
	<g>
		<path d="M318.12,285.01c-0.05-0.08-0.11-0.01-0.17,0.08c0.06-0.02,0.12-0.03,0.18-0.02C318.14,285.03,318.15,285,318.12,285.01z"
			/>
	</g>
	<g>
		<path d="M318.58,285.61c-0.02-0.07-0.05-0.14-0.08-0.2C318.51,285.52,318.55,285.69,318.58,285.61z"/>
	</g>
	<g>
		<path d="M317.82,285.26c0,0-0.01,0.01-0.01,0.01C317.81,285.34,317.81,285.31,317.82,285.26z"/>
	</g>
	<g>
		<path d="M317.82,285.26c0.05-0.04,0.09-0.11,0.13-0.17c-0.05,0.01-0.09,0.04-0.14,0.08C317.82,285.19,317.82,285.23,317.82,285.26
			z"/>
	</g>
	<g>
		<path d="M319.93,283.48c-0.08,0.29-0.32,0.51-0.4,0.17c-0.2,0.18-0.33,1.16-0.32,1.72c0.03-0.13,0.06-0.24,0.26-0.38
			c-0.02-0.17-0.26-0.45-0.07-0.68c0.24-0.1,0.15,0.14,0.21,0.32c0-0.38,0.39-0.46,0.47-1l-0.23,0.14
			C319.86,283.69,319.96,283.57,319.93,283.48z"/>
	</g>
	<g>
		<path d="M318.91,285.27l-0.07,0.02c0.06,0.07,0.09,0.2,0.13,0.44c0.14-0.12,0.19-0.22,0.22-0.31l-0.31-0.11L318.91,285.27z"/>
	</g>
	<g>
		<path d="M318.55,285.22c0.12-0.3,0.31-0.4,0.29-0.76c-0.19-0.02-0.19,0.23-0.34,0.34c0.32-0.01-0.13,0.15,0.05,0.38
			c-0.07,0.04-0.13,0.04-0.18,0.04c0.05,0.05,0.09,0.11,0.12,0.18c0-0.01,0-0.01,0-0.02l0,0c0,0,0,0,0,0c0-0.04,0-0.07,0.01-0.04
			c0,0,0.01,0,0.01,0C318.52,285.3,318.54,285.26,318.55,285.22c0.07,0.09-0.01,0.09-0.04,0.12c0,0.02-0.01,0.03-0.01,0.05
			c0,0,0,0,0,0l0.35-0.1C318.79,285.23,318.71,285.22,318.55,285.22z"/>
	</g>
	<g>
		<path d="M317.4,283.29c0,0.03,0,0.05-0.01,0.08C317.42,283.33,317.43,283.3,317.4,283.29z"/>
	</g>
	<g>
		<path d="M317.48,283.5c-0.03,0.04-0.08,0.16-0.14,0.11c-0.04-0.11,0.04-0.15,0.06-0.25c-0.06,0.07-0.2,0.19-0.1,0.37l0.03-0.04
			c0.1,0.14,0.16,0.57,0.13,0.6C317.48,284.01,317.49,283.8,317.48,283.5z"/>
	</g>
	<g>
		<path d="M318.04,284.29l0.29-0.09l-0.07-0.3l-0.03,0.17C318.11,283.95,318.09,284.16,318.04,284.29z"/>
	</g>
	<g>
		<polygon points="319.2,285.59 319.09,285.91 319.34,285.48 		"/>
	</g>
	<g>
		<polygon points="319.54,285.63 319.46,285.91 319.58,285.76 		"/>
	</g>
	<g>
		<path d="M338.98,286.4l0.09-0.06C339.03,286.36,339,286.38,338.98,286.4z"/>
	</g>
	<g>
		<path d="M338.44,286.26l-0.05,0.14C338.44,286.32,338.46,286.27,338.44,286.26z"/>
	</g>
	<g>
		<path d="M327.64,287.49c0.05,0.3,0.07,0.74,0.13,0.41l0.04-0.32C327.72,287.62,327.67,287.57,327.64,287.49z"/>
	</g>
	<g>
		<path d="M333.63,286.9c0-0.03-0.01-0.07-0.01-0.1c-0.05,0.1-0.1,0.2-0.14,0.29C333.52,287.03,333.57,286.97,333.63,286.9z"/>
	</g>
	<g>
		<path d="M334.01,285.61l0.1,0.24C334.09,285.77,334.06,285.69,334.01,285.61z"/>
	</g>
	<g>
		<path d="M342,286.76l0.16-0.3C342.03,286.43,342.05,286.6,342,286.76z"/>
	</g>
	<g>
		<path d="M322.94,286.3c0.06,0.15,0.13,0.22,0.19,0.25C323.06,286.34,323.03,286.05,322.94,286.3z"/>
	</g>
	<g>
		<path d="M337.98,289.72c0.06-0.05,0.09-0.11,0.11-0.18C338.03,289.58,337.99,289.64,337.98,289.72z"/>
	</g>
	<g>
		<path d="M323.4,286.61c-0.01-0.04-0.02-0.06-0.03-0.09c-0.08,0.04-0.16,0.06-0.24,0.02C323.18,286.7,323.26,286.81,323.4,286.61z"
			/>
	</g>
	<g>
		<path d="M352.63,289.53c0,0.02,0.01,0.03,0.02,0.04C352.66,289.53,352.65,289.52,352.63,289.53z"/>
	</g>
	<g>
		<path d="M354.99,293.45c-0.04,0.01-0.09,0-0.13-0.01C354.88,293.48,354.92,293.48,354.99,293.45z"/>
	</g>
	<g>
		<path d="M320.83,286.08C320.76,286.08,320.81,286.11,320.83,286.08L320.83,286.08z"/>
	</g>
	<g>
		<path d="M320.78,284.74c0.02-0.03,0.05-0.07,0.06-0.15C320.82,284.67,320.8,284.72,320.78,284.74z"/>
	</g>
	<g>
		<path d="M324.56,284.8C324.56,284.8,324.56,284.8,324.56,284.8C324.56,284.74,324.56,284.75,324.56,284.8z"/>
	</g>
	<g>
		<path d="M320.76,285.91c0.02,0.05,0.04,0.08,0.07,0.12C320.82,286,320.8,285.96,320.76,285.91z"/>
	</g>
	<g>
		<path d="M320.74,286.06c-0.02-0.02-0.04-0.03-0.05-0.05C320.66,286.07,320.66,286.1,320.74,286.06z"/>
	</g>
	<g>
		<path d="M320.93,286.08c-0.04,0-0.07-0.03-0.11-0.06c0.01,0.02,0.01,0.04,0,0.05C320.85,286.08,320.88,286.08,320.93,286.08z"/>
	</g>
	<g>
		<path d="M346.7,289.03c0,0.01,0.01,0.02,0.01,0.03C346.81,288.95,346.78,288.96,346.7,289.03z"/>
	</g>
	<g>
		<path d="M330.23,284.63c0,0-0.01,0.01-0.01,0.01c0,0,0.01,0.01,0.01,0.01L330.23,284.63z"/>
	</g>
	<g>
		<path d="M330.54,284.45c-0.2,0.37-0.25,0.31-0.31,0.2l-0.13,0.93L330.54,284.45z"/>
	</g>
	<g>
		<path d="M340.29,286.62l-0.11-0.33c0.32-0.42,0.44-0.22,0.37-0.66c-0.26,0.99-0.71-0.06-0.97,0.93l-0.07-0.24
			c0.03,0.02,0.05-0.04,0.08-0.02c-0.11-0.53-0.34,0.68-0.59,0.47c-0.08-0.1-0.12-0.26-0.02-0.36l-0.28,0.19
			c-0.06-0.03,0-0.2,0.06-0.17l-0.36,0l0.01-0.03c-0.09,0.14-0.25,0.36-0.33,0.45c-0.05-0.16,0.07-0.09,0.08-0.22l-0.25,0.2
			c-0.02-0.28,0.2-0.49,0.32-0.42c0.05-1.03-0.22,0.21-0.47-0.46l0.21-0.08c0.02-0.59-0.17-0.42-0.29-0.82
			c0.01,0.19,0.2,0.98-0.06,1.18c-0.04-0.09-0.11-0.14-0.27,0.03c0.08-0.35-0.05-0.29-0.19-0.3l0.12-0.46
			c-0.18,0.1-0.22,0.34-0.36,0.53c-0.15-0.08-0.1-0.45-0.07-0.77c-0.25-0.14,0.05,0.62-0.29,0.64c-0.18-0.23-0.38-0.08-0.7,0.14
			c-0.12-0.2,0.09-0.28,0.07-0.43l-0.22,0.34c-0.03-0.02,0.01-0.13,0.03-0.19c-0.15,0.12-0.12,0.46-0.33,0.55
			c-0.17,0.5-0.19-0.84-0.55-0.31c-0.02-0.15,0.09-0.28,0.12-0.46c-0.4,0.31-0.33,0.22-0.7,0.67l-0.14-0.36
			c0.08,0.39-0.22,0.76-0.48,1.06c0.02,0.18,0.03,0.34,0.04,0.42l-0.34,0.18c-0.02-0.08,0.05-0.24,0.14-0.42
			c-0.03,0.03-0.06,0.07-0.08,0.1c-0.06-0.2,0.06-0.45,0.19-0.7c0.01,0.1,0.02,0.21,0.03,0.31c0.14-0.27,0.27-0.57,0.32-0.84
			c-0.03,0.05-0.08,0.09-0.12,0.1c0.04-0.07,0.06-0.14,0.07-0.19c0-0.05-0.05,0.05-0.13,0.15l0.06-0.54l-0.06,0.2l-0.29-0.41
			c-0.39,0.46-0.8,1.18-1.26,1.3c0.19-0.36,0.17-0.62,0.28-1.07c0,0.51,0.37-0.13,0.56,0.02c-0.1-0.08-0.03-0.29,0.02-0.36
			l-0.49,0.35c0.1-0.37-0.02-0.3-0.08-0.47c-0.1,0.75-0.4,0.42-0.61,0.61c0.05-0.25,0.14-0.49,0.32-0.39
			c-0.08-0.6-0.47,0.79-0.57,0.28c0.05,0,0.06,0.05,0.11-0.07c-0.16,0.19-0.39-0.04-0.27-0.24l0.05,0.01
			c-0.29-0.16-0.94-0.23-1.14,0.38c0.02-0.08,0.22-0.74,0.26-0.86l-1.04,1.96c0.17-0.52,0.28-1.84,0.61-2.08
			c-0.06-0.09-0.13-0.2-0.33-0.05c0.03,0.09-0.06,0.8-0.14,0.83c-0.05-0.64-0.06-0.35-0.17-0.91c0.05,0.13-0.23,0.95-0.34,0.89
			c0.05-0.12,0.18-0.83,0.25-0.9l-0.49,0.75c0.11-0.13,0.18-0.69,0.16-0.94c-0.01,0.17-0.25-0.08-0.35-0.01l0.08,0.22
			c-0.31-0.2-0.6,1.08-0.93,0.96c0.08-0.16,0.34-1.02,0.2-1.16c-0.18,0.4-0.82,1.94-1.19,2.2v-0.25l-0.29,0.22
			c0.29-0.6,1-1.84,1.33-2.31c-0.08-0.22,0.03-0.29-0.16-0.31c-0.01-0.24,0.18-0.32,0.24-0.32l-0.4-0.25
			c-0.1,0.5-0.45,0.41-0.53,0.83l0.59-0.4c-0.1,0.49-0.6,1.33-0.89,1.17c-0.03-0.21,0.26-0.86,0.3-1.03
			c-0.08,0.16-0.37,0.25-0.37,0.13l0.19-0.23c-0.13-0.23-0.43,0.58-0.53,0.07c-0.06-0.05-0.07-0.68-0.15-0.39
			c-0.01,0.59-0.4,2.33-0.57,2.73c-0.02-0.04-0.25-0.62-0.27-0.92c-0.02-0.47,0.42-1.01,0.41-1.41c-0.04,0.13-0.14,0.28-0.18,0.33
			c-0.05-0.13,0.13-0.41-0.05-0.39c-0.14,0.49-0.32-0.12-0.18,0.4c-0.19,0.1-0.15-0.14-0.34-0.16c-0.02,0.34-0.43,1.06-0.62,1.16
			c0.04-0.12,0.04-0.3,0.04-0.38c-0.32-0.12-0.44-0.39-0.75-0.47c0-0.13-0.11-0.31,0-0.51c-0.06,0.08-0.14,0.24-0.24,0.23
			c-0.08-0.47,0.23-0.02,0.21-0.57c-0.08,0.29-0.34,0.34-0.51,0.49c-0.06,0.46,0.29,0.16,0.47,0.01c-0.14,0.62-0.53,1.21-0.92,1.42
			c-0.29,0.09-0.02-0.42-0.08-0.35c-0.45-0.22-0.66,0.98-0.95,0.44c-0.07-0.43,0.18-0.78,0.21-1.07c0.24-0.1,0.26,0.32,0.4,0.34
			l-0.13-0.23c0.1-0.12,0.26-0.18,0.31-0.05c-0.05-0.38-0.79-0.26-1.08-0.67c-0.1,0.12-0.24,0.23-0.22,0.4l0.13-0.03
			c0.03,0.34-0.32,0.39-0.21,0.57c-0.21,0.19-0.47,0.49-0.64,0.26l0.06-0.46c-0.03,0.13,0.08,0.3,0.18,0.18
			c-0.14,0.18-0.2-0.68-0.43-0.12l0.08,0.35c-0.21,0.19-0.52,0.62-0.68,0.43c-0.02,0.46,0.06-0.04,0.07,0.51
			c0.03-0.67,0.49,0.14,0.46-0.58c0,0.63,0.19,0.31,0.25,0.87c0.03-0.15,0-0.3,0.15-0.19c0.02-0.04,0.05-0.09,0.07-0.12
			c0,0.01,0.01,0.01,0.01,0.01c0-0.01,0-0.01-0.01-0.02c0.01-0.02,0.01-0.02,0-0.01c-0.02-0.07-0.04-0.16-0.03-0.24
			c0.16-0.32,0.42-0.25,0.55-0.4c0.08,0.09-0.08,0.16-0.06,0.33l0.19-0.23c-0.06,0.33,0.13,0.61-0.14,0.74l0.2,0.06
			c0.08,0.21,0.23,0.32,0.36,0.21c0.08,0.09,0.33-0.31,0.19-0.07l0.37-0.13l-0.02,0.08c0.31,0.12,0.78-0.39,1.01,0.29
			c0.13-0.06,0.26-0.13,0.42,0l-0.03,0.29c0.16-0.07,0.35,0.38,0.48,0.1c-0.03,0.8,0.63,0.32,0.84,0.52l0.1-0.37
			c0.16,0.06,0.35-0.01,0.59-0.11l0.06-0.33c0.24-0.23,0.4,0.34,0.69,0.37c-0.05,0.12-0.11,0.07-0.15-0.02
			c0.16,0.82,0.84-0.37,1.02,0.24c0.1-0.1,0.15-0.05,0.18,0.05c-0.01,0-0.01,0-0.02,0.01c0.01,0.01,0.02,0.01,0.03,0.01
			c0.02,0.06,0.04,0.14,0.06,0.2c-0.01-0.09-0.03-0.16-0.05-0.2c0.06,0.01,0.16-0.01,0.27-0.07l-0.05,0.36c0.01,0,0.01,0,0.02-0.01
			c0.06,0.15,0.11-0.15,0.12-0.43c0.06-0.05,0.11-0.11,0.17-0.19c-0.06,0.58,0.27-0.14,0.23,0.49c0.13-0.28,0.49-0.12,0.68-0.73
			c-0.02,0.08,0,0.13-0.05,0.12c0.08,0.09,0.16,0.19,0.29,0.03l-0.06,0.46l0.35-0.55c0.07,0.3,0.08,0.47-0.13,0.79
			c0.43-0.46,0.3-0.14,0.68-0.6l-0.08,0.29c0.1,0.01,0.34-0.34,0.34-0.09c0.08,0.6,1.02,0.32,1.45,0.96
			c0.09-0.88,0.16,0.44,0.34-0.21c-0.02,0.21,0.03,0.34-0.1,0.49c0.32-0.13,0.34,0.42,0.66-0.1c-0.02,0.21-0.13,0.28-0.13,0.41
			c0.03-0.04,0.13-0.15,0.13-0.03c0,0.13-0.08,0.16-0.14,0.24c0.29,0.03,0.46-0.58,0.62-1.16c0.08,0.31,0.16,0.29,0.35-0.07
			c0.01,0.2,0.04,0.42-0.15,0.45c0.09,0.05,0.54,0.42,0.66-0.04c0,0.13,0.13,0.07,0.17,0.02c0.21,0.08,0.22,0.13,0.45,0.13
			l-0.04-0.09c0.22-0.54,0.21-0.08,0.4-0.11l-0.02,0.06c0.31,0.5,0.22-0.15,0.51,0.4l0.06-0.36c0.21-0.74,0.25,0.53,0.54,0.29
			l-0.04-0.22c0.19-0.23,0.11,1.11,0.21,1.23c0.01,0.07-0.07,0.09-0.12,0.13c0.23,0.52,0.15-0.45,0.42-0.5
			c-0.01,0.26-0.21,0.62-0.05,0.7c0.04,0.22,0.67-0.69,0.78-0.16c-0.01-0.2-0.01-0.4,0.14-0.52c0.19-0.03,0.3,0.83,0.6,0.27
			c0.01,0.06,0.01,0.11,0,0.16c0.17-0.12,0.5-0.16,0.65-0.46c-0.16,1.24,0.97-0.39,0.71,0.72l0.43,0.04l-0.04,0.11
			c0.25,0.14,0.4-0.11,0.56-0.36c0.04,0.09-0.03,0.18-0.04,0.24c0.33,0.32,0.38,0.28,0.83-0.2l-0.05,0.37
			c0.14-0.19,0.42,0.7,0.9,0.36c-0.01,0.04-0.04,0.11-0.08,0.15c0.52-0.33,0.78,1.24,1.24-0.04l0.36-0.26
			c-0.34-0.19,0.19-0.56,0.09-0.81c0.16-0.04,0.28,0.48,0.08,0.51l-0.01-0.07c-0.23,0.67,0.39,0.35,0.27,0.81
			c0.72,0.13,1.33,0.68,1.99,0.86l0.05-0.55l0.23,0.09c0.03,0.14-0.02,0.44-0.18,0.38c0.02,0.32,0.34-0.19,0.37-0.3
			c0.27,0.29-0.27,0.59-0.18,0.63l0.14-0.01l-0.02-0.07c0.16-0.19,0.23-0.42,0.42-0.35c0.1,0.14-0.01,0.34,0.03,0.38
			c-0.01,0.04,0,0.06,0.07,0.03l0.28,0.11l-0.02-0.45c0.18-0.18,0.27,0.09,0.25-0.42c0.03,0.78,1.03,0.52,1.1,0.78
			c0.25-0.26,0.43-0.22,0.65-0.13c-0.03-0.1,0.04-0.58,0.22-0.48c-0.3,0.96,0.25,0.51,0.24,1.25c-0.03-0.5,0.57,0.01,0.51-0.7
			c0.14,0.12-0.08,0.37-0.01,0.63c0.47-0.29,0.78,0.44,1.28,0.43c0.04-0.13,0-0.34,0.15-0.51l0.1,0.7c0.11-0.04,0.26-0.72,0.32-0.24
			c0-0.11,0-0.29,0.08-0.31c0.78,0.84,2.01-0.07,2.67,1.33c-0.07-0.28,0.02-0.28,0.12-0.27c-0.05-0.07,0.08-0.32,0.1-0.49l0.28,0.58
			c0.19-0.47,0.43,0.07,0.58-0.39l-0.14,0.05c0.29-0.51,0.05-1.27,0.24-1.96c-0.33,0.58-0.27-1.03-0.78-0.22
			c-0.03-0.16,0.11-0.21,0.11-0.38c-0.15,0.28-0.25,0.32-0.4,0.15l0.04-0.07c-0.5-0.04-0.64-0.38-1.14-0.71l-0.04,0.36
			c-0.11-0.07-0.1-0.19-0.14-0.29c-0.26,0.49,0.32,0.11,0.06,0.66c0.01-0.74-0.82-0.2-0.74-1.03c-0.18-0.05-0.04,0.41-0.22,0.37
			l0-0.23l-0.11,0.27c-0.11-0.07-0.1-0.36-0.06-0.54c0.02,0.03,0.09-0.03,0.13-0.04c-0.09-0.29-0.45-0.01-0.48-0.11l0.14,0.17
			c-0.54,0.09-1.07-0.34-1.65-0.01l0,0.17c-0.43,0.22-0.25-0.25-0.68-0.2l0.02-0.04c-0.12,0.14-0.24,0.2-0.35,0.16
			c0.15-0.17-0.1-0.42,0.08-0.6c-0.47,0.23-0.25,0.21-0.66,0.75l0-0.28c-0.15,0.22-0.18,0.35-0.4,0.38
			c0.22-0.19-0.03-0.44,0.22-0.71c-0.28-0.69-0.76,0.45-0.75-0.46c-0.37,0.7,0.26,0.5,0.12,0.64c0.03,0.27-0.29,0.52-0.4,0.42
			c-0.13-0.05,0-1.01-0.34-1.08c0.03,0.01,0.05-0.04,0.08-0.03c-0.08-0.22-0.31,0.2-0.39-0.15c-0.19,0.43-0.19-0.07-0.35,0.5
			l0.34-0.06c-0.21,0.11-0.53,0.75-0.74,0.35c0.05-0.11,0.17-0.24,0.25-0.32c-0.04-0.19-0.19,0.08-0.23-0.12
			c0.16-0.57,0.4-0.04,0.69-0.44c-0.03-0.27-0.45,0.34-0.21-0.27c-0.32,0.76-0.31-0.18-0.68,0.38l0.1-0.34
			c-0.05,0.05-0.16,0.19-0.23,0.17l0.22-0.42c-0.27,0.34-0.28-0.42-0.5-0.25c0.37,0.08-0.02,0.44,0.08,0.73
			c-0.56,0.36-0.05-0.97-0.6-0.92c0.08-0.03,0.21,0.27,0.06,0.4c-0.08-0.09-0.18-0.26-0.19-0.45c-0.35-0.01-0.03,0.37-0.23,0.55
			c-0.02-0.45-0.21,0.13-0.39,0.23l0.08-0.35c-0.33-0.32-0.27,0.71-0.56,0.36l0.26-0.45l-0.21,0.08l0.13-0.39
			c-0.27,0.25-0.31,0.16-0.47,0c-0.01,0.26-0.18,0.63-0.35,0.6c-0.07-0.24,0.14-0.32-0.11-0.33c0.11-0.21,0.23-0.47,0.26-0.12
			c0.04-0.11,0.11-0.21,0.14-0.32c-0.07-0.27-0.3-0.13-0.39-0.15c0.03,0.02,0.07,0.05,0.08,0.1l-0.46,0.41
			c-0.02-0.15,0.04-0.24,0.11-0.34c-0.08,0.02-0.17,0.17-0.28,0.18c0.09-0.28,0.16-0.58,0.34-0.68l-0.41,0.24
			c0.01-0.13-0.09-0.38-0.02-0.48c-0.15-0.21-0.58,0.45-0.78,0.17c-0.03,0.05-0.06,0.1-0.13,0.13c-0.22-0.12-0.34-0.52-0.7-0.19
			l-0.03-0.55c-0.24,0.07,0.06,0.7-0.34,0.81c-0.29,0.1,0.01-0.46-0.05-0.62c-0.19,0.23-0.53,0.71-0.66,0.23
			C340.17,286.55,340.21,286.64,340.29,286.62z M337.6,286.22c0.07-0.06,0.22-0.27,0.21-0.05
			C337.66,286.57,337.66,286.36,337.6,286.22z M333.4,286.13c0.07-0.11,0.11-0.04,0.15,0.11
			C333.49,286.26,333.44,286.24,333.4,286.13z M321.66,285.97c0-0.01,0.01-0.01,0.01-0.02
			C321.75,286.12,321.73,286.05,321.66,285.97z M321.46,285.76c-0.04,0.04-0.05,0.09-0.05,0.14c0.04-0.09,0.09-0.08,0.15-0.04
			C321.57,285.77,321.55,285.7,321.46,285.76z M346.9,291.58l-0.02-0.1C347,291.4,346.95,291.48,346.9,291.58z"/>
	</g>
	<g>
		<path d="M333.97,285.76c0,0.06-0.01,0.13-0.02,0.2C333.98,285.9,333.99,285.83,333.97,285.76z"/>
	</g>
	<g>
		<path d="M341.97,286.81C341.98,286.82,341.98,286.82,341.97,286.81c0.02-0.01,0.02-0.04,0.03-0.06L341.97,286.81z"/>
	</g>
	<g>
		<path d="M325.83,283.63c0.04,0.06,0.05,0.13,0.05,0.2C325.9,283.75,325.9,283.67,325.83,283.63z"/>
	</g>
	<g>
		<path d="M320.07,286.07l0.17-0.06c-0.08,0-0.09-0.08-0.11-0.15C320.12,285.95,320.12,286.07,320.07,286.07z"/>
	</g>
	<g>
		<path d="M319.27,283.58c-0.03,0.04-0.05-0.01-0.08,0.03l-0.03,0.17C319.25,283.79,319.35,283.67,319.27,283.58z"/>
	</g>
	<g>
		<path d="M320.2,284.86c0.06-0.3-0.06-0.22-0.18-0.19c0.01,0,0.01,0,0.02,0C319.91,285.08,320.06,284.97,320.2,284.86z"/>
	</g>
	<g>
		<path d="M320,284.68c-0.04,0.01-0.07,0.01-0.1-0.02C319.85,284.82,319.93,284.7,320,284.68z"/>
	</g>
	<g>
		<path d="M321.12,285.89c-0.03-0.09-0.12,0.37-0.12,0.24C320.85,286.5,321.44,285.75,321.12,285.89z"/>
	</g>
	<g>
		<polygon points="320.35,283.87 320.3,284.24 320.43,283.96 		"/>
	</g>
	<g>
		<path d="M321.12,284.33l-0.15-0.14c-0.01,0.06-0.04,0.09-0.07,0.11C321,284.34,321.1,284.44,321.12,284.33z"/>
	</g>
	<g>
		<path d="M320.9,284.3c-0.05-0.02-0.11-0.02-0.15,0.03C320.78,284.34,320.85,284.34,320.9,284.3z"/>
	</g>
	<g>
		<polygon points="320.6,283.81 320.64,283.9 320.75,283.95 		"/>
	</g>
	<g>
		<path d="M322.93,284.83l0.21-0.06c0.05-0.12,0.02-0.21-0.06-0.18C323.01,284.67,322.93,284.7,322.93,284.83z"/>
	</g>
	<g>
		<path d="M322.6,283.7c0.03,0.09,0.02,0.17,0.02,0.3l0.11-0.45L322.6,283.7z"/>
	</g>
	<g>
		<path d="M323.17,283.72c0.05-0.12,0.35-0.3,0.11-0.32C323.23,283.51,323.02,283.57,323.17,283.72z"/>
	</g>
	<g>
		<polygon points="325.82,284.94 325.77,284.94 325.61,285.68 		"/>
	</g>
	<g>
		<path d="M328.7,283.74c-0.18-0.23-0.16,0.45-0.31,0.18c-0.09,0.16,0.12,0.22,0.03,0.36C328.6,284.12,328.64,284.24,328.7,283.74z"
			/>
	</g>
	<g>
		<path d="M328.42,284.28c-0.03,0.02-0.06,0.05-0.09,0.1C328.38,284.34,328.4,284.31,328.42,284.28z"/>
	</g>
	<g>
		<polygon points="355.42,293.97 355.52,294.16 355.49,293.89 		"/>
	</g>
	<g>
		<path d="M355.82,293.49l-0.08,0.48l0.19-0.41C355.89,293.57,355.82,293.6,355.82,293.49z"/>
	</g>
	<g>
		<path d="M337.44,285.18l-0.04,0.11c-0.01,0.13,0.02,0.15,0.09,0.18L337.44,285.18z"/>
	</g>
	<g>
		<polygon points="339.26,285.98 339.23,285.96 339.19,286.41 		"/>
	</g>
	<g>
		<path d="M341,285.81c-0.06-0.03-0.16,0.04-0.22,0.01C340.94,285.78,340.89,286.35,341,285.81z"/>
	</g>
</g>
<g>
	<g>
		<path d="M322.03,300.46c0.01-0.05-0.27,0.09-0.33,0.1C321.8,300.61,322.11,300.42,322.03,300.46z"/>
	</g>
	<g>
		<polygon points="323,300.88 322.87,300.92 323.21,300.89 		"/>
	</g>
	<g>
		<path d="M323.28,301.54c0.46-0.28-0.18-0.2-0.06-0.4l0.1-0.07l-0.42,0.12C323.03,301.31,323.37,301.38,323.28,301.54z"/>
	</g>
	<g>
		<path d="M322.37,302.36c0.18-0.11,0.2,0,0.02-0.11c-0.02,0.02-0.03,0.02-0.04,0.04C322.37,302.3,322.37,302.32,322.37,302.36z"/>
	</g>
	<g>
		<path d="M322.36,302.28C322.31,302.22,322.22,302.4,322.36,302.28L322.36,302.28z"/>
	</g>
	<g>
		<path d="M322.61,302.56l-0.21-0.02c-0.1,0.07-0.09,0.16-0.19,0.17C322.34,302.76,322.45,302.69,322.61,302.56z"/>
	</g>
	<g>
		<path d="M323,302.49l-0.09-0.02C322.87,302.5,322.86,302.52,323,302.49z"/>
	</g>
	<g>
		<path d="M322.71,302.44l0.2,0.03c0.07-0.05,0.23-0.12-0.08-0.02C322.98,302.39,322.83,302.43,322.71,302.44z"/>
	</g>
	<g>
		<path d="M322.76,302.35c0.08-0.1,0.12-0.19,0.33-0.18C322.95,302.02,322.62,302.2,322.76,302.35z"/>
	</g>
	<g>
		<path d="M323.8,301.35l0.11-0.13l-0.19,0.01C323.82,301.22,323.65,301.42,323.8,301.35z"/>
	</g>
	<g>
		<path d="M322.6,303.24c0.11-0.04,0.26-0.15,0.4-0.22l-0.15-0.02C322.79,303.07,322.76,303.17,322.6,303.24z"/>
	</g>
	<g>
		<path d="M323,303.02l0.22,0.02C323.2,302.94,323.11,302.96,323,303.02z"/>
	</g>
	<g>
		<polygon points="323.55,302.26 323.1,302.26 323.57,302.29 		"/>
	</g>
	<g>
		<polygon points="322.76,303.63 322.49,303.68 322.9,303.62 		"/>
	</g>
	<g>
		<path d="M322.91,303.87c-0.22,0.05-0.31,0.21-0.46,0.22c0.07,0.05,0.26,0.04,0.44,0.02C322.79,304.09,322.79,304.02,322.91,303.87
			z"/>
	</g>
	<g>
		<path d="M323.17,304.1c-0.06-0.01-0.16,0-0.26,0.01C322.96,304.12,323.04,304.12,323.17,304.1z"/>
	</g>
	<g>
		<path d="M323.25,303.24c-0.06,0.04-0.22,0.12-0.26,0.21l0.28-0.17C323.26,303.27,323.25,303.25,323.25,303.24z"/>
	</g>
	<g>
		<path d="M323.27,303.27L323.27,303.27c0,0.05,0.01,0.08,0.01,0.1C323.28,303.36,323.27,303.33,323.27,303.27z"/>
	</g>
	<g>
		<path d="M323.24,303.23c0,0,0,0.01,0,0.01C323.27,303.22,323.28,303.21,323.24,303.23z"/>
	</g>
	<g>
		<path d="M323.4,302.65c0.19-0.01,0.42,0.03,0.62-0.2C323.8,302.49,323.69,302.63,323.4,302.65z"/>
	</g>
	<g>
		<path d="M323.59,303.02l0.02-0.14c-0.08,0.04-0.18,0.11-0.28,0.11L323.59,303.02z"/>
	</g>
	<g>
		<polygon points="323.7,303.03 323.59,303.02 323.58,303.07 		"/>
	</g>
	<g>
		<path d="M323.36,303.79c0.15-0.01,0.18,0.04,0.23,0.08c0.03-0.09,0.03-0.16,0.01-0.22C323.5,303.69,323.32,303.73,323.36,303.79z"
			/>
	</g>
	<g>
		<path d="M323.34,303.53c0.01,0,0.01,0,0.02,0C323.38,303.52,323.39,303.51,323.34,303.53z"/>
	</g>
	<g>
		<path d="M323.83,304.44c0.01-0.01,0.03-0.02,0.05-0.03c-0.02,0.01-0.03,0.01-0.05,0.02L323.83,304.44z"/>
	</g>
	<g>
		<path d="M323.64,303.62c0.04-0.07-0.05-0.07-0.15-0.05c0.04,0.02,0.08,0.05,0.1,0.09C323.64,303.64,323.66,303.63,323.64,303.62z"
			/>
	</g>
	<g>
		<path d="M323.37,304.2c0.05-0.05,0.09-0.1,0.13-0.15C323.42,304.11,323.29,304.22,323.37,304.2z"/>
	</g>
	<g>
		<path d="M323.29,303.58c-0.01,0-0.01,0-0.02,0C323.22,303.63,323.25,303.61,323.29,303.58z"/>
	</g>
	<g>
		<path d="M323.29,303.58c0.05,0.01,0.13-0.01,0.21-0.02c-0.04-0.02-0.08-0.03-0.13-0.03C323.34,303.55,323.31,303.57,323.29,303.58
			z"/>
	</g>
	<g>
		<path d="M325.79,303.79c-0.28,0.11-0.58,0.1-0.33-0.13c-0.25-0.01-1.11,0.45-1.57,0.76c0.12-0.05,0.23-0.1,0.44-0.06
			c0.13-0.1,0.24-0.39,0.53-0.41c0.2,0.08-0.05,0.16-0.16,0.29c0.31-0.21,0.57-0.04,1.06-0.29l-0.23-0.05
			C325.59,303.86,325.74,303.85,325.79,303.79z"/>
	</g>
	<g>
		<path d="M323.82,304.2l-0.05-0.03c-0.03,0.07-0.12,0.15-0.3,0.31c0.16,0.01,0.27-0.01,0.36-0.05l-0.06-0.23L323.82,304.2z"/>
	</g>
	<g>
		<path d="M323.68,303.97c0.31-0.1,0.48-0.05,0.77-0.25c-0.08-0.12-0.29,0.02-0.45,0c0.16,0.17-0.19,0.01-0.29,0.24
			c-0.07-0.02-0.1-0.05-0.13-0.08c-0.02,0.05-0.05,0.11-0.09,0.17c0.01,0,0.01-0.01,0.02-0.01l0,0c0,0,0,0,0,0
			c0.03-0.03,0.05-0.04,0.04-0.02c0,0,0.01,0,0.01,0C323.6,304,323.64,303.98,323.68,303.97c-0.04,0.09-0.07,0.04-0.12,0.04
			c-0.01,0.01-0.03,0.01-0.05,0.02c0,0,0,0,0,0l0.25,0.14C323.79,304.11,323.76,304.05,323.68,303.97z"/>
	</g>
	<g>
		<path d="M324.71,302.28c-0.02,0.02-0.04,0.03-0.07,0.04C324.68,302.31,324.71,302.31,324.71,302.28z"/>
	</g>
	<g>
		<path d="M324.57,302.44c-0.05,0-0.17,0.04-0.16-0.02c0.07-0.08,0.14-0.06,0.24-0.11c-0.09,0-0.26-0.01-0.36,0.15l0.05,0
			c-0.06,0.13-0.39,0.4-0.43,0.4C324.15,302.72,324.33,302.61,324.57,302.44z"/>
	</g>
	<g>
		<path d="M324.2,303.18l0.22,0.11l0.22-0.2l-0.15,0.07C324.51,303.04,324.33,303.14,324.2,303.18z"/>
	</g>
	<g>
		<polygon points="323.69,304.53 323.37,304.64 323.86,304.55 		"/>
	</g>
	<g>
		<polygon points="323.83,304.74 323.55,304.85 323.74,304.83 		"/>
	</g>
	<g>
		<path d="M332.76,315.91l0.1,0.02C332.83,315.91,332.79,315.91,332.76,315.91z"/>
	</g>
	<g>
		<path d="M332.62,315.53l-0.14,0.05C332.56,315.57,332.62,315.55,332.62,315.53z"/>
	</g>
	<g>
		<path d="M326.28,310.23c-0.22,0.19-0.58,0.44-0.28,0.3l0.29-0.15C326.22,310.35,326.23,310.29,326.28,310.23z"/>
	</g>
	<g>
		<path d="M329.72,313.22c0.03-0.02,0.05-0.04,0.08-0.06c-0.11,0.03-0.21,0.05-0.31,0.08C329.56,313.23,329.64,313.23,329.72,313.22
			z"/>
	</g>
	<g>
		<path d="M330.97,312.73l-0.15,0.18C330.88,312.86,330.93,312.8,330.97,312.73z"/>
	</g>
	<g>
		<path d="M333.96,317.78l0.33-0.07C334.25,317.61,334.11,317.72,333.96,317.78z"/>
	</g>
	<g>
		<path d="M324.95,306.98c-0.09,0.11-0.11,0.19-0.11,0.24C324.98,307.07,325.21,306.9,324.95,306.98z"/>
	</g>
	<g>
		<path d="M329.54,317.15c0.07,0.01,0.13-0.01,0.2-0.04C329.67,317.11,329.61,317.12,329.54,317.15z"/>
	</g>
	<g>
		<path d="M324.92,307.41c0.02-0.02,0.04-0.04,0.06-0.06c-0.07-0.02-0.13-0.05-0.14-0.12C324.74,307.34,324.69,307.43,324.92,307.41
			z"/>
	</g>
	<g>
		<path d="M336.91,325.16c-0.01,0.01-0.01,0.02-0.03,0.03C336.92,325.17,336.92,325.16,336.91,325.16z"/>
	</g>
	<g>
		<path d="M334.83,328.6c-0.03-0.01-0.04-0.05-0.06-0.08C334.76,328.54,334.77,328.57,334.83,328.6z"/>
	</g>
	<g>
		<path d="M324.1,305.7C324.06,305.66,324.06,305.7,324.1,305.7L324.1,305.7z"/>
	</g>
	<g>
		<path d="M325.17,304.95c0.04,0,0.08-0.02,0.15-0.04C325.25,304.93,325.2,304.94,325.17,304.95z"/>
	</g>
	<g>
		<path d="M326.98,307.07C326.98,307.07,326.98,307.07,326.98,307.07C327.04,307.03,327.03,307.04,326.98,307.07z"/>
	</g>
	<g>
		<path d="M324.2,305.56c-0.03,0.03-0.05,0.07-0.06,0.1C324.16,305.64,324.18,305.61,324.2,305.56z"/>
	</g>
	<g>
		<path d="M324.06,305.64c0.01-0.02,0.01-0.04,0.01-0.05C324.02,305.6,323.99,305.62,324.06,305.64z"/>
	</g>
	<g>
		<path d="M324.14,305.75c-0.02-0.03-0.01-0.06,0-0.09c-0.02,0.02-0.03,0.03-0.04,0.03C324.11,305.71,324.12,305.72,324.14,305.75z"
			/>
	</g>
	<g>
		<path d="M334.4,321.61c-0.01,0.01-0.01,0.01-0.02,0.02C334.52,321.63,334.49,321.61,334.4,321.61z"/>
	</g>
	<g>
		<path d="M329.92,310.11c0,0-0.01,0-0.02,0c0,0,0,0.01-0.01,0.01L329.92,310.11z"/>
	</g>
	<g>
		<path d="M330.22,310.18c-0.4,0.09-0.38,0.03-0.32-0.06l-0.83,0.43L330.22,310.18z"/>
	</g>
	<g>
		<path d="M333.23,316.75l0.21-0.24c0.5-0.05,0.4,0.12,0.73-0.16c-0.94,0.39-0.3-0.42-1.24-0.03l0.16-0.17
			c0,0.03,0.06,0.01,0.06,0.03c0.38-0.35-0.72,0.18-0.68-0.07c0.04-0.1,0.16-0.21,0.29-0.21l-0.3-0.05c0-0.05,0.17-0.11,0.17-0.06
			l-0.18-0.2l0.03-0.01c-0.16,0.03-0.42,0.05-0.53,0.06c0.11-0.12,0.11-0.01,0.22-0.08l-0.28-0.03c0.22-0.16,0.5-0.15,0.51-0.05
			c0.88-0.53-0.28,0,0.15-0.51l0.17,0.07c0.49-0.31,0.26-0.32,0.53-0.61c-0.16,0.11-0.71,0.64-1,0.6c0.05-0.07,0.06-0.14-0.16-0.13
			c0.33-0.15,0.22-0.18,0.16-0.27l0.44-0.19c-0.17-0.04-0.39,0.06-0.61,0.09c-0.01-0.13,0.32-0.3,0.6-0.46
			c-0.01-0.21-0.49,0.36-0.67,0.19c0.1-0.22-0.12-0.25-0.46-0.31c0.11-0.17,0.28-0.1,0.39-0.19l-0.39,0.06
			c0-0.03,0.11-0.07,0.17-0.09c-0.17-0.02-0.44,0.19-0.61,0.12c-0.5,0.18,0.6-0.56-0.02-0.47c0.11-0.09,0.28-0.1,0.44-0.19
			c-0.45-0.05-0.34-0.06-0.9-0.02l0.22-0.27c-0.28,0.25-0.73,0.29-1.11,0.31c-0.14,0.11-0.27,0.2-0.32,0.25l-0.32-0.09
			c0.06-0.05,0.22-0.1,0.42-0.15c-0.04,0-0.08,0.01-0.12,0.01c0.13-0.14,0.4-0.22,0.67-0.27c-0.08,0.06-0.16,0.13-0.24,0.19
			c0.29-0.07,0.6-0.16,0.86-0.28c-0.06,0.01-0.11,0.01-0.15-0.01c0.08-0.02,0.15-0.04,0.19-0.07c0.04-0.03-0.06,0-0.19,0.01
			l0.47-0.26l-0.2,0.07l0.2-0.38c-0.57,0.04-1.37,0.2-1.69,0.01c0.39-0.09,0.59-0.24,1.02-0.43c-0.42,0.28,0.29,0.14,0.26,0.32
			c0.01-0.1,0.22-0.17,0.3-0.18l-0.53-0.08c0.35-0.15,0.24-0.17,0.35-0.3c-0.66,0.35-0.54,0.01-0.8-0.01
			c0.23-0.11,0.47-0.19,0.48-0.03c0.45-0.37-0.89,0.17-0.51-0.17c0.02,0.03-0.01,0.06,0.11,0.02c-0.24,0.02-0.16-0.24,0.06-0.28
			l0.02,0.03c-0.01-0.25-0.28-0.65-0.88-0.42c0.07-0.04,0.72-0.28,0.84-0.32l-2.13,0.49c0.52-0.19,1.65-0.84,2.01-0.79
			c0.05-0.08,0.11-0.18-0.12-0.21c-0.06,0.07-0.69,0.4-0.75,0.38c0.5-0.37,0.26-0.22,0.67-0.59c-0.09,0.1-0.9,0.39-0.91,0.29
			c0.12-0.04,0.77-0.35,0.87-0.35l-0.86,0.14c0.16-0.01,0.66-0.28,0.86-0.42c-0.14,0.09-0.06-0.18-0.16-0.2l-0.14,0.16
			c0.02-0.28-1.19,0.25-1.24,0.01c0.17-0.04,1.01-0.36,1.06-0.52c-0.42,0.12-2.01,0.6-2.4,0.54l0.21-0.14l-0.33-0.04
			c0.64-0.17,2.01-0.45,2.56-0.51c0.14-0.16,0.26-0.14,0.18-0.26c0.19-0.14,0.35-0.07,0.38-0.04l0.01-0.36
			c-0.46,0.22-0.56-0.02-0.94,0.16l0.62,0.11c-0.45,0.22-1.39,0.39-1.4,0.14c0.16-0.13,0.84-0.32,0.99-0.39
			c-0.17,0.04-0.39-0.07-0.29-0.14l0.29-0.02c0.12-0.19-0.7,0.08-0.32-0.26c0.01-0.06,0.53-0.41,0.25-0.3
			c-0.49,0.31-2.11,1.04-2.53,1.16c0.03-0.03,0.39-0.48,0.63-0.65c0.38-0.26,1.04-0.31,1.36-0.54c-0.13,0.05-0.3,0.08-0.36,0.08
			c0.09-0.1,0.4-0.15,0.29-0.24c-0.48,0.19-0.06-0.24-0.42,0.12c-0.18-0.05,0.05-0.16-0.03-0.28c-0.28,0.17-1.08,0.34-1.26,0.29
			c0.12-0.05,0.27-0.14,0.33-0.18c-0.06-0.24,0.1-0.45,0.02-0.66c0.1-0.07,0.2-0.23,0.42-0.28c-0.1,0.01-0.27,0.05-0.31-0.01
			c0.35-0.3,0.13,0.12,0.57-0.19c-0.28,0.11-0.45,0-0.66-0.02c-0.41,0.21,0.01,0.25,0.22,0.26c-0.58,0.26-1.26,0.36-1.62,0.26
			c-0.22-0.11,0.34-0.24,0.25-0.23c-0.04-0.37-1.13,0.17-0.83-0.29c0.32-0.27,0.73-0.33,0.99-0.47c0.2,0.08-0.14,0.32-0.08,0.41
			l0.12-0.19c0.14-0.01,0.28,0.04,0.19,0.14c0.29-0.24-0.18-0.58,0.02-0.96c-0.14,0.01-0.3-0.01-0.44,0.09l0.09,0.06
			c-0.27,0.2-0.48,0.03-0.57,0.19c-0.26-0.01-0.64,0.01-0.53-0.21l0.41-0.21c-0.12,0.06-0.21,0.21-0.06,0.19
			c-0.21,0.02,0.47-0.48-0.11-0.31l-0.25,0.23c-0.26-0.01-0.76,0.05-0.69-0.14c-0.39,0.24,0.06,0.01-0.38,0.32
			c0.57-0.35,0.12,0.35,0.7-0.06c-0.52,0.34-0.17,0.27-0.59,0.61c0.14-0.06,0.25-0.16,0.23-0.02c0.04-0.01,0.1-0.02,0.13-0.03
			c0,0.01,0,0.01-0.01,0.01c0,0,0.01-0.01,0.01-0.01c0.02,0,0.03-0.01,0,0c0.05-0.05,0.11-0.11,0.19-0.15
			c0.34-0.08,0.41,0.1,0.6,0.08c-0.04,0.1-0.17,0.04-0.3,0.14l0.29-0.02c-0.3,0.14-0.44,0.4-0.68,0.32l0.05,0.15
			c-0.14,0.16-0.16,0.3,0,0.32c-0.04,0.1,0.41,0.02,0.15,0.07l0.29,0.14l-0.08,0.04c0.06,0.23,0.71,0.22,0.26,0.71
			c0.11,0.04,0.24,0.07,0.2,0.23l-0.26,0.14c0.13,0.05-0.14,0.4,0.15,0.32c-0.67,0.42,0.04,0.52-0.01,0.74l0.35-0.15
			c0.03,0.12,0.18,0.19,0.38,0.27l0.3-0.14c0.31,0.01-0.08,0.41,0.03,0.59c-0.12,0.04-0.11-0.02-0.06-0.09
			c-0.59,0.53,0.72,0.26,0.3,0.69c0.13,0,0.11,0.06,0.05,0.13c0,0-0.01-0.01-0.02-0.01c0,0.01,0,0.02,0.01,0.02
			c-0.04,0.05-0.09,0.1-0.13,0.14c0.07-0.05,0.12-0.1,0.14-0.13c0.02,0.04,0.09,0.08,0.19,0.11l-0.32,0.17
			c0.01,0,0.01,0.01,0.02,0.01c-0.1,0.11,0.18-0.02,0.41-0.16c0.07,0.01,0.15,0,0.23-0.01c-0.51,0.28,0.25,0.08-0.29,0.39
			c0.3-0.08,0.34,0.21,0.94-0.02c-0.08,0.04-0.1,0.07-0.12,0.04c-0.04,0.1-0.07,0.19,0.12,0.18l-0.41,0.21l0.63-0.1
			c-0.22,0.2-0.35,0.3-0.71,0.36c0.59-0.01,0.26,0.09,0.83,0.05l-0.28,0.11c0.04,0.06,0.45,0,0.24,0.14
			c-0.45,0.37,0.24,0.74-0.08,1.32c0.77-0.42-0.28,0.33,0.34,0.07c-0.18,0.1-0.26,0.2-0.45,0.22c0.27,0.11-0.18,0.41,0.4,0.31
			c-0.18,0.11-0.3,0.08-0.4,0.15c0.05,0,0.19-0.01,0.09,0.06c-0.1,0.07-0.17,0.04-0.27,0.05c0.12,0.18,0.71-0.06,1.26-0.29
			c-0.22,0.21-0.16,0.24,0.23,0.16c-0.16,0.11-0.33,0.25-0.44,0.16c0,0.08-0.08,0.52,0.36,0.34c-0.1,0.07,0.01,0.11,0.07,0.1
			c0.04,0.16,0.01,0.19,0.11,0.32l0.05-0.07c0.55-0.17,0.17,0.07,0.29,0.16l-0.06,0.02c-0.26,0.44,0.23,0.04-0.08,0.5l0.32-0.16
			c0.72-0.29-0.31,0.42,0.03,0.46l0.16-0.14c0.28-0.02-0.86,0.66-0.91,0.79c-0.05,0.05-0.11,0.01-0.17,0.01
			c-0.32,0.41,0.44-0.16,0.62-0.04c-0.22,0.13-0.61,0.22-0.6,0.35c-0.16,0.14,0.9-0.01,0.52,0.34c0.16-0.11,0.33-0.22,0.5-0.21
			c0.12,0.09-0.54,0.62,0.08,0.48c-0.04,0.04-0.09,0.06-0.13,0.08c0.19,0.03,0.37,0.19,0.7,0.11c-1.1,0.58,0.8,0.32-0.25,0.78
			l0.18,0.26l-0.11,0.04c0.01,0.21,0.29,0.16,0.57,0.11c-0.05,0.07-0.16,0.09-0.22,0.11c-0.1,0.35-0.04,0.36,0.58,0.35l-0.33,0.17
			c0.22-0.03-0.37,0.61,0.14,0.69c-0.04,0.01-0.11,0.04-0.17,0.04c0.53,0.11-0.64,1.11,0.65,0.67l0.39,0.06
			c-0.01-0.29,0.55-0.2,0.72-0.39c0.12,0.06-0.26,0.41-0.38,0.32l0.05-0.05c-0.67,0.24-0.09,0.41-0.54,0.59
			c0.24,0.47,0.09,1.1,0.27,1.57l0.48-0.27l0.04,0.17c-0.1,0.09-0.37,0.23-0.4,0.11c-0.26,0.18,0.32,0.08,0.43,0.04
			c-0.11,0.31-0.62,0.17-0.61,0.24l0.08,0.08l0.05-0.05c0.24-0.02,0.46-0.1,0.49,0.04c-0.06,0.13-0.29,0.18-0.29,0.22
			c-0.04,0.02-0.05,0.03,0.01,0.06l0.04,0.22l0.36-0.25c0.23,0,0.06,0.2,0.47-0.09c-0.63,0.44,0.08,0.85-0.1,1.03
			c0.34,0,0.39,0.12,0.42,0.29c0.07-0.07,0.5-0.29,0.5-0.14c-0.94,0.36-0.29,0.41-0.91,0.81c0.4-0.29,0.27,0.32,0.83-0.1
			c-0.03,0.14-0.34,0.16-0.52,0.34c0.47,0.1,0.02,0.67,0.28,0.94c0.12-0.05,0.28-0.18,0.49-0.19l-0.53,0.43
			c0.09,0.04,0.72-0.25,0.35,0.05c0.09-0.06,0.24-0.15,0.29-0.13c-0.31,0.89,1.05,1.07,0.22,2.2c0.2-0.19,0.24-0.14,0.28-0.08
			c0.04-0.07,0.3-0.13,0.46-0.21l-0.34,0.47c0.48-0.15,0.16,0.27,0.6,0.11l-0.12-0.05c0.56-0.11,1.07-0.66,1.74-0.93
			c-0.64,0.13,0.72-0.71-0.21-0.55c0.11-0.1,0.23-0.05,0.37-0.15c-0.3,0.07-0.39,0.03-0.32-0.14l0.08-0.02
			c-0.21-0.3,0-0.56,0.02-1.01l-0.31,0.17c0.01-0.1,0.1-0.16,0.17-0.23c-0.53,0.13,0.07,0.24-0.51,0.39
			c0.62-0.4-0.24-0.57,0.48-0.97c-0.05-0.12-0.36,0.2-0.41,0.08l0.19-0.12l-0.28,0.08c0.01-0.1,0.24-0.25,0.42-0.33
			c-0.01,0.03,0.07,0.03,0.1,0.05c0.19-0.21-0.21-0.26-0.15-0.33l-0.07,0.17c-0.34-0.25-0.25-0.78-0.8-0.92l-0.14,0.09
			c-0.39-0.12,0.08-0.27-0.17-0.48l0.04-0.01c-0.18,0.01-0.29-0.03-0.3-0.11c0.21-0.01,0.29-0.28,0.53-0.28
			c-0.42-0.13-0.3-0.03-0.95,0.05l0.24-0.15c-0.26,0.04-0.38,0.09-0.51-0.02c0.27,0.01,0.35-0.26,0.69-0.26
			c0.43-0.53-0.75-0.17,0.01-0.66c-0.76,0.18-0.28,0.42-0.47,0.41c-0.2,0.16-0.57,0.12-0.54,0c-0.02-0.1,0.83-0.55,0.72-0.77
			c0.01,0.02,0.06,0,0.07,0.03c0.14-0.16-0.32-0.06-0.07-0.29c-0.45,0.13-0.04-0.15-0.59,0.08l0.22,0.15
			c-0.19-0.06-0.88,0.11-0.66-0.22c0.12-0.03,0.29-0.04,0.38-0.03c0.14-0.13-0.15-0.06-0.02-0.19c0.55-0.22,0.23,0.2,0.7,0.15
			c0.2-0.16-0.5-0.07,0.12-0.26c-0.79,0.24,0-0.27-0.64-0.17l0.33-0.13c-0.06,0-0.24,0.02-0.25-0.03l0.46-0.1
			c-0.42,0.03,0.21-0.38-0.04-0.41c0.12,0.25-0.37,0.23-0.56,0.44c-0.57-0.12,0.77-0.55,0.47-0.83c0.07,0.03-0.12,0.26-0.3,0.26
			c0.04-0.1,0.12-0.24,0.28-0.35c-0.17-0.2-0.32,0.18-0.56,0.17c0.36-0.25-0.21-0.04-0.38-0.09l0.33-0.15
			c0.1-0.35-0.72,0.23-0.57-0.11l0.5-0.1l-0.17-0.07l0.39-0.14c-0.34-0.01-0.28-0.08-0.24-0.26c-0.22,0.13-0.61,0.25-0.67,0.14
			c0.16-0.17,0.33-0.09,0.21-0.24c0.22-0.05,0.5-0.13,0.23,0.08c0.11-0.04,0.22-0.05,0.33-0.09c0.19-0.18-0.04-0.24-0.07-0.29
			c0,0.03-0.01,0.06-0.05,0.1l-0.56-0.04c0.11-0.09,0.22-0.11,0.33-0.12c-0.06-0.03-0.22,0-0.28-0.06c0.28-0.1,0.55-0.23,0.72-0.18
			l-0.4-0.1c0.11-0.07,0.27-0.26,0.38-0.27c0.1-0.2-0.66-0.08-0.52-0.34c-0.06,0.01-0.11,0.02-0.17,0
			c-0.01-0.18,0.26-0.47-0.19-0.49l0.44-0.32c-0.17-0.1-0.55,0.41-0.83,0.25c-0.23-0.1,0.38-0.24,0.49-0.36
			c-0.28,0.02-0.84,0.09-0.52-0.24C333.23,316.65,333.18,316.72,333.23,316.75z M332.23,315.05c0.08,0,0.33-0.02,0.15,0.09
			C331.98,315.27,332.15,315.16,332.23,315.05z M330.24,312.68c0.12-0.02,0.08,0.04-0.02,0.14
			C330.17,312.8,330.17,312.76,330.24,312.68z M324.6,306.1c0.01,0,0.01,0,0.02,0C324.52,306.23,324.56,306.18,324.6,306.1z
			 M324.67,305.87c-0.05,0-0.1,0.03-0.14,0.05c0.09-0.03,0.11,0.01,0.1,0.06C324.71,305.94,324.76,305.89,324.67,305.87z
			 M332.39,323.1l0.07-0.07C332.59,323.06,332.5,323.08,332.39,323.1z"/>
	</g>
	<g>
		<path d="M330.83,312.79c-0.05,0.03-0.11,0.06-0.17,0.09C330.71,312.87,330.78,312.84,330.83,312.79z"/>
	</g>
	<g>
		<path d="M333.9,317.79C333.9,317.79,333.9,317.79,333.9,317.79c0.02,0,0.04-0.01,0.06-0.01L333.9,317.79z"/>
	</g>
	<g>
		<path d="M328.57,307.13c-0.03,0.05-0.09,0.1-0.14,0.14C328.51,307.24,328.57,307.19,328.57,307.13z"/>
	</g>
	<g>
		<path d="M323.73,305.27l0.13,0.07c-0.04-0.04,0.03-0.09,0.07-0.14C323.85,305.23,323.75,305.3,323.73,305.27z"/>
	</g>
	<g>
		<path d="M325.39,303.47c-0.05,0-0.02-0.03-0.07-0.03l-0.15,0.07C325.21,303.58,325.35,303.57,325.39,303.47z"/>
	</g>
	<g>
		<path d="M324.79,304.69c0.27-0.13,0.15-0.15,0.07-0.2c0,0,0.01,0.01,0.01,0.01C324.46,304.65,324.63,304.67,324.79,304.69z"/>
	</g>
	<g>
		<path d="M324.84,304.47c-0.02-0.02-0.04-0.04-0.04-0.06C324.65,304.47,324.78,304.45,324.84,304.47z"/>
	</g>
	<g>
		<path d="M324.39,305.75c0.06-0.07-0.37,0.14-0.26,0.07C323.76,305.93,324.66,305.86,324.39,305.75z"/>
	</g>
	<g>
		<polygon points="325.68,304.23 325.35,304.41 325.64,304.32 		"/>
	</g>
	<g>
		<path d="M325.68,304.91l0.04-0.16c-0.06,0.03-0.1,0.03-0.13,0.02C325.61,304.85,325.58,304.96,325.68,304.91z"/>
	</g>
	<g>
		<path d="M325.59,304.77c-0.01-0.04-0.03-0.07-0.1-0.07C325.51,304.72,325.54,304.76,325.59,304.77z"/>
	</g>
	<g>
		<polygon points="325.85,304.34 325.8,304.41 325.81,304.5 		"/>
	</g>
	<g>
		<path d="M326.16,306.18l0.15,0.08c0.12-0.04,0.18-0.1,0.11-0.13C326.33,306.14,326.26,306.11,326.16,306.18z"/>
	</g>
	<g>
		<path d="M326.93,305.38c-0.06,0.07-0.13,0.1-0.24,0.17l0.43-0.18L326.93,305.38z"/>
	</g>
	<g>
		<path d="M327.19,305.71c0.12-0.04,0.42,0.03,0.32-0.11C327.39,305.63,327.24,305.55,327.19,305.71z"/>
	</g>
	<g>
		<polygon points="327.49,307.84 327.47,307.81 326.77,308.12 		"/>
	</g>
	<g>
		<path d="M329.9,308.78c0.1-0.22-0.45,0.15-0.3-0.07c-0.18,0.04-0.12,0.19-0.28,0.21C329.53,308.93,329.45,309.02,329.9,308.78z"/>
	</g>
	<g>
		<path d="M329.32,308.92c-0.03,0-0.07,0-0.13,0C329.25,308.93,329.29,308.92,329.32,308.92z"/>
	</g>
	<g>
		<polygon points="334.61,329.11 334.51,329.27 334.72,329.11 		"/>
	</g>
	<g>
		<path d="M335.21,329.07l-0.44,0.22l0.43-0.12C335.18,329.15,335.12,329.13,335.21,329.07z"/>
	</g>
	<g>
		<path d="M333.01,314.39l-0.11,0.04c-0.11,0.07-0.11,0.09-0.11,0.15L333.01,314.39z"/>
	</g>
	<g>
		<polygon points="333.25,315.84 333.25,315.81 332.87,316.03 		"/>
	</g>
	<g>
		<path d="M334.25,316.71c0-0.05-0.12-0.06-0.12-0.12C334.24,316.65,333.75,316.94,334.25,316.71z"/>
	</g>
</g>
<g>
	<g>
		<path d="M228.6,96.5c0.04,0.1,0.28-0.1,0.33-0.12C228.76,96.26,228.53,96.55,228.6,96.5z"/>
	</g>
	<g>
		<polygon points="226.96,95.46 227.08,95.41 226.68,95.39 		"/>
	</g>
	<g>
		<path d="M225.94,94.16c-0.32,0.46,0.45,0.41,0.49,0.75l-0.07,0.11l0.42-0.16C226.5,94.63,225.98,94.45,225.94,94.16z"/>
	</g>
	<g>
		<path d="M226.25,92.73c-0.12,0.18-0.26-0.03,0.08,0.2c0-0.03,0.01-0.04,0.02-0.06C226.33,92.85,226.3,92.81,226.25,92.73z"/>
	</g>
	<g>
		<path d="M226.36,92.87C226.48,93,226.41,92.67,226.36,92.87L226.36,92.87z"/>
	</g>
	<g>
		<path d="M225.74,92.32l0.29,0.05c0.06-0.12-0.05-0.3,0.06-0.3C225.85,91.97,225.8,92.09,225.74,92.32z"/>
	</g>
	<g>
		<path d="M225.29,92.42l0.14,0.04C225.46,92.4,225.45,92.37,225.29,92.42z"/>
	</g>
	<g>
		<path d="M225.73,92.53l-0.3-0.08c-0.04,0.08-0.17,0.2,0.12,0.05C225.42,92.59,225.58,92.52,225.73,92.53z"/>
	</g>
	<g>
		<path d="M225.76,92.7c0,0.18,0.05,0.35-0.24,0.3C225.86,93.29,226.1,92.99,225.76,92.7z"/>
	</g>
	<g>
		<path d="M225.46,94.45l-0.01,0.23l0.23,0C225.56,94.68,225.58,94.33,225.46,94.45z"/>
	</g>
	<g>
		<path d="M224.95,91.06c-0.09,0.07-0.17,0.26-0.26,0.38l0.21,0.04C224.9,91.36,224.84,91.19,224.95,91.06z"/>
	</g>
	<g>
		<path d="M224.69,91.44l-0.32-0.05C224.51,91.57,224.61,91.54,224.69,91.44z"/>
	</g>
	<g>
		<polygon points="224.82,92.78 225.41,92.82 224.76,92.73 		"/>
	</g>
	<g>
		<polygon points="224.29,90.33 224.58,90.25 224.12,90.34 		"/>
	</g>
	<g>
		<path d="M223.8,89.9c0.23-0.08,0.16-0.36,0.33-0.38c-0.16-0.1-0.4-0.07-0.61-0.05C223.69,89.51,223.78,89.63,223.8,89.9z"/>
	</g>
	<g>
		<path d="M223.18,89.49c0.09,0.01,0.21,0,0.34-0.01C223.43,89.46,223.32,89.45,223.18,89.49z"/>
	</g>
	<g>
		<path d="M224.12,91.03c0.04-0.06,0.14-0.21,0.1-0.37l-0.16,0.3C224.07,90.97,224.09,91,224.12,91.03z"/>
	</g>
	<g>
		<path d="M224.05,90.96L224.05,90.96c-0.06-0.1-0.11-0.16-0.13-0.18C223.93,90.8,223.97,90.86,224.05,90.96z"/>
	</g>
	<g>
		<path d="M224.13,91.05l-0.02-0.02C224.1,91.06,224.1,91.07,224.13,91.05z"/>
	</g>
	<g>
		<path d="M224.59,92.1c-0.23,0.01-0.58-0.08-0.58,0.32C224.24,92.35,224.24,92.12,224.59,92.1z"/>
	</g>
	<g>
		<path d="M223.93,91.41l0.13,0.25c0.06-0.06,0.11-0.18,0.23-0.19L223.93,91.41z"/>
	</g>
	<g>
		<polygon points="223.76,91.39 223.93,91.41 223.88,91.32 		"/>
	</g>
	<g>
		<path d="M223.3,90.03c-0.18,0.02-0.28-0.06-0.4-0.15c0.07,0.15,0.16,0.29,0.26,0.39C223.25,90.22,223.43,90.14,223.3,90.03z"/>
	</g>
	<g>
		<path d="M223.65,90.49l-0.03-0.01C223.61,90.52,223.61,90.53,223.65,90.49z"/>
	</g>
	<g>
		<polygon points="221.89,88.88 221.87,88.94 221.91,88.9 		"/>
	</g>
	<g>
		<path d="M223.14,90.33c0.04,0.12,0.14,0.12,0.26,0.09c-0.08-0.04-0.17-0.09-0.24-0.16C223.13,90.3,223.11,90.32,223.14,90.33z"/>
	</g>
	<g>
		<path d="M222.79,89.32c0,0.09,0.01,0.18,0.02,0.27C222.84,89.47,222.87,89.27,222.79,89.32z"/>
	</g>
	<g>
		<path d="M223.65,90.4l0.02,0C223.7,90.33,223.68,90.35,223.65,90.4z"/>
	</g>
	<g>
		<path d="M223.65,90.4c-0.08-0.01-0.17,0.01-0.25,0.03c0.07,0.03,0.14,0.05,0.21,0.06C223.63,90.46,223.64,90.43,223.65,90.4z"/>
	</g>
	<g>
		<path d="M220.17,90.1c0.22-0.2,0.63-0.21,0.59,0.21c0.33,0.01,0.89-0.81,1.1-1.36c-0.1,0.09-0.17,0.17-0.49,0.12
			c-0.04,0.18,0.16,0.68-0.18,0.72c-0.35-0.13-0.14-0.27-0.15-0.5c-0.15,0.37-0.69,0.1-1.01,0.55l0.35,0.06
			C220.34,89.96,220.16,89.99,220.17,90.1z"/>
	</g>
	<g>
		<path d="M222.21,89.32l0.1,0.05c-0.05-0.13-0.04-0.27,0.01-0.56c-0.23-0.02-0.33,0.03-0.41,0.09l0.36,0.41L222.21,89.32z"/>
	</g>
	<g>
		<path d="M222.67,89.71c-0.29,0.17-0.57,0.09-0.7,0.45c0.24,0.21,0.35-0.04,0.58,0c-0.42-0.3,0.23-0.02,0.09-0.42
			c0.11,0.03,0.19,0.08,0.26,0.14c-0.04-0.09-0.07-0.19-0.09-0.29l-0.01,0.02l0,0l0,0c-0.01,0.04-0.02,0.07-0.03,0.03l-0.01,0
			C222.74,89.67,222.7,89.69,222.67,89.71c-0.06-0.15,0.04-0.08,0.1-0.07l0.04-0.03l0,0l-0.5-0.24
			C222.36,89.48,222.47,89.57,222.67,89.71z"/>
	</g>
	<g>
		<path d="M223.31,92.69c0.01-0.03,0.03-0.05,0.04-0.06C223.3,92.63,223.27,92.64,223.31,92.69z"/>
	</g>
	<g>
		<path d="M223.31,92.4c0.06,0,0.17-0.07,0.23,0.04c0,0.14-0.11,0.11-0.19,0.18c0.11-0.01,0.34,0.03,0.3-0.25l-0.06,0
			c-0.06-0.23,0.05-0.7,0.11-0.7C223.54,91.93,223.42,92.11,223.31,92.4z"/>
	</g>
	<g>
		<path d="M222.94,91.1l-0.42-0.19l-0.04,0.35l0.11-0.13C222.72,91.35,222.83,91.17,222.94,91.1z"/>
	</g>
	<g>
		<polygon points="221.97,88.73 222.24,88.52 221.73,88.7 		"/>
	</g>
	<g>
		<polygon points="221.52,88.38 221.74,88.18 221.51,88.21 		"/>
	</g>
	<g>
		<path d="M193.82,74.19l-0.15,0.02C193.74,74.21,193.78,74.2,193.82,74.19z"/>
	</g>
	<g>
		<path d="M194.59,74.63l0.09-0.12C194.61,74.56,194.57,74.6,194.59,74.63z"/>
	</g>
	<g>
		<path d="M210.7,79.96c0-0.33,0.07-0.8-0.1-0.51l-0.13,0.3C210.6,79.77,210.66,79.86,210.7,79.96z"/>
	</g>
	<g>
		<path d="M201.81,76.68l0,0.11c0.09-0.07,0.18-0.14,0.26-0.21C201.99,76.61,201.91,76.65,201.81,76.68z"/>
	</g>
	<g>
		<path d="M201.02,77.78l-0.1-0.3C200.93,77.57,200.97,77.67,201.02,77.78z"/>
	</g>
	<g>
		<path d="M189.35,72.29l-0.28,0.23C189.27,72.62,189.26,72.42,189.35,72.29z"/>
	</g>
	<g>
		<path d="M217.08,84.74c-0.05-0.2-0.11-0.32-0.19-0.4C216.92,84.61,216.87,84.92,217.08,84.74z"/>
	</g>
	<g>
		<path d="M195.75,71.3c-0.09,0.02-0.15,0.06-0.19,0.12C195.65,71.41,195.72,71.38,195.75,71.3z"/>
	</g>
	<g>
		<path d="M216.53,84.06c0,0.04,0.01,0.07,0.02,0.11c0.12,0.03,0.24,0.07,0.34,0.17C216.86,84.15,216.79,83.98,216.53,84.06z"/>
	</g>
	<g>
		<path d="M173.43,64.76c-0.01-0.02-0.02-0.03-0.02-0.05C173.39,64.75,173.41,64.76,173.43,64.76z"/>
	</g>
	<g>
		<path d="M169.85,59.8c0.06,0,0.13,0.03,0.21,0.05C170.03,59.82,169.97,59.8,169.85,59.8z"/>
	</g>
	<g>
		<path d="M219.93,86.76C220.04,86.82,219.97,86.74,219.93,86.76L219.93,86.76z"/>
	</g>
	<g>
		<path d="M219.51,88.11c-0.04,0.01-0.09,0.03-0.14,0.09C219.43,88.15,219.48,88.12,219.51,88.11z"/>
	</g>
	<g>
		<path d="M214.37,84.95L214.37,84.95C214.35,85.01,214.35,85,214.37,84.95z"/>
	</g>
	<g>
		<path d="M219.97,86.99c-0.01-0.06-0.02-0.12-0.05-0.18C219.92,86.85,219.94,86.9,219.97,86.99z"/>
	</g>
	<g>
		<path d="M220.05,86.86c0.02,0.04,0.04,0.07,0.06,0.09C220.16,86.92,220.17,86.89,220.05,86.86z"/>
	</g>
	<g>
		<path d="M219.79,86.66c0.06,0.04,0.09,0.09,0.13,0.15c0-0.03,0-0.05,0.01-0.06C219.9,86.74,219.86,86.71,219.79,86.66z"/>
	</g>
	<g>
		<path d="M182.45,67.73c0-0.01-0.01-0.02-0.01-0.04C182.28,67.77,182.34,67.77,182.45,67.73z"/>
	</g>
	<g>
		<path d="M206.31,81.12c0.01,0,0.01-0.01,0.02-0.01l-0.01-0.02L206.31,81.12z"/>
	</g>
	<g>
		<path d="M205.83,81.1c0.37-0.25,0.42-0.15,0.49-0.01l0.39-0.86L205.83,81.1z"/>
	</g>
	<g>
		<path d="M191.89,73.29l0.12,0.39c-0.53,0.27-0.68,0-0.63,0.49c0.5-0.89,1.04,0.43,1.55-0.46l0.07,0.28
			c-0.04-0.03-0.08,0.02-0.12-0.02c0.1,0.6,0.59-0.53,0.95-0.17c0.11,0.15,0.15,0.33-0.01,0.39l0.45-0.05
			c0.09,0.07-0.02,0.21-0.11,0.14l0.54,0.2l-0.02,0.02c0.15-0.1,0.42-0.23,0.55-0.28c0.06,0.2-0.11,0.06-0.14,0.19l0.39-0.07
			c-0.01,0.29-0.36,0.4-0.54,0.26c-0.22,1.04,0.35-0.1,0.63,0.72l-0.32-0.03c-0.11,0.6,0.2,0.52,0.32,1
			c0.02-0.2-0.16-1.12,0.26-1.18c0.05,0.11,0.14,0.21,0.4,0.11c-0.17,0.32,0.03,0.32,0.24,0.42l-0.24,0.41
			c0.28,0,0.38-0.23,0.61-0.35c0.21,0.17,0.08,0.53-0.01,0.83c0.34,0.28,0.03-0.67,0.52-0.5c0.23,0.34,0.54,0.29,1.06,0.25
			c0.14,0.27-0.18,0.23-0.17,0.4l0.38-0.22c0.04,0.03-0.03,0.13-0.07,0.18c0.24-0.04,0.25-0.41,0.57-0.38
			c0.33-0.42,0.15,0.97,0.76,0.64c0.01,0.16-0.18,0.23-0.25,0.41c0.63-0.09,0.52-0.03,1.14-0.28l0.15,0.45
			c-0.04-0.44,0.46-0.64,0.89-0.8c0.01-0.2,0.02-0.37,0.01-0.46l0.53,0.01c0.01,0.1-0.12,0.21-0.28,0.35
			c0.05-0.02,0.09-0.04,0.13-0.06c0.05,0.24-0.16,0.43-0.4,0.6c0-0.11,0-0.22,0-0.34c-0.25,0.19-0.5,0.42-0.62,0.67
			c0.05-0.03,0.13-0.04,0.2-0.04c-0.07,0.05-0.12,0.1-0.13,0.15c-0.01,0.05,0.08-0.02,0.21-0.08l-0.18,0.51l0.13-0.17l0.35,0.6
			c0.64-0.24,1.38-0.72,2.08-0.56c-0.35,0.25-0.36,0.53-0.61,0.92c0.09-0.52-0.56-0.1-0.82-0.37c0.13,0.14-0.02,0.31-0.1,0.35
			l0.77-0.06c-0.21,0.32-0.03,0.31,0.03,0.53c0.28-0.71,0.67-0.18,1.01-0.25c-0.12,0.22-0.31,0.41-0.54,0.2
			c0,0.66,0.85-0.52,0.89,0.07c-0.07-0.04-0.08-0.09-0.18,0c0.27-0.09,0.55,0.29,0.35,0.42l-0.07-0.04
			c0.39,0.35,1.31,0.83,1.72,0.34c-0.04,0.07-0.47,0.61-0.57,0.71l1.93-1.32c-0.36,0.42-0.81,1.68-1.34,1.71
			c0.06,0.13,0.14,0.29,0.45,0.27c-0.03-0.11,0.26-0.78,0.38-0.76c-0.07,0.68,0,0.39,0.04,1.04c-0.04-0.17,0.55-0.81,0.7-0.68
			c-0.1,0.09-0.45,0.72-0.56,0.75l0.87-0.43c-0.19,0.06-0.41,0.58-0.45,0.84c0.05-0.17,0.34,0.25,0.5,0.25l-0.06-0.28
			c0.39,0.41,1.12-0.69,1.55-0.34c-0.15,0.11-0.74,0.79-0.57,1.04c0.35-0.29,1.64-1.39,2.24-1.38l-0.06,0.26l0.47-0.01
			c-0.57,0.4-1.89,1.15-2.48,1.39c0.06,0.28-0.12,0.27,0.15,0.43c-0.04,0.25-0.34,0.19-0.42,0.15l0.5,0.53
			c0.26-0.43,0.74-0.1,0.96-0.46l-0.94-0.02c0.26-0.43,1.19-0.92,1.56-0.55c-0.01,0.24-0.6,0.68-0.68,0.82
			c0.15-0.1,0.59,0.01,0.56,0.13l-0.33,0.1c0.12,0.32,0.77-0.28,0.76,0.31c0.08,0.1-0.1,0.73,0.09,0.5
			c0.18-0.58,1.19-2.05,1.55-2.32c0.01,0.06,0.18,0.82,0.12,1.13c-0.11,0.48-0.87,0.69-0.97,1.1c0.09-0.11,0.27-0.18,0.34-0.2
			c0.03,0.17-0.29,0.31-0.04,0.42c0.34-0.38,0.41,0.36,0.36-0.27c0.3,0.04,0.16,0.25,0.43,0.42c0.12-0.32,0.9-0.74,1.2-0.69
			c-0.09,0.09-0.15,0.27-0.17,0.35c0.4,0.37,0.49,0.74,0.88,1.05c-0.04,0.13,0.06,0.39-0.16,0.5c0.11-0.03,0.27-0.12,0.4-0.04
			c-0.04,0.53-0.32-0.16-0.46,0.4c0.2-0.22,0.57-0.07,0.86-0.08c0.23-0.4-0.35-0.39-0.64-0.38c0.39-0.5,1.11-0.78,1.71-0.68
			c0.43,0.14-0.11,0.43,0,0.41c0.54,0.6,1.23-0.42,1.45,0.36c-0.06,0.48-0.51,0.62-0.65,0.88c-0.36-0.1-0.24-0.54-0.43-0.67
			l0.1,0.33c-0.17,0.03-0.41-0.04-0.43-0.21c-0.06,0.42,0.98,0.91,1.23,1.56c0.17-0.03,0.41-0.02,0.44-0.2l-0.19-0.08
			c0.08-0.36,0.57-0.11,0.49-0.38c0.35,0,0.8-0.07,0.96,0.31l-0.25,0.39c0.08-0.11,0-0.37-0.17-0.33c0.25-0.05,0.01,0.84,0.53,0.51
			l0.02-0.41c0.35,0,0.92-0.14,1.07,0.19c0.19-0.44-0.09-0.01,0.09-0.56c-0.29,0.63-0.61-0.59-0.83,0.15
			c0.23-0.62-0.14-0.47-0.02-1.08c-0.09,0.12-0.11,0.29-0.27,0.05c-0.04,0.02-0.1,0.05-0.13,0.06c0-0.01,0-0.01-0.01-0.02l0,0.02
			c-0.02,0.01-0.03,0.01,0,0.01c0.01,0.09-0.01,0.19-0.05,0.27c-0.33,0.17-0.66-0.13-0.89-0.08c-0.08-0.16,0.17-0.09,0.2-0.27
			L218.89,87c0.2-0.27,0.03-0.71,0.45-0.61l-0.26-0.24c-0.04-0.28-0.21-0.52-0.43-0.52c-0.08-0.16-0.56,0.02-0.28-0.09l-0.55-0.19
			l0.05-0.07c-0.39-0.38-1.22-0.25-1.33-1.11c-0.2-0.05-0.41-0.08-0.59-0.34l0.13-0.27c-0.25-0.06-0.38-0.67-0.64-0.48
			c0.27-0.78-0.81-0.81-1.06-1.16l-0.24,0.3c-0.21-0.18-0.5-0.26-0.87-0.34l-0.18,0.29c-0.4,0.04-0.49-0.64-0.9-0.89
			c0.1-0.09,0.18,0.01,0.21,0.12c-0.03-0.95-1.3-0.23-1.41-0.98c-0.17,0.03-0.23-0.06-0.25-0.18c0.01,0.01,0.02,0.01,0.04,0
			c-0.01-0.01-0.02-0.02-0.04-0.03c-0.01-0.08-0.02-0.17-0.05-0.25c0,0.1,0,0.18,0.02,0.23c-0.08-0.05-0.23-0.1-0.4-0.11l0.15-0.33
			c-0.01,0-0.02-0.01-0.03-0.01c-0.05-0.19-0.19,0.08-0.28,0.35c-0.09,0.01-0.19,0.03-0.28,0.07c0.23-0.55-0.43-0.05-0.22-0.65
			c-0.25,0.2-0.74-0.22-1.16,0.27c0.04-0.07,0.03-0.13,0.1-0.09c-0.1-0.15-0.19-0.3-0.41-0.23l0.19-0.42l-0.63,0.32
			c-0.03-0.35-0.02-0.54,0.36-0.72c-0.73,0.18-0.47-0.05-1.13,0.17l0.18-0.24c-0.14-0.07-0.57,0.13-0.51-0.13
			c0-0.66-1.43-1-1.94-1.91c-0.3,0.84-0.16-0.55-0.54,0.01c0.06-0.2,0.01-0.37,0.23-0.45c-0.5-0.06-0.43-0.64-0.99-0.31
			c0.06-0.21,0.24-0.21,0.26-0.34c-0.05,0.02-0.22,0.08-0.2-0.05c0.02-0.13,0.15-0.11,0.26-0.15c-0.42-0.22-0.79,0.31-1.12,0.81
			c-0.06-0.36-0.19-0.39-0.53-0.14c0.03-0.21,0.01-0.46,0.3-0.37c-0.13-0.11-0.73-0.75-0.98-0.35c0.02-0.13-0.18-0.15-0.25-0.12
			c-0.31-0.21-0.31-0.26-0.65-0.41l0.05,0.12c-0.41,0.43-0.32-0.04-0.61-0.12l0.04-0.05c-0.38-0.69-0.35,0.03-0.69-0.7l-0.14,0.33
			c-0.43,0.65-0.29-0.68-0.77-0.61l0.02,0.25c-0.31,0.13,0-1.21-0.14-1.39c-0.01-0.08,0.12-0.06,0.2-0.07
			c-0.27-0.67-0.29,0.38-0.7,0.28c0.05-0.26,0.4-0.52,0.17-0.69c-0.02-0.25-1.1,0.34-1.2-0.26c-0.02,0.21-0.04,0.42-0.28,0.46
			c-0.29-0.08-0.35-1.03-0.87-0.61c-0.01-0.06,0-0.12,0.03-0.16c-0.27,0.04-0.77-0.1-1.04,0.13c0.39-1.2-1.51-0.1-0.98-1.12
			l-0.64-0.26l0.07-0.1c-0.36-0.27-0.62-0.09-0.88,0.09c-0.06-0.12,0.06-0.18,0.09-0.23c-0.47-0.49-0.55-0.48-1.28-0.21l0.12-0.36
			c-0.23,0.13-0.57-0.94-1.33-0.83c0.02-0.04,0.07-0.09,0.14-0.12c-0.83,0.08-1.07-1.68-1.9-0.57l-0.57,0.1
			c0.5,0.35-0.34,0.49-0.21,0.8c-0.25-0.03-0.38-0.63-0.08-0.57l0.01,0.08c0.4-0.59-0.57-0.55-0.35-0.97
			c-1.09-0.48-1.98-1.32-2.98-1.82l-0.11,0.55l-0.34-0.19c-0.04-0.16,0.05-0.45,0.3-0.31c0-0.34-0.53,0.05-0.59,0.15
			c-0.4-0.43,0.46-0.49,0.31-0.58l-0.22-0.06l0.02,0.08c-0.26,0.13-0.37,0.34-0.67,0.18c-0.15-0.19,0.04-0.35-0.03-0.41
			c0.02-0.04,0-0.06-0.11-0.07l-0.43-0.24l0,0.48c-0.29,0.11-0.41-0.21-0.41,0.33c0.01-0.83-1.56-0.99-1.65-1.28
			c-0.4,0.17-0.68,0.04-1-0.14c0.05,0.12-0.09,0.59-0.36,0.41c0.51-0.88-0.36-0.63-0.32-1.4c0.02,0.53-0.88-0.25-0.82,0.52
			c-0.21-0.18,0.13-0.35,0.04-0.65c-0.74,0.11-1.19-0.78-1.97-0.96c-0.06,0.12-0.02,0.35-0.25,0.47l-0.13-0.77
			c-0.17,0-0.42,0.65-0.51,0.12c-0.01,0.12-0.01,0.3-0.13,0.29c-1.19-1.18-3.11-0.69-4.13-2.38c0.11,0.32-0.03,0.29-0.19,0.24
			c0.08,0.09-0.12,0.3-0.16,0.48l-0.44-0.7c-0.29,0.42-0.67-0.22-0.9,0.2l0.23-0.01c-0.45,0.43-0.08,1.3-0.37,1.96
			c0.51-0.49,0.41,1.17,1.21,0.5c0.05,0.18-0.17,0.18-0.18,0.36c0.23-0.24,0.4-0.24,0.61-0.01L170,62.69
			c0.77,0.22,0.98,0.63,1.74,1.15l0.07-0.35c0.16,0.12,0.16,0.24,0.21,0.35c0.41-0.42-0.49-0.23-0.08-0.71
			c-0.03,0.77,1.26,0.52,1.11,1.35c0.27,0.12,0.08-0.41,0.35-0.3l-0.01,0.24l0.18-0.24c0.16,0.12,0.15,0.41,0.08,0.59
			c-0.03-0.04-0.14,0-0.2-0.01c0.13,0.34,0.69,0.19,0.74,0.3l-0.21-0.24c0.83,0.11,1.62,0.77,2.52,0.66l0.01-0.18
			c0.67-0.05,0.37,0.36,1.03,0.49l-0.04,0.03c0.19-0.1,0.38-0.11,0.54-0.02c-0.23,0.11,0.13,0.47-0.15,0.59
			c0.73-0.05,0.4-0.11,1.04-0.51l-0.02,0.29c0.23-0.17,0.3-0.29,0.63-0.22c-0.34,0.11,0.02,0.47-0.38,0.64
			c0.38,0.83,1.18-0.15,1.11,0.79c0.6-0.57-0.37-0.63-0.14-0.71c-0.03-0.29,0.47-0.42,0.64-0.26c0.19,0.11-0.06,1.05,0.45,1.27
			c-0.05-0.03-0.08,0.03-0.12,0c0.11,0.26,0.48-0.08,0.58,0.32c0.32-0.37,0.29,0.16,0.57-0.36l-0.52-0.08
			c0.33-0.02,0.86-0.54,1.15-0.04c-0.08,0.09-0.28,0.18-0.4,0.22c0.05,0.22,0.29,0.01,0.35,0.23c-0.28,0.52-0.61-0.14-1.08,0.15
			c0.03,0.29,0.71-0.15,0.3,0.37c0.54-0.65,0.45,0.32,1.05-0.09l-0.17,0.31c0.08-0.03,0.26-0.13,0.35-0.07l-0.37,0.34
			c0.44-0.23,0.38,0.56,0.74,0.48c-0.56-0.25,0.06-0.45-0.07-0.79c0.88-0.12,0,1.02,0.83,1.22c-0.12,0-0.3-0.37-0.06-0.45
			c0.11,0.13,0.25,0.35,0.26,0.56c0.53,0.17,0.08-0.37,0.39-0.46c-0.01,0.47,0.32-0.04,0.6-0.06l-0.15,0.33
			c0.47,0.48,0.48-0.61,0.87-0.11l-0.43,0.35l0.32,0.01l-0.23,0.34c0.42-0.14,0.48-0.02,0.72,0.22c0.04-0.26,0.32-0.58,0.58-0.46
			c0.08,0.28-0.25,0.26,0.13,0.39c-0.18,0.16-0.39,0.38-0.4,0c-0.07,0.1-0.18,0.17-0.25,0.26c0.08,0.31,0.44,0.28,0.57,0.34
			c-0.04-0.04-0.09-0.08-0.1-0.14l0.74-0.2c0.02,0.16-0.09,0.23-0.2,0.29c0.12,0.02,0.27-0.1,0.44-0.05
			c-0.17,0.24-0.29,0.52-0.57,0.54l0.64-0.05c-0.02,0.13,0.1,0.44-0.01,0.5c0.2,0.29,0.92-0.19,1.18,0.2
			c0.04-0.04,0.11-0.07,0.2-0.07c0.31,0.23,0.45,0.7,1.03,0.55l-0.01,0.58c0.37,0.05-0.01-0.75,0.61-0.66
			c0.45,0.04-0.07,0.47,0,0.67c0.3-0.14,0.87-0.46,1.01,0.1C192.06,73.43,192.01,73.31,191.89,73.29z M195.84,75.11
			c-0.11,0.03-0.37,0.15-0.32-0.06C195.79,74.73,195.77,74.94,195.84,75.11z M202.02,77.6c-0.11,0.07-0.17-0.03-0.19-0.2
			C201.91,77.41,201.98,77.47,202.02,77.6z M218.74,86.15l-0.02,0.01C218.67,85.92,218.68,86.01,218.74,86.15z M218.95,86.52
			c0.06-0.01,0.09-0.05,0.11-0.1c-0.08,0.05-0.15,0-0.22-0.09C218.81,86.43,218.8,86.51,218.95,86.52z M182.33,65l0.03,0.12
			C182.16,65.14,182.24,65.08,182.33,65z"/>
	</g>
	<g>
		<path d="M201.12,77.65c0.01-0.06,0.04-0.13,0.07-0.19C201.13,77.5,201.09,77.56,201.12,77.65z"/>
	</g>
	<g>
		<path d="M189.4,72.24l-0.01-0.01c-0.02,0.02-0.03,0.03-0.04,0.05L189.4,72.24z"/>
	</g>
	<g>
		<path d="M212.26,85.17c-0.03-0.09-0.03-0.17-0.01-0.24C212.2,84.99,212.18,85.08,212.26,85.17z"/>
	</g>
	<g>
		<path d="M220.96,87.46l-0.26-0.1c0.11,0.07,0.09,0.16,0.09,0.24C220.85,87.54,220.9,87.41,220.96,87.46z"/>
	</g>
	<g>
		<path d="M221.07,90.61c0.06-0.01,0.06,0.05,0.12,0.04l0.11-0.13C221.17,90.43,221,90.45,221.07,90.61z"/>
	</g>
	<g>
		<path d="M220.33,88.52c-0.19,0.24,0,0.27,0.17,0.35c-0.01-0.01-0.02-0.01-0.02-0.02C220.81,88.56,220.57,88.54,220.33,88.52z"/>
	</g>
	<g>
		<path d="M220.54,88.88c0.05,0.03,0.1,0.06,0.13,0.1C220.8,88.88,220.64,88.92,220.54,88.88z"/>
	</g>
	<g>
		<path d="M219.47,86.7c0.01,0.11,0.29-0.26,0.25-0.14C220.05,86.33,218.98,86.55,219.47,86.7z"/>
	</g>
	<g>
		<polygon points="219.77,89.36 219.97,89.04 219.7,89.19 		"/>
	</g>
	<g>
		<path d="M218.91,88.22l0.14,0.27c0.04-0.05,0.09-0.05,0.14-0.05C219.08,88.31,218.98,88.13,218.91,88.22z"/>
	</g>
	<g>
		<path d="M219.2,88.44c0.06,0.07,0.13,0.12,0.21,0.11C219.37,88.51,219.28,88.45,219.2,88.44z"/>
	</g>
	<g>
		<polygon points="219.41,89.18 219.4,89.07 219.27,88.91 		"/>
	</g>
	<g>
		<path d="M216.63,86.21l-0.31-0.11c-0.11,0.08-0.09,0.19,0.03,0.22C216.47,86.3,216.59,86.34,216.63,86.21z"/>
	</g>
	<g>
		<path d="M216.7,87.6c-0.01-0.11,0.04-0.18,0.08-0.31l-0.3,0.35L216.7,87.6z"/>
	</g>
	<g>
		<path d="M215.94,87.12c-0.11,0.08-0.58,0.02-0.26,0.23C215.79,87.27,216.1,87.37,215.94,87.12z"/>
	</g>
	<g>
		<polygon points="212.64,83.86 212.71,83.9 213.15,83.27 		"/>
	</g>
	<g>
		<path d="M208.28,83.03c0.2,0.35,0.34-0.35,0.48,0.03c0.17-0.1-0.11-0.3,0.04-0.38C208.52,82.71,208.48,82.56,208.28,83.03z"/>
	</g>
	<g>
		<path d="M208.8,82.68c0.05-0.01,0.1-0.02,0.16-0.03C208.88,82.65,208.84,82.66,208.8,82.68z"/>
	</g>
	<g>
		<polygon points="169.19,59.11 169.02,58.87 169.07,59.17 		"/>
	</g>
	<g>
		<path d="M168.56,59.48l0.12-0.48l-0.29,0.36C168.44,59.36,168.56,59.36,168.56,59.48z"/>
	</g>
	<g>
		<path d="M195.93,76.28l0.07-0.09c0.03-0.13-0.01-0.16-0.1-0.23L195.93,76.28z"/>
	</g>
	<g>
		<polygon points="193.34,74.48 193.38,74.51 193.5,74.07 		"/>
	</g>
	<g>
		<path d="M190.74,73.76c0.09,0.06,0.25,0.03,0.33,0.1C190.83,73.83,190.97,73.26,190.74,73.76z"/>
	</g>
</g>
<g>
	<g>
		<path d="M242.43,97.97c0.03,0.11,0.28-0.09,0.34-0.1C242.61,97.74,242.36,98.02,242.43,97.97z"/>
	</g>
	<g>
		<polygon points="240.9,96.7 241.02,96.67 240.61,96.58 		"/>
	</g>
	<g>
		<path d="M240.03,95.16c-0.39,0.41,0.39,0.52,0.38,0.88l-0.08,0.11l0.44-0.09C240.53,95.76,240.04,95.47,240.03,95.16z"/>
	</g>
	<g>
		<path d="M240.59,93.79c-0.16,0.15-0.26-0.09,0.05,0.22c0.01-0.03,0.02-0.04,0.03-0.06C240.65,93.92,240.62,93.88,240.59,93.79z"/>
	</g>
	<g>
		<path d="M240.67,93.95C240.77,94.11,240.76,93.77,240.67,93.95L240.67,93.95z"/>
	</g>
	<g>
		<path d="M240.15,93.27l0.28,0.12c0.08-0.1,0-0.3,0.12-0.27C240.34,92.95,240.26,93.06,240.15,93.27z"/>
	</g>
	<g>
		<path d="M239.69,93.25l0.13,0.07C239.85,93.28,239.85,93.25,239.69,93.25z"/>
	</g>
	<g>
		<path d="M240.1,93.48l-0.28-0.15c-0.06,0.07-0.21,0.16,0.11,0.08C239.78,93.46,239.94,93.44,240.1,93.48z"/>
	</g>
	<g>
		<path d="M240.1,93.65c-0.04,0.17-0.01,0.36-0.3,0.24C240.1,94.26,240.39,94.02,240.1,93.65z"/>
	</g>
	<g>
		<path d="M239.51,95.35l-0.05,0.24l0.24,0.05C239.58,95.62,239.65,95.26,239.51,95.35z"/>
	</g>
	<g>
		<path d="M239.68,91.82c-0.11,0.04-0.24,0.21-0.36,0.29l0.19,0.1C239.54,92.1,239.53,91.91,239.68,91.82z"/>
	</g>
	<g>
		<path d="M239.32,92.12l-0.29-0.16C239.11,92.19,239.21,92.19,239.32,92.12z"/>
	</g>
	<g>
		<polygon points="239.14,93.49 239.72,93.69 239.09,93.42 		"/>
	</g>
	<g>
		<polygon points="239.26,90.89 239.56,90.91 239.09,90.84 		"/>
	</g>
	<g>
		<path d="M238.94,90.3c0.24,0.01,0.27-0.3,0.44-0.25c-0.11-0.15-0.35-0.21-0.56-0.27C238.97,89.88,239.01,90.03,238.94,90.3z"/>
	</g>
	<g>
		<path d="M238.5,89.67c0.08,0.05,0.2,0.08,0.32,0.11C238.74,89.73,238.64,89.69,238.5,89.67z"/>
	</g>
	<g>
		<path d="M238.89,91.52c0.05-0.05,0.2-0.17,0.2-0.34l-0.24,0.24C238.86,91.45,238.88,91.48,238.89,91.52z"/>
	</g>
	<g>
		<path d="M238.84,91.43L238.84,91.43c-0.03-0.12-0.06-0.19-0.07-0.22C238.78,91.23,238.8,91.3,238.84,91.43z"/>
	</g>
	<g>
		<path d="M238.9,91.54l-0.01-0.02C238.87,91.54,238.86,91.55,238.9,91.54z"/>
	</g>
	<g>
		<path d="M239.05,92.74c-0.24-0.05-0.55-0.27-0.66,0.15C238.64,92.89,238.69,92.66,239.05,92.74z"/>
	</g>
	<g>
		<path d="M238.6,91.84l0.05,0.29c0.07-0.04,0.16-0.15,0.27-0.11L238.6,91.84z"/>
	</g>
	<g>
		<polygon points="238.45,91.76 238.6,91.84 238.58,91.73 		"/>
	</g>
	<g>
		<path d="M238.43,90.24c-0.18-0.05-0.25-0.17-0.33-0.3c0.01,0.18,0.05,0.34,0.12,0.49C238.32,90.41,238.52,90.39,238.43,90.24z"/>
	</g>
	<g>
		<path d="M238.61,90.83l-0.03-0.02C238.56,90.84,238.56,90.86,238.61,90.83z"/>
	</g>
	<g>
		<polygon points="237.47,88.58 237.43,88.62 237.48,88.61 		"/>
	</g>
	<g>
		<path d="M238.18,90.48c0,0.14,0.1,0.17,0.22,0.19c-0.07-0.07-0.13-0.15-0.17-0.24C238.18,90.44,238.15,90.45,238.18,90.48z"/>
	</g>
	<g>
		<path d="M238.19,89.35c-0.03,0.09-0.05,0.18-0.07,0.27C238.18,89.52,238.27,89.34,238.19,89.35z"/>
	</g>
	<g>
		<path d="M238.64,90.74l0.02,0.01C238.71,90.68,238.68,90.7,238.64,90.74z"/>
	</g>
	<g>
		<path d="M238.64,90.74c-0.07-0.04-0.16-0.05-0.24-0.06c0.05,0.06,0.11,0.1,0.18,0.14C238.59,90.79,238.62,90.76,238.64,90.74z"/>
	</g>
	<g>
		<path d="M235.4,89c0.28-0.1,0.67,0.09,0.5,0.47c0.32,0.16,1.13-0.41,1.53-0.85c-0.12,0.05-0.23,0.1-0.51-0.09
			c-0.11,0.16-0.08,0.73-0.43,0.62c-0.3-0.28-0.03-0.33,0.03-0.56c-0.27,0.29-0.69-0.22-1.16,0.07l0.32,0.23
			C235.61,88.94,235.43,88.88,235.4,89z"/>
	</g>
	<g>
		<path d="M237.63,89.12l0.08,0.09c-0.01-0.14,0.06-0.28,0.2-0.53c-0.21-0.11-0.33-0.11-0.43-0.08l0.2,0.54L237.63,89.12z"/>
	</g>
	<g>
		<path d="M237.93,89.69c-0.33,0.05-0.57-0.14-0.82,0.16c0.16,0.3,0.35,0.1,0.56,0.23c-0.3-0.47,0.23,0.07,0.23-0.37
			c0.1,0.08,0.15,0.16,0.2,0.23c-0.01-0.11,0-0.21,0.01-0.32l-0.01,0.02l0,0l0,0c-0.03,0.04-0.05,0.06-0.04,0.02l-0.01-0.01
			C238.01,89.67,237.97,89.68,237.93,89.69c0-0.17,0.07-0.06,0.12-0.03l0.05-0.01l0,0l-0.39-0.43
			C237.72,89.34,237.79,89.47,237.93,89.69z"/>
	</g>
	<g>
		<path d="M237.65,92.93c0.02-0.03,0.04-0.04,0.06-0.05C237.66,92.87,237.63,92.87,237.65,92.93z"/>
	</g>
	<g>
		<path d="M237.72,92.64c0.06,0.02,0.19-0.01,0.21,0.12c-0.04,0.15-0.14,0.07-0.23,0.12c0.11,0.03,0.32,0.15,0.36-0.15l-0.06-0.02
			c0-0.25,0.24-0.7,0.3-0.68C238.08,92.23,237.92,92.37,237.72,92.64z"/>
	</g>
	<g>
		<path d="M237.74,91.17l-0.34-0.35l-0.15,0.34l0.15-0.08C237.45,91.34,237.61,91.2,237.74,91.17z"/>
	</g>
	<g>
		<polygon points="237.6,88.46 237.93,88.38 237.38,88.34 		"/>
	</g>
	<g>
		<polygon points="237.31,87.94 237.59,87.84 237.36,87.77 		"/>
	</g>
	<g>
		<path d="M224.63,55.99l-0.1-0.12C224.56,55.92,224.6,55.96,224.63,55.99z"/>
	</g>
	<g>
		<path d="M224.78,56.98l0.15,0C224.84,56.95,224.78,56.94,224.78,56.98z"/>
	</g>
	<g>
		<path d="M232.29,74.15c0.21-0.27,0.57-0.6,0.26-0.48l-0.3,0.15C232.34,73.93,232.33,74.04,232.29,74.15z"/>
	</g>
	<g>
		<path d="M227.99,64.73l-0.08,0.08c0.12,0.02,0.23,0.05,0.33,0.07C228.16,64.84,228.08,64.79,227.99,64.73z"/>
	</g>
	<g>
		<path d="M226.64,64.87l0.15-0.3C226.73,64.64,226.68,64.74,226.64,64.87z"/>
	</g>
	<g>
		<path d="M223.54,50.58l-0.35-0.12C223.22,50.72,223.37,50.58,223.54,50.58z"/>
	</g>
	<g>
		<path d="M234.91,82.31c0.06-0.2,0.06-0.35,0.03-0.46C234.84,82.1,234.64,82.36,234.91,82.31z"/>
	</g>
	<g>
		<path d="M228.11,55.84c-0.07-0.07-0.14-0.1-0.22-0.08C227.96,55.83,228.03,55.87,228.11,55.84z"/>
	</g>
	<g>
		<path d="M234.77,81.39c-0.02,0.04-0.02,0.07-0.04,0.11c0.1,0.1,0.18,0.2,0.22,0.35C235.02,81.66,235.04,81.47,234.77,81.39z"/>
	</g>
	<g>
		<path d="M222.34,30.69c0.01-0.01,0.02-0.03,0.04-0.05C222.34,30.64,222.33,30.66,222.34,30.69z"/>
	</g>
	<g>
		<path d="M225.59,24.92c0.02,0.06,0.02,0.15,0.02,0.23C225.64,25.11,225.63,25.04,225.59,24.92z"/>
	</g>
	<g>
		<path d="M236.48,85.69C236.55,85.8,236.52,85.69,236.48,85.69L236.48,85.69z"/>
	</g>
	<g>
		<path d="M235.51,86.76c-0.04-0.01-0.09-0.01-0.16,0.01C235.42,86.75,235.48,86.75,235.51,86.76z"/>
	</g>
	<g>
		<path d="M232.41,80.87l0-0.01C232.36,80.92,232.36,80.91,232.41,80.87z"/>
	</g>
	<g>
		<path d="M236.41,85.92c0.02-0.06,0.03-0.12,0.03-0.19C236.43,85.77,236.42,85.83,236.41,85.92z"/>
	</g>
	<g>
		<path d="M236.54,85.84c0,0.05,0.01,0.08,0.01,0.12C236.61,85.95,236.64,85.92,236.54,85.84z"/>
	</g>
	<g>
		<path d="M236.4,85.53c0.03,0.07,0.04,0.13,0.04,0.2c0.01-0.03,0.02-0.05,0.04-0.05C236.46,85.65,236.44,85.61,236.4,85.53z"/>
	</g>
	<g>
		<path d="M223.76,41.28c0.01-0.01,0.02-0.02,0.03-0.03C223.64,41.13,223.67,41.19,223.76,41.28z"/>
	</g>
	<g>
		<polygon points="228.18,71.79 228.2,71.8 228.21,71.78 		"/>
	</g>
	<g>
		<path d="M227.83,71.4c0.44,0.09,0.42,0.21,0.38,0.38l0.87-0.39L227.83,71.4z"/>
	</g>
	<g>
		<path d="M224.21,53.61l-0.24,0.37c-0.53-0.33-0.41-0.64-0.77-0.27c1.02-0.1,0.28,1.26,1.29,1.15l-0.18,0.25
			c0-0.06-0.06-0.06-0.06-0.13c-0.42,0.49,0.77,0.2,0.7,0.76c-0.05,0.2-0.18,0.35-0.32,0.24l0.32,0.38c0,0.12-0.18,0.12-0.18,0
			l0.19,0.62h-0.03c0.17,0.07,0.45,0.23,0.57,0.31c-0.12,0.18-0.12-0.06-0.24,0l0.3,0.31c-0.24,0.19-0.54-0.06-0.54-0.31
			c-0.95,0.49,0.3,0.25-0.16,1.05l-0.18-0.31c-0.53,0.31-0.28,0.53-0.57,0.97c0.17-0.12,0.76-0.9,1.08-0.57
			c-0.06,0.12-0.07,0.27,0.17,0.44c-0.36,0.06-0.23,0.25-0.17,0.5l-0.48,0.07c0.18,0.25,0.42,0.18,0.66,0.31
			c0.01,0.31-0.35,0.44-0.64,0.57c0.01,0.5,0.53-0.44,0.72,0.12c-0.11,0.44,0.13,0.68,0.5,1.11c-0.11,0.31-0.3,0.01-0.41,0.13
			l0.42,0.18c0,0.06-0.12,0.07-0.18,0.07c0.18,0.18,0.47-0.07,0.66,0.23c0.54-0.01-0.61,0.82,0.06,1.11
			c-0.11,0.13-0.3,0.01-0.47,0.08c0.51,0.48,0.38,0.42,1,0.77l-0.23,0.45c0.29-0.36,0.79-0.08,1.2,0.16
			c0.15-0.14,0.28-0.25,0.34-0.33l0.36,0.45c-0.06,0.08-0.24,0.06-0.45,0.02c0.05,0.02,0.09,0.05,0.13,0.07
			c-0.13,0.22-0.43,0.18-0.72,0.11c0.08-0.08,0.17-0.16,0.25-0.24c-0.31-0.06-0.65-0.12-0.92-0.03c0.06,0.02,0.12,0.08,0.16,0.14
			c-0.08-0.02-0.16-0.02-0.2,0c-0.05,0.03,0.07,0.06,0.21,0.12l-0.5,0.23l0.21-0.02l-0.18,0.74c0.63,0.37,1.49,0.61,1.87,1.31
			c-0.42-0.1-0.63,0.1-1.09,0.2c0.44-0.32-0.33-0.54-0.32-0.96c-0.01,0.22-0.23,0.22-0.32,0.18l0.59,0.6
			c-0.37,0.07-0.25,0.21-0.36,0.43c0.7-0.31,0.6,0.41,0.88,0.64c-0.24,0.08-0.51,0.07-0.52-0.3c-0.47,0.52,0.97,0.29,0.6,0.78
			c-0.03-0.08,0-0.14-0.14-0.14c0.27,0.14,0.22,0.67-0.02,0.61l-0.03-0.08c0.06,0.58,0.44,1.71,1.08,1.63
			c-0.08,0.03-0.76,0.12-0.9,0.12l2.34,0.45c-0.55,0.05-1.73,0.72-2.15,0.34c-0.04,0.15-0.09,0.34,0.17,0.57
			c0.05-0.11,0.71-0.43,0.79-0.32c-0.5,0.5-0.25,0.32-0.65,0.88c0.08-0.17,0.95-0.24,0.98-0.02c-0.13,0-0.81,0.24-0.92,0.19
			l0.95,0.31c-0.18-0.09-0.7,0.17-0.89,0.35c0.14-0.1,0.11,0.47,0.22,0.59l0.13-0.28c0.04,0.64,1.28,0.28,1.43,0.88
			c-0.19-0.02-1.09,0.12-1.09,0.45c0.46,0.02,2.19,0.02,2.67,0.44l-0.21,0.17l0.39,0.31c-0.7-0.05-2.23-0.36-2.86-0.59
			c-0.12,0.28-0.26,0.14-0.13,0.47c-0.18,0.18-0.39-0.08-0.44-0.18l0.1,0.83c0.47-0.18,0.67,0.45,1.06,0.3l-0.77-0.7
			c0.47-0.18,1.52,0.08,1.61,0.65c-0.15,0.2-0.89,0.16-1.05,0.22c0.19,0.02,0.48,0.43,0.38,0.51l-0.33-0.15
			c-0.08,0.37,0.8,0.3,0.45,0.82c0.01,0.14-0.5,0.58-0.21,0.51c0.48-0.39,2.16-0.97,2.62-0.97c-0.02,0.06-0.32,0.83-0.54,1.06
			c-0.36,0.35-1.12,0.02-1.43,0.32c0.13-0.04,0.33,0.03,0.4,0.06c-0.07,0.17-0.42,0.08-0.27,0.35c0.5-0.11,0.15,0.6,0.45,0
			c0.23,0.24,0,0.33,0.12,0.66c0.28-0.21,1.16-0.06,1.38,0.17c-0.13,0.03-0.27,0.14-0.33,0.2c0.16,0.58,0.07,0.96,0.26,1.49
			c-0.1,0.09-0.14,0.4-0.39,0.36c0.11,0.05,0.3,0.06,0.38,0.22c-0.29,0.47-0.2-0.34-0.61,0.08c0.29-0.08,0.55,0.28,0.81,0.45
			c0.4-0.23-0.12-0.57-0.39-0.74c0.59-0.22,1.37-0.04,1.85,0.4c0.31,0.38-0.31,0.33-0.2,0.38c0.21,0.86,1.3,0.3,1.13,1.14
			c-0.27,0.42-0.74,0.31-0.99,0.47c-0.28-0.3,0.03-0.64-0.08-0.88l-0.06,0.37c-0.17-0.06-0.35-0.27-0.29-0.44
			c-0.25,0.36,0.47,1.41,0.4,2.18c0.17,0.06,0.37,0.2,0.49,0.05l-0.13-0.18c0.23-0.31,0.56,0.21,0.6-0.1
			c0.32,0.18,0.75,0.35,0.74,0.78l-0.39,0.25c0.12-0.06,0.14-0.34-0.03-0.4c0.24,0.08-0.32,0.81,0.31,0.74l0.17-0.38
			c0.33,0.17,0.93,0.29,0.94,0.67c0.35-0.33-0.08-0.05,0.3-0.49c-0.52,0.46-0.35-0.83-0.85-0.24c0.46-0.48,0.04-0.5,0.42-1.02
			c-0.14,0.07-0.23,0.22-0.26-0.08c-0.05,0-0.11,0-0.15-0.01c0-0.01,0-0.01,0-0.02l-0.01,0.02c-0.03,0-0.03,0,0,0.01
			c-0.04,0.09-0.09,0.18-0.16,0.23c-0.37,0-0.53-0.45-0.76-0.53c0-0.19,0.19,0,0.3-0.15l-0.34-0.12c0.3-0.15,0.35-0.65,0.68-0.33
			l-0.12-0.35c0.1-0.28,0.06-0.58-0.14-0.71c0.01-0.19-0.51-0.28-0.21-0.23l-0.4-0.47l0.08-0.04c-0.17-0.55-0.95-0.92-0.61-1.75
			c-0.15-0.15-0.32-0.31-0.35-0.64l0.25-0.16c-0.19-0.2,0.01-0.8-0.3-0.8c0.66-0.51-0.2-1.21-0.2-1.67l-0.37,0.1
			c-0.07-0.3-0.26-0.54-0.52-0.85l-0.31,0.12c-0.36-0.23-0.02-0.87-0.21-1.35c0.13,0,0.14,0.13,0.09,0.24
			c0.54-0.81-0.92-1.08-0.56-1.77c-0.16-0.1-0.15-0.21-0.1-0.32c0,0.01,0.01,0.02,0.03,0.03c0-0.01-0.01-0.03-0.01-0.06
			c0.04-0.07,0.08-0.15,0.11-0.23c-0.06,0.08-0.11,0.15-0.12,0.2c-0.04-0.1-0.13-0.24-0.25-0.37l0.33-0.16
			c-0.01-0.01-0.01-0.02-0.02-0.03c0.09-0.19-0.2-0.07-0.44,0.08c-0.08-0.06-0.16-0.11-0.26-0.15c0.53-0.28-0.29-0.35,0.26-0.69
			c-0.32-0.02-0.42-0.71-1.06-0.63c0.08-0.03,0.11-0.08,0.13,0c0.03-0.19,0.05-0.38-0.16-0.49l0.42-0.19l-0.7-0.22
			c0.21-0.3,0.34-0.44,0.74-0.3c-0.67-0.41-0.31-0.39-0.96-0.73l0.29-0.05c-0.05-0.16-0.51-0.33-0.3-0.49
			c0.46-0.51-0.44-1.86-0.11-2.95c-0.81,0.38,0.29-0.54-0.38-0.42c0.19-0.1,0.27-0.26,0.48-0.15c-0.3-0.45,0.16-0.81-0.47-1.03
			c0.19-0.1,0.32,0.04,0.43-0.04c-0.05-0.03-0.21-0.12-0.1-0.2c0.11-0.08,0.19,0.04,0.29,0.09c-0.14-0.49-0.78-0.41-1.37-0.32
			c0.22-0.32,0.16-0.43-0.27-0.54c0.17-0.13,0.34-0.32,0.48-0.02c-0.01-0.18,0.05-1.14-0.42-1.06c0.11-0.08-0.02-0.25-0.08-0.29
			c-0.06-0.4-0.02-0.45-0.15-0.83l-0.05,0.12c-0.6-0.04-0.2-0.3-0.33-0.6l0.06,0c0.28-0.8-0.25-0.28,0.09-1.08l-0.35,0.1
			c-0.77,0.07,0.34-0.72-0.02-1.08l-0.18,0.19c-0.3-0.18,0.93-0.82,0.98-1.06c0.06-0.06,0.12,0.06,0.18,0.12
			c0.35-0.67-0.48,0-0.66-0.42c0.24-0.12,0.66,0,0.65-0.31c0.18-0.18-0.96-0.73-0.55-1.21c-0.18,0.12-0.36,0.24-0.54,0.06
			c-0.12-0.31,0.58-0.97-0.08-1.16c0.05-0.05,0.09-0.07,0.14-0.08c-0.2-0.22-0.37-0.75-0.73-0.84c1.2-0.41-0.81-1.43,0.33-1.59
			l-0.16-0.74l0.12,0c0.01-0.49-0.29-0.62-0.58-0.75c0.06-0.12,0.18-0.05,0.24-0.05c0.13-0.73,0.07-0.79-0.57-1.3l0.36-0.11
			c-0.24-0.13,0.44-1.08-0.05-1.72c0.04,0,0.12,0.01,0.17,0.06c-0.52-0.73,0.83-1.96-0.55-2.1l-0.39-0.48
			c-0.03,0.67-0.59-0.04-0.79,0.26c-0.11-0.25,0.33-0.72,0.44-0.4l-0.06,0.06c0.71,0.05,0.16-0.85,0.64-0.88
			c-0.19-1.3,0.13-2.6,0.06-3.82l-0.54,0.18l0-0.43c0.12-0.12,0.42-0.18,0.42,0.12c0.3-0.18-0.3-0.49-0.42-0.49
			c0.17-0.61,0.66,0.18,0.66,0l-0.06-0.24l-0.06,0.06c-0.24-0.18-0.48-0.18-0.48-0.55c0.09-0.24,0.33-0.14,0.34-0.23
			c0.04,0,0.05-0.03,0-0.14l0.01-0.54l-0.42,0.24c-0.23-0.22-0.01-0.51-0.48-0.23c0.73-0.41,0.16-2.02,0.38-2.26
			c-0.33-0.32-0.35-0.65-0.33-1.06c-0.08,0.11-0.57,0.19-0.53-0.16c1.01,0.08,0.4-0.67,1.11-0.98c-0.47,0.28-0.15-1-0.82-0.57
			c0.07-0.3,0.38-0.03,0.6-0.27c-0.41-0.68,0.2-1.55,0.04-2.41c-0.13-0.01-0.33,0.14-0.53-0.04l0.64-0.47
			c-0.07-0.17-0.76-0.14-0.31-0.46c-0.11,0.05-0.28,0.12-0.32,0c0.61-1.7-0.58-3.47,0.65-5.17c-0.26,0.23-0.28,0.07-0.29-0.1
			c-0.06,0.11-0.33-0.01-0.5,0.01l0.51-0.71c-0.49-0.14-0.02-0.77-0.49-0.85l0.08,0.23c-0.55-0.32-1.25,0.39-1.97,0.34
			c0.63,0.35-0.97,0.9-0.05,1.47c-0.15,0.12-0.23-0.11-0.4-0.04c0.31,0.15,0.37,0.32,0.23,0.64l-0.08-0.04
			c0.08,0.9-0.24,1.29-0.42,2.3l0.35-0.08c-0.04,0.22-0.16,0.26-0.24,0.37c0.54,0.24,0.02-0.61,0.62-0.39
			c-0.72,0.3,0.01,1.53-0.81,1.74c0,0.34,0.41-0.11,0.41,0.23l-0.22,0.09l0.29,0.08c-0.04,0.22-0.32,0.34-0.51,0.35
			c0.02-0.05-0.05-0.15-0.07-0.21c-0.26,0.29,0.11,0.8,0.03,0.9l0.13-0.33c0.24,0.91-0.01,2.03,0.47,2.9l0.17-0.07
			c0.33,0.66-0.17,0.55,0.01,1.28l-0.04-0.02c0.18,0.14,0.27,0.33,0.26,0.53c-0.21-0.18-0.36,0.37-0.59,0.14
			c0.37,0.71,0.28,0.35,0.93,0.79l-0.27,0.13c0.26,0.15,0.39,0.16,0.49,0.52c-0.26-0.29-0.41,0.26-0.74-0.06
			c-0.56,0.81,0.68,1.11-0.19,1.52c0.79,0.3,0.39-0.7,0.56-0.51c0.24-0.18,0.59,0.26,0.53,0.5c0,0.25-0.96,0.48-0.9,1.1
			c0-0.06-0.06-0.06-0.06-0.12c-0.18,0.25,0.3,0.44,0.01,0.74c0.48,0.13,0,0.37,0.6,0.37l-0.18-0.56c0.18,0.31,0.9,0.56,0.6,1.12
			c-0.12-0.03-0.29-0.18-0.39-0.28c-0.16,0.17,0.14,0.29-0.03,0.46c-0.6,0-0.18-0.68-0.66-0.99c-0.24,0.19,0.48,0.62-0.17,0.5
			c0.84,0.19-0.05,0.62,0.6,0.99l-0.36,0c0.06,0.06,0.24,0.19,0.24,0.31l-0.48-0.18c0.42,0.31-0.29,0.69-0.05,1
			c-0.07-0.68,0.42-0.19,0.65-0.5c0.54,0.8-0.89,0.57-0.64,1.5c-0.06-0.12,0.17-0.5,0.35-0.31c-0.06,0.19-0.18,0.44-0.35,0.56
			c0.14,0.62,0.35-0.13,0.6,0.12c-0.41,0.25,0.21,0.29,0.38,0.55l-0.36,0.04c-0.15,0.73,0.77,0.11,0.56,0.78l-0.53-0.22l0.16,0.32
			l-0.42-0.03c0.34,0.33,0.28,0.45,0.2,0.82c0.24-0.11,0.66-0.02,0.7,0.29c-0.19,0.24-0.35-0.08-0.26,0.36
			c-0.24-0.08-0.53-0.16-0.22-0.39c-0.12-0.01-0.24-0.08-0.35-0.08c-0.22,0.26,0.01,0.59,0.03,0.75c0.01-0.06,0.02-0.14,0.07-0.18
			l0.57,0.59c-0.12,0.12-0.24,0.05-0.36-0.02c0.05,0.13,0.23,0.2,0.28,0.39c-0.3-0.02-0.6,0.03-0.76-0.23l0.39,0.58
			c-0.12,0.06-0.31,0.36-0.43,0.29c-0.13,0.36,0.65,0.77,0.49,1.25c0.06,0.02,0.12,0.06,0.18,0.15c-0.01,0.43-0.31,0.86,0.16,1.31
			l-0.48,0.36c0.17,0.38,0.6-0.48,0.89,0.16c0.23,0.44-0.42,0.23-0.54,0.42c0.3,0.2,0.89,0.52,0.52,1.01
			C224.2,53.86,224.27,53.74,224.21,53.61z M225.19,58.43c-0.09-0.08-0.35-0.23-0.16-0.33C225.47,58.14,225.28,58.25,225.19,58.43z
			 M227.46,65.58c-0.13-0.04-0.1-0.16,0.01-0.31C227.52,65.35,227.53,65.45,227.46,65.58z M235.71,84.5l-0.02,0
			C235.75,84.25,235.72,84.34,235.71,84.5z M235.72,84.96c0.06,0.02,0.11,0,0.15-0.04c-0.1,0.01-0.14-0.08-0.15-0.19
			C235.64,84.79,235.6,84.87,235.72,84.96z M226.08,39.73l-0.09,0.09C225.87,39.64,225.97,39.69,226.08,39.73z"/>
	</g>
	<g>
		<path d="M226.8,64.86c0.05-0.04,0.12-0.06,0.18-0.08C226.91,64.76,226.85,64.77,226.8,64.86z"/>
	</g>
	<g>
		<path d="M223.6,50.61l0-0.02c-0.02-0.01-0.04-0.01-0.07-0.01L223.6,50.61z"/>
	</g>
	<g>
		<path d="M230.53,79.66c0.02-0.1,0.07-0.17,0.12-0.23C230.56,79.46,230.51,79.52,230.53,79.66z"/>
	</g>
	<g>
		<path d="M237.13,86.83l-0.2-0.21c0.07,0.11,0.02,0.19-0.01,0.27C237,86.85,237.09,86.76,237.13,86.83z"/>
	</g>
	<g>
		<path d="M236.09,89.92c0.06,0.02,0.04,0.08,0.1,0.09l0.15-0.08C236.26,89.78,236.08,89.72,236.09,89.92z"/>
	</g>
	<g>
		<path d="M236.13,87.54c-0.27,0.14-0.1,0.26,0.03,0.41c-0.01-0.01-0.01-0.02-0.01-0.03C236.57,87.8,236.35,87.67,236.13,87.54z"/>
	</g>
	<g>
		<path d="M236.19,87.98c0.04,0.05,0.07,0.1,0.08,0.16C236.44,88.1,236.28,88.06,236.19,87.98z"/>
	</g>
	<g>
		<path d="M236.1,85.39c-0.04,0.11,0.38-0.09,0.28,0C236.78,85.34,235.73,85,236.1,85.39z"/>
	</g>
	<g>
		<polygon points="235.28,88.08 235.6,87.86 235.27,87.88 		"/>
	</g>
	<g>
		<path d="M234.92,86.55l0.02,0.33c0.06-0.03,0.1-0.01,0.15,0.03C235.03,86.73,235.02,86.5,234.92,86.55z"/>
	</g>
	<g>
		<path d="M235.08,86.91c0.03,0.1,0.07,0.18,0.15,0.21C235.21,87.07,235.15,86.97,235.08,86.91z"/>
	</g>
	<g>
		<polygon points="235,87.73 235.03,87.62 234.96,87.41 		"/>
	</g>
	<g>
		<path d="M233.79,83.39l-0.22-0.28c-0.13,0.01-0.17,0.13-0.08,0.23C233.6,83.38,233.69,83.48,233.79,83.39z"/>
	</g>
	<g>
		<path d="M233.2,84.73c0.04-0.12,0.12-0.15,0.21-0.24l-0.44,0.16L233.2,84.73z"/>
	</g>
	<g>
		<path d="M232.74,83.83c-0.13,0.01-0.53-0.34-0.34,0.06C232.53,83.88,232.75,84.16,232.74,83.83z"/>
	</g>
	<g>
		<polygon points="231.58,78.75 231.61,78.84 232.33,78.59 		"/>
	</g>
	<g>
		<path d="M228.46,74.92c-0.07,0.45,0.47-0.03,0.36,0.38c0.2,0.04,0.09-0.34,0.27-0.29C228.84,74.83,228.92,74.67,228.46,74.92z"/>
	</g>
	<g>
		<path d="M229.09,75.01c0.04,0.03,0.09,0.06,0.15,0.09C229.18,75.04,229.13,75.02,229.09,75.01z"/>
	</g>
	<g>
		<polygon points="226.02,23.99 226.18,23.74 225.92,23.9 		"/>
	</g>
	<g>
		<path d="M225.47,23.49l0.49-0.04l-0.44-0.17C225.54,23.34,225.58,23.45,225.47,23.49z"/>
	</g>
	<g>
		<path d="M224.35,59.32l0.12,0c0.12-0.06,0.12-0.12,0.12-0.25L224.35,59.32z"/>
	</g>
	<g>
		<polygon points="224.11,55.73 224.11,55.79 224.53,55.61 		"/>
	</g>
	<g>
		<path d="M223.15,52.83c0,0.12,0.12,0.25,0.11,0.38C223.15,52.96,223.69,52.73,223.15,52.83z"/>
	</g>
</g>
<g>
	<path class="st2" d="M357.2,73.98l198.73,47.69c0,0-27.71,303.54-93.57,345.69c-61.14,39.13-322.15,27.24-322.15,27.24l7.82,35.46
		L39.94,449.11L149,356.43L140.21,398c0,0,217.33,33.01,240.57-22.01S357.2,73.98,357.2,73.98z"/>
</g>
<g>
	<path d="M143.69,531.3L26.14,443.26l118.62-100.81l-9.95,47.04c12.39,1.75,59.47,7.98,108.1,9.14
		c73.53,1.76,117.13-8.54,126.11-29.81C391.62,315.26,345.72,71,345.25,68.54l-0.86-4.56l205.77,49.38l-0.24,2.58
		c-0.07,0.76-7.11,76.95-22.13,157.32c-20.28,108.54-44.78,172.68-72.82,190.63c-57.85,37.03-285.96,29.26-320,27.88L143.69,531.3z
		 M35.75,442.96l98.6,73.85l-6.92-31.39l3.91,0.18c0.65,0.03,66.01,2.95,137.97,1.05c94.81-2.5,157.9-12.12,182.43-27.82
		c60.7-38.85,89.05-311.26,91.95-340.85l-191.7-46c6.46,34.98,44.38,247.45,22.54,299.18c-10.16,24.07-54.52,35.33-131.83,33.47
		c-56.77-1.36-111.4-9.58-111.95-9.66l-3.14-0.48l7.63-36.08L35.75,442.96z"/>
</g>
<g>
	<rect x="163.13" y="116.24" width="135.05" height="238.79"/>
	<path d="M301.18,358.03H160.13V113.24h141.05V358.03z M166.13,352.03h129.05V119.24H166.13V352.03z"/>
</g>
<g>
	<polygon class="st7" points="287.18,391.99 163.13,355.03 163.13,116.24 287.18,153.2 	"/>
	<path d="M290.18,396.01l-130.05-38.74V112.22l130.05,38.75V396.01z M166.13,352.8l118.05,35.17V155.43l-118.05-35.17V352.8z"/>
</g>
<g>
	<circle cx="266.88" cy="273.31" r="8.03"/>
</g>
</svg>
