<?xml version="1.0" encoding="utf-8"?>
<!-- Generator: Adobe Illustrator 24.1.3, SVG Export Plug-In . SVG Version: 6.00 Build 0)  -->
<svg version="1.1" id="Layer_1" xmlns="http://www.w3.org/2000/svg" xmlns:xlink="http://www.w3.org/1999/xlink" x="0px" y="0px"
	 viewBox="0 0 600 600" style="enable-background:new 0 0 600 600;" xml:space="preserve">
<style type="text/css">
	.st0{fill:#B884C1;}
	.st1{fill:#FA9A86;}
	.st2{fill:#863399;}
	.st3{fill:#E64783;}
	.st4{fill:none;stroke:#000000;stroke-width:6;stroke-miterlimit:10;}
	.st5{fill:#FFDD92;}
	.st6{fill:#FFC844;}
	.st7{fill:#6CCA98;}
	.st8{fill:#1C355E;}
	.st9{fill:#757F9B;}
	.st10{fill:#E74F3D;}
	.st11{fill:#FFFFFF;}
	.st12{fill:#F697B2;}
	.st13{fill:#A9E0C0;}
	.st14{fill:none;stroke:#000000;stroke-width:2;stroke-miterlimit:10;}
	.st15{opacity:0.41;}
	.st16{stroke:#000000;stroke-width:4;stroke-miterlimit:10;}
	.st17{fill:none;stroke:#414042;stroke-width:2;stroke-miterlimit:10;}
	.st18{fill:#52BD8C;}
	.st19{fill:#EC5535;}
	.st20{stroke:#000000;stroke-miterlimit:10;}
	.st21{fill:none;stroke:#000000;stroke-miterlimit:10;}
	.st22{fill:none;stroke:#000000;stroke-width:3;stroke-miterlimit:10;}
	.st23{fill:#FFFFFF;stroke:#000000;stroke-width:6;stroke-miterlimit:10;}
	.st24{fill:none;}
	.st25{fill:none;stroke:#000000;stroke-width:8;stroke-linecap:round;stroke-linejoin:round;stroke-miterlimit:10;}
	.st26{fill-rule:evenodd;clip-rule:evenodd;fill:#E74F3D;}
	.st27{fill-rule:evenodd;clip-rule:evenodd;fill:#6CCA98;}
	.st28{fill-rule:evenodd;clip-rule:evenodd;fill:#E64783;}
	.st29{fill:none;stroke:#000000;stroke-width:12;stroke-miterlimit:10;}
	.st30{fill:none;stroke:#000000;stroke-width:10;stroke-miterlimit:10;}
</style>
<g>
	<path class="st0" d="M465.56,527.6l-352.67-28.91c-10.2-0.84-18.47-8.6-19.96-18.72l-53.16-362.5
		c-2.22-15.16,11.35-27.89,26.34-24.69l511.23,108.92c13.13,2.8,20.71,16.61,16.02,29.19l-105.4,282.49
		C484.51,522.6,475.37,528.41,465.56,527.6z"/>
</g>
<g>
	<path d="M451.38,517.14l-206.16-15.75l-103.08-7.92l-25.77-1.98l-12.88-0.99l-3.22-0.25l-1.61-0.12l-1.77-0.21
		c-2.37-0.36-4.68-1.05-6.85-2.07c-4.36-2.01-8.05-5.4-10.53-9.51c-1.24-2.06-2.21-4.29-2.78-6.63c-0.57-2.45-0.78-4.47-1.13-6.62
		l-3.88-25.55L40.89,235.09L25.48,132.86l-3.85-25.56c-0.81-4.92-0.09-10.3,2.04-14.94c2.08-4.7,5.68-8.62,10-11.35
		c4.31-2.79,9.55-4.08,14.67-3.92c1.29-0.03,2.55,0.24,3.82,0.4c0.68,0.09,1.17,0.21,1.7,0.32l1.58,0.33l6.32,1.32l25.3,5.28
		l202.44,42.06l101.17,21.27l50.54,10.82l50.52,10.94l50.49,11.08l12.62,2.77l6.31,1.38l3.17,0.7l1.91,0.52l0.95,0.27l0.92,0.36
		l1.84,0.74l1.76,0.93l0.87,0.48l0.82,0.56c0.54,0.38,1.1,0.74,1.63,1.14c2.06,1.66,3.94,3.55,5.46,5.71
		c1.48,2.17,2.78,4.5,3.56,7.02l0.32,0.93l0.24,0.96c0.15,0.64,0.32,1.28,0.44,1.92c0.16,1.31,0.4,2.61,0.38,3.93
		c0.13,2.64-0.28,5.27-0.92,7.8c-0.8,2.71-1.57,4.45-2.34,6.52l-4.62,12.07l-9.25,24.14L549.72,310
		c-24.81,64.3-49.82,128.54-75.39,192.56l-1.03-0.38c22.62-65.12,45.79-130.04,69.17-194.88l17.57-48.62l8.82-24.29l4.41-12.15
		c0.71-1.98,1.57-4.23,1.95-5.67c0.36-1.64,0.63-3.31,0.49-4.99c0.02-0.84-0.19-1.66-0.28-2.49c-0.09-0.41-0.21-0.81-0.31-1.22
		l-0.15-0.61l-0.23-0.59c-0.51-1.6-1.38-3.06-2.32-4.43c-0.98-1.36-2.19-2.52-3.48-3.56c-0.34-0.24-0.69-0.46-1.03-0.69l-0.51-0.35
		l-0.55-0.28l-1.1-0.58l-1.16-0.44l-0.58-0.23l-0.61-0.15l-1.21-0.32l-3.15-0.65l-6.33-1.31l-12.66-2.62l-50.62-10.47l-50.59-10.6
		l-50.57-10.72l-101.05-21.82l-202-44.11l-25.26-5.49l-6.31-1.37l-1.58-0.34c-0.53-0.11-1.08-0.24-1.47-0.28
		c-0.86-0.1-1.72-0.34-2.59-0.29c-3.45-0.13-6.98,0.67-9.93,2.57c-2.95,1.84-5.47,4.5-6.89,7.7c-1.45,3.19-2.02,6.68-1.47,10.28
		l3.65,25.59l14.59,102.35l29.18,204.69l3.62,25.59c0.31,2.1,0.57,4.38,0.97,6.13c0.42,1.86,1.18,3.62,2.14,5.26
		c1.94,3.27,4.83,6.01,8.29,7.64c1.72,0.83,3.56,1.4,5.45,1.71l1.44,0.19l1.61,0.14l3.22,0.28l12.87,1.12l25.75,2.24l102.99,8.97
		l205.98,18.04L451.38,517.14z"/>
</g>
<g>
	<path class="st1" d="M536.11,190.27l7.98-29.9l-276.94-47.95l-10.23,77.47l-16.56-71.98L62.13,208.36l55.78,70.93l-95.27,28
		l88.56,22.34l0.73,128.06l2.52-0.01l-0.22,0.91l261.76,63.09l140.78-100.57l-0.31-0.43l1.57,0.01l1-166.73l47.43-80.15
		L536.11,190.27z"/>
</g>
<g>
	<polygon class="st0" points="449.77,382.73 486.64,378.64 447.92,378.28 459.39,359.28 445.01,374.58 441.25,340.63 440.91,375.92 
		423.29,365.28 437.74,378.84 400.85,382.93 438.58,383.29 428.38,400.19 441.13,386.61 445.54,426.41 445.93,385.25 464.2,396.28 	
		"/>
</g>
<g>
	<path d="M513.37,252.95l47.43-80.15l-30.35,16.47l7.98-29.9L261.5,111.42l-10.23,77.47l-16.56-71.98L56.47,207.36l55.78,70.93
		l-95.27,28l88.56,22.34l0.73,128.06l2.52-0.01l-0.22,0.91l261.76,63.09l140.78-100.57l-0.31-0.43l1.57,0.01L513.37,252.95z
		 M249.06,308.22l-126.37-28.58l126.37-68.85V308.22z M255.06,209.41l173.71,35.02l-25.89,14.05l-37.69,76.01l-110.13-24.91V209.41z
		 M366.71,340.98v0.78l-0.33-0.85L366.71,340.98z M372.71,340.28l134.63-81.71l-0.94,157.55l-133.69,95.5V340.28z M507.18,251.64
		l-134.77,81.8l35-70.59l137.18-74.42L507.18,251.64z M266.63,118.4l264.31,45.76l-7.75,29.04l-86.19,46.76L255.4,203.36
		L266.63,118.4z M230.58,125.74l18.05,78.46l-130.91,71.32L65.71,209.4L230.58,125.74z M114.37,283.91l245.32,55.48l-73.16,28.7
		L39.76,305.84L114.37,283.91z M286.93,374.38l79.78-31.29v170.54L112.25,452.3l-0.7-122.15L286.93,374.38z"/>
</g>
<g>
	<polyline class="st11" points="212.7,300 264.95,175.29 407.11,205.15 357.19,332.68 	"/>
	<polygon points="359.98,333.77 354.4,331.59 403.02,207.36 266.76,178.74 215.46,301.16 209.93,298.84 263.14,171.85 411.2,202.94 
			"/>
</g>
<g>
	<polygon class="st6" points="252.44,205.15 149.24,219.32 169.52,292.23 210.18,300 	"/>
	<path d="M211.36,302.26l-43.43-8.3l-21.23-76.31l109.03-14.96L211.36,302.26z M171.12,290.49l37.88,7.24l40.15-90.12l-97.37,13.36
		L171.12,290.49z"/>
</g>
<g>
	<polygon class="st3" points="306.4,183.3 313.41,167.29 437.71,192.93 407.11,248.29 365.19,334.49 357.19,332.68 407.11,205.15 	
		"/>
	<path d="M366.29,336.79l-11.82-2.67l49.92-127.51l-100.81-21.88l8.65-19.73l128.55,26.51l-31.89,57.69L366.29,336.79z
		 M359.9,331.24l4.18,0.95l41.28-84.87l29.29-52.98l-120.05-24.76l-5.38,12.29l100.62,21.83L359.9,331.24z"/>
</g>
<g>
	<rect x="281.72" y="187.83" transform="matrix(0.1937 -0.9811 0.9811 0.1937 27.2849 443.0902)" width="3" height="34.23"/>
</g>
<g>
	<rect x="278.71" y="197" transform="matrix(0.1937 -0.9811 0.9811 0.1937 15.8728 447.5364)" width="3" height="34.23"/>
</g>
<g>
	<rect x="274.73" y="207.16" transform="matrix(0.1937 -0.9811 0.9811 0.1937 2.6946 451.8339)" width="3" height="34.23"/>
</g>
<g>
	<rect x="268.73" y="225.58" transform="matrix(0.1937 -0.9811 0.9811 0.1937 -20.2187 460.7918)" width="3" height="34.23"/>
</g>
<g>
	<rect x="299.26" y="213.92" transform="matrix(0.2111 -0.9775 0.9775 0.2111 -25.9617 506.4443)" width="3" height="110.76"/>
</g>
<g>
	<rect x="297.19" y="220.14" transform="matrix(0.2111 -0.9775 0.9775 0.2111 -33.6702 509.3285)" width="3" height="110.76"/>
</g>
<g>
	<rect x="295.12" y="226.36" transform="matrix(0.2111 -0.9775 0.9775 0.2111 -41.382 512.2092)" width="3" height="110.76"/>
</g>
<g>
	<rect x="293.05" y="232.58" transform="matrix(0.2111 -0.9775 0.9775 0.2111 -49.0945 515.0876)" width="3" height="110.76"/>
</g>
<g>
	<rect x="283.55" y="244.79" transform="matrix(0.2111 -0.9775 0.9775 0.2111 -61.0981 509.4411)" width="3" height="95.56"/>
</g>
<g>
	<rect x="294.08" y="251.43" transform="matrix(0.2111 -0.9775 0.9775 0.2111 -61.5241 526.7933)" width="3" height="100.17"/>
</g>
<g>
	<rect x="286.84" y="251.23" transform="matrix(0.2111 -0.9775 0.9775 0.2111 -72.2259 523.7343)" width="3" height="110.76"/>
</g>
<g>
	<rect x="284.77" y="257.45" transform="matrix(0.2111 -0.9775 0.9775 0.2111 -79.9391 526.6116)" width="3" height="110.76"/>
</g>
</svg>
