<?xml version="1.0" encoding="utf-8"?>
<!-- Generator: Adobe Illustrator 24.1.3, SVG Export Plug-In . SVG Version: 6.00 Build 0)  -->
<svg version="1.1" id="Layer_1" xmlns="http://www.w3.org/2000/svg" xmlns:xlink="http://www.w3.org/1999/xlink" x="0px" y="0px"
	 viewBox="0 0 600 600" style="enable-background:new 0 0 600 600;" xml:space="preserve">
<style type="text/css">
	.st0{fill:#B086BE;}
	.st1{fill:#EC9E8B;}
	.st2{fill:#7C3894;}
	.st3{fill:#D45382;}
	.st4{fill:none;stroke:#000000;stroke-width:6;stroke-miterlimit:10;}
	.st5{fill:#FEDE9C;}
	.st6{fill:#F7CA5E;}
	.st7{fill:#83C89C;}
	.st8{fill:#22345B;}
	.st9{fill:#767E99;}
	.st10{fill:#D65A47;}
	.st11{fill:#FFFFFF;}
	.st12{fill:#E99BB2;}
	.st13{fill:#B5DEC2;}
	.st14{fill:none;stroke:#000000;stroke-width:2;stroke-miterlimit:10;}
	.st15{opacity:0.41;}
	.st16{stroke:#000000;stroke-width:4;stroke-miterlimit:10;}
	.st17{fill:none;stroke:#414042;stroke-width:2;stroke-miterlimit:10;}
	.st18{fill:#6FBB8F;}
	.st19{fill:#DB6041;}
	.st20{stroke:#000000;stroke-miterlimit:10;}
	.st21{fill:none;stroke:#000000;stroke-miterlimit:10;}
	.st22{fill:none;stroke:#000000;stroke-width:3;stroke-miterlimit:10;}
	.st23{fill:#FFFFFF;stroke:#000000;stroke-width:6;stroke-miterlimit:10;}
	.st24{fill:none;}
	.st25{fill:none;stroke:#000000;stroke-width:8;stroke-linecap:round;stroke-linejoin:round;stroke-miterlimit:10;}
	.st26{fill-rule:evenodd;clip-rule:evenodd;fill:#D65A47;}
	.st27{fill-rule:evenodd;clip-rule:evenodd;fill:#83C89C;}
	.st28{fill-rule:evenodd;clip-rule:evenodd;fill:#D45382;}
	.st29{fill:none;stroke:#000000;stroke-width:12;stroke-miterlimit:10;}
	.st30{fill:none;stroke:#000000;stroke-width:10;stroke-miterlimit:10;}
</style>
<g>
	<path class="st3" d="M26.98,304.91c11.26-67.29,478-286.26,543.17-223.69c65.17,62.56-72.99,164.23-72.99,224.19
		s71.66,136.76,28.02,190.74C472.1,561.78,4.59,438.71,26.98,304.91z"/>
</g>
<g>
	<path d="M31.23,274.14c5.93-6.12,12.38-11.7,19-17.03c6.64-5.32,13.49-10.37,20.45-15.26c13.93-9.76,28.31-18.87,42.89-27.62
		c29.19-17.46,59.22-33.48,89.68-48.6c30.48-15.09,61.43-29.24,92.8-42.38c31.38-13.13,63.17-25.31,95.51-35.94
		c16.18-5.29,32.49-10.19,48.99-14.46c16.5-4.24,33.18-7.91,50.11-10.27c8.46-1.17,16.99-2.01,25.58-2.21
		c4.29-0.1,8.6-0.04,12.91,0.27c4.31,0.3,8.62,0.85,12.88,1.82c4.26,0.95,8.48,2.34,12.44,4.42c1.97,1.07,3.86,2.3,5.61,3.75
		l1.28,1.13c0.4,0.38,0.77,0.78,1.16,1.16c0.76,0.79,1.55,1.53,2.28,2.35c5.9,6.44,10.53,14.23,12.87,22.76
		c2.37,8.54,2.37,17.54,0.97,26.12c-1.38,8.62-4.19,16.87-7.52,24.8c-6.79,15.85-15.86,30.44-25.24,44.66
		c-9.42,14.21-19.37,28.01-28.78,42.09c-4.7,7.04-9.26,14.16-13.44,21.46c-4.13,7.31-7.98,14.8-10.68,22.62
		c-1.34,3.9-2.4,7.88-2.95,11.89c-0.14,1-0.21,2-0.31,3c-0.03,1-0.08,1.99-0.08,3l0.12,3.09c0.05,1.03,0.04,2.06,0.18,3.09
		c0.72,8.24,2.56,16.41,4.93,24.45c4.78,16.09,11.53,31.66,17.97,47.4c3.23,7.87,6.42,15.79,9.3,23.87
		c2.87,8.07,5.45,16.31,7.31,24.77c1.84,8.46,3.01,17.18,2.66,26.01c-0.33,8.8-2.25,17.68-6,25.78l-1.42,3.03l-1.7,2.88
		c-0.58,0.95-1.11,1.93-1.73,2.86l-1.96,2.69c-0.67,0.9-1.28,1.79-2,2.69l-1.17,1.34c-0.41,0.43-0.84,0.83-1.25,1.24
		c-1.71,1.6-3.55,3.04-5.49,4.24c-3.85,2.48-7.99,4.23-12.16,5.69c-4.18,1.44-8.44,2.52-12.71,3.37c-8.55,1.7-17.16,2.52-25.75,2.96
		c-8.6,0.41-17.19,0.42-25.75,0.08c-17.12-0.65-34.14-2.41-51.05-4.77c-16.91-2.39-33.71-5.4-50.4-8.93
		c-33.35-7.16-66.26-16.24-98.59-27.05c-16.16-5.41-32.17-11.28-47.98-17.66c-15.81-6.37-31.41-13.28-46.68-20.88
		c-15.28-7.58-30.25-15.81-44.67-24.94c-14.39-9.17-28.31-19.19-40.9-30.79c-6.27-5.81-12.21-12.02-17.53-18.74
		c-5.31-6.72-10-13.98-13.52-21.82c-3.51-7.82-5.77-16.29-6.03-24.89c-0.13-4.3,0.22-8.58,1.06-12.81c1.04-4.25,3.3-7.99,5.77-11.45
		l0.49,0.35c-2.37,3.48-4.49,7.23-5.37,11.3c-0.71,4.12-0.95,8.37-0.72,12.56c0.43,8.41,2.79,16.63,6.38,24.22
		c3.59,7.6,8.33,14.64,13.68,21.14c5.36,6.5,11.33,12.5,17.63,18.11c12.6,11.25,26.51,20.99,40.9,29.87
		c14.42,8.85,29.39,16.81,44.67,24.12c30.59,14.56,62.23,26.89,94.45,37.39c32.23,10.49,65.02,19.26,98.19,26.1
		c16.57,3.47,33.25,6.42,50.01,8.75c16.75,2.3,33.59,4,50.44,4.6c8.42,0.29,16.84,0.35,25.22-0.03c8.37-0.4,16.73-1.18,24.86-2.77
		c4.06-0.8,8.07-1.8,11.93-3.11c3.84-1.33,7.59-2.91,10.89-5.03c1.68-1.02,3.2-2.23,4.59-3.52c0.34-0.33,0.69-0.66,1.01-0.99
		l0.93-1.05c0.61-0.75,1.2-1.62,1.81-2.42l1.81-2.45c0.56-0.84,1.04-1.73,1.57-2.59l1.56-2.6l1.29-2.74
		c3.44-7.31,5.24-15.35,5.6-23.51c0.37-8.18-0.68-16.45-2.4-24.59c-3.52-16.31-9.72-32.1-16.05-47.81
		c-6.33-15.74-13.05-31.46-17.88-48.01c-2.38-8.27-4.26-16.76-4.97-25.47c-0.14-1.08-0.13-2.18-0.18-3.27l-0.11-3.28
		c0-1.11,0.07-2.25,0.11-3.36c0.12-1.11,0.21-2.23,0.37-3.33c0.64-4.41,1.8-8.68,3.24-12.8c2.89-8.25,6.89-15.93,11.15-23.37
		c4.3-7.43,8.95-14.61,13.71-21.68c9.54-14.14,19.54-27.87,28.96-41.96c9.38-14.08,18.4-28.46,25.07-43.87
		c3.27-7.7,6.01-15.66,7.35-23.84c1.36-8.15,1.37-16.54-0.78-24.44c-2.13-7.9-6.37-15.13-11.91-21.24
		c-0.68-0.78-1.43-1.49-2.14-2.24c-0.36-0.36-0.72-0.75-1.08-1.1l-1.1-0.99c-1.52-1.27-3.19-2.37-4.95-3.34
		c-1.78-0.94-3.65-1.74-5.57-2.44c-1.94-0.65-3.9-1.26-5.92-1.69c-8.06-1.86-16.51-2.24-24.89-2.11
		c-8.41,0.16-16.82,0.94-25.19,2.06c-16.75,2.26-33.34,5.83-49.77,9.98c-16.43,4.17-32.71,8.98-48.86,14.18
		c-32.31,10.41-64.12,22.37-95.52,35.3c-31.4,12.94-62.39,26.89-92.92,41.78c-30.51,14.92-60.61,30.75-89.86,48.02
		c-14.61,8.66-29.02,17.66-42.99,27.33c-6.97,4.84-13.84,9.84-20.5,15.11c-6.64,5.28-13.1,10.81-19.04,16.86L31.23,274.14z"/>
</g>
<g>
	
		<rect x="62.46" y="214.45" transform="matrix(0.9589 -0.2837 0.2837 0.9589 -76.5616 62.6123)" class="st11" width="230.8" height="162.3"/>
	<path d="M88.2,409.89L40.45,248.51l227.07-67.19l47.75,161.38L88.2,409.89z M47.91,252.56l44.35,149.88l215.56-63.78l-44.35-149.88
		L47.91,252.56z"/>
</g>
<g>
	<polygon points="178.9,299.12 43.22,253.37 45.14,247.69 176.82,292.09 263.14,183.18 267.84,186.91 	"/>
</g>
<g>
	<path d="M161.61,286.26c0.43,3.34,1.34,6.79,0.35,10.01c-1.15,3.71-4.7,6.52-5.06,10.39c-0.54,5.85,6.19,9.47,11.89,10.88
		c6.03,1.49,13.75,1.68,16.96-3.64c1.15-1.9,1.46-4.18,2.39-6.19c1.04-2.25,2.88-4.13,5.11-5.21c2.39-1.17,5.45-1.67,6.68-4.03
		c0.54-1.04,0.6-2.25,0.62-3.42c0.2-11.53-3.48-21.31-15.4-21.79C175.98,272.9,160.08,274.41,161.61,286.26z"/>
	<path d="M175.68,321.46c-2.33,0-4.88-0.33-7.61-1c-11.14-2.74-14.62-9.07-14.16-14.07c0.27-2.94,1.79-5.25,3.14-7.28
		c0.86-1.3,1.67-2.52,2.04-3.73c0.59-1.91,0.23-4.21-0.15-6.64c-0.11-0.7-0.22-1.4-0.31-2.1v0c-0.5-3.89,0.52-7.36,2.96-10.02
		c5.62-6.14,17.24-6.61,23.68-6.36c12.05,0.49,18.54,9.31,18.28,24.84c-0.02,1.46-0.12,3.15-0.96,4.76
		c-1.43,2.73-4.11,3.77-6.26,4.6c-0.64,0.25-1.24,0.48-1.76,0.73c-1.6,0.78-2.95,2.16-3.7,3.78c-0.31,0.68-0.56,1.46-0.82,2.29
		c-0.41,1.31-0.88,2.79-1.73,4.19C185.94,319.41,181.49,321.46,175.68,321.46z M164.58,285.88c0.08,0.64,0.18,1.29,0.29,1.93
		c0.45,2.86,0.96,6.11-0.05,9.35c-0.63,2.02-1.76,3.74-2.76,5.26c-1.09,1.66-2.04,3.09-2.17,4.52c-0.38,4.11,5.87,6.77,9.62,7.69
		c2.51,0.62,10.92,2.28,13.68-2.28c0.47-0.78,0.79-1.8,1.13-2.88c0.31-0.98,0.63-1.99,1.1-3.01c1.34-2.89,3.65-5.25,6.51-6.65
		c0.75-0.37,1.5-0.66,2.23-0.94c1.4-0.54,2.73-1.05,3.11-1.79c0.25-0.49,0.27-1.48,0.28-2.08c0.31-18.23-9.34-18.62-12.52-18.75
		c-6.98-0.29-15.64,0.73-19.02,4.42C164.76,282.05,164.3,283.7,164.58,285.88L164.58,285.88z"/>
</g>
<g>
	
		<rect x="273.2" y="308.77" transform="matrix(0.934 0.3572 -0.3572 0.934 164.908 -113.0781)" class="st7" width="230.8" height="162.3"/>
</g>
<g>
	<path d="M457.13,514.81l-2.8-1.07l-218.38-83.51l60.11-157.2l2.8,1.07l218.38,83.51L457.13,514.81z M243.7,426.77l209.97,80.29
		l55.83-145.99l-209.97-80.29L243.7,426.77z"/>
</g>
<g>
	<polygon points="375.28,397.35 295.31,278.58 300.28,275.23 377.9,390.5 512.63,356.44 514.1,362.25 	"/>
</g>
<g>
	<path d="M369.36,376.63c-1.69,2.92-3.06,6.21-5.81,8.16c-3.17,2.25-7.7,2.33-10.33,5.18c-3.98,4.32-0.84,11.28,2.84,15.87
		c3.89,4.84,9.9,9.68,15.68,7.42c2.06-0.81,3.7-2.43,5.66-3.46c2.2-1.15,4.79-1.53,7.22-1.04c2.61,0.52,5.34,1.98,7.75,0.86
		c1.06-0.49,1.84-1.42,2.57-2.34c7.16-9.04,10.19-19.04,1.01-26.67C388.9,374.74,375.35,366.29,369.36,376.63z"/>
	<path d="M368.71,416.83c-4.94,0-10.22-3.16-14.99-9.11c-7.18-8.95-6.11-16.08-2.71-19.78c2-2.17,4.61-3.08,6.92-3.88
		c1.47-0.51,2.85-0.99,3.88-1.72c1.63-1.16,2.74-3.2,3.92-5.37c0.34-0.62,0.68-1.25,1.03-1.85l0,0c1.97-3.4,4.89-5.53,8.44-6.16
		c8.19-1.46,17.72,5.22,22.68,9.34c9.28,7.71,9.07,18.66-0.57,30.84c-0.91,1.14-2.01,2.43-3.65,3.19c-2.79,1.3-5.55,0.5-7.77-0.15
		c-0.66-0.19-1.28-0.37-1.84-0.49c-1.75-0.35-3.66-0.08-5.24,0.75c-0.66,0.35-1.33,0.82-2.04,1.32c-1.12,0.79-2.39,1.68-3.91,2.28
		C371.5,416.58,370.12,416.83,368.71,416.83z M377.57,374.76c-0.46,0-0.9,0.04-1.32,0.11c-1.83,0.33-3.2,1.36-4.3,3.26l0,0
		c-0.32,0.56-0.64,1.13-0.95,1.71c-1.38,2.55-2.95,5.43-5.72,7.39c-1.73,1.23-3.67,1.9-5.39,2.5c-1.88,0.65-3.5,1.21-4.47,2.27
		c-2.79,3.03,0.55,8.94,2.97,11.96c1.62,2.02,7.28,8.45,12.25,6.5c0.85-0.33,1.73-0.95,2.65-1.6c0.84-0.59,1.7-1.2,2.7-1.72
		c2.82-1.48,6.09-1.95,9.21-1.33c0.82,0.16,1.59,0.39,2.34,0.61c1.44,0.42,2.81,0.82,3.55,0.47c0.46-0.21,0.98-0.85,1.49-1.48
		c2.8-3.53,11.32-14.29,1.44-22.49C389.13,378.84,382.44,374.76,377.57,374.76z"/>
</g>
<g>
	
		<rect x="68.46" y="206.45" transform="matrix(0.9589 -0.2837 0.2837 0.9589 -74.0452 63.9859)" class="st2" width="230.8" height="162.3"/>
</g>
<g>
	<path d="M88.2,409.89L40.45,248.51l227.07-67.19l47.75,161.38L88.2,409.89z M47.91,252.56l44.35,149.88l215.56-63.78l-44.35-149.88
		L47.91,252.56z"/>
</g>
<g>
	<polygon points="178.9,299.12 43.22,253.37 45.14,247.69 176.82,292.09 263.14,183.18 267.84,186.91 	"/>
</g>
<g>
	<path d="M161.61,286.26c0.43,3.34,1.34,6.79,0.35,10.01c-1.15,3.71-4.7,6.52-5.06,10.39c-0.54,5.85,6.19,9.47,11.89,10.88
		c6.03,1.49,13.75,1.68,16.96-3.64c1.15-1.9,1.46-4.18,2.39-6.19c1.04-2.25,2.88-4.13,5.11-5.21c2.39-1.17,5.45-1.67,6.68-4.03
		c0.54-1.04,0.6-2.25,0.62-3.42c0.2-11.53-3.48-21.31-15.4-21.79C175.98,272.9,160.08,274.41,161.61,286.26z"/>
	<path d="M175.68,321.46c-2.33,0-4.88-0.33-7.61-1c-11.14-2.74-14.62-9.07-14.16-14.07c0.27-2.94,1.79-5.25,3.14-7.28
		c0.86-1.3,1.67-2.52,2.04-3.73c0.59-1.91,0.23-4.21-0.15-6.64c-0.11-0.7-0.22-1.4-0.31-2.1v0c-0.5-3.89,0.52-7.36,2.96-10.02
		c5.62-6.14,17.24-6.61,23.68-6.36c12.05,0.49,18.54,9.31,18.28,24.84c-0.02,1.46-0.12,3.15-0.96,4.76
		c-1.43,2.73-4.11,3.77-6.26,4.6c-0.64,0.25-1.24,0.48-1.76,0.73c-1.6,0.78-2.95,2.16-3.7,3.78c-0.31,0.68-0.56,1.46-0.82,2.29
		c-0.41,1.31-0.88,2.79-1.73,4.19C185.94,319.41,181.49,321.46,175.68,321.46z M164.58,285.88c0.08,0.64,0.18,1.29,0.29,1.93
		c0.45,2.86,0.96,6.11-0.05,9.35c-0.63,2.02-1.76,3.74-2.76,5.26c-1.09,1.66-2.04,3.09-2.17,4.52c-0.38,4.11,5.87,6.77,9.62,7.69
		c2.51,0.62,10.92,2.28,13.68-2.28c0.47-0.78,0.79-1.8,1.13-2.88c0.31-0.98,0.63-1.99,1.1-3.01c1.34-2.89,3.65-5.25,6.51-6.65
		c0.75-0.37,1.5-0.66,2.23-0.94c1.4-0.54,2.73-1.05,3.11-1.79c0.25-0.49,0.27-1.48,0.28-2.08c0.31-18.23-9.34-18.62-12.52-18.75
		c-6.98-0.29-15.64,0.73-19.02,4.42C164.76,282.05,164.3,283.7,164.58,285.88L164.58,285.88z"/>
</g>
<g>
	<path class="st11" d="M337.85,268.3L112.15,460.44c-2.68,2.28-2.88,6.35-0.44,8.88l40.32,41.89c2.49,2.59,6.67,2.48,9.02-0.24
		l197.73-229.11"/>
	<path d="M156.43,516.08c-2.47,0-4.85-1.01-6.56-2.79l-40.32-41.89c-1.73-1.8-2.66-4.27-2.53-6.77c0.12-2.5,1.29-4.86,3.19-6.48
		L335.9,266.02l3.89,4.57L114.1,462.72c-0.66,0.56-1.05,1.35-1.09,2.21s0.26,1.68,0.86,2.31l40.32,41.89
		c0.61,0.64,1.46,0.97,2.32,0.95c0.88-0.02,1.69-0.41,2.27-1.08l197.73-229.12l4.54,3.92L163.32,512.93
		c-1.67,1.93-4.09,3.08-6.65,3.15C156.59,516.08,156.51,516.08,156.43,516.08z"/>
</g>
<g>
	<circle class="st11" cx="406.74" cy="205.15" r="90.45"/>
	<path d="M406.74,298.6c-51.53,0-93.45-41.92-93.45-93.45s41.92-93.45,93.45-93.45s93.45,41.92,93.45,93.45
		S458.27,298.6,406.74,298.6z M406.74,117.7c-48.22,0-87.45,39.23-87.45,87.45s39.23,87.45,87.45,87.45s87.45-39.23,87.45-87.45
		S454.96,117.7,406.74,117.7z"/>
</g>
<g>
	<circle class="st6" cx="412.38" cy="207.26" r="76.24"/>
</g>
<g>
	<path d="M406.74,282.89c-42.87,0-77.74-34.87-77.74-77.74s34.87-77.74,77.74-77.74s77.74,34.87,77.74,77.74
		S449.6,282.89,406.74,282.89z M406.74,130.41c-41.21,0-74.74,33.53-74.74,74.74s33.53,74.74,74.74,74.74s74.74-33.53,74.74-74.74
		S447.95,130.41,406.74,130.41z"/>
</g>
<g>
	<circle class="st24" cx="406.74" cy="205.15" r="76.24"/>
</g>
<g>
	<path d="M366.73,160.09c4.66-5,10.55-8.89,16.95-11.61c6.41-2.72,13.37-4.24,20.37-4.52c7-0.28,14.06,0.72,20.66,2.94
		c6.59,2.23,12.76,5.66,17.78,10.29c-6.35-2.5-12.62-4.5-19-5.73c-6.37-1.24-12.8-1.75-19.22-1.5c-6.41,0.25-12.79,1.23-19.04,2.96
		C378.97,154.62,372.86,157.1,366.73,160.09z"/>
</g>
</svg>
