<svg version="1" xmlns="http://www.w3.org/2000/svg" width="933.333" height="933.333" viewBox="0 0 700.000000 700.000000"><path d="M651 73.9c-1.9.5-5.3 1.2-7.5 1.5-9.2 1.3-16.4 2.5-22 3.5-3.3.5-8 1.3-10.5 1.6-2.5.4-8.1 1.3-12.5 2-4.4.8-15.4 2.5-24.5 3.9-19.5 3-23.5 3.6-26.4 4.2-1.1.2-3.8.7-5.8.9-3.1.4-17 2.7-31 5.1-1.5.2-10.1 1.6-19 2.9-9 1.4-17 2.7-17.8 3-.8.2-3.7.6-6.5 1-2.7.3-5.9.8-7 1-1.1.3-3.6.7-5.5 1-1.9.2-4.6.7-6 .9-1.4.3-4.2.7-6.2 1-2.1.3-5.5.9-7.5 1.2-5 .7-8.3 1.3-11.3 1.8-1.4.3-4.3.8-6.5 1.1-2.2.3-9.2 1.4-15.5 2.4-6.3 1.1-16.2 2.7-22 3.6-10.4 1.6-13.2 2.1-18 2.9-2.4.5-28.4 4.5-32.5 5.1-4.1.6-13.1 2.1-21.5 3.5-3 .5-7.5 1.3-10 1.6-2.5.3-5.4.8-6.5.9-1.1.2-3.8.6-6 1-2.2.3-6.2 1-9 1.5-2.7.5-6.6 1.2-8.5 1.4-1.9.3-4.6.8-6 1-1.4.3-10.1 1.7-19.5 3.1-9.3 1.4-18.3 2.8-20 3.1-1.6.3-4.2.7-5.7.9-1.6.3-4 .7-5.5.9-1.6.3-6.9 1.2-11.8 2-5 .8-11 1.8-13.5 2.2-6.9.9-8 1.1-14.5 2.3-3.3.6-7.7 1.3-9.7 1.5-2.1.3-6.3 1-9.5 1.5-3.2.6-7.6 1.3-9.8 1.6-2.2.3-6.2 1-9 1.5-2.7.5-7.2 1.2-10 1.5-2.7.3-8.6 1.2-13 2s-9.7 1.7-11.7 1.9c-2.1.3-6.3.9-9.5 1.5-3.2.5-7.4 1.2-9.3 1.5-1.9.3-4.6.8-5.9 1-1.2.3-4.4.8-6.9 1.1-2.6.3-5.4.7-6.2.9-.8.3-3.1.7-5 1-5.5.8-22.2 3.5-24.9 4.1-11.8 2.3-20.9 9.6-26.4 21.3-2.6 5.6-3 7.5-3 15.3 0 10.6-.6 9.3 24 54.9 2.5 4.7 5.6 10.3 6.8 12.5 1.2 2.2 4.3 8 7 13 2.6 4.9 5.6 10.3 6.5 12 1 1.6 4.1 7.5 7 13 2.9 5.5 7.9 14.7 11 20.5 3.1 5.8 7.9 14.5 10.5 19.5 2.6 4.9 5.5 10.3 6.5 12 .9 1.6 4 7.4 6.9 12.7 2.8 5.4 6.2 11.7 7.5 14 1.2 2.4 4.1 7.7 6.3 11.8 9.8 18.3 11.7 21.8 14.3 26.5 1.5 2.7 5 9.3 7.8 14.5 2.7 5.2 5.8 11.1 6.9 13 1.1 1.9 5.7 10.5 10.3 19 4.6 8.5 9.8 18.2 11.6 21.5 1.8 3.3 5.4 10 8 15 2.5 4.9 5 9.4 5.4 10 .4.5 3.5 6.4 7 13 3.4 6.6 7 13.3 8 15 1 1.6 3.3 5.9 5.2 9.5 17 31.8 26.1 48 28.4 50.7 8.6 10.5 26.1 15.5 39.4 11.4 4.2-1.3 97.2-28 101.5-29.1 1.7-.5 6.4-1.8 10.5-2.9 4.1-1.2 9.8-2.8 12.5-3.5 2.8-.8 24.8-7.1 49-14.1S474.4 562 478 561c10.6-2.9 74.2-21.1 75.8-21.7 1.2-.5 1.3.5.8 6.3-.4 3.8-1.1 9.5-1.6 12.8-.5 3.2-.9 6.1-.8 6.5.1.3-.2 2.8-.6 5.4-1 5.8-.5 6.6 2.6 3.7 1.3-1.2 4.5-4.1 7.2-6.3 13.5-11.5 18.3-15.5 20.5-17.3 1.3-1 2.8-2.4 3.5-3 .6-.5 4.3-3.6 8.1-6.9 3.9-3.2 7.5-6.3 8-6.9.6-.6 3.7-3.4 7-6.1 7.9-6.6 32.7-27.7 34.1-29 .6-.5 3-2.7 5.3-4.8 2.4-2.1 4.1-4 3.9-4.2-.4-.4-13.8-4.1-17.8-4.9-1.4-.3-9.9-2.3-19-4.6-9.1-2.2-19.4-4.8-23-5.6-7.7-1.9-14.1-3.6-43.4-11.9-8.8-2.5-16.1-4.4-16.2-4.2-.1.1 1.8 5.1 4.2 11.2 2.4 6 4.4 11.3 4.4 11.9 0 .5-5-6.6-11.1-15.8-6.1-9.2-11-16.9-10.8-17.1.2-.2 9.2 1.9 19.9 4.6 10.7 2.7 20.4 5 21.5 5.3 2 .4 18.4 4.7 40.5 10.7 6.3 1.7 12.6 3.3 14 3.5 1.4.3 3.3.7 4.2 1 .9.3 2.5.7 3.5.9 1 .2 4.9 1.3 8.6 2.4 7.7 2.3 7.8 2.2 19-4.3 19.4-11.2 33.6-32.4 39.7-59.1 3.3-14.6 3.5-18.5 4.5-71.1.3-18.1.8-44.8 1.1-59.4.2-14.6.7-36.4.9-48.5.2-12.1.7-39.1 1.1-60 1.2-64.6 1-71.1-1.5-77.7-3.1-7.9-10.6-15.9-18.6-19.9-5.3-2.6-7.8-3.2-14.7-3.5-4.6-.2-9.9.1-11.8.5zm-140 67.6c.3.2.5 7.2.5 15.6l-.1 15.3-21.5-.3c-11.8-.1-30.3-.4-41.1-.5l-19.8-.2-.1 20c0 11.1-.2 34.3-.4 51.6-.3 17.3-.6 42.3-.7 55.5l-.3 24 9.5.2c5.2.1 16.6.2 25.3.2l15.7.1v31.1l-25-.2c-13.7-.2-25.1-.1-25.4.2-.3.2-.8 24.1-1.1 52.9-.4 28.9-.7 54.4-.8 56.7 0 2.4.2 4.5.5 4.8.4.4 32.9 1 72.6 1.4l9.2.1-.2 15.5-.2 15.5-46.5-.6c-25.6-.3-53.1-.6-61.1-.7l-14.5-.2.1-35.5c.2-34.2.9-102.2 2-190.5.9-71.5 1.2-96.3 1.3-115.3l.1-18.3 60.7.6c33.4.4 61 .8 61.3 1zm74.5 9.5c10 1.7 12.1 2.2 19.3 4.6 9 3 14.4 6.3 20.4 12.7 7.1 7.6 14.2 23.4 16.8 37.5.5 3.1 1.3 6.8 1.6 8.2 1.4 5.7 1.3 38.5-.2 45.5-4.3 20.8-11.9 34.3-24.8 44.2l-2.8 2.2 19.8 58.8c24.5 73 22.7 67.2 20.6 67.1-.9 0-7.8.3-15.2.7-7.4.5-15.5.8-17.9.9l-4.4.1-2.3-8c-5.2-18.5-21.3-75.6-23-82-.2-.6-2-7-4-14.3l-3.8-13.3-4.6.3c-4.4.3-4.5.3-4.4 3.8.1 3.5 1.3 24.3 1.9 33.5.2 2.7.6 9.3 1 14.5.3 5.2.8 11.1 1 13 .2 1.9.7 8.7 1 15 .4 6.3.8 13.1 1 15 .2 1.9.6 8.2 1 14 .6 10.5.6 10.6-1.7 10.8-1.3.1-4.1.4-6.3.6-2.2.3-8.7.8-14.5 1.2-9.9.6-10.6.5-10.6-1.2-.1-2.5-1.5-23-1.9-27.4-.8-8.8-1.9-22.7-3-38.5-.3-4.4-.8-10.3-1-13.2-1.2-14.3-1.5-18.6-2-27.8-.3-5.5-.8-11.8-1-14-.5-4.4-1.2-13-2-24.5-.7-10.4-1.3-17.4-1.9-25-.5-5.9-1.1-13.1-2.1-28-.2-3-.7-8.7-1-12.5-.3-3.9-.8-10.6-1.1-14.9-.3-4.3-.7-9.5-.9-11.5-.6-6-1.4-17.1-2-25.6-.3-4.4-.7-10.8-1-14.1l-.5-6.2 4.3-.6c2.3-.3 7.1-.9 10.7-1.2 3.6-.4 6.6-.8 6.8-.9.8-.7 30.2-.2 34.7.5zm-367.7 28.7c0 1 .2 4.7.6 8.3 1.8 17.8 1.8 18.6-.6 18.6-3.5.1-19.6 1.5-21.6 1.9-1 .1-6.5.6-12.2 1-9.7.6-13.6 1.7-12.5 3.4.2.4.7 3.9 1 7.7.3 3.8.8 8.9 1 11.4.6 6 1.7 19.5 2 24.5.3 4.7 1.4 18.1 2 24.5.3 2.5.7 7.6 1 11.5.3 3.8.8 9 1 11.5.2 2.5.7 7.4 1 11 .3 3.6.7 8.5 1 11 .2 2.5.7 7.9 1 12 .5 7.3 1 12.6 2 22 .3 2.5.7 7.9 1 12 .2 4.1.7 10 1 13 .9 9.5 2.6 28.2 4 46 .3 3.6.8 8.9 1.1 11.7.5 5.2.5 5.3-2.3 5.4-1.5 0-3.5.2-4.3.3-.8.2-5.3.7-9.9 1-4.7.4-8.8.9-9.2 1.1-1.7 1.1-2.7-2.7-3.4-12-.3-5.5-.8-11.1-1-12.5-.3-1.4-.7-5.9-1-10-.3-4.1-.7-9.8-1-12.5-.2-2.8-.7-8.2-1-12-.3-3.9-.8-9-1-11.5-.2-2.5-.7-8.3-1.1-13-.3-4.7-.7-9.9-.9-11.5-.1-1.7-.6-6.8-.9-11.5-.4-4.7-.9-10.1-1.1-12-.2-1.9-.7-7.1-1-11.5-.4-4.4-.8-9.4-.9-11-.2-1.7-.6-6.6-1-11-.7-7.9-.9-10.1-2.2-24.5-1-11.8-1.1-13-1.9-22.5-.4-5-.8-10.4-1-12-.1-1.7-.6-6.8-1-11.5-.7-7.4-1-11-1.4-14.4-.1-.7-8.4-.3-19.1.9-1.9.2-6.6.7-10.5 1-3.8.3-10 .8-13.7 1.1-6.1.6-6.7.5-6.6-1.2.1-2.1-1-15.3-1.8-22.2-.5-3.6-.3-4.2 1.3-4.4 1 0 2.9-.2 4.3-.3 1.4-.1 5.4-.5 9-.9 7.8-.8 15.2-1.4 24-2.1 3.6-.3 8.5-.7 11-1 2.5-.2 7.7-.6 11.5-1 3.9-.3 9.3-.8 12-1 2.8-.2 8.4-.7 12.5-1.1 4.1-.3 9.1-.8 11-.9 1.9-.2 7.3-.7 12-1.1 4.7-.3 8.6-.7 8.7-.8.2-.1 2.3-.3 4.7-.5 3.8-.1 4.5.1 4.4 1.6zm92.8 25.8c11.7 2.9 20.8 7.8 28.9 15.8 13.1 13 14.6 17.9 16 52.2.4 8.2.8 16.5 1 18.2.2 3.2.2 3.3-3.9 3.4-4.7.1-10.5.4-25.8 1.3-9.8.5-10.8.4-10.9-1.2 0-.9-.2-3.7-.4-6.2s-.6-11.7-.9-20.5c-.3-8.8-1-17.5-1.5-19.2-1.4-4.8-4.7-9-9.5-12.1-3.4-2.2-5.2-2.6-10.8-2.6-7.9.1-13.1 2.9-17.5 9.6-2.6 3.9-2.8 4.8-2.7 14.7 0 9.8 1 33.2 1.9 47.6.2 3.3.6 12.1 1 19.5.3 7.4.7 16.6 1 20.5.2 3.8.7 12.6 1 19.5.3 6.9.7 15.9 1 20 .2 4.1.7 13.6 1 21 .6 15.6 1.3 30.7 2 43.5.9 18.1 1.6 32.2 2 42 .3 5.5.7 15.6 1.1 22.5.3 6.9.9 14.1 1.5 16.1 3.8 14.9 22 20.4 33.7 10.3 6.7-5.7 7.5-9.1 6.8-29.5-.4-9.6-.8-18.6-1.1-20-.2-1.3-.6-9.8-1-18.9-.4-9.1-.8-19.4-1-23-.4-7.4-1.7-33.2-1.9-40l-.2-4.5-10.6.1c-7.1.1-10.5-.2-10.5-1-.1-.6-.4-7.5-.8-15.4-.4-7.8-.3-14.2.2-14.3 5.8-.5 42.7-2.1 51.7-2.3 7.2-.1 8.9.2 9.1 1.4.1.8.6 9.1.9 18.5.4 9.3.9 18.3 1.1 20 .2 1.6.7 10.6 1.1 20 .3 9.3.8 19.2.9 22 .1 2.7.6 11.1.9 18.5.4 7.4.9 17.1 1.1 21.5 1.4 24.5 1.4 35.1-.1 41-2.3 8.7-6.8 16.1-14.5 23.6-12.5 12.2-28.3 18.3-47.4 18.2-18.3 0-33.1-5.8-44.5-17.4-8-8.2-8-8.2-11.2-14.9-3.7-8-3.9-9.5-5.3-39.5-.3-6.6-.7-16.1-1-21-.3-5-.8-14-1-20-.3-6.1-.8-15.7-1.1-21.5-.3-5.8-.7-14.3-.9-19-.2-4.7-.7-13.5-.9-19.5-.3-6.1-.8-16.4-1.2-23-.3-6.6-.7-15.4-.9-19.5-.3-4.1-.7-12.9-1-19.5-.3-6.6-.8-15.8-1-20.5-.3-4.7-.7-13.2-1-19-.2-5.8-.8-16.1-1.1-23-1.6-29.5-1.1-34.1 4.9-45.5 7.9-15 27.6-28 45.7-30.2 2.5-.3 4.6-.6 4.8-.8.9-.8 17.1.6 22.8 2z"/><path d="M566.1 175c-.9.5-1.1 2.5-.7 6.6.6 5.5 1.3 14.9 2.1 26.9.3 4.5.9 12.1 2 27 .2 2.7.7 9.5 1 15 .3 5.5.8 11.3 1 13 .4 3.3 1.8 22.6 1.9 26.2 0 2.6 1.5 2.8 8.6 1.2 16.6-3.8 28-17.5 30.7-37.2.9-6.7 1-29.4.1-37.3-3.1-27.5-15-40.1-39.4-41.8-3.4-.2-6.7-.1-7.3.4z"/></svg>