<?xml version="1.0" encoding="utf-8"?>
<!-- Generator: Adobe Illustrator 24.1.3, SVG Export Plug-In . SVG Version: 6.00 Build 0)  -->
<svg version="1.1" id="Layer_1" xmlns="http://www.w3.org/2000/svg" xmlns:xlink="http://www.w3.org/1999/xlink" x="0px" y="0px"
	 viewBox="0 0 575 192.98" style="enable-background:new 0 0 575 192.98;" xml:space="preserve">
<style type="text/css">
	.st0{fill:#B884C1;}
	.st1{fill:#FA9A86;}
	.st2{fill:#863399;}
	.st3{fill:#E64783;}
	.st4{fill:none;stroke:#000000;stroke-width:6;stroke-miterlimit:10;}
	.st5{fill:#FFDD92;}
	.st6{fill:#FFC844;}
	.st7{fill:#6CCA98;}
	.st8{fill:#1C355E;}
	.st9{fill:#757F9B;}
	.st10{fill:#E74F3D;}
	.st11{fill:#FFFFFF;}
	.st12{fill:#F697B2;}
	.st13{fill:#A9E0C0;}
	.st14{fill:none;stroke:#000000;stroke-width:2;stroke-miterlimit:10;}
	.st15{opacity:0.41;}
	.st16{stroke:#000000;stroke-width:4;stroke-miterlimit:10;}
	.st17{fill:none;stroke:#414042;stroke-width:2;stroke-miterlimit:10;}
	.st18{fill:#6FBB8F;}
	.st19{fill:#DB6041;}
	.st20{fill:#EC9E8B;}
	.st21{fill:#B5DEC2;}
	.st22{fill:#B086BE;}
	.st23{fill:#E99BB2;}
	.st24{fill:#FEDE9C;}
	.st25{fill:#767E99;}
	.st26{stroke:#000000;stroke-miterlimit:10;}
	.st27{fill:none;stroke:#000000;stroke-miterlimit:10;}
	.st28{fill:none;stroke:#000000;stroke-width:3;stroke-miterlimit:10;}
	.st29{fill:#7C3894;}
	.st30{fill:#83C89C;}
	.st31{fill:#FFFFFF;stroke:#000000;stroke-width:6;stroke-miterlimit:10;}
	.st32{fill:#F7CA5E;}
	.st33{fill:none;}
	.st34{fill:none;stroke:#000000;stroke-width:8;stroke-linecap:round;stroke-linejoin:round;stroke-miterlimit:10;}
	.st35{fill:#D45382;}
	.st36{fill-rule:evenodd;clip-rule:evenodd;fill:#D65A47;}
	.st37{fill-rule:evenodd;clip-rule:evenodd;fill:#83C89C;}
	.st38{fill-rule:evenodd;clip-rule:evenodd;fill:#D45382;}
	.st39{fill:#D65A47;}
	.st40{fill:#22345B;}
	.st41{fill:none;stroke:#000000;stroke-width:12;stroke-miterlimit:10;}
	.st42{fill:none;stroke:#000000;stroke-width:10;stroke-miterlimit:10;}
	.st43{opacity:0.26;}
	.st44{clip-path:url(#SVGID_8_);}
	.st45{clip-path:url(#SVGID_10_);fill:none;stroke:#B086BE;stroke-width:3.5;stroke-linecap:round;stroke-dasharray:0,6.5;}
	.st46{clip-path:url(#SVGID_10_);fill:none;stroke:#B086BE;stroke-width:3.25;stroke-linecap:round;stroke-dasharray:0,6.5;}
	.st47{clip-path:url(#SVGID_10_);fill:none;stroke:#B086BE;stroke-width:3;stroke-linecap:round;stroke-dasharray:0,6.5;}
	.st48{clip-path:url(#SVGID_10_);fill:none;stroke:#B086BE;stroke-width:2.75;stroke-linecap:round;stroke-dasharray:0,6.5;}
	.st49{clip-path:url(#SVGID_10_);fill:none;stroke:#B086BE;stroke-width:2.5;stroke-linecap:round;stroke-dasharray:0,6.5;}
	.st50{clip-path:url(#SVGID_10_);fill:none;stroke:#B086BE;stroke-width:2.25;stroke-linecap:round;stroke-dasharray:0,6.5;}
	.st51{clip-path:url(#SVGID_10_);fill:none;stroke:#B086BE;stroke-width:2;stroke-linecap:round;stroke-dasharray:0,6.5;}
	.st52{clip-path:url(#SVGID_10_);fill:none;stroke:#B086BE;stroke-width:1.75;stroke-linecap:round;stroke-dasharray:0,6.5;}
	.st53{clip-path:url(#SVGID_10_);fill:none;stroke:#B086BE;stroke-width:1.499;stroke-linecap:round;stroke-dasharray:0,6.5;}
	.st54{clip-path:url(#SVGID_10_);fill:none;stroke:#B086BE;stroke-width:1.25;stroke-linecap:round;stroke-dasharray:0,6.5;}
	.st55{clip-path:url(#SVGID_12_);fill:none;stroke:#B086BE;stroke-width:3.5;stroke-linecap:round;stroke-dasharray:0,6.5;}
	.st56{clip-path:url(#SVGID_12_);fill:none;stroke:#B086BE;stroke-width:3.25;stroke-linecap:round;stroke-dasharray:0,6.5;}
	.st57{clip-path:url(#SVGID_12_);fill:none;stroke:#B086BE;stroke-width:3;stroke-linecap:round;stroke-dasharray:0,6.5;}
	.st58{clip-path:url(#SVGID_12_);fill:none;stroke:#B086BE;stroke-width:2.75;stroke-linecap:round;stroke-dasharray:0,6.5;}
	.st59{clip-path:url(#SVGID_12_);fill:none;stroke:#B086BE;stroke-width:2.5;stroke-linecap:round;stroke-dasharray:0,6.5;}
	.st60{clip-path:url(#SVGID_12_);fill:none;stroke:#B086BE;stroke-width:2.25;stroke-linecap:round;stroke-dasharray:0,6.5;}
	.st61{clip-path:url(#SVGID_12_);fill:none;stroke:#B086BE;stroke-width:2;stroke-linecap:round;stroke-dasharray:0,6.5;}
	.st62{clip-path:url(#SVGID_12_);fill:none;stroke:#B086BE;stroke-width:1.75;stroke-linecap:round;stroke-dasharray:0,6.5;}
	.st63{clip-path:url(#SVGID_12_);fill:none;stroke:#B086BE;stroke-width:1.499;stroke-linecap:round;stroke-dasharray:0,6.5;}
	.st64{clip-path:url(#SVGID_12_);fill:none;stroke:#B086BE;stroke-width:1.25;stroke-linecap:round;stroke-dasharray:0,6.5;}
	.st65{clip-path:url(#SVGID_14_);fill:none;stroke:#B086BE;stroke-width:3.5;stroke-linecap:round;stroke-dasharray:0,6.5;}
	.st66{clip-path:url(#SVGID_14_);fill:none;stroke:#B086BE;stroke-width:3.25;stroke-linecap:round;stroke-dasharray:0,6.5;}
	.st67{clip-path:url(#SVGID_14_);fill:none;stroke:#B086BE;stroke-width:3;stroke-linecap:round;stroke-dasharray:0,6.5;}
	.st68{clip-path:url(#SVGID_14_);fill:none;stroke:#B086BE;stroke-width:2.75;stroke-linecap:round;stroke-dasharray:0,6.5;}
	.st69{clip-path:url(#SVGID_14_);fill:none;stroke:#B086BE;stroke-width:2.5;stroke-linecap:round;stroke-dasharray:0,6.5;}
	.st70{clip-path:url(#SVGID_14_);fill:none;stroke:#B086BE;stroke-width:2.25;stroke-linecap:round;stroke-dasharray:0,6.5;}
	.st71{clip-path:url(#SVGID_14_);fill:none;stroke:#B086BE;stroke-width:2;stroke-linecap:round;stroke-dasharray:0,6.5;}
	.st72{clip-path:url(#SVGID_14_);fill:none;stroke:#B086BE;stroke-width:1.75;stroke-linecap:round;stroke-dasharray:0,6.5;}
	.st73{clip-path:url(#SVGID_14_);fill:none;stroke:#B086BE;stroke-width:1.499;stroke-linecap:round;stroke-dasharray:0,6.5;}
	.st74{clip-path:url(#SVGID_14_);fill:none;stroke:#B086BE;stroke-width:1.25;stroke-linecap:round;stroke-dasharray:0,6.5;}
	.st75{clip-path:url(#SVGID_16_);fill:none;stroke:#B086BE;stroke-width:3.5;stroke-linecap:round;stroke-dasharray:0,6.5;}
	.st76{clip-path:url(#SVGID_16_);fill:none;stroke:#B086BE;stroke-width:3.25;stroke-linecap:round;stroke-dasharray:0,6.5;}
	.st77{clip-path:url(#SVGID_16_);fill:none;stroke:#B086BE;stroke-width:3;stroke-linecap:round;stroke-dasharray:0,6.5;}
	.st78{clip-path:url(#SVGID_16_);fill:none;stroke:#B086BE;stroke-width:2.75;stroke-linecap:round;stroke-dasharray:0,6.5;}
	.st79{clip-path:url(#SVGID_16_);fill:none;stroke:#B086BE;stroke-width:2.5;stroke-linecap:round;stroke-dasharray:0,6.5;}
	.st80{clip-path:url(#SVGID_16_);fill:none;stroke:#B086BE;stroke-width:2.25;stroke-linecap:round;stroke-dasharray:0,6.5;}
	.st81{clip-path:url(#SVGID_16_);fill:none;stroke:#B086BE;stroke-width:2;stroke-linecap:round;stroke-dasharray:0,6.5;}
	.st82{clip-path:url(#SVGID_16_);fill:none;stroke:#B086BE;stroke-width:1.75;stroke-linecap:round;stroke-dasharray:0,6.5;}
	.st83{clip-path:url(#SVGID_16_);fill:none;stroke:#B086BE;stroke-width:1.499;stroke-linecap:round;stroke-dasharray:0,6.5;}
	.st84{clip-path:url(#SVGID_16_);fill:none;stroke:#B086BE;stroke-width:1.25;stroke-linecap:round;stroke-dasharray:0,6.5;}
	.st85{clip-path:url(#SVGID_18_);fill:none;stroke:#B086BE;stroke-width:3.5;stroke-linecap:round;stroke-dasharray:0,6.5;}
	.st86{clip-path:url(#SVGID_18_);fill:none;stroke:#B086BE;stroke-width:3.25;stroke-linecap:round;stroke-dasharray:0,6.5;}
	.st87{clip-path:url(#SVGID_18_);fill:none;stroke:#B086BE;stroke-width:3;stroke-linecap:round;stroke-dasharray:0,6.5;}
	.st88{clip-path:url(#SVGID_18_);fill:none;stroke:#B086BE;stroke-width:2.75;stroke-linecap:round;stroke-dasharray:0,6.5;}
	.st89{clip-path:url(#SVGID_18_);fill:none;stroke:#B086BE;stroke-width:2.5;stroke-linecap:round;stroke-dasharray:0,6.5;}
	.st90{clip-path:url(#SVGID_18_);fill:none;stroke:#B086BE;stroke-width:2.25;stroke-linecap:round;stroke-dasharray:0,6.5;}
	.st91{clip-path:url(#SVGID_18_);fill:none;stroke:#B086BE;stroke-width:2;stroke-linecap:round;stroke-dasharray:0,6.5;}
	.st92{clip-path:url(#SVGID_18_);fill:none;stroke:#B086BE;stroke-width:1.75;stroke-linecap:round;stroke-dasharray:0,6.5;}
	.st93{clip-path:url(#SVGID_18_);fill:none;stroke:#B086BE;stroke-width:1.499;stroke-linecap:round;stroke-dasharray:0,6.5;}
	.st94{clip-path:url(#SVGID_18_);fill:none;stroke:#B086BE;stroke-width:1.25;stroke-linecap:round;stroke-dasharray:0,6.5;}
	.st95{clip-path:url(#SVGID_20_);fill:none;stroke:#B086BE;stroke-width:3.5;stroke-linecap:round;stroke-dasharray:0,6.5;}
	.st96{clip-path:url(#SVGID_20_);fill:none;stroke:#B086BE;stroke-width:3.25;stroke-linecap:round;stroke-dasharray:0,6.5;}
	.st97{clip-path:url(#SVGID_20_);fill:none;stroke:#B086BE;stroke-width:3;stroke-linecap:round;stroke-dasharray:0,6.5;}
	.st98{clip-path:url(#SVGID_20_);fill:none;stroke:#B086BE;stroke-width:2.75;stroke-linecap:round;stroke-dasharray:0,6.5;}
	.st99{clip-path:url(#SVGID_20_);fill:none;stroke:#B086BE;stroke-width:2.5;stroke-linecap:round;stroke-dasharray:0,6.5;}
	.st100{clip-path:url(#SVGID_20_);fill:none;stroke:#B086BE;stroke-width:2.25;stroke-linecap:round;stroke-dasharray:0,6.5;}
	.st101{clip-path:url(#SVGID_20_);fill:none;stroke:#B086BE;stroke-width:2;stroke-linecap:round;stroke-dasharray:0,6.5;}
	.st102{clip-path:url(#SVGID_20_);fill:none;stroke:#B086BE;stroke-width:1.75;stroke-linecap:round;stroke-dasharray:0,6.5;}
	.st103{clip-path:url(#SVGID_20_);fill:none;stroke:#B086BE;stroke-width:1.499;stroke-linecap:round;stroke-dasharray:0,6.5;}
	.st104{clip-path:url(#SVGID_20_);fill:none;stroke:#B086BE;stroke-width:1.25;stroke-linecap:round;stroke-dasharray:0,6.5;}
	.st105{clip-path:url(#SVGID_22_);fill:none;stroke:#B086BE;stroke-width:3.5;stroke-linecap:round;stroke-dasharray:0,6.5;}
	.st106{clip-path:url(#SVGID_22_);fill:none;stroke:#B086BE;stroke-width:3.25;stroke-linecap:round;stroke-dasharray:0,6.5;}
	.st107{clip-path:url(#SVGID_22_);fill:none;stroke:#B086BE;stroke-width:3;stroke-linecap:round;stroke-dasharray:0,6.5;}
	.st108{clip-path:url(#SVGID_22_);fill:none;stroke:#B086BE;stroke-width:2.75;stroke-linecap:round;stroke-dasharray:0,6.5;}
	.st109{clip-path:url(#SVGID_22_);fill:none;stroke:#B086BE;stroke-width:2.5;stroke-linecap:round;stroke-dasharray:0,6.5;}
	.st110{clip-path:url(#SVGID_22_);fill:none;stroke:#B086BE;stroke-width:2.25;stroke-linecap:round;stroke-dasharray:0,6.5;}
	.st111{clip-path:url(#SVGID_22_);fill:none;stroke:#B086BE;stroke-width:2;stroke-linecap:round;stroke-dasharray:0,6.5;}
	.st112{clip-path:url(#SVGID_22_);fill:none;stroke:#B086BE;stroke-width:1.75;stroke-linecap:round;stroke-dasharray:0,6.5;}
	.st113{clip-path:url(#SVGID_22_);fill:none;stroke:#B086BE;stroke-width:1.499;stroke-linecap:round;stroke-dasharray:0,6.5;}
	.st114{clip-path:url(#SVGID_22_);fill:none;stroke:#B086BE;stroke-width:1.25;stroke-linecap:round;stroke-dasharray:0,6.5;}
	.st115{clip-path:url(#SVGID_24_);fill:none;stroke:#B086BE;stroke-width:3.5;stroke-linecap:round;stroke-dasharray:0,6.5;}
	.st116{clip-path:url(#SVGID_24_);fill:none;stroke:#B086BE;stroke-width:3.25;stroke-linecap:round;stroke-dasharray:0,6.5;}
	.st117{clip-path:url(#SVGID_24_);fill:none;stroke:#B086BE;stroke-width:3;stroke-linecap:round;stroke-dasharray:0,6.5;}
	.st118{clip-path:url(#SVGID_24_);fill:none;stroke:#B086BE;stroke-width:2.75;stroke-linecap:round;stroke-dasharray:0,6.5;}
	.st119{clip-path:url(#SVGID_24_);fill:none;stroke:#B086BE;stroke-width:2.5;stroke-linecap:round;stroke-dasharray:0,6.5;}
	.st120{clip-path:url(#SVGID_24_);fill:none;stroke:#B086BE;stroke-width:2.25;stroke-linecap:round;stroke-dasharray:0,6.5;}
	.st121{clip-path:url(#SVGID_24_);fill:none;stroke:#B086BE;stroke-width:2;stroke-linecap:round;stroke-dasharray:0,6.5;}
	.st122{clip-path:url(#SVGID_24_);fill:none;stroke:#B086BE;stroke-width:1.75;stroke-linecap:round;stroke-dasharray:0,6.5;}
	.st123{clip-path:url(#SVGID_24_);fill:none;stroke:#B086BE;stroke-width:1.499;stroke-linecap:round;stroke-dasharray:0,6.5;}
	.st124{clip-path:url(#SVGID_24_);fill:none;stroke:#B086BE;stroke-width:1.25;stroke-linecap:round;stroke-dasharray:0,6.5;}
	.st125{clip-path:url(#SVGID_26_);fill:none;stroke:#B086BE;stroke-width:3.5;stroke-linecap:round;stroke-dasharray:0,6.5;}
	.st126{clip-path:url(#SVGID_26_);fill:none;stroke:#B086BE;stroke-width:3.25;stroke-linecap:round;stroke-dasharray:0,6.5;}
	.st127{clip-path:url(#SVGID_26_);fill:none;stroke:#B086BE;stroke-width:3;stroke-linecap:round;stroke-dasharray:0,6.5;}
	.st128{clip-path:url(#SVGID_26_);fill:none;stroke:#B086BE;stroke-width:2.75;stroke-linecap:round;stroke-dasharray:0,6.5;}
	.st129{clip-path:url(#SVGID_26_);fill:none;stroke:#B086BE;stroke-width:2.5;stroke-linecap:round;stroke-dasharray:0,6.5;}
	.st130{clip-path:url(#SVGID_26_);fill:none;stroke:#B086BE;stroke-width:2.25;stroke-linecap:round;stroke-dasharray:0,6.5;}
	.st131{clip-path:url(#SVGID_26_);fill:none;stroke:#B086BE;stroke-width:2;stroke-linecap:round;stroke-dasharray:0,6.5;}
	.st132{clip-path:url(#SVGID_26_);fill:none;stroke:#B086BE;stroke-width:1.75;stroke-linecap:round;stroke-dasharray:0,6.5;}
	.st133{clip-path:url(#SVGID_26_);fill:none;stroke:#B086BE;stroke-width:1.499;stroke-linecap:round;stroke-dasharray:0,6.5;}
	.st134{clip-path:url(#SVGID_26_);fill:none;stroke:#B086BE;stroke-width:1.25;stroke-linecap:round;stroke-dasharray:0,6.5;}
	.st135{clip-path:url(#SVGID_28_);fill:none;stroke:#B086BE;stroke-width:3.5;stroke-linecap:round;stroke-dasharray:0,6.5;}
	.st136{clip-path:url(#SVGID_28_);fill:none;stroke:#B086BE;stroke-width:3.25;stroke-linecap:round;stroke-dasharray:0,6.5;}
	.st137{clip-path:url(#SVGID_28_);fill:none;stroke:#B086BE;stroke-width:3;stroke-linecap:round;stroke-dasharray:0,6.5;}
	.st138{clip-path:url(#SVGID_28_);fill:none;stroke:#B086BE;stroke-width:2.75;stroke-linecap:round;stroke-dasharray:0,6.5;}
	.st139{clip-path:url(#SVGID_28_);fill:none;stroke:#B086BE;stroke-width:2.5;stroke-linecap:round;stroke-dasharray:0,6.5;}
	.st140{clip-path:url(#SVGID_28_);fill:none;stroke:#B086BE;stroke-width:2.25;stroke-linecap:round;stroke-dasharray:0,6.5;}
	.st141{clip-path:url(#SVGID_28_);fill:none;stroke:#B086BE;stroke-width:2;stroke-linecap:round;stroke-dasharray:0,6.5;}
	.st142{clip-path:url(#SVGID_28_);fill:none;stroke:#B086BE;stroke-width:1.75;stroke-linecap:round;stroke-dasharray:0,6.5;}
	.st143{clip-path:url(#SVGID_28_);fill:none;stroke:#B086BE;stroke-width:1.499;stroke-linecap:round;stroke-dasharray:0,6.5;}
	.st144{clip-path:url(#SVGID_28_);fill:none;stroke:#B086BE;stroke-width:1.25;stroke-linecap:round;stroke-dasharray:0,6.5;}
	.st145{clip-path:url(#SVGID_30_);fill:none;stroke:#B086BE;stroke-width:3.5;stroke-linecap:round;stroke-dasharray:0,6.5;}
	.st146{clip-path:url(#SVGID_30_);fill:none;stroke:#B086BE;stroke-width:3.25;stroke-linecap:round;stroke-dasharray:0,6.5;}
	.st147{clip-path:url(#SVGID_30_);fill:none;stroke:#B086BE;stroke-width:3;stroke-linecap:round;stroke-dasharray:0,6.5;}
	.st148{clip-path:url(#SVGID_30_);fill:none;stroke:#B086BE;stroke-width:2.75;stroke-linecap:round;stroke-dasharray:0,6.5;}
	.st149{clip-path:url(#SVGID_30_);fill:none;stroke:#B086BE;stroke-width:2.5;stroke-linecap:round;stroke-dasharray:0,6.5;}
	.st150{clip-path:url(#SVGID_30_);fill:none;stroke:#B086BE;stroke-width:2.25;stroke-linecap:round;stroke-dasharray:0,6.5;}
	.st151{clip-path:url(#SVGID_30_);fill:none;stroke:#B086BE;stroke-width:2;stroke-linecap:round;stroke-dasharray:0,6.5;}
	.st152{clip-path:url(#SVGID_30_);fill:none;stroke:#B086BE;stroke-width:1.75;stroke-linecap:round;stroke-dasharray:0,6.5;}
	.st153{clip-path:url(#SVGID_30_);fill:none;stroke:#B086BE;stroke-width:1.499;stroke-linecap:round;stroke-dasharray:0,6.5;}
	.st154{clip-path:url(#SVGID_30_);fill:none;stroke:#B086BE;stroke-width:1.25;stroke-linecap:round;stroke-dasharray:0,6.5;}
	.st155{clip-path:url(#SVGID_32_);fill:none;stroke:#B086BE;stroke-width:3.5;stroke-linecap:round;stroke-dasharray:0,6.5;}
	.st156{clip-path:url(#SVGID_32_);fill:none;stroke:#B086BE;stroke-width:3.25;stroke-linecap:round;stroke-dasharray:0,6.5;}
	.st157{clip-path:url(#SVGID_32_);fill:none;stroke:#B086BE;stroke-width:3;stroke-linecap:round;stroke-dasharray:0,6.5;}
	.st158{clip-path:url(#SVGID_32_);fill:none;stroke:#B086BE;stroke-width:2.75;stroke-linecap:round;stroke-dasharray:0,6.5;}
	.st159{clip-path:url(#SVGID_32_);fill:none;stroke:#B086BE;stroke-width:2.5;stroke-linecap:round;stroke-dasharray:0,6.5;}
	.st160{clip-path:url(#SVGID_32_);fill:none;stroke:#B086BE;stroke-width:2.25;stroke-linecap:round;stroke-dasharray:0,6.5;}
	.st161{clip-path:url(#SVGID_32_);fill:none;stroke:#B086BE;stroke-width:2;stroke-linecap:round;stroke-dasharray:0,6.5;}
	.st162{clip-path:url(#SVGID_32_);fill:none;stroke:#B086BE;stroke-width:1.75;stroke-linecap:round;stroke-dasharray:0,6.5;}
	.st163{clip-path:url(#SVGID_32_);fill:none;stroke:#B086BE;stroke-width:1.499;stroke-linecap:round;stroke-dasharray:0,6.5;}
	.st164{clip-path:url(#SVGID_32_);fill:none;stroke:#B086BE;stroke-width:1.25;stroke-linecap:round;stroke-dasharray:0,6.5;}
	.st165{clip-path:url(#SVGID_34_);fill:none;stroke:#B086BE;stroke-width:3.5;stroke-linecap:round;stroke-dasharray:0,6.5;}
	.st166{clip-path:url(#SVGID_34_);fill:none;stroke:#B086BE;stroke-width:3.25;stroke-linecap:round;stroke-dasharray:0,6.5;}
	.st167{clip-path:url(#SVGID_34_);fill:none;stroke:#B086BE;stroke-width:3;stroke-linecap:round;stroke-dasharray:0,6.5;}
	.st168{clip-path:url(#SVGID_34_);fill:none;stroke:#B086BE;stroke-width:2.75;stroke-linecap:round;stroke-dasharray:0,6.5;}
	.st169{clip-path:url(#SVGID_34_);fill:none;stroke:#B086BE;stroke-width:2.5;stroke-linecap:round;stroke-dasharray:0,6.5;}
	.st170{clip-path:url(#SVGID_34_);fill:none;stroke:#B086BE;stroke-width:2.25;stroke-linecap:round;stroke-dasharray:0,6.5;}
	.st171{clip-path:url(#SVGID_34_);fill:none;stroke:#B086BE;stroke-width:2;stroke-linecap:round;stroke-dasharray:0,6.5;}
	.st172{clip-path:url(#SVGID_34_);fill:none;stroke:#B086BE;stroke-width:1.75;stroke-linecap:round;stroke-dasharray:0,6.5;}
	.st173{clip-path:url(#SVGID_34_);fill:none;stroke:#B086BE;stroke-width:1.499;stroke-linecap:round;stroke-dasharray:0,6.5;}
	.st174{clip-path:url(#SVGID_34_);fill:none;stroke:#B086BE;stroke-width:1.25;stroke-linecap:round;stroke-dasharray:0,6.5;}
	.st175{clip-path:url(#SVGID_36_);fill:none;stroke:#B086BE;stroke-width:3.5;stroke-linecap:round;stroke-dasharray:0,6.5;}
	.st176{clip-path:url(#SVGID_36_);fill:none;stroke:#B086BE;stroke-width:3.25;stroke-linecap:round;stroke-dasharray:0,6.5;}
	.st177{clip-path:url(#SVGID_36_);fill:none;stroke:#B086BE;stroke-width:3;stroke-linecap:round;stroke-dasharray:0,6.5;}
	.st178{clip-path:url(#SVGID_36_);fill:none;stroke:#B086BE;stroke-width:2.75;stroke-linecap:round;stroke-dasharray:0,6.5;}
	.st179{clip-path:url(#SVGID_36_);fill:none;stroke:#B086BE;stroke-width:2.5;stroke-linecap:round;stroke-dasharray:0,6.5;}
	.st180{clip-path:url(#SVGID_36_);fill:none;stroke:#B086BE;stroke-width:2.25;stroke-linecap:round;stroke-dasharray:0,6.5;}
	.st181{clip-path:url(#SVGID_36_);fill:none;stroke:#B086BE;stroke-width:2;stroke-linecap:round;stroke-dasharray:0,6.5;}
	.st182{clip-path:url(#SVGID_36_);fill:none;stroke:#B086BE;stroke-width:1.75;stroke-linecap:round;stroke-dasharray:0,6.5;}
	.st183{clip-path:url(#SVGID_36_);fill:none;stroke:#B086BE;stroke-width:1.499;stroke-linecap:round;stroke-dasharray:0,6.5;}
	.st184{clip-path:url(#SVGID_36_);fill:none;stroke:#B086BE;stroke-width:1.25;stroke-linecap:round;stroke-dasharray:0,6.5;}
	.st185{clip-path:url(#SVGID_38_);fill:none;stroke:#B086BE;stroke-width:3.5;stroke-linecap:round;stroke-dasharray:0,6.5;}
	.st186{clip-path:url(#SVGID_38_);fill:none;stroke:#B086BE;stroke-width:3.25;stroke-linecap:round;stroke-dasharray:0,6.5;}
	.st187{clip-path:url(#SVGID_38_);fill:none;stroke:#B086BE;stroke-width:3;stroke-linecap:round;stroke-dasharray:0,6.5;}
	.st188{clip-path:url(#SVGID_38_);fill:none;stroke:#B086BE;stroke-width:2.75;stroke-linecap:round;stroke-dasharray:0,6.5;}
	.st189{clip-path:url(#SVGID_38_);fill:none;stroke:#B086BE;stroke-width:2.5;stroke-linecap:round;stroke-dasharray:0,6.5;}
	.st190{clip-path:url(#SVGID_38_);fill:none;stroke:#B086BE;stroke-width:2.25;stroke-linecap:round;stroke-dasharray:0,6.5;}
	.st191{clip-path:url(#SVGID_38_);fill:none;stroke:#B086BE;stroke-width:2;stroke-linecap:round;stroke-dasharray:0,6.5;}
	.st192{clip-path:url(#SVGID_38_);fill:none;stroke:#B086BE;stroke-width:1.75;stroke-linecap:round;stroke-dasharray:0,6.5;}
	.st193{clip-path:url(#SVGID_38_);fill:none;stroke:#B086BE;stroke-width:1.499;stroke-linecap:round;stroke-dasharray:0,6.5;}
	.st194{clip-path:url(#SVGID_38_);fill:none;stroke:#B086BE;stroke-width:1.25;stroke-linecap:round;stroke-dasharray:0,6.5;}
	.st195{clip-path:url(#SVGID_40_);fill:none;stroke:#B086BE;stroke-width:3.5;stroke-linecap:round;stroke-dasharray:0,6.5;}
	.st196{clip-path:url(#SVGID_40_);fill:none;stroke:#B086BE;stroke-width:3.25;stroke-linecap:round;stroke-dasharray:0,6.5;}
	.st197{clip-path:url(#SVGID_40_);fill:none;stroke:#B086BE;stroke-width:3;stroke-linecap:round;stroke-dasharray:0,6.5;}
	.st198{clip-path:url(#SVGID_40_);fill:none;stroke:#B086BE;stroke-width:2.75;stroke-linecap:round;stroke-dasharray:0,6.5;}
	.st199{clip-path:url(#SVGID_40_);fill:none;stroke:#B086BE;stroke-width:2.5;stroke-linecap:round;stroke-dasharray:0,6.5;}
	.st200{clip-path:url(#SVGID_40_);fill:none;stroke:#B086BE;stroke-width:2.25;stroke-linecap:round;stroke-dasharray:0,6.5;}
	.st201{clip-path:url(#SVGID_40_);fill:none;stroke:#B086BE;stroke-width:2;stroke-linecap:round;stroke-dasharray:0,6.5;}
	.st202{clip-path:url(#SVGID_40_);fill:none;stroke:#B086BE;stroke-width:1.75;stroke-linecap:round;stroke-dasharray:0,6.5;}
	.st203{clip-path:url(#SVGID_40_);fill:none;stroke:#B086BE;stroke-width:1.499;stroke-linecap:round;stroke-dasharray:0,6.5;}
	.st204{clip-path:url(#SVGID_40_);fill:none;stroke:#B086BE;stroke-width:1.25;stroke-linecap:round;stroke-dasharray:0,6.5;}
	.st205{clip-path:url(#SVGID_42_);fill:none;stroke:#B086BE;stroke-width:3.5;stroke-linecap:round;stroke-dasharray:0,6.5;}
	.st206{clip-path:url(#SVGID_42_);fill:none;stroke:#B086BE;stroke-width:3.25;stroke-linecap:round;stroke-dasharray:0,6.5;}
	.st207{clip-path:url(#SVGID_42_);fill:none;stroke:#B086BE;stroke-width:3;stroke-linecap:round;stroke-dasharray:0,6.5;}
	.st208{clip-path:url(#SVGID_42_);fill:none;stroke:#B086BE;stroke-width:2.75;stroke-linecap:round;stroke-dasharray:0,6.5;}
	.st209{clip-path:url(#SVGID_42_);fill:none;stroke:#B086BE;stroke-width:2.5;stroke-linecap:round;stroke-dasharray:0,6.5;}
	.st210{clip-path:url(#SVGID_42_);fill:none;stroke:#B086BE;stroke-width:2.25;stroke-linecap:round;stroke-dasharray:0,6.5;}
	.st211{clip-path:url(#SVGID_42_);fill:none;stroke:#B086BE;stroke-width:2;stroke-linecap:round;stroke-dasharray:0,6.5;}
	.st212{clip-path:url(#SVGID_42_);fill:none;stroke:#B086BE;stroke-width:1.75;stroke-linecap:round;stroke-dasharray:0,6.5;}
	.st213{clip-path:url(#SVGID_42_);fill:none;stroke:#B086BE;stroke-width:1.499;stroke-linecap:round;stroke-dasharray:0,6.5;}
	.st214{clip-path:url(#SVGID_42_);fill:none;stroke:#B086BE;stroke-width:1.25;stroke-linecap:round;stroke-dasharray:0,6.5;}
	.st215{clip-path:url(#SVGID_44_);fill:none;stroke:#B086BE;stroke-width:3.5;stroke-linecap:round;stroke-dasharray:0,6.5;}
	.st216{clip-path:url(#SVGID_44_);fill:none;stroke:#B086BE;stroke-width:3.25;stroke-linecap:round;stroke-dasharray:0,6.5;}
	.st217{clip-path:url(#SVGID_44_);fill:none;stroke:#B086BE;stroke-width:3;stroke-linecap:round;stroke-dasharray:0,6.5;}
	.st218{clip-path:url(#SVGID_44_);fill:none;stroke:#B086BE;stroke-width:2.75;stroke-linecap:round;stroke-dasharray:0,6.5;}
	.st219{clip-path:url(#SVGID_44_);fill:none;stroke:#B086BE;stroke-width:2.5;stroke-linecap:round;stroke-dasharray:0,6.5;}
	.st220{clip-path:url(#SVGID_44_);fill:none;stroke:#B086BE;stroke-width:2.25;stroke-linecap:round;stroke-dasharray:0,6.5;}
	.st221{clip-path:url(#SVGID_44_);fill:none;stroke:#B086BE;stroke-width:2;stroke-linecap:round;stroke-dasharray:0,6.5;}
	.st222{clip-path:url(#SVGID_44_);fill:none;stroke:#B086BE;stroke-width:1.75;stroke-linecap:round;stroke-dasharray:0,6.5;}
	.st223{clip-path:url(#SVGID_44_);fill:none;stroke:#B086BE;stroke-width:1.499;stroke-linecap:round;stroke-dasharray:0,6.5;}
	.st224{clip-path:url(#SVGID_44_);fill:none;stroke:#B086BE;stroke-width:1.25;stroke-linecap:round;stroke-dasharray:0,6.5;}
	.st225{clip-path:url(#SVGID_46_);fill:none;stroke:#B086BE;stroke-width:3.5;stroke-linecap:round;stroke-dasharray:0,6.5;}
	.st226{clip-path:url(#SVGID_46_);fill:none;stroke:#B086BE;stroke-width:3.25;stroke-linecap:round;stroke-dasharray:0,6.5;}
	.st227{clip-path:url(#SVGID_46_);fill:none;stroke:#B086BE;stroke-width:3;stroke-linecap:round;stroke-dasharray:0,6.5;}
	.st228{clip-path:url(#SVGID_46_);fill:none;stroke:#B086BE;stroke-width:2.75;stroke-linecap:round;stroke-dasharray:0,6.5;}
	.st229{clip-path:url(#SVGID_46_);fill:none;stroke:#B086BE;stroke-width:2.5;stroke-linecap:round;stroke-dasharray:0,6.5;}
	.st230{clip-path:url(#SVGID_46_);fill:none;stroke:#B086BE;stroke-width:2.25;stroke-linecap:round;stroke-dasharray:0,6.5;}
	.st231{clip-path:url(#SVGID_46_);fill:none;stroke:#B086BE;stroke-width:2;stroke-linecap:round;stroke-dasharray:0,6.5;}
	.st232{clip-path:url(#SVGID_46_);fill:none;stroke:#B086BE;stroke-width:1.75;stroke-linecap:round;stroke-dasharray:0,6.5;}
	.st233{clip-path:url(#SVGID_46_);fill:none;stroke:#B086BE;stroke-width:1.499;stroke-linecap:round;stroke-dasharray:0,6.5;}
	.st234{clip-path:url(#SVGID_46_);fill:none;stroke:#B086BE;stroke-width:1.25;stroke-linecap:round;stroke-dasharray:0,6.5;}
	.st235{clip-path:url(#SVGID_48_);fill:none;stroke:#B086BE;stroke-width:3.5;stroke-linecap:round;stroke-dasharray:0,6.5;}
	.st236{clip-path:url(#SVGID_48_);fill:none;stroke:#B086BE;stroke-width:3.25;stroke-linecap:round;stroke-dasharray:0,6.5;}
	.st237{clip-path:url(#SVGID_48_);fill:none;stroke:#B086BE;stroke-width:3;stroke-linecap:round;stroke-dasharray:0,6.5;}
	.st238{clip-path:url(#SVGID_48_);fill:none;stroke:#B086BE;stroke-width:2.75;stroke-linecap:round;stroke-dasharray:0,6.5;}
	.st239{clip-path:url(#SVGID_48_);fill:none;stroke:#B086BE;stroke-width:2.5;stroke-linecap:round;stroke-dasharray:0,6.5;}
	.st240{clip-path:url(#SVGID_48_);fill:none;stroke:#B086BE;stroke-width:2.25;stroke-linecap:round;stroke-dasharray:0,6.5;}
	.st241{clip-path:url(#SVGID_48_);fill:none;stroke:#B086BE;stroke-width:2;stroke-linecap:round;stroke-dasharray:0,6.5;}
	.st242{clip-path:url(#SVGID_48_);fill:none;stroke:#B086BE;stroke-width:1.75;stroke-linecap:round;stroke-dasharray:0,6.5;}
	.st243{clip-path:url(#SVGID_48_);fill:none;stroke:#B086BE;stroke-width:1.499;stroke-linecap:round;stroke-dasharray:0,6.5;}
	.st244{clip-path:url(#SVGID_48_);fill:none;stroke:#B086BE;stroke-width:1.25;stroke-linecap:round;stroke-dasharray:0,6.5;}
	.st245{clip-path:url(#SVGID_50_);fill:none;stroke:#B086BE;stroke-width:3.5;stroke-linecap:round;stroke-dasharray:0,6.5;}
	.st246{clip-path:url(#SVGID_50_);fill:none;stroke:#B086BE;stroke-width:3.25;stroke-linecap:round;stroke-dasharray:0,6.5;}
	.st247{clip-path:url(#SVGID_50_);fill:none;stroke:#B086BE;stroke-width:3;stroke-linecap:round;stroke-dasharray:0,6.5;}
	.st248{clip-path:url(#SVGID_50_);fill:none;stroke:#B086BE;stroke-width:2.75;stroke-linecap:round;stroke-dasharray:0,6.5;}
	.st249{clip-path:url(#SVGID_50_);fill:none;stroke:#B086BE;stroke-width:2.5;stroke-linecap:round;stroke-dasharray:0,6.5;}
	.st250{clip-path:url(#SVGID_50_);fill:none;stroke:#B086BE;stroke-width:2.25;stroke-linecap:round;stroke-dasharray:0,6.5;}
	.st251{clip-path:url(#SVGID_50_);fill:none;stroke:#B086BE;stroke-width:2;stroke-linecap:round;stroke-dasharray:0,6.5;}
	.st252{clip-path:url(#SVGID_50_);fill:none;stroke:#B086BE;stroke-width:1.75;stroke-linecap:round;stroke-dasharray:0,6.5;}
	.st253{clip-path:url(#SVGID_50_);fill:none;stroke:#B086BE;stroke-width:1.499;stroke-linecap:round;stroke-dasharray:0,6.5;}
	.st254{clip-path:url(#SVGID_50_);fill:none;stroke:#B086BE;stroke-width:1.25;stroke-linecap:round;stroke-dasharray:0,6.5;}
	.st255{clip-path:url(#SVGID_52_);fill:none;stroke:#B086BE;stroke-width:3.5;stroke-linecap:round;stroke-dasharray:0,6.5;}
	.st256{clip-path:url(#SVGID_52_);fill:none;stroke:#B086BE;stroke-width:3.25;stroke-linecap:round;stroke-dasharray:0,6.5;}
	.st257{clip-path:url(#SVGID_52_);fill:none;stroke:#B086BE;stroke-width:3;stroke-linecap:round;stroke-dasharray:0,6.5;}
	.st258{clip-path:url(#SVGID_52_);fill:none;stroke:#B086BE;stroke-width:2.75;stroke-linecap:round;stroke-dasharray:0,6.5;}
	.st259{clip-path:url(#SVGID_52_);fill:none;stroke:#B086BE;stroke-width:2.5;stroke-linecap:round;stroke-dasharray:0,6.5;}
	.st260{clip-path:url(#SVGID_52_);fill:none;stroke:#B086BE;stroke-width:2.25;stroke-linecap:round;stroke-dasharray:0,6.5;}
	.st261{clip-path:url(#SVGID_52_);fill:none;stroke:#B086BE;stroke-width:2;stroke-linecap:round;stroke-dasharray:0,6.5;}
	.st262{clip-path:url(#SVGID_52_);fill:none;stroke:#B086BE;stroke-width:1.75;stroke-linecap:round;stroke-dasharray:0,6.5;}
	.st263{clip-path:url(#SVGID_52_);fill:none;stroke:#B086BE;stroke-width:1.499;stroke-linecap:round;stroke-dasharray:0,6.5;}
	.st264{clip-path:url(#SVGID_52_);fill:none;stroke:#B086BE;stroke-width:1.25;stroke-linecap:round;stroke-dasharray:0,6.5;}
	.st265{clip-path:url(#SVGID_54_);fill:none;stroke:#B086BE;stroke-width:3.5;stroke-linecap:round;stroke-dasharray:0,6.5;}
	.st266{clip-path:url(#SVGID_54_);fill:none;stroke:#B086BE;stroke-width:3.25;stroke-linecap:round;stroke-dasharray:0,6.5;}
	.st267{clip-path:url(#SVGID_54_);fill:none;stroke:#B086BE;stroke-width:3;stroke-linecap:round;stroke-dasharray:0,6.5;}
	.st268{clip-path:url(#SVGID_54_);fill:none;stroke:#B086BE;stroke-width:2.75;stroke-linecap:round;stroke-dasharray:0,6.5;}
	.st269{clip-path:url(#SVGID_54_);fill:none;stroke:#B086BE;stroke-width:2.5;stroke-linecap:round;stroke-dasharray:0,6.5;}
	.st270{clip-path:url(#SVGID_54_);fill:none;stroke:#B086BE;stroke-width:2.25;stroke-linecap:round;stroke-dasharray:0,6.5;}
	.st271{clip-path:url(#SVGID_54_);fill:none;stroke:#B086BE;stroke-width:2;stroke-linecap:round;stroke-dasharray:0,6.5;}
	.st272{clip-path:url(#SVGID_54_);fill:none;stroke:#B086BE;stroke-width:1.75;stroke-linecap:round;stroke-dasharray:0,6.5;}
	.st273{clip-path:url(#SVGID_54_);fill:none;stroke:#B086BE;stroke-width:1.499;stroke-linecap:round;stroke-dasharray:0,6.5;}
	.st274{clip-path:url(#SVGID_54_);fill:none;stroke:#B086BE;stroke-width:1.25;stroke-linecap:round;stroke-dasharray:0,6.5;}
	.st275{clip-path:url(#SVGID_56_);fill:none;stroke:#B086BE;stroke-width:3.5;stroke-linecap:round;stroke-dasharray:0,6.5;}
	.st276{clip-path:url(#SVGID_56_);fill:none;stroke:#B086BE;stroke-width:3.25;stroke-linecap:round;stroke-dasharray:0,6.5;}
	.st277{clip-path:url(#SVGID_56_);fill:none;stroke:#B086BE;stroke-width:3;stroke-linecap:round;stroke-dasharray:0,6.5;}
	.st278{clip-path:url(#SVGID_56_);fill:none;stroke:#B086BE;stroke-width:2.75;stroke-linecap:round;stroke-dasharray:0,6.5;}
	.st279{clip-path:url(#SVGID_56_);fill:none;stroke:#B086BE;stroke-width:2.5;stroke-linecap:round;stroke-dasharray:0,6.5;}
	.st280{clip-path:url(#SVGID_56_);fill:none;stroke:#B086BE;stroke-width:2.25;stroke-linecap:round;stroke-dasharray:0,6.5;}
	.st281{clip-path:url(#SVGID_56_);fill:none;stroke:#B086BE;stroke-width:2;stroke-linecap:round;stroke-dasharray:0,6.5;}
	.st282{clip-path:url(#SVGID_56_);fill:none;stroke:#B086BE;stroke-width:1.75;stroke-linecap:round;stroke-dasharray:0,6.5;}
	.st283{clip-path:url(#SVGID_56_);fill:none;stroke:#B086BE;stroke-width:1.499;stroke-linecap:round;stroke-dasharray:0,6.5;}
	.st284{clip-path:url(#SVGID_56_);fill:none;stroke:#B086BE;stroke-width:1.25;stroke-linecap:round;stroke-dasharray:0,6.5;}
	.st285{fill-rule:evenodd;clip-rule:evenodd;}
	.st286{fill-rule:evenodd;clip-rule:evenodd;fill:#E99BB2;}
</style>
<g>
	<g>
		<path class="st285" d="M275.87,163.24c0.74-0.04,2.02-0.05,3.52-0.05C279.03,163.26,277.07,163.3,275.87,163.24z"/>
		<path class="st285" d="M329.11,170.62c1.07-0.04,4.42-0.11,4.06,0.01C331.26,170.65,330.47,170.62,329.11,170.62z"/>
		<path class="st285" d="M334.83,170.75c0.28-0.06,2.87-0.02,4.08-0.04C338.85,170.79,335.59,170.79,334.83,170.75z"/>
		<path class="st285" d="M351.18,169.62c0.84-0.04,3.06-0.08,4.09-0.03C354.99,169.64,352.4,169.6,351.18,169.62z"/>
		<path class="st285" d="M358.64,170.69c1.4-0.07,3.78-0.11,7.02-0.11C364.52,170.66,361.15,170.66,358.64,170.69z"/>
		<path class="st285" d="M378.9,165.43c3.56,0.01,10.83-0.02,13.37,0.1C387.94,165.43,382.95,165.51,378.9,165.43z"/>
		<path class="st285" d="M388.46,167.68c4.45-0.13,12.4,0.02,18.08-0.06c0.8,0.11-8.33,0.01-9.96,0.09
			c-1.35-0.02-2.37-0.03-3.45-0.05C391.55,167.67,390.09,167.74,388.46,167.68z"/>
		<path class="st285" d="M442.9,167.97c-0.12-0.05,0.28-0.08,1.81-0.07c0.44,0.02,0.59,0.04,0.51,0.07
			C444.45,167.97,443.68,167.97,442.9,167.97z"/>
		<path class="st285" d="M465.53,167.41c3.59-0.06,11.79-0.03,16.3,0.03c0.61-0.01,0.64-0.03,1.78-0.02c2.71,0,8.75,0.05,2.89,0.03
			C479.23,167.43,473.51,167.42,465.53,167.41z"/>
		<path class="st285" d="M468.24,168.2c0.86-0.03,2.3-0.04,4.1-0.04C471.9,168.2,468.91,168.21,468.24,168.2z"/>
		<path class="st285" d="M473.77,166.23c0.65-0.02,3.65,0.05,5.24,0.06C477.85,166.29,475.06,166.28,473.77,166.23z"/>
		<path class="st285" d="M472.57,167.93c1.46-0.01,4.66-0.04,6.45-0.06C480.62,167.93,474.79,167.92,472.57,167.93z"/>
		<path class="st285" d="M475.25,168.14c1.14-0.05,4.51-0.04,7.03-0.06C480.76,168.09,477.53,168.12,475.25,168.14z"/>
		<path class="st285" d="M479.37,165.96c0.21-0.04,2.5,0,4.13,0.02C483.15,166.02,480.81,165.97,479.37,165.96z"/>
		<path class="st285" d="M481.9,166.34c1.9-0.01,8.42,0.09,11.65,0.15C489.46,166.44,486.36,166.4,481.9,166.34z"/>
		<path class="st285" d="M483.44,168.08c3-0.07,7.37-0.03,9.9-0.03C490.56,168.06,486.59,168.07,483.44,168.08z"/>
		<path class="st285" d="M491.15,167.47c1.15,0,3.07-0.01,4.69-0.02C496.16,167.51,493.11,167.47,491.15,167.47z"/>
		<path class="st285" d="M496.22,167.61c1.38-0.03,2.61-0.01,4.66,0C500.41,167.64,497.62,167.61,496.22,167.61z"/>
		<path class="st285" d="M501.26,167.76c0.64-0.03,5.01-0.03,4.04,0.03c-1.25,0-1.09-0.02-1.12-0.03
			C502.79,167.76,502.89,167.76,501.26,167.76z"/>
		<path class="st285" d="M513.51,167.05C510.63,167.06,505.7,166.93,513.51,167.05L513.51,167.05z"/>
		<path class="st285" d="M519.9,166.83c2.41,0.05,4.76,0.1,7.57,0.15C525.69,166.95,521.08,166.86,519.9,166.83z"/>
		<path class="st285" d="M521.73,166.82c-0.84-0.04,3.84,0.06,2.9,0.06C523.67,166.87,522.71,166.85,521.73,166.82z"/>
		<path class="st285" d="M527.21,166.57c0.86,0.02,2.66,0.08,4.1,0.12C530.79,166.67,527.88,166.59,527.21,166.57z"/>
		<path class="st285" d="M543.42,167.14C548.26,167.3,549.96,167.38,543.42,167.14L543.42,167.14z"/>
		<path class="st285" d="M412.6,164.14c0.97-0.01,2.32-0.01,2.97-0.04c1.8,0.11,5.09,0.08,7.52,0.16
			C420.12,164.3,416.92,164.14,412.6,164.14z"/>
		<path class="st285" d="M477.55,166.54c1.41,0.02,1.24,0.02,2.89,0.05c0.14,0.02-0.57,0.02-0.62,0.04
			c2.91,0.03,4.51,0.04,6.99,0.07c-0.32,0.01-0.63,0.01-0.63,0.03c3.28-0.03,7.11,0.12,13.95,0.17c-6.58-0.06-21.06-0.2-26.79-0.25
			c0.85-0.05,5.87,0.05,6.46,0C479.94,166.59,476.57,166.6,477.55,166.54z"/>
		<path class="st285" d="M483.65,167.9c0.66,0,0.34-0.01,0.01-0.01c0.19-0.03,2.56-0.01,2.91,0
			C485.86,167.93,478.18,167.91,483.65,167.9z"/>
		<path class="st285" d="M526.85,167.78l-0.06,0.03c3.71,0,9.63,0.01,12.17,0.01c-4.4,0.02-13.75-0.02-16.9,0.02
			c-0.76,0-2.12-0.01-2.88-0.02c-10.28,0.02-21.38,0.04-32.04,0.06c4.78-0.13,15.61,0.03,21.04-0.09c0.89,0.01,0.02,0.01-0.6,0.01
			C512.3,167.8,520.73,167.79,526.85,167.78z"/>
		<path class="st285" d="M523.02,166.79c0.93,0.01,2.54,0.04,3.55,0.06C527.1,166.86,524.2,166.84,523.02,166.79z"/>
		<path class="st285" d="M547.81,32.11c0.65-0.02,1.32-0.04,1.99-0.07l0.46-0.02l0-0.02l0-0.04c0-0.04,0.09-0.11,0.1-0.09
			c0.03,0,0.01,0.02-0.03,0.04l-0.02,0.02l-0.01,0.01l-0.01,0l-0.01,0.12l-0.04,1.16c-0.06,1.54-0.11,3.06-0.16,4.57
			c-0.09,3.04-0.19,6.08-0.28,9.31c-0.11,5.69-0.22,11.07-0.34,17c-0.09,4.4-0.12,5.84-0.19,8.78c-0.19,8.61-0.4,15.66-0.36,19.38
			c-0.1,6.05-0.22,13.58-0.3,18.88c-0.02,0.84-0.07,2.6-0.07,2.92c-0.18,13.44-0.2,21.67-0.65,37.48c-0.01,1.38,0.01,2.3-0.05,5
			c-0.03,1.23-0.1,3.86-0.13,4.79c-0.07,3.22,0.11,0.4-0.11,6.4c0,0.33,0.04-0.77,0.06-1.06c0.07,0.18,0.26-2.2,0.25-0.72
			c0.27-4.12,0.28-3.22,0.52-6.41c0.16-2.06,0.44-5.85,0.64-8.4c0.24-2.91,0.49-5.91,0.69-8.39c0.01,0.01,0.04-0.22,0.07-0.57
			c0.03-0.37,0.07-0.85,0.12-1.34c0.08-1.01,0.18-2.12,0.23-2.48c0.36-4.49,0.64-7.95,1.01-12.52c0.06-0.44,0.15-1.53,0.19-1.63
			c0.81-9.63,1.72-19.34,2.75-32.53c0.09-1.19,0.28-3.72,0.39-5.2c0.7-9.78,1.8-24.86,2.34-29.97c0.12-1.77,0.11-1.74,0.23-3.49
			c0.17-1.11,0.71-6.29,1.02-10.81c0.11-1.55,0.17-4.27,0.38-7.67c0.12-1.78,0.23-3.53,0.34-5.27c0.09-1.23,0.14-2.43,0.19-3.63
			c0.03-0.6,0.05-1.2,0.08-1.8l0.02-0.45c0-0.07,0.02-0.16-0.01-0.21l-0.22,0l-0.88-0.01c-3.74-0.03-7.38-0.06-10.92-0.09
			c-2.1-0.01-4.32,0.1-6.51,0.12c-5.71,0.03-17.29-0.1-22.09-0.18c-3.78-0.06-5.2-0.19-8.06-0.18c-2.59,0.01-4.54,0.13-4.29,0.32
			c-7.43,0.4-26.55-0.01-37.98,0.18c-8.4-0.19-16.43,0.1-24.47,0.06c-1.61-0.02-3.54-0.04-5.2-0.06c-2.75,0-6.42,0.1-9.96,0.14
			c-6.06,0.06-11.36,0.11-16.34,0.16c-7.7-0.29-13.34,0.09-19.79,0.09c-2.42,0-4.8-0.09-7.51-0.07c-2.29,0.01-4.5,0.11-7.01,0.12
			c-2.5,0.01-5.1-0.09-7.51-0.07c-1.8,0.03-3.22,0.06-4.68,0.08c-1.93,0-3.15-0.07-5.2-0.04c-2.14,0.06-4.31,0.13-6.47,0.19
			c-7.92,0.11-16.46,0.04-23.92,0.35c-13.5-0.08-25.26,0.37-41.24,0.35c-3.98,0.12-6.91,0.2-11.07,0.19
			c-0.93,0.04-0.92,0.11-2.37,0.12c-8.31,0.02-17.05,0.4-25.61,0.42c-0.3,0.04-0.65,0.08-1.21,0.11
			c-11.82,0.02-26.77,0.23-36.05,0.54c-7.2-0.04-15.57,0.25-24.44,0.39c-4.17,0.06-8.28,0.05-12.19,0.14
			c-7.65,0.12-17.66,0.28-25.02,0.4c-2.19,0.07-4.32,0.14-6.46,0.2c-3.89,0.06-8.05,0.13-12.19,0.19
			c-15.97,0.42-34.31,0.7-48.29,1.01c-4.32,0.13-8.01,0.24-12.86,0.38c-8.02,0.17-16.34,0.35-24.39,0.52
			c-2.02,0.06-3.99,0.13-5.86,0.19c-4.83,0.11-9.42,0.21-14.52,0.33l-4.67,0.11l-3.64,0.07l-1.97,0.04l-0.25,0l-0.12,0
			c-0.04,0-0.09-0.01-0.07,0.05l0.02,0.49l0.05,0.99l0.23,3.95l0.16,2.38c0.1,1.54,0.21,3.08,0.31,4.61
			c0.39,6.13,0.77,12.17,1.14,18.02c1.04,14.93,2.33,36.71,3.32,54.07c0.28,3.9,0.44,7.61,0.67,11.63
			c0.35,6.2,0.75,13.28,1.15,20.42c0.39,7.45,0.78,14.97,1.13,21.75l0.03,0.52c-0.03,0.12,0.1,0.08,0.18,0.09l0.26,0l1.04,0.02
			l1.85,0l2.57,0c1.72,0,3.43,0,5.15,0.01c3.44,0.01,6.89,0.02,10.34,0.03c6.91,0.04,13.84,0.07,20.79,0.11
			c13.9,0.14,27.86,0.27,41.8,0.41c27.88,0.33,55.69,0.76,82.78,0.93c4.24,0.14,10.82,0.15,14.55,0.11c0.8,0.07,3.29,0.09,5.19,0.13
			c6.79-0.11,15.33,0.09,23.89,0.09c2.18-0.16,7.33-0.01,10.57-0.13c1.38,0.1-1.86,0.08,0.5,0.14c5.54-0.29,24.31-0.11,32.72-0.21
			c-0.59,0-0.71-0.05,0.03-0.05c2.03,0.08,3-0.08,5.28-0.08c15.28-0.06,26.19-0.39,39.23-0.53c1.63,0.04,6.01,0.16,7.52,0.04
			c-2.36-0.01-5.35,0.01-5.15-0.12c3.92,0.03,9.07-0.04,11.69-0.15c4.84-0.02,7.32,0.03,11.66-0.07c1.06,0-1.03-0.12,1.24-0.13
			c6.79-0.02,10.19-0.02,16.26-0.04c1.77-0.12,8.91-0.18,11.11-0.13c1.98-0.05-2.19-0.08-0.5-0.12c5.51-0.05,10.63-0.12,15.71-0.07
			c1.26-0.05,2.09-0.12,4.16-0.15c1.4-0.01-0.4,0.1,1.69,0.06c1.96-0.07-1.52-0.1-1.04-0.18c2.76-0.05,2.21-0.1,3.59-0.16
			c3.84,0.05,6.47-0.08,9.96-0.13c3.6-0.02,7.59-0.04,11.07-0.06c2.98-0.04,4.26-0.11,7.64-0.12c2.74,0.01,5.05,0.02,8.09,0.04
			c1.61-0.02-1.08-0.07,1.22-0.08c10.67-0.05,21.34-0.11,29.22-0.23c-12.09,0.16-20.91,0.04-31.5,0.2c-1.6-0.08-4.76,0.07-6.35-0.05
			c-0.72,0.05,1.73,0.08-0.64,0.08c-0.79,0-1.09-0.03-2.31-0.02c1.5-0.11-0.74-0.1-1.61-0.18c-9.02,0.04-16.08,0.07-23.88,0.1
			c-1.45,0.03,1,0.07-0.64,0.09c-2.97,0.02-5.24,0.03-8.75,0.05c-1.05-0.09-3.41-0.13-2.15-0.25c10.52-0.06,24.83-0.14,37.35-0.21
			c3.79-0.01,7.73,0.07,9.93-0.06c-5.62,0.04-10.15-0.09-15.03-0.11c-6.32,0.03-13.08,0.06-19.25,0.09
			c-1.74-0.02-2.46-0.03-4.03-0.05c-1.23,0.02-3.32,0.04-4.7,0.06c-1.5,0-1.59-0.05-2.88-0.05c-2.64,0.03-4.68,0.05-7.61,0.09
			c-4.9,0-9.71-0.09-15.08-0.06c-0.98-0.04-0.55-0.15,0.69-0.17c6.37,0,7.46,0,13.97-0.01c-0.73-0.01-1.17-0.03-1.12-0.07
			c2.01,0.01,2.72,0.04,4.09-0.02c-4.84,0-4.4-0.18-2.74-0.26c12.01,0.02,26.74,0.05,36.64,0.06c1.09-0.04,1.79-0.1,3.58-0.11
			c11.13,0.01,23.59,0.03,35.51,0.04c-13.61-0.14-27.82-0.13-43.62-0.11c-0.61-0.02-0.12-0.08-1.69-0.07
			c-6.74,0.01-14.59,0.02-19.82,0.03c-2.32-0.11-4.58-0.22-6.78-0.32c-16.58,0.05-28.69-0.41-44.56-0.45
			c0.08-0.08-1.16-0.1-1.65-0.16c1.28-0.06,2.13-0.14,3.61-0.19c2.6,0,5.27-0.03,7.56,0.03c13.37-0.18,32.35,0.05,48.97,0.03
			c2.03-0.1,0.44-0.19-0.96-0.29c-8.01-0.12-15.33,0-23.81-0.19c-3.04-0.3,0.15-0.47,6.71-0.45c10.86,0.05,29.58,0.24,36.61,0.33
			c31.86,0.17,63.46,0.61,96.11,1.17c-18.14-0.38-34.93-0.55-51.17-0.84c0.06,0.04-0.53,0.04-1.79,0.02
			c-15.98-0.23-33.71-0.43-47.73-0.48c-5.88-0.21-17.22-0.12-23.16-0.33c1.49-0.25,6.37-0.32,12.51-0.32
			c-6.27-0.09-12.12-0.18-17.38-0.26c-4.31-0.06-11.78-0.04-13.97-0.11c-0.53-0.02,0.48-0.07-0.53-0.08
			c1.77,0.02-3.15-0.01-3.51-0.01c-2.36,0.01-1.92,0.04-4.67,0.01c-3.58-0.04-3.51-0.04-5.76-0.12
			c-12.35-0.08-24.32-0.15-36.63-0.23c-1.28-0.01-3.87-0.02-4.07-0.02c-1.16-0.02-0.17-0.07-1.7-0.09
			c-0.87-0.01-0.48,0.06-1.77,0.04c-4.8-0.03-10.28-0.07-15.09-0.1c-12.02-0.03-26.23-0.07-36.03-0.09
			c-2.18-0.02,0.69-0.11-2.26-0.11c-16.88-0.03-34.75,0.03-52.83,0.23c-1.36,0.01-0.27-0.11-2.27-0.07
			c-2.49,0.01-1.88,0.12-4.13,0.15c-1.39-0.01-2.67-0.03-3.41-0.08c-20.71,0.21-42.06,0.74-63.42,1.16
			c-19.91,0.4-39.87,0.74-58.78,0.97c-14.9,0.18-29.14,0.33-42.47,0.35c-2.24,0.01-4.43,0.02-6.6,0.03l-0.72,0.01
			c-0.04-0.02-0.16,0.05-0.14-0.04l-0.01-0.18l-0.03-0.21l-0.04-0.8l-0.09-1.59c-0.22-4.22-0.44-8.34-0.66-12.43
			c-0.41-8.18-0.81-16.22-1.23-24.58c-0.55-12.05-1.15-25.32-1.62-35.45c-0.08-1.74-0.18-3.82-0.28-5.86
			c-0.11-3.07-0.23-6.18-0.35-9.24c-0.34-8.29-0.7-16.78-1.04-25.04c-0.17-4.64-0.34-9.19-0.51-13.71l-0.09-2.24l0-0.42
			c0.11-0.03,0.28,0.01,0.42,0l0.45,0.02l1.7,0.01c1.13,0.01,2.27,0.02,3.41,0.02c5.14,0.01,10.08,0.03,15.18,0.04
			c3.38,0.04,6.92,0.07,10.43,0.11c9.83,0.03,19.83,0.06,29.13,0.09c12.42,0.08,25.19,0.24,37.79,0.14
			c13.92,0.09,30.85,0.08,44.18,0c10.81,0.19,22.06-0.06,34.29-0.04c1.29,0.02,2.15,0.03,3.45,0.05
			c18.51,0.13,39.06-0.24,54.08-0.13c5.63-0.18,10.45-0.02,15.68,0c5.65,0.02,10.88-0.11,16.32-0.14c1.78,0.02,3.4,0.03,5.2,0.04
			c5.5,0,10.86-0.15,16.92-0.2c9.04-0.09,18.67,0.11,29.04-0.15c8.01,0.05,19.87,0.06,29.03-0.2c15.49,0.06,31.15-0.43,47.06-0.57
			c5.37-0.05,10.26,0.04,15.68-0.19c5.61,0.07,12.31-0.13,19.15-0.24c6.75-0.08,13.8-0.16,20.85-0.24
			c10.07-0.14,22.57-0.5,30.1-0.38c3.44,0.51,10.1-0.5,18.12-0.55c4.25,0.02,3.7,0.18,5.52,0.34c3.8-0.01,7.36-0.15,11.05-0.28
			C538.94,32.11,542.08,32.26,547.81,32.11z M377.27,168.77c-0.11,0.03,0.1,0.04,0.56,0.05
			C376.58,168.93,373.84,168.77,377.27,168.77z M378.47,168.72c4.83-0.02,11.63-0.14,15.14-0.07c0.94,0-0.84-0.13,0.69-0.16
			c2.06,0.05,4.5,0.09,8.07,0.08c0.23,0.18-6.83,0.09-7.14,0.26c-2.73-0.01-4.06-0.01-5.28,0.08c-5.58-0.05-6.82,0.08-11.04,0.02
			C380.02,168.82,378.15,168.85,378.47,168.72z"/>
	</g>
</g>
</svg>
