<?xml version="1.0" encoding="utf-8"?>
<!-- Generator: Adobe Illustrator 24.1.3, SVG Export Plug-In . SVG Version: 6.00 Build 0)  -->
<svg version="1.1" id="Layer_1" xmlns="http://www.w3.org/2000/svg" xmlns:xlink="http://www.w3.org/1999/xlink" x="0px" y="0px"
	 viewBox="0 0 600 600" style="enable-background:new 0 0 600 600;" xml:space="preserve">
<style type="text/css">
	.st0{fill:#B884C1;}
	.st1{fill:#FA9A86;}
	.st2{fill:#863399;}
	.st3{fill:#E64783;}
	.st4{fill:none;stroke:#000000;stroke-width:6;stroke-miterlimit:10;}
	.st5{fill:#FFDD92;}
	.st6{fill:#FFC844;}
	.st7{fill:#6CCA98;}
	.st8{fill:#1C355E;}
	.st9{fill:#757F9B;}
	.st10{fill:#E74F3D;}
	.st11{fill:#FFFFFF;}
	.st12{fill:#F697B2;}
	.st13{fill:#A9E0C0;}
	.st14{fill:none;stroke:#000000;stroke-width:2;stroke-miterlimit:10;}
	.st15{opacity:0.41;}
	.st16{stroke:#000000;stroke-width:4;stroke-miterlimit:10;}
	.st17{fill:none;stroke:#414042;stroke-width:2;stroke-miterlimit:10;}
	.st18{fill:#52BD8C;}
	.st19{fill:#EC5535;}
	.st20{stroke:#000000;stroke-miterlimit:10;}
	.st21{fill:none;stroke:#000000;stroke-miterlimit:10;}
	.st22{fill:none;stroke:#000000;stroke-width:3;stroke-miterlimit:10;}
	.st23{fill:#FFFFFF;stroke:#000000;stroke-width:6;stroke-miterlimit:10;}
	.st24{fill:none;}
	.st25{fill:none;stroke:#000000;stroke-width:8;stroke-linecap:round;stroke-linejoin:round;stroke-miterlimit:10;}
	.st26{fill-rule:evenodd;clip-rule:evenodd;fill:#E74F3D;}
	.st27{fill-rule:evenodd;clip-rule:evenodd;fill:#6CCA98;}
	.st28{fill-rule:evenodd;clip-rule:evenodd;fill:#E64783;}
	.st29{fill:none;stroke:#000000;stroke-width:12;stroke-miterlimit:10;}
	.st30{fill:none;stroke:#000000;stroke-width:10;stroke-miterlimit:10;}
</style>
<g>
	<rect x="0" class="st13" width="600" height="600"/>
</g>
<g>
	<path class="st7" d="M499.58,527.2H100.42c-15.25,0-27.62-12.36-27.62-27.62V100.42c0-15.25,12.36-27.62,27.62-27.62h399.16
		c15.25,0,27.62,12.36,27.62,27.62v399.16C527.2,514.83,514.83,527.2,499.58,527.2z"/>
</g>
<g>
	<polygon class="st13" points="459.37,132.62 168.39,206.24 182.3,241.43 212.5,233.74 179.9,298.05 245.57,308.49 268.1,237.12 
		268.58,305.67 307.95,274.99 307.95,220.63 367.39,211.71 348.37,267.8 289.2,295.6 315.1,321.03 428.69,278.82 444.99,203.62 
		470.88,188.54 	"/>
</g>
<g>
	<polygon class="st6" points="307.06,477.1 254.2,500.68 254.2,324.34 307.06,304.64 	"/>
</g>
<g class="st15">
	<defs>
		<rect id="SVGID_3_" x="47.42" y="40.47" class="st15" width="485.56" height="523.04"/>
	</defs>
	<clipPath id="SVGID_2_">
		<use xlink:href="#SVGID_3_"  style="overflow:visible;"/>
	</clipPath>
</g>
<g>
	<path d="M181.19,237.6l-6.7-26.25l1.51-0.34c8.25-1.85,113.64-36.59,114.7-36.94l0.94,2.85c-4.17,1.38-98.37,32.42-113.49,36.63
		l5.19,20.32l25.67-7.33l0.82,2.88L181.19,237.6z"/>
</g>
<g>
	<polygon points="202.32,304.88 174.86,293.8 213.41,216.63 275.07,189.17 276.29,191.91 215.61,218.93 178.99,292.23 200.98,301.1 
		213.2,278.79 215.83,280.23 	"/>
</g>
<g>
	<polygon points="239.26,315.48 205.67,312.82 224.26,228.07 269.15,194.79 320.18,145.23 349.78,153.72 348.95,156.6 
		321.02,148.59 271.01,197.14 226.95,229.81 209.34,310.1 236.91,312.29 249.55,256.04 273.59,229.71 275.8,231.74 252.3,257.48 	
		"/>
</g>
<g>
	<polygon points="271.55,310.69 265.2,263.32 265.27,263.05 275.8,219.89 276.14,219.58 358.05,145.26 413.19,159.04 412.46,161.95 
		358.88,148.56 278.49,221.49 268.25,263.48 274.52,310.29 	"/>
</g>
<g>
	<polygon points="304.1,287.35 301.11,287.07 305.08,246.12 325.98,223.86 358.09,205.91 362.44,228.83 362.29,229.23 
		351.62,257.62 348.81,256.57 359.34,228.56 355.92,210.56 327.85,226.25 307.97,247.43 	"/>
</g>
<g>
	<polygon points="295.53,321.26 292.31,291.21 349.73,259.31 367.51,238.17 369.8,240.1 351.67,261.67 351.43,261.8 295.5,292.87 
		298.11,317.19 387.03,286.61 419.86,271.53 430.74,238.89 430.74,208.24 433.74,208.24 433.74,239.38 422.3,273.72 388.07,289.42 	
		"/>
</g>
<g>
	<rect x="428.76" y="209.48" transform="matrix(0.8354 -0.5496 0.5496 0.8354 -41.9057 282.0085)" width="42.41" height="3"/>
</g>
<g>
	<rect x="367" y="136.7" transform="matrix(0.9696 -0.2448 0.2448 0.9696 -21.2753 105.2472)" width="91.39" height="3"/>
</g>
<g>
	<path d="M274.95,379.56c2.24,0.35,4.42,0.57,6.59,0.58c2.17,0,4.32-0.19,6.42-0.61c2.11-0.39,4.16-1.05,6.17-1.86
		c2-0.84,3.93-1.87,5.88-3.04c-1.4,1.79-3.19,3.28-5.19,4.44c-0.99,0.59-2.06,1.05-3.13,1.48c-1.09,0.39-2.21,0.71-3.35,0.94
		c-2.28,0.42-4.63,0.52-6.91,0.2C279.15,381.38,276.92,380.69,274.95,379.56z"/>
</g>
<g>
	<path d="M283.3,376.06c0.85-0.42,1.66-0.68,2.45-0.94c0.8-0.25,1.58-0.47,2.36-0.67c0.78-0.2,1.57-0.39,2.39-0.56
		c0.82-0.16,1.65-0.32,2.6-0.37c-0.54,0.78-1.26,1.35-2.02,1.83c-0.77,0.46-1.61,0.81-2.47,1.03c-0.87,0.22-1.77,0.32-2.66,0.29
		C285.05,376.63,284.15,376.47,283.3,376.06z"/>
</g>
<g>
	<path d="M283.3,351.22c-6.23,0-11.3-4.29-11.3-9.56c0-5.27,5.07-9.56,11.3-9.56s11.3,4.29,11.3,9.56
		C294.6,346.93,289.53,351.22,283.3,351.22z M283.3,335.09c-4.58,0-8.3,2.94-8.3,6.56c0,3.62,3.72,6.56,8.3,6.56
		c4.58,0,8.3-2.94,8.3-6.56C291.6,338.04,287.88,335.09,283.3,335.09z"/>
</g>
<g>
	<path d="M295.07,491.66l-1.81-0.39c-0.75-0.16-18.33-4.07-20.08-15.8c-0.23-1.54-0.38-6.58-0.46-15.41c-0.01-1,0.34-2.08,0.68-3.12
		c0.28-0.87,0.58-1.76,0.57-2.38c0-0.33-0.17-0.66-0.46-1.17c-0.38-0.69-0.85-1.55-0.85-2.71c-0.01-4.09-0.02-8.42-0.01-12.75
		c-0.03-0.19-0.46-0.74-0.72-1.07c-0.64-0.81-1.36-1.74-1.35-2.92c0-1.2,0.72-2.14,1.36-2.98c0.26-0.35,0.71-0.93,0.73-1.15
		c0.01-4.86,0.04-9.55,0.06-13.74c0.01-1.22,0.67-2.58,1.31-3.89c0.34-0.69,0.83-1.71,0.9-2.16c-0.1-0.09-0.31-0.22-0.45-0.31
		c-0.64-0.41-1.71-1.1-1.7-2.52c0.03-4.09,0.05-6.9,0.06-7.69c-1.43-4.65-4.5-12.37-6.92-14.09c-10.43-6.15-16.91-17.47-16.91-29.56
		c0-18.91,15.39-34.3,34.3-34.3s34.3,15.39,34.3,34.3c0,10.09-4.42,19.62-12.13,26.16c-2.84,3.18-9.98,12.25-10.06,17.22
		c-0.11,6.58-0.33,89.75-0.33,90.59L295.07,491.66z M275.77,406.96c0.1,0.07,0.23,0.16,0.33,0.22c0.64,0.42,1.84,1.19,1.83,2.77
		c-0.01,1.08-0.59,2.28-1.21,3.54c-0.42,0.87-1,2.06-1.01,2.6c-0.02,4.19-0.04,8.88-0.06,13.74c0,1.18-0.72,2.12-1.34,2.95
		c-0.27,0.36-0.72,0.95-0.75,1.18c0.04,0.18,0.46,0.73,0.72,1.06c0.64,0.81,1.36,1.74,1.36,2.92c-0.01,4.33,0,8.65,0.01,12.74
		c0,0.38,0.18,0.73,0.48,1.28c0.37,0.67,0.82,1.5,0.83,2.6c0.01,1.1-0.36,2.23-0.72,3.32c-0.26,0.81-0.54,1.65-0.53,2.16
		c0.1,10.67,0.29,14.04,0.43,14.99c1.15,7.73,11.65,11.57,15.94,12.83c0.04-12.63,0.23-82.66,0.33-88.69
		c0.12-7.15,10.46-18.76,10.9-19.25l0.15-0.15c7.08-5.97,11.15-14.69,11.15-23.94c0-17.26-14.04-31.3-31.3-31.3
		s-31.3,14.04-31.3,31.3c0,11.05,5.93,21.4,15.48,27l0.09,0.06c4.14,2.84,7.79,14.6,8.2,15.94l0.07,0.22l0,0.23
		C275.83,399.28,275.81,402.22,275.77,406.96z"/>
</g>
<g>
	<path d="M285.57,402.66c0.39,5.88,0.65,11.76,0.78,17.63c0.16,5.88,0.2,11.76,0.22,17.63c-0.02,5.88-0.06,11.76-0.22,17.63
		c-0.13,5.88-0.39,11.76-0.78,17.63c-0.39-5.88-0.65-11.76-0.78-17.63c-0.16-5.88-0.2-11.76-0.22-17.63
		c0.02-5.88,0.06-11.76,0.22-17.63C284.93,414.42,285.18,408.54,285.57,402.66z"/>
</g>
<g>
	<path d="M287.73,349.68c-7.36-2.2-12.28-13.07-11.69-25.85c0.31-6.73,2.11-13,5.09-17.66c3.08-4.83,7.07-7.4,11.2-7.19
		c0.96,0.04,1.92,0.24,2.84,0.58l-0.69,1.88c-0.73-0.27-1.48-0.42-2.24-0.46c-3.38-0.14-6.75,2.07-9.42,6.27
		c-2.79,4.37-4.48,10.29-4.77,16.67c-0.54,11.68,3.88,21.93,10.27,23.84L287.73,349.68z"/>
</g>
<g>
	<path d="M305.6,331.09l-1.97-0.36c0.34-1.82,0.55-3.7,0.64-5.59c0.13-2.87-0.03-5.69-0.48-8.39l1.97-0.33
		c0.47,2.83,0.64,5.79,0.5,8.81C306.18,327.2,305.95,329.18,305.6,331.09z"/>
</g>
<g>
	<path d="M308.53,333.34l-1.95-0.44l0.06-0.25c0.49-2.19,1.17-5.2,1.27-7.53c0.15-3.33-0.08-6.56-0.7-9.61l1.96-0.4
		c0.65,3.21,0.9,6.61,0.74,10.1c-0.12,2.51-0.81,5.61-1.32,7.88L308.53,333.34z"/>
</g>
<g>
	<path d="M288.63,348.45c-4.83-3.95-9.46-13.68-8.96-24.62c0.6-13.08,6.88-23.73,14.61-24.77l0.27,1.98
		c-6.68,0.9-12.33,10.96-12.88,22.88c-0.47,10.17,3.89,19.43,8.23,22.98L288.63,348.45z"/>
</g>
</svg>
