<?xml version="1.0" encoding="utf-8"?>
<!-- Generator: Adobe Illustrator 24.1.3, SVG Export Plug-In . SVG Version: 6.00 Build 0)  -->
<svg version="1.1" id="Layer_1" xmlns="http://www.w3.org/2000/svg" xmlns:xlink="http://www.w3.org/1999/xlink" x="0px" y="0px"
	 viewBox="0 0 600 600" style="enable-background:new 0 0 600 600;" xml:space="preserve">
<style type="text/css">
	.st0{fill:#B884C1;}
	.st1{fill:#FA9A86;}
	.st2{fill:#863399;}
	.st3{fill:#E64783;}
	.st4{fill:none;stroke:#000000;stroke-width:6;stroke-miterlimit:10;}
	.st5{fill:#FFDD92;}
	.st6{fill:#FFC844;}
	.st7{fill:#6CCA98;}
	.st8{fill:#1C355E;}
	.st9{fill:#757F9B;}
	.st10{fill:#E74F3D;}
	.st11{fill:#FFFFFF;}
	.st12{fill:#F697B2;}
	.st13{fill:#A9E0C0;}
	.st14{fill:none;stroke:#000000;stroke-width:2;stroke-miterlimit:10;}
	.st15{opacity:0.41;}
	.st16{stroke:#000000;stroke-width:4;stroke-miterlimit:10;}
	.st17{fill:none;stroke:#414042;stroke-width:2;stroke-miterlimit:10;}
	.st18{fill:#52BD8C;}
	.st19{fill:#EC5535;}
	.st20{stroke:#000000;stroke-miterlimit:10;}
	.st21{fill:none;stroke:#000000;stroke-miterlimit:10;}
	.st22{fill:none;stroke:#000000;stroke-width:3;stroke-miterlimit:10;}
	.st23{fill:#FFFFFF;stroke:#000000;stroke-width:6;stroke-miterlimit:10;}
	.st24{fill:none;}
	.st25{fill:none;stroke:#000000;stroke-width:8;stroke-linecap:round;stroke-linejoin:round;stroke-miterlimit:10;}
	.st26{fill-rule:evenodd;clip-rule:evenodd;fill:#E74F3D;}
	.st27{fill-rule:evenodd;clip-rule:evenodd;fill:#6CCA98;}
	.st28{fill-rule:evenodd;clip-rule:evenodd;fill:#E64783;}
	.st29{fill:none;stroke:#000000;stroke-width:12;stroke-miterlimit:10;}
	.st30{fill:none;stroke:#000000;stroke-width:10;stroke-miterlimit:10;}
</style>
<g>
	<rect x="1" y="-1" class="st0" width="600" height="600"/>
</g>
<g>
	<path class="st2" d="M502.35,522.2H103.19c-15.25,0-27.62-12.36-27.62-27.62V95.42c0-15.25,12.36-27.62,27.62-27.62h399.16
		c15.25,0,27.62,12.36,27.62,27.62v399.16C529.97,509.83,517.6,522.2,502.35,522.2z"/>
</g>
<g>
	<polygon class="st0" points="175.39,492.83 159.48,509.45 121.4,168.87 137.96,167.02 	"/>
</g>
<g>
	<g>
		<path d="M499.8,342.81c-1.55,1.48-38.75,36.02-110.57,24.87c-34.45-5.36-57.57,6.09-84.34,19.36c-8.33,4.12-16.93,8.4-26.44,12.47
			c-0.78,0.34-1.6,0.49-2.42,0.49c-1.15,0-2.32-0.32-3.36-0.97c-2.08-1.29-3.45-3.59-3.59-6.04c-0.44-7.59-1.84-15.1-4.12-22.35
			c1.62-0.4,3.26-0.77,4.89-1.11c0.72-0.18,1.44-0.32,2.16-0.47c1.01,3.24,1.85,6.55,2.51,9.88c0.9,4.49,1.49,9.04,1.75,13.63
			c0,0.01,0,0.01,0.01,0.02c9.05-3.91,17.36-8.03,25.4-12.02c27.87-13.81,51.93-25.73,88.64-20.02
			c66.16,10.27,102.62-19.74,106.47-25.09c-0.28-2.58-0.54-5.13-0.78-7.63c-0.56-5.65-1.08-11.09-1.54-16.37
			c-0.36-4.19-0.7-8.28-1-12.27c-0.43-5.65-0.81-11.11-1.13-16.44c-0.32-5.34-0.6-10.51-0.84-15.6c-0.25-5.49-0.46-10.85-0.64-16.15
			c-0.14-4.46-0.26-8.87-0.37-13.27c-0.13-5.5-0.24-10.98-0.32-16.5c-0.08-5.12-0.16-10.29-0.24-15.52
			c-0.01-1.03-0.02-2.07-0.04-3.11c-0.06-4.47-0.13-8.98-0.19-13.55c-0.08-5.01-0.17-10.13-0.26-15.38
			c-0.11-5.41-0.23-10.97-0.37-16.75c-0.12-4.82-0.25-9.79-0.42-14.95c-0.88,0.41-1.83,0.85-2.76,1.3
			c-15.84,7.53-52.93,25.17-98.4,22.63c-54.79-3.05-80.36,10.6-89.88,17.82c-0.68-2.48-1.38-4.95-2.1-7.41
			c27.23-18.95,73.2-18.67,92.39-17.6c43.64,2.46,79.56-14.64,94.9-21.93c7.16-3.41,8.87-4.23,11.07-2.9
			c1.11,0.67,1.79,1.85,1.83,3.15c0.25,7.29,0.46,14.22,0.61,20.85l0.24,10.03c0.16,7.87,0.29,15.38,0.38,22.71
			c0.05,3.03,0.1,6.02,0.14,8.99c0.01,0.97,0.02,1.95,0.04,2.91c0.1,7.07,0.19,13.96,0.31,20.82c0.05,2.68,0.1,5.35,0.16,8.01
			c0.14,7.52,0.35,15.04,0.62,22.73c0.07,2.05,0.16,4.13,0.24,6.22c0.29,7.31,0.66,14.8,1.14,22.61c0.23,3.56,0.46,7.19,0.73,10.89
			c0.41,5.77,0.88,11.73,1.42,17.93c0.3,3.39,0.61,6.85,0.96,10.38c0.41,4.36,0.87,8.83,1.36,13.45
			C504.22,337.07,503.82,338.98,499.8,342.81z"/>
	</g>
</g>
<g>
	<path class="st0" d="M186.34,412.39c40.81-28.04,89.56-44.36,139.02-46.6c2.35-0.11,4.85-2.11,4.21-4.37
		c-14.26-49.94-13.02-90.02-16.11-90.69c-24.45-5.23-121.47,24.75-143.01,40.75L186.34,412.39z"/>
</g>
<g>
	<path class="st0" d="M279.82,373.02c2.77,8.11,4.44,16.6,4.94,25.16c0.13,2.2,2.28,4.26,4.31,3.39
		c40.49-17.37,66-38.97,111.9-31.84c70.95,11.02,110.26-24.18,109.86-27.95c-8.54-80.16-5.65-118.86-8.31-197.29
		c-0.11-3.22-45.07,28.25-103.61,24.97c-33.38-1.87-72.19,2.24-93.15,19.67l18.78,97.28L279.82,373.02z"/>
</g>
<g>
	<g>
		<path d="M174.17,390.19L166,378.3c41.08-28.23,95.26-45.8,148.65-48.22l0.65,14.41C265.28,346.76,212.52,363.84,174.17,390.19z"/>
	</g>
</g>
<g>
	<g>
		<path d="M171.12,361.79l-8.17-11.88c40.42-27.78,96.44-45.8,149.85-48.22l0.65,14.41C262.62,318.39,209.41,335.48,171.12,361.79z"
			/>
	</g>
</g>
<g>
	<g>
		<path d="M167.96,334.59l-8.17-11.88c40.37-27.74,96.83-45.76,151.05-48.22l0.65,14.41C259.85,291.22,206.2,308.31,167.96,334.59z"
			/>
	</g>
</g>
<g>
	<g>
		<path d="M489.46,173.69c-0.58,0.26-1.17,0.54-1.74,0.82c-16.14,7.67-53.93,25.63-100.45,23.02c-34.94-1.95-65.02,3.2-82.62,13.9
			c-1.21-5.26-2.49-10.53-3.83-15.77c28.53-15.02,69.39-14.73,87.33-13.73c42.56,2.39,77.8-14.38,92.86-21.53
			c3.42-1.62,5.97-2.84,8.09-3.46C489.23,162.72,489.35,168.28,489.46,173.69z"/>
	</g>
</g>
<g>
	<g>
		<path d="M489.95,205.73c-0.72,0.34-1.49,0.71-2.23,1.06c-16.14,7.67-53.92,25.63-100.45,23.02c-31.24-1.75-58.6,2.19-76.61,10.69
			c-0.96-5.26-1.98-10.51-3.09-15.75c27.9-11.78,64.02-11.46,80.58-10.54c42.56,2.39,77.82-14.37,92.86-21.53
			c3.79-1.79,6.48-3.08,8.72-3.62c0.06,4.58,0.13,9.08,0.19,13.55C489.92,203.67,489.94,204.7,489.95,205.73z"/>
	</g>
</g>
<g>
	<g>
		<path d="M490.51,237.76c-0.89,0.41-1.86,0.88-2.8,1.32c-16.14,7.68-53.93,25.64-100.45,23.03c-28.56-1.61-53.88,1.55-71.8,8.62
			c-0.71-5.29-1.49-10.56-2.34-15.84c26.98-9.58,59.54-9.24,75.02-8.38c42.56,2.39,77.8-14.38,92.86-21.54
			c4.04-1.92,6.85-3.24,9.19-3.71C490.27,226.77,490.38,232.25,490.51,237.76z"/>
	</g>
</g>
<g>
	<g>
		<path d="M491.52,267.17c-1.11,0.5-2.51,1.17-3.81,1.79c-16.14,7.68-53.9,25.63-100.45,23.03c-26.88-1.51-50.89,1.19-68.55,7.41
			c-0.48-5.32-1.03-10.63-1.65-15.95c26.13-8.23,56.34-7.89,71.07-7.07c42.57,2.38,77.82-14.38,92.87-21.54
			c4.45-2.1,7.39-3.51,9.88-3.83C491.07,256.32,491.27,261.68,491.52,267.17z"/>
	</g>
</g>
<g>
	<g>
		<path d="M493.49,299.21c-0.61,0.29-1.25,0.59-1.86,0.88c-16.45,7.65-54.97,25.61-102.4,23c-26.66-1.45-50.55,1.05-68.46,6.89
			c-0.23-5.37-0.54-10.74-0.91-16.1c26.1-7.52,55.61-7.19,70.22-6.38c43.53,2.38,79.56-14.4,94.95-21.56
			c3.03-1.41,5.37-2.5,7.33-3.16C492.69,288.09,493.06,293.56,493.49,299.21z"/>
	</g>
</g>
<g>
	<path d="M321.17,341c-0.1-3.69-0.23-7.37-0.4-11.03c-0.23-5.37-0.54-10.74-0.91-16.1c-0.32-4.82-0.71-9.65-1.15-14.46
		c-0.48-5.32-1.03-10.63-1.65-15.95c-0.49-4.25-1.02-8.5-1.6-12.74c-0.71-5.29-1.49-10.56-2.34-15.84
		c-0.77-4.81-1.59-9.6-2.48-14.38c-0.96-5.26-1.98-10.51-3.09-15.75c-0.93-4.45-1.9-8.89-2.92-13.33
		c-1.21-5.26-2.49-10.53-3.83-15.77c-1.02-3.99-2.08-7.97-3.18-11.93c-0.68-2.48-1.38-4.95-2.1-7.41c-0.2-0.74-0.42-1.48-0.64-2.22
		c-1.27-4.35-2.7-8.51-6.18-11.51c-3.51-3.04-8.46-4.27-15.1-3.76c-15.26,1.18-28.75,8.46-41.82,15.51
		c-5.67,3.06-11.55,6.24-17.4,8.8c-20.78,9.1-44.47,11.67-66.71,7.25l-4.89-0.97l27.88,224.01l4.88-3.35
		c26.8-18.41,57.48-31.85,89.42-39.42c1.62-0.4,3.26-0.77,4.89-1.11c0.72-0.18,1.44-0.32,2.16-0.47c9.53-2.01,19.14-3.47,28.78-4.4
		c4.31-0.42,8.63-0.73,12.95-0.93c3.76-0.18,6.79-2.85,7.51-6.38c0.12-0.53,0.17-1.09,0.17-1.66
		C321.4,350.8,321.32,345.89,321.17,341z M313.42,356.53c-12.91,0.59-25.83,2.14-38.61,4.61c-34.98,6.74-68.88,20.33-98.46,39.69
		l-25.21-202.53c22.23,3.44,45.53,0.44,66.12-8.57c6.14-2.69,12.14-5.92,17.94-9.06c12.97-6.99,25.21-13.61,38.94-14.66
		c4.64-0.36,7.86,0.3,9.84,2.02c1.98,1.72,2.98,4.67,3.97,8.07c2.27,7.76,4.4,15.55,6.37,23.37c1.27,4.99,2.48,10,3.62,15.01
		c1.02,4.47,1.98,8.95,2.91,13.43c1.12,5.38,2.15,10.79,3.11,16.21c0.82,4.48,1.57,8.98,2.28,13.48c0.85,5.38,1.63,10.79,2.36,16.2
		c0.53,4.03,1.02,8.05,1.48,12.09c0.62,5.42,1.17,10.85,1.63,16.28c0.42,4.65,0.77,9.3,1.08,13.96c0.36,5.47,0.66,10.95,0.89,16.43
		c0.13,3.51,0.25,7.03,0.34,10.54c0.11,4.22,0.17,8.42,0.19,12.64C314.21,356.17,313.87,356.52,313.42,356.53z"/>
</g>
<g>
	<path d="M496.03,327.84c-0.54,0.25-1.08,0.52-1.61,0.78c-17,8.33-52.58,29.26-107.9,21.89c-17.82-2.37-48.34,3.95-66.46,9.25
		c0.12-0.53,1.37-3.5,1.37-4.06c-0.02-4.9-1.31-7.41-1.45-12.3c18.48-5.07,49.33-10.95,68.61-8.38
		c50.62,6.75,83.13-12.68,98.98-20.44c2.82-1.37,5.03-2.46,6.93-3.11C494.95,316.75,495.46,322.19,496.03,327.84z"/>
</g>
<g>
	<g>
		<path d="M276.04,400.01c-1.16,0-2.32-0.33-3.37-0.98c-2.07-1.28-3.44-3.59-3.58-6.04c-0.49-8.32-2.11-16.53-4.79-24.4l6.82-2.33
			c2.9,8.49,4.64,17.34,5.17,26.31c0,0.01,0,0.02,0,0.03c9.06-3.91,17.37-8.03,25.41-12.01c27.86-13.81,51.93-25.73,88.64-20.03
			c66.17,10.29,102.62-19.74,106.47-25.09c-5.82-54.97-6.32-91.07-6.9-132.85c-0.27-19.88-0.56-40.44-1.4-65.34l7.2-0.24
			c0.85,24.97,1.13,45.57,1.41,65.49c0.58,41.81,1.08,77.93,6.95,133.05c0.16,1.49-0.25,3.41-4.27,7.24
			c-1.55,1.48-38.76,36.02-110.57,24.87c-34.45-5.36-57.57,6.1-84.33,19.36c-8.33,4.13-16.94,8.39-26.45,12.47
			C277.68,399.85,276.86,400.01,276.04,400.01z M497.06,335.07L497.06,335.07L497.06,335.07z"/>
	</g>
</g>
<g>
	<ellipse class="st0" cx="129.14" cy="147.82" rx="17.63" ry="17.57"/>
</g>
<g>
	<path d="M134.14,170.39c-11.37,0-20.63-9.23-20.63-20.57s9.25-20.57,20.63-20.57s20.63,9.23,20.63,20.57
		S145.52,170.39,134.14,170.39z M134.14,135.25c-8.07,0-14.63,6.54-14.63,14.57s6.56,14.57,14.63,14.57s14.63-6.54,14.63-14.57
		S142.21,135.25,134.14,135.25z"/>
</g>
<g>
	<g>
		<polygon points="163.81,505.72 124.71,164.74 145.45,164.74 145.76,167.39 184.04,493.49 178.08,494.19 140.11,170.74 
			131.44,170.74 169.77,505.04 		"/>
	</g>
</g>
<g>
	<polygon class="st0" points="168.93,203.65 171.22,207.2 175.45,207.32 172.78,210.6 173.98,214.65 170.03,213.13 166.55,215.52 
		166.77,211.3 163.42,208.72 167.51,207.63 	"/>
</g>
<g>
	<polygon class="st0" points="190.36,200.55 192.92,203.91 197.14,203.7 194.74,207.18 196.25,211.13 192.2,209.92 188.9,212.57 
		188.8,208.34 185.27,206.03 189.25,204.63 	"/>
</g>
<g>
	<polygon class="st0" points="210.05,194.73 212.67,198.05 216.88,197.78 214.53,201.29 216.09,205.22 212.02,204.07 208.77,206.76 
		208.61,202.54 205.04,200.28 209.01,198.82 	"/>
</g>
<g>
	<polygon class="st0" points="227.84,187.35 230.8,190.37 234.96,189.65 233,193.4 234.97,197.13 230.8,196.42 227.85,199.45 
		227.24,195.27 223.45,193.4 227.24,191.53 	"/>
</g>
<g>
	<polygon class="st0" points="245.37,178.49 248.38,181.45 252.53,180.65 250.64,184.43 252.69,188.13 248.51,187.5 245.62,190.59 
		244.93,186.42 241.1,184.63 244.85,182.68 	"/>
</g>
<g>
	<polygon class="st0" points="180.72,213.02 183.01,216.57 187.24,216.69 184.58,219.97 185.77,224.02 181.82,222.5 178.34,224.89 
		178.56,220.67 175.22,218.09 179.3,217 	"/>
</g>
<g>
	<polygon class="st0" points="202.15,208.72 204.71,212.08 208.94,211.87 206.53,215.35 208.04,219.3 203.99,218.09 200.7,220.74 
		200.59,216.51 197.06,214.2 201.04,212.8 	"/>
</g>
<g>
	<polygon class="st0" points="223.05,201.7 225.66,205.02 229.88,204.75 227.52,208.26 229.08,212.19 225.02,211.04 221.76,213.73 
		221.6,209.51 218.03,207.25 222,205.79 	"/>
</g>
<g>
	<polygon class="st0" points="242.04,193.11 244.99,196.14 249.16,195.42 247.19,199.16 249.16,202.9 245,202.19 242.05,205.22 
		241.44,201.04 237.65,199.17 241.43,197.3 	"/>
</g>
<g>
	<polygon class="st0" points="259.56,185.46 262.58,188.42 266.72,187.62 264.84,191.4 266.88,195.1 262.7,194.47 259.81,197.56 
		259.12,193.39 255.29,191.6 259.04,189.65 	"/>
</g>
<g>
	<polygon class="st0" points="265.05,171.34 267.87,174.49 272.06,173.95 269.94,177.6 271.75,181.42 267.62,180.53 264.54,183.43 
		264.11,179.23 260.4,177.2 264.27,175.49 	"/>
</g>
<g>
	<polygon class="st0" points="171.53,226.27 173.83,229.82 178.06,229.94 175.39,233.22 176.59,237.27 172.64,235.75 169.16,238.14 
		169.38,233.92 166.03,231.34 170.12,230.25 	"/>
</g>
<g>
	<polygon class="st0" points="192.97,223.17 195.53,226.53 199.75,226.32 197.35,229.8 198.86,233.75 194.81,232.54 191.51,235.19 
		191.41,230.97 187.87,228.65 191.86,227.25 	"/>
</g>
<g>
	<polygon class="st0" points="213.86,216.15 216.48,219.47 220.69,219.2 218.34,222.71 219.9,226.64 215.83,225.49 212.58,228.18 
		212.42,223.96 208.85,221.7 212.82,220.24 	"/>
</g>
<g>
	<polygon class="st0" points="234.06,208.77 237.01,211.79 241.17,211.07 239.21,214.82 241.18,218.56 237.02,217.84 234.07,220.87 
		233.46,216.69 229.67,214.82 233.45,212.95 	"/>
</g>
<g>
	<polygon class="st0" points="253.99,201.11 257,204.07 261.15,203.27 259.26,207.05 261.3,210.75 257.12,210.13 254.24,213.21 
		253.54,209.04 249.72,207.25 253.47,205.3 	"/>
</g>
<g>
	<polygon class="st0" points="183.33,235.65 185.62,239.19 189.85,239.31 187.18,242.59 188.38,246.65 184.43,245.13 180.95,247.51 
		181.17,243.29 177.82,240.72 181.91,239.63 	"/>
</g>
<g>
	<polygon class="st0" points="205.96,230.14 208.52,233.5 212.75,233.29 210.34,236.77 211.85,240.72 207.8,239.51 204.51,242.16 
		204.41,237.93 200.87,235.62 204.85,234.22 	"/>
</g>
<g>
	<polygon class="st0" points="226.86,221.91 229.47,225.24 233.69,224.97 231.33,228.48 232.89,232.41 228.83,231.26 225.57,233.95 
		225.41,229.73 221.84,227.47 225.81,226.01 	"/>
</g>
<g>
	<polygon class="st0" points="247.05,214.54 250,217.56 254.17,216.84 252.2,220.58 254.17,224.32 250.01,223.61 247.06,226.64 
		246.45,222.46 242.66,220.59 246.45,218.72 	"/>
</g>
<g>
	<polygon class="st0" points="265.78,206.88 268.79,209.84 272.94,209.04 271.05,212.82 273.09,216.52 268.92,215.89 266.03,218.98 
		265.33,214.81 261.51,213.02 265.26,211.07 	"/>
</g>
<g>
	<polygon class="st0" points="273.67,192.76 276.49,195.91 280.68,195.37 278.56,199.02 280.37,202.84 276.23,201.96 273.16,204.86 
		272.73,200.65 269.02,198.62 272.88,196.91 	"/>
</g>
<g>
	<polygon class="st0" points="174.63,248.9 176.93,252.44 181.16,252.56 178.49,255.84 179.69,259.9 175.74,258.38 172.25,260.76 
		172.48,256.54 169.13,253.97 173.22,252.88 	"/>
</g>
<g>
	<polygon class="st0" points="196.07,243.39 198.63,246.75 202.85,246.54 200.45,250.02 201.95,253.97 197.9,252.76 194.61,255.41 
		194.51,251.18 190.97,248.87 194.96,247.47 	"/>
</g>
<g>
	<polygon class="st0" points="219.37,236.37 221.98,239.69 226.2,239.42 223.84,242.93 225.4,246.86 221.34,245.71 218.08,248.4 
		217.92,244.18 214.35,241.92 218.32,240.46 	"/>
</g>
<g>
	<polygon class="st0" points="239.56,228.99 242.51,232.01 246.68,231.29 244.71,235.04 246.68,238.77 242.52,238.06 239.57,241.09 
		238.96,236.91 235.17,235.04 238.96,233.17 	"/>
</g>
<g>
	<polygon class="st0" points="259.49,220.13 262.5,223.09 266.65,222.29 264.76,226.07 266.81,229.77 262.63,229.14 259.74,232.23 
		259.05,228.06 255.22,226.27 258.97,224.32 	"/>
</g>
<g>
	<polygon class="st0" points="186.42,257.07 188.72,260.61 192.95,260.73 190.28,264.01 191.48,268.07 187.53,266.55 184.05,268.94 
		184.27,264.71 180.92,262.14 185.01,261.05 	"/>
</g>
<g>
	<polygon class="st0" points="210.26,250.36 212.83,253.72 217.05,253.51 214.64,256.99 216.15,260.94 212.1,259.73 208.81,262.38 
		208.71,258.15 205.17,255.84 209.15,254.44 	"/>
</g>
<g>
	<polygon class="st0" points="231.91,243.34 234.52,246.66 238.74,246.39 236.38,249.9 237.94,253.83 233.88,252.68 230.62,255.37 
		230.46,251.15 226.89,248.89 230.86,247.43 	"/>
</g>
<g>
	<polygon class="st0" points="253.75,234.75 256.71,237.78 260.87,237.06 258.91,240.8 260.88,244.54 256.71,243.83 253.76,246.86 
		253.15,242.68 249.36,240.81 253.15,238.94 	"/>
</g>
<g>
	<polygon class="st0" points="271.28,229.5 274.29,232.46 278.44,231.66 276.55,235.44 278.6,239.14 274.42,238.52 271.53,241.6 
		270.84,237.43 267.01,235.64 270.76,233.69 	"/>
</g>
<g>
	<polygon class="st0" points="279.17,212.98 281.99,216.13 286.18,215.59 284.06,219.24 285.87,223.06 281.74,222.17 278.66,225.07 
		278.23,220.87 274.52,218.84 278.39,217.13 	"/>
</g>
<g>
	<polygon class="st0" points="177.24,269.25 179.54,272.8 183.76,272.92 181.1,276.2 182.29,280.25 178.35,278.74 174.86,281.12 
		175.09,276.9 171.74,274.32 175.82,273.23 	"/>
</g>
<g>
	<polygon class="st0" points="200.05,263.61 202.62,266.97 206.84,266.76 204.44,270.24 205.94,274.19 201.89,272.98 198.6,275.63 
		198.5,271.4 194.96,269.09 198.95,267.69 	"/>
</g>
<g>
	<polygon class="st0" points="223.05,255.3 225.66,258.62 229.88,258.35 227.52,261.86 229.08,265.79 225.02,264.64 221.76,267.33 
		221.6,263.11 218.03,260.85 222,259.39 	"/>
</g>
<g>
	<polygon class="st0" points="245.32,248.94 248.27,251.96 252.43,251.25 250.47,254.99 252.44,258.73 248.28,258.02 245.33,261.04 
		244.72,256.86 240.93,255 244.71,253.12 	"/>
</g>
<g>
	<polygon class="st0" points="266.48,244.09 269.5,247.06 273.65,246.25 271.76,250.03 273.8,253.73 269.62,253.11 266.74,256.19 
		266.04,252.02 262.21,250.23 265.96,248.28 	"/>
</g>
<g>
	<polygon class="st0" points="191.44,276.22 193.73,279.77 197.96,279.89 195.3,283.17 196.49,287.22 192.54,285.7 189.06,288.09 
		189.28,283.87 185.94,281.29 190.02,280.2 	"/>
</g>
<g>
	<polygon class="st0" points="214.07,268.31 216.64,271.67 220.86,271.46 218.46,274.94 219.96,278.89 215.91,277.68 212.62,280.33 
		212.52,276.11 208.98,273.8 212.97,272.39 	"/>
</g>
<g>
	<polygon class="st0" points="237.37,261.29 239.98,264.61 244.2,264.34 241.85,267.86 243.41,271.78 239.34,270.63 236.09,273.33 
		235.93,269.1 232.36,266.84 236.32,265.38 	"/>
</g>
<g>
	<polygon class="st0" points="258.77,256.31 261.72,259.34 265.88,258.62 263.92,262.36 265.89,266.1 261.72,265.39 258.78,268.42 
		258.16,264.24 254.37,262.37 258.16,260.5 	"/>
</g>
<g>
	<polygon class="st0" points="280.68,250.79 283.69,253.75 287.84,252.95 285.95,256.73 288,260.43 283.82,259.8 280.93,262.89 
		280.23,258.72 276.41,256.93 280.16,254.98 	"/>
</g>
<g>
	<polygon class="st0" points="286.2,235.56 289.02,238.7 293.21,238.16 291.09,241.82 292.9,245.64 288.77,244.75 285.69,247.65 
		285.26,243.45 281.55,241.42 285.42,239.71 	"/>
</g>
<g>
	<polygon class="st0" points="181.13,289.54 183.43,293.09 187.66,293.21 184.99,296.49 186.19,300.54 182.24,299.02 178.75,301.41 
		178.98,297.19 175.63,294.61 179.72,293.52 	"/>
</g>
<g>
	<polygon class="st0" points="203.94,282.7 206.51,286.05 210.73,285.85 208.33,289.32 209.83,293.27 205.78,292.06 202.49,294.71 
		202.39,290.49 198.85,288.18 202.84,286.78 	"/>
</g>
<g>
	<polygon class="st0" points="228.14,274.38 230.75,277.7 234.97,277.44 232.62,280.95 234.17,284.88 230.11,283.72 226.85,286.42 
		226.69,282.2 223.12,279.93 227.09,278.48 	"/>
</g>
<g>
	<polygon class="st0" points="249.21,268.02 252.16,271.05 256.33,270.33 254.36,274.07 256.33,277.81 252.17,277.1 249.22,280.13 
		248.61,275.95 244.82,274.08 248.6,272.21 	"/>
</g>
<g>
	<polygon class="st0" points="271.58,263.18 274.59,266.14 278.74,265.34 276.85,269.12 278.89,272.82 274.71,272.19 271.83,275.28 
		271.13,271.11 267.31,269.32 271.06,267.37 	"/>
</g>
<g>
	<polygon class="st0" points="294.9,259.45 297.72,262.59 301.91,262.05 299.79,265.71 301.6,269.53 297.47,268.64 294.39,271.54 
		293.96,267.34 290.25,265.31 294.12,263.6 	"/>
</g>
</svg>
