<?xml version="1.0" encoding="utf-8"?>
<!-- Generator: Adobe Illustrator 24.1.3, SVG Export Plug-In . SVG Version: 6.00 Build 0)  -->
<svg version="1.1" id="Layer_1" xmlns="http://www.w3.org/2000/svg" xmlns:xlink="http://www.w3.org/1999/xlink" x="0px" y="0px"
	 viewBox="0 0 600 600" style="enable-background:new 0 0 600 600;" xml:space="preserve">
<style type="text/css">
	.st0{fill:#B884C1;}
	.st1{fill:#FA9A86;}
	.st2{fill:#863399;}
	.st3{fill:#E64783;}
	.st4{fill:none;stroke:#000000;stroke-width:6;stroke-miterlimit:10;}
	.st5{fill:#FFDD92;}
	.st6{fill:#FFC844;}
	.st7{fill:#6CCA98;}
	.st8{fill:#1C355E;}
	.st9{fill:#757F9B;}
	.st10{fill:#E74F3D;}
	.st11{fill:#FFFFFF;}
	.st12{fill:#F697B2;}
	.st13{fill:#A9E0C0;}
	.st14{fill:none;stroke:#000000;stroke-width:2;stroke-miterlimit:10;}
	.st15{opacity:0.41;}
	.st16{stroke:#000000;stroke-width:4;stroke-miterlimit:10;}
	.st17{fill:none;stroke:#414042;stroke-width:2;stroke-miterlimit:10;}
	.st18{fill:#52BD8C;}
	.st19{fill:#EC5535;}
	.st20{stroke:#000000;stroke-miterlimit:10;}
	.st21{fill:none;stroke:#000000;stroke-miterlimit:10;}
	.st22{fill:none;stroke:#000000;stroke-width:3;stroke-miterlimit:10;}
	.st23{fill:#FFFFFF;stroke:#000000;stroke-width:6;stroke-miterlimit:10;}
	.st24{fill:none;}
	.st25{fill:none;stroke:#000000;stroke-width:8;stroke-linecap:round;stroke-linejoin:round;stroke-miterlimit:10;}
	.st26{fill-rule:evenodd;clip-rule:evenodd;fill:#E74F3D;}
	.st27{fill-rule:evenodd;clip-rule:evenodd;fill:#6CCA98;}
	.st28{fill-rule:evenodd;clip-rule:evenodd;fill:#E64783;}
	.st29{fill:none;stroke:#000000;stroke-width:12;stroke-miterlimit:10;}
	.st30{fill:none;stroke:#000000;stroke-width:10;stroke-miterlimit:10;}
</style>
<g>
	<rect class="st12" width="600" height="600"/>
</g>
<g>
	<path class="st3" d="M499.58,527.2H100.42c-15.25,0-27.62-12.36-27.62-27.62V100.42c0-15.25,12.36-27.62,27.62-27.62h399.16
		c15.25,0,27.62,12.36,27.62,27.62v399.16C527.2,514.83,514.83,527.2,499.58,527.2z"/>
</g>
<g>
	<polygon class="st12" points="398.37,204.61 413.84,167.52 399.49,95.12 243.07,146.33 154.25,285.43 160.37,383.09 105.38,460.47 
		138.06,489.03 230.96,410.73 230.96,410.73 254.56,268.6 	"/>
</g>
<g>
	<polygon class="st6" points="261.27,407.44 235.61,482.73 370.02,500.92 405.84,392.39 430.38,403.57 435.08,490.25 456.77,486.29 
		455.47,398.78 476.48,369.16 460.11,268.85 397.62,248.64 307.87,264.59 256.62,326.6 	"/>
</g>
<g>
	<path d="M264.25,403.04c-8.91-0.14-29.69-1.14-30.1-7.46c-0.14-2.21-0.46-5.03-0.84-8.29c-2.89-25.31-8.9-77.98,33.27-125.87
		c42.51-48.28,108.71-53.75,109.37-53.8l0.23-0.02l0.22,0.05l24.3,5.61l-6.68,41.33l-2.96-0.48l6.23-38.56l-21.33-4.93
		c-4.21,0.38-66.66,6.81-107.13,52.78c-41.29,46.89-35.38,98.67-32.54,123.55c0.38,3.3,0.7,6.15,0.85,8.44
		c0.11,1.77,10.5,4.4,27.15,4.65L264.25,403.04z"/>
</g>
<g>
	<path d="M116.98,491.88c-0.1,0-0.21,0-0.3-0.01c-1.08-0.1-1.96-0.65-2.49-1.55c-5.23-8.96-4.74-47.88-4.72-49.53l0.01-0.64
		l0.46-0.44c0.11-0.1,11.23-10.6,22.07-23.19c14.14-16.43,21.4-28.89,20.99-36.04l-0.11-1.86c-3.64-62.99-5.3-91.74,52.9-182
		c30.48-47.26,83.14-70.52,121.95-81.71c41.97-12.1,77.25-13.08,77.6-13.09l1.74-0.04l-9.12,73.31l0.89,13.73l-9.05,19.93
		l-2.73-1.24l8.74-19.25L394.95,175l8.72-70.11c-7.57,0.36-38.83,2.44-75.17,12.92c-38.29,11.05-90.23,33.98-120.19,80.44
		c-57.67,89.43-56.03,117.88-52.43,180.2l0.11,1.86c1.04,18.11-38.5,56.36-43.54,61.15c-0.13,11.5,0.4,40.63,4.32,47.35
		c0.03,0.05,0.04,0.06,0.18,0.08c0.05,0.01,0.11,0.01,0.17,0.01c6.21,0,33.73-27.97,56.72-54.58l0.3-0.35l27.05-7.14l27.78-30.84
		l2.23,2.01l-28.38,31.51l-27.02,7.13C167.07,446.72,127.4,491.88,116.98,491.88z"/>
</g>
<g>
	<path d="M241.9,483.72l-1.28-2.71l14.74-6.93l31.77-30.27l-2.81-43.46c-0.84-4.12-7.12-35.99-2.62-44.18
		c4.94-8.99,13.1-13.53,21.28-11.86l-0.6,2.94c-6.85-1.4-13.77,2.57-18.05,10.37c-3.39,6.18,0.98,32.58,2.95,42.24l0.03,0.2
		l2.9,44.97l-33.14,31.58L241.9,483.72z"/>
</g>
<g>
	<path d="M324.51,374.08l-22.65-15.69l2.56-20.27l18.89-6.22l9.29-18.82l0.51-0.22l119.62-51.07l20.78,37.73l-0.03,0.44l-4.02,61.08
		l-72.44-15.54l-34.97,19.68L324.51,374.08z M305.07,356.96l20.05,13.89l35.85-8.5l35.59-20.03l70.16,15.05l3.76-57.18l-19.05-34.58
		L334.81,315.4l-9.36,18.95l-18.29,6.02L305.07,356.96z"/>
</g>
<g>
	<polygon points="407.59,459.07 342.2,454.96 323.35,372.8 326.28,372.13 344.62,452.11 400.66,455.63 379.47,431.07 390.21,393.74 
		360.47,364.85 362.56,362.69 393.59,392.85 382.8,430.34 	"/>
</g>
<g>
	<path d="M358.59,494.2l-0.75-0.02l-123.87-3.44l5.62-16.98l11.15-3.99c1.67-2.6,10.6-16.59,16.55-28.26
		c2.95-5.79,0.73-14.07-2.62-26.61c-3.62-13.53-8.58-32.06-9.09-57.01c-0.88-43.25,22.74-76.24,74.33-103.84
		c18.73-10.02,42.29-10.14,68.12-0.36c19.4,7.35,33.47,17.81,33.61,17.92l-1.8,2.4c-0.14-0.1-13.92-10.35-32.94-17.54
		c-17.41-6.58-42.92-11.89-65.58,0.22c-50.49,27-73.6,59.14-72.75,101.13c0.5,24.58,5.41,42.91,8.99,56.3
		c3.41,12.73,5.87,21.93,2.4,28.75c-6.63,13.01-16.88,28.8-16.98,28.96l-0.28,0.42l-10.73,3.83l-3.89,11.76l119.1,3.3l23.61-29.49
		l2.34,1.88L358.59,494.2z"/>
</g>
<g>
	<path d="M439.62,484.7L429,449.53l0.03-0.3l5.29-53.17l-8.65-3.85l-7.68-14.38l-17.77,4.55l-3.68,7.16l-2.67-1.37l4.3-8.36
		l21.35-5.47l8.31,15.55l9.69,4.32l-5.48,55.03l9.65,31.96l12.94-2.77c-0.95-5.24-4.14-23.09-4.64-30.77
		c-0.55-8.47,7.87-31,9.36-34.92l-10.16-25.77l15.75-24.44l2.52,1.62l-14.92,23.15l10.02,25.43l-0.21,0.55
		c-0.1,0.26-9.92,25.75-9.37,34.19c0.56,8.68,4.82,31.62,4.86,31.85l0.27,1.44L439.62,484.7z"/>
</g>
</svg>
