<?xml version="1.0" encoding="utf-8"?>
<!-- Generator: Adobe Illustrator 24.1.3, SVG Export Plug-In . SVG Version: 6.00 Build 0)  -->
<svg version="1.1" id="Layer_1" xmlns="http://www.w3.org/2000/svg" xmlns:xlink="http://www.w3.org/1999/xlink" x="0px" y="0px"
	 viewBox="0 0 600 600" style="enable-background:new 0 0 600 600;" xml:space="preserve">
<style type="text/css">
	.st0{fill:#B884C1;}
	.st1{fill:#FA9A86;}
	.st2{fill:#863399;}
	.st3{fill:#E64783;}
	.st4{fill:none;stroke:#000000;stroke-width:6;stroke-miterlimit:10;}
	.st5{fill:#FFDD92;}
	.st6{fill:#FFC844;}
	.st7{fill:#6CCA98;}
	.st8{fill:#1C355E;}
	.st9{fill:#757F9B;}
	.st10{fill:#E74F3D;}
	.st11{fill:#FFFFFF;}
	.st12{fill:#F697B2;}
	.st13{fill:#A9E0C0;}
	.st14{fill:none;stroke:#000000;stroke-width:2;stroke-miterlimit:10;}
	.st15{opacity:0.41;}
	.st16{stroke:#000000;stroke-width:4;stroke-miterlimit:10;}
	.st17{fill:none;stroke:#414042;stroke-width:2;stroke-miterlimit:10;}
	.st18{fill:#52BD8C;}
	.st19{fill:#EC5535;}
	.st20{stroke:#000000;stroke-miterlimit:10;}
	.st21{fill:none;stroke:#000000;stroke-miterlimit:10;}
	.st22{fill:none;stroke:#000000;stroke-width:3;stroke-miterlimit:10;}
	.st23{fill:#FFFFFF;stroke:#000000;stroke-width:6;stroke-miterlimit:10;}
	.st24{fill:none;}
	.st25{fill:none;stroke:#000000;stroke-width:8;stroke-linecap:round;stroke-linejoin:round;stroke-miterlimit:10;}
	.st26{fill-rule:evenodd;clip-rule:evenodd;fill:#E74F3D;}
	.st27{fill-rule:evenodd;clip-rule:evenodd;fill:#6CCA98;}
	.st28{fill-rule:evenodd;clip-rule:evenodd;fill:#E64783;}
	.st29{fill:none;stroke:#000000;stroke-width:12;stroke-miterlimit:10;}
	.st30{fill:none;stroke:#000000;stroke-width:10;stroke-miterlimit:10;}
</style>
<g>
	<rect y="0" class="st1" width="600" height="600"/>
</g>
<g>
	<path class="st10" d="M527.19,100.42v399.16c0,15.25-12.36,27.62-27.61,27.62H100.42c-15.25,0-27.62-12.37-27.62-27.62V100.42
		c0-15.25,12.37-27.61,27.62-27.61h399.16C514.83,72.81,527.19,85.17,527.19,100.42z"/>
</g>
<g>
	<g>
		<path d="M209.58,72.81L72.8,324.48v11.17L215.64,72.81H209.58z M72.8,415.17v6.06L267.79,527.2h11.15L72.8,415.17z M425.93,527.2
			l101.26-186.31v-11.15L419.88,527.2H425.93z M284.18,72.81h-11.14l254.15,138.13v-6.07L284.18,72.81z"/>
	</g>
	<g>
		<path d="M502.84,236.61l24.35,13.23v-6.06L232.98,83.88L72.8,378.62v13.2L321.9,527.2h11.16l-33.15-18.01L312.78,486l6.77-12.19
			l36.81,20.43l-18.29,32.96h50.23l6.62-11.94l0.03-0.05l0.17,0.09l0.29,0.16l20.29-36.72l0.03,0.01l20.79-37.45l0.02-0.05
			l0.46,0.25l20.12-36.42l0.2,0.1l0.29,0.17l11.12-20.04L391.61,527.2h6.07l129.51-238.3v-11.16l-8.08,14.87l-36.17-19.97
			l10.12-18.32L502.84,236.61z M247.89,336.23l10.09-18.27l9.89-17.91l37.23,20.66l-19.96,36.15l-17.93-9.91L247.89,336.23z
			 M264.27,394.7l-20.15,36.49l-0.01-0.01l20.15-36.49L264.27,394.7z M229.47,278.74l-9.93,17.99l-10.05,18.19l-36.82-20.43
			l19.98-36.18L229.47,278.74z M214.55,221.08l20.12-36.43l26.42,14.59l10.43,5.79l-10.1,18.29l-10.05,18.2L214.55,221.08z
			 M202.93,328l6.7-12.08l0.05,0.03v-0.01l36.82,20.34l-20.23,36.44l-0.03-0.01l-36.83-20.35L202.93,328z M231.46,278.65
			l13.35-24.06l6.7-12.08l0.05,0.03l36.82,20.33l-20.06,36.14l-0.2-0.11l-0.29-0.16L231.46,278.65z M327.02,283.45l-18.05-9.97
			l-19.21-10.65l10.1-18.28l10.06-18.21l0.15,0.08l0.29,0.16L347.15,247L327.02,283.45z M347.73,247.32L347.73,247.32l-20.14,36.5
			l-0.01-0.01L347.73,247.32z M326.82,284.11l-20.05,36.14l-0.01-0.01l20.05-36.14L326.82,284.11z M305.69,321.04l-19.98,36.18
			h-0.01L305.69,321.04z M284.94,357.51L284.94,357.51l-20.22,36.45l-0.01-0.01L284.94,357.51z M285.51,357.87l37.23,20.67
			l-13.53,24.39l-6.63,11.94l-37.28-20.59L285.51,357.87z M307.35,320.57l20.04-36.1l37.23,20.66l-13.54,24.39l-6.46,11.64
			l-0.6-0.34l-0.29-0.16h-0.01L307.35,320.57z M348.18,246.58l20.23-36.44h0.01l-20.23,36.45L348.18,246.58z M344.09,342.35
			l36.82,20.43l-9.76,17.68l-10.12,18.32l-36.86-20.36L344.09,342.35z M366.05,305.01l20.09-36.37l36.82,20.43l-9.94,17.99
			l-10.11,18.31L366.05,305.01z M396.25,338.63l6.77-12.19l36.82,20.43l-19.91,35.88l-0.49-0.27l-36.37-20.09L396.25,338.63z
			 M424.49,288.73l13.35-24.06l6.77-12.2l36.82,20.44l-20.08,36.18l-0.03-0.02L424.49,288.73z M427.26,195.53l37,20.11l-9.64,17.45
			L444.5,251.4l-36.86-20.35L427.26,195.53z M392.68,255.55l-6.63,11.95l-37.28-20.59l20.21-36.41l37.23,20.66L392.68,255.55z
			 M388.67,174.56l-19.49,35.29h-0.01L388.67,174.56L388.67,174.56z M341.45,170.59l9.21-16.69l37.42,20.34l-19.47,35.25l-17.7-9.78
			l-19.55-10.85L341.45,170.59z M309.74,225.35l-0.03-0.02l-36.83-20.34l13.52-24.36l6.7-12.08l0.06,0.02l36.81,20.34L309.74,225.35
			z M275.08,112.83l37,20.1l-9.07,16.43l-10.05,18.19l-36.82-20.43L275.08,112.83z M241.24,171.51l-6.77,12.2l-37.23-20.67
			l20.15-36.31l37.28,20.58L241.24,171.51z M235.11,91.11l1.39,0.75l-18.76,33.95l-0.17-0.09l-0.29-0.17l-20.7,37.3l-0.03-0.02
			l-20.4,36.94l-0.07-0.04L235.11,91.11z M163.92,222.09l11.88-21.4l37.27,20.59l-13.42,24.2l-6.63,11.94l-0.61-0.34l-0.29-0.16
			l-36.25-20.02L163.92,222.09z M135.26,274.84l35.93,19.85l-13.42,24.19l-6.77,12.2l-35.58-19.75L135.26,274.84z M74.48,386.67
			l0.1-0.19l21.63,12L74.48,386.67z M116.17,392.85l-6.76,12.19L74.9,385.89l19.84-36.5l34.86,19.26L116.17,392.85z M151.2,332.02
			l26.28,14.52l10.57,5.86l-10.1,18.29l-10.05,18.2l-36.82-20.44L151.2,332.02z M184.73,446.59l-22.17-12.05l-14.75-8.19
			l13.53-24.39l6.7-12.08l0.05,0.03l36.81,20.33L184.73,446.59z M216.39,391.92l10.06-18.21l0.15,0.08l0.29,0.16l36.79,20.42
			l-20.13,36.45L225.76,421l-19.47-10.8L216.39,391.92z M223.32,467.56l20.02-36.09l0.01,0.01l-20.02,36.08H223.32z M267.61,476.89
			l-6.28,11.33l-37.42-20.34l20.01-36.04l37.23,20.66L267.61,476.89z M329.55,454.43l-10.11,18.31l-36.86-20.36l20.09-36.37
			l36.82,20.43L329.55,454.43z M341.02,436.1l13.35-24.06l6.77-12.2l36.82,20.44l-20.08,36.18l-0.03-0.02L341.02,436.1z
			 M395.15,514.56l-37.27-20.59l10.11-18.31l9.89-17.91l0.15,0.08l0.29,0.16l36.8,20.42L395.15,514.56z M436.74,440.59l-37.27-20.58
			l10.11-18.31l9.73-17.61l37.23,20.66L436.74,440.59z M498.3,330.88l-19.71,36.29l-37.24-20.57l10.11-18.31l9.9-17.91l0.15,0.08
			l0.29,0.16L498.3,330.88z"/>
	</g>
</g>
<g>
	<polygon class="st1" points="245.5,474.2 102.64,449.8 240.93,153.91 286.15,161.77 	"/>
</g>
<g>
	<polygon class="st1" points="491.77,423.73 368.46,499.87 276.6,186.44 315.72,162.45 	"/>
</g>
<g>
	<path d="M238.58,461.44c-0.21,0-0.42-0.03-0.62-0.09l-115.69-35.58c-0.7-0.22-1.23-0.77-1.41-1.48s0.01-1.44,0.52-1.97l24.96-25.73
		l3.91-12.71l6.03,1.85l59.47-119.22l-9.44-2.9c-1.08-0.33-1.88-1.22-2.1-2.32c-0.22-1.1,0.18-2.23,1.05-2.95l9.07-7.49l-0.71-38.36
		c-0.03-1.49,0.64-2.86,1.83-3.75c1.19-0.9,2.69-1.16,4.12-0.72l10.5,3.23l12.81-14.22l-9.52-2.93l5.66-18.39l11.59,3.56l4.37-14.07
		l12.38-5.29l7.27,11.33l-4.18,14.14l11.48,3.53l-5.66,18.39l-9.52-2.93l2.61,18.96l10.5,3.23c1.42,0.44,2.52,1.5,3,2.91
		c0.48,1.41,0.26,2.92-0.6,4.14l-22.14,31.34l3.29,11.29c0.31,1.08,0.01,2.24-0.79,3.03c-0.8,0.79-1.96,1.07-3.04,0.74l-9.44-2.9
		l-17.8,132.03l6.03,1.85l-3.91,12.71l6.18,35.31c0.13,0.72-0.13,1.44-0.68,1.93C239.56,461.26,239.08,461.44,238.58,461.44z
		 M124.58,423.34l112.84,34.7l-6.05-34.55l3.24-10.53l-5.59-1.72l18.61-138.06l12.82,3.94l-3.63-12.75l0.42-0.59l22.56-31.93
		c0.3-0.42,0.37-0.95,0.21-1.44c-0.17-0.49-0.55-0.86-1.04-1.01l-12.33-3.79l-3.51-25.51l11.14,3.43l3.89-12.66l-11.45-3.52
		l4.63-15.67l-5.15-8.04l-8.77,3.75l-4.85,15.61l-11.58-3.56l-3.89,12.66l11.15,3.43l-17.24,19.13l-12.33-3.79
		c-0.5-0.15-1.02-0.06-1.43,0.25c-0.41,0.31-0.64,0.79-0.63,1.3l0.74,39.81l-10.18,8.42l12.84,4.03l-62.18,124.66l-5.59-1.72
		L149,398.16L124.58,423.34z"/>
</g>
<g>
	<path d="M361.26,466.33c-0.41,0-0.81-0.12-1.17-0.36c-0.61-0.41-0.95-1.09-0.91-1.82l1.68-35.8l-5.48-12.12l5.75-2.6l-34.31-128.74
		l-9,4.07c-1.02,0.47-2.21,0.33-3.11-0.35s-1.34-1.79-1.16-2.9l1.84-11.62l-25.92-28.29c-1.01-1.1-1.41-2.57-1.11-4.03
		c0.3-1.46,1.25-2.65,2.61-3.26l10-4.53l0.2-19.13l-9.07,4.1l-7.93-17.53l11.04-5l-6.04-13.44l5.78-12.16l12.94,3.69l6.22,13.36
		l10.94-4.95l7.93,17.53l-9.07,4.1l14.5,12.49l10.01-4.53c1.36-0.62,2.88-0.54,4.17,0.2c1.29,0.74,2.13,2.01,2.29,3.5l4.14,38.14
		l9.94,6.29c0.95,0.6,1.49,1.67,1.41,2.79c-0.08,1.12-0.76,2.1-1.79,2.57l-9,4.07l74.03,110.77l5.75-2.6l5.48,12.12l28,22.38
		c0.57,0.46,0.86,1.16,0.77,1.89s-0.54,1.34-1.21,1.64l-110.28,49.88C361.85,466.27,361.55,466.33,361.26,466.33z M359.35,417.72
		l4.54,10.04l-0.02,0.36l-1.63,34.67l107.56-48.65l-27.4-21.9l-4.54-10.04l-5.33,2.41l-0.71-1.06l-76.7-114.77l12.22-5.53
		l-11.16-7.15l-4.29-39.58c-0.06-0.52-0.35-0.96-0.79-1.21c-0.45-0.26-0.98-0.28-1.45-0.07l-11.75,5.31l-19.51-16.81l10.62-4.81
		l-5.46-12.07l-10.91,4.94l-6.89-14.81l-9.18-2.62l-4.1,8.62l6.69,14.91l-11.04,4.99l5.46,12.07l10.62-4.81l-0.26,25.75l-11.75,5.31
		c-0.47,0.21-0.8,0.63-0.91,1.13c-0.1,0.51,0.04,1.02,0.39,1.4l26.9,29.36l-2.07,13.05l12.3-5.47l35.88,134.61L359.35,417.72z"/>
</g>
</svg>
