<?xml version="1.0" encoding="utf-8"?>
<!-- Generator: Adobe Illustrator 24.1.3, SVG Export Plug-In . SVG Version: 6.00 Build 0)  -->
<svg version="1.1" id="Layer_1" xmlns="http://www.w3.org/2000/svg" xmlns:xlink="http://www.w3.org/1999/xlink" x="0px" y="0px"
	 viewBox="0 0 600 600" style="enable-background:new 0 0 600 600;" xml:space="preserve">
<style type="text/css">
	.st0{fill:#B884C1;}
	.st1{fill:#FA9A86;}
	.st2{fill:#863399;}
	.st3{fill:#E64783;}
	.st4{fill:none;stroke:#000000;stroke-width:6;stroke-miterlimit:10;}
	.st5{fill:#FFDD92;}
	.st6{fill:#FFC844;}
	.st7{fill:#6CCA98;}
	.st8{fill:#1C355E;}
	.st9{fill:#757F9B;}
	.st10{fill:#E74F3D;}
	.st11{fill:#FFFFFF;}
	.st12{fill:#F697B2;}
	.st13{fill:#A9E0C0;}
	.st14{fill:none;stroke:#000000;stroke-width:2;stroke-miterlimit:10;}
	.st15{opacity:0.41;}
	.st16{stroke:#000000;stroke-width:4;stroke-miterlimit:10;}
	.st17{fill:none;stroke:#414042;stroke-width:2;stroke-miterlimit:10;}
	.st18{fill:#52BD8C;}
	.st19{fill:#EC5535;}
	.st20{stroke:#000000;stroke-miterlimit:10;}
	.st21{fill:none;stroke:#000000;stroke-miterlimit:10;}
	.st22{fill:none;stroke:#000000;stroke-width:3;stroke-miterlimit:10;}
	.st23{fill:#FFFFFF;stroke:#000000;stroke-width:6;stroke-miterlimit:10;}
	.st24{fill:none;}
	.st25{fill:none;stroke:#000000;stroke-width:8;stroke-linecap:round;stroke-linejoin:round;stroke-miterlimit:10;}
	.st26{fill-rule:evenodd;clip-rule:evenodd;fill:#E74F3D;}
	.st27{fill-rule:evenodd;clip-rule:evenodd;fill:#6CCA98;}
	.st28{fill-rule:evenodd;clip-rule:evenodd;fill:#E64783;}
	.st29{fill:none;stroke:#000000;stroke-width:12;stroke-miterlimit:10;}
	.st30{fill:none;stroke:#000000;stroke-width:10;stroke-miterlimit:10;}
</style>
<g>
	<rect x="-0.06" y="0" class="st9" width="600" height="600"/>
</g>
<g>
	<path class="st8" d="M499.58,527.2H100.42c-15.25,0-27.62-12.36-27.62-27.62V100.42c0-15.25,12.36-27.62,27.62-27.62h399.16
		c15.25,0,27.62,12.36,27.62,27.62v399.16C527.2,514.83,514.83,527.2,499.58,527.2z"/>
</g>
<g>
	<polygon class="st0" points="383.77,218.03 402.62,209.81 370.52,136.24 355.51,153.24 	"/>
</g>
<g>
	<polygon class="st0" points="341.57,198.37 356.16,212.86 421.55,155.9 391.71,155.91 	"/>
</g>
<g>
	<polygon class="st0" points="508.22,386.37 121.24,386.37 115.24,331.79 502.22,331.79 	"/>
</g>
<g>
	<polygon class="st0" points="482.68,487.45 101.18,503.46 112.01,425.55 501.2,417.16 	"/>
</g>
<g>
	<polygon class="st9" points="490.84,419.31 109.34,429.47 120.17,380.05 509.36,374.73 	"/>
</g>
<g>
	<path class="st0" d="M144.53,331.79l338.15,0.01c0-80.44-25.62-153.47-132.37-152.13C262.37,180.77,144.53,251.35,144.53,331.79z"
		/>
</g>
<g>
	<path d="M491.88,495.53H108v-74.77h383.88V495.53z M111,492.53h377.88v-68.77H111V492.53z"/>
</g>
<g>
	<path d="M483.51,423.75H133.49v-42.51h350.03V423.75z M136.49,420.75h344.03v-36.51H136.49V420.75z"/>
</g>
<g>
	<polygon points="491.88,384.25 125.12,384.25 125.12,330.29 176.7,330.29 176.7,333.29 128.12,333.29 128.12,381.25 488.88,381.25 
		488.88,333.29 318.27,333.29 318.27,330.29 491.88,330.29 	"/>
</g>
<g>
	<path d="M457.86,321.3l-3-0.16c0.9-17.18,2.4-45.92-5.86-73c-9.49-31.09-29.85-52.38-60.51-63.28
		c-32.41-11.51-68.85-9.6-105.39,5.53c-33.56,13.9-64.5,37.97-87.13,67.79l-2.39-1.81c22.94-30.23,54.33-54.65,88.37-68.74
		c37.24-15.42,74.43-17.35,107.55-5.59c31.61,11.23,52.6,33.18,62.38,65.23C459.64,272.72,459.03,298.83,457.86,321.3z"/>
</g>
<g>
	<path d="M251.41,355.53c-4.75,0-9.64-0.28-14.68-0.86c-23.83-2.78-50.73-7.58-68.41-29.54c-5.66-7.03-14.04-23.12-9.55-38.82
		c3.81-13.32,15.76-23.56,35.51-30.45l0.99,2.83c-18.78,6.55-30.09,16.12-33.61,28.44c-4.16,14.53,3.7,29.54,9,36.12
		c16.97,21.07,43.18,25.73,66.42,28.44c5.06,0.59,9.91,0.86,14.55,0.86c27.01,0,46.97-9.13,59.58-17.5
		c18.46-12.25,28.64-27.78,30.54-37.74l2.95,0.56C340.54,319.64,305.51,355.53,251.41,355.53z"/>
</g>
<g>
	<path d="M418.79,333.18c-3.84,0-7.9-0.2-12.18-0.64c-48.72-5-61.9-27.93-64.35-33.35c-9.14,0.87-44.5,3.11-85.53-8.97
		c-36.2-10.66-62.63-31.56-62.89-31.77l1.87-2.34c0.26,0.21,26.25,20.75,61.87,31.24c42.43,12.49,78.66,9.48,85.49,8.75l1.18-0.13
		l0.39,1.13c0.09,0.27,10.18,27.12,62.28,32.46c29.94,3.07,45.81-5.65,48.2-9.17l1.84-2.71l0.85,3.17c0.05,0.19,1.23,4.64,1.6,10.87
		l-2.99,0.18c-0.19-3.11-0.59-5.78-0.93-7.62C449.99,328.7,437,333.18,418.79,333.18z"/>
</g>
<g>
	<path d="M382.45,181.32c-1.79-0.15-3.57,0.06-5.33,0.32c-1.76,0.25-3.5,0.66-5.23,1.07c-3.45,0.88-6.84,2.01-10.18,3.24
		c-6.7,2.43-13.22,5.34-19.61,8.48c-6.36,3.19-12.63,6.59-18.62,10.4c-6.01,3.78-11.83,7.87-17.11,12.55
		c-5.26,4.66-10.07,9.94-14.48,15.47c-4.44,5.53-8.45,11.42-12.13,17.49c-3.65,6.1-6.94,12.42-9.66,19
		c-2.79,6.55-4.88,13.42-5.66,20.55c0.05-3.58,0.51-7.18,1.3-10.69c0.37-1.76,0.88-3.49,1.33-5.24c0.55-1.71,1.05-3.45,1.65-5.15
		c2.43-6.79,5.48-13.35,9.01-19.65c7.07-12.58,15.85-24.27,26.66-34.04c5.49-4.78,11.44-8.94,17.6-12.7
		c6.18-3.74,12.56-7.12,19.11-10.1c6.55-2.99,13.26-5.64,20.15-7.76c3.45-1.03,6.94-1.95,10.48-2.63
		C375.24,181.32,378.88,180.79,382.45,181.32z"/>
</g>
<g>
	<path d="M344.57,298.23l-2.71-1.3c5.33-11.09,9.94-22.86,15.79-37.76c2.37-6.04,5.05-12.88,8.02-20.28
		c6.91-17.2,15.22-57.47,15.3-57.87l2.94,0.6c-0.34,1.66-8.45,40.94-15.46,58.39c-2.96,7.38-5.65,14.22-8.01,20.25
		C354.58,275.22,349.95,287.04,344.57,298.23z"/>
</g>
<g>
	<path d="M384.41,181.18c-0.87,0-1.71-0.14-2.51-0.45l-0.95-0.37l-0.01-1.01c0-0.01,0-0.16-0.01-0.43
		c-0.76,0.07-1.57-0.05-2.42-0.38c-6.85-2.67-15.37-12.88-16.08-22.06c-0.4-5.12,1.69-9.16,6.03-11.67c2.94-1.7,5.2-1.12,6.58-0.34
		c6.33,3.61,8.16,20.01,8.69,29.08c1.67-2.21,3.3-5.68,4.91-9.09c4-8.5,8.54-18.14,16.54-15.31c2.43,0.86,3.94,2.54,4.34,4.88
		c1.07,6.1-5.88,15.56-12.97,21.37C393.72,177.72,388.76,181.18,384.41,181.18z M383.93,178.15c2.52,0.25,6.5-1.61,10.73-5.08
		c7.31-5.99,12.66-14.31,11.92-18.53c-0.22-1.25-0.98-2.07-2.39-2.57c-5.06-1.79-8.51,4.58-12.83,13.76
		c-2.25,4.78-4.55,9.66-7.44,11.92C383.92,177.82,383.92,177.99,383.93,178.15z M372.19,146.69c-0.58,0-1.3,0.18-2.21,0.71
		c-3.32,1.92-4.85,4.9-4.54,8.85c0.6,7.76,8.29,17.21,14.17,19.5c0.41,0.16,0.82,0.19,1.23,0.11c-0.13-2.84-0.41-7.08-1-11.45
		c-1.75-12.97-4.68-16.42-6.27-17.33C373.23,146.88,372.79,146.69,372.19,146.69z"/>
</g>
<g>
	<rect x="135.87" y="422.25" width="6" height="71.22"/>
</g>
<g>
	<rect x="147.73" y="422.53" width="6" height="71.22"/>
</g>
<g>
	<rect x="448.99" y="422.39" width="6" height="71.22"/>
</g>
<g>
	<rect x="460.85" y="422.67" width="6" height="71.22"/>
</g>
<g>
	<rect x="467.6" y="331.8" width="6" height="50.95"/>
</g>
<g>
	<rect x="170.51" y="331.8" width="6" height="50.95"/>
</g>
</svg>
