<?xml version="1.0" encoding="utf-8"?>
<!-- Generator: Adobe Illustrator 24.1.3, SVG Export Plug-In . SVG Version: 6.00 Build 0)  -->
<svg version="1.1" id="Layer_1" xmlns="http://www.w3.org/2000/svg" xmlns:xlink="http://www.w3.org/1999/xlink" x="0px" y="0px"
	 viewBox="0 0 600 600" style="enable-background:new 0 0 600 600;" xml:space="preserve">
<style type="text/css">
	.st0{fill:#B884C1;}
	.st1{fill:#FA9A86;}
	.st2{fill:#863399;}
	.st3{fill:#E64783;}
	.st4{fill:none;stroke:#000000;stroke-width:6;stroke-miterlimit:10;}
	.st5{fill:#FFDD92;}
	.st6{fill:#FFC844;}
	.st7{fill:#6CCA98;}
	.st8{fill:#1C355E;}
	.st9{fill:#757F9B;}
	.st10{fill:#E74F3D;}
	.st11{fill:#FFFFFF;}
	.st12{fill:#F697B2;}
	.st13{fill:#A9E0C0;}
	.st14{fill:none;stroke:#000000;stroke-width:2;stroke-miterlimit:10;}
	.st15{opacity:0.41;}
	.st16{stroke:#000000;stroke-width:4;stroke-miterlimit:10;}
	.st17{fill:none;stroke:#414042;stroke-width:2;stroke-miterlimit:10;}
	.st18{fill:#52BD8C;}
	.st19{fill:#EC5535;}
	.st20{stroke:#000000;stroke-miterlimit:10;}
	.st21{fill:none;stroke:#000000;stroke-miterlimit:10;}
	.st22{fill:none;stroke:#000000;stroke-width:3;stroke-miterlimit:10;}
	.st23{fill:#FFFFFF;stroke:#000000;stroke-width:6;stroke-miterlimit:10;}
	.st24{fill:none;}
	.st25{fill:none;stroke:#000000;stroke-width:8;stroke-linecap:round;stroke-linejoin:round;stroke-miterlimit:10;}
	.st26{fill-rule:evenodd;clip-rule:evenodd;fill:#E74F3D;}
	.st27{fill-rule:evenodd;clip-rule:evenodd;fill:#6CCA98;}
	.st28{fill-rule:evenodd;clip-rule:evenodd;fill:#E64783;}
	.st29{fill:none;stroke:#000000;stroke-width:12;stroke-miterlimit:10;}
	.st30{fill:none;stroke:#000000;stroke-width:10;stroke-miterlimit:10;}
</style>
<g>
	<rect x="0" class="st0" width="600" height="600"/>
</g>
<g>
	<path class="st2" d="M499.42,527.2H100.25c-15.25,0-27.62-12.36-27.62-27.62V100.42c0-15.25,12.36-27.62,27.62-27.62h399.16
		c15.25,0,27.62,12.36,27.62,27.62v399.16C527.03,514.83,514.67,527.2,499.42,527.2z"/>
</g>
<g>
	<path class="st1" d="M278.01,498.91l4.58-0.7c20.8-3.19,35.24-22.09,32.09-42.01l-3.21-20.27c-3.15-19.92-22.75-33.61-43.56-30.43
		l-4.57,1.71l4.95,46.47L278.01,498.91z"/>
</g>
<g>
	<path class="st1" d="M191.99,504.79l-7.97,1.22c-22.41,3.44-43.33-10.05-46.49-29.97l-3.21-20.27
		c-3.16-19.92,12.6-39.03,35.01-42.46l8.85-1.36"/>
</g>
<g>
	<polygon class="st1" points="157.56,415.34 154.75,398.89 172.62,399.94 177.89,411.92 	"/>
</g>
<g>
	<path class="st1" d="M423.27,440.43c-1.13,15.87-14.91,27.84-30.78,26.71c-15.88-1.13-27.83-14.92-26.71-30.79
		c0.31-4.42,1.6-8.52,3.65-12.13c2.04-3.61,4.84-6.72,8.15-9.14c0,0,9.85-9.52,10.36-15.36c0.12-1.33,0.49-6.17,0.99-12.84
		c5.57,0.01,11.13,0.37,16.64,1.08c-0.66,1.24-1.58,2.57-1.65,3.44c-0.1,1.27,1.81,1.46,1.72,2.54c-0.33,4.28-0.55,6.95-0.55,6.95
		s0.64,2.8,1.67,5.92c1.04,3.12,2.47,6.55,4.06,7.82C418.96,420.22,424.02,429.85,423.27,440.43z"/>
</g>
<g>
	<circle class="st6" cx="204.39" cy="260" r="77.31"/>
</g>
<g>
	<path d="M209.1,331.61c-34.5,0-66.45-22.42-76.93-57.11l0,0c-12.8-42.39,11.28-87.3,53.67-100.1c42.38-12.8,87.3,11.28,100.1,53.67
		s-11.28,87.3-53.67,100.1C224.57,330.51,216.77,331.61,209.1,331.61z M137.92,272.77c5.74,19,18.53,34.63,36.02,44.01
		c17.49,9.38,37.59,11.38,56.59,5.65c19-5.74,34.63-18.53,44.01-36.02c9.38-17.49,11.39-37.59,5.65-56.59s-18.53-34.63-36.02-44.01
		c-17.49-9.38-37.59-11.38-56.59-5.65C148.36,192,126.08,233.55,137.92,272.77L137.92,272.77z"/>
</g>
<g>
	<path d="M209.02,284.52c-5.4,0-10.75-1.33-15.65-3.96c-7.82-4.19-13.53-11.18-16.1-19.67l0,0c-5.29-17.53,4.66-36.09,22.19-41.39
		c8.49-2.56,17.47-1.67,25.29,2.52s13.53,11.18,16.1,19.67s1.67,17.47-2.52,25.29c-4.19,7.82-11.18,13.53-19.67,16.1
		C215.48,284.04,212.24,284.52,209.02,284.52z M183.02,259.16c2.1,6.96,6.78,12.68,13.19,16.11c6.4,3.43,13.76,4.17,20.72,2.07
		c6.96-2.1,12.68-6.78,16.11-13.19c3.43-6.4,4.17-13.76,2.07-20.72c-4.34-14.36-19.55-22.52-33.91-18.18S178.68,244.8,183.02,259.16
		L183.02,259.16z"/>
</g>
<g>
	<path d="M209.09,299.38c-20.65,0-39.78-13.42-46.05-34.19c-3.71-12.29-2.41-25.3,3.66-36.62c6.07-11.32,16.18-19.6,28.48-23.31
		c12.29-3.71,25.3-2.41,36.62,3.66c11.32,6.07,19.6,16.18,23.31,28.48c7.66,25.38-6.75,52.26-32.13,59.92
		C218.34,298.71,213.68,299.38,209.09,299.38z M209.12,207.19c-4.28,0-8.58,0.63-12.8,1.9c-23.27,7.02-36.48,31.67-29.46,54.94
		s31.68,36.48,54.94,29.46c23.27-7.02,36.48-31.67,29.46-54.94c-3.4-11.27-10.99-20.54-21.37-26.11
		C223.39,208.96,216.29,207.19,209.12,207.19z"/>
</g>
<g>
	<rect x="196.04" y="206.84" transform="matrix(0.9573 -0.289 0.289 0.9573 -53.621 66.3977)" width="4" height="15.87"/>
</g>
<g>
	<rect x="184.21" y="212.82" transform="matrix(0.8007 -0.599 0.599 0.8007 -95.1277 155.5283)" width="4" height="15.87"/>
</g>
<g>
	<rect x="175.14" y="222.47" transform="matrix(0.5475 -0.8368 0.8368 0.5475 -112.6499 252.4819)" width="4" height="15.87"/>
</g>
<g>
	<rect x="169.93" y="234.65" transform="matrix(0.2283 -0.9736 0.9736 0.2283 -103.5062 354.5773)" width="4" height="15.87"/>
</g>
<g>
	<rect x="163.25" y="253.81" transform="matrix(0.993 -0.1181 0.1181 0.993 -29.0235 22.0163)" width="15.87" height="4"/>
</g>
<g>
	<rect x="167.08" y="266.49" transform="matrix(0.8927 -0.4507 0.4507 0.8927 -102.2304 107.7031)" width="15.87" height="4"/>
</g>
<g>
	<rect x="175.01" y="277.1" transform="matrix(0.6845 -0.729 0.729 0.6845 -145.742 221.4095)" width="15.87" height="4"/>
</g>
<g>
	<rect x="186.1" y="284.35" transform="matrix(0.3941 -0.9191 0.9191 0.3941 -145.6105 351.8325)" width="15.87" height="4"/>
</g>
<g>
	<rect x="198.78" y="286.81" transform="matrix(0.0557 -0.9984 0.9984 0.0557 -93.1527 479.1315)" width="15.87" height="4"/>
</g>
<g>
	<rect x="217.87" y="279.31" transform="matrix(0.9573 -0.289 0.289 0.9573 -73.6276 75.7944)" width="4" height="15.87"/>
</g>
<g>
	<rect x="229.91" y="273.9" transform="matrix(0.8007 -0.599 0.599 0.8007 -122.615 195.0849)" width="4" height="15.87"/>
</g>
<g>
	<rect x="238.98" y="264.24" transform="matrix(0.5476 -0.8368 0.8368 0.5476 -118.7242 324.7766)" width="4" height="15.87"/>
</g>
<g>
	<rect x="244.19" y="252.07" transform="matrix(0.2283 -0.9736 0.9736 0.2283 -63.1526 440.331)" width="4" height="15.87"/>
</g>
<g>
	<rect x="239" y="244.78" transform="matrix(0.993 -0.1181 0.1181 0.993 -27.4259 30.9022)" width="15.87" height="4"/>
</g>
<g>
	<rect x="235.17" y="232.1" transform="matrix(0.8927 -0.4507 0.4507 0.8927 -79.4188 134.7014)" width="15.87" height="4"/>
</g>
<g>
	<rect x="227.23" y="221.49" transform="matrix(0.6845 -0.729 0.729 0.6845 -88.7311 241.9347)" width="15.87" height="4"/>
</g>
<g>
	<rect x="216.15" y="214.24" transform="matrix(0.3941 -0.9191 0.9191 0.3941 -62.9608 336.9688)" width="15.87" height="4"/>
</g>
<g>
	<rect x="203.25" y="211.21" transform="matrix(0.0557 -0.9984 0.9984 0.0557 -13.4452 412.206)" width="15.87" height="4"/>
</g>
<g>
	<path d="M148.16,204.66c-2.15,0-4.13-1.39-4.78-3.56l-12.51-41.44c-3.81-12.62-2.46-26.01,3.81-37.7
		c6.27-11.69,16.67-20.23,29.29-24.04c12.62-3.81,26-2.46,37.7,3.81c11.69,6.27,20.23,16.67,24.04,29.29l5.52,18.29
		c0.8,2.64-0.7,5.43-3.34,6.23c-2.64,0.8-5.43-0.7-6.23-3.34l-5.52-18.29c-3.04-10.06-9.85-18.36-19.19-23.37
		c-9.33-5.01-20.02-6.09-30.08-3.05c-10.06,3.04-18.36,9.85-23.37,19.19c-5.01,9.34-6.09,20.02-3.05,30.08l12.51,41.44
		c0.8,2.64-0.7,5.43-3.34,6.23C149.13,204.59,148.64,204.66,148.16,204.66z"/>
</g>
<g>
	<g>
		<path d="M262.37,402.48l-3.07-16.85c-3.29-18.03-23.9-30.41-46.93-28.2c-0.97,0.09-1.97,0.22-3.08,0.39
			c-12.61,1.92-23.84,8.64-30.82,18.42c-5.46,7.65-7.65,16.32-6.18,24.41l-9.84,1.79c-1.96-10.78,0.84-22.15,7.88-32.01
			c8.54-11.97,22.19-20.17,37.46-22.49c1.29-0.2,2.47-0.34,3.63-0.46c28.16-2.71,53.51,13.26,57.72,36.36l3.07,16.85L262.37,402.48z
			"/>
	</g>
</g>
<g>
	<g>
		<path d="M244.33,157.63c-0.08,0.03,0.15,0.25,0.18,0.3C244.56,157.8,244.28,157.57,244.33,157.63z"/>
	</g>
	<g>
		<polygon points="244.82,156.29 244.88,156.4 244.82,156.04 		"/>
	</g>
	<g>
		<path d="M245.71,155.54c-0.43-0.34-0.27,0.34-0.55,0.33l-0.1-0.07l0.21,0.39C245.41,155.97,245.47,155.54,245.71,155.54z"/>
	</g>
	<g>
		<path d="M246.93,156.03c-0.16-0.13-0.01-0.22-0.15,0.04c0.03,0.01,0.04,0.02,0.05,0.02C246.84,156.07,246.87,156.05,246.93,156.03
			z"/>
	</g>
	<g>
		<path d="M246.83,156.09C246.74,156.18,247,156.17,246.83,156.09L246.83,156.09z"/>
	</g>
	<g>
		<path d="M247.18,155.64l0,0.25c0.1,0.07,0.23,0,0.25,0.1C247.49,155.8,247.38,155.73,247.18,155.64z"/>
	</g>
	<g>
		<path d="M247.05,155.24l-0.01,0.11C247.08,155.38,247.11,155.38,247.05,155.24z"/>
	</g>
	<g>
		<path d="M247.01,155.6l0.03-0.24c-0.07-0.05-0.19-0.18-0.02,0.1C246.92,155.32,246.99,155.46,247.01,155.6z"/>
	</g>
	<g>
		<path d="M246.88,155.6c-0.14-0.03-0.28-0.01-0.28-0.26C246.41,155.6,246.69,155.85,246.88,155.6z"/>
	</g>
	<g>
		<path d="M245.39,155.08l-0.19-0.04l0.04,0.2C245.22,155.14,245.51,155.2,245.39,155.08z"/>
	</g>
	<g>
		<path d="M248.13,155.2c-0.07-0.09-0.24-0.2-0.34-0.3l-0.01,0.18C247.88,155.1,248.01,155.08,248.13,155.2z"/>
	</g>
	<g>
		<path d="M247.79,154.9l0.01-0.26C247.66,154.72,247.7,154.81,247.79,154.9z"/>
	</g>
	<g>
		<polygon points="246.68,154.77 246.73,155.27 246.72,154.73 		"/>
	</g>
	<g>
		<polygon points="248.65,154.77 248.75,155.04 248.63,154.62 		"/>
	</g>
	<g>
		<path d="M248.97,154.45c0.08,0.21,0.32,0.22,0.34,0.37c0.07-0.11,0.03-0.32-0.01-0.51C249.29,154.44,249.19,154.5,248.97,154.45z"
			/>
	</g>
	<g>
		<path d="M249.26,154.02c0,0.07,0.02,0.18,0.04,0.29C249.31,154.24,249.3,154.15,249.26,154.02z"/>
	</g>
	<g>
		<path d="M248.06,154.48c0.05,0.04,0.19,0.16,0.32,0.16l-0.26-0.2C248.1,154.46,248.08,154.47,248.06,154.48z"/>
	</g>
	<g>
		<path d="M248.11,154.44L248.11,154.44c0.07-0.04,0.12-0.07,0.14-0.08C248.23,154.37,248.19,154.39,248.11,154.44z"/>
	</g>
	<g>
		<path d="M248.05,154.49c0.01,0,0.01-0.01,0.01-0.01C248.04,154.46,248.03,154.46,248.05,154.49z"/>
	</g>
	<g>
		<path d="M247.23,154.69c-0.04-0.2,0.01-0.49-0.33-0.56C246.98,154.34,247.17,154.38,247.23,154.69z"/>
	</g>
	<g>
		<path d="M247.72,154.24l-0.19,0.07c0.06,0.06,0.16,0.13,0.18,0.24L247.72,154.24z"/>
	</g>
	<g>
		<polygon points="247.73,154.11 247.72,154.24 247.79,154.22 		"/>
	</g>
	<g>
		<path d="M248.82,154c-0.03-0.16,0.03-0.23,0.1-0.31c-0.12,0.02-0.23,0.07-0.31,0.14C248.66,153.91,248.74,154.08,248.82,154z"/>
	</g>
	<g>
		<path d="M248.46,154.19c0-0.01,0-0.02,0-0.03C248.43,154.15,248.42,154.15,248.46,154.19z"/>
	</g>
	<g>
		<path d="M249.68,153.05c-0.02-0.01-0.03-0.02-0.05-0.03c0.01,0.02,0.02,0.03,0.03,0.04L249.68,153.05z"/>
	</g>
	<g>
		<path d="M248.55,153.79c-0.1,0.01-0.09,0.1-0.06,0.2c0.03-0.06,0.06-0.12,0.11-0.17C248.58,153.79,248.56,153.76,248.55,153.79z"
			/>
	</g>
	<g>
		<path d="M249.38,153.73c-0.08-0.02-0.15-0.04-0.22-0.04C249.25,153.73,249.42,153.8,249.38,153.73z"/>
	</g>
	<g>
		<path d="M248.54,154.21c0,0.01,0,0.01,0,0.02C248.6,154.27,248.58,154.24,248.54,154.21z"/>
	</g>
	<g>
		<path d="M248.54,154.21c0-0.06-0.02-0.14-0.04-0.22c-0.02,0.05-0.03,0.11-0.03,0.17C248.48,154.18,248.51,154.2,248.54,154.21z"/>
	</g>
	<g>
		<path d="M248.58,151.29c0.18,0.24,0.2,0.58-0.15,0.46c0.01,0.29,0.73,0.96,1.2,1.27c-0.08-0.1-0.16-0.19-0.13-0.45
			c-0.15-0.08-0.56-0.02-0.61-0.33c0.09-0.28,0.22-0.05,0.42-0.01c-0.32-0.22-0.11-0.61-0.5-1l-0.04,0.29
			C248.7,151.46,248.67,151.31,248.58,151.29z"/>
	</g>
	<g>
		<path d="M249.34,153.22l-0.03,0.08c0.1-0.02,0.22,0.03,0.46,0.14c0-0.19-0.05-0.29-0.1-0.38l-0.32,0.21L249.34,153.22z"/>
	</g>
	<g>
		<path d="M249.04,153.53c-0.16-0.29-0.11-0.51-0.42-0.7c-0.16,0.16,0.05,0.31,0.04,0.5c0.23-0.3,0.04,0.2,0.36,0.18
			c-0.02,0.09-0.06,0.14-0.09,0.19c0.08-0.01,0.15-0.02,0.24-0.01c-0.01,0-0.01-0.01-0.02-0.01l0,0c0,0,0,0,0,0
			c-0.04-0.02-0.06-0.04-0.03-0.03c0,0,0-0.01,0-0.01C249.08,153.59,249.06,153.56,249.04,153.53c0.12-0.02,0.07,0.05,0.07,0.11
			c0.01,0.01,0.02,0.03,0.03,0.04c0,0,0,0,0,0l0.16-0.37C249.21,153.32,249.15,153.39,249.04,153.53z"/>
	</g>
	<g>
		<path d="M246.6,153.47c0.03,0.01,0.04,0.03,0.06,0.05C246.65,153.47,246.63,153.45,246.6,153.47z"/>
	</g>
	<g>
		<path d="M246.84,153.52c0.01,0.05,0.08,0.16-0.01,0.19c-0.12-0.03-0.1-0.12-0.17-0.2c0.02,0.1,0.01,0.29,0.24,0.31l-0.01-0.05
			c0.18-0.01,0.59,0.18,0.6,0.23C247.26,153.81,247.09,153.68,246.84,153.52z"/>
	</g>
	<g>
		<path d="M247.89,153.45l0.13-0.32l-0.3-0.11l0.11,0.12C247.66,153.21,247.82,153.34,247.89,153.45z"/>
	</g>
	<g>
		<polygon points="249.81,153.15 250,153.44 249.82,152.96 		"/>
	</g>
	<g>
		<polygon points="250.08,152.87 250.26,153.1 250.23,152.9 		"/>
	</g>
	<g>
		<path d="M264.69,135.69l0.01-0.12C264.69,135.61,264.69,135.65,264.69,135.69z"/>
	</g>
	<g>
		<path d="M264.19,136.09l0.08,0.12C264.24,136.13,264.21,136.08,264.19,136.09z"/>
	</g>
	<g>
		<path d="M257.45,146.59c0.28,0.13,0.67,0.36,0.44,0.12l-0.24-0.22C257.62,146.59,257.54,146.6,257.45,146.59z"/>
	</g>
	<g>
		<path d="M261.26,140.82c-0.03-0.02-0.06-0.03-0.09-0.05c0.05,0.11,0.09,0.2,0.13,0.29C261.29,140.99,261.28,140.91,261.26,140.82z
			"/>
	</g>
	<g>
		<path d="M260.46,139.73l0.27,0.05C260.65,139.75,260.57,139.74,260.46,139.73z"/>
	</g>
	<g>
		<path d="M267.16,133.15l-0.13-0.32C266.9,132.93,267.07,133.01,267.16,133.15z"/>
	</g>
	<g>
		<path d="M253.09,150.17c0.17,0.02,0.27,0.01,0.34-0.03C253.2,150.08,252.94,149.94,253.09,150.17z"/>
	</g>
	<g>
		<path d="M266.73,138.49c0-0.08-0.02-0.15-0.07-0.2C266.65,138.37,266.67,138.43,266.73,138.49z"/>
	</g>
	<g>
		<path d="M253.67,149.93c-0.04-0.01-0.06-0.01-0.09-0.02c-0.03,0.09-0.06,0.18-0.15,0.23
			C253.59,150.18,253.74,150.17,253.67,149.93z"/>
	</g>
	<g>
		<path d="M277.1,125.1c0.02,0.01,0.03,0,0.05,0.01C277.12,125.07,277.11,125.08,277.1,125.1z"/>
	</g>
	<g>
		<path d="M282.06,125.2c-0.01,0.04-0.06,0.08-0.1,0.12C282,125.32,282.03,125.29,282.06,125.2z"/>
	</g>
	<g>
		<path d="M251.38,151.95C251.33,152.02,251.4,151.99,251.38,151.95L251.38,151.95z"/>
	</g>
	<g>
		<path d="M250.24,151.23c-0.01-0.04-0.03-0.08-0.08-0.14C250.21,151.15,250.24,151.2,250.24,151.23z"/>
	</g>
	<g>
		<path d="M253,147.84C253,147.84,253.01,147.84,253,147.84C252.95,147.81,252.96,147.81,253,147.84z"/>
	</g>
	<g>
		<path d="M251.19,151.92c0.05,0.01,0.1,0.01,0.14,0C251.31,151.92,251.26,151.91,251.19,151.92z"/>
	</g>
	<g>
		<path d="M251.31,152.02c-0.03,0.01-0.05,0.02-0.08,0.02C251.26,152.1,251.29,152.12,251.31,152.02z"/>
	</g>
	<g>
		<path d="M251.46,151.86c-0.03,0.03-0.08,0.05-0.13,0.06c0.03,0.01,0.04,0.02,0.05,0.03C251.4,151.93,251.42,151.9,251.46,151.86z"
			/>
	</g>
	<g>
		<path d="M272.43,130.19c0.01,0,0.02,0.01,0.03,0.01C272.44,130.04,272.42,130.08,272.43,130.19z"/>
	</g>
	<g>
		<path d="M256.93,142.6c0,0.01,0,0.01,0,0.02c0.01,0,0.01,0,0.02,0L256.93,142.6z"/>
	</g>
	<g>
		<path d="M257.01,142.22c0.16,0.39,0.08,0.4-0.05,0.4l0.68,0.65L257.01,142.22z"/>
	</g>
	<g>
		<path d="M265.81,134.62l-0.35-0.09c-0.12-0.53,0.13-0.52-0.29-0.71c0.64,0.8-0.56,0.61,0.08,1.41l-0.24-0.07
			c0.04-0.02,0-0.07,0.04-0.09c-0.52-0.2,0.32,0.69-0.04,0.81c-0.14,0.02-0.3-0.04-0.32-0.19l-0.04,0.37
			c-0.07,0.04-0.17-0.11-0.1-0.15l-0.26,0.33l-0.02-0.02c0.06,0.16,0.12,0.43,0.13,0.56c-0.17-0.04-0.03-0.12-0.13-0.2l-0.02,0.34
			c-0.24-0.14-0.26-0.46-0.12-0.53c-0.82-0.64,0.02,0.32-0.71,0.16l0.08-0.24c-0.48-0.35-0.47-0.08-0.89-0.2
			c0.17,0.11,0.96,0.38,0.93,0.73c-0.1-0.01-0.2,0.02-0.17,0.26c-0.23-0.28-0.28-0.12-0.39,0l-0.3-0.37
			c-0.05,0.22,0.12,0.4,0.18,0.63c-0.18,0.09-0.45-0.17-0.69-0.38c-0.29,0.15,0.55,0.31,0.32,0.62c-0.32,0.03-0.33,0.3-0.39,0.72
			c-0.25-0.01-0.17-0.24-0.3-0.31l0.12,0.4c-0.04,0.02-0.1-0.08-0.14-0.13c-0.01,0.2,0.3,0.37,0.22,0.61
			c0.3,0.44-0.84-0.3-0.65,0.33c-0.14-0.06-0.17-0.24-0.3-0.37c-0.03,0.54-0.05,0.42,0.06,1.02l-0.4-0.08
			c0.38,0.15,0.47,0.63,0.53,1.04c0.16,0.09,0.31,0.17,0.38,0.2l-0.09,0.41c-0.08-0.03-0.16-0.18-0.25-0.37
			c0.01,0.05,0.02,0.09,0.03,0.13c-0.21-0.06-0.34-0.31-0.44-0.57c0.09,0.05,0.19,0.1,0.28,0.15c-0.12-0.28-0.27-0.57-0.47-0.78
			c0.02,0.06,0.02,0.12,0,0.17c-0.03-0.07-0.07-0.14-0.11-0.17c-0.04-0.03,0,0.07,0.04,0.2l-0.4-0.36l0.12,0.17l-0.55,0.03
			c0.11,0.61,0.41,1.4,0.17,1.89c-0.16-0.38-0.39-0.51-0.69-0.87c0.42,0.29,0.16-0.41,0.42-0.5c-0.14,0.05-0.26-0.14-0.28-0.22
			l-0.06,0.64c-0.24-0.3-0.26-0.15-0.45-0.2c0.55,0.51,0.06,0.6,0.07,0.9c-0.17-0.19-0.3-0.41-0.09-0.51
			c-0.56-0.27,0.32,0.88-0.18,0.68c0.04-0.04,0.09-0.03,0.02-0.14c0.04,0.26-0.31,0.33-0.4,0.11l0.04-0.04
			c-0.34,0.17-0.87,0.73-0.5,1.25c-0.06-0.06-0.46-0.62-0.53-0.73l0.88,2.07c-0.31-0.46-1.32-1.31-1.29-1.74
			c-0.12,0-0.26,0-0.28,0.27c0.1,0.02,0.63,0.51,0.6,0.6c-0.57-0.32-0.33-0.15-0.88-0.36c0.14,0.03,0.62,0.75,0.5,0.82
			c-0.07-0.11-0.56-0.64-0.57-0.74l0.27,0.87c-0.03-0.17-0.45-0.56-0.66-0.69c0.13,0.1-0.24,0.19-0.26,0.31l0.24,0.05
			c-0.39,0.16,0.46,1.16,0.13,1.39c-0.08-0.16-0.6-0.9-0.82-0.85c0.21,0.39,1.03,1.85,0.97,2.33l-0.21-0.14l-0.02,0.39
			c-0.29-0.61-0.81-1.95-0.96-2.53c-0.24-0.05-0.22-0.2-0.38-0.03c-0.21-0.13-0.13-0.35-0.09-0.4l-0.5,0.22
			c0.34,0.37,0.02,0.64,0.31,0.95l0.1-0.77c0.34,0.37,0.67,1.31,0.33,1.48c-0.2-0.09-0.53-0.73-0.64-0.85
			c0.08,0.16-0.05,0.48-0.16,0.41l-0.05-0.31c-0.28-0.01,0.17,0.73-0.33,0.52c-0.09,0.03-0.61-0.33-0.43-0.09
			c0.48,0.35,1.65,1.69,1.86,2.08c-0.05-0.01-0.7-0.13-0.96-0.28c-0.4-0.25-0.53-0.96-0.87-1.18c0.08,0.11,0.14,0.29,0.15,0.35
			c-0.14-0.03-0.25-0.35-0.36-0.18c0.31,0.41-0.33,0.22,0.21,0.39c-0.05,0.24-0.22,0.05-0.38,0.21c0.27,0.21,0.57,0.99,0.52,1.22
			c-0.08-0.11-0.22-0.21-0.28-0.25c-0.33,0.22-0.64,0.18-0.92,0.41c-0.11-0.07-0.34-0.07-0.42-0.29c0.02,0.1,0.09,0.27,0.02,0.35
			c-0.45-0.2,0.15-0.21-0.32-0.51c0.18,0.24,0.04,0.5,0.04,0.75c0.33,0.32,0.34-0.17,0.34-0.42c0.41,0.48,0.62,1.17,0.52,1.64
			c-0.13,0.32-0.36-0.23-0.35-0.12c-0.51,0.28,0.34,1.16-0.31,1.12c-0.4-0.19-0.52-0.61-0.74-0.8c0.09-0.28,0.46-0.05,0.57-0.17
			l-0.28-0.01c-0.03-0.15,0.03-0.34,0.18-0.31c-0.35-0.17-0.78,0.57-1.33,0.6c0.03,0.15,0.01,0.35,0.17,0.43l0.07-0.13
			c0.31,0.17,0.09,0.51,0.32,0.51c0,0.3,0.08,0.7-0.24,0.73l-0.33-0.32c0.09,0.1,0.31,0.1,0.27-0.06c0.05,0.23-0.71-0.21-0.41,0.32
			l0.35,0.12c0.01,0.3,0.14,0.82-0.13,0.86c0.37,0.28,0.01-0.07,0.48,0.22c-0.54-0.41,0.47-0.36-0.15-0.75
			c0.53,0.36,0.39,0.01,0.9,0.27c-0.1-0.11-0.25-0.17-0.05-0.24c-0.02-0.04-0.04-0.1-0.05-0.13c0.01,0,0.01,0,0.02,0
			c-0.01,0-0.01-0.01-0.02-0.01c-0.01-0.02-0.01-0.03-0.01,0c-0.08-0.02-0.16-0.06-0.23-0.11c-0.15-0.33,0.09-0.52,0.06-0.73
			c0.14-0.02,0.08,0.16,0.23,0.25l-0.05-0.31c0.23,0.25,0.6,0.23,0.52,0.56l0.2-0.15c0.23,0.05,0.43-0.02,0.44-0.21
			c0.14-0.02-0.02-0.47,0.08-0.21l0.16-0.41l0.06,0.06c0.32-0.21,0.24-0.93,0.96-0.75c0.04-0.15,0.08-0.31,0.3-0.38l0.22,0.2
			c0.06-0.18,0.57-0.1,0.42-0.37c0.64,0.48,0.72-0.39,1.03-0.47l-0.24-0.3c0.17-0.11,0.24-0.32,0.33-0.59l-0.23-0.25
			c-0.02-0.35,0.57-0.17,0.81-0.42c0.07,0.11-0.02,0.14-0.12,0.12c0.8,0.32,0.29-0.97,0.93-0.78c-0.01-0.15,0.07-0.16,0.17-0.14
			c-0.01,0.01-0.01,0.02-0.01,0.03c0.01,0,0.02-0.01,0.03-0.02c0.07,0.02,0.14,0.04,0.21,0.05c-0.08-0.04-0.15-0.07-0.2-0.07
			c0.05-0.05,0.1-0.15,0.13-0.28l0.27,0.25c0-0.01,0.01-0.01,0.01-0.02c0.16,0.04-0.05-0.18-0.26-0.36c0-0.08-0.01-0.16-0.04-0.26
			c0.44,0.39,0.08-0.33,0.57,0.07c-0.14-0.28,0.25-0.51-0.12-1.04c0.06,0.06,0.11,0.07,0.07,0.11c0.14-0.02,0.27-0.04,0.24-0.24
			l0.33,0.32l-0.2-0.64c0.3,0.11,0.45,0.2,0.56,0.57c-0.07-0.65,0.1-0.35-0.01-0.97l0.18,0.24c0.08-0.08-0.04-0.5,0.17-0.36
			c0.56,0.27,1-0.75,1.83-0.76c-0.66-0.59,0.48,0.11,0.06-0.43c0.16,0.13,0.31,0.16,0.34,0.37c0.12-0.37,0.59-0.07,0.4-0.65
			c0.16,0.13,0.14,0.28,0.25,0.35c-0.01-0.05-0.04-0.2,0.07-0.13c0.1,0.07,0.08,0.16,0.09,0.27c0.23-0.24-0.15-0.75-0.52-1.23
			c0.31,0.11,0.35,0.02,0.19-0.36c0.17,0.11,0.38,0.2,0.27,0.39c0.11-0.05,0.73-0.25,0.43-0.62c0.11,0.07,0.15-0.08,0.14-0.14
			c0.22-0.15,0.27-0.13,0.43-0.33l-0.11-0.01c-0.3-0.51,0.08-0.24,0.2-0.43l0.03,0.05c0.64,0.01,0.03-0.29,0.7-0.23l-0.25-0.26
			c-0.47-0.62,0.61,0.08,0.63-0.33l-0.21-0.09c-0.06-0.3,1,0.53,1.18,0.51c0.07,0.03,0.03,0.12,0.03,0.18
			c0.6,0.09-0.27-0.39-0.11-0.67c0.21,0.16,0.36,0.54,0.55,0.45c0.21,0.09-0.09-1,0.43-0.8c-0.17-0.11-0.34-0.22-0.33-0.42
			c0.11-0.19,0.91,0.2,0.66-0.39c0.05,0.02,0.1,0.06,0.13,0.09c0.02-0.22,0.23-0.54,0.08-0.86c0.92,0.85,0.37-1.1,1.11-0.23
			l0.34-0.36l0.07,0.1c0.29-0.15,0.2-0.43,0.1-0.71c0.11,0.01,0.13,0.13,0.17,0.18c0.5-0.12,0.5-0.19,0.43-0.87l0.27,0.26
			c-0.06-0.23,0.88,0.02,0.95-0.61c0.02,0.03,0.06,0.1,0.07,0.16c0.11-0.66,1.59,0,0.86-1.15l0.04-0.47
			c-0.4,0.2-0.33-0.49-0.61-0.55c0.08-0.17,0.6,0.03,0.49,0.22l-0.07-0.03c0.4,0.59,0.57-0.16,0.87,0.22
			c0.63-0.58,1.51-0.82,2.14-1.31l-0.42-0.36l0.23-0.16c0.14,0.05,0.35,0.26,0.19,0.38c0.28,0.17,0.09-0.41,0.01-0.51
			c0.44-0.08,0.3,0.59,0.4,0.52l0.1-0.14l-0.07-0.03c-0.04-0.26-0.19-0.44,0.01-0.58c0.19-0.01,0.28,0.21,0.34,0.19
			c0.02,0.03,0.05,0.03,0.08-0.05l0.3-0.19l-0.39-0.24c-0.02-0.26,0.27-0.2-0.17-0.47c0.67,0.42,1.17-0.64,1.44-0.55
			c-0.04-0.38,0.13-0.52,0.36-0.66c-0.11-0.03-0.45-0.37-0.24-0.48c0.58,0.82,0.6,0.06,1.21,0.49c-0.44-0.26,0.42-0.51-0.22-0.86
			c0.2-0.06,0.25,0.28,0.52,0.37c0.1-0.59,0.93-0.46,1.28-0.92c-0.08-0.11-0.28-0.2-0.32-0.43l0.65,0.31
			c0.04-0.12-0.41-0.65,0.04-0.43c-0.09-0.07-0.23-0.17-0.2-0.25c1.26-0.22,1.38-1.86,3.02-1.66c-0.28-0.1-0.22-0.18-0.14-0.26
			c-0.1,0-0.21-0.25-0.34-0.38l0.68,0.08c-0.26-0.43,0.36-0.35,0.09-0.74l-0.06,0.16c-0.21-0.56-1.01-0.77-1.46-1.34
			c0.24,0.63-1.05-0.34-0.74,0.59c-0.16-0.06-0.1-0.22-0.24-0.32c0.13,0.29,0.08,0.42-0.16,0.44l-0.03-0.07
			c-0.39,0.43-0.78,0.36-1.41,0.63l0.27,0.24c-0.14,0.05-0.23-0.01-0.34-0.04c0.23,0.51,0.32-0.23,0.59,0.32
			c-0.61-0.43-0.76,0.63-1.39,0.08c-0.17,0.14,0.31,0.27,0.15,0.41l-0.19-0.13l0.14,0.25c-0.14,0.05-0.37-0.11-0.5-0.25
			c0.04-0.01,0.04-0.1,0.06-0.14c-0.31-0.08-0.34,0.4-0.44,0.38l0.25-0.03c-0.31,0.54-1.05,0.78-1.19,1.49l0.14,0.1
			c-0.13,0.52-0.38,0.08-0.65,0.5l-0.01-0.04c0.04,0.19-0.01,0.34-0.12,0.4c-0.04-0.23-0.42-0.15-0.44-0.41
			c-0.14,0.56-0.01,0.35,0.16,1.03l-0.23-0.17c0.08,0.26,0.16,0.37,0.03,0.58c-0.01-0.31-0.39-0.23-0.43-0.61
			c-0.77-0.14-0.17,0.95-0.92,0.42c0.32,0.74,0.61,0.05,0.61,0.26c0.24,0.12,0.23,0.56,0.06,0.6c-0.13,0.09-0.84-0.58-1.14-0.31
			c0.03-0.02,0-0.07,0.03-0.09c-0.24-0.05-0.05,0.39-0.4,0.27c0.22,0.42-0.2,0.13,0.16,0.61l0.19-0.34
			c-0.06,0.25,0.24,0.91-0.24,0.87c-0.06-0.11-0.08-0.29-0.08-0.41c-0.19-0.07-0.07,0.21-0.27,0.14c-0.36-0.47,0.26-0.39,0.14-0.88
			c-0.24-0.12-0.04,0.6-0.37,0.04c0.41,0.73-0.37,0.18-0.17,0.83l-0.22-0.28c0,0.07,0.04,0.26-0.02,0.3l-0.19-0.44
			c0.09,0.44-0.55,0.01-0.57,0.31c0.33-0.29,0.35,0.26,0.66,0.34c-0.11,0.71-0.84-0.51-1.19,0.01c0.03-0.09,0.37-0.04,0.38,0.17
			c-0.14,0.02-0.34,0.01-0.52-0.08c-0.26,0.32,0.28,0.24,0.29,0.52c-0.39-0.24-0.04,0.26-0.08,0.48l-0.23-0.28
			c-0.5,0.12,0.39,0.65-0.1,0.71l-0.19-0.5l-0.08,0.24l-0.23-0.34c0.02,0.38-0.09,0.37-0.34,0.43c0.21,0.16,0.4,0.52,0.25,0.66
			c-0.24-0.07-0.16-0.31-0.35-0.09c-0.1-0.21-0.23-0.48,0.09-0.3c-0.07-0.1-0.1-0.21-0.16-0.31c-0.27-0.09-0.32,0.2-0.4,0.27
			c0.04-0.02,0.09-0.03,0.14-0.01l0,0.65c-0.14-0.06-0.17-0.18-0.2-0.29c-0.04,0.08,0.02,0.25-0.05,0.35
			c-0.17-0.25-0.37-0.47-0.32-0.69l-0.09,0.51c-0.1-0.08-0.38-0.14-0.41-0.25c-0.28,0.01-0.05,0.79-0.42,0.8
			c0.03,0.05,0.04,0.11,0.02,0.19c-0.25,0.13-0.67,0.01-0.66,0.53l-0.48-0.28c-0.12,0.26,0.62,0.35,0.42,0.77
			c-0.12,0.32-0.38-0.27-0.55-0.31c0.06,0.3,0.21,0.88-0.28,0.73C265.67,134.69,265.77,134.7,265.81,134.62z M263.56,136.83
			c0-0.1-0.06-0.35,0.11-0.22C263.88,136.97,263.71,136.86,263.56,136.83z M260.46,140.59c-0.04-0.12,0.05-0.12,0.2-0.07
			C260.63,140.58,260.57,140.61,260.46,140.59z M251.89,151.13c0-0.01,0-0.01-0.01-0.02C252.08,151.14,252.01,151.12,251.89,151.13z
			 M251.58,151.2c0.01,0.06,0.04,0.09,0.09,0.12c-0.04-0.08,0-0.13,0.07-0.16C251.66,151.11,251.59,151.08,251.58,151.2z
			 M274.68,131.47l-0.1-0.04C274.61,131.27,274.64,131.37,274.68,131.47z"/>
	</g>
	<g>
		<path d="M260.55,139.86c0.05,0.04,0.1,0.08,0.15,0.13C260.68,139.93,260.64,139.88,260.55,139.86z"/>
	</g>
	<g>
		<path d="M267.19,133.21c0,0,0.01,0,0.01,0c-0.01-0.02-0.02-0.04-0.03-0.06L267.19,133.21z"/>
	</g>
	<g>
		<path d="M252.94,146.02c0.08,0,0.15,0.03,0.21,0.07C253.09,146.02,253.03,145.98,252.94,146.02z"/>
	</g>
	<g>
		<path d="M250.83,152.63l0.08-0.19c-0.06,0.07-0.13,0.03-0.2,0.01C250.76,152.52,250.87,152.59,250.83,152.63z"/>
	</g>
	<g>
		<path d="M248.18,151.94c0.01,0.05-0.04,0.04-0.03,0.09l0.11,0.12C248.34,152.07,248.32,151.92,248.18,151.94z"/>
	</g>
	<g>
		<path d="M249.92,151.82c-0.21-0.22-0.23-0.07-0.29,0.05c0.01-0.01,0.01-0.01,0.02-0.01C249.9,152.21,249.91,152.02,249.92,151.82z
			"/>
	</g>
	<g>
		<path d="M249.62,151.91c-0.02,0.04-0.05,0.07-0.08,0.08C249.63,152.13,249.6,151.98,249.62,151.91z"/>
	</g>
	<g>
		<path d="M251.43,151.58c-0.1-0.02,0.22,0.32,0.12,0.25C251.75,152.17,251.55,151.21,251.43,151.58z"/>
	</g>
	<g>
		<polygon points="249.2,151.12 249.48,151.38 249.33,151.11 		"/>
	</g>
	<g>
		<path d="M250.14,150.69l-0.22,0.05c0.04,0.05,0.05,0.09,0.04,0.13C250.06,150.8,250.22,150.77,250.14,150.69z"/>
	</g>
	<g>
		<path d="M249.96,150.87c-0.05,0.04-0.1,0.08-0.08,0.15C249.9,151,249.95,150.94,249.96,150.87z"/>
	</g>
	<g>
		<polygon points="249.34,150.86 249.43,150.88 249.56,150.81 		"/>
	</g>
	<g>
		<path d="M251.85,149.34l0.1-0.23c-0.07-0.11-0.16-0.13-0.19-0.04C251.78,149.17,251.75,149.26,251.85,149.34z"/>
	</g>
	<g>
		<path d="M250.68,148.98c0.1,0.02,0.15,0.08,0.26,0.16l-0.3-0.36L250.68,148.98z"/>
	</g>
	<g>
		<path d="M251.1,148.48c-0.07-0.11,0.01-0.49-0.19-0.29C250.98,148.31,250.88,148.53,251.1,148.48z"/>
	</g>
	<g>
		<polygon points="254.03,146.78 253.99,146.82 254.49,147.4 		"/>
	</g>
	<g>
		<path d="M255.09,143.48c-0.32,0.03,0.26,0.4-0.07,0.38c0.07,0.18,0.27,0.02,0.32,0.18C255.34,143.79,255.47,143.82,255.09,143.48z
			"/>
	</g>
	<g>
		<path d="M255.34,144.04c0,0.04,0,0.08,0.01,0.14C255.36,144.12,255.35,144.07,255.34,144.04z"/>
	</g>
	<g>
		<polygon points="282.8,125.11 283.03,125.13 282.78,125 		"/>
	</g>
	<g>
		<path d="M282.68,124.47l0.34,0.35l-0.21-0.4C282.8,124.46,282.77,124.54,282.68,124.47z"/>
	</g>
	<g>
		<path d="M262.56,136.39l0.07,0.1c0.1,0.08,0.14,0.06,0.21,0.03L262.56,136.39z"/>
	</g>
	<g>
		<polygon points="264.55,135.19 264.51,135.2 264.85,135.49 		"/>
	</g>
	<g>
		<path d="M265.65,133.52c-0.07,0.04-0.08,0.17-0.15,0.21C265.58,133.55,266.02,133.92,265.65,133.52z"/>
	</g>
</g>
<g>
	<g>
		<path d="M265.95,160.77c-0.05-0.04-0.1,0.27-0.12,0.32C265.94,161.05,265.97,160.69,265.95,160.77z"/>
	</g>
	<g>
		<polygon points="266.98,160.28 266.94,160.4 267.14,160.12 		"/>
	</g>
	<g>
		<path d="M267.8,160.47c0.04-0.54-0.32,0.02-0.42-0.2l0-0.12l-0.16,0.4C267.42,160.52,267.71,160.29,267.8,160.47z"/>
	</g>
	<g>
		<path d="M267.98,161.7c0.02-0.21,0.13-0.15-0.09-0.09c0,0.02,0,0.04,0.01,0.06C267.92,161.67,267.94,161.67,267.98,161.7z"/>
	</g>
	<g>
		<path d="M267.9,161.67C267.81,161.66,267.92,161.85,267.9,161.67L267.9,161.67z"/>
	</g>
	<g>
		<path d="M268.32,161.64l-0.15,0.16c0,0.13,0.09,0.18,0.03,0.25C268.34,161.98,268.34,161.85,268.32,161.64z"/>
	</g>
	<g>
		<path d="M268.52,161.28l-0.08,0.06C268.44,161.4,268.45,161.42,268.52,161.28z"/>
	</g>
	<g>
		<path d="M268.28,161.48l0.16-0.13c0-0.09,0.04-0.26-0.07,0.05C268.42,161.24,268.36,161.38,268.28,161.48z"/>
	</g>
	<g>
		<path d="M268.23,161.38c-0.04-0.13-0.1-0.22,0.05-0.37C268.05,161.03,267.99,161.41,268.23,161.38z"/>
	</g>
	<g>
		<path d="M267.97,159.94l-0.05-0.17l-0.11,0.16C267.86,159.85,267.93,160.1,267.97,159.94z"/>
	</g>
	<g>
		<path d="M268.97,162.07c0.03-0.11,0.03-0.3,0.05-0.45l-0.11,0.11C268.94,161.82,269,161.91,268.97,162.07z"/>
	</g>
	<g>
		<path d="M269.02,161.62l0.17-0.16C269.08,161.41,269.04,161.5,269.02,161.62z"/>
	</g>
	<g>
		<polygon points="268.67,160.71 268.37,161.06 268.71,160.71 		"/>
	</g>
	<g>
		<polygon points="269.44,162.19 269.32,162.44 269.53,162.08 		"/>
	</g>
	<g>
		<path d="M269.77,162.22c-0.1,0.2-0.01,0.38-0.1,0.5c0.09-0.02,0.21-0.18,0.31-0.33C269.9,162.46,269.83,162.42,269.77,162.22z"/>
	</g>
	<g>
		<path d="M270.16,162.17c-0.05,0.04-0.1,0.13-0.17,0.21C270.04,162.34,270.09,162.28,270.16,162.17z"/>
	</g>
	<g>
		<path d="M269.39,161.56c-0.01,0.07-0.03,0.25,0.03,0.34l0.02-0.32C269.43,161.58,269.41,161.57,269.39,161.56z"/>
	</g>
	<g>
		<path d="M269.44,161.57l0,0.01c0.05,0.02,0.09,0.03,0.1,0.04C269.53,161.62,269.5,161.6,269.44,161.57z"/>
	</g>
	<g>
		<path d="M269.38,161.56c0,0,0.01,0,0.01,0C269.39,161.53,269.39,161.52,269.38,161.56z"/>
	</g>
	<g>
		<path d="M268.94,161.07c0.11-0.16,0.31-0.31,0.22-0.61C269.06,160.66,269.11,160.83,268.94,161.07z"/>
	</g>
	<g>
		<path d="M269.41,161.16l-0.12-0.1c-0.02,0.08-0.02,0.21-0.08,0.29L269.41,161.16z"/>
	</g>
	<g>
		<polygon points="269.5,161.07 269.41,161.16 269.45,161.19 		"/>
	</g>
	<g>
		<path d="M270,161.83c0.09-0.12,0.15-0.12,0.23-0.13c-0.06-0.08-0.13-0.13-0.21-0.15C269.99,161.65,269.91,161.82,270,161.83z"/>
	</g>
	<g>
		<path d="M269.73,161.67c0.01-0.01,0.01-0.01,0.02-0.01C269.75,161.63,269.74,161.62,269.73,161.67z"/>
	</g>
	<g>
		<path d="M270.93,161.86c0-0.02,0-0.04,0-0.06c0,0.02-0.01,0.04-0.01,0.05L270.93,161.86z"/>
	</g>
	<g>
		<path d="M270.02,161.49c-0.04-0.07-0.1,0-0.15,0.08c0.05-0.02,0.1-0.03,0.15-0.02C270.03,161.51,270.04,161.48,270.02,161.49z"/>
	</g>
	<g>
		<path d="M270.39,162.07c-0.02-0.07-0.04-0.14-0.06-0.19C270.33,161.98,270.36,162.15,270.39,162.07z"/>
	</g>
	<g>
		<path d="M269.75,161.75c0,0-0.01,0.01-0.01,0.01C269.74,161.83,269.75,161.8,269.75,161.75z"/>
	</g>
	<g>
		<path d="M269.75,161.75c0.04-0.04,0.08-0.11,0.12-0.17c-0.04,0.02-0.08,0.04-0.12,0.08C269.75,161.68,269.75,161.72,269.75,161.75
			z"/>
	</g>
	<g>
		<path d="M271.6,159.9c-0.08,0.29-0.29,0.52-0.35,0.18c-0.18,0.19-0.31,1.16-0.32,1.72c0.03-0.13,0.06-0.24,0.23-0.38
			c-0.01-0.17-0.21-0.44-0.04-0.67c0.21-0.11,0.12,0.14,0.17,0.31c0.01-0.38,0.34-0.47,0.43-1.01l-0.2,0.15
			C271.54,160.11,271.62,159.99,271.6,159.9z"/>
	</g>
	<g>
		<path d="M270.68,161.72l-0.06,0.02c0.05,0.06,0.07,0.19,0.1,0.44c0.12-0.12,0.17-0.22,0.19-0.32l-0.26-0.1L270.68,161.72z"/>
	</g>
	<g>
		<path d="M270.38,161.68c0.11-0.31,0.27-0.41,0.27-0.77c-0.16-0.01-0.17,0.24-0.3,0.35c0.27-0.02-0.11,0.16,0.03,0.38
			c-0.06,0.04-0.11,0.05-0.16,0.05c0.04,0.05,0.07,0.11,0.1,0.17c0-0.01,0-0.01,0-0.02l0,0c0,0,0,0,0,0c0-0.04,0-0.07,0.01-0.04
			c0,0,0.01,0,0.01-0.01C270.35,161.76,270.36,161.72,270.38,161.68c0.06,0.08-0.01,0.09-0.04,0.12c0,0.02-0.01,0.03-0.01,0.05
			c0,0,0,0,0,0l0.3-0.11C270.58,161.68,270.51,161.68,270.38,161.68z"/>
	</g>
	<g>
		<path d="M269.45,159.81c0,0.03,0,0.05-0.01,0.08C269.47,159.85,269.48,159.83,269.45,159.81z"/>
	</g>
	<g>
		<path d="M269.51,160.02c-0.03,0.04-0.07,0.16-0.13,0.12c-0.03-0.11,0.03-0.15,0.06-0.26c-0.06,0.08-0.18,0.2-0.1,0.38l0.03-0.04
			c0.08,0.13,0.12,0.56,0.09,0.59C269.5,160.53,269.52,160.32,269.51,160.02z"/>
	</g>
	<g>
		<path d="M269.97,160.78l0.25-0.11l-0.05-0.3l-0.03,0.17C270.03,160.45,270.01,160.65,269.97,160.78z"/>
	</g>
	<g>
		<polygon points="270.91,162.02 270.81,162.35 271.04,161.91 		"/>
	</g>
	<g>
		<polygon points="271.2,162.05 271.13,162.33 271.24,162.18 		"/>
	</g>
	<g>
		<path d="M287.72,162.04l0.08-0.07C287.76,161.99,287.74,162.01,287.72,162.04z"/>
	</g>
	<g>
		<path d="M287.26,161.92l-0.04,0.14C287.26,161.98,287.28,161.93,287.26,161.92z"/>
	</g>
	<g>
		<path d="M278.04,163.57c0.03,0.29,0.04,0.73,0.1,0.41l0.04-0.32C278.11,163.7,278.07,163.65,278.04,163.57z"/>
	</g>
	<g>
		<path d="M283.15,162.75c0-0.03,0-0.07,0-0.1c-0.05,0.1-0.09,0.2-0.13,0.29C283.06,162.88,283.1,162.81,283.15,162.75z"/>
	</g>
	<g>
		<path d="M283.51,161.45l0.07,0.23C283.58,161.61,283.55,161.53,283.51,161.45z"/>
	</g>
	<g>
		<path d="M290.28,162.27l0.15-0.31C290.31,161.94,290.32,162.12,290.28,162.27z"/>
	</g>
	<g>
		<path d="M274.08,162.58c0.05,0.14,0.1,0.21,0.15,0.24C274.18,162.61,274.16,162.32,274.08,162.58z"/>
	</g>
	<g>
		<path d="M286.77,165.37c0.05-0.05,0.08-0.11,0.1-0.18C286.81,165.23,286.78,165.29,286.77,165.37z"/>
	</g>
	<g>
		<path d="M274.46,162.87c-0.01-0.03-0.02-0.05-0.02-0.08c-0.07,0.04-0.14,0.07-0.2,0.03C274.27,162.97,274.33,163.07,274.46,162.87
			z"/>
	</g>
	<g>
		<path d="M299.24,164.59c0,0.02,0.01,0.02,0.01,0.04C299.26,164.59,299.25,164.59,299.24,164.59z"/>
	</g>
	<g>
		<path d="M301.13,168.39c-0.03,0.01-0.07,0-0.11,0C301.03,168.42,301.07,168.43,301.13,168.39z"/>
	</g>
	<g>
		<path d="M272.29,162.44C272.23,162.45,272.27,162.47,272.29,162.44L272.29,162.44z"/>
	</g>
	<g>
		<path d="M272.29,161.12c0.02-0.03,0.04-0.08,0.06-0.15C272.33,161.05,272.31,161.09,272.29,161.12z"/>
	</g>
	<g>
		<path d="M275.5,161.03C275.5,161.03,275.5,161.03,275.5,161.03C275.5,160.96,275.5,160.98,275.5,161.03z"/>
	</g>
	<g>
		<path d="M272.23,162.28c0.01,0.04,0.03,0.08,0.05,0.11C272.28,162.36,272.26,162.33,272.23,162.28z"/>
	</g>
	<g>
		<path d="M272.21,162.43c-0.02-0.02-0.03-0.03-0.04-0.04C272.15,162.44,272.15,162.47,272.21,162.43z"/>
	</g>
	<g>
		<path d="M272.38,162.44c-0.03,0-0.06-0.02-0.09-0.05c0.01,0.02,0.01,0.04,0,0.05C272.31,162.44,272.33,162.44,272.38,162.44z"/>
	</g>
	<g>
		<path d="M294.21,164.34c0,0.01,0,0.02,0.01,0.03C294.31,164.25,294.28,164.27,294.21,164.34z"/>
	</g>
	<g>
		<path d="M280.33,160.63c0,0-0.01,0.01-0.01,0.01c0,0,0,0.01,0.01,0.01L280.33,160.63z"/>
	</g>
	<g>
		<path d="M280.59,160.44c-0.18,0.37-0.22,0.31-0.27,0.21l-0.14,0.93L280.59,160.44z"/>
	</g>
	<g>
		<path d="M288.83,162.2l-0.08-0.32c0.29-0.43,0.38-0.24,0.33-0.67c-0.25,0.99-0.6-0.03-0.85,0.96l-0.05-0.23
			c0.03,0.02,0.04-0.04,0.07-0.03c-0.08-0.52-0.31,0.69-0.52,0.49c-0.07-0.1-0.1-0.25-0.01-0.36l-0.25,0.2
			c-0.05-0.03,0-0.2,0.05-0.17l-0.31,0.01l0.01-0.03c-0.08,0.15-0.23,0.37-0.3,0.46c-0.04-0.16,0.06-0.1,0.07-0.23l-0.22,0.2
			c-0.01-0.27,0.18-0.49,0.29-0.43c0.08-1.03-0.19,0.22-0.38-0.43l0.18-0.09c0.03-0.59-0.13-0.41-0.23-0.8
			c0,0.19,0.14,0.96-0.09,1.17c-0.03-0.09-0.09-0.14-0.23,0.04c0.08-0.35-0.03-0.29-0.15-0.29l0.11-0.47
			c-0.16,0.11-0.2,0.35-0.32,0.54c-0.13-0.08-0.07-0.45-0.04-0.76c-0.21-0.12,0.02,0.62-0.26,0.64c-0.14-0.22-0.32-0.06-0.6,0.17
			c-0.09-0.19,0.09-0.28,0.07-0.43l-0.2,0.35c-0.03-0.02,0.01-0.13,0.03-0.18c-0.13,0.12-0.11,0.47-0.3,0.56
			c-0.16,0.51-0.14-0.82-0.46-0.28c-0.02-0.14,0.09-0.28,0.11-0.47c-0.35,0.32-0.28,0.23-0.61,0.7l-0.11-0.35
			c0.05,0.38-0.21,0.76-0.44,1.07c0.01,0.18,0.01,0.34,0.03,0.41l-0.29,0.2c-0.01-0.08,0.05-0.24,0.13-0.42
			c-0.02,0.03-0.05,0.07-0.07,0.1c-0.05-0.19,0.06-0.45,0.18-0.7c0.01,0.1,0.01,0.2,0.02,0.31c0.12-0.27,0.25-0.57,0.3-0.85
			c-0.03,0.05-0.07,0.09-0.11,0.11c0.03-0.07,0.06-0.14,0.06-0.19c0-0.05-0.05,0.05-0.11,0.16l0.07-0.53l-0.06,0.2l-0.24-0.4
			c-0.34,0.47-0.71,1.2-1.11,1.34c0.17-0.36,0.16-0.62,0.27-1.07c-0.01,0.5,0.32-0.14,0.48,0c-0.08-0.07-0.01-0.28,0.03-0.35
			l-0.43,0.36c0.09-0.37-0.01-0.29-0.06-0.47c-0.1,0.75-0.35,0.43-0.54,0.63c0.05-0.25,0.14-0.49,0.28-0.4
			c-0.05-0.59-0.43,0.81-0.49,0.3c0.04,0,0.05,0.05,0.1-0.08c-0.14,0.2-0.33-0.03-0.23-0.23l0.04,0c-0.24-0.15-0.8-0.19-0.98,0.43
			c0.02-0.08,0.21-0.74,0.25-0.86l-0.95,1.99c0.16-0.52,0.3-1.83,0.58-2.09c-0.04-0.09-0.1-0.2-0.28-0.04
			c0.03,0.09-0.07,0.8-0.14,0.83c-0.02-0.63-0.04-0.34-0.12-0.9c0.04,0.13-0.22,0.95-0.32,0.9c0.04-0.12,0.18-0.83,0.24-0.91
			l-0.44,0.76c0.1-0.13,0.17-0.69,0.17-0.94c-0.01,0.17-0.21-0.06-0.3,0l0.06,0.21c-0.25-0.19-0.54,1.09-0.81,0.99
			c0.07-0.16,0.32-1.03,0.2-1.16c-0.16,0.41-0.75,1.96-1.08,2.23l0.01-0.25l-0.25,0.23c0.26-0.61,0.9-1.86,1.2-2.34
			c-0.06-0.21,0.04-0.29-0.13-0.31c0-0.24,0.16-0.32,0.21-0.33l-0.34-0.23c-0.1,0.5-0.4,0.43-0.47,0.84l0.52-0.42
			c-0.1,0.49-0.55,1.34-0.79,1.2c-0.02-0.21,0.25-0.86,0.28-1.03c-0.07,0.16-0.32,0.27-0.32,0.14l0.17-0.24
			c-0.1-0.22-0.39,0.6-0.45,0.09c-0.05-0.05-0.04-0.67-0.11-0.39c-0.03,0.58-0.41,2.32-0.57,2.73c-0.01-0.04-0.2-0.61-0.2-0.9
			c0-0.46,0.39-1.01,0.39-1.41c-0.03,0.13-0.13,0.29-0.16,0.33c-0.04-0.13,0.12-0.41-0.03-0.38c-0.14,0.49-0.27-0.11-0.16,0.41
			c-0.17,0.11-0.12-0.14-0.28-0.15c-0.02,0.33-0.39,1.06-0.56,1.17c0.04-0.12,0.04-0.3,0.05-0.38c-0.27-0.11-0.36-0.37-0.62-0.43
			c0-0.13-0.09-0.3,0.01-0.5c-0.06,0.08-0.13,0.24-0.21,0.23c-0.06-0.47,0.19-0.03,0.19-0.57c-0.08,0.29-0.3,0.35-0.45,0.51
			c-0.07,0.46,0.24,0.15,0.4-0.01c-0.14,0.62-0.49,1.22-0.82,1.44c-0.25,0.1,0-0.42-0.06-0.34c-0.38-0.2-0.59,1-0.82,0.48
			c-0.04-0.42,0.17-0.78,0.21-1.07c0.21-0.11,0.21,0.31,0.33,0.32l-0.1-0.22c0.09-0.12,0.22-0.19,0.26-0.06
			c-0.03-0.38-0.66-0.22-0.9-0.62c-0.09,0.12-0.21,0.23-0.2,0.4l0.11-0.03c0.02,0.34-0.29,0.4-0.19,0.57
			c-0.18,0.19-0.41,0.51-0.55,0.29l0.07-0.46c-0.03,0.13,0.06,0.29,0.14,0.17c-0.12,0.18-0.15-0.67-0.36-0.1l0.06,0.34
			c-0.18,0.2-0.46,0.63-0.59,0.45c-0.03,0.46,0.05-0.04,0.05,0.5c0.05-0.67,0.41,0.12,0.41-0.59c-0.02,0.63,0.15,0.3,0.19,0.85
			c0.03-0.15,0.01-0.3,0.13-0.19c0.02-0.04,0.04-0.09,0.06-0.12c0,0,0,0.01,0.01,0.01c0-0.01,0-0.01,0-0.02
			c0.01-0.02,0.01-0.03,0-0.01c-0.02-0.07-0.03-0.16-0.02-0.24c0.15-0.32,0.36-0.26,0.48-0.42c0.07,0.09-0.07,0.16-0.06,0.33
			l0.17-0.24c-0.06,0.33,0.09,0.6-0.14,0.74l0.17,0.05c0.06,0.21,0.18,0.31,0.3,0.19c0.07,0.09,0.29-0.32,0.16-0.08l0.32-0.14
			l-0.02,0.08c0.26,0.1,0.68-0.42,0.85,0.25c0.11-0.06,0.23-0.14,0.36-0.01l-0.04,0.29c0.14-0.07,0.28,0.36,0.4,0.08
			c-0.05,0.79,0.53,0.3,0.7,0.48l0.09-0.37c0.14,0.05,0.29-0.02,0.5-0.13l0.06-0.33c0.21-0.23,0.33,0.32,0.58,0.34
			c-0.04,0.12-0.1,0.08-0.12-0.01c0.12,0.81,0.72-0.4,0.86,0.2c0.09-0.1,0.13-0.05,0.16,0.04c-0.01,0-0.01,0-0.02,0.01
			c0.01,0.01,0.02,0.01,0.03,0.01c0.02,0.06,0.03,0.14,0.05,0.19c-0.01-0.09-0.02-0.16-0.04-0.19c0.05,0,0.14-0.02,0.23-0.08
			l-0.05,0.36c0.01,0,0.01,0,0.02-0.01c0.04,0.15,0.1-0.15,0.12-0.43c0.05-0.05,0.1-0.11,0.15-0.19c-0.07,0.58,0.24-0.15,0.18,0.48
			c0.12-0.28,0.42-0.14,0.6-0.75c-0.02,0.08,0,0.12-0.04,0.12c0.07,0.09,0.13,0.18,0.25,0.02l-0.07,0.46l0.32-0.56
			c0.05,0.3,0.06,0.47-0.13,0.79c0.38-0.47,0.26-0.15,0.6-0.63l-0.08,0.29c0.08,0.01,0.3-0.35,0.29-0.1
			c0.05,0.59,0.86,0.28,1.2,0.89c0.11-0.87,0.12,0.43,0.29-0.23c-0.02,0.21,0.02,0.34-0.1,0.49c0.28-0.14,0.28,0.4,0.56-0.12
			c-0.02,0.21-0.12,0.28-0.12,0.41c0.03-0.04,0.11-0.16,0.11-0.03c0,0.13-0.07,0.16-0.13,0.24c0.25,0.02,0.41-0.6,0.56-1.17
			c0.06,0.3,0.13,0.28,0.3-0.08c0,0.2,0.02,0.42-0.14,0.45c0.08,0.05,0.44,0.4,0.56-0.07c0,0.12,0.11,0.06,0.14,0.01
			c0.18,0.07,0.19,0.12,0.38,0.11l-0.03-0.09c0.2-0.55,0.18-0.09,0.34-0.13l-0.02,0.06c0.25,0.48,0.19-0.16,0.42,0.38l0.06-0.35
			c0.2-0.75,0.19,0.51,0.45,0.27l-0.02-0.22c0.16-0.23,0.06,1.09,0.15,1.21c0.01,0.07-0.06,0.1-0.1,0.14
			c0.18,0.51,0.14-0.45,0.37-0.51c-0.02,0.26-0.19,0.62-0.06,0.7c0.02,0.22,0.59-0.71,0.67-0.19c0-0.2,0-0.4,0.13-0.52
			c0.16-0.03,0.23,0.81,0.51,0.24c0.01,0.06,0,0.11-0.01,0.16c0.15-0.13,0.43-0.17,0.57-0.49c-0.17,1.24,0.84-0.43,0.58,0.69
			l0.36,0.02l-0.04,0.11c0.21,0.12,0.34-0.13,0.48-0.38c0.03,0.09-0.03,0.18-0.04,0.24c0.27,0.3,0.32,0.26,0.71-0.24l-0.05,0.37
			c0.12-0.19,0.34,0.68,0.75,0.33c-0.01,0.04-0.04,0.11-0.07,0.15c0.46-0.34,0.63,1.2,1.06-0.09l0.31-0.27
			c-0.28-0.17,0.18-0.56,0.1-0.81c0.14-0.05,0.22,0.47,0.06,0.5l-0.01-0.07c-0.21,0.68,0.32,0.33,0.21,0.8
			c0.61,0.1,1.11,0.62,1.66,0.78l0.06-0.55l0.19,0.08c0.02,0.14-0.03,0.43-0.16,0.38c0,0.32,0.29-0.2,0.32-0.32
			c0.22,0.28-0.25,0.6-0.17,0.63l0.12-0.01l-0.01-0.07c0.14-0.2,0.2-0.43,0.37-0.36c0.08,0.13-0.02,0.34,0.02,0.37
			c-0.01,0.04,0,0.06,0.06,0.03l0.24,0.1l0-0.44c0.16-0.18,0.23,0.08,0.22-0.43c0,0.78,0.86,0.48,0.91,0.73
			c0.22-0.27,0.37-0.23,0.55-0.15c-0.03-0.1,0.05-0.58,0.2-0.48c-0.28,0.97,0.2,0.49,0.17,1.23c-0.01-0.49,0.49-0.01,0.45-0.72
			c0.12,0.11-0.08,0.37-0.03,0.62c0.41-0.31,0.65,0.41,1.08,0.37c0.04-0.13,0.01-0.34,0.14-0.51l0.06,0.69
			c0.09-0.05,0.24-0.73,0.28-0.25c0-0.11,0.01-0.28,0.07-0.31c0.64,0.8,1.71-0.15,2.23,1.21c-0.05-0.27,0.03-0.28,0.11-0.27
			c-0.04-0.07,0.07-0.32,0.1-0.49l0.22,0.56c0.17-0.47,0.36,0.05,0.5-0.41l-0.12,0.06c0.26-0.51,0.08-1.26,0.26-1.95
			c-0.3,0.58-0.2-1.01-0.66-0.18c-0.02-0.16,0.1-0.21,0.11-0.38c-0.13,0.29-0.23,0.33-0.34,0.16l0.03-0.07
			c-0.43-0.02-0.53-0.36-0.95-0.66l-0.05,0.35c-0.09-0.07-0.08-0.18-0.11-0.28c-0.23,0.5,0.27,0.09,0.03,0.65
			c0.03-0.73-0.69-0.17-0.6-0.99c-0.15-0.04-0.05,0.41-0.2,0.37l0.01-0.23l-0.1,0.27c-0.09-0.07-0.08-0.35-0.04-0.54
			c0.02,0.03,0.08-0.04,0.11-0.05c-0.07-0.28-0.38,0-0.41-0.09l0.12,0.17c-0.46,0.11-0.9-0.29-1.4,0.06l-0.01,0.17
			c-0.37,0.23-0.2-0.24-0.57-0.17l0.02-0.04c-0.1,0.15-0.21,0.21-0.3,0.17c0.13-0.17-0.07-0.41,0.08-0.59
			c-0.41,0.25-0.22,0.22-0.58,0.77l0.01-0.28c-0.13,0.23-0.17,0.36-0.35,0.39c0.19-0.2-0.01-0.44,0.21-0.71
			c-0.22-0.67-0.66,0.48-0.62-0.42c-0.33,0.71,0.21,0.49,0.08,0.63c0.02,0.26-0.26,0.53-0.35,0.43c-0.11-0.04,0.03-1-0.26-1.05
			c0.03,0.01,0.04-0.05,0.07-0.04c-0.06-0.22-0.27,0.21-0.32-0.13c-0.18,0.44-0.16-0.06-0.32,0.51l0.29-0.07
			c-0.18,0.12-0.47,0.76-0.64,0.38c0.05-0.11,0.15-0.25,0.22-0.32c-0.03-0.19-0.16,0.08-0.2-0.11c0.15-0.57,0.34-0.05,0.6-0.46
			c-0.02-0.26-0.39,0.35-0.17-0.26c-0.3,0.77-0.26-0.16-0.59,0.4l0.09-0.34c-0.04,0.05-0.14,0.2-0.2,0.18l0.2-0.43
			c-0.24,0.35-0.22-0.4-0.42-0.23c0.31,0.06-0.03,0.43,0.05,0.72c-0.49,0.38-0.01-0.96-0.48-0.89c0.07-0.04,0.17,0.26,0.04,0.4
			c-0.07-0.09-0.14-0.25-0.15-0.44c-0.3,0.01-0.04,0.37-0.21,0.55c0-0.44-0.18,0.14-0.33,0.25l0.08-0.35
			c-0.27-0.3-0.25,0.72-0.48,0.38l0.23-0.46l-0.18,0.09l0.12-0.39c-0.23,0.26-0.27,0.17-0.4,0.02c-0.02,0.26-0.17,0.64-0.31,0.61
			c-0.05-0.23,0.13-0.32-0.08-0.32c0.1-0.21,0.21-0.48,0.22-0.13c0.04-0.11,0.1-0.21,0.13-0.32c-0.05-0.27-0.25-0.12-0.33-0.13
			c0.03,0.02,0.05,0.05,0.06,0.1l-0.41,0.42c-0.02-0.14,0.04-0.24,0.11-0.34c-0.07,0.02-0.15,0.18-0.24,0.19
			c0.09-0.28,0.15-0.58,0.31-0.69l-0.35,0.25c0.01-0.13-0.07-0.38-0.01-0.47c-0.12-0.2-0.51,0.47-0.67,0.2
			c-0.02,0.05-0.06,0.1-0.11,0.13c-0.18-0.11-0.27-0.5-0.59-0.16l-0.01-0.54c-0.21,0.08,0.03,0.69-0.32,0.81
			c-0.25,0.12,0.02-0.46-0.02-0.62c-0.16,0.24-0.47,0.72-0.57,0.26C288.72,162.13,288.76,162.22,288.83,162.2z M286.55,161.92
			c0.06-0.06,0.2-0.27,0.18-0.06C286.59,162.25,286.6,162.05,286.55,161.92z M282.98,162c0.06-0.11,0.09-0.04,0.12,0.11
			C283.05,162.12,283.01,162.1,282.98,162z M273,162.3c0-0.01,0.01-0.01,0.01-0.02C273.07,162.45,273.05,162.38,273,162.3z
			 M272.84,162.1c-0.03,0.04-0.04,0.09-0.04,0.15c0.03-0.09,0.08-0.08,0.13-0.05C272.93,162.11,272.91,162.04,272.84,162.1z
			 M294.3,166.86l-0.02-0.1C294.39,166.67,294.35,166.76,294.3,166.86z"/>
	</g>
	<g>
		<path d="M283.47,161.6c0,0.06-0.01,0.13-0.03,0.2C283.48,161.74,283.49,161.67,283.47,161.6z"/>
	</g>
	<g>
		<path d="M290.25,162.33C290.25,162.33,290.26,162.33,290.25,162.33c0.01-0.01,0.02-0.04,0.03-0.06L290.25,162.33z"/>
	</g>
	<g>
		<path d="M276.61,159.82c0.03,0.06,0.04,0.13,0.04,0.2C276.67,159.93,276.67,159.86,276.61,159.82z"/>
	</g>
	<g>
		<path d="M271.64,162.46l0.15-0.06c-0.07,0-0.07-0.08-0.09-0.14C271.69,162.34,271.68,162.46,271.64,162.46z"/>
	</g>
	<g>
		<path d="M271.03,160.03c-0.03,0.04-0.04,0-0.07,0.04l-0.03,0.17C271.01,160.23,271.1,160.11,271.03,160.03z"/>
	</g>
	<g>
		<path d="M271.79,161.26c0.06-0.3-0.05-0.22-0.15-0.18c0.01,0,0.01,0,0.02,0C271.54,161.49,271.67,161.38,271.79,161.26z"/>
	</g>
	<g>
		<path d="M271.62,161.09c-0.03,0.01-0.06,0.01-0.08-0.01C271.49,161.24,271.56,161.12,271.62,161.09z"/>
	</g>
	<g>
		<path d="M272.54,162.24c-0.02-0.09-0.11,0.37-0.11,0.25C272.3,162.86,272.82,162.1,272.54,162.24z"/>
	</g>
	<g>
		<polygon points="271.94,160.27 271.89,160.64 272.01,160.36 		"/>
	</g>
	<g>
		<path d="M272.59,160.7l-0.12-0.13c-0.01,0.06-0.04,0.09-0.07,0.12C272.49,160.71,272.57,160.81,272.59,160.7z"/>
	</g>
	<g>
		<path d="M272.4,160.68c-0.04-0.02-0.09-0.02-0.13,0.03C272.3,160.72,272.35,160.72,272.4,160.68z"/>
	</g>
	<g>
		<polygon points="272.16,160.2 272.19,160.29 272.28,160.34 		"/>
	</g>
	<g>
		<path d="M274.11,161.12l0.18-0.07c0.04-0.12,0.02-0.21-0.05-0.17C274.18,160.96,274.11,160.99,274.11,161.12z"/>
	</g>
	<g>
		<path d="M273.87,160.01c0.02,0.09,0.01,0.17,0.01,0.29l0.11-0.45L273.87,160.01z"/>
	</g>
	<g>
		<path d="M274.35,160.01c0.04-0.12,0.31-0.31,0.1-0.33C274.41,159.8,274.23,159.87,274.35,160.01z"/>
	</g>
	<g>
		<polygon points="276.57,161.12 276.53,161.12 276.36,161.86 		"/>
	</g>
	<g>
		<path d="M279.05,159.81c-0.14-0.22-0.15,0.45-0.27,0.19c-0.08,0.17,0.1,0.21,0.02,0.35C278.95,160.19,278.99,160.31,279.05,159.81
			z"/>
	</g>
	<g>
		<path d="M278.8,160.35c-0.02,0.03-0.05,0.06-0.08,0.1C278.76,160.42,278.78,160.38,278.8,160.35z"/>
	</g>
	<g>
		<polygon points="301.48,168.89 301.56,169.08 301.54,168.81 		"/>
	</g>
	<g>
		<path d="M301.83,168.39l-0.08,0.48l0.17-0.41C301.89,168.48,301.83,168.51,301.83,168.39z"/>
	</g>
	<g>
		<path d="M286.44,160.89L286.4,161c-0.01,0.13,0.02,0.14,0.07,0.18L286.44,160.89z"/>
	</g>
	<g>
		<polygon points="287.97,161.61 287.95,161.59 287.9,162.04 		"/>
	</g>
	<g>
		<path d="M289.45,161.37c-0.05-0.03-0.14,0.05-0.19,0.02C289.4,161.34,289.34,161.91,289.45,161.37z"/>
	</g>
</g>
<g>
	<path class="st0" d="M400.04,391.84c-1.41,0-2.82,0.01-4.23,0.05l-61.67,1.79c-2.18,0.06-3.94-1.77-3.78-3.94l9.6-134.98
		c0.13-1.88,1.67-3.36,3.56-3.41l22.87-0.66l8.82-0.25l30.72-0.89c8.99-0.26,17.98,0.38,26.85,1.91l61.53,10.62
		c1.86,0.32,3.18,2,3.05,3.88l-9.6,134.98c-0.15,2.17-2.15,3.73-4.3,3.37l-60.8-10.5c-1.98-0.34-3.97-0.63-5.97-0.88"/>
</g>
<g>
	<path d="M478.14,401.26c-0.29,0-0.58-0.02-0.87-0.07l-60.8-10.5c-1.89-0.33-3.88-0.62-5.9-0.87l0.37-2.98
		c2.07,0.26,4.1,0.56,6.04,0.89l60.8,10.5c0.62,0.11,1.23-0.05,1.72-0.44c0.49-0.38,0.78-0.94,0.83-1.56l9.59-134.98
		c0.08-1.12-0.69-2.11-1.8-2.3l-61.53-10.62c-8.75-1.51-17.68-2.14-26.55-1.89l-62.41,1.81c-1.13,0.03-2.03,0.9-2.11,2.02
		l-9.59,134.98c-0.04,0.62,0.17,1.21,0.6,1.66c0.43,0.45,0.99,0.67,1.65,0.68l61.67-1.79c1.43-0.04,2.86-0.05,4.28-0.05l-0.01,3
		c-1.4-0.01-2.79,0.01-4.19,0.05l-61.67,1.79c-1.5,0.06-2.89-0.55-3.9-1.6c-1.01-1.05-1.53-2.49-1.42-3.95l9.59-134.98
		c0.19-2.67,2.35-4.73,5.02-4.8l62.41-1.81c9.06-0.26,18.2,0.39,27.15,1.93L488.63,256c2.63,0.45,4.48,2.8,4.29,5.47l-9.59,134.98
		c-0.1,1.45-0.82,2.8-1.97,3.7C480.43,400.87,479.3,401.26,478.14,401.26z"/>
</g>
<g>
	<path d="M479.82,213.95c-0.16,2.42-8.93,1.85-8.77-0.56c0.84-13.2-3.54-25.98-12.34-35.99c-8.73-9.92-20.71-15.88-33.77-16.81
		c-0.12-0.01-0.24-0.01-0.35-0.02c-13.2-0.85-25.98,3.54-35.99,12.33c-10.01,8.8-15.99,20.92-16.84,34.12l-2.49,38.82l-8.82,0.25
		l2.54-39.64c1-15.54,8.03-29.8,19.8-40.16c11.77-10.35,26.81-15.5,42.36-14.5c0.13,0.01,0.27,0.01,0.41,0.02
		c15.38,1.09,29.48,8.11,39.74,19.77C475.66,183.37,480.81,198.41,479.82,213.95z"/>
</g>
<g>
	<path d="M408.51,418.48c-1.96-0.4-3.86-0.7-5.75-0.82c-1.9-0.12-3.78-0.06-5.63,0.16c-1.86,0.23-3.69,0.63-5.5,1.21
		c-1.81,0.59-3.57,1.35-5.38,2.21c1.31-1.52,2.96-2.74,4.79-3.65c1.83-0.9,3.81-1.51,5.85-1.75c2.04-0.24,4.11-0.15,6.1,0.28
		C404.96,416.55,406.87,417.32,408.51,418.48z"/>
</g>
<g>
	<path d="M400.97,421.03c-0.78,0.36-1.5,0.57-2.21,0.76c-0.71,0.19-1.4,0.34-2.09,0.46c-0.69,0.13-1.39,0.23-2.12,0.31
		c-0.73,0.07-1.48,0.13-2.33,0.07c0.5-0.7,1.16-1.18,1.85-1.57c0.7-0.38,1.46-0.64,2.24-0.78c0.78-0.14,1.58-0.17,2.37-0.06
		C399.47,420.34,400.25,420.56,400.97,421.03z"/>
</g>
<g>
	<path d="M399.08,459.77c-0.29,0-0.57-0.01-0.86-0.03c-2.64-0.19-5.08-1.22-6.85-2.91c-1.86-1.76-2.79-4.03-2.62-6.37
		c0.34-4.72,5.13-8.24,10.7-7.84c5.56,0.4,9.82,4.56,9.48,9.28c-0.17,2.34-1.41,4.45-3.5,5.93
		C403.63,459.1,401.41,459.77,399.08,459.77z M398.58,445.59c-3.63,0-6.64,2.19-6.85,5.09c-0.1,1.43,0.5,2.84,1.7,3.98
		c1.28,1.21,3.05,1.95,5,2.09c1.95,0.14,3.81-0.35,5.25-1.36c1.35-0.95,2.14-2.27,2.24-3.7c0.22-3.07-2.79-5.8-6.7-6.07
		C399.01,445.6,398.79,445.59,398.58,445.59z"/>
</g>
<g>
	<path d="M399.73,469.08c-0.72,0-1.44-0.03-2.17-0.08c-16.68-1.19-29.28-15.72-28.1-32.4c0.32-4.55,1.61-8.84,3.84-12.76
		c2.1-3.71,5.04-7.01,8.48-9.55c2.68-2.61,9.46-10.05,9.84-14.34c0.11-1.2,0.43-5.4,0.99-12.83l0.1-1.39l1.39,0
		c5.61,0.01,11.27,0.37,16.83,1.09l2.15,0.28l-1.02,1.92c-0.18,0.34-0.38,0.68-0.58,1.03c-0.28,0.49-0.73,1.27-0.87,1.68
		c0.08,0.07,0.19,0.15,0.28,0.21c0.53,0.4,1.51,1.13,1.41,2.47c-0.27,3.54-0.47,5.98-0.53,6.71c0.17,0.71,0.75,3.04,1.58,5.56
		c1.71,5.13,3.02,6.66,3.54,7.09c8.81,6.08,13.81,16.47,13.05,27.12l0,0C428.82,456.86,415.48,469.08,399.73,469.08z M395.5,388.76
		c-0.49,6.58-0.79,10.34-0.89,11.47c-0.54,6.21-9.76,15.29-10.81,16.3l-0.16,0.13c-3.14,2.29-5.81,5.29-7.73,8.67
		c-2,3.53-3.16,7.4-3.46,11.49c-1.07,15.03,10.29,28.12,25.32,29.19c15.03,1.09,28.11-10.29,29.18-25.32
		c0.68-9.62-3.84-19-11.81-24.47l-0.08-0.06c-1.57-1.25-3.06-4.04-4.55-8.52c-1.04-3.15-1.68-5.94-1.71-6.06l-0.05-0.22l0.02-0.23
		c0,0,0.21-2.54,0.52-6.63c-0.06-0.05-0.13-0.1-0.19-0.15c-0.57-0.42-1.62-1.22-1.51-2.7c0.05-0.68,0.35-1.38,0.74-2.1
		C404.09,389.07,399.78,388.81,395.5,388.76z"/>
</g>
<g>
	<path d="M340.85,251.3c11.75,0.21,23.48,0.72,35.2,1.33c5.86,0.28,11.72,0.66,17.58,1l17.56,1.17l17.55,1.33
		c5.85,0.5,11.7,0.94,17.54,1.5c11.69,1.05,23.37,2.21,35.03,3.66c-11.75-0.21-23.48-0.72-35.2-1.33c-5.86-0.28-11.72-0.67-17.58-1
		l-17.56-1.17l-17.55-1.33c-5.85-0.5-11.7-0.94-17.54-1.5C364.19,253.91,352.51,252.76,340.85,251.3z"/>
</g>
<g>
	<g>
		<path d="M277.51,496.49l-0.45-2.97l4.58-0.7c9.97-1.53,18.68-6.77,24.53-14.78c5.48-7.51,7.73-16.57,6.31-25.51l-3.21-20.27
			c-3.03-19.16-21.77-32.25-41.85-29.18l-4.66,0.71l-0.45-2.97l4.66-0.71c21.64-3.3,41.97,10.89,45.26,31.67l3.21,20.27
			c1.54,9.74-0.89,19.6-6.85,27.75c-6.32,8.65-15.73,14.32-26.5,15.97L277.51,496.49z"/>
	</g>
</g>
<g>
	<g>
		<path d="M185.48,510.5c-22.23,2.14-42.33-11.58-45.5-31.55l-3.21-20.27c-1.46-9.24,0.94-18.73,6.78-26.72
			c6.76-9.26,17.51-15.63,29.48-17.46l8.85-1.36l0.45,2.97l-8.85,1.36c-11.19,1.72-21.22,7.64-27.51,16.26
			c-5.36,7.34-7.58,16.04-6.24,24.48l3.21,20.27c3.04,19.16,23.1,32.05,44.78,28.72l7.97-1.22l0.45,2.97l-7.97,1.22
			C187.28,510.31,186.38,510.42,185.48,510.5z"/>
	</g>
</g>
<g>
	<g>
		<path d="M160.26,419.74l-3.38-19.78l20.66,1.21l6.42,14.59L160.26,419.74z M160.47,403.18l2.24,13.11l16.95-2.85l-4.13-9.38
			L160.47,403.18z"/>
	</g>
</g>
<g>
	<g>
		<path d="M196.72,511.76l-4.35-13.89l-5.89-25.35l-4.05-26.57l0-0.06l-2.01-26.8l0.99-8.76l22.49-3.63l-1.03,9.6l1.9,25.63
			l4.26,27.99l5.63,23.76l4.48,14.47L196.72,511.76z M195.28,497.13l3.53,11.25l16.44-2.65l-3.5-11.32l-5.68-23.99l-4.29-28.16
			l0-0.06l-1.91-26.09l0.62-5.82l-16.36,2.64l-0.72,6.35l2,26.32l4.02,26.4L195.28,497.13z"/>
	</g>
</g>
<g>
	<g>
		<rect x="194.01" y="494.61" transform="matrix(0.9882 -0.1533 0.1533 0.9882 -73.6358 37.0841)" width="19.37" height="3"/>
	</g>
</g>
<g>
	<g>
		<rect x="187.31" y="469.4" transform="matrix(0.9882 -0.1533 0.1533 0.9882 -69.8509 35.7601)" width="19.37" height="3"/>
	</g>
</g>
<g>
	<g>
		<rect x="183.9" y="441.13" transform="matrix(0.9882 -0.1533 0.1533 0.9882 -65.5576 34.9036)" width="19.37" height="3"/>
	</g>
</g>
<g>
	<g>
		<rect x="181.5" y="416.12" transform="matrix(0.9882 -0.1533 0.1533 0.9882 -61.7526 34.2393)" width="19.37" height="3"/>
	</g>
</g>
<g>
	<g>
		<path d="M216.79,508.75l-4.35-13.89l-5.89-25.35l-4.05-26.57l0-0.06l-2.01-26.8l0.99-8.76l22.49-3.63l-1.03,9.6l1.9,25.63
			l4.26,27.99l5.63,23.76l4.47,14.47L216.79,508.75z M215.35,494.12l3.53,11.25l16.44-2.65l-3.5-11.32l-5.68-23.99l-4.29-28.16
			l0-0.06l-1.91-26.09l0.62-5.82l-16.36,2.64l-0.72,6.35l2,26.32l4.02,26.4L215.35,494.12z"/>
	</g>
</g>
<g>
	<g>
		<rect x="214.08" y="491.59" transform="matrix(0.9882 -0.1533 0.1533 0.9882 -72.9365 40.1256)" width="19.37" height="3"/>
	</g>
</g>
<g>
	<g>
		<rect x="207.39" y="466.38" transform="matrix(0.9882 -0.1533 0.1533 0.9882 -69.1516 38.8016)" width="19.37" height="3"/>
	</g>
</g>
<g>
	<g>
		<rect x="203.98" y="438.11" transform="matrix(0.9882 -0.1533 0.1533 0.9882 -64.8584 37.9451)" width="19.37" height="3"/>
	</g>
</g>
<g>
	<g>
		<rect x="201.57" y="413.1" transform="matrix(0.9882 -0.1533 0.1533 0.9882 -61.0534 37.2808)" width="19.37" height="3"/>
	</g>
</g>
<g>
	<g>
		<path d="M236.87,505.73l-4.35-13.89l-5.89-25.35l-4.05-26.57l0-0.06l-2.01-26.8l0.99-8.76l22.49-3.63l-1.03,9.6l1.9,25.63
			l4.26,27.99l5.63,23.76l4.47,14.47L236.87,505.73z M235.43,491.1l3.53,11.25l16.44-2.65l-3.5-11.32l-5.68-23.99l-4.29-28.16
			l0-0.06l-1.91-26.09l0.62-5.82l-16.36,2.64l-0.72,6.35l2.01,26.32l4.02,26.4L235.43,491.1z"/>
	</g>
</g>
<g>
	<g>
		<rect x="234.16" y="488.58" transform="matrix(0.9882 -0.1533 0.1533 0.9882 -72.2373 43.1671)" width="19.37" height="3"/>
	</g>
</g>
<g>
	<g>
		<rect x="227.46" y="463.37" transform="matrix(0.9882 -0.1533 0.1533 0.9882 -68.4524 41.8431)" width="19.37" height="3"/>
	</g>
</g>
<g>
	<g>
		<rect x="224.05" y="435.1" transform="matrix(0.9882 -0.1533 0.1533 0.9882 -64.1591 40.9866)" width="19.37" height="3"/>
	</g>
</g>
<g>
	<g>
		<rect x="221.65" y="410.09" transform="matrix(0.9882 -0.1533 0.1533 0.9882 -60.3541 40.3223)" width="19.37" height="3"/>
	</g>
</g>
<g>
	<g>
		<path d="M257.09,502.7l-4.35-13.89l-5.89-25.35l-4.05-26.57l0-0.06l-2.01-26.8l0.99-8.76l22.49-3.63l-1.03,9.6l1.9,25.62
			l4.26,27.99l5.63,23.76l4.48,14.47L257.09,502.7z M255.65,488.08l3.53,11.25l16.44-2.65l-3.5-11.32l-5.68-23.99l-4.29-28.16
			l0-0.06l-1.91-26.09l0.62-5.82l-16.36,2.64l-0.72,6.35l2,26.32l4.02,26.4L255.65,488.08z"/>
	</g>
</g>
<g>
	<g>
		<rect x="254.38" y="485.55" transform="matrix(0.9882 -0.1533 0.1533 0.9882 -71.5341 46.2308)" width="19.37" height="3"/>
	</g>
</g>
<g>
	<g>
		<rect x="247.68" y="460.34" transform="matrix(0.9882 -0.1533 0.1533 0.9882 -67.7492 44.9068)" width="19.37" height="3"/>
	</g>
</g>
<g>
	<g>
		<rect x="244.28" y="432.07" transform="matrix(0.9882 -0.1533 0.1533 0.9882 -63.4559 44.0503)" width="19.37" height="3"/>
	</g>
</g>
<g>
	<g>
		<rect x="241.87" y="407.06" transform="matrix(0.9882 -0.1533 0.1533 0.9882 -59.6509 43.386)" width="19.37" height="3"/>
	</g>
</g>
<g>
	<polygon points="190.73,468.08 187.75,447.84 199.44,446.39 200.29,453.01 197.31,453.39 196.85,449.73 191.16,450.44 
		193.25,464.61 198.99,463.65 198.99,460.95 201.99,460.95 201.99,466.19 	"/>
</g>
<g>
	<path d="M210.81,465.06l-2.98-20.24l11.68-1.45l2.76,19.77L210.81,465.06z M211.24,447.43l2.09,14.17l5.55-0.93l-1.94-13.95
		L211.24,447.43z"/>
</g>
<g>
	<path d="M231.08,461.61l-2.98-20.24l9.49-1.18l2.64,3.02l1.94,13.93l-1.77,2.9L231.08,461.61z M231.51,443.97l2.09,14.17l4.96-0.83
		l0.5-0.82l-1.67-11.98l-1-1.15L231.51,443.97z"/>
</g>
<g>
	<polygon points="250.97,458.95 247.96,438.38 259.08,436.86 259.49,439.83 251.37,440.94 253.49,455.45 262.04,453.91 
		262.57,456.87 	"/>
</g>
<g>
	<rect x="251.89" y="446.9" transform="matrix(0.9922 -0.125 0.125 0.9922 -54.0517 35.3456)" width="5.5" height="3"/>
</g>
</svg>
