<?xml version="1.0" encoding="utf-8"?>
<!-- Generator: Adobe Illustrator 24.2.0, SVG Export Plug-In . SVG Version: 6.00 Build 0)  -->
<svg version="1.1" id="Layer_1" xmlns="http://www.w3.org/2000/svg" xmlns:xlink="http://www.w3.org/1999/xlink" x="0px" y="0px"
	 viewBox="0 0 500 400" style="enable-background:new 0 0 500 400;" xml:space="preserve">
<style type="text/css">
	.st0{fill:#B884C1;}
	.st1{fill:#7F3F98;}
	.st2{fill:#863399;}
	.st3{fill:#FFDD92;}
	.st4{fill:#FFC844;}
	.st5{fill:#FFFFFF;}
	.st6{fill:none;}
	.st7{font-family:'LifeSavers-ExtraBold';}
	.st8{font-size:48px;}
	.st9{letter-spacing:4;}
</style>
<g>
	<path class="st0" d="M455.5,298.7H57.7c-6.6,0-12-5.4-12-12V56.6c0-6.6,5.4-12,12-12h397.8c6.6,0,12,5.4,12,12v230.1
		C467.5,293.3,462.1,298.7,455.5,298.7z"/>
	<g>
		<g>
			<g>
				<g>
					<path class="st0" d="M457.1,299.2c-2.1,0.2-1.3,0.2-1.6,0.2C456.4,299.4,456.9,299.4,457.1,299.2c0.4,0,0.5,0,0.4,0
						C457.5,299.2,457.1,299.2,457.1,299.2z"/>
					<polygon class="st0" points="467.9,271.6 467.9,272.2 467.8,267.4 					"/>
					<path class="st0" d="M467.9,241.2c-0.2,2.9,0,11,0,16.4l0,0.9l0.1,2.4C467.9,254.4,467.8,245.9,467.9,241.2z"/>
					<path class="st0" d="M468.3,225.1c-0.1,1-0.1-3.5,0,3.8c0-0.4,0-0.5,0-0.7C468.3,227.5,468.3,226.6,468.3,225.1z"/>
					<path class="st0" d="M468.3,228.2C468.3,231.4,468.3,226.1,468.3,228.2L468.3,228.2z"/>
					<path class="st0" d="M468.2,213.4l0.1,4.2c0-0.9,0.1-4.6,0.1-3.2C468.3,210.1,468.3,211,468.2,213.4z"/>
					<path class="st0" d="M468.1,209.4l0,2.2C468.1,211.2,468.1,210.6,468.1,209.4z"/>
					<path class="st0" d="M468.2,216.2l-0.1-4.6c0,0.6-0.1,0.7,0,2.1C468.1,213.3,468.1,214.3,468.2,216.2z"/>
					<path class="st0" d="M468.1,218.8c0,2.4-0.1,5.4-0.1,1.2C468,228.1,468.2,226.9,468.1,218.8z"/>
					<path class="st0" d="M467.7,239.7l-0.1,3.2l0.1,2.7C467.7,244.2,467.7,239.5,467.7,239.7z"/>
					<path class="st0" d="M468.3,187.2c0-0.3-0.1,1.4-0.1,1.7l0,3.1C468.2,190.4,468.2,187.4,468.3,187.2z"/>
					<path class="st0" d="M468.2,188.9l-0.1-4.7C468.1,188.4,468.1,189.2,468.2,188.9z"/>
					<polygon class="st0" points="467.9,208.7 468,216.3 467.9,207.2 					"/>
					<polygon class="st0" points="468.3,169.4 468.4,172.1 468.3,167.4 					"/>
					<path class="st0" d="M468.3,157.7c0.1,2,0.1-2.7,0.2-0.6c0-3.2-0.1-5.9-0.1-8.4C468.4,151.3,468.4,154,468.3,157.7z"/>
					<path class="st0" d="M468.2,144.5c0,1.3,0.1,2.7,0.1,4.1C468.3,147.3,468.3,145.9,468.2,144.5z"/>
					<path class="st0" d="M468.1,176.4c0-0.4,0.1-1.1,0.1-3.7l-0.1,1.8C468.1,175.1,468.1,175.7,468.1,176.4z"/>
					<path class="st0" d="M468.1,174.6L468.1,174.6c0-2,0-3.4,0-4C468.1,171.1,468.1,172.3,468.1,174.6z"/>
					<path class="st0" d="M468.1,176.8c0-0.2,0-0.3,0-0.5C468.1,176.5,468.1,176.6,468.1,176.8z"/>
					<path class="st0" d="M468,196.5c-0.1-2.7-0.1-8.4-0.2-2.9C467.8,195.5,467.9,192.4,468,196.5z"/>
					<path class="st0" d="M468,179.1l0,4.9c0-0.1,0.1-1,0.1,0.4L468,179.1z"/>
					<polygon class="st0" points="467.9,176.7 468,179.1 468,177.3 					"/>
					<path class="st0" d="M468.1,153c0-2.1-0.1-4.5-0.1-7.1c0,2.8,0,5.7,0,8.5C468.1,154.8,468.2,156,468.1,153z"/>
					<path class="st0" d="M468.1,163.5c0-0.1,0-0.3,0-0.5C468.1,163.3,468.1,163.5,468.1,163.5z"/>
					<path class="st0" d="M468.1,119.9c0,0.1,0,0.3,0,0.4c0,0,0,0.1,0,0.1L468.1,119.9z"/>
					<path class="st0" d="M468,154.9c0,2.1,0,3.4,0,4.6c0-1.6,0-3.3,0-5.1C468,154.2,468,154.2,468,154.9z"/>
					<path class="st0" d="M468.2,137.3c0,1.1,0,2.4-0.1,3.7C468.2,139.9,468.2,137.7,468.2,137.3z"/>
					<path class="st0" d="M468.1,162.3c0,0.1,0,0.2,0,0.3C468.2,161.9,468.2,162,468.1,162.3z"/>
					<path class="st0" d="M468.1,162.3c0-1.1,0-2-0.1-2.8c0,1.3,0,2.5,0,3.5C468.1,162.7,468.1,162.5,468.1,162.3z"/>
					<path class="st0" d="M467.4,112.1c0.1,0.4,0.2,6,0.1,10.8c0.1,4.7,0.4,1.6,0.6-2.5c0-0.1-0.1-0.1-0.1-5
						c-0.1,1.7-0.1,10.8-0.2,6.7c-0.1-6.5,0-5.3,0.1-8.4c-0.1,2.7-0.2-8.2-0.4-6.8l0.1,5.7C467.5,112.5,467.4,110.5,467.4,112.1z"/>
					<path class="st0" d="M468.1,129.6l0,2c0-2.3,0.1-3.9,0.1-6.9c0-3.3-0.1-4-0.1-4.3l0,9.9L468.1,129.6z"/>
					<path class="st0" d="M468.1,140.7c-0.1-1.6-0.2-6.4-0.3-3.4c0,5.9,0.1,4.1,0.1,7.7C467.9,135.4,468,147.6,468.1,140.7
						c0,1.9,0,3.6,0,5.2c0-1.7,0-3.4,0-4.9c0,0.1,0,0.1,0,0.2l0,0l0,0c0,0.4,0,0.5,0,0.1c0,0,0-0.1,0-0.2
						C468.1,141,468.1,140.8,468.1,140.7c0-2.8,0-0.4,0,0.4c0,0,0,0.1,0,0.1c0,0,0,0,0,0l-0.1-9.5
						C468.1,133.7,468.1,136.2,468.1,140.7z"/>
					<path class="st0" d="M467.5,188.5c0-0.3,0-0.3,0-0.3C467.5,187.6,467.5,187.3,467.5,188.5z"/>
					<path class="st0" d="M467.6,184.6c0,0.7,0.1,1.3,0,3.5c0,2-0.1,0-0.1,0.1c0,1.4,0.1,4.8,0.1,0.5l0-0.7c0-3.8,0.2-8.8,0.2-8.1
						C467.8,181,467.7,182,467.6,184.6z"/>
					<path class="st0" d="M467.8,162.3l-0.1-7.9l-0.1,4l0.1-0.2C467.7,162.7,467.8,161.8,467.8,162.3z"/>
					<polygon class="st0" points="468.1,119 468.3,120.1 468.1,115.5 					"/>
					<polygon class="st0" points="468.1,108.7 468.2,109.1 468.2,106.4 					"/>
					<path class="st0" d="M46.3,151.1l0,2.3C46.3,152.3,46.3,151.6,46.3,151.1z"/>
					<path class="st0" d="M46.3,134.2l0-0.4C46.3,134.6,46.3,134.9,46.3,134.2z"/>
					<path class="st0" d="M273.1,44c-3.4-0.1-7.2-0.2-6.8-0.1l1,0.1C269.8,44,271.6,44,273.1,44z"/>
					<path class="st0" d="M99.7,44.7c0.3,0,0.7,0,1,0c0.8,0,1.6-0.1,2.3-0.1C102,44.6,100.9,44.6,99.7,44.7z"/>
					<path class="st0" d="M97.3,45.1L92.8,45C93.8,45.1,95.3,45.1,97.3,45.1z"/>
					<path class="st0" d="M46.4,243.3l0.1,2.7C46.6,241.7,46.5,243.6,46.4,243.3z"/>
					<path class="st0" d="M420.8,44c-2.9,0-5.3,0-7.3-0.1C417,44,419.8,44.1,420.8,44z"/>
					<path class="st0" d="M45.2,144.4c0,1.4,0,2,0.1,2C45.2,144.9,45.2,144.1,45.2,144.4z"/>
					<path class="st0" d="M405,44c0.5,0,1,0,1.5,0c2.1,0,4.3,0,6.9,0C410.9,43.9,407.9,43.9,405,44z"/>
					<path class="st0" d="M329.8,298.1c0.2,0,0.5,0,0.8,0C330.6,298.1,330.3,298.1,329.8,298.1z"/>
					<path class="st0" d="M427.2,299.2c-1,0-2.5,0-4,0C423.9,299.2,425.1,299.2,427.2,299.2z"/>
					<path class="st0" d="M468.2,67.2C468.2,69.4,468.2,67.6,468.2,67.2L468.2,67.2z"/>
					<path class="st0" d="M467.7,77.8c0-0.5,0-0.8-0.1-0.9C467.7,77.1,467.7,77.5,467.7,77.8z"/>
					<path class="st0" d="M383.2,44.7c-0.1,0-0.1,0-0.2,0C383.7,44.7,383.6,44.7,383.2,44.7z"/>
					<path class="st0" d="M468.1,70.5c0-0.8,0-1.8,0-2.8C468.2,68.2,468.1,69,468.1,70.5z"/>
					<path class="st0" d="M468.2,70.1c0,0.8,0,1.3,0,1.9C468.2,72.2,468.2,72,468.2,70.1z"/>
					<path class="st0" d="M468.2,64.2c0,1.3,0,2.4,0,3.5c0-0.4,0-0.6,0-0.5C468.2,66.6,468.2,65.7,468.2,64.2z"/>
					<path class="st0" d="M150.6,298.4c0.1,0,0.3,0,0.5,0C153.3,298.4,152.3,298.4,150.6,298.4z"/>
					<path class="st0" d="M216.2,45.1c0.1,0,0.2,0,0.2,0C216.4,45.1,216.2,45.1,216.2,45.1L216.2,45.1z"/>
					<path class="st0" d="M208.4,45.2c3.3-0.1,5.2-0.1,7.8-0.1l-2.6-0.3L208.4,45.2z"/>
					<path class="st0" d="M46.4,191.5l0.1-5.5c0.2,6.7,0.1,11.5,0.2,6.3c-0.3-0.8,0-21.4-0.4-22.2l0.1-3.6c0,1,0,1.2,0,2.2
						c0.2-7.1-0.2-5.3-0.2-14.4c0-3.2,0.1-5.4,0.1-3.2l-0.1-7.1c0-2.1,0.1-1.6,0.1,0.5l0-10.8l0,0.1c0-1.5-0.1-5-0.2-6.7
						c0-2.7,0,1.4,0.1,0.7l-0.1-6c0.1-2.4,0.2,2.5,0.2,6.6c0.3-5.6-0.1-5,0.1-17l0,5.6c0.2-3.6,0.1-8,0.2-14.4
						c-0.1,1.5-0.3,12.8-0.4,6.3c0-1.8,0-4.2,0-7.7c0.1,0,0.1-0.9,0.1-2.3c0-1.4,0-3.3,0-5.5l0.2,0.3c0-4.6-0.1-4.3-0.2-7
						c0-5.2,0.1-6.2,0.2-7.4c0-8.2-0.2,5.7-0.2-4.1c0-3.4,0-6.3,0-9.4c0-1.5,0-3.1,0-4.8c0-0.9,0-1.7,0-2.7c0-0.9,0-1.9,0-2.9
						c0.9-4.5-0.1,0.8,0.3-0.8c0.2-1.3,0.6-2.6,1.3-3.8c0.5-0.9,0.4-0.6,0.3-0.4c1-1.4,1.1-1.4,1.2-1.7c0.1-0.1,0.2-0.3,0.6-0.7
						c0.2-0.2,0.4-0.4,0.8-0.7c0.3-0.3,0.8-0.6,1.4-0.9c0.3-0.2,1.1-0.6,2.3-1c0.3-0.1,0.6-0.1,1-0.2c0.3,0,0.7-0.1,1.1-0.1
						c0.4,0,0.8,0,1.2,0c0.4,0,0.9,0,1.3,0c3.6,0.1,7.8,0.1,11.3,0c1.7,0-0.8,0.1-0.3,0.2c9.6-0.1,8.2-0.1,16.1-0.3l6.7,0.1
						c-4.9-0.1,1.4-0.3,6.9-0.4c-1.7-0.1-3.2-0.1-4.2-0.1l8.8-0.1c1.1,0,0.2,0.1-1.3,0.1c0.6,0,1.2,0,1.6,0c3.1,0.1,1.5,0.2-0.7,0.2
						c-1.1,0-2.1-0.1-3.2-0.1c-2.2,0.1-4.2,0.2-3.7,0.3c0.6,0,1.7,0,2.9,0c-0.6,0-0.9,0-0.7,0.1c0.3,0,1.2,0,2.7-0.1l2,0.2l0.5-0.1
						l11.5,0.1c8.2-0.2,15.4-0.4,28.4-0.5c-3.2,0.1-0.7,0.2-0.9,0.4c-3.6-0.2-10.1,0.1-16.9,0c3.5,0,2.8,0.1,1.9,0.1l12.1-0.1
						c-0.3,0.1,2.6,0.1,5.7,0.1c-2.4-0.3,9-0.2,13.9-0.2c0.3,0.1-0.9,0.2-6.9,0.1c6.6,0.2,8.5-0.3,15-0.1c-1.5,0-2.3,0-2.8,0
						c3.4-0.1,11.8,0,9.8,0.1l-1.5,0c9.7,0,29.6,0,31-0.2c0.1,0-1.3,0.3-1.9,0.3l17.3-0.7c-1.5,0.2,4.3,0.6-3.7,0.7
						c2.3,0,5.2,0.1,10,0c-1.6,0-3.9-0.3-1.8-0.3c5.9,0.2,4.1,0.1,11.4,0.3c-2.4,0,0.3-0.3,4-0.3c-0.6,0,0.3,0.3-1.1,0.3l9.3-0.3
						c-2.3,0.1-0.4,0.2,1.7,0.3c-1-0.1,8,0,10.5,0l-3.9-0.1c10.5,0,10.4-0.4,20.8-0.4c-1.3,0.1-3.1,0.4,2.2,0.4
						c2.4-0.1,10.8-0.7,20-0.8l1.8,0.1l7.1-0.1c-4.4,0.2-16.8,0.7-23.5,0.8c3.9,0.1,1.1,0.1,7,0.1c2.1,0.1-3.2,0.1-4.9,0.1l13.7,0
						c-0.6-0.2,10.5-0.2,10-0.3l-14.9,0.2c-0.6-0.2,8.6-0.5,18.3-0.4c2.5,0.1-1.8,0.3-1.6,0.4c1.3-0.1,9.2-0.1,10.1-0.1l-4.1,0.1
						c5.4,0.1,8.8-0.2,15.3-0.1c2.2,0,6.7,0.2,7.1,0.1c-3.7-0.2-4.4-0.8-1.9-0.9c0.8,0,11.8,0.2,14.3,0.3c3.7,0.2-5.5,0.4-2.4,0.5
						c0.1,0,2.2-0.1,3-0.1c2.4,0-1,0.1,4.1,0.1c0.9-0.2,10.4,0,2.4-0.1c5,0,5.3,0,11.2,0c-1.9-0.1,5.3-0.4,10.3-0.4
						c-0.3,0,0.8,0.1,1.4,0.1c10.3,0,15.8,0.1,25.3,0.1c0.9,0,5.5,0.1,3.5,0.2c1.4,0,2.6-0.1,5.6-0.1c5.7,0.1-6.6,0-2.2,0.2
						c0.4-0.1,7.6-0.1,11.8-0.2c-1.3-0.2-9.7,0-13.9,0c0-0.1,1.8-0.2,4.9-0.3s7.4-0.2,12.4-0.2c7.9-0.1,3.4,0.1,4.8,0.1
						c7.5,0,10.6-0.1,13.5-0.2c1.4,0,2.8-0.1,4.6-0.1c0.9,0,1.9,0,3.1,0c1.2,0.1,2.5,0.4,4,1.1c2.2,1.2,2.1,1.5,1.8,1.2
						c-0.4-0.2-1.2-0.6-0.8-0.3c-1.4-0.8-2.8-1.3-4.1-1.5c-1.3-0.3-2.5-0.2-3.6-0.2c-2.2,0-4.2,0-6.4-0.1l5.4,0.1
						c-2.1,0-6.4,0.1-8.7,0c1,0,3.1,0,5.9,0.1c1.4,0,2.9,0,4.5,0c1.6,0,3.4,0.1,5.1,0.8c3.4,1.2,6.3,4.3,7.2,7.9
						c0.5,1.8,0.5,3.6,0.5,5.2c0,1.7,0,3.3,0,4.7c0,2,0.1,5.6,0.1,3.9l0-3.6c0.1-3.3,0.1,6.9,0.2,2.2c0.1,4.9,0.2,10.4,0.1,17.2
						l-0.2,1.3c0-0.1,0.1-4.5,0-6.4c0.1,2.9-0.2,10.5,0,13.7l0.1-4.8c0.1,4.9,0.2,11,0.2,17.1c0.2-2.8,0-1.4,0.2-5.7
						c-0.2,3.8,0-15.6-0.2-9.6c0.2-4.4,0.1-7.7,0.3-13.5c-0.1,0.2-0.1,2.1-0.1-3.1c0-0.2,0-0.8,0-1.1c0-0.2,0-0.2,0-0.3
						c0,0.1,0,0.2,0,0.3c0-0.2,0-0.2,0,0.1c0,1.2,0,2.2-0.1,2.6c-0.1-2.5-0.1-10.7-0.2-13.4c0-3,0.1,1.3,0.1-0.4
						c-0.1-1.4,0-2.7-0.1-4.1c0.4-0.5-2.2-8.1,0.1-1c-0.3-2.2-1.4-4.3-2.8-6.1c-1.3-1.5-3.2-3-5.4-3.8c-2.2-0.9-4.5-0.7-6.1-0.7
						c-3,0-7.7,0.1-5,0l-10.1,0.1l-0.1,0c-10,0-20.5,0.2-31.9,0c-3.4,0-6.8,0.1-12.4,0l-1.1-0.1c-4.3,0-12.9-0.1-14.8,0
						c-4.6-0.3-20.9-0.1-28.5-0.1l-0.3,0.1c-5.2,0-10.2,0-16.7,0.1l0.4,0.1c-5.6,0.1-14.3-0.1-23.2-0.1c0.6,0,2.8,0,4.4,0
						c-10.5-0.3-22.2,0.2-31.8,0c-2.4,0-4.1,0-5.8,0c0.2,0,0.4,0,0.6,0c-0.2,0-0.6,0-1,0c-1.1,0-2.1,0-3.3-0.1c1,0,2,0,2.8,0.1
						c-1.8,0-4.6,0-7.4,0l-1.2-0.1c-0.2,0-0.4,0-0.6,0c-2.7,0-2.2,0.1-0.7,0.1c-1.4,0-2.6,0.1-3.6,0.1c-2.2-0.2-7.2,0.1-10.1-0.1
						c-1.8,0.1-13.7,0.1-15.2,0.3c-0.1,0-0.9,0,0.6,0c-3,0-6.1,0-8.8,0l-1.3-0.2l-6.7,0.2c-4-0.1-5.7-0.1-1.7-0.3
						c-9.7,0.1-7.8,0.1-16.1,0.2l0.4-0.1c-2.9,0-7.7,0.1-9.4,0.1c-6.6-0.2-32.6,0-49.5-0.2c3.3,0.3-7.9-0.1-8.5,0.1
						c-1-0.1-3.3-0.1-0.6-0.2c-8.6,0.1-13-0.1-18.9,0.1c-1-0.1,1.8-0.1,1-0.1c-0.7,0-2.7,0.1-3.6,0c-0.9,0,1.3-0.1,2.6-0.1
						c-8.8,0-9.7,0.2-10.3,0.4c-4.5-0.1-6.7-0.1-9.9,0c-1.6-0.1-4.2-0.1,1.3-0.2c-1.5,0-6.2,0-10.6,0c-4.4,0-8.4,0-8.5,0.1
						c-1,0-4.3,0-5.1,0c-6.9,0-7.5,0-14.3,0l1.9,0c-1.3,0.1-2.7,0-4.5,0.2c-1.8,0.2-3.9,0.8-6.1,2.5l0.1-0.1c-2.5,2-3.4,3.9-3.9,5.1
						c-0.2,0.6-0.4,1.1-0.5,1.5c-0.1,0.4-0.2,0.7-0.2,1.1c-0.2,1.4-0.1,2.7-0.2,8.9l0.1-0.7c0.3,1.2-0.2,11-0.1,18.2l0.1-2.6
						c0.1,3.9-0.4,11-0.4,14.9c0,0.9,0-1.4-0.1-2.6c-0.2,10.3,0.2,1.3,0.2,9c-0.1,1.4-0.2-1.8-0.2,3.3c-0.1,2.6,0.3,15,0.1,22.1
						c0.1-1.6,0.1-3.1,0.2,0.5c0,5.5-0.2,14.8,0,19.7c0,0.7,0,1-0.1,1c0.1,4.2,0.1,13.6,0.2,16.1c-0.2,1.9-0.2,8.4-0.1,14.4
						c0,3,0,5.9,0.1,8c0,2.1,0,3.5-0.1,3.5l0,12.9l0-0.3c0,8.2,0.1,11.1,0.2,14c0,1.9-0.1,0.5-0.1,0.4c-0.1,12-0.1,13.2,0.1,23.3
						l-0.1,1c0.1,2.7-0.2,17.4,0,29.2c0-0.1,0-0.4-0.1-1.3c0,3.3,0,7,0,10.6c0,1.8,0,3.7,0,5.5c0,0.9,0,1.8,0,2.7c0,0.4,0,0.9,0,1.4
						c0,0.5,0.1,0.9,0.2,1.4c0.7,3.6,2.9,6.4,5.2,7.9c2.3,1.5,4.5,2,5.8,2c1.5,0.1,3,0,4.4,0l4.4-0.1c-11.3,0,1.7-0.2-3-0.3
						c4.5,0,11.5,0.1,6,0.2l-0.9,0c-2,0.2,14.1,0.1,13.8,0.2c22.3,0,44,0.1,64.9,0.1l-2.4-0.2l7.3,0c1.9,0,2.6,0.1-2.6,0.1
						c1.4,0.1,3.5,0,5.4,0c1.9,0,3.4-0.1,3.5-0.1c10.2,0.1-4,0.2-0.9,0.2l4.2,0l-1,0c3.4-0.1,3.7-0.2,10-0.1c4,0,2,0.1,3.6,0.1
						c0,0,0.1,0,0.5,0c0.4,0,1,0,1.9,0l9.2,0l-3.7-0.1c4.1-0.1,8.6,0,4.4-0.2c6.2,0.3,34.2,0.1,38,0.2c5.7-0.1,11.3-0.1,18.3-0.1
						c-1.7,0-2.8-0.2,3.2-0.2c-2.2,0.3,11,0.1,15.9,0.4c-4.3-0.2,17.1,0,10.3-0.3c5,0,0.3,0.1,4.1,0.2c11.9-0.1,26.3,0.1,41,0
						c0.2,0-2.2-0.1,0.9-0.2l7.8,0.2c2.9,0,2.7-0.3,8-0.1c-0.8,0-1.9-0.1,0.1-0.1c28.9,0.2,59-0.2,88.4,0.2c-4-0.1-1.3-0.1,1.7-0.1
						c-2,0,0-0.1-0.3-0.2l12.3,0.2c2.2-0.2,13.2,0,14.5-0.2l-3.9,0c5.2-0.2-7.2-0.4-6.5-0.7c-5.8,0.2-15.3-0.3-24.8,0
						c-2.1,0,1.8-0.1,0.7-0.1c-2.4,0.1-5.3,0.1-10.7,0.1l0.6,0c-15.1,0-21.6-0.1-38.7-0.1l1.3,0.1c-3.7,0-4.4-0.1-6.1-0.1
						c-4.2,0.2,10.3,0,6.4,0.2c-4.9-0.2-25.8,0-29.1-0.3c-5.6,0,1.6,0.1-4,0.1l-1.5-0.1l-1.4,0.1c-3.7,0-5.5-0.1-5.7-0.2
						c0.9,0,2.5,0,3.5,0c-4.8-0.1-13.5,0-15.1,0l5.4,0c-15.4,0.1-34.1,0-48.9,0.1l1.1,0.1c-11.3,0.1-9.1-0.1-21.5,0l0.5,0
						c-2.5,0.1-5.8,0.1-9.2,0.1c3.1-0.1-5.9-0.1-1.8-0.2c-12.3,0.1-6.1,0.1-14.2,0.3l-1.9-0.1c-2.8,0.1-3,0.1-9.2,0.2
						c5.1-0.1-4-0.1,1.7-0.2c-13-0.2-19.4,0.2-25.3-0.1c-6,0.3,11.3,0.1,7.9,0.2c2.8,0.1-4.9,0.2-9,0.2c-4.2,0-7.1-0.3-17.6-0.3
						c1,0,1.1,0,2.2,0c-3.9-0.1-7.7,0.1-12.5,0c-2.7,0.2-6.2,0-7,0.2l9.6,0c-5.4,0.1-10.6,0.3-19.5,0.2c0.7,0,3.4-0.1,5.2-0.1
						c-2.6-0.1-5.1,0-7.8,0c0.8-0.2,11.7,0,17.5-0.2c-2.8-0.1-11,0.1-8.1-0.1c-4.2,0.3-10.3,0-17.4,0.2l0.5-0.1
						c-1.1,0-3.4,0.1-5.5,0.1l3.7-0.2c-5.7,0.1-11.1-0.1-16.6,0c11.5,0,2.6,0.1,7.5,0.2c-14.2,0.2-8.2-0.3-24.1-0.3
						c2.2,0,8.1,0.1,4.7,0.1c-3,0-7-0.1-8.9-0.1c-10.5,0,1.6,0.1-2.9,0.2c-3.6-0.1-5.2,0.1-9.8,0.1l0-0.1c-12-0.1-3.2,0.3-14,0.2
						l4.6-0.2l-5.6,0l1.2-0.1c-3.1,0.1-5.1,0.1-7.1,0.1c-1,0-2,0-3.1,0c-0.6,0-1.2,0-1.8,0c-0.3,0-0.6,0-0.9-0.1
						c-0.3-0.1-0.7-0.1-1-0.2c0.7,0.1,0.5,0.2-0.5,0c-1-0.2-2.8-0.7-4.8-2.3c-0.6-0.6-0.9-0.8-0.9-0.9c-0.1-0.1,0,0,0.1,0
						c0,0,0,0-0.1-0.1c-0.1-0.1-0.2-0.2-0.4-0.4c-0.3-0.4-1.1-1.2-1.8-2.9c0.4,0.7,0.8,1.5,1.5,2.3c0.6,0.8,1.5,1.7,2.7,2.7
						c0.1,0.1,0.5,0.3,0.9,0.5c0.4,0.2,0.7,0.3,0.9,0.4c-0.8-0.4-1.7-1-2.6-1.6c-0.8-0.7-1.6-1.5-2.2-2.4c-1.2-1.8-1.8-3.8-1.9-5.1
						c0.1,1,0.4,2.1,0.6,2.7c-0.3-0.8-0.5-1.6-0.7-2.5c-0.1-0.8-0.1-1.7-0.1-2.7l-0.1-5.5c0-1.7,0.1-0.4,0.1,1c0-2.2,0-3.8-0.1-7
						c0.1,0.8,0.2,0.6,0.2,5.3l-0.1-10.4c0-0.7,0.1-5.3,0.2-4c0.1-5.8-0.2-14.2-0.1-21.8c0-0.4,0-1.2-0.1-2.8c0-7.2,0.1-13.6,0-22.1
						l0.2-4.8c0-6.7-0.2,6.6-0.3-4.6c-0.1-7.9,0.1-2.9,0.2-5.7c-0.1-3.9-0.3-10.7-0.1-18C46.3,187.4,46.4,189.2,46.4,191.5z
						 M46.3,109c0,1.6,0.1,4.8,0,5.9C46.2,113.2,46.2,111.8,46.3,109z M111.8,44.9c-1.2,0-3,0-5.1,0
						C108.2,44.9,109.9,44.9,111.8,44.9z M461,45.3c-0.1,0-0.1,0-0.2-0.1c-1.7-0.8-2.3-0.8-2.1-0.8C458.9,44.5,459.8,44.8,461,45.3z
						 M466.5,50.6c0.4,0.7,0.3,0.6,0.2,0.3c-0.3-0.5-1.1-2-2.6-3.4C464.5,48,465.3,48.6,466.5,50.6z M174,299.2l-1.4,0
						C175.8,299.2,174.9,299.2,174,299.2z"/>
					<path class="st0" d="M97.6,45.1c-0.5,0-0.6,0-0.7-0.1C96.3,45,96.3,45,97.6,45.1z"/>
					<path class="st0" d="M46.4,242.8l0,0.3c0,0.1,0,0.2,0,0.3L46.4,242.8z"/>
					<path class="st0" d="M353.7,45.1c-1.5,0-2.4,0-2.9-0.1C350.7,45.1,351.4,45.1,353.7,45.1z"/>
					<path class="st0" d="M468.2,89.8l0-4.7c0,2.3,0,3.1,0,4.3C468.2,89.3,468.2,88.4,468.2,89.8z"/>
					<path class="st0" d="M467.5,131c0,0.7,0,1.5,0,2.2l0.1-0.2C467.6,130,467.5,127.9,467.5,131z"/>
					<path class="st0" d="M467.8,94.2c-0.1,0.4-0.1,3.3,0,6.7c0-0.2,0-0.4,0-0.6C467.9,101.3,467.9,97.8,467.8,94.2z"/>
					<path class="st0" d="M467.8,101.7c0,1,0,2.1,0,3.1C467.8,105.1,467.8,103.5,467.8,101.7z"/>
					<path class="st0" d="M468.1,60c0,1.6,0.1,1,0.1,1.9C468.3,63.7,468,51.4,468.1,60z"/>
					<polygon class="st0" points="467.5,96.9 467.6,95.7 467.5,93.9 					"/>
					<path class="st0" d="M467.6,70.7l0,5.3c0-0.1,0,0.6,0,1.4c0-1.6,0-3.3,0-4.6C467.6,71.5,467.6,70.6,467.6,70.7z"/>
					<path class="st0" d="M467.6,77.4c0,1.7,0,3.3,0,4.3C467.6,80.8,467.6,78.8,467.6,77.4z"/>
					<polygon class="st0" points="467.5,89.7 467.5,88.1 467.5,84.4 					"/>
					<path class="st0" d="M431.4,44.5l-5.8,0c-0.6,0,1,0.1,3.1,0.1C430.1,44.6,432.3,44.6,431.4,44.5z"/>
					<path class="st0" d="M448.9,44.9c-1.6,0-1.7-0.1-2.6-0.1l-0.2,0.2L448.9,44.9z"/>
					<path class="st0" d="M432,44.9c-0.6,0-8.4,0.1-1.1,0.1C431.5,45,437.3,44.9,432,44.9z"/>
					<polygon class="st0" points="344.8,44.7 346.2,44.7 346,44.4 					"/>
					<path class="st0" d="M267.9,45.3c6.9,0.1,1.6-0.2,7.8-0.1c1.6-0.1-5.1-0.1-3.4-0.1C268.1,45.2,266,45.1,267.9,45.3z"/>
					<path class="st0" d="M272.3,45.1c0.7,0,1.4,0,2.1,0C273.2,45.1,272.6,45.1,272.3,45.1z"/>
					<polygon class="st0" points="443.3,299.4 447.8,299.4 444.9,299.3 					"/>
					<path class="st0" d="M451.8,299.2l1,0.2l2.6-0.1C454.5,299.2,452.6,299.2,451.8,299.2z"/>
					<path class="st0" d="M46.6,96.8l0-0.3c0,0.7,0,1.7-0.1,3.8L46.6,96.8z"/>
					<polygon class="st0" points="46.5,156.6 46.5,155.6 46.3,157.5 					"/>
					<path class="st0" d="M46.7,206.8c0-2,0-4.5,0-6.5C46.7,204.8,46.5,207.4,46.7,206.8z"/>
				</g>
			</g>
		</g>
	</g>
</g>
<g>
	<path class="st1" d="M439.5,289.1H73.8c-6.6,0-12-5.4-12-12V66.3c0-6.6,5.4-12,12-12h365.7c6.6,0,12,5.4,12,12v210.8
		C451.5,283.7,446.1,289.1,439.5,289.1z"/>
	<g>
		<g>
			<g>
				<g>
					<path class="st2" d="M441,289.6c-1.9,0.1-1.2,0.2-1.5,0.2C440.3,289.8,440.8,289.8,441,289.6c0.4,0,0.4,0,0.4,0
						C441.4,289.6,440.9,289.6,441,289.6z"/>
					<polygon class="st2" points="451.8,264.6 451.9,265.1 451.8,260.7 					"/>
					<path class="st2" d="M451.8,236.6c-0.2,2.6,0,10.1,0,15.1l0,0.8l0.1,2.3C451.9,248.7,451.8,240.8,451.8,236.6z"/>
					<path class="st2" d="M452.2,221.6c-0.1,0.9-0.1-3.2,0,3.5c0-0.3,0-0.4,0-0.6C452.2,223.9,452.2,223,452.2,221.6z"/>
					<path class="st2" d="M452.2,224.5C452.2,227.4,452.3,222.6,452.2,224.5L452.2,224.5z"/>
					<path class="st2" d="M452.2,210.9l0.1,3.9c0-0.8,0.1-4.3,0.1-3C452.3,207.8,452.3,208.6,452.2,210.9z"/>
					<path class="st2" d="M452.1,207.2l0,2C452.1,208.8,452.1,208.3,452.1,207.2z"/>
					<path class="st2" d="M452.1,213.5l-0.1-4.3c0,0.6-0.1,0.6,0,2C452.1,210.8,452.1,211.7,452.1,213.5z"/>
					<path class="st2" d="M452.1,215.9c0,2.2-0.1,5-0.1,1.1C452,224.4,452.1,223.3,452.1,215.9z"/>
					<path class="st2" d="M451.7,235.1l-0.1,2.9l0.1,2.5C451.6,239.3,451.7,235,451.7,235.1z"/>
					<path class="st2" d="M452.3,186.7c0-0.2-0.1,1.3-0.1,1.6l0,2.9C452.2,189.7,452.2,186.9,452.3,186.7z"/>
					<path class="st2" d="M452.1,188.3l-0.1-4.3C452.1,187.8,452.1,188.5,452.1,188.3z"/>
					<polygon class="st2" points="451.9,206.5 452,213.5 451.9,205.1 					"/>
					<polygon class="st2" points="452.3,170.3 452.4,172.7 452.2,168.4 					"/>
					<path class="st2" d="M452.3,159.4c0.1,1.8,0.1-2.5,0.2-0.6c0-3-0.1-5.5-0.1-7.7C452.3,153.5,452.3,156.1,452.3,159.4z"/>
					<path class="st2" d="M452.2,147.3c0,1.2,0.1,2.5,0.1,3.8C452.3,149.8,452.3,148.6,452.2,147.3z"/>
					<path class="st2" d="M452.1,176.7c0-0.3,0.1-1,0.1-3.4l-0.1,1.7C452.1,175.5,452.1,176.1,452.1,176.7z"/>
					<path class="st2" d="M452.1,175L452.1,175c0-1.9,0-3.2,0-3.7C452.1,171.8,452.1,172.9,452.1,175z"/>
					<path class="st2" d="M452.1,177.1c0-0.2,0-0.3,0-0.4C452.1,176.8,452.1,176.9,452.1,177.1z"/>
					<path class="st2" d="M452,195.2c-0.1-2.5-0.1-7.8-0.2-2.7C451.8,194.4,451.9,191.4,452,195.2z"/>
					<path class="st2" d="M452,179.2l0,4.6c0-0.1,0.1-0.9,0.1,0.3L452,179.2z"/>
					<polygon class="st2" points="451.9,177 452,179.2 452,177.5 					"/>
					<path class="st2" d="M452.1,155.1c0-2-0.1-4.1-0.1-6.6c0,2.6,0,5.3,0,7.9C452.1,156.8,452.1,157.9,452.1,155.1z"/>
					<path class="st2" d="M452.1,164.8c0-0.1,0-0.3,0-0.4C452.1,164.6,452.1,164.8,452.1,164.8z"/>
					<path class="st2" d="M452.1,124.6c0,0.1,0,0.2,0,0.4c0,0,0,0.1,0,0.1L452.1,124.6z"/>
					<path class="st2" d="M452,156.8c0,2,0,3.1,0,4.2c0-1.5,0-3,0-4.7C452,156.2,452,156.2,452,156.8z"/>
					<path class="st2" d="M452.2,140.6c0,1,0,2.2-0.1,3.4C452.2,143,452.2,141,452.2,140.6z"/>
					<path class="st2" d="M452.1,163.7c0,0.1,0,0.2,0,0.3C452.1,163.3,452.1,163.4,452.1,163.7z"/>
					<path class="st2" d="M452.1,163.7c0-1,0-1.8-0.1-2.6c0,1.2,0,2.3,0,3.3C452.1,164.1,452.1,163.9,452.1,163.7z"/>
					<path class="st2" d="M451.4,117.3c0.1,0.3,0.2,5.5,0.1,9.9c0.1,4.4,0.4,1.5,0.6-2.3c0-0.1-0.1-0.1-0.1-4.6
						c-0.1,1.6-0.1,10-0.2,6.2c-0.1-6,0-4.9,0.1-7.8c-0.1,2.5-0.2-7.6-0.4-6.3l0.1,5.2C451.5,117.8,451.4,115.9,451.4,117.3z"/>
					<path class="st2" d="M452,133.6l0,1.9c0-2.1,0.1-3.6,0.1-6.4c0-3.1-0.1-3.7-0.1-3.9l0,9.1L452,133.6z"/>
					<path class="st2" d="M452.1,143.7c-0.1-1.4-0.2-5.9-0.3-3.2c0,5.4,0.1,3.8,0.1,7.1C451.9,138.8,452,150.1,452.1,143.7
						c0,1.8,0,3.3,0,4.8c0-1.6,0-3.1,0-4.5c0,0.1,0,0.1,0,0.2l0,0l0,0c0,0.4,0,0.5,0,0.1c0,0,0-0.1,0-0.2
						C452.1,144.1,452.1,143.9,452.1,143.7c0-2.5,0-0.4,0,0.4c0,0,0,0.1,0,0.1c0,0,0,0,0,0l-0.1-8.8
						C452.1,137.3,452.1,139.6,452.1,143.7z"/>
					<path class="st2" d="M451.5,187.9c0-0.3,0-0.3,0-0.3C451.5,187,451.5,186.8,451.5,187.9z"/>
					<path class="st2" d="M451.6,184.2c0,0.6,0.1,1.2,0,3.3c0,1.8-0.1,0-0.1,0.1c0,1.3,0.1,4.4,0.1,0.5l0-0.6c0-3.5,0.2-8.1,0.2-7.5
						C451.7,181,451.7,181.9,451.6,184.2z"/>
					<path class="st2" d="M451.8,163.7l-0.1-7.3l-0.1,3.7l0.1-0.2C451.7,164.1,451.7,163.2,451.8,163.7z"/>
					<polygon class="st2" points="452.1,123.7 452.2,124.7 452.1,120.5 					"/>
					<polygon class="st2" points="452.1,114.2 452.2,114.6 452.1,112.1 					"/>
					<path class="st2" d="M62.4,152l0,2.2C62.4,153.1,62.4,152.5,62.4,152z"/>
					<path class="st2" d="M62.4,136.4l0-0.4C62.3,136.7,62.4,137,62.4,136.4z"/>
					<path class="st2" d="M272.5,53.7c-3.1-0.1-6.6-0.2-6.3-0.1l1,0.1C269.4,53.6,271.1,53.6,272.5,53.7z"/>
					<path class="st2" d="M112.5,54.3c0.3,0,0.6,0,0.9,0c0.8,0,1.5-0.1,2.1-0.1C114.6,54.3,113.6,54.3,112.5,54.3z"/>
					<path class="st2" d="M110.3,54.8l-4.1-0.1C107.1,54.7,108.4,54.7,110.3,54.8z"/>
					<path class="st2" d="M62.5,237.1l0.1,2.5C62.6,235.6,62.5,237.4,62.5,237.1z"/>
					<path class="st2" d="M408.8,53.7c-2.7,0-4.9,0-6.7-0.1C405.3,53.7,407.9,53.8,408.8,53.7z"/>
					<path class="st2" d="M61.2,145.8c0,1.3,0,1.9,0.1,1.8C61.2,146.3,61.2,145.6,61.2,145.8z"/>
					<path class="st2" d="M394.2,53.6c0.5,0,0.9,0,1.4,0c2,0,4,0,6.4,0C399.6,53.6,396.9,53.6,394.2,53.6z"/>
					<path class="st2" d="M323.4,288.5c0.2,0,0.5,0,0.7,0C324.2,288.5,323.9,288.5,323.4,288.5z"/>
					<path class="st2" d="M413.3,289.6c-0.9,0-2.3,0-3.7,0C410.3,289.6,411.4,289.6,413.3,289.6z"/>
					<path class="st2" d="M452.2,75.9C452.2,78,452.2,76.3,452.2,75.9L452.2,75.9z"/>
					<path class="st2" d="M451.7,85.8c0-0.4,0-0.8-0.1-0.8C451.7,85.1,451.7,85.4,451.7,85.8z"/>
					<path class="st2" d="M374.1,54.3c-0.1,0-0.1,0-0.2,0C374.5,54.3,374.4,54.3,374.1,54.3z"/>
					<path class="st2" d="M452.1,79c0-0.8,0-1.6,0-2.6C452.1,76.8,452.1,77.6,452.1,79z"/>
					<path class="st2" d="M452.2,78.6c0,0.7,0,1.2,0,1.8C452.2,80.6,452.2,80.4,452.2,78.6z"/>
					<path class="st2" d="M452.1,73.1c0,1.2,0,2.2,0,3.3c0-0.4,0-0.6,0-0.5C452.2,75.4,452.2,74.5,452.1,73.1z"/>
					<path class="st2" d="M158.1,288.8c0.1,0,0.3,0,0.4,0C160.6,288.7,159.7,288.7,158.1,288.8z"/>
					<path class="st2" d="M220,54.8c0.1,0,0.1,0,0.2,0C220.1,54.8,220,54.8,220,54.8L220,54.8z"/>
					<path class="st2" d="M212.8,54.9c3.1-0.1,4.8-0.1,7.2-0.1l-2.4-0.3L212.8,54.9z"/>
					<path class="st2" d="M62.4,189.3l0.1-5.1c0.2,6.1,0.1,10.6,0.2,5.8c-0.3-0.7,0-19.8-0.4-20.5l0.1-3.4c0,1,0,1.1,0,2.1
						c0.2-6.5-0.2-4.8-0.2-13.3c0-2.9,0.1-5,0.1-3l-0.1-6.5c0-1.9,0.1-1.4,0.1,0.5l0-10l0,0.1c0-1.4-0.1-4.6-0.2-6.2
						c0-2.5,0,1.3,0.1,0.6l-0.1-5.5c0.1-2.2,0.2,2.3,0.2,6.1c0.3-5.2-0.1-4.6,0.1-15.7l0,5.2c0.2-3.4,0.1-7.4,0.2-13.3
						c-0.1,1.4-0.3,11.8-0.4,5.8c0-1.7,0-3.9,0-7.1c0.1,0,0.1-0.8,0.1-2.1c0-1.3,0-3.1,0-5l0.2,0.3c0-4.3-0.1-3.9-0.2-6.4
						c0-4.8,0.1-5.7,0.2-6.9c0-7.6-0.2,5.3-0.2-3.8c0-3.2,0-5.9,0-8.7c0-1.4,0-2.9,0-4.5c0-0.8,0-1.6,0-2.5c0-0.4,0-0.8,0-1.3
						c0.1-0.4,0.1-0.9,0.2-1.3c1.3-4-0.2,0.7,0.3-0.7c0.3-1.2,0.8-2.4,1.5-3.4c0.6-0.7,0.4-0.5,0.3-0.3c1-1.2,1.1-1.3,1.2-1.5
						c0.1-0.1,0.2-0.3,0.6-0.6c0.2-0.1,0.4-0.3,0.8-0.6c0.4-0.2,0.8-0.5,1.3-0.8c0.5-0.4,3-1.5,6.3-1.2c3.3,0.1,7.2,0.1,10.5,0
						c1.6,0-0.8,0.1-0.3,0.2c8.8-0.1,7.6-0.1,14.8-0.3l6.2,0.1c-4.5-0.1,1.3-0.3,6.3-0.4c-1.6-0.1-3-0.1-3.9-0.1l8.1-0.1
						c1,0,0.2,0.1-1.2,0.1c0.6,0,1.1,0,1.5,0c2.9,0.1,1.4,0.2-0.7,0.2c-1,0-2-0.1-2.9-0.1c-2,0.1-3.9,0.2-3.5,0.3c0.5,0,1.5,0,2.7,0
						c-0.5,0-0.9,0-0.6,0.1c0.3,0,1.1,0,2.4-0.1l1.8,0.2l0.4-0.1l10.6,0.1c7.6-0.2,14.2-0.4,26.2-0.5c-3,0.1-0.6,0.2-0.8,0.4
						c-3.3-0.2-9.3,0.1-15.6,0c3.3,0,2.5,0.1,1.7,0.1l11.1-0.1c-0.3,0.1,2.4,0.1,5.3,0.1c-2.2-0.3,8.3-0.2,12.8-0.2
						c0.3,0.1-0.8,0.2-6.3,0.1c6.1,0.2,7.9-0.3,13.9-0.1c-1.4,0-2.1,0-2.6,0c3.2-0.1,10.9,0,9,0.1l-1.3,0c9,0,27.3,0,28.6-0.2
						c0.1,0-1.2,0.3-1.7,0.3l16-0.7c-1.4,0.2,4,0.6-3.4,0.7c2.1,0,4.8,0.1,9.3,0c-1.5,0-3.6-0.3-1.6-0.3c5.5,0.2,3.8,0.1,10.5,0.3
						c-2.2,0,0.2-0.3,3.7-0.3c-0.5,0,0.3,0.3-1,0.3l8.6-0.3c-2.1,0.1-0.4,0.2,1.5,0.3c-0.9-0.1,7.4,0,9.7,0l-3.6-0.1
						c9.7,0,9.6-0.4,19.2-0.4c-1.2,0.1-2.9,0.4,2,0.4c2.2-0.1,9.9-0.7,18.4-0.8l1.6,0.1l6.5-0.1c-4.1,0.2-15.5,0.7-21.7,0.8
						c3.6,0.1,1,0.1,6.4,0.1c1.9,0.1-3,0.1-4.6,0.1l12.6,0c-0.6-0.2,9.7-0.2,9.2-0.3l-13.7,0.2c-0.6-0.2,7.9-0.5,16.9-0.4
						c2.3,0.1-1.7,0.3-1.5,0.4c1.2-0.1,8.5-0.1,9.3-0.1l-3.8,0.1c5,0.1,8.1-0.2,14.1-0.1c2.1,0,6.2,0.2,6.5,0.1
						c-3.4-0.2-4-0.8-1.8-0.9c0.7,0,10.9,0.2,13.2,0.3c3.4,0.2-5.1,0.4-2.2,0.5c0.1,0,2-0.1,2.8-0.1c2.2,0-0.9,0.1,3.8,0.1
						c0.8-0.2,9.6,0,2.2-0.1c4.6,0,4.9,0,10.3,0c-1.7-0.1,4.9-0.4,9.5-0.4c-0.3,0,0.8,0.1,1.3,0.1c9.5,0,14.5,0.1,23.4,0.1
						c0.8,0,5.1,0.1,3.3,0.2c1.3,0,2.4-0.1,5.2-0.1c5.3,0.1-6.1,0-2.1,0.2c0.3-0.1,7-0.1,10.9-0.2c-1.2-0.2-9,0-12.8,0
						c0-0.1,1.7-0.2,4.5-0.3s6.8-0.2,11.5-0.2c7.3-0.1,3.2,0.1,4.5,0.1c6.9,0,9.8-0.1,12.5-0.2c1.3,0,2.6-0.1,4.2-0.1
						c0.8,0,1.8,0,2.9,0.2c1.1,0.2,2.3,0.6,3.6,1.4c1,0.6,1.4,1,1.6,1.2c0.2,0.2,0.1,0.2-0.1,0.1c-0.4-0.2-1.1-0.6-0.7-0.3
						c-2.5-1.7-4.9-2.1-6.9-2.2c-2.1,0-3.9,0-5.9-0.1l5,0.1c-1.9,0-5.9,0.1-8.1,0c1,0,2.9,0,5.4,0.1c1.3,0,2.7,0,4.2,0
						c1.5,0.1,3.1,0.4,4.6,1.2c1.5,0.7,2.9,1.8,4,3.1c1.1,1.3,1.9,2.9,2.4,4.5c0.5,1.6,0.4,3.3,0.4,4.8c0,1.6,0,3,0,4.4
						c0,1.9,0.1,5.1,0.1,3.6l0-3.4c0.1-3.1,0.1,6.3,0.2,2.1c0.1,4.5,0.2,9.6,0.1,15.9l-0.2,1.2c0-0.1,0.1-4.2,0-5.9
						c0.1,2.6-0.2,9.7,0,12.6l0.1-4.5c0.1,4.5,0.2,10.1,0.2,15.8c0.2-2.6,0-1.3,0.2-5.3c-0.2,3.5,0-14.4-0.2-8.8
						c0.2-4.1,0.1-7.1,0.3-12.5c-0.1,0.2-0.1,1.9-0.1-2.8c0-0.2,0-0.7,0-1c0-0.1,0-0.2,0-0.3c0,0.1,0,0.2,0,0.3c0-0.2,0-0.2,0,0.1
						c0,1.1,0,2-0.1,2.4c-0.1-2.3-0.1-9.9-0.2-12.4c0-2.8,0.1,1.2,0.1-0.4c0-1.3,0-2.5-0.1-3.8c0.4-0.4-1.9-7.5,0.1-0.9
						c-0.3-2.1-1.2-4-2.5-5.7c-1.1-1.5-2.8-3-4.7-3.8c-1.9-0.9-4.1-1.2-5.6-1.1c-2.8,0-7.1,0.1-4.6,0l-9.3,0.1l-0.1,0
						c-9.2,0-18.9,0.2-29.4,0c-3.1,0-6.3,0.1-11.5,0l-1-0.1c-4,0-11.9-0.1-13.6,0c-4.3-0.3-19.3-0.1-26.3-0.1l-0.3,0.1
						c-4.8,0-9.4,0-15.4,0.1l0.4,0.1c-5.2,0.1-13.2-0.1-21.4-0.1c0.6,0,2.6,0,4.1,0c-9.7-0.3-20.5,0.2-29.4,0c-2.2,0-3.8,0-5.3,0
						c0.2,0,0.4,0,0.5,0c-0.2,0-0.6,0-0.9,0c-1,0-2,0-3.1-0.1c0.9,0,1.8,0,2.6,0.1c-1.7,0-4.3,0-6.8,0l-1.1-0.1c-0.2,0-0.4,0-0.6,0
						c-2.5,0-2,0.1-0.7,0.1c-1.3,0-2.4,0.1-3.3,0.1c-2-0.2-6.6,0.1-9.4-0.1c-1.7,0.1-12.7,0.1-14,0.3c-0.1,0-0.8,0,0.5,0
						c-2.8,0-5.6,0-8.1,0l-1.2-0.2l-6.1,0.2c-3.7-0.1-5.3-0.1-1.6-0.3c-8.9,0.2-7.3,0.1-14.9,0.2l0.4-0.1c-2.7,0-7.1,0.1-8.7,0.1
						c-6.1-0.2-30.1,0-45.7-0.2c3,0.3-7.3-0.1-7.9,0.1c-0.9-0.1-3.1-0.1-0.6-0.2c-8,0.1-12-0.1-17.5,0.1c-0.9-0.1,1.7-0.1,0.9-0.1
						c-0.6,0-2.5,0.1-3.4,0c-0.8,0,1.2-0.1,2.4-0.1c-8.1,0-9,0.2-9.6,0.4c-4.1-0.1-6.2-0.1-9.2,0c-1.4-0.1-3.8-0.1,1.2-0.2
						c-1.4,0-5.8,0-9.8,0c-4,0-7.7,0-7.9,0.1c-0.9,0-4,0-4.7,0c-6.4,0-6.9,0-13.2,0l1.7,0c-1.2,0.1-2.5,0-4.2,0.2
						c-1.6,0.2-3.6,0.7-5.7,2.2l0.1-0.1c-2.4,1.7-3.4,3.4-3.9,4.4c-0.3,0.5-0.5,1-0.6,1.3c-0.1,0.4-0.2,0.7-0.3,1
						c-0.2,0.6-0.3,1.2-0.4,2.4c-0.1,1.2,0,2.9-0.1,5.8l0.1-0.6c0.3,1.1-0.2,10.1-0.1,16.8l0.1-2.4c0.1,3.6-0.4,10.1-0.4,13.8
						c0,0.8,0-1.3-0.1-2.4c-0.2,9.5,0.2,1.2,0.2,8.3c-0.1,1.3-0.2-1.7-0.2,3.1c-0.1,2.4,0.3,13.9,0.1,20.4c0.1-1.4,0.1-2.9,0.2,0.4
						c0,5.1-0.2,13.7,0,18.2c0,0.6,0,0.9-0.1,0.9c0.1,3.9,0.1,12.6,0.2,14.9c-0.2,1.8-0.2,7.8-0.1,13.3c0,2.8,0,5.4,0.1,7.4
						c0,2,0,3.2-0.1,3.2l0,11.9l0-0.3c0,7.6,0.1,10.3,0.2,12.9c0,1.8-0.1,0.5-0.1,0.3c-0.1,11.1-0.1,12.2,0.1,21.5l-0.1,1
						c0.1,2.5-0.2,16,0,26.9c0-0.1,0-0.3-0.1-1.2c0,3.1,0,6.4,0,9.8c0,1.7,0,3.4,0,5.1c0,0.8,0,1.7,0,2.5c0,0.4,0,0.9,0,1.3
						c0,0.4,0.1,0.8,0.2,1.2c0.6,3.3,2.5,6,4.5,7.5c2,1.6,4,2.1,5.2,2.3c1.4,0.3,2.8,0.3,4.1,0.2l4-0.1c-10.5,0,1.6-0.2-2.7-0.3
						c4.1,0,10.6,0.1,5.6,0.2l-0.8,0c-1.9,0.2,13,0.1,12.7,0.2c20.6,0,40.6,0.1,59.9,0.1l-2.2-0.2l6.7,0c1.8,0,2.4,0.1-2.4,0.1
						c1.3,0.1,3.3,0,5,0c1.7,0,3.1-0.1,3.2-0.1c9.4,0.1-3.7,0.2-0.8,0.2l3.9,0l-0.9,0c3.2-0.1,3.5-0.2,9.2-0.1
						c3.6,0,1.9,0.1,3.3,0.1c0,0,0.1,0,0.5,0c0.3,0,0.9,0,1.8,0l8.5,0l-3.4-0.1c3.8-0.1,8,0,4.1-0.2c5.7,0.3,31.6,0.1,35.1,0.2
						c5.3-0.1,10.4-0.1,16.9-0.1c-1.6,0-2.6-0.2,3-0.2c-2,0.3,10.2,0.1,14.6,0.4c-4-0.2,15.8,0,9.5-0.3c4.6,0,0.3,0.1,3.8,0.2
						c11-0.1,24.3,0.1,37.9,0c0.2,0-2.1-0.1,0.9-0.2l7.2,0.2c2.7,0,2.5-0.3,7.4-0.1c-0.7,0-1.7-0.1,0.1-0.1
						c26.7,0.2,54.5-0.2,81.6,0.2c-3.7-0.1-1.2-0.1,1.6-0.1c-1.8,0,0-0.1-0.3-0.2l11.3,0.2c2.1-0.2,12.2,0,13.3-0.2l-3.6,0
						c4.8-0.2-6.7-0.4-6-0.7c-5.3,0.2-14.1-0.3-22.9,0c-1.9,0,1.7-0.1,0.6-0.1c-2.2,0.1-4.9,0.1-9.9,0.1l0.6,0
						c-14,0-20-0.1-35.7-0.1l1.2,0.1c-3.4,0-4.1-0.1-5.7-0.1c-3.9,0.2,9.5,0,5.9,0.2c-4.5-0.2-23.8,0-26.8-0.3
						c-5.2,0,1.5,0.1-3.7,0.1l-1.4-0.1l-1.3,0.1c-3.4,0-5.1-0.1-5.2-0.2c0.8,0,2.3,0,3.2,0c-4.4-0.1-12.4,0-14,0l5,0
						c-14.2,0.1-31.5,0-45.2,0.1l1,0.1c-10.5,0.1-8.4-0.1-19.8,0l0.4,0c-2.3,0.1-5.4,0.1-8.5,0.1c2.9-0.1-5.5-0.1-1.7-0.2
						c-11.3,0.1-5.6,0.1-13.1,0.3l-1.7-0.1c-2.6,0.1-2.8,0.1-8.5,0.2c4.7-0.1-3.7-0.1,1.6-0.2c-12-0.2-17.9,0.2-23.4-0.1
						c-5.5,0.3,10.4,0.1,7.3,0.2c2.6,0.1-4.6,0.2-8.3,0.2c-3.8,0-6.5-0.3-16.2-0.3c1,0,1,0,2,0c-3.6-0.1-7.1,0.1-11.5,0
						c-2.5,0.2-5.8,0-6.5,0.2l8.9,0c-5,0.1-9.7,0.3-18,0.2c0.6,0,3.1-0.1,4.8-0.1c-2.4-0.1-4.7,0-7.2,0c0.7-0.2,10.8,0,16.2-0.2
						c-2.6-0.1-10.2,0.1-7.5-0.1c-3.9,0.3-9.5,0-16.1,0.2l0.4-0.1c-1,0-3.2,0.1-5.1,0.1l3.5-0.2c-5.3,0.1-10.2-0.1-15.3,0
						c10.6,0,2.4,0.1,6.9,0.2c-13.1,0.2-7.5-0.3-22.2-0.3c2,0,7.5,0.1,4.4,0.1c-2.8,0-6.5-0.1-8.2-0.1c-9.7,0,1.5,0.1-2.6,0.2
						c-3.3-0.1-4.8,0.1-9,0.1l0-0.1c-11.1-0.1-2.9,0.3-12.9,0.2l4.2-0.2l-5.2,0l1.1-0.1c-2.8,0.1-4.7,0.1-6.5,0.1
						c-0.9,0-1.8,0-2.9,0c-1,0-2.1-0.1-3.4-0.5c0.6,0.2,0.4,0.2-0.5,0c-0.9-0.2-2.5-0.9-4.3-2.5c-0.6-0.6-0.7-0.8-0.8-0.9
						c0-0.1,0,0,0.1,0c0,0-0.1-0.1-0.4-0.5c-0.3-0.4-0.9-1.2-1.6-2.7c0.2,0.3,0.4,0.7,0.6,1c0.2,0.3,0.5,0.7,0.7,1.1
						c0.6,0.8,1.3,1.6,2.4,2.6c0.1,0.1,0.4,0.3,0.8,0.5c0.3,0.2,0.7,0.4,0.8,0.4c-1.5-0.9-3.1-2.3-4.2-4c-0.6-0.8-0.9-1.8-1.2-2.6
						c-0.1-0.4-0.2-0.8-0.3-1.2c-0.1-0.4-0.1-0.7-0.2-1c0.1,0.9,0.3,2,0.5,2.5c-0.3-0.7-0.5-1.5-0.6-2.3c-0.1-0.8-0.1-1.6-0.1-2.4
						l-0.1-5c0-1.6,0.1-0.3,0.1,0.9c0-2,0-3.5-0.1-6.5c0.1,0.8,0.2,0.6,0.2,4.8l-0.1-9.6c0-0.6,0.1-4.9,0.2-3.7
						c0.1-5.3-0.2-13.1-0.1-20.2c0-0.4,0-1.1-0.1-2.6c0-6.6,0.1-12.5,0-20.4l0.2-4.5c0-6.2-0.2,6-0.3-4.2c-0.1-7.3,0.1-2.7,0.2-5.3
						c-0.1-3.6-0.3-9.9-0.1-16.6C62.4,185.5,62.4,187.2,62.4,189.3z M62.3,113.2c0,1.5,0.1,4.4,0,5.5
						C62.2,117,62.3,115.7,62.3,113.2z M123.7,54.5c-1.1,0-2.8,0-4.7,0C120.4,54.5,121.9,54.5,123.7,54.5z M445.8,55.5
						c-0.1,0-0.1-0.1-0.1-0.1c-1.5-0.8-2.1-1-1.9-0.9C444,54.5,444.8,54.8,445.8,55.5z M450.6,60.6c0.3,0.6,0.3,0.6,0.2,0.3
						c-0.2-0.4-1-1.9-2.2-3.2c0.1,0.2,0.4,0.5,0.7,0.9C449.7,59.1,450.1,59.7,450.6,60.6z M179.7,289.6l-1.3,0
						C181.3,289.5,180.5,289.5,179.7,289.6z"/>
					<path class="st2" d="M110.6,54.7c-0.4,0-0.5,0-0.6-0.1C109.3,54.7,109.3,54.7,110.6,54.7z"/>
					<path class="st2" d="M62.4,236.6l0,0.2c0,0.1,0,0.2,0,0.2L62.4,236.6z"/>
					<path class="st2" d="M346.9,54.8c-1.4,0-2.2,0-2.7-0.1C344.1,54.8,344.7,54.8,346.9,54.8z"/>
					<path class="st2" d="M452.2,96.8l0-4.4c0,2.1,0,2.9,0,3.9C452.2,96.3,452.2,95.5,452.2,96.8z"/>
					<path class="st2" d="M451.5,134.8c0,0.6,0,1.4,0,2l0.1-0.2C451.5,133.9,451.5,132,451.5,134.8z"/>
					<path class="st2" d="M451.8,100.9c-0.1,0.3-0.1,3.1,0,6.2c0-0.2,0-0.4,0-0.5C451.9,107.4,451.9,104.1,451.8,100.9z"/>
					<path class="st2" d="M451.8,107.7c0,0.9,0,1.9,0,2.8C451.8,110.9,451.8,109.4,451.8,107.7z"/>
					<path class="st2" d="M452.1,69.3c0,1.5,0.1,0.9,0.1,1.7C452.3,72.7,452,61.4,452.1,69.3z"/>
					<polygon class="st2" points="451.5,103.4 451.6,102.3 451.5,100.5 					"/>
					<path class="st2" d="M451.6,79.2l0,4.9c0-0.1,0,0.5,0,1.3c0-1.5,0-3.1,0-4.3C451.6,79.9,451.6,79.1,451.6,79.2z"/>
					<path class="st2" d="M451.6,85.4c0,1.6,0,3.1,0,3.9C451.6,88.5,451.6,86.6,451.6,85.4z"/>
					<polygon class="st2" points="451.4,96.7 451.5,95.2 451.5,91.8 					"/>
					<path class="st2" d="M418.6,54.2l-5.3,0c-0.5,0,0.9,0.1,2.9,0.1C417.4,54.2,419.4,54.2,418.6,54.2z"/>
					<path class="st2" d="M434.7,54.5c-1.4,0-1.5-0.1-2.4-0.1l-0.2,0.2L434.7,54.5z"/>
					<path class="st2" d="M419.1,54.6c-0.5,0-7.8,0.1-1,0.1C418.7,54.6,424,54.6,419.1,54.6z"/>
					<polygon class="st2" points="338.6,54.4 340,54.4 339.8,54.1 					"/>
					<path class="st2" d="M267.7,55c6.3,0.1,1.5-0.2,7.2-0.1c1.5-0.1-4.7-0.1-3.2-0.1C267.9,54.8,265.9,54.8,267.7,55z"/>
					<path class="st2" d="M271.7,54.8c0.6,0,1.3,0,2,0C272.6,54.8,272.1,54.8,271.7,54.8z"/>
					<polygon class="st2" points="428.3,289.7 432.3,289.8 429.7,289.7 					"/>
					<path class="st2" d="M436.1,289.5l1,0.2l2.4-0.1C438.6,289.5,436.8,289.6,436.1,289.5z"/>
					<path class="st2" d="M62.6,101.9l0-0.3c0,0.6,0,1.6-0.1,3.5L62.6,101.9z"/>
					<polygon class="st2" points="62.5,157.1 62.5,156.2 62.4,157.9 					"/>
					<path class="st2" d="M62.7,203.5c0-1.9,0-4.1,0-6C62.7,201.6,62.5,204,62.7,203.5z"/>
				</g>
			</g>
		</g>
	</g>
</g>
<g>
	<path class="st1" d="M309,353.5c-1.4-3.3-31-3.6-31-26.2c0-22.6,19.1-28.6,19.1-28.6h-98.5c0,0,19.1,6,19.1,28.6
		c0,22.6-29.6,22.9-31,26.2c-4.9,11.7,0,11.9,0,11.9h59.8h2.8H309C309,365.5,313.9,365.2,309,353.5z"/>
	<g>
		<g>
			<g>
				<g>
					<path class="st2" d="M308.6,354.2c-0.2-0.6-0.2-0.3-0.3-0.4C308.8,354.7,308.7,354.2,308.6,354.2z"/>
					<path class="st2" d="M310.6,363.5l0-0.2c-0.1,0.4-0.3,0.8-0.5,1.2C310.3,364.2,310.5,363.9,310.6,363.5z"/>
					<path class="st2" d="M302.5,365.1c0.9,0.2,3.4,0,5,0l0.3,0l0.7-0.1C306.5,365,303.9,365.1,302.5,365.1z"/>
					<path class="st2" d="M297.5,364.7c0.3,0.1-1.1,0.1,1.2,0c-0.1,0-0.1,0-0.2,0C298.3,364.7,298,364.7,297.5,364.7z"/>
					<path class="st2" d="M298.5,364.7C299.5,364.7,297.8,364.6,298.5,364.7L298.5,364.7z"/>
					<path class="st2" d="M294,364.7l1.3-0.1c-0.3,0-1.4-0.1-1-0.1C292.9,364.6,293.2,364.7,294,364.7z"/>
					<path class="st2" d="M292.7,364.9l0.7,0C293.3,364.8,293.1,364.8,292.7,364.9z"/>
					<path class="st2" d="M294.8,364.8l-1.4,0.1c0.2,0,0.2,0.1,0.7,0C293.9,364.9,294.2,364.8,294.8,364.8z"/>
					<path class="st2" d="M295.6,364.8c0.7,0,1.7,0.1,0.4,0.1C298.5,364.9,298.1,364.8,295.6,364.8z"/>
					<path class="st2" d="M302,365.3l1,0.1l0.8-0.1C303.4,365.3,302,365.2,302,365.3z"/>
					<path class="st2" d="M285.9,364.6c-0.1,0,0.4,0.1,0.5,0.1l1,0C286.9,364.7,286,364.7,285.9,364.6z"/>
					<path class="st2" d="M286.4,364.8l-1.4,0.1C286.3,364.9,286.5,364.8,286.4,364.8z"/>
					<polygon class="st2" points="292.5,365.1 294.8,364.9 292,365.1 					"/>
					<polygon class="st2" points="280.4,364.6 281.3,364.6 279.8,364.7 					"/>
					<path class="st2" d="M276.8,364.7c0.6-0.1-0.8-0.1-0.2-0.2c-1,0-1.8,0.1-2.6,0.1C274.9,364.6,275.7,364.6,276.8,364.7z"/>
					<path class="st2" d="M272.8,364.7c0.4,0,0.8-0.1,1.3-0.1C273.6,364.6,273.2,364.7,272.8,364.7z"/>
					<path class="st2" d="M282.6,364.8c-0.1,0-0.3-0.1-1.1-0.1l0.6,0.1C282.2,364.8,282.4,364.8,282.6,364.8z"/>
					<path class="st2" d="M282,364.8L282,364.8c-0.6,0-1.1,0-1.2,0C280.9,364.8,281.3,364.8,282,364.8z"/>
					<path class="st2" d="M282.7,364.8c-0.1,0-0.1,0-0.1,0C282.6,364.9,282.7,364.9,282.7,364.8z"/>
					<path class="st2" d="M288.7,365c-0.8,0.1-2.6,0.1-0.9,0.2C288.5,365.1,287.5,365.1,288.7,365z"/>
					<path class="st2" d="M283.4,365l1.5,0c0,0-0.3-0.1,0.1-0.1L283.4,365z"/>
					<polygon class="st2" points="282.7,365 283.4,365 282.8,365 					"/>
					<path class="st2" d="M275.4,364.8c-0.7,0-1.4,0.1-2.2,0.1c0.9,0,1.8,0,2.6,0C275.9,364.9,276.3,364.8,275.4,364.8z"/>
					<path class="st2" d="M278.6,364.8c0,0-0.1,0-0.1,0C278.6,364.8,278.6,364.9,278.6,364.8z"/>
					<polygon class="st2" points="265.2,364.9 265.4,364.9 265.4,364.9 					"/>
					<path class="st2" d="M276,364.9c0.7,0,1,0,1.4,0c-0.5,0-1,0-1.6,0C275.8,364.9,275.8,364.9,276,364.9z"/>
					<path class="st2" d="M270.6,364.8c0.3,0,0.7,0,1.1,0.1C271.4,364.8,270.7,364.7,270.6,364.8z"/>
					<path class="st2" d="M278.2,364.8C278.3,364.8,278.3,364.8,278.2,364.8C278.1,364.8,278.2,364.8,278.2,364.8z"/>
					<path class="st2" d="M278.2,364.8c-0.3,0-0.6,0-0.9,0.1c0.4,0,0.8,0,1.1,0C278.4,364.8,278.3,364.8,278.2,364.8z"/>
					<path class="st2" d="M262.8,365.5c0.1-0.1,1.8-0.2,3.3-0.1c1.5-0.1,0.5-0.4-0.8-0.6c0,0,0,0.1-1.5,0.1c0.5,0.1,3.3,0.1,2.1,0.2
						c-2,0.1-1.6,0-2.6-0.1c0.8,0.1-2.5,0.2-2.1,0.4l1.7-0.1C263,365.5,262.3,365.5,262.8,365.5z"/>
					<path class="st2" d="M268.2,364.9l0.6,0c-0.7,0-1.2-0.1-2.1-0.1c-1,0-1.2,0.1-1.3,0.1l3,0L268.2,364.9z"/>
					<path class="st2" d="M271.6,364.9c-0.5,0.1-2,0.2-1.1,0.3c1.8,0,1.3-0.1,2.4-0.1C270,365,273.7,364.9,271.6,364.9
						c0.6,0,1.1,0,1.6,0C272.7,364.8,272.2,364.8,271.6,364.9c0.1-0.1,0.1-0.1,0.2-0.1l0,0l0,0c0.1,0,0.2,0,0,0c0,0,0,0-0.1,0
						C271.7,364.9,271.7,364.9,271.6,364.9c-0.8,0-0.1,0,0.1,0c0,0,0,0,0,0l0,0l-2.9,0.1C269.5,364.9,270.2,364.9,271.6,364.9z"/>
					<path class="st2" d="M286.3,365.4C286.2,365.4,286.2,365.4,286.3,365.4C286,365.4,285.9,365.4,286.3,365.4z"/>
					<path class="st2" d="M285.1,365.4c0.2,0,0.4-0.1,1.1,0c0.6,0,0,0.1,0,0.1c0.4,0,1.5-0.1,0.2-0.1l-0.2,0c-1.2,0-2.7-0.2-2.5-0.2
						C284,365.2,284.3,365.3,285.1,365.4z"/>
					<path class="st2" d="M278.3,365.1l-2.4,0.1l1.2,0.1l-0.1-0.1C278.4,365.3,278.1,365.2,278.3,365.1z"/>
					<polygon class="st2" points="265,364.8 265.3,364.7 263.9,364.9 					"/>
					<polygon class="st2" points="261.8,364.8 261.9,364.7 261.1,364.8 					"/>
					<path class="st2" d="M208.3,298.2l0.7,0C208.6,298.1,208.4,298.1,208.3,298.2z"/>
					<path class="st2" d="M203.1,298.1c0,0-0.1,0-0.2,0C203.2,298.2,203.3,298.2,203.1,298.1z"/>
					<path class="st2" d="M185.4,363.5c-0.2-0.9,0-2-0.1-1.8l-0.1,0.3c0,0.3,0,0.6,0.1,0.9C185.3,363.1,185.4,363.3,185.4,363.5z"/>
					<path class="st2" d="M217.6,328.7c0,0.1,0,0.2,0,0.3c0,0.3,0.1,0.5,0,0.7C217.6,329.4,217.6,329,217.6,328.7z"/>
					<path class="st2" d="M217.2,327.9c0.1-0.4,0.1-0.9,0.1-1.4C217.2,326.9,217.2,327.3,217.2,327.9z"/>
					<path class="st2" d="M236.6,298l0.8-0.1C236.1,297.9,236.7,298,236.6,298z"/>
					<path class="st2" d="M229.3,364.9c-0.9,0-1.6-0.1-2.2-0.1C228.2,364.9,229.1,364.9,229.3,364.9z"/>
					<path class="st2" d="M206.2,299.3c0.4,0,0.6,0,0.6-0.1C206.4,299.3,206.1,299.3,206.2,299.3z"/>
					<path class="st2" d="M224.5,364.8c0.2,0,0.3,0,0.5,0c0.7,0,1.3,0,2.1,0C226.3,364.7,225.4,364.7,224.5,364.8z"/>
					<path class="st2" d="M279.3,332.6c0,0.1,0,0.2,0,0.2C279.4,332.9,279.4,332.8,279.3,332.6z"/>
					<path class="st2" d="M300.9,351c-0.3-0.1-0.7-0.2-1.2-0.3C299.9,350.7,300.2,350.8,300.9,351z"/>
					<path class="st2" d="M249,364.8C249.7,364.8,249.1,364.8,249,364.8L249,364.8z"/>
					<path class="st2" d="M252.3,365.2c-0.1,0-0.3,0-0.3,0.1C252.1,365.2,252.2,365.2,252.3,365.2z"/>
					<path class="st2" d="M217.8,365.5C217.8,365.5,217.8,365.5,217.8,365.5C217.9,365.5,217.9,365.5,217.8,365.5z"/>
					<path class="st2" d="M250,364.8c-0.3,0-0.5,0-0.9,0C249.3,364.8,249.6,364.8,250,364.8z"/>
					<path class="st2" d="M249.9,364.8c0.2,0,0.4,0,0.6,0C250.6,364.8,250.5,364.8,249.9,364.8z"/>
					<path class="st2" d="M248.1,364.8c0.4,0,0.7,0,1.1,0c-0.1,0-0.2,0-0.2,0C248.8,364.8,248.6,364.8,248.1,364.8z"/>
					<path class="st2" d="M284.3,298.4c0,0,0.1,0,0.1,0C285.1,298.4,284.8,298.4,284.3,298.4z"/>
					<path class="st2" d="M192.9,350.5C192.9,350.5,192.9,350.5,192.9,350.5C192.9,350.5,192.9,350.5,192.9,350.5L192.9,350.5z"/>
					<path class="st2" d="M195.2,349.7c-0.9,0.4-1.5,0.6-2.3,0.8l0.9,0.1L195.2,349.7z"/>
					<path class="st2" d="M220.7,298.1L219,298c2-0.2,3.5-0.1,1.9-0.2c-0.2,0.3-6.6,0-6.8,0.4l-1.1-0.1c0.3,0,0.4,0,0.7,0
						c-2.2-0.2-1.6,0.2-4.4,0.2c-1,0-1.7-0.1-1-0.1l-2.2,0.1c-0.6,0-0.5-0.1,0.2-0.1l-3.4,0l0,0c-0.7,0-2.2,0.1-2.9,0.2
						c-1.3,0,0.5,0,0.1-0.1l-2.4,0.1c-0.7,0-0.6-0.1-0.1-0.1c0.6,0,1.6,0,2.6,0c-1.4-0.1-2.1-0.1-2.8-0.1c-0.3,0-0.7,0-1.1,0
						c-0.6,0-0.6,0.1-1.1,0.1c1.1,0.4,2.6,0.9,3.8,1.4l-0.9-0.3l-0.5-0.2l-0.6-0.2l-2.5-0.8l0,0l0,0c0.4,0.2,1.1,0.5,2,0.8
						c0.2,0.1,0.4,0.2,0.6,0.2c0.2,0.1,0.4,0.1,0.5,0.2c0.4,0.2,0.8,0.3,1.2,0.5c0.4,0.2,0.9,0.3,1.3,0.5c0.3,0.2,0.7,0.3,1.1,0.5
						c0.3,0.2,0.6,0.3,0.9,0.5c0.2,0.1,0.4,0.2,0.6,0.4c-0.1-0.1-0.3-0.3-0.6-0.4c-0.1-0.1-0.2-0.1-0.4-0.2l-0.4-0.3
						c-0.3-0.2-0.6-0.3-0.9-0.5c-0.6-0.3-1.1-0.5-1.1-0.6c0,0,0.4,0.1,1.3,0.4c0.4,0.2,0.9,0.5,1.4,0.8c0.4,0.2,0.7,0.4,1.2,0.7
						c-0.1,0.1,0.9,0.6,1.9,1.4l-0.2,0.1c1.1,0.7,1.1,0.7,1.8,1.1c1.2,1,1.3,1.4,1.5,1.7c1.7,1.8-1.1-1.3,1,0.7
						c0.6,0.8,1.2,1.5,1.8,2.2c0.5,0.8,1.2,1.5,1.8,2.6c0.6,1.3-0.2-0.2,0,0.3l0.7,1.1c0.1,0.3,0.1,0.2,0,0.2c0.5,0.9,0.2,0,0.9,1.5
						c0.2,0.2,0.5,1,0.8,2c0.2,1.1,0.5,2.3,0.9,3.3c0,0.5-0.1-0.2-0.2-0.1c0.3,1.4,0.4,2,0.5,2.6c0.1,0.3,0.1,0.5,0.2,0.9
						c0.1,0.3,0.1,0.8,0.2,1.4l0,2c0-0.7,0.1-0.6,0.2-0.1c0,0.3,0.1,0.6,0.1,1c0,0.4,0,0.8,0,1.3c0.1-0.5,0.1-1,0.2-1.3
						c0,0.9,0,1.8-0.1,2.7c-0.1,0.3-0.1,0-0.1-0.4c0,0.2,0,0.4,0,0.5c-0.2,1-0.2,0.4-0.2-0.3c0.1-0.3,0.2-0.6,0.2-1
						c-0.1-0.7-0.2-1.3-0.3-1.2c0,0.2,0,0.5,0,0.9c0-0.2,0-0.3-0.1-0.2c0,0.1,0,0.4,0,0.8c-0.1,0.2-0.2,0.4-0.2,0.6l0.1,0.2
						c-0.2,1.1-0.4,2.3-0.8,3.4c-0.3,1.2-0.6,2.3-1.1,3.6c-0.5,1.2-1.3,2.6-2.7,4.1c0.6-0.8,0-0.3-0.1-0.4c0.8-0.7,1.9-2.4,2.8-4.2
						c-0.5,0.9-0.5,0.7-0.4,0.4l-0.4,0.8l-0.5,0.8c-0.3,0.5-0.7,1-1,1.5c0-0.1-0.2,0.1-0.4,0.3c-0.2,0.2-0.5,0.5-0.9,0.9
						c0.3-0.2-0.1,0.4-0.8,1c-0.7,0.7-1.7,1.4-2.2,1.9c-0.1,0,0.1-0.2,1.6-1.4c-0.4,0.3-0.7,0.5-1,0.8c-0.3,0.2-0.5,0.4-0.8,0.7
						c-0.5,0.4-1,0.8-1.9,1.3c0.4-0.2,0.6-0.4,0.7-0.5c-0.8,0.7-3.1,1.8-2.6,1.4l0.4-0.2c-1.3,0.7-3.4,1.6-5.2,2.3
						c-1.8,0.7-3.4,1.2-3.5,1.4c0,0,0.3-0.4,0.5-0.5c-1.6,0.8-3.3,1.5-4.9,2.2c0.4-0.3-1.5-0.2,0.9-1c-0.7,0.2-1.5,0.4-3,0.9
						c0.5-0.1,1.2-0.1,0.6,0.1c-0.9,0.2-1.2,0.2-1.6,0.3c-0.4,0.1-0.8,0.2-1.9,0.7c0.4-0.2,0.4-0.1,0.2,0.1
						c-0.1,0.1-0.2,0.3-0.4,0.4c-0.1,0.1-0.2,0.2-0.2,0.4c-0.1,0.1-0.1,0.3-0.2,0.4c0-0.2-0.3,0-0.2-0.4c-0.2,0.9-0.6,1.8-0.7,2.8
						c0.2-0.7-0.2-0.2-0.5,0.4c0.1-0.3-0.8,2.4-0.8,3.2c0.1-0.4,0.2-0.8,0.3-1.2c-0.4,1.6-0.4,2.5-0.2,3.3c0,0.2,0.1,0.4,0.1,0.6
						c0.1,0.2,0.1,0.4,0.2,0.7c0.2,0.5,0.3,1.1,0.9,1.7c-0.2-0.1-0.4-0.3-0.4-0.2c0,0,0,0.4,0.8,1c0.2,0.1,0.6,0.2,1,0.1
						c0.4-0.1,0.9-0.2,1.4-0.2c1.1-0.2,2.4-0.3,3.8-0.4l0.5,0.1l2.2-0.1c-1.4,0.2-5.1,0.7-7.2,0.8c1.2,0.1,0.3,0.1,2.1,0.1
						c0.6,0.1-1,0.1-1.5,0.1l4.2,0c-0.2-0.2,3.2-0.2,3.1-0.3l-4.6,0.2c-0.2-0.2,2.6-0.5,5.6-0.4c0.8,0.1-0.6,0.3-0.5,0.4
						c0.4-0.1,2.8-0.1,3.1-0.1l-1.3,0.1c1.7,0.1,2.7-0.2,4.7-0.1c0.7,0,2.1,0.2,2.2,0.1c-1.1-0.2-1.3-0.8-0.6-0.9
						c0.2,0,3.6,0.2,4.4,0.3c1.1,0.2-1.7,0.4-0.7,0.5c0,0,0.7-0.1,0.9-0.1c0.7,0-0.3,0.1,1.3,0.1c0.3-0.2,3.2,0,0.7-0.1
						c1.5,0,1.6,0,3.4,0c-0.6-0.1,1.6-0.4,3.2-0.4c-0.1,0,0.3,0.1,0.4,0.1c3.1,0,4.8,0.1,7.8,0.1c0.3,0,1.7,0.1,1.1,0.2
						c0.4,0,0.8-0.1,1.7-0.1c1.8,0.1-2,0-0.7,0.2c0.1-0.1,2.3-0.1,3.6-0.2c-0.4-0.2-3,0-4.3,0c0-0.2,2.2-0.4,5.3-0.5
						c2.4-0.1,1.1,0.1,1.5,0.1c4.6,0,3.9-0.4,7.7-0.2c1.5,0.1,0.1,0.3,0.4,0.4c-2,0.1-3.1-0.1-4.4-0.1l1.7,0.1c-0.6,0-2,0.1-2.7,0
						c1.3,0.1,7.7,0,11.3,0.1c0.6,0,1.7-0.1,1.2-0.1l-1.1,0c-1-0.1,2.1-0.1,0.7-0.2c1.5-0.1,3.2-0.2,5.3-0.1l0.4,0.2
						c0,0-1.4-0.1-2,0c0.9-0.1,3.2,0.2,4.2,0l-1.5-0.1c1.5-0.1,3.4-0.2,5.2-0.2c-0.9-0.2-0.4,0-1.8-0.2c1.2,0.2-4.8,0-2.9,0.2
						c-1.4-0.2-2.4-0.1-4.1-0.3c0.1,0.1,0.6,0.1-0.9,0.1c-0.1,0-0.2,0-0.3,0c0,0-0.1,0-0.1,0c0,0,0.1,0,0.1,0c-0.1,0-0.1,0,0,0
						c0.4,0,0.7,0,0.8,0.1c-0.8,0.1-3.3,0.1-4.1,0.2c-0.9,0,0.4-0.1-0.1-0.1l-1.3,0.1c-0.1-0.1-2.5-0.2-0.3-0.3l-2,0
						c-1.2-0.1-2.8-0.1-3.8,0c-0.9,0-2.4,0.1-1.5,0l-3.1,0.1l0,0c-3.1,0-6.3,0.2-9.8,0c-1,0-2.1,0.1-3.8,0l-0.3-0.1
						c-1.3,0-4-0.1-4.5,0c-1.4-0.3-6.4-0.1-8.7-0.1l-0.1,0.1c-1.6,0-3.1,0-5.1,0.1l0.1,0.1c-1.7,0.1-4.4-0.1-7.1-0.1
						c0.2,0,0.9,0,1.4,0c-3.2-0.3-6.8,0.2-9.8,0c-0.5,0.1-0.9-0.3-1.1-0.6c0,0,0.1,0.1,0.1,0.1c0,0-0.1-0.1-0.1-0.2
						c-0.1-0.2-0.2-0.5-0.3-0.8c0,0.3,0.2,0.5,0.3,0.7c-0.3-0.4-0.5-1.1-0.6-1.9l0.1-0.3c0-0.1,0-0.1,0-0.2c0.1-0.8,0-0.6-0.2-0.2
						c0-0.4,0-0.8,0-1.1c0.1-0.3,0.2-0.8,0.3-1.4c0.1-0.6,0.3-1.1,0.5-1.5c0-0.3,0.3-1.3,0.7-2.2c0.2-0.5,0.3-1,0.5-1.4
						c0-0.1,0.1-0.2,0.1-0.3c0,0,0.1-0.1,0.1-0.1c0-0.1,0.1-0.2,0.1-0.2c0,0,0.2-0.1-0.1,0.1c0.6-0.5,1.6-0.8,2.3-1.1l0.4,0
						c0.6-0.3,1.3-0.5,1.9-0.8c1.2-0.3,1.7-0.3,0.6,0.1c2.8-1,2.3-0.7,4.7-1.6l-0.1,0.1c0.9-0.3,2.2-0.9,2.7-1c1-0.3,3.4-1.1,6-2.5
						c2.6-1.4,5.3-3.3,7.2-5.3c-0.5,0.3,0-0.2,0.5-0.7c0.5-0.6,1.1-1.3,1.1-1.4c0.2-0.2,0.7-0.8,0.2-0.1c1.4-2.3,2.1-3.5,2.5-5.4
						c0.2-0.3-0.1,0.6,0,0.3c0-0.2,0.2-0.8,0.3-1.1c0.1-0.3,0,0.4-0.2,0.8c0.7-2.7,0.4-3,0.3-3.3c0.3-1.4,0.3-2.1,0.2-3.1
						c0.1-0.2,0.1-0.6,0.1-0.6c0,0,0.1,0.2,0.1,1c0.1-1-0.1-5.9-0.4-5.9c0-0.3-0.2-1.3-0.3-1.6c-0.1-1.1-0.3-1.6-0.5-2.2
						c-0.2-0.6-0.3-1.1-0.6-2.1l0.1,0.6c-0.1-0.2-0.2-0.4-0.3-0.6c-0.1-0.2-0.2-0.4-0.3-0.7c-0.2-0.5-0.4-1.1-0.7-1.9l0,0
						c-0.8-1.8-1.1-2.1-1.2-2.5c-0.1-0.2-0.2-0.4-0.4-0.7c-0.2-0.3-0.5-0.8-1.1-1.6l0,0.2c-0.2-0.1-0.6-0.8-1.3-1.7
						c-0.3-0.4-0.7-0.9-1.1-1.4c-0.4-0.4-0.8-0.9-1.3-1.2l0.5,0.6c-0.9-0.8-2.3-2.6-3.3-3.3c-0.2-0.2,0.4,0.2,0.7,0.4
						c-2.6-2-0.4-0.2-2.4-1.5c-0.3-0.3,0.6,0.1-0.8-0.8c-0.1-0.1-0.3-0.2-0.6-0.3c-0.1,0-0.1-0.1-0.1-0.1l-0.1,0
						c-0.1,0-0.1,0-0.2-0.1c-0.3-0.1-0.8-0.3-1.2-0.4l-0.3-0.1c0,0-0.1,0-0.1,0l0.1,0l0.1,0c0.2,0,0.4,0,0.6,0
						c-0.4-0.1-0.9-0.1-0.4-0.2c0.2,0,0.6,0,0.9,0c0.4,0,0.5,0,1.2,0.1c1.1,0,2.2,0.1,3,0c0.2,0,0.3,0,0.3,0.1
						c1.3-0.1,4.2-0.1,5-0.2c1.2,0.4,8-0.2,8,0.2l4,0l-0.1,0c2.5,0,3.4-0.1,4.3-0.2c0.6,0,0.2,0.1,0.1,0.1c3.7,0.1,4.1,0.1,7.2-0.1
						l0.3,0.1c0.8-0.1,5.3,0.2,9,0c0,0-0.1,0-0.4,0.1c4.1-0.1,9.8,0.3,11.3-0.1l2.7-0.1c-3.5,0,0.5-0.2-0.9-0.3
						c1.4,0,3.5,0.1,1.9,0.2l-0.3,0c-0.6,0.2,4.3,0.1,4.2,0.2c6.8,0,13.5,0.1,19.9,0.1l-0.7-0.2l2.2,0c0.6,0,0.8,0.1-0.8,0.1
						c0.8,0.1,2.7-0.1,2.7-0.1c3.1,0.1-1.2,0.2-0.3,0.2l1.3,0l-0.3,0c1.1-0.1,1.1-0.2,3.1-0.1c1.2,0,0.6,0.1,1.1,0.1c0,0,0,0,0.2,0
						c0.1,0,0.3,0,0.6,0l1.7,0c-0.1,0-0.2-0.1-0.4-0.1c0.8-0.1,1.6,0,1.1-0.2c0.1,0,0.3,0.1,0.6,0.1c0.1,0,0.3,0,0.4,0
						c0.2,0-0.1,0-0.2,0.1c-0.1,0-0.2,0.1-0.3,0.1c-1.1,0.4-1.7,0.7-3.4,1.8c-1.4,0.9-2.5,1.8-2.8,2c-0.6,0.6-1.3,1.2-2,1.9
						c-0.3,0.3-0.7,0.7-1,1c-0.3,0.4-0.7,0.8-1,1.2c0.4-0.4,0.7-0.5-0.5,0.9c0-0.2-0.1-0.1-0.3,0.1c-0.2,0.2-0.5,0.6-0.8,1.1
						c-0.3,0.5-0.7,1-1,1.5c-0.3,0.5-0.6,1-0.8,1.3c0.2-0.3,0.1-0.1,0,0.2c-0.2,0.4-0.5,0.9-0.7,1.5c-0.5,1.2-0.9,2.2-0.4,1.3
						c-0.6,1.4-0.2,0-0.7,1.1c-1.1,3.6-1.9,8-1.8,12.6c0,0.1,0.1-0.7,0.2,0.3c0,0.8,0,1.6,0.1,2.4c0.2,0.9,0.4,0.8,0.7,2.4
						c0-0.2-0.1-0.6,0.1,0c0.6,2.2,1.7,4.3,3.1,6.1c1.4,1.8,3.1,3.4,5,4.7c3.8,2.7,8.1,4.4,12.4,5.9c-1.1-0.4-0.4-0.2,0.5,0.1
						c-0.6-0.2,0-0.1-0.1-0.2c1.2,0.4,2.4,0.8,3.6,1.2c0.4,0,1.3,0.3,2.3,0.6c0.9,0.3,1.8,0.6,2,0.6c-0.4-0.1-0.7-0.3-1.1-0.4
						c0.8,0.2,0.3-0.1-0.4-0.4c-0.7-0.3-1.5-0.7-1.3-0.8c-1.8-0.3-4.4-1.6-7.3-2.2c-0.6-0.3,0.5,0.1,0.2-0.1
						c-0.7-0.1-1.6-0.4-3.1-1.1l0.2,0c-2.1-0.8-3.6-1.6-5.1-2.5c-1.5-0.9-3-1.9-4.8-3.6l0.2,0.3c-0.8-0.8-0.9-0.9-1.3-1.3
						c-0.5-0.4,0,0.2,0.6,0.7c0.6,0.5,1.2,1.1,0.7,0.8c-0.5-0.6-1.9-1.9-3-3.5c-1.1-1.5-1.8-3.2-1.9-3.7c-0.6-1.6,0,0.5-0.5-1.1
						l-0.1-0.4l-0.2-0.4c-0.3-1.1-0.3-1.6-0.2-1.7c0.1,0.3,0.2,0.7,0.2,1c-0.3-1.4-0.6-4-0.6-4.5c0,0.5,0,1.1,0.1,1.6
						c-0.1-1.1-0.2-2.4-0.1-3.6c0-0.6,0.1-1.3,0.1-1.9l0.1-1l0.2-0.9c0.2-1.3,0.3-2.5,0.7-3.7c0.3-1.2,0.6-2.4,1-3.4l-0.2,0.3
						c0.6-1.6,0.9-2.2,1.3-2.9c0.2-0.3,0.4-0.6,0.6-1.1c0.1-0.2,0.3-0.5,0.4-0.8c0.2-0.3,0.4-0.6,0.7-1l-0.1,0.1
						c0.4-0.7,0.9-1.5,1.6-2.3c-0.6,0.8,1.3-1.3,0.5-0.3c0.6-0.7,1-1.1,1.2-1.4c0.3-0.3,0.4-0.4,0.5-0.5c0.2-0.2,0.2-0.4,1.1-1.3
						l0.5-0.3c0.6-0.6,0.6-0.7,2.1-1.8c-1.2,1,1.1-0.6-0.3,0.5c0.6-0.4,1.3-0.8,1.8-1.1c0.3-0.2,0.5-0.3,0.8-0.5
						c0.4-0.2,0.7-0.4,1.1-0.6c0.3-0.2,0.8-0.4,1.2-0.5c0.4-0.2,0.7-0.3,1.1-0.5l0.3-0.1l0.3-0.1c0.2-0.1,0.4-0.2,0.6-0.2
						c0.4-0.2,0.8-0.3,1.3-0.4c0,0,0-0.1,0-0.2l0.1,0l0,0l-0.1,0c-0.1,0-0.2,0-0.3,0c-1.1,0.1-1.1,0.1-0.8,0.1c0.1,0,0.2,0,0.3,0
						c0.1,0,0.1,0,0.2,0l0.1,0l0.1,0l0,0l-0.1,0l0,0l0,0.1c-0.8,0.3-1.6,0.6-2.1,0.8c-0.4,0.2-0.6,0.2-0.3,0.1
						c-0.5,0.2-0.5,0.1-0.2,0c0.3-0.1,0.9-0.4,1.4-0.6c0.1-0.1,0.1-0.1,0.3-0.2c-0.3,0-0.6,0-0.8,0c-0.7,0-1.1-0.1-2-0.2
						c-0.5,0-1-0.1-1.8-0.1c-0.3,0-0.7,0-1.1,0c-0.3,0-0.7,0-1.1,0c0.3,0,0.3,0,0.7,0c-1.2-0.1-2.4,0.1-3.8,0
						c-0.8,0.2-1.9,0-2.2,0.2l3,0c-1.7,0.1-3.2,0.3-6,0.2c0.2,0,1-0.1,1.6-0.1c-0.8-0.1-1.6,0-2.4,0c0.2-0.2,3.6,0,5.4-0.2
						c-0.9-0.1-3.4,0.1-2.5-0.1c-1.3,0.3-3.2,0-5.3,0.2l0.1-0.1c-0.3,0-1.1,0.1-1.7,0.1l1.1-0.2c-1.8,0.1-3.4-0.1-5.1,0
						c3.5,0,0.8,0.1,2.3,0.2c-4.4,0.2-2.5-0.3-7.4-0.3c0.7,0,2.5,0.1,1.5,0.1c-0.9,0-2.2-0.1-2.7-0.1c-3.2,0,0.5,0.1-0.9,0.2
						c-1.1-0.1-1.6,0.1-3,0.1l0-0.1c-3.7-0.1-1,0.3-4.3,0.2l1.4-0.2l-1.7,0l0.4-0.1c-1.9,0.1-2.5,0.1-4.3,0c0.4,0.1-0.2,0.2-1.9,0.2
						c-1.1-0.1,0.6-0.1-1.7-0.1c0.5-0.1,1.1-0.2,2.1-0.1c0.1,0,0.5-0.1,0.6-0.1c-1.2-0.1-3,0-3.9,0c0.3,0,0.7,0,0.9,0l-3.4,0.2
						c-0.5,0-0.1-0.1,0.3-0.1c-0.7,0-1.2,0.1-2.2,0.1c0.3-0.1,0.2-0.2,1.6-0.2l-3.2,0.1c-0.2,0-1.6-0.1-1.2-0.2
						c-1.8-0.1-4.4,0.2-6.7,0.1c-0.1,0-0.4,0-0.9,0.1c-2.2,0-4.2-0.1-6.8,0l-1.5-0.2c-2.1,0,2,0.2-1.4,0.3c-2.4,0.1-0.9-0.1-1.8-0.2
						c-1.2,0.1-3.3,0.3-5.5,0.1C219.4,298.1,220,298.1,220.7,298.1z M200.7,300.2c-0.9-0.3-3.1-1.1-3.8-1.4c0.5,0.2,0.9,0.3,1.3,0.4
						c0.3,0.1,0.6,0.2,0.8,0.3C199.5,299.7,200,299.9,200.7,300.2z M216.9,332.3c0-0.4,0.2-0.9,0.3-1.5
						C217.1,331.3,217,331.8,216.9,332.3z M241.7,364.9C241.7,364.9,241.6,364.9,241.7,364.9C240.5,364.8,240.9,364.8,241.7,364.9z
						 M243.9,364.9c0.2,0,0.2,0,0.1-0.1c-0.2,0-0.7,0-1.3,0C243,364.9,243.3,364.9,243.9,364.9z M291.4,299.2l-0.4,0
						C292,299.2,291.7,299.2,291.4,299.2z"/>
					<path class="st2" d="M217.2,328c0-0.1,0.1-0.2,0.1-0.2C217.3,327.6,217.3,327.6,217.2,328z"/>
					<path class="st2" d="M236.4,298.1L236.4,298.1c0.1,0,0.1,0,0.2,0L236.4,298.1z"/>
					<path class="st2" d="M208.7,365.9c-0.5,0-0.7,0-0.9-0.1C207.8,365.9,208,365.9,208.7,365.9z"/>
					<path class="st2" d="M256,364.7l-1.5,0c0.7,0,1,0,1.3,0C255.8,364.8,255.5,364.7,256,364.7z"/>
					<path class="st2" d="M268.6,365.5c0.2,0,0.4,0,0.7,0l-0.1-0.1C268.3,365.4,267.7,365.4,268.6,365.5z"/>
					<path class="st2" d="M257.3,365.1c0.1,0.1,1,0.1,2,0h-0.2C259.5,365,258.4,365.1,257.3,365.1z"/>
					<path class="st2" d="M259.6,365.2c0.3,0,0.6,0,0.9,0C260.7,365.1,260.2,365.1,259.6,365.2z"/>
					<path class="st2" d="M246.8,364.9c0.5,0,0.3-0.1,0.6-0.1C247.9,364.6,244.2,364.9,246.8,364.9z"/>
					<polygon class="st2" points="258.2,365.5 257.8,365.3 257.2,365.4 					"/>
					<path class="st2" d="M250.1,365.4l1.6,0c0,0,0.2,0,0.4,0C251.2,365.3,250.1,365.3,250.1,365.4z"/>
					<path class="st2" d="M252.2,365.4c0.5,0,1,0,1.3,0C253.2,365.3,252.6,365.3,252.2,365.4z"/>
					<polygon class="st2" points="255.9,365.5 255.5,365.5 254.3,365.5 					"/>
					<path class="st2" d="M232.6,365.3l-1.8,0c-0.2,0,0.3,0.1,1,0.1C232.2,365.4,232.9,365.4,232.6,365.3z"/>
					<path class="st2" d="M238,365.7c-0.5,0-0.5-0.1-0.8-0.1l-0.1,0.2L238,365.7z"/>
					<path class="st2" d="M232.8,365.7c-0.2,0-2.6,0.1-0.3,0.1C232.6,365.8,234.4,365.8,232.8,365.7z"/>
					<polygon class="st2" points="206,365.5 206.4,365.5 206.4,365.3 					"/>
					<path class="st2" d="M183.9,362.1c0,1.2,0.2,1.3,0.2,1.4c0,0.1,0.1,0.1,0.1,0.3c0,0.2,0.1,0.4,0.4,0.9c0.1,0.1,0.1,0.1,0,0
						c-0.1-0.1-0.2-0.3-0.2-0.5c-0.1-0.4-0.2-0.8-0.1-0.6c-0.2-0.7-0.3-1.2-0.3-1.5C184,361.8,184,361.8,183.9,362.1z"/>
					<path class="st2" d="M184.3,363.6c0.1,0.2,0.1,0.4,0.3,0.7C184.4,363.9,184.3,363.7,184.3,363.6z"/>
					<path class="st2" d="M305.6,352.5c0.4,0.2,0.8,0.3,1.2,0.5c-0.3-0.1-0.5-0.2-0.8-0.4L305.6,352.5z"/>
					<path class="st2" d="M308,353.2c0.1,0.1,0.1,0.2,0.2,0.3l0.3,0.1c0.1,0,0.1,0.1,0.2,0.1C308.6,353.6,308.2,353.3,308,353.2z"/>
					<path class="st2" d="M204.3,302.7l0.1,0c-0.1-0.2-0.4-0.3-0.9-0.7C203.8,302.3,204.1,302.5,204.3,302.7z"/>
					<polygon class="st2" points="210,298 209.7,298 210.2,298.1 					"/>
					<path class="st2" d="M225.4,297.8c-0.6,0-1.4,0-2,0C224.8,297.8,225.6,298,225.4,297.8z"/>
				</g>
			</g>
		</g>
	</g>
</g>
<g>
	<g>
		<g>
			<g>
				<g>
					<path class="st0" d="M282.9,345.9c0.1,0,0.1-0.1,0.1-0.1C282.8,345.7,282.9,345.9,282.9,345.9z"/>
					<polygon class="st0" points="281.1,345.6 281.2,345.6 280.9,345.6 					"/>
					<path class="st0" d="M279.5,345.3c0.1,0.2,0.6,0.1,0.8,0.2l0,0.1l0.2-0.1C280.2,345.4,279.8,345.4,279.5,345.3z"/>
					<path class="st0" d="M278.8,344.7c0,0.1-0.2,0,0.2,0.1c0,0,0,0,0,0C278.9,344.7,278.9,344.7,278.8,344.7z"/>
					<path class="st0" d="M278.9,344.7C279.1,344.8,278.8,344.7,278.9,344.7L278.9,344.7z"/>
					<path class="st0" d="M278.2,344.6l0.2,0c0,0-0.2-0.1-0.2-0.1C278,344.5,278,344.5,278.2,344.6z"/>
					<path class="st0" d="M277.9,344.7l0.1,0C278,344.7,278,344.7,277.9,344.7z"/>
					<path class="st0" d="M278.3,344.7l-0.3,0c0,0,0,0.1,0.1,0C278.1,344.7,278.2,344.7,278.3,344.7z"/>
					<path class="st0" d="M278.4,344.7c0.1,0.1,0.3,0.1,0,0.1C278.9,344.9,278.9,344.8,278.4,344.7z"/>
					<path class="st0" d="M279.4,345.4l0.2,0.1l0.2,0C279.7,345.5,279.4,345.4,279.4,345.4z"/>
					<path class="st0" d="M276.8,344.3c0,0,0.1,0.1,0.1,0.2l0.2,0C276.9,344.4,276.8,344.3,276.8,344.3z"/>
					<path class="st0" d="M276.9,344.4l-0.3,0C276.8,344.5,276.9,344.5,276.9,344.4z"/>
					<polygon class="st0" points="277.8,344.9 278.3,344.8 277.8,344.9 					"/>
					<polygon class="st0" points="275.9,344.1 276,344 275.7,344.1 					"/>
					<path class="st0" d="M275.2,344c0.1-0.1-0.1-0.1,0-0.2c-0.2,0-0.3,0-0.5,0.1C274.9,343.9,275,343.9,275.2,344z"/>
					<path class="st0" d="M274.5,343.9c0.1,0,0.1,0,0.2,0C274.7,343.9,274.6,343.9,274.5,343.9z"/>
					<path class="st0" d="M276.2,344.3c0,0,0-0.1-0.2-0.1L276.2,344.3C276.1,344.3,276.1,344.3,276.2,344.3z"/>
					<path class="st0" d="M276.1,344.3L276.1,344.3c-0.1,0-0.2,0-0.2,0C275.9,344.3,276,344.3,276.1,344.3z"/>
					<path class="st0" d="M276.2,344.3L276.2,344.3C276.2,344.3,276.2,344.4,276.2,344.3z"/>
					<path class="st0" d="M277.2,344.7c-0.2,0-0.5,0-0.2,0.2C277.1,344.8,277,344.7,277.2,344.7z"/>
					<path class="st0" d="M276.3,344.5l0.3,0.1c0,0,0-0.1,0-0.1L276.3,344.5z"/>
					<polygon class="st0" points="276.2,344.5 276.3,344.5 276.2,344.5 					"/>
					<path class="st0" d="M275,344.1c-0.1,0-0.2,0-0.4,0c0.1,0,0.3,0.1,0.4,0.1C275,344.2,275.1,344.1,275,344.1z"/>
					<path class="st0" d="M275.5,344.2L275.5,344.2C275.5,344.2,275.5,344.2,275.5,344.2z"/>
					<polygon class="st0" points="273.2,343.9 273.2,343.9 273.2,343.9 					"/>
					<path class="st0" d="M275,344.2c0.1,0,0.2,0,0.2,0C275.2,344.2,275.1,344.2,275,344.2C275,344.2,275,344.2,275,344.2z"/>
					<path class="st0" d="M274.1,343.9c0.1,0,0.1,0.1,0.2,0.1C274.3,343.9,274.2,343.9,274.1,343.9z"/>
					<path class="st0" d="M275.4,344.2L275.4,344.2C275.4,344.1,275.4,344.2,275.4,344.2z"/>
					<path class="st0" d="M275.4,344.2c-0.1,0-0.1,0-0.2,0C275.4,344.2,275.4,344.2,275.4,344.2
						C275.5,344.2,275.5,344.2,275.4,344.2z"/>
					<path class="st0" d="M272.7,344.5c0-0.1,0.3-0.1,0.6,0c0.3,0,0.1-0.4,0-0.6c0,0,0,0.1-0.3,0.1c0.1,0.1,0.6,0.2,0.3,0.3
						c-0.3,0-0.3-0.1-0.4-0.2c0.1,0.1-0.5,0.1-0.4,0.3L272.7,344.5C272.7,344.4,272.6,344.4,272.7,344.5z"/>
					<path class="st0" d="M273.7,344l0.1,0c-0.1,0-0.2-0.1-0.3-0.2c-0.2,0-0.2,0.1-0.2,0.1L273.7,344L273.7,344z"/>
					<path class="st0" d="M274.3,344c-0.1,0.1-0.4,0.1-0.2,0.2c0.3,0,0.2-0.1,0.4-0.1C274,344.2,274.6,344.2,274.3,344
						c0.1,0,0.2,0,0.3,0C274.5,344,274.4,344,274.3,344L274.3,344L274.3,344L274.3,344C274.3,344,274.4,344,274.3,344L274.3,344
						C274.3,344,274.3,344,274.3,344C274.1,344,274.3,344,274.3,344L274.3,344L274.3,344l-0.5-0.1C273.9,344,274.1,344,274.3,344z"
						/>
					<path class="st0" d="M276.7,345C276.7,345,276.7,345,276.7,345C276.7,345,276.7,345,276.7,345z"/>
					<path class="st0" d="M276.5,344.9c0,0,0.1,0,0.2,0c0.1,0.1,0,0.1,0,0.1c0.1,0,0.3,0,0-0.1l0,0c-0.2-0.1-0.4-0.3-0.4-0.3
						C276.4,344.7,276.4,344.8,276.5,344.9z"/>
					<path class="st0" d="M275.4,344.5l-0.4,0l0.2,0.1l0-0.1C275.4,344.6,275.4,344.5,275.4,344.5z"/>
					<polygon class="st0" points="273.2,343.8 273.2,343.7 273,343.8 					"/>
					<polygon class="st0" points="272.6,343.7 272.6,343.6 272.5,343.7 					"/>
					<path class="st0" d="M241.6,343.4l-0.1,0C241.6,343.4,241.6,343.4,241.6,343.4z"/>
					<path class="st0" d="M242.5,343.4L242.5,343.4C242.5,343.4,242.5,343.4,242.5,343.4z"/>
					<path class="st0" d="M259.1,342.4c-0.2-0.1-0.4-0.3-0.4-0.1l0,0.1C259,342.3,259.1,342.4,259.1,342.4z"/>
					<path class="st0" d="M249.9,342.7L249.9,342.7c0.1,0,0.1,0,0.2-0.1C250,342.7,249.9,342.7,249.9,342.7z"/>
					<path class="st0" d="M249.7,343.2l-0.2-0.1C249.6,343.1,249.6,343.2,249.7,343.2z"/>
					<path class="st0" d="M236.7,343.7l-0.1,0.1C236.8,343.8,236.7,343.8,236.7,343.7z"/>
					<path class="st0" d="M267,343.1c-0.2-0.1-0.3-0.1-0.4-0.1C266.8,343,266.9,343.1,267,343.1z"/>
					<path class="st0" d="M241.9,342.2c-0.1,0-0.1,0-0.1,0.1C241.9,342.3,242,342.3,241.9,342.2z"/>
					<path class="st0" d="M266.2,342.9C266.2,342.9,266.2,342.9,266.2,342.9c0.2,0,0.3,0,0.5,0C266.5,342.9,266.3,342.8,266.2,342.9
						z"/>
					<path class="st0" d="M219.1,345.6C219.1,345.6,219.1,345.6,219.1,345.6C219.1,345.6,219.1,345.6,219.1,345.6z"/>
					<path class="st0" d="M213.8,345.6c0,0,0.1,0,0.2-0.1C214,345.6,213.9,345.6,213.8,345.6z"/>
					<path class="st0" d="M270.4,343.4C270.5,343.4,270.4,343.4,270.4,343.4L270.4,343.4z"/>
					<path class="st0" d="M270.9,343.9C270.9,343.9,270.9,343.9,270.9,343.9C270.9,343.9,270.9,343.9,270.9,343.9z"/>
					<path class="st0" d="M264.9,343.5L264.9,343.5C265,343.5,265,343.5,264.9,343.5z"/>
					<path class="st0" d="M270.6,343.4c0,0-0.1,0-0.1-0.1C270.5,343.4,270.5,343.4,270.6,343.4z"/>
					<path class="st0" d="M270.6,343.4c0,0,0.1,0,0.1,0C270.7,343.4,270.7,343.4,270.6,343.4z"/>
					<path class="st0" d="M270.3,343.4c0.1,0,0.1,0,0.2,0c0,0,0,0,0,0C270.4,343.4,270.3,343.4,270.3,343.4z"/>
					<path class="st0" d="M228.5,344C228.5,344,228.5,344,228.5,344C228.4,344.1,228.4,344,228.5,344z"/>
					<polygon class="st0" points="256.1,343.4 256.1,343.4 256,343.4 					"/>
					<path class="st0" d="M255.6,343.4c0.2-0.1,0.3-0.1,0.4-0.1l-0.1-0.3L255.6,343.4z"/>
					<path class="st0" d="M239.5,343.5l0.3,0.1c-0.3,0.2-0.6,0.1-0.3,0.3c0-0.3,1.1-0.1,1.2-0.4l0.2,0.1c-0.1,0-0.1,0-0.1,0
						c0.4,0.2,0.3-0.3,0.8-0.2c0.2,0,0.3,0.1,0.2,0.1l0.4-0.1c0.1,0,0.1,0.1,0,0.1l0.6,0l0,0c0.1-0.1,0.3-0.1,0.4-0.2
						c0.1,0-0.1,0,0,0.1l0.3-0.1c0.1,0.1-0.1,0.2-0.3,0.2c0.3,0.3,0.3-0.1,0.9,0.1l-0.3,0.1c0.2,0.2,0.4,0.1,0.8,0.2
						c-0.1-0.1-0.7-0.3-0.3-0.4c0.1,0,0.2,0,0.4,0c0,0.1,0.2,0.1,0.4,0.1l0,0.2c0.2,0,0.2-0.1,0.4-0.2c0.3,0,0.3,0.1,0.4,0.2
						c0.4,0-0.3-0.2,0.2-0.2c0.4,0.1,0.6,0,1.1-0.1c0.3,0.1,0,0.1,0,0.1l0.2-0.1c0.1,0,0,0,0,0.1c0.2-0.1,0-0.2,0.3-0.2
						c0.1-0.2,0.6,0.2,1,0.1c0.1,0,0,0.1,0,0.2c0.5-0.1,0.4-0.1,0.9-0.3l0.4,0.1c-0.3-0.1,0.1-0.3,0.4-0.4c-0.1-0.1-0.2-0.1-0.2-0.1
						l0.5-0.1c0.1,0,0,0.1-0.1,0.1c0,0,0.1,0,0.1,0c0.2,0.1,0.1,0.2,0,0.2c-0.1,0-0.1-0.1-0.2-0.1c-0.1,0.1-0.2,0.2-0.2,0.3
						c0,0,0.1,0,0.2,0c0,0-0.1,0,0,0.1c0,0,0.1,0,0.1-0.1l0.1,0.2l0-0.1l0.6,0.1c0.4-0.2,0.8-0.4,1.5-0.5c-0.2,0.1,0,0.2-0.1,0.4
						c-0.2-0.2-0.5,0.1-0.9,0c0.2,0,0.1,0.1,0.1,0.1l0.6-0.1c0,0.1,0.1,0.1,0.3,0.2c-0.1-0.3,0.5-0.2,0.7-0.2c0,0.1-0.1,0.2-0.4,0.1
						c0.3,0.2,0.5-0.3,0.8-0.1c-0.1,0-0.1,0-0.2,0c0.2-0.1,0.6,0,0.5,0.1l-0.1,0c0.5,0,1.6,0,1.7-0.2c0,0-0.1,0.3-0.1,0.3l1-0.7
						c-0.1,0.2,0.2,0.6-0.2,0.7c0.1,0,0.3,0.1,0.5,0c-0.1,0-0.2-0.3-0.1-0.3c0.3,0.2,0.2,0.1,0.6,0.3c-0.1,0,0-0.3,0.2-0.3
						c0,0,0,0.3-0.1,0.3l0.5-0.3c-0.1,0,0,0.2,0.1,0.3c0-0.1,0.4,0,0.6,0l-0.2-0.1c0.6,0.1,0.6-0.4,1.1-0.3
						c-0.1,0.1-0.2,0.3,0.1,0.4c0.1-0.1,0.6-0.7,1.1-0.7l0.1,0.1l0.4-0.1c-0.2,0.2-0.9,0.6-1.3,0.8c0.2,0.1,0.1,0.1,0.4,0.1
						c0.1,0.1-0.2,0.1-0.3,0.1l0.7,0.1c0-0.2,0.6-0.1,0.5-0.3l-0.8,0.1c0-0.2,0.5-0.4,1-0.4c0.1,0.1-0.1,0.3-0.1,0.3
						c0.1-0.1,0.5-0.1,0.5,0l-0.2,0.1c0.3,0.1,0.5-0.2,0.8,0c0.1,0,0.3,0.2,0.4,0.1c-0.2-0.2-0.2-0.8,0-0.9c0,0,0.6,0.2,0.7,0.3
						c0.2,0.2-0.3,0.3-0.2,0.5c0,0,0.1-0.1,0.2-0.1c0.1,0.1-0.1,0.1,0.2,0.1c0.1-0.2,0.5,0.1,0.1-0.1c0.3,0,0.3,0.1,0.6,0.1
						c-0.1-0.1,0.3-0.3,0.6-0.4c0,0,0,0.1,0.1,0.1c0.5,0.1,0.8,0.2,1.3,0.2c0,0,0.3,0.1,0.2,0.2c0.1,0,0.1-0.1,0.3-0.1
						c0.3,0.2-0.3,0-0.1,0.2c0-0.1,0.4-0.1,0.6-0.1c-0.1-0.2-0.5-0.1-0.7,0c0-0.2,0.4-0.4,1-0.4c0.4,0,0.2,0.2,0.2,0.1
						c0.8,0.1,0.7-0.3,1.4-0.1c0.2,0.2,0,0.3,0,0.4c-0.3,0-0.5-0.1-0.7-0.2l0.3,0.1c-0.1,0-0.3,0-0.5,0c0.2,0.1,1.3,0.2,1.9,0.4
						c0.1,0,0.3-0.1,0.2-0.1l-0.2,0c-0.2-0.1,0.4-0.1,0.1-0.2c0.3,0,0.6-0.1,0.9,0l0,0.2c0,0-0.2-0.1-0.3-0.1c0.2,0,0.5,0.3,0.7,0.1
						l-0.2-0.1c0.3,0,0.6-0.2,0.9-0.1c-0.1-0.2-0.1,0-0.3-0.2c0.2,0.2-0.8-0.1-0.5,0.1c-0.2-0.2-0.4-0.1-0.7-0.4
						c0,0.1,0.1,0.1-0.2,0c0,0,0,0-0.1,0l0,0l0,0c0,0,0,0,0,0c0.1,0,0.1,0.1,0.1,0.1c-0.2,0.1-0.6,0-0.7,0.1c-0.2,0,0.1,0,0-0.1
						l-0.2,0.1c0-0.1-0.4-0.2,0-0.3l-0.3,0c-0.2-0.1-0.5-0.1-0.6-0.1c-0.2,0-0.4,0.1-0.3,0l-0.5,0l0,0c-0.5-0.1-1.1,0.1-1.7-0.2
						c-0.2,0-0.4,0-0.7,0l0-0.1c-0.2,0-0.7-0.2-0.8-0.1c-0.2-0.3-1.1-0.2-1.5-0.2l0,0.1c-0.3,0-0.5,0-0.9,0l0,0.1
						c-0.3,0.1-0.8-0.1-1.2-0.2c0,0,0.2,0,0.2,0c-0.5-0.3-1.2,0.1-1.7-0.1c-0.1,0-0.2,0-0.3,0c0,0,0,0,0,0c0,0,0,0-0.1,0
						c-0.1,0-0.1,0-0.2-0.1c0.1,0,0.1,0.1,0.1,0.1c-0.1,0-0.2,0-0.4,0l-0.1-0.1c0,0,0,0,0,0c-0.1-0.1-0.1,0.1,0,0.1
						c-0.1,0-0.1,0-0.2,0.1c-0.1-0.2-0.4,0-0.5-0.2c-0.1,0.1-0.7,0-0.8,0.2c0,0,0,0,0,0c-0.2,0-0.3-0.1-0.5,0l-0.1-0.2l-0.4,0.2
						c-0.2-0.1-0.3-0.2-0.1-0.3c-0.5,0.2-0.4,0.1-0.9,0.2l0-0.1c-0.2,0-0.4,0.1-0.5,0c-0.3-0.2-1.7-0.1-2.6-0.3
						c0.2,0.3-0.4-0.1-0.5,0.1c-0.1-0.1-0.2-0.1,0-0.2c-0.5,0.1-0.7-0.1-1,0.1c-0.1-0.1,0.1-0.1,0.1-0.1c0,0-0.1,0.1-0.2,0
						c0,0,0.1-0.1,0.1-0.1c-0.5,0-0.5,0.2-0.6,0.4c-0.2-0.1-0.4-0.1-0.5,0c-0.1-0.1-0.2-0.1,0.1-0.2c-0.2,0-1-0.1-1,0.1
						c-0.1,0-0.2,0-0.3,0c-0.4,0-0.4,0-0.8,0l0.1,0c-0.1,0.2-0.3,0-0.6,0.1l0,0c-0.7-0.1-0.3,0.1-0.9-0.1l0,0.1
						c-0.1,0.3-0.6-0.1-1,0l0.1,0.1c-0.2,0.1-0.6-0.3-0.8-0.4c0,0,0.1,0,0.1-0.1c-0.6-0.1-0.1,0.2-0.5,0.2c-0.1-0.1,0.1-0.2-0.2-0.2
						c-0.1-0.1-0.8,0.3-1.2,0.1c0.1,0.1,0.2,0.1,0,0.2c-0.3,0-0.8-0.2-1.1,0c0,0-0.1,0-0.1,0c-0.2,0.1-0.7,0.1-0.9,0.2
						c-0.2-0.4-1.4,0.2-1.4-0.1l-0.7,0.1l0,0c-0.4,0-0.6,0.1-0.7,0.2c-0.1,0,0-0.1,0-0.1c-0.6,0-0.7,0-1.2,0.2l-0.1-0.1
						c-0.1,0.1-0.9-0.2-1.6,0c0,0,0,0,0.1-0.1c-0.7,0.2-1.7-0.2-1.9,0.2L233,343c0.6,0-0.1,0.2,0.2,0.3c-0.2,0-0.6-0.1-0.3-0.1l0,0
						c0.1-0.2-0.8,0-0.8-0.2c-1.2,0.1-2.4,0.1-3.5,0.2l0.1,0.2l-0.4,0c-0.1,0-0.2-0.1,0.1-0.2c-0.2-0.1-0.5,0.1-0.5,0.2
						c-0.5,0,0.2-0.2,0-0.2l-0.2,0l0.1,0c-0.2,0.1-0.2,0.2-0.5,0.2c-0.2,0-0.1-0.1-0.2-0.1c0,0,0,0-0.1,0l-0.5,0l0.2,0.1
						c-0.2,0.1-0.5,0-0.2,0.2c-0.4-0.2-1.8,0.1-2,0.1c-0.3,0.1-0.6,0.2-1,0.2c0.1,0,0.2,0.2-0.1,0.2c0.1-0.3-0.6-0.1-0.9-0.3
						c0.3,0.1-0.9,0.2-0.5,0.3c-0.3,0,0-0.1-0.2-0.2c-0.6,0.2-1.4,0.1-2.2,0.3c0,0,0.1,0.1,0,0.2l-0.4-0.1c-0.1,0-0.1,0.3-0.4,0.2
						c0,0,0.1,0.1,0,0.1c-1.6,0.1-3.1,0.8-4.7,0.7c0.2,0,0.1,0.1-0.1,0.1c0.1,0,0,0.1,0.1,0.2l-0.7,0c-0.1,0.2-0.7,0.2-0.7,0.4
						l0.2-0.1c-0.2,0.3,0.5,0.3,0.5,0.5c0.2-0.3,0.9,0.1,1.3-0.3c0.1,0-0.1,0.1,0,0.1c0.1-0.1,0.2-0.2,0.5-0.2l0,0
						c0.8-0.2,1.1-0.2,2-0.3l-0.1-0.1c0.2,0,0.2,0,0.3,0c0.2-0.2-0.5,0.1-0.4-0.1c0.3,0.2,1.3-0.3,1.6,0c0.3-0.1-0.1-0.1,0.2-0.2
						l0.1,0.1l0.1-0.1c0.2,0,0.3,0.1,0.3,0.1c0,0-0.1,0-0.2,0.1c0.3,0,0.7-0.2,0.8-0.1l-0.3,0c0.8-0.2,1.8-0.3,2.5-0.5l-0.1,0
						c0.6-0.2,0.5,0,1.1-0.2l0,0c0.1-0.1,0.3-0.1,0.5-0.1c-0.2,0.1,0.3,0.1,0.1,0.2c0.6-0.2,0.3-0.1,0.7-0.4l0.1,0.1
						c0.1-0.1,0.1-0.1,0.5-0.2c-0.3,0.1,0.2,0.1-0.1,0.3c0.7,0.1,1-0.3,1.3-0.1c0.3-0.3-0.6-0.1-0.4-0.1c-0.2-0.1,0.2-0.2,0.5-0.2
						c0.2,0,0.4,0.3,1,0.2c-0.1,0-0.1,0-0.1,0c0.2,0,0.4-0.1,0.7-0.1c0.1-0.2,0.3,0,0.4-0.2l-0.5,0.1c0.3-0.1,0.5-0.3,1-0.3
						c0,0-0.2,0.1-0.3,0.2c0.1,0,0.3-0.1,0.4,0c0,0.2-0.6,0.1-0.9,0.3c0.2,0.1,0.6-0.2,0.4,0c0.2-0.3,0.5,0,0.9-0.3l0,0.1
						c0.1,0,0.2-0.1,0.3-0.1l-0.2,0.2c0.3-0.2,0.6,0.1,0.9,0c-0.6,0.1-0.2-0.1-0.4-0.2c0.7-0.2,0.5,0.3,1.3,0.1
						c-0.1,0-0.4,0-0.3-0.1c0.2,0,0.4,0,0.5,0.1c0.6-0.1-0.1-0.1,0.1-0.2c0.2,0.1,0.3-0.1,0.5-0.2l0,0.1c0.6,0,0.1-0.3,0.7-0.2
						l-0.2,0.2l0.3-0.1l-0.1,0.1c0.3-0.1,0.4-0.1,0.7-0.1c-0.1-0.1,0-0.2,0.3-0.2c0.2,0.1-0.1,0.1,0.3,0.1c-0.1,0.1-0.2,0.2-0.4,0.1
						c0,0-0.1,0.1-0.1,0.1c0.2,0.1,0.5,0,0.7,0c-0.1,0-0.1,0-0.2,0l0.6-0.2c0.1,0,0,0.1,0,0.1c0.1,0,0.2-0.1,0.4-0.1
						c0,0.1,0,0.2-0.3,0.3l0.5-0.1c0,0,0.3,0.1,0.2,0.1c0.3,0,0.7-0.2,1.1-0.2c0,0,0.1,0,0.1-0.1c0.4,0,0.7,0.1,1.2-0.1l0.3,0.2
						c0.4-0.1-0.4-0.2,0.2-0.3c0.4-0.1,0.2,0.1,0.3,0.2c0.2-0.1,0.6-0.3,0.9-0.2C239.7,343.5,239.6,343.5,239.5,343.5z M243.8,343.3
						c-0.1,0-0.3,0.1-0.3,0C243.6,343.2,243.7,343.2,243.8,343.3z M250.5,343c-0.1,0-0.2,0-0.3,0C250.3,342.9,250.4,342.9,250.5,343
						z M269.1,343.3L269.1,343.3C268.9,343.2,269,343.3,269.1,343.3z M269.5,343.4C269.6,343.4,269.6,343.4,269.5,343.4
						c0,0-0.1,0-0.2-0.1C269.3,343.4,269.4,343.4,269.5,343.4z M227.2,343.3L227.2,343.3C227.1,343.4,227.1,343.4,227.2,343.3z"/>
					<path class="st0" d="M249.8,343.1C249.7,343.1,249.7,343.1,249.8,343.1C249.7,343.1,249.7,343.1,249.8,343.1z"/>
					<path class="st0" d="M236.8,343.7L236.8,343.7C236.7,343.7,236.7,343.7,236.8,343.7L236.8,343.7z"/>
					<path class="st0" d="M263.3,343.8c-0.1,0-0.1-0.1-0.2-0.1C263.2,343.8,263.2,343.8,263.3,343.8z"/>
					<path class="st0" d="M271.6,343.5l-0.3,0C271.5,343.5,271.5,343.5,271.6,343.5C271.6,343.5,271.5,343.5,271.6,343.5z"/>
					<path class="st0" d="M273.7,344.5c0,0,0.1,0,0.1,0l0-0.1C273.6,344.5,273.5,344.5,273.7,344.5z"/>
					<path class="st0" d="M271.8,343.9c0,0.1,0.2,0.1,0.3,0.1l0,0C272.2,343.9,272,343.9,271.8,343.9z"/>
					<path class="st0" d="M272.2,344c0.1,0,0.1,0,0.2,0C272.4,344,272.3,344,272.2,344z"/>
					<path class="st0" d="M270,343.4c0.1,0,0.1-0.1,0.1-0.1C270.2,343.2,269.6,343.4,270,343.4z"/>
					<polygon class="st0" points="271.9,344.3 271.9,344.1 271.7,344.2 					"/>
					<path class="st0" d="M270.5,344l0.3,0.1c0,0,0,0,0.1,0C270.7,344,270.5,343.9,270.5,344z"/>
					<path class="st0" d="M270.9,344c0.1,0,0.2,0,0.2,0C271.1,344,271,344,270.9,344z"/>
					<polygon class="st0" points="271.5,344.2 271.4,344.2 271.2,344.2 					"/>
					<path class="st0" d="M267.5,343.6l-0.3,0c0,0,0,0.1,0.2,0.1C267.4,343.6,267.6,343.6,267.5,343.6z"/>
					<path class="st0" d="M268.4,344c-0.1,0-0.1-0.1-0.1-0.1l0,0.2L268.4,344z"/>
					<path class="st0" d="M267.5,344c0,0-0.5,0.1-0.1,0.1C267.5,344,267.8,344,267.5,344z"/>
					<polygon class="st0" points="262.9,343.3 263,343.3 263,343.1 					"/>
					<path class="st0" d="M258.8,343.7c0.4,0.1,0.1-0.2,0.4-0.1c0.1-0.1-0.3-0.1-0.2-0.1C258.8,343.5,258.7,343.5,258.8,343.7z"/>
					<path class="st0" d="M259,343.5c0,0,0.1,0,0.1,0C259.1,343.5,259,343.5,259,343.5z"/>
					<polygon class="st0" points="212.9,345.7 212.7,345.7 212.9,345.8 					"/>
					<path class="st0" d="M212.5,346l-0.1-0.1l-0.1,0.2C212.4,346,212.5,346,212.5,346z"/>
					<path class="st0" d="M244.5,343.6L244.5,343.6c0-0.1-0.1-0.1-0.2-0.1L244.5,343.6z"/>
					<polygon class="st0" points="241.3,343.6 241.4,343.6 241.3,343.4 					"/>
					<path class="st0" d="M238.7,343.8c0.1,0,0.2,0,0.3,0C238.8,343.8,238.6,343.7,238.7,343.8z"/>
				</g>
			</g>
		</g>
	</g>
</g>
<rect x="206.1" y="79.8" class="st3" width="93.9" height="88.8"/>
<rect x="206.1" y="174.7" class="st3" width="93.9" height="88.8"/>
<rect x="100.3" y="79.8" class="st3" width="93.9" height="88.8"/>
<rect x="100.3" y="174.7" class="st3" width="93.9" height="88.8"/>
<rect x="315.7" y="79.8" class="st3" width="93.9" height="88.8"/>
<rect x="315.7" y="174.7" class="st3" width="93.9" height="88.8"/>
<g>
	<polygon class="st0" points="370.5,217.2 133.2,222.1 138.5,122.1 365.7,122.1 	"/>
	<g>
		<g>
			<g>
				<g>
					<path class="st0" d="M372.9,216.4c0,1,0.4,0.6,0.5,0.7C373.3,215.5,372.8,216.4,372.9,216.4z"/>
					<polygon class="st0" points="371.2,200.3 371.4,200.6 370.8,198.3 					"/>
					<path class="st0" d="M370.4,185.3c-0.6,1.5,0.4,5.4,0.3,8.1l-0.1,0.4l0.6,1.2C370.9,191.8,370.3,187.6,370.4,185.3z"/>
					<path class="st0" d="M371.5,177.2c-0.3,0.5-0.3-1.7,0,1.9c0-0.2,0-0.2,0.1-0.3C371.6,178.4,371.6,178,371.5,177.2z"/>
					<path class="st0" d="M371.6,178.8C371.7,180.3,371.8,177.7,371.6,178.8L371.6,178.8z"/>
					<path class="st0" d="M371.1,171.5l0.4,2.1c0.1-0.4,0.1-2.3,0.2-1.6C371.4,169.8,371.3,170.2,371.1,171.5z"/>
					<path class="st0" d="M370.5,169.5l0.2,1.1C370.7,170.4,370.7,170.1,370.5,169.5z"/>
					<path class="st0" d="M371,172.9l-0.3-2.3c-0.1,0.3-0.3,0.4,0.1,1C370.5,171.5,370.8,171.9,371,172.9z"/>
					<path class="st0" d="M370.9,174.2c-0.1,1.2-0.1,2.7-0.5,0.6C370.7,178.8,371.2,178.1,370.9,174.2z"/>
					<path class="st0" d="M369.6,184.6l-0.1,1.6l0.3,1.3C369.7,186.8,369.9,184.5,369.6,184.6z"/>
					<path class="st0" d="M370.8,158.5c-0.2-0.1-0.4,0.7-0.6,0.9l0.3,1.5C370.5,160.1,370.6,158.6,370.8,158.5z"/>
					<path class="st0" d="M370.2,159.3l-0.4-2.3C369.9,159.1,370.1,159.5,370.2,159.3z"/>
					<polygon class="st0" points="369.6,169.2 370.4,172.9 369.6,168.4 					"/>
					<polygon class="st0" points="370.4,149.7 370.8,150.9 370.1,148.6 					"/>
					<path class="st0" d="M370,143.8c0.3,1,0.4-1.3,0.7-0.3c-0.1-1.6-0.5-2.9-0.7-4.1C370.1,140.6,370.1,142,370,143.8z"/>
					<path class="st0" d="M369.5,137.3c0.1,0.6,0.3,1.3,0.4,2C369.8,138.7,369.7,138,369.5,137.3z"/>
					<path class="st0" d="M369.7,153.1c0.1-0.2,0.3-0.5,0.3-1.8l-0.4,0.9C369.7,152.5,369.7,152.8,369.7,153.1z"/>
					<path class="st0" d="M369.7,152.2L369.7,152.2c0-1-0.1-1.7-0.1-2C369.6,150.5,369.6,151.1,369.7,152.2z"/>
					<path class="st0" d="M369.7,153.4c0-0.1,0-0.1,0-0.2C369.7,153.2,369.7,153.3,369.7,153.4z"/>
					<path class="st0" d="M369.7,163.1c-0.3-1.3-0.7-4.1-0.9-1.4C369.1,162.7,369.3,161.1,369.7,163.1z"/>
					<path class="st0" d="M369.3,154.5l0,2.5c0.1-0.1,0.3-0.5,0.4,0.2L369.3,154.5z"/>
					<polygon class="st0" points="369.1,153.3 369.3,154.5 369.2,153.6 					"/>
					<path class="st0" d="M369.3,141.5c-0.2-1-0.3-2.2-0.4-3.5c0,1.4,0,2.9,0.1,4.2C369.1,142.4,369.4,143,369.3,141.5z"/>
					<path class="st0" d="M369.4,146.7c0-0.1,0-0.2,0-0.2C369.4,146.7,369.4,146.8,369.4,146.7z"/>
					<path class="st0" d="M368.2,124.9c0,0.1,0,0.2-0.1,0.3c0,0,0.1,0,0.1,0.1L368.2,124.9z"/>
					<path class="st0" d="M368.9,142.5c0,1.1,0.1,1.7,0.3,2.3c-0.1-0.8-0.2-1.6-0.2-2.5C368.9,142.2,368.9,142.2,368.9,142.5z"/>
					<path class="st0" d="M369.1,133.8c-0.1,0.6-0.1,1.2-0.1,1.8C369.1,135,369.2,133.9,369.1,133.8z"/>
					<path class="st0" d="M369.5,146.1c0,0.1,0,0.1,0,0.2C369.6,146,369.6,146,369.5,146.1z"/>
					<path class="st0" d="M369.5,146.1c-0.1-0.5-0.2-1-0.3-1.4c0.1,0.6,0.1,1.2,0.2,1.7C369.4,146.4,369.5,146.2,369.5,146.1z"/>
					<path class="st0" d="M364.7,122.4c0.1-0.1,0.4-0.2,0.9-0.3c0.3,0.7,0.5,2.9,0.3,4.6c0.2,1.2,0.6,1.4,1.1,1
						c0.2-0.2,0.4-0.5,0.7-0.9c0.1-0.2,0.2-0.4,0.3-0.7c0-0.1,0.1-0.2,0.1-0.4c0-0.1,0.1-0.3,0.1-0.5c-0.2-0.1-0.3-0.2-0.7-3.5
						c-0.1,0.7-0.1,2.7-0.2,4c-0.1,1-0.2,1.6-0.5,0.6c0-0.2,0-0.4-0.1-0.6c0-0.2,0-0.4,0-0.6c0-0.4,0-0.7-0.1-0.9c0-0.5,0-0.9,0-1.2
						c0.1-0.6,0.2-1,0.2-2.1c-0.1,0.6-0.2,0.5-0.3,0.2c-0.7,0.2-2,0.3-2.9,0.5c-0.9,0.2-1.5,0.4-1.3,0.6l2.9-0.3
						C365.2,122.1,364.1,122.3,364.7,122.4z"/>
					<path class="st0" d="M368.4,130l0.1,1c0-1.1,0.1-2,0.4-3.5c-0.3-1.7-0.4-1.9-0.6-2.2l0.2,5L368.4,130z"/>
					<path class="st0" d="M368.7,135.5c-0.5-0.8-0.8-3.1-1.2-1.6c0.2,2.9,0.5,2,0.7,3.8C367.9,132.9,368.6,138.9,368.7,135.5
						c0.1,1,0.1,1.8,0.2,2.6c0-0.9,0-1.7,0.1-2.4c0,0,0,0.1,0,0.1l0,0l0,0c0,0.2-0.1,0.3-0.1,0c0,0,0-0.1,0-0.1
						C368.8,135.6,368.7,135.5,368.7,135.5c0-1.4,0.1-0.2,0.2,0.2c0,0,0,0.1,0.1,0.1l0,0l-0.5-4.7
						C368.4,132,368.5,133.2,368.7,135.5z"/>
					<path class="st0" d="M367.7,159.2c0-0.1,0.1-0.1,0.1-0.2C367.8,158.8,367.7,158.7,367.7,159.2z"/>
					<path class="st0" d="M367.9,157.3c0.1,0.3,0.3,0.6,0.3,1.7c-0.1,1-0.2,0-0.3,0.1c0.1,0.7,0.4,2.3,0.5,0.2l-0.1-0.3
						c0.1-1.9,0.5-4.4,0.5-4C368.5,155.5,368.2,156,367.9,157.3z"/>
					<path class="st0" d="M368.2,146.2l-0.4-3.9l-0.3,2l0.2-0.1C367.7,146.5,368,146,368.2,146.2z"/>
					<path class="st0" d="M368.4,124.1c0.2,0.2,0.3,0.5,0.5,0.8c-0.3-1.3-0.6-2.5-0.8-3.6L368.4,124.1z"/>
					<polygon class="st0" points="364.2,119.5 364.7,119.1 362.3,119.4 					"/>
					<path class="st0" d="M137.5,185.8l0.1,1.2C137.6,186.4,137.5,186,137.5,185.8z"/>
					<path class="st0" d="M138,177.4l-0.2-0.2C137.9,177.6,138,177.7,138,177.4z"/>
					<path class="st0" d="M237.8,119.6c-1.7-0.4-3.6-0.9-3.4-0.5l0.5,0.4C236.1,119.4,237,119.5,237.8,119.6z"/>
					<path class="st0" d="M151.8,122.2c0.2,0,0.3,0.1,0.5,0.1c0.4-0.1,0.8-0.3,1.1-0.4C152.9,122,152.3,122.1,151.8,122.2z"/>
					<path class="st0" d="M150.6,124l-2.2-0.3C148.9,123.8,149.6,123.9,150.6,124z"/>
					<path class="st0" d="M142.4,219.1l1.3-0.5C141.6,218.7,142.5,218.9,142.4,219.1z"/>
					<path class="st0" d="M311,119.7c-1.5-0.2-2.6-0.2-3.6-0.3C309.1,119.7,310.5,120,311,119.7z"/>
					<path class="st0" d="M133.1,182.2c0,0.7,0.1,1,0.2,1C133.3,182.5,133.2,182.1,133.1,182.2z"/>
					<path class="st0" d="M303.2,119.4c0.3,0,0.5,0.1,0.8,0.1c1.1-0.1,2.1-0.1,3.4-0.1C306.1,119.2,304.6,119.1,303.2,119.4z"/>
					<path class="st0" d="M308.2,216.1c0.1,0,0.3,0,0.4,0C308.6,216,308.4,216,308.2,216.1z"/>
					<path class="st0" d="M356.5,219.4c-0.5,0-1.3,0.1-2,0.1C354.9,219.5,355.5,219.5,356.5,219.4z"/>
					<path class="st0" d="M342.8,119.3C343.9,119.3,343,119.3,342.8,119.3L342.8,119.3z"/>
					<path class="st0" d="M348.1,121.1c-0.2,0-0.4,0.1-0.4,0.2C347.7,121.2,347.9,121.1,348.1,121.1z"/>
					<path class="st0" d="M292.4,122.1C292.3,122.1,292.3,122.1,292.4,122.1C292.6,122.2,292.5,122.2,292.4,122.1z"/>
					<path class="st0" d="M344.4,119.5c-0.4-0.1-0.9-0.1-1.4-0.1C343.3,119.4,343.7,119.5,344.4,119.5z"/>
					<path class="st0" d="M344.2,119.3c0.4,0,0.7,0,0.9,0C345.3,119.3,345.2,119.3,344.2,119.3z"/>
					<path class="st0" d="M341.3,119.4c0.6,0,1.2,0,1.8,0c-0.2,0-0.3-0.1-0.2-0.1C342.5,119.3,342,119.3,341.3,119.4z"/>
					<path class="st0" d="M219.4,219c0.1,0,0.2,0,0.2,0C220.7,218.9,220.2,218.9,219.4,219z"/>
					<path class="st0" d="M209.5,124.1c0.1,0,0.1,0,0.1,0C209.6,124,209.6,124,209.5,124.1L209.5,124.1z"/>
					<path class="st0" d="M205.7,124.4c1.7-0.5,2.6-0.5,3.9-0.4l-1.3-1.3L205.7,124.4z"/>
					<path class="st0" d="M136.6,205.8l0.5-2.7c0.5,3.3,0.1,5.7,0.8,3.2c-1.3-0.5,0.4-10.6-0.9-11.1l0.4-1.8c0,0.5,0,0.6,0,1.1
						c0.8-3.5-0.8-2.7-0.4-7.2c0.2-1.6,0.4-2.7,0.5-1.6l-0.2-3.5c0.1-1,0.3-0.8,0.2,0.3l0.2-5.4l0,0c-0.2-0.8-0.4-2.5-0.5-3.4
						c0.3-1.3,0.1,0.7,0.3,0.4l-0.2-3c0.4-1.2,0.6,1.3,0.5,3.3c1.5-2.7-0.2-2.5,0.9-8.4l0,2.8c0.9-1.8,0.7-4,1.3-7.1
						c-0.3,0.7-1.5,6.3-1.7,3c0.1-0.9,0.3-2.1,0.1-3.8c0.5,0,0.5-1.7,0.5-3.8l0.6,0.2c-0.1-2.3-0.4-2.1-0.6-3.5
						c0.2-2.5,0.7-3.1,1.2-3.6c0.3-4.1-0.9,2.8-0.8-2.1c0.4-3.4,0.3-5.8,0.1-9.9c0.3-2.4,0.4,0.4,0.6-0.4l-0.4-2.1
						c0-0.5,0.2-0.3,0.3-0.3c-0.1-1.8-0.6-0.2-0.7-3c-0.3-0.4,0-1.8,0.3-3.6c0.2-0.9,0.3-1.8,0.4-2.8l0-0.5c0-0.1,0-0.2,0-0.4
						c0-0.3-0.1-0.5-0.1-0.8c0.2-0.3,0.4,0.5,0.6,0.5c-0.1-0.4-0.1-0.7-0.2-0.8c0.7-0.2,1.1-0.2,1.5-0.3c0.1-0.1,0.7-0.1,1.2-0.2
						c0.5-0.1,1.1-0.2,1.9-0.3l3.3,0.4c-2.4-0.5,0.7-1,3.4-1.5c-0.9-0.2-1.6-0.4-2.1-0.5l4.4-0.3c0.5,0.1,0.1,0.3-0.6,0.6
						c0.3-0.1,0.6-0.1,0.8-0.2c1.6,0.2,0.8,0.6-0.4,1c-0.5-0.1-1.1-0.3-1.6-0.4c-1.1,0.4-2.1,0.8-1.9,1.2c0.3-0.1,0.8-0.1,1.4-0.2
						c-0.3,0.1-0.5,0.2-0.3,0.3c0.1,0.1,0.6-0.1,1.3-0.2l1,0.7l0.2-0.3l5.7,0.4c4.1-0.7,7.6-1.8,14.1-2.1c-1.6,0.5-0.3,0.9-0.4,1.5
						c-1.8-0.7-5,0.3-8.4,0.1c1.8,0.1,1.4,0.4,0.9,0.5l6-0.6c-0.1,0.5,1.3,0.4,2.8,0.6c-1.2-1,4.5-0.7,6.9-1
						c0.2,0.3-0.4,0.7-3.4,0.6c3.3,0.8,4.2-1.2,7.5-0.5c-0.7,0-1.1,0-1.4,0.1c1.7-0.3,5.8-0.1,4.9,0.2l-0.7,0
						c4.8,0.1,14.7,0,15.4-0.8c0,0.1-0.6,1-0.9,1.2l8.6-2.9c-0.8,0.7,2.1,2.5-1.8,2.9c1.1,0.1,2.6,0.2,5,0c-0.8-0.1-1.9-1.1-0.9-1.1
						c2.9,0.8,2,0.4,5.7,1.1c-1.2-0.2,0.1-1.3,2-1.3c-0.3,0.2,0.2,1.1-0.5,1.2l4.6-1.1c-1.2,0.2-0.2,1,0.8,1.3c-0.5-0.2,4,0,5.2-0.1
						l-2-0.3c5.2,0.2,5.1-1.6,10.3-1.5c-0.6,0.2-1.5,1.4,1.1,1.6c1.2-0.6,5.3-2.8,9.9-3.2l0.9,0.3l3.5-0.4
						c-2.2,0.9-8.3,2.7-11.7,3.4c1.9,0.3,0.5,0.4,3.5,0.4c1,0.3-1.6,0.5-2.4,0.5l6.8,0.2c-0.3-0.7,5.2-0.7,4.9-1.2l-7.4,0.7
						c-0.3-0.7,4.3-1.9,9.1-1.8c1.2,0.3-0.9,1.2-0.8,1.4c0.6-0.2,4.6-0.4,5-0.3l-2,0.4c2.7,0.3,4.4-0.9,7.6-0.2
						c1.1,0,3.3,0.9,3.5,0.5c-1.8-0.8-2.2-3.1-1-3.7c0.4,0.1,5.8,0.7,7.1,1.1c1.8,0.6-2.7,1.4-1.2,2c0.1-0.2,1.1-0.4,1.5-0.5
						c1.2,0.2-0.5,0.6,2.1,0.5c0.4-0.7,5.2,0.1,1.2-0.6c2.5-0.2,2.6,0.1,5.6,0.1c-0.9-0.4,2.6-1.5,5.1-1.7c-0.1,0.2,0.4,0.4,0.7,0.5
						c5.1,0.1,7.8,0.4,12.6,0.4c0.4,0.2,2.7,0.4,1.8,0.7c0.7-0.1,1.3-0.4,2.8-0.4c2.8,0.6-3.3,0.1-1.1,0.8c0.2-0.4,3.8-0.5,5.9-0.8
						c-0.6-0.6-4.8-0.1-6.9,0.1c0-0.8,3.6-1.7,8.6-2.1c3.9-0.2,1.7,0.5,2.4,0.4c7.4,0.1,6.3-1.5,12.5-0.9c2.4,0.5,0.1,1.1,0.7,1.5
						c-3.2,0.2-4.9-0.3-7.1-0.3l2.7,0.3c-1,0.2-3.2,0.3-4.3,0.2c2,0.5,12.5,0.1,18.2,0.5c1-0.2,2.8-0.4,1.9-0.6L341,122
						c-1.7-0.4,3.4-0.6,1.1-0.8c2.4-0.3,5.1-0.8,8.6-0.5l0.6,0.6c-0.1-0.2-2.2-0.4-3.2-0.2c1.4-0.3,5.2,0.8,6.8,0l-2.4-0.4
						c2.4-0.3,5.4-1,8.5-0.8c-1.4-0.6-0.7,0.1-2.8-0.6c1.9,0.9-7.7,0-4.7,0.9c-2.2-0.8-3.8-0.3-6.7-1c0.1,0.2,1,0.4-1.5,0.3
						c-0.1,0.1-0.4,0.1-0.6,0.2c-0.1,0-0.1,0-0.2,0c0.1,0,0.1,0,0.1,0c-0.1,0-0.1,0,0.1,0c0.6,0.1,1.1,0.2,1.3,0.3
						c-1.3,0.5-5.3,0.4-6.7,0.7c-1.5-0.1,0.6-0.2-0.2-0.4l-2,0.4c-0.2-0.4-4-0.7-0.5-1l-3.2,0c-1.9-0.3-4.5-0.4-6.1-0.2
						c-1.5-0.1-3.8,0.5-2.5,0.1l-5,0.3l0-0.1c-4.9-0.1-10.2,0.7-15.8-0.1c-1.7,0.1-3.4,0.3-6.2,0.1l-0.5-0.4c-2.1,0.1-6.4-0.4-7.3,0
						c-2.3-1-10.4-0.2-14.1-0.4l-0.1,0.5c-2.6,0-5.1,0.1-8.3,0.3l0.2,0.4c-2.8,0.4-7.1-0.3-11.5-0.3c0.3-0.2,1.4-0.1,2.2,0
						c-5.2-1-11,0.7-15.8,0c-1.2,0.2-2,0.1-2.9,0c0.1,0,0.2,0,0.3,0c-0.1,0-0.3,0-0.5,0c-0.5-0.1-1.1-0.2-1.6-0.2
						c0.5,0.1,1,0.2,1.4,0.2c-0.9,0-2.3,0.1-3.6,0.2l-0.6-0.5c-0.1,0-0.2,0-0.3,0c-1.3-0.2-1.1,0.2-0.4,0.6
						c-0.7,0.1-1.3,0.2-1.8,0.3c-1.1-0.8-3.6,0.3-5-0.6c-0.9,0.4-6.8,0.3-7.5,1.2c0-0.1-0.4-0.2,0.3-0.2c-1.5-0.1-3-0.2-4.4,0
						l-0.6-0.6l-3.3,0.8c-2-0.4-2.8-0.6-0.8-1.1c-4.8,0.7-3.9,0.3-8,1l0.2-0.4c-1.5,0-3.8,0.5-4.7,0.2c-3.3-0.8-16.2-0.1-24.6-0.8
						c1.6,1.2-3.9-0.5-4.2,0.4c-0.5-0.3-1.7-0.4-0.3-0.7c-4.3,0.3-6.4-0.4-9.4,0.3c-0.5-0.3,0.9-0.4,0.5-0.6
						c-0.3,0.1-1.4,0.2-1.8,0.1c-0.4-0.2,0.6-0.2,1.3-0.4c-4.4,0-4.8,0.9-5.1,1.7c-2.2-0.4-3.3-0.3-4.9,0.2
						c-0.8-0.3-2.1-0.5,0.7-0.6c-0.8,0-3.1-0.1-5.3-0.1c-1.1,0-2.1,0-2.9,0.1c-0.3,0-0.8,0.1-1.2,0.1c-0.3,0.1-0.5,0.1-0.5,0.2
						c-0.7-0.2-2.9,0-3.4,0c-0.1,0-0.3,0-0.3,0c-0.1,2.2-0.2,3.4-0.3,4.6c0,0.5-0.1,1-0.1,1.5c0,0.5,0,1.2-0.1,2l0.2-0.9
						c0.7,1.4,0,2.8,0,5.5l-0.1-0.1c-0.9,6.2,0.1,2.7-0.8,8.8l0.5-0.3c1,0.6-0.9,5.4-0.7,9l0.3-1.3c0.3,2-1.7,5.4-1.9,7.3
						c-0.1,0.4-0.1-0.7-0.1-1.3c-0.9,5.1,0.6,0.7,0.5,4.5c-0.4,0.7-0.8-0.9-1,1.6c-0.3,1.3,0.7,7.5-0.1,11c0.3-0.8,0.6-1.5,0.7,0.3
						c0,2.7-1.4,7.3-0.7,9.8c-0.1,0.3-0.2,0.5-0.2,0.5c0.1,2.1,0,6.8,0.4,8c-1.8,1.8,0.1,12.9-1.4,12.8l-0.2,6.4l-0.1-0.2
						c-0.3,4.1,0,5.5,0.3,7c-0.2,0.9-0.3,0.2-0.3,0.2c-0.1,0.7-0.1,1.3-0.2,1.8c-0.1,0.6-0.1,1.2-0.1,1.8c-0.1,1.1-0.1,2.1-0.2,2.9
						c3.2-0.1,6-0.3,8.9-0.9l0.5,0.5c1.3-0.3,8.6,0.6,14.5-0.1c-0.1,0.1-0.2,0.2-0.6,0.2c6.6-0.7,15.8,1.1,18.2-0.8l4.3-0.5
						c-5.6,0,0.8-0.8-1.5-1.1c2.2-0.2,5.7,0.4,3,0.6l-0.4-0.1c-1,1,7,0.2,6.8,0.8c11.1-0.3,21.8,0,32.2-0.1l-1.2-0.7l3.6,0
						c1,0.2,1.3,0.5-1.3,0.6c1.4,0.4,4.3-0.4,4.4-0.6c5.1,0.2-2,0.9-0.4,0.9l2.1-0.1l-0.5-0.1c1.7-0.3,1.8-0.7,4.9-0.7
						c2,0.1,1,0.4,1.8,0.4c0,0.1,0.3,0.1,1.2,0l4.6,0l-1.8-0.5c2-0.3,4.3-0.1,2.2-0.7c3.1,0.9,17,0,18.9,0.3
						c2.8-0.5,5.6-0.5,9.1-0.5c-0.9-0.1-1.4-0.7,1.6-0.7c-1.1,1.4,5.5,0.5,7.9,1.4c-2.2-0.6,8.5-0.3,5.1-1.2
						c2.5,0.1,0.2,0.5,2.1,0.8c5.9-0.6,13,0.1,20.4-0.3c0.1-0.2-1.1-0.4,0.4-0.7l3.9,0.8c1.4-0.1,1.3-1,4-0.5
						c-0.4-0.1-0.9-0.4,0-0.4c14.3,0.6,29.3-1.3,43.8,0c-2-0.3-0.7-0.4,0.8-0.4c-1-0.1,0-0.4-0.2-0.7l6.1,0.5
						c1.1-0.7,6.5-0.2,7.2-0.8l-1.9,0.2c2.5-0.8-3.6-1.6-3.3-2.6c-2.9,0.9-7.6-1.1-12.3,0.2c-1-0.2,0.9-0.3,0.3-0.5
						c-1.2,0.4-2.6,0.5-5.3,0.4l0.3-0.1c-7.5,0.3-10.7-0.1-19.2-0.2l0.6,0.5c-1.8,0-2.2-0.2-3-0.3c-2.1,0.8,5.1-0.1,3.2,0.8
						c-2.4-0.9-12.8,0.2-14.4-0.8c-2.8,0.1,0.8,0.5-2,0.6l-0.7-0.3l-0.7,0.4c-1.8,0-2.8-0.4-2.8-0.6c0.4,0,1.3-0.1,1.7-0.1
						c-2.4-0.3-6.7,0.3-7.5,0.2l2.7,0.1c-7.6,0.4-16.9,0.2-24.2,1l0.6,0.2c-5.6,0.5-4.5-0.2-10.7,0.2l0.2-0.1
						c-1.2,0.2-2.9,0.4-4.6,0.4c1.6-0.3-2.9-0.4-0.9-0.8c-6.1,0.6-3,0.4-7,1.3l-0.9-0.4c-1.4,0.4-1.5,0.5-4.6,0.7
						c2.5-0.4-2-0.5,0.8-1c-6.5-0.7-9.6,1-12.6-0.1c-2.9,1.1,5.6,0.5,3.9,0.7c1.4,0.3-2.4,0.8-4.5,0.8c-2.1,0-3.5-1.2-8.7-1.1
						c0.5,0,0.6-0.1,1.1-0.1c-1.9-0.2-3.8,0.4-6.2,0.1c-1.3,0.6-3.1,0-3.5,0.8l4.8-0.3c-2.7,0.3-5.2,1.2-9.7,0.9
						c0.3-0.2,1.7-0.4,2.6-0.5c-1.3-0.2-2.5,0.2-3.9,0c0.4-0.8,5.8-0.3,8.7-1c-1.4-0.3-5.5,0.7-4-0.2c-2.1,1.1-5.1,0-8.6,0.9
						l0.2-0.5c-0.6,0.1-1.7,0.3-2.7,0.3l1.8-0.7c-2.8,0.6-5.5-0.3-8.2,0c5.7-0.1,1.3,0.5,3.7,0.8c-7,0.8-4.1-1.2-12-0.8
						c1.1-0.1,4,0.2,2.4,0.5c-1.5-0.1-3.5-0.2-4.4-0.4c-5.2,0.2,0.8,0.5-1.4,0.8c-1.8-0.5-2.6,0.3-4.9,0.5l0-0.5
						c-6-0.2-1.6,1-6.9,0.8l2.3-0.7l-2.8,0.2l0.6-0.6c-3,0.5-4,0.4-7,0.3c0.7,0.3-0.4,0.9-3,1c-1.8-0.2,1-0.5-2.7-0.3
						c0.8-0.3,1.8-0.7,3.4-0.3c0.2-0.2,0.8-0.3,1-0.5c-1.9-0.3-4.9,0-6.2,0.1c0.5,0,1.1,0,1.5,0.1l-5.4,0.8
						c-0.9-0.2-0.2-0.3,0.5-0.5c-1.1,0.1-1.9,0.3-3.5,0.4c0.4-0.4,0.3-0.8,2.6-1l-5.2,0.5c-0.3-0.2-2.7-0.4-2-0.6
						c-2.9-0.2-7,0.9-10.8,0.7c-0.2,0.1-0.6,0.2-1.4,0.2c-0.6,0-1.3,0-1.9,0l-0.9,0l-0.5,0l-0.2,0l-0.1,0c-0.4-0.1-0.7-0.1-1-0.1
						c0-0.3-0.1-0.5-0.2-0.8c0.1-0.1,0.1-0.1,0.2-0.2c0,0,0.1,0,0.1-0.1l0.1-0.3l0.4-1.2c0-3.3-1.1,3.2-1-2.3c0-3.9,0.7-1.4,0.9-2.8
						c-0.3-2-0.8-5.4,0-8.9C136.8,203.7,136.6,204.7,136.6,205.8z M138.4,164.9c0.1,0.8,0.3,2.4,0,3
						C137.9,167,138.2,166.3,138.4,164.9z M157.8,123.1c-0.6,0.2-1.5,0.1-2.5-0.1C156,122.9,156.8,123,157.8,123.1z M330.9,119.7
						C330.9,119.7,330.8,119.7,330.9,119.7C329.1,119.6,329.7,119.6,330.9,119.7z M334.6,119.9c0.4-0.1,0.3-0.1,0.2-0.2
						c-0.3,0.1-1.1,0.1-2,0.1C333,120,333.5,120,334.6,119.9z M231,222l-0.7-0.1C231.9,221.8,231.5,221.9,231,222z"/>
					<path class="st0" d="M150.7,123.7c-0.2-0.1-0.3-0.2-0.3-0.3C150.1,123.6,150.1,123.7,150.7,123.7z"/>
					<path class="st0" d="M142.1,219.2l0.1,0c0.1,0,0.1-0.1,0.1-0.1L142.1,219.2z"/>
					<path class="st0" d="M277.7,124c-0.8-0.1-1.2-0.2-1.5-0.2C276.2,123.9,276.6,124,277.7,124z"/>
					<path class="st0" d="M354,119.1l-2.4,0.1c1.1,0,1.5,0.1,2.1,0.2C353.7,119.3,353.3,119.1,354,119.1z"/>
					<path class="st0" d="M366.1,130.8c0.1,0.3,0,0.7,0.1,1.1l0.2-0.1C366.3,130.3,366.1,129.3,366.1,130.8z"/>
					<path class="st0" d="M356.2,120.7c0.2,0.4,1.7,0.3,3.3,0.2c-0.1,0-0.2,0-0.3,0C359.7,120.3,357.9,120.5,356.2,120.7z"/>
					<path class="st0" d="M359.9,120.9c0.5,0,1,0,1.5,0C361.6,120.7,360.8,120.8,359.9,120.9z"/>
					<path class="st0" d="M339.2,119.7c0.8,0.1,0.5-0.5,0.9-0.4C341,118.8,335,119.9,339.2,119.7z"/>
					<polygon class="st0" points="357.5,122.1 356.9,121.6 356,122 					"/>
					<path class="st0" d="M344.5,121.7l2.6,0.1c0-0.1,0.3-0.1,0.7-0.2C346.2,121.6,344.5,121.5,344.5,121.7z"/>
					<path class="st0" d="M347.9,121.7c0.8,0,1.6,0,2.1-0.1C349.5,121.6,348.5,121.6,347.9,121.7z"/>
					<polygon class="st0" points="353.9,122.2 353.2,122.1 351.3,122.1 					"/>
					<path class="st0" d="M316.2,121.6l-2.9,0.1c-0.3,0.2,0.5,0.3,1.6,0.2C315.6,121.8,316.7,121.8,316.2,121.6z"/>
					<path class="st0" d="M324.9,123c-0.8-0.1-0.8-0.2-1.3-0.4l-0.1,0.6L324.9,123z"/>
					<path class="st0" d="M316.6,123.1c-0.3,0.2-4.2,0.5-0.5,0.5C316.3,123.4,319.2,123.3,316.6,123.1z"/>
					<polygon class="st0" points="273.3,122.3 274,122.3 273.9,121.3 					"/>
					<path class="st0" d="M235.2,124.8c3.4,0.2,0.8-0.6,3.9-0.3c0.8-0.2-2.5-0.2-1.7-0.5C235.3,124.2,234.2,124.1,235.2,124.8z"/>
					<path class="st0" d="M237.4,124c0.3,0,0.7-0.1,1-0.2C237.8,123.9,237.5,123.9,237.4,124z"/>
					<polygon class="st0" points="364.6,219.8 366.8,220 365.3,219.7 					"/>
					<path class="st0" d="M368.8,219l0.5,0.6l1.3-0.6C370.1,219,369.1,219.1,368.8,219z"/>
					<path class="st0" d="M140,158.9l-0.1-0.2c-0.2,0.3-0.2,0.8-0.3,1.9L140,158.9z"/>
					<polygon class="st0" points="138,188.5 138,188 137.4,189 					"/>
					<path class="st0" d="M137.5,213.4c0.1-1,0-2.2,0.1-3.2C137.5,212.4,136.7,213.7,137.5,213.4z"/>
				</g>
			</g>
		</g>
	</g>
</g>
<rect x="154.6" y="150.3" class="st6" width="180" height="106.1"/>
<text transform="matrix(1 0 0 1 162.9884 189.0875)" class="st2 st7 st8 st9">HELP!</text>
</svg>
