<?xml version="1.0" encoding="utf-8"?>
<!-- Generator: Adobe Illustrator 24.2.0, SVG Export Plug-In . SVG Version: 6.00 Build 0)  -->
<svg version="1.1" id="Layer_1" xmlns="http://www.w3.org/2000/svg" xmlns:xlink="http://www.w3.org/1999/xlink" x="0px" y="0px"
	 viewBox="0 0 500 400" style="enable-background:new 0 0 500 400;" xml:space="preserve">
<style type="text/css">
	.st0{fill:#B884C1;}
	.st1{fill:#7F3F98;}
	.st2{fill:#863399;}
	.st3{fill:#FFDD92;}
	.st4{fill:#FFC844;}
	.st5{fill:#FFFFFF;}
</style>
<g>
	<polygon class="st3" points="452.5,204.3 286.7,197.4 213.5,252.8 236.7,197.4 189.7,197.4 201.7,54.9 485.6,63.7 	"/>
	<g>
		<g>
			<g>
				<path class="st3" d="M453,203.3c-0.4,1.3-0.2,0.9-0.2,1.1C453.4,202.1,453,203.3,453,203.3z"/>
				<polygon class="st3" points="458.4,181.1 458.4,181.5 459.1,178.2 				"/>
				<path class="st3" d="M463.5,160.4c-0.8,1.9-1.8,7.5-2.8,11.2l-0.2,0.6l-0.2,1.7C461.4,169.4,462.7,163.5,463.5,160.4z"/>
				<path class="st3" d="M467,149.5c-0.3,0.6,0.5-2.4-0.7,2.6c0.1-0.2,0.1-0.3,0.2-0.5C466.6,151.2,466.7,150.6,467,149.5z"/>
				<path class="st3" d="M466.5,151.6C465.9,153.8,466.9,150.2,466.5,151.6L466.5,151.6z"/>
				<path class="st3" d="M468.9,141.5l-0.6,2.9c0.2-0.6,0.9-3.1,0.7-2.2C469.7,139.3,469.5,139.9,468.9,141.5z"/>
				<path class="st3" d="M469.3,138.7l-0.3,1.5C469.1,140,469.2,139.6,469.3,138.7z"/>
				<path class="st3" d="M468.3,143.4l0.7-3.2c-0.2,0.4-0.3,0.4-0.3,1.5C468.6,141.4,468.6,142.1,468.3,143.4z"/>
				<path class="st3" d="M467.8,145.2c-0.5,1.6-1,3.7-0.5,0.7C466.1,151.5,466.5,150.7,467.8,145.2z"/>
				<path class="st3" d="M463.5,159.3l-0.6,2.1l-0.3,1.9C462.7,162.3,463.6,159.1,463.5,159.3z"/>
				<path class="st3" d="M473.6,123.7c-0.1-0.2-0.5,0.9-0.7,1.1l-0.4,2.1C472.9,125.9,473.5,123.8,473.6,123.7z"/>
				<path class="st3" d="M473,124.8l0.6-3.2C472.9,124.4,472.8,124.9,473,124.8z"/>
				<polygon class="st3" points="469,138.1 468,143.4 469.2,137.1 				"/>
				<polygon class="st3" points="476.7,111.6 476.5,113.4 476.9,110.1 				"/>
				<path class="st3" d="M478.7,103.5c-0.1,1.4,0.8-1.7,0.6-0.3c0.5-2.2,0.8-4.1,1.1-5.8C480,99.2,479.5,101.1,478.7,103.5z"/>
				<path class="st3" d="M480.8,94.5c-0.2,0.9-0.3,1.9-0.5,2.9C480.5,96.4,480.7,95.5,480.8,94.5z"/>
				<path class="st3" d="M475,116.2c0.1-0.2,0.4-0.7,0.9-2.4l-0.6,1.2C475.2,115.3,475.1,115.7,475,116.2z"/>
				<path class="st3" d="M475.3,115L475.3,115c0.4-1.4,0.6-2.3,0.7-2.7C475.9,112.6,475.7,113.4,475.3,115z"/>
				<path class="st3" d="M474.9,116.5c0-0.1,0.1-0.2,0.1-0.3C474.9,116.3,474.9,116.4,474.9,116.5z"/>
				<path class="st3" d="M471.3,129.8c0.3-1.9,1.1-5.8,0-2.1C471.1,129.1,471.7,127,471.3,129.8z"/>
				<path class="st3" d="M474.2,118l-0.9,3.4c0.1,0,0.3-0.6,0.2,0.3L474.2,118z"/>
				<polygon class="st3" points="474.5,116.3 474.2,118 474.5,116.7 				"/>
				<path class="st3" d="M479,100.2c0.2-1.5,0.6-3.1,1-4.9c-0.5,1.9-1.1,3.9-1.5,5.8C478.6,101.4,478.5,102.3,479,100.2z"/>
				<path class="st3" d="M477.2,107.4c0-0.1,0-0.2,0.1-0.3C477.2,107.3,477.1,107.4,477.2,107.4z"/>
				<path class="st3" d="M484.4,77.6c0,0.1-0.1,0.2-0.1,0.3c0,0,0,0,0,0.1L484.4,77.6z"/>
				<path class="st3" d="M478.4,101.5c-0.4,1.4-0.6,2.3-0.7,3.2c0.2-1.1,0.5-2.2,0.8-3.5C478.5,101,478.5,101,478.4,101.5z"/>
				<path class="st3" d="M481.8,89.5c-0.3,0.7-0.5,1.6-0.8,2.5C481.3,91.3,481.9,89.8,481.8,89.5z"/>
				<path class="st3" d="M477.4,106.6c0,0.1,0,0.1,0,0.2C477.6,106.3,477.5,106.4,477.4,106.6z"/>
				<path class="st3" d="M477.4,106.6c0.1-0.8,0.2-1.4,0.3-2c-0.2,0.9-0.4,1.7-0.5,2.4C477.3,106.9,477.4,106.7,477.4,106.6z"/>
				<path class="st3" d="M483.4,71.7c0.3,0.3-0.3,4.2-1.5,7.4c-0.5,3.3,1,1.4,2.3-1.3c-0.1-0.1-0.2-0.2,0.4-3.5
					c-0.5,1.1-2.2,7.3-1.8,4.4c0.9-4.5,1-3.6,1.7-5.7c-0.8,1.7,0.7-5.8-0.1-5l-0.7,3.9C483.6,72.1,483.8,70.6,483.4,71.7z"/>
				<path class="st3" d="M482.7,84.2l-0.3,1.4c0.4-1.6,0.8-2.6,1.6-4.6c0.4-2.3,0.4-2.8,0.3-3l-1.7,6.7L482.7,84.2z"/>
				<path class="st3" d="M480.9,91.8c-0.1-1.1,0.6-4.5-0.3-2.5c-0.9,4-0.4,2.9-0.8,5.3C481.3,88,479.5,96.5,480.9,91.8
					c-0.3,1.3-0.6,2.5-0.8,3.6c0.3-1.2,0.7-2.3,1-3.3c0,0.1,0,0.1-0.1,0.1l0,0l0,0c-0.1,0.3-0.2,0.4-0.1,0c0,0,0-0.1,0-0.1
					C480.9,92,480.9,91.9,480.9,91.8c0.5-1.9,0.2-0.3,0.1,0.3c0,0,0,0.1,0,0.1l0,0l1.4-6.6C482,87,481.6,88.7,480.9,91.8z"/>
				<path class="st3" d="M471.5,124.1c0.1-0.2,0.1-0.2,0.1-0.2C471.7,123.5,471.7,123.3,471.5,124.1z"/>
				<path class="st3" d="M472.3,121.5c-0.1,0.5-0.1,0.9-0.5,2.4c-0.4,1.3-0.1,0-0.2,0c-0.1,0.9-0.6,3.3,0.2,0.4l0.1-0.5
					c0.7-2.6,1.9-5.9,1.8-5.4C473.3,119.2,473,119.8,472.3,121.5z"/>
				<path class="st3" d="M476.5,106.4l1.2-5.5l-0.9,2.7l0.2-0.1C476.1,106.6,476.5,106,476.5,106.4z"/>
				<polygon class="st3" points="484.7,77 484.9,77.8 485.2,74.6 				"/>
				<polygon class="st3" points="486.4,70 486.7,70.3 486.9,68.4 				"/>
				<path class="st3" d="M192.4,173.9l-0.1,1.6C192.4,174.8,192.4,174.3,192.4,173.9z"/>
				<path class="st3" d="M193.5,162.1l0-0.3C193.4,162.3,193.4,162.5,193.5,162.1z"/>
				<path class="st3" d="M313.6,55.8c-2.4-0.4-5-1.1-4.8-0.6l0.7,0.5C311.2,55.6,312.5,55.7,313.6,55.8z"/>
				<path class="st3" d="M200.9,65c0-0.2,0.1-0.5,0.1-0.7c-0.1-0.6-0.1-1.1-0.2-1.6C200.9,63.4,200.9,64.2,200.9,65z"/>
				<path class="st3" d="M202,66.8l-0.5,3.1C201.6,69.2,201.8,68.2,202,66.8z"/>
				<path class="st3" d="M230.9,196.3l1.9-0.2C229.8,196.1,231.1,196.2,230.9,196.3z"/>
				<path class="st3" d="M417.4,59.1c-2.1-0.2-3.7-0.4-5.1-0.4C414.7,59,416.7,59.4,417.4,59.1z"/>
				<path class="st3" d="M191.4,169.1c-0.1,1-0.1,1.4,0,1.4C191.4,169.5,191.5,168.9,191.4,169.1z"/>
				<path class="st3" d="M406.3,58.4c0.4,0,0.7,0.1,1.1,0.1c1.5,0,3,0,4.9,0.1C410.4,58.4,408.3,58.2,406.3,58.4z"/>
				<path class="st3" d="M364.2,199c0.2,0,0.4,0,0.5,0.1C364.8,199,364.6,199,364.2,199z"/>
				<path class="st3" d="M432.6,204c-0.7,0-1.8,0-2.8-0.1C430.3,204,431.1,204,432.6,204z"/>
				<path class="st3" d="M462.5,60.4C464,60.4,462.7,60.3,462.5,60.4L462.5,60.4z"/>
				<path class="st3" d="M469.9,62.2c-0.3,0-0.6,0.1-0.6,0.2C469.4,62.3,469.6,62.3,469.9,62.2z"/>
				<path class="st3" d="M390.9,60.8c0,0-0.1,0-0.1,0C391.2,60.9,391.1,60.9,390.9,60.8z"/>
				<path class="st3" d="M464.8,60.6c-0.6-0.1-1.2-0.1-2-0.2C463.1,60.5,463.7,60.5,464.8,60.6z"/>
				<path class="st3" d="M464.5,60.4c0.5,0,0.9,0.1,1.3,0.1C466,60.5,465.8,60.4,464.5,60.4z"/>
				<path class="st3" d="M460.3,60.3c0.9,0,1.7,0.1,2.5,0.1c-0.3,0-0.4-0.1-0.3-0.1C462,60.3,461.4,60.3,460.3,60.3z"/>
				<path class="st3" d="M247.3,225.8c0.1-0.1,0.2-0.1,0.3-0.2C248.7,224.6,248.2,225,247.3,225.8z"/>
				<path class="st3" d="M273.4,59c0.1,0,0.1,0,0.2,0C273.5,59,273.4,59,273.4,59L273.4,59z"/>
				<path class="st3" d="M267.9,59.1c2.4-0.4,3.7-0.3,5.5-0.1l-1.8-1.2L267.9,59.1z"/>
				<path class="st3" d="M194.5,196.7l-1.9-0.1l-1,0l-0.5,0c-0.1,0-0.1,0-0.2,0l0.1,0l0.4,0c0.3,0,0.6,0,0.8,0c0.5,0,1,0,1.5,0
					c0.9,0,1.7,0,2.2-0.1c1,0,0.9-0.1-0.9-0.1c-0.1,0.1-1.1,0.2-2.6,0.2c-0.5,0-1,0-1.6,0c-0.1,0,0,0,0-0.1c0,0,0-0.1,0-0.1
					c0-0.4,0.1-0.8,0.1-1.3c0.3-3.8,0.6-7.5,0.4-7.8l0.3-2.5c-0.1,0.7-0.1,0.8-0.1,1.6c0.6-4.9,0-3.7,0.6-10.1
					c0.2-2.2,0.4-3.8,0.3-2.2l0.3-5c0.1-1.4,0.2-1.1,0,0.4l0.6-7.6l0,0.1c0-1.1,0.1-3.5,0.2-4.7c0.2-1.9,0,1,0.1,0.5l0.3-4.2
					c0.3-1.7,0.1,1.8-0.2,4.7c0.8-3.9,0.2-3.5,1.2-11.9l-0.3,4c0.5-2.5,0.7-5.6,1.3-10.1c-0.2,1.1-1.3,8.9-1,4.4
					c0.1-1.3,0.3-3,0.4-5.4c0.2,0,0.4-2.4,0.6-5.4l0.2,0.2c0.2-3.2,0.1-3,0.1-4.9c0.4-3.6,0.6-4.3,0.9-5.2c0.6-5.8-0.7,4-0.1-2.9
					c0.6-4.8,0.8-8.2,1.1-13.9c0.4-3.4,0.1,0.6,0.3-0.6l0-3c0.1-0.7,0.1-0.5,0.2-0.4c0.1-2.5-0.3-0.2,0-4.2c-0.3-1.1,1.3-8.1,1.3-13
					c0.2-1.2,0.2,0.6,0.4,0.2c0.3-6.7,0.3-5.8,0.4-11.3l0.7-4.7c-0.6,3.4-0.6-1-0.6-4.9c-0.3,1.2-0.5,2.2-0.6,2.9l0.3-6.2
					c0.1-0.7,0.2-0.1,0.3,0.9c0-0.4,0-0.8,0-1.1c0.3-2.2,0.5-1,0.6,0.6c-0.2,0.7-0.3,1.5-0.5,2.2c0.1,1.5,0.3,3,0.6,2.7
					c0-0.4,0-1.2,0.1-2c0,0.4,0.1,0.7,0.1,0.5c0.1-0.2,0-0.9,0-1.9l0.6-1.4l-0.2-0.4l0.5-4l0.1-0.6c0-0.2,0.1-0.3,0.1-0.5l0-0.2
					c0-0.1,0-0.2,0.1-0.1l0.5,0.1c0.3-0.1,2.1-0.2,3.5-0.3c1.4-0.1,2.9-0.2,4.5-0.3c3.1-0.2,6.7-0.3,11.3-0.3
					c-2.3,0.4-0.5,0.7-0.7,1.2c-2.5-0.6-7.1,0-11.9-0.3c2.5,0.1,1.9,0.4,1.3,0.4l8.5-0.1c-0.2,0.4,1.8,0.4,4,0.6
					c-1.7-0.9,6.3-0.3,9.8-0.5c0.2,0.3-0.6,0.6-4.8,0.3c4.6,0.8,6-0.8,10.6-0.1c-1,0-1.6-0.1-2,0c2.4-0.2,8.3,0.2,6.9,0.4l-1,0
					c6.8,0.3,20.8,0.7,21.8,0c0.1,0.1-0.9,0.9-1.3,1.1l12.3-2.3c-1.1,0.6,3,2.4-2.7,2.6c1.6,0.2,3.6,0.3,7.1,0.2
					c-1.1-0.1-2.7-1.1-1.2-1.1c4.1,0.9,2.9,0.5,8,1.3c-1.7-0.2,0.2-1.2,2.8-1.1c-0.4,0.2,0.2,1.1-0.8,1.2l6.6-0.9
					c-1.6,0.1-0.3,0.9,1.1,1.3c-0.7-0.2,5.7,0.2,7.4,0.2l-2.8-0.4c7.4,0.4,7.3-1.3,14.7-1c-0.9,0.2-2.2,1.4,1.5,1.6
					c1.7-0.5,7.6-2.6,14.1-2.9l1.2,0.4l5-0.2c-3.1,0.8-11.9,2.5-16.6,3c2.8,0.4,0.8,0.4,4.9,0.5c1.5,0.4-2.3,0.4-3.5,0.4l9.6,0.5
					c-0.4-0.7,7.4-0.4,7-1.1l-10.5,0.4c-0.4-0.7,6.1-1.8,12.9-1.4c1.7,0.3-1.3,1.2-1.2,1.5c0.9-0.2,6.5-0.3,7.1-0.1l-2.9,0.3
					c3.8,0.4,6.2-0.7,10.8,0.1c1.6,0.1,4.7,1.1,5,0.7c-2.5-0.9-3-3.5-1.2-4c0.6,0.1,8.3,1,10,1.5c2.6,0.7-3.9,1.4-1.8,2
					c0.1-0.2,1.5-0.4,2.1-0.5c1.7,0.2-0.7,0.6,2.9,0.6c0.6-0.7,7.3,0.3,1.7-0.6c3.5-0.1,3.7,0.3,7.9,0.4c-1.3-0.5,3.8-1.5,7.3-1.6
					c-0.2,0.2,0.6,0.4,1,0.6c7.2,0.3,11.1,0.7,17.8,0.9c0.6,0.2,3.9,0.5,2.5,0.8c1-0.1,1.9-0.3,3.9-0.3c4,0.7-4.6,0-1.6,0.8
					c0.3-0.4,5.4-0.4,8.3-0.6c-0.9-0.7-6.8-0.3-9.8-0.2c0-0.9,5.2-1.7,12.2-1.8c5.6,0,2.4,0.6,3.4,0.5c10.5,0.5,9-1.2,17.7-0.3
					c3.4,0.7,0.1,1.1,0.9,1.5c-4.6,0.1-7-0.6-10.1-0.6L440,62c-1.5,0.1-4.5,0.2-6.1,0c2.9,0.6,17.7,0.6,25.8,1.3
					c1.4-0.1,3.9-0.2,2.8-0.5l-2.6,0c-2.3-0.5,4.8-0.4,1.6-0.7c3.4-0.2,7.3-0.5,12.1-0.1l0.9,0.6c-0.1-0.2-3.2-0.4-4.5-0.3
					c2-0.2,7.4,1,9.6,0.3l-3.4-0.5c0.9,0,1.8-0.1,2.7-0.2c0.5,0,1-0.1,1.5-0.1c0.2,0,0.5,0,0.7,0l0.4,0l0.5,0c1.6,0,3.2,0,4.9,0
					l0.6,0l0.3,0c0,0,0.1,0,0.1,0l0,0.2l-0.3,1.2c-0.2,0.8-0.4,1.6-0.6,2.5c0.7-1.6,0.7-2,0.9-2.6c0.1-0.3,0.1-0.7,0.3-1.3
					c0-0.1,0.1-0.2,0-0.2c-0.1,0-0.2,0-0.2,0c-0.2,0-0.3,0-0.6-0.1c-0.4-0.1-0.9-0.1-1.5-0.2c1,0.2,0.2,0.3-1.1,0.3
					c-0.7,0-1.6,0-2.5-0.1c-0.7,0-1.4-0.1-2.2-0.1c-2.5-0.1-4.9-0.2-2.8,0.3c-3.1-0.9-5.4-0.5-9.5-1.3c0.1,0.2,1.4,0.4-2.2,0.2
					c-0.2,0-0.5,0.1-0.8,0.1c-0.1,0-0.1,0-0.2,0c0.1,0,0.1,0,0.2,0c-0.2,0-0.2,0,0.1,0c0.9,0.1,1.5,0.2,1.8,0.4
					c-1.8,0.4-7.5,0.2-9.5,0.3c-2.1-0.2,0.9-0.2-0.3-0.4l-2.9,0.2c-0.3-0.4-5.7-0.9-0.6-1l-4.5-0.2c-2.7-0.3-6.3-0.6-8.6-0.5
					c-2.1-0.2-5.4,0.3-3.5,0l-7.1,0l-0.1-0.1c-7-0.3-14.4,0.3-22.4-0.8c-2.4,0-4.8,0.1-8.7-0.2l-0.8-0.4c-3,0-9.1-0.7-10.4-0.3
					c-3.2-1.2-14.7-0.7-20-1.1l-0.2,0.5c-3.7-0.1-7.2-0.1-11.7,0l0.3,0.5c-3.9,0.3-10.1-0.6-16.3-0.8c0.4-0.2,2-0.1,3.1,0.1
					c-7.4-1.3-15.7,0.3-22.4-0.6c-1.7,0.1-2.9,0-4.1-0.1c0.2,0,0.3,0,0.4,0c-0.2,0-0.4,0-0.7,0c-0.7-0.1-1.5-0.2-2.3-0.3
					c0.7,0.1,1.4,0.2,2,0.3c-1.3,0-3.3,0-5.2,0l-0.8-0.5c-0.2,0-0.3,0-0.4,0c-1.9-0.2-1.5,0.2-0.5,0.6c-1,0.1-1.9,0.1-2.6,0.2
					c-1.5-0.8-5,0.1-7.1-0.8c-1.3,0.4-9.7,0-10.7,0.8c-0.1-0.1-0.6-0.2,0.4-0.2c-2.1-0.2-4.3-0.3-6.2-0.1l-0.9-0.6l-4.7,0.6
					c-2.8-0.4-4-0.7-1.2-1c-6.8,0.5-5.5,0.1-11.4,0.6l0.3-0.4c-2.1,0-5.4,0.3-6.6,0c-4.6-0.8-22.9-0.7-34.8-1.6c2.3,1-5.5-0.6-6,0.2
					c-0.7-0.2-2.3-0.4-0.4-0.5c-3,0-5.3-0.1-7.4-0.2c-1,0-2-0.1-3-0.1c-1,0-1.7,0.1-3.5,0.2c-0.6-0.1-0.1-0.2,0.4-0.2
					c0.5-0.1,1.1-0.1,0.6-0.2c-0.4,0-1.2,0-2,0c-0.4,0-0.8,0-1.2,0c-0.2,0-0.4,0-0.5,0c-0.1,0-0.1,0.1-0.1,0.1c0,0.1,0,0.1,0,0.2
					c0,0.2-0.1,0.2-0.1,0.1c0-0.1,0-0.2,0-0.3c0-0.1,0-0.1,0-0.2c0-0.1,0-0.1,0.1-0.1l0.1,0c0.7,0,1.7,0,2.5-0.1c-0.7,0-1.3,0-1.9,0
					c-0.3,0-0.6,0-0.9,0c-0.1,0,0,0.1-0.1,0.2l0,0.2c0,0.1,0,0.3,0,0.4c-0.1,1.1-0.1,2-0.1,2.8c0,0.4,0,0.8,0,1.1c0,0.2,0,0.4,0,0.6
					c0,0.4,0.1,0.6,0.1,0.9c0.2,1,0.4,1.3,0.7,1.5c-0.5,3.1-0.6,4.7-0.4,7c-0.3,1.1-0.6,2.9-0.4-1c-0.2,2.2-1.2,13.2-0.9,13.4
					c-0.2,0.7-0.3,3-0.3,3.6c-0.4,4.8-0.5,5.3-0.8,10l0.2-1.3c0.3,1.9-0.2,4-0.5,7.8l0-0.1c-1,8.8-0.2,3.8-1.2,12.5l0.3-0.5
					c0.4,0.8-0.9,7.7-1.1,12.7l0.3-1.8c-0.1,2.8-1.2,7.6-1.4,10.4c-0.1,0.6,0-1,0.1-1.8c-0.8,7.2,0.2,1-0.2,6.4
					c-0.2,1-0.2-1.3-0.5,2.3c-0.2,1.8-0.4,10.6-1,15.5c0.2-1.1,0.3-2.2,0.2,0.3c-0.3,3.8-1.2,10.4-1.2,13.8
					c-0.1,0.5-0.1,0.7-0.1,0.7c-0.2,2.9-0.7,9.5-0.7,11.3c-0.4,1.3-0.7,5.9-1,10.1c-0.1,1.1-0.1,2.1-0.2,3c0,0.5-0.1,1-0.1,1.5
					c0,0.3,0,0.6-0.1,0.8c0,0.1,0,0.3,0,0.4l0,0.1l0,0l0,0l0.2,0c0.5,0,1,0,1.4,0c0.3,0,0.6,0,0.8,0c0.4,0,0.7,0.1,0.7,0.1l9.1,0
					l-0.2,0c5.8,0.1,7.8-0.1,9.9-0.2c1.3,0,0.4,0.1,0.3,0.1c8.5,0.1,9.3,0.1,16.4-0.1l0.7,0.2c0.5,0,1.5,0,2.9,0
					c0.7,0,1.5,0,2.3,0.1c0.3,0,0.7,0,1,0c0.2,0,0.5,0,0.7,0l0.2,0c0.1,0,0,0.1,0,0.2l-0.2,0.4c-0.1,0.3-0.2,0.5-0.3,0.8
					c-0.4,1-0.9,1.9-1.3,2.9c-0.9,2-1.7,4-2.5,5.9c0-0.1,0-0.3,0.3-0.9c-1.7,4.3-4.1,9.4-6.1,13.8c-2,4.4-3.7,8.2-3.9,9.9l-2.2,5.8
					c3.2-7.3,0,1.3,1.5-1.7c-1.1,2.9-3.5,7.3-2,3.8l0.3-0.5c0-0.8-1,1.5-2.1,3.9c-0.7,1.6-1.4,3.2-1.9,4.4c-0.6,1.3-1,2.2-1.2,2.3
					c-0.5,1.2-1,2.5-1.5,3.7l-0.8,1.9l-0.4,0.9l-0.2,0.5c0,0,0,0.1,0,0.1l0.1-0.1l0.2-0.1c2.2-1.6,4.3-3.2,6.5-4.8
					c2-1.5,4.1-3,6.1-4.5c1.6-1.1,3.1-2.2,4.6-3.4c6.2-4.5,12.2-8.9,18.1-13.2l-1.7,0.5l4.1-3c1.2-0.7,1.7-0.7-1.2,1.5
					c1.8-0.9,4.7-3.9,4.7-4.1c5.9-4.1-1.8,2.3,0,1l2.4-1.8l-0.6,0.3c1.8-1.7,1.8-2,5.3-4.6c2.3-1.6,1.4-0.5,2.3-1.2
					c0,0,0.3-0.2,1.4-1l5.2-3.8L266,215c2.1-1.9,4.9-3.6,2.1-2.3c2-1,6.9-4.5,11.5-8c2.3-1.8,4.6-3.5,6.4-4.9c0.4-0.3,0.7-0.5,1-0.8
					l0.2-0.1c0.1,0,0.1,0,0.2,0c0.1,0,0.3,0,0.4,0c0.4,0,0.7,0,0.9,0.1c0.3,0,0.5,0,0.7,0.1c4-0.2,8,0,12.9,0.2
					c-1.2-0.2-1.9-0.7,2.3-0.5c-1.6,1.1,7.7,0.8,11.1,1.7c-3-0.6,12,0.3,7.3-0.6c3.5,0.2,0.2,0.4,2.9,0.8c8.4-0.1,18.5,0.9,28.9,1.1
					c0.2-0.1-1.6-0.4,0.7-0.5l5.4,0.8c2.1,0,1.9-0.6,5.6-0.1c-0.5-0.1-1.3-0.3,0.1-0.3c10.1,0.6,20.5,0.9,30.9,1.2
					c10.4,0.3,20.9,0.7,31.2,1.2c-2.8-0.2-0.9-0.1,1.2-0.1c-1.4-0.1,0-0.1-0.2-0.2l8.6,0.4c1.6-0.1,9.3,0.2,10.2,0.1l-2.7-0.1
					c3.6,0-5.1-0.5-4.5-0.7c-2,0-4.7-0.2-7.7-0.4c-3-0.2-6.3-0.5-9.7-0.5c-1.5-0.1,1.3,0,0.5-0.2c-1.7,0-3.7,0-7.5-0.3l0.4,0
					c-10.6-0.5-15.2-0.9-27.1-1.7l0.9,0.3c-2.6-0.2-3.1-0.3-4.3-0.4c-3,0.3,7.2,0.4,4.5,0.7c-3.4-0.7-18.1-0.9-20.4-1.7
					c-4-0.2,1.1,0.4-2.8,0.2l-1-0.2l-1,0.2c-2.6-0.2-3.9-0.5-4-0.7c0.6,0.1,1.8,0,2.5,0.1c-3.3-0.4-9.5-0.4-10.6-0.5l3.8,0.3
					c-10.8-0.3-24-1.3-34.4-1.3l0.8,0.2c-8,0-6.4-0.5-15.1-0.7l0.3,0c-1.8,0.1-4.1,0.1-6.5,0c2.2-0.1-4.1-0.6-1.2-0.7
					c-8.6,0-4.3,0.1-10,0.6l-1.3-0.4c-0.5,0.1-0.9,0.1-1.2,0.1c-0.4,0-0.7,0.1-1.2,0.1c-0.3,0-0.5,0-0.8,0c-0.2,0-0.3,0.1-0.4,0.2
					c-0.1,0.1-0.3,0.2-0.4,0.4c-0.5,0.4-1.2,1-2.1,1.7c2.7-2.4-2.5,1.3,0.5-1.4c-7.8,4.9-10.4,8.8-14.4,10.5
					c-2.8,3.3,6.6-4.4,4.9-2.8c1.8-1-2.4,2.6-4.7,4.3c-2.3,1.8-4.7,2.1-10.6,6.5c0.6-0.4,0.6-0.5,1.2-1c-2.3,1.5-4.1,3.5-7,5.3
					c-1.2,1.6-3.5,2.6-3.5,3.5l5.3-4.2c-2.9,2.5-5.3,5.3-10.6,8.8c0.3-0.4,1.7-1.7,2.7-2.6c-1.6,1-2.7,2.3-4.4,3.2
					c0-0.9,6.4-5.1,9.4-8c-1.8,1-5.9,5.1-4.7,3.3c-1.8,2.6-5.8,4.3-9.4,7.9l0-0.5c-0.6,0.5-1.8,1.7-2.9,2.6l1.8-2
					c-2.9,2.8-6.4,4.4-9.3,7c6.4-5,1.7-0.7,4.6-2.6c-3.8,3.3-5.1,3.9-6.5,4.7c-0.7,0.4-1.5,0.7-2.6,1.5c-0.6,0.4-1.2,0.8-2,1.4
					c-0.3,0.2-0.7,0.5-1,0.8c-0.1,0.1-0.2,0.2-0.4,0.3c0.1-0.1,0.2-0.1,0.3-0.2l0.2-0.1c0.2-0.2,0.4-0.3,0.6-0.4
					c0.8-0.5,1.2-0.7,0.3,0.1c-0.2,0.2-0.4,0.3-0.7,0.5c-0.1,0.1-0.2,0.1-0.2,0.1l-0.1,0.1c-0.2,0.1-0.3,0.2-0.5,0.3
					c-0.3,0.1-0.5,0.2-0.5,0.1c-0.8,0.7-1,1-0.9,1.1c0,0.1,0.4,0-0.3,0.7c-0.1-0.1-0.2,0-0.3,0.1c-0.1,0.1-0.2,0.2-0.3,0.3l-0.2,0.2
					c0,0-0.1,0.1-0.1,0.1l0,0c-0.1,0-0.3-0.1,0-0.8l0.6-0.6c0.9-1.8,0.8-1.9,0.7-2.2c0-0.1-0.1-0.2,0-0.6c0.2-0.5,0.6-1.5,1.4-3.3
					l-0.8,3.2l1.4-3.7l0,0.9c1.4-4.1,1.9-5.3,3.6-9.2c-0.6,0.8-0.3-0.7,1.1-4.2c1.1-2.3-0.3,1.4,1.7-3.5c-0.3,1.2-0.6,2.5-1.7,4.5
					c0,0.3-0.3,1.2-0.3,1.4c1.2-2.5,2.6-6.4,3.3-8.2c-0.3,0.7-0.6,1.5-0.8,1.9l2.6-7.3c0.5-1.1,0.3-0.2,0,0.7
					c0.6-1.5,0.9-2.5,1.7-4.6c0,0.6,0.2,0.6-0.9,3.6l2.5-6.9c0.3-0.4,1.6-3.4,1.3-2.5c0.4-0.9,0.8-2,1.2-3.1
					c0.4-1.2,0.9-2.5,1.4-3.8c0.4-1.1,0.8-2.1,1.2-3.2l0.1-0.2c0-0.1-0.1,0-0.2,0l-0.4,0l-0.9,0c-0.6,0-1.2,0-1.7,0
					c-0.8,0-1.7,0-2.5,0c-0.7,0-1.4,0-2,0c-0.3,0-0.8,0.1-2,0.1c-5.1,0-9.6-0.1-15.6,0.1l-3.4-0.2c-4.7,0.1,4.6,0.3-3.2,0.4
					c-5.5,0.1-2.1-0.2-4-0.2c-1.4,0.1-3.3,0.2-5.4,0.2c-1.1,0-2.3,0-3.5,0c-0.6,0-1.2,0-1.8,0l-0.5,0c-0.2,0-0.3,0-0.4,0l-0.4,0
					c0.2,0,0.3,0,0.5,0c0.4,0,0.8,0,1.1,0C193,196.7,193.7,196.7,194.5,196.7z M195,144.4c-0.1,1.1-0.2,3.4-0.3,4.2
					C194.5,147.3,194.7,146.3,195,144.4z M202.3,56.9c0,0.2,0,0.3,0,0.5c0,0.1,0,0.2,0,0.3c0,0.1,0,0.3,0,0.4
					c-0.1,0.6-0.2,1.3-0.3,2c0-0.5,0.1-1.1,0.1-1.7c0-0.3,0.1-0.6,0.1-0.9C202.2,57.3,202.2,57.1,202.3,56.9z M445.6,60.1
					c0,0-0.1,0-0.1,0C443,59.9,443.9,60,445.6,60.1z M450.8,60.5c0.5,0,0.5-0.1,0.3-0.2c-0.4,0.1-1.5,0.1-2.9,0
					C448.6,60.5,449.3,60.6,450.8,60.5z M262.2,218.2l-0.9,0.5C263,217.2,262.6,217.7,262.2,218.2z"/>
				<path class="st3" d="M201.8,66.6c-0.1,0.3-0.2,0.4-0.2,0.5C201.6,67.5,201.7,67.5,201.8,66.6z"/>
				<path class="st3" d="M230.5,196.3l0.2,0c0.1,0,0.1,0,0.2,0L230.5,196.3z"/>
				<path class="st3" d="M370.1,62.2c-1.1-0.1-1.7-0.2-2.1-0.3C368,62,368.4,62.1,370.1,62.2z"/>
				<path class="st3" d="M478.4,60.8l-3.3,0c1.6,0,2.2,0.2,3,0.3C478,60.9,477.4,60.7,478.4,60.8z"/>
				<path class="st3" d="M480.6,84.7c-0.1,0.5-0.2,1-0.3,1.5l0.2-0.1C481,84.1,481.2,82.6,480.6,84.7z"/>
				<path class="st3" d="M481.4,62.3c0.1,0.2,0.9,0.3,2,0.3c0.5,0,1.2,0,1.9,0c0.3,0,0.7,0,1.1,0c0.2,0,0.4,0,0.5,0l-0.1,0.5
					c0-0.2,0.1-0.3,0.1-0.5c0.1,0.1,0.2,0,0.3-0.3c-0.1-0.1-0.6-0.1-1.2-0.1C484.9,62.3,483,62.3,481.4,62.3z"/>
				<path class="st3" d="M486.6,63.9c-0.2,0.9-0.4,1.8-0.6,2.7C486.1,67,486.3,65.5,486.6,63.9z"/>
				<path class="st3" d="M457.4,60.5c1.1,0.1,0.7-0.5,1.3-0.3C460,59.7,451.3,60.5,457.4,60.5z"/>
				<path class="st3" d="M483.3,63.6c-0.2-0.2-0.4-0.3-0.7-0.5c-0.5,0.1-1,0.2-1.4,0.3L483.3,63.6z"/>
				<path class="st3" d="M464.9,62.7l3.7,0.2c-0.1-0.1,0.4-0.1,1-0.1C467.3,62.7,464.8,62.5,464.9,62.7z"/>
				<path class="st3" d="M469.6,62.8c1.2,0,2.3,0.1,3,0C472,62.8,470.6,62.8,469.6,62.8z"/>
				<polygon class="st3" points="478.2,63.6 477.1,63.4 474.5,63.3 				"/>
				<path class="st3" d="M424.8,61.3l-4.1,0c-0.4,0.2,0.7,0.3,2.2,0.3C423.9,61.5,425.4,61.5,424.8,61.3z"/>
				<path class="st3" d="M437,63.1c-1.1-0.1-1.2-0.3-1.8-0.4l-0.1,0.6L437,63.1z"/>
				<path class="st3" d="M425.2,62.9c-0.4,0.2-5.9,0.3-0.8,0.4C424.8,63.2,428.9,63.1,425.2,62.9z"/>
				<polygon class="st3" points="363.8,60.2 364.9,60.2 364.8,59.1 				"/>
				<path class="st3" d="M309.7,61c4.8,0.4,1.2-0.6,5.5-0.1c1.1-0.2-3.6-0.4-2.4-0.5C309.9,60.4,308.4,60.2,309.7,61z"/>
				<path class="st3" d="M312.8,60.3c0.5,0,1-0.1,1.5-0.1C313.5,60.2,313.1,60.2,312.8,60.3z"/>
				<polygon class="st3" points="444,204.4 447.1,204.5 445.1,204.4 				"/>
				<path class="st3" d="M449.9,204.4l0.7,0.1l1.9,0C451.8,204.5,450.5,204.4,449.9,204.4z"/>
				<path class="st3" d="M196.2,135.9l0-0.2c-0.1,0.5-0.2,1.2-0.3,2.6L196.2,135.9z"/>
				<polygon class="st3" points="192.3,177.8 192.4,177.1 192.1,178.4 				"/>
				<path class="st3" d="M205.3,196.2c-1.4,0-3.1,0-4.6,0.1C203.8,196.2,205.7,196.5,205.3,196.2z"/>
			</g>
		</g>
	</g>
</g>
<g>
	<path class="st0" d="M177.3,111.3l27.4,120.1l-17.7,8.1c0,0,6.2,5.4,7.2,11.8c0.8,5.1-24.1,12.5-41.9,8.4
		c-17.8-4.1,11.9,20.1,41.4,2.9c0,0-7.2,23.3-18.3,34.5c-11.2,11.2-18.7,6.6-22.4,10.3c-3.7,3.7-4.6,46.8-4.6,52.5
		s-111.5-5.7-102.5-27.1S50,97.3,96,92.3S177.3,111.3,177.3,111.3z"/>
	<g>
		<g>
			<g>
				<g>
					<path class="st0" d="M177.2,109.8c1.1,0.7,0.8,0.3,1,0.4C176.3,109,177.2,109.8,177.2,109.8z"/>
					<polygon class="st0" points="158.8,101.1 159.2,101.2 156.3,100.3 					"/>
					<path class="st0" d="M140.9,95.2c0.8,0.4,2.5,0.8,4.3,1.3c0.9,0.2,1.9,0.5,2.8,0.8c0.9,0.3,1.8,0.6,2.6,0.9l0.5,0.3l1.5,0.2
						C148.8,97.3,143.6,96,140.9,95.2z"/>
					<path class="st0" d="M131.1,92.3c0.6,0.3-2.2-0.3,2.3,0.5c-0.2-0.1-0.3-0.1-0.4-0.1C132.6,92.5,132.1,92.4,131.1,92.3z"/>
					<path class="st0" d="M133,92.6C135,93,131.8,92.3,133,92.6L133,92.6z"/>
					<path class="st0" d="M123.9,91.3l2.6,0.2c-0.5-0.2-2.9-0.5-2-0.4C121.8,90.8,122.4,90.9,123.9,91.3z"/>
					<path class="st0" d="M121.4,91.2l1.4,0.1C122.5,91.3,122.1,91.2,121.4,91.2z"/>
					<path class="st0" d="M125.6,91.6l-2.9-0.3c0.4,0.1,0.4,0.2,1.3,0.1C123.8,91.5,124.4,91.5,125.6,91.6z"/>
					<path class="st0" d="M127.2,91.8c0.7,0.1,1.6,0.3,1.9,0.4c0.3,0.1,0.1,0.1-1.2-0.1c2.5,0.4,3.5,0.6,3.4,0.4
						C131.1,92.6,129.7,92.2,127.2,91.8z"/>
					<path class="st0" d="M139.8,95.3l1.9,0.6c0.6,0.1,1.1,0.2,1.7,0.4C142.6,96,139.7,95.2,139.8,95.3z"/>
					<path class="st0" d="M107.5,90.1c-0.2,0.1,0.9,0.2,1.1,0.3l2-0.1C109.5,90.3,107.6,90.2,107.5,90.1z"/>
					<path class="st0" d="M108.6,90.4l-2.9,0.1C108.2,90.6,108.7,90.5,108.6,90.4z"/>
					<path class="st0" d="M120.9,91.5l4.8,0.3c-1.9-0.1-3.8-0.3-5.7-0.4C120.3,91.5,120.6,91.5,120.9,91.5z"/>
					<path class="st0" d="M96.3,90.7l1.6-0.3l-1.5,0.2l-0.7,0.1L95,91C95.4,90.9,95.9,90.7,96.3,90.7z"/>
					<path class="st0" d="M88.8,93.2c1-0.8-1.6,0.8-0.5-0.1c-0.4,0.3-0.9,0.6-1.3,0.9c-0.4,0.3-0.7,0.6-1.1,1
						c-0.3,0.3-0.7,0.6-1,0.9c-0.3,0.3-0.6,0.6-0.8,0.9c0.3-0.3,0.6-0.6,0.9-1c0.4-0.3,0.7-0.6,1.1-0.9
						C86.8,94.3,87.7,93.8,88.8,93.2z"/>
					<path class="st0" d="M82.4,98.9c0.3-0.3,0.5-0.7,0.8-1c0.3-0.3,0.6-0.7,0.9-1.1l-0.9,1C82.9,98.2,82.6,98.6,82.4,98.9z"/>
					<path class="st0" d="M100.7,90.8c-0.2,0-0.7-0.1-2.3-0.1l1.2,0.1C99.9,90.8,100.3,90.8,100.7,90.8z"/>
					<path class="st0" d="M99.6,90.9L99.6,90.9C98.3,91,97.4,91,97.1,91C97.4,91,98.1,91,99.6,90.9z"/>
					<path class="st0" d="M101,90.8c-0.1,0-0.2,0-0.3,0C100.8,90.8,100.9,90.8,101,90.8z"/>
					<path class="st0" d="M113.3,90.8c-1.7,0-5.3,0.2-1.8,0.4C112.7,91.1,110.7,90.9,113.3,90.8z"/>
					<path class="st0" d="M102.4,90.9c1-0.1,2.1-0.1,3.1-0.1c-0.1-0.1-0.6-0.1,0.2-0.2C104.6,90.7,103.5,90.8,102.4,90.9z"/>
					<polygon class="st0" points="100.9,91.1 102.4,90.9 101.3,91 					"/>
					<path class="st0" d="M86.4,95.2c-1.1,0.9-2.1,2-3.2,3.3c0.6-0.7,1.3-1.3,2-2c0.7-0.6,1.4-1.2,2.1-1.8c0.1-0.1,0.3-0.3,0.2-0.3
						C87.4,94.4,87.2,94.6,86.4,95.2z"/>
					<path class="st0" d="M92.5,91.9c-0.1,0-0.2,0.1-0.3,0.1C92.4,91.9,92.5,91.9,92.5,91.9z"/>
					<path class="st0" d="M74.7,112.5c0-0.1,0.1-0.1,0.1-0.2c0,0,0,0,0-0.1L74.7,112.5z"/>
					<path class="st0" d="M87.5,94.6c1.2-0.7,1.8-1.3,2.5-1.6c-0.2,0.1-0.5,0.2-0.7,0.4c-0.2,0.1-0.5,0.3-0.7,0.4
						c-0.5,0.3-0.9,0.6-1.4,1C87.2,94.9,87.1,94.9,87.5,94.6z"/>
					<path class="st0" d="M79.6,102.7c0.4-0.6,0.9-1.2,1.5-1.9C80.7,101.4,79.7,102.5,79.6,102.7z"/>
					<path class="st0" d="M91.7,92.1c0.1,0,0.1,0,0.2-0.1C91.5,92.1,91.5,92.1,91.7,92.1z"/>
					<path class="st0" d="M91.7,92.1c-0.7,0.3-1.2,0.6-1.7,0.9c0.4-0.2,0.7-0.4,1.1-0.6c0.3-0.2,0.7-0.3,1-0.4
						C92,92,91.8,92.1,91.7,92.1z"/>
					<path class="st0" d="M74,117.6c-0.1-0.3,1-3.6,2.4-6.2c0.6-1.4,0.5-1.7,0.1-1.4c-0.4,0.3-1.1,1.2-1.8,2.3c0.1,0.1,0.1,0.1-1,3
						c0.4-1,3-6.1,2.1-3.7c-1.6,3.7-1.4,3-2.2,4.8c0.4-0.7,0,0.5-0.4,1.8c-0.4,1.3-0.8,2.8-0.4,2.4c0.4-1.1,0.7-2.2,1.1-3.3
						C74,117.2,73.6,118.5,74,117.6z"/>
					<path class="st0" d="M77.4,107l0.6-1.1c-0.7,1.2-1.3,2.1-2.3,3.8c-0.9,1.9-0.9,2.4-0.9,2.5c0.4-1,0.9-1.9,1.3-2.8
						c0.5-0.9,0.9-1.9,1.5-2.8L77.4,107z"/>
					<path class="st0" d="M81.1,101.1c-0.2,0.5-0.8,1.3-1,1.9c-0.3,0.6-0.4,0.9,0.2,0.2c2.1-3,1.3-2.2,2.7-4
						C79.3,103.9,83.9,97.7,81.1,101.1c0.7-1,1.4-1.8,2.1-2.6c-0.7,0.8-1.5,1.6-2.1,2.4c0,0,0.1-0.1,0.1-0.1l0,0l0,0
						c0.2-0.2,0.2-0.3,0.1,0c0,0-0.1,0.1-0.1,0.1C81.2,100.9,81.1,101,81.1,101.1c-1.1,1.4-0.2,0.2,0.1-0.3c0,0,0-0.1,0-0.1l0,0
						c-1.2,1.7-2.2,3.4-3.2,5.1c0.3-0.6,0.7-1.2,1.2-1.9c0.2-0.4,0.5-0.8,0.8-1.3C80.3,102.2,80.7,101.7,81.1,101.1z"/>
					<path class="st0" d="M108.3,91.7c-0.2,0-0.2,0-0.2-0.1C107.7,91.7,107.6,91.7,108.3,91.7z"/>
					<path class="st0" d="M105.8,91.5c0.4,0,0.8-0.1,2.2-0.1c1.2,0.1,0,0.1,0.1,0.2c0.8-0.1,3-0.2,0.3-0.3l-0.4,0
						c-1.2,0-2.6-0.1-3.6-0.2c-1,0-1.7,0-1.5-0.1C103.6,91.3,104.3,91.3,105.8,91.5z"/>
					<path class="st0" d="M92,92.7c-0.8,0.3-1.5,0.8-2.3,1.1c-0.7,0.4-1.4,0.9-2.1,1.4c0.8-0.4,1.5-0.9,2.3-1.2l-0.2,0
						C92.3,92.7,91.7,92.9,92,92.7z"/>
					<path class="st0" d="M74.3,113l0.1-0.7c-0.3,0.9-0.6,1.8-0.8,2.8C73.8,114.4,74.1,113.7,74.3,113z"/>
					<polygon class="st0" points="72,119 71.9,118.7 71.4,120.4 					"/>
					<path class="st0" d="M148.5,327.2l0.1-1.5C148.5,326.4,148.5,326.9,148.5,327.2z"/>
					<path class="st0" d="M147.9,337.7l0.1,0.3C147.9,337.5,147.9,337.3,147.9,337.7z"/>
					<path class="st0" d="M50.6,274.7c-0.3,2.1-0.8,4.4-0.5,4.2l0.3-0.6C50.4,276.7,50.5,275.6,50.6,274.7z"/>
					<path class="st0" d="M85.5,354.8c-0.2-0.1-0.4-0.1-0.6-0.2c-0.5,0-1-0.1-1.4-0.1C84.1,354.6,84.8,354.7,85.5,354.8z"/>
					<path class="st0" d="M87.2,354.2l2.7,0.7C89.3,354.8,88.4,354.5,87.2,354.2z"/>
					<path class="st0" d="M181.2,287.1c0.2-0.5,0.5-1,0.7-1.5C180.6,287.8,181.3,286.9,181.2,287.1z"/>
					<path class="st0" d="M58.5,183.3c-0.3,1.8-0.5,3.2-0.7,4.5C58.2,185.7,58.6,183.9,58.5,183.3z"/>
					<path class="st0" d="M150.5,331.5c0-0.9,0-1.3-0.1-1.2C150.5,331.1,150.5,331.7,150.5,331.5z"/>
					<path class="st0" d="M57.2,193c0.1-0.3,0.1-0.6,0.2-1c0.1-1.3,0.2-2.7,0.5-4.3C57.5,189.4,57.2,191.3,57.2,193z"/>
					<path class="st0" d="M193.5,187.7c0-0.1-0.1-0.3-0.1-0.5C193.3,187.2,193.4,187.4,193.5,187.7z"/>
					<path class="st0" d="M182.2,128.2c0.1,0.6,0.4,1.5,0.6,2.4C182.6,130.2,182.5,129.5,182.2,128.2z"/>
					<path class="st0" d="M64.9,143.9C65.2,142.6,64.9,143.7,64.9,143.9L64.9,143.9z"/>
					<path class="st0" d="M67.2,137.7c0,0.3-0.1,0.5,0,0.6C67.2,138.1,67.2,137.9,67.2,137.7z"/>
					<path class="st0" d="M57.1,206.6c0,0,0,0.1,0,0.1C57.2,206.4,57.2,206.4,57.1,206.6z"/>
					<path class="st0" d="M65.4,142c-0.1,0.5-0.3,1.1-0.4,1.7C65,143.4,65.2,142.9,65.4,142z"/>
					<path class="st0" d="M65.3,142.2c0.1-0.5,0.2-0.8,0.3-1.2C65.5,140.9,65.5,141,65.3,142.2z"/>
					<path class="st0" d="M64.5,145.8c0.2-0.8,0.3-1.5,0.5-2.2c-0.1,0.3-0.1,0.4-0.1,0.3C64.8,144.3,64.7,144.9,64.5,145.8z"/>
					<path class="st0" d="M164.6,260.3c0.1,0,0.2,0,0.3,0C166.2,260.2,165.6,260.2,164.6,260.3z"/>
					<path class="st0" d="M50.4,310.1c0-0.1,0-0.1,0-0.2C50.4,310,50.4,310.1,50.4,310.1L50.4,310.1z"/>
					<path class="st0" d="M50.1,315c-0.1-2.1,0.1-3.3,0.3-4.8l-0.8,1.6L50.1,315z"/>
					<path class="st0" d="M157.1,304.4c-1.2,0.1-2.5,0.3-3.8,0.9c1.1-0.8,2.2-1,3.1-1.2c0.9-0.2,1.5-0.3,1.9-0.4
						c0.8-0.2,0.8-0.2-0.8-0.1c0,0.1-0.3,0.2-0.7,0.3c-0.4,0.1-1,0.3-1.7,0.5c-0.4,0.1-0.8,0.3-1.2,0.4c-0.4,0.2-0.9,0.4-1.3,0.8
						c-0.2,0.2-0.4,0.3-0.6,0.5l-0.2,0.1l-0.2,0.2c-0.1,0.1-0.2,0.3-0.3,0.4c-0.2,0.3-0.3,0.5-0.4,0.7c-0.1,0.3-0.2,0.5-0.3,0.7
						c-0.6,1.8-0.9,3.4-1.1,4.8c-0.2,1.3-0.2,2.2,0,2.3l-0.4,2.2c0.1-0.6,0.1-0.8,0.1-1.4c-0.8,4.4,0.1,3.3-0.5,9
						c-0.2,2-0.4,3.3-0.4,2l-0.1,4.4c-0.1,1.3-0.2,1-0.1-0.3L148,338l0-0.1c0.1,1,0.1,3.1,0.2,4.2c-0.2,1.7,0-0.9-0.1-0.4l0,3.7
						c-0.2,1.5-0.3-1.6-0.2-4.1c-0.8,3.4,0,3.1-0.6,10.6l0-3.5c-0.5,2.3-0.4,5-0.7,9c0.1-0.9,0.8-7.9,0.9-3.9
						c-0.1,1.1-0.1,2.6,0,4.8c-0.1,0-0.1,0.1-0.1,0.4c0,0.1,0,0.1,0,0.2l0,0.1l0,0c0,0.1,0,0.1,0,0.2c0,0.2-0.2,0.3-0.4,0.4
						c0,0-0.1,0-0.2,0c0,0-0.2,0.1-0.3,0.1c-0.3,0.1-0.6,0.1-0.9,0.2l0.1-0.3c-1.3,0.2-2,0.3-2.4,0.4c-0.5,0.1-0.8,0.2-1.7,0.3
						c-3.2,0-3.8-0.3-4.5-0.5c-5.1-0.2,3.5,0.5-2.5,0.4c-4.2-0.3-7.2-0.4-12.3-0.7c-2.9-0.4,0.5-0.1-0.5-0.3l-2.6,0
						c-0.6-0.1-0.4-0.1-0.3-0.2c-2.2-0.1-0.2,0.3-3.7,0c-1,0.3-7.1-1.4-11.4-1.6c-1-0.2,0.5-0.1,0.2-0.3c-5.9-0.6-5-0.6-9.9-1.1
						l-4-1c2.9,0.8-0.9,0.4-4.3-0.1c1,0.3,1.9,0.6,2.5,0.8c-1.8-0.3-3.6-0.6-5.4-1c-0.6-0.2-0.1-0.2,0.8-0.1c-0.4-0.1-0.7-0.1-1-0.1
						c-1.9-0.5-0.8-0.5,0.6-0.4c0.6,0.2,1.3,0.4,1.9,0.6c1.4,0.1,2.6,0.1,2.4-0.1c-0.4,0-1-0.1-1.8-0.3c0.4,0,0.6,0,0.4,0
						c-0.2-0.1-0.7-0.1-1.6-0.2l-1.1-0.6l-0.3,0.1c-2.3-0.6-4.6-1.2-6.9-1.9c-2.5-0.5-4.9-0.9-7.5-1.5c-2.7-0.6-5.7-1.4-9.5-2.9
						c2,0.5,0.6-0.2,0.8-0.5c1.9,1.1,5.9,2.1,9.8,3.3c-2.1-0.7-1.6-0.7-1-0.6c-2.4-0.6-4.8-1.3-7.1-2.1c0.2-0.2-1.4-0.7-3.1-1.6
						c0.6,0.5-0.7,0.1-2.5-0.7c-1.8-0.8-3.9-2.1-5.1-2.9c0-0.1,0.1-0.1,0.7,0.2c0.5,0.3,1.4,0.9,3,1.7c-1.7-1.1-2.8-1.7-3.9-2.3
						c-1.1-0.6-2.2-1.3-3.2-3c0.5,0.7,0.8,1,1.1,1.2c-0.8-0.7-1.8-2.1-2.1-3.3c-0.3-1.2-0.1-2.1,0-1.6c0,0.3,0,0.5,0,0.8
						c-0.1-0.6,0-1.4,0.2-2.1c0-0.2,0.1-0.4,0.2-0.6c0.1-0.2,0.2-0.5,0.3-0.7c0.2-0.5,0.3-1,0.5-1.5c0.5-2,0.9-4.1,1.2-6.1
						c0.5-3.9,0.7-7.2,0.6-7.7c0.1-0.1,0.4,0.8,0.5,1.2c-0.1-3.6-0.2-7.2-0.4-10.9c0.3,1,1.5-2.6,1.2,2.4c0.2-1.4,0.4-3.2,0.5-6.2
						c-0.1,1-0.7,2.4-0.6,1.1c0.7-3.6,0.4-2.5,1.1-7c-0.2,1.5-0.6-0.2-0.5-2.5c0.1,0.4,0.6-0.2,0.6,0.7l-0.2-5.8
						c0,1.4,0.5,0.3,0.7-1c-0.1,0.6,0.3-5,0.4-6.5l-0.3,2.4c0.5-6.5-0.4-6.5,0.1-12.9c0.1,0.8,0.6,2,0.9-1.3
						c-0.2-1.5-1-6.7-0.8-12.5l0.2-1.1l0.1-4.4c0.2,2.8,0.6,10.5,0.7,14.7c0.3-2.4,0.2-0.7,0.5-4.3c0.2-1.3,0.1,2,0,3.1l0.7-8.5
						c-0.4,0.4,0.1-6.5-0.2-6.2l-0.3,9.2c-0.4,0.4-0.6-5.4-0.1-11.4c0.2-1.5,0.5,1.2,0.6,1.1c-0.1-0.8,0.2-5.7,0.3-6.3l0,2.6
						c0.4-3.3-0.1-5.5,0.6-9.5c0.1-1.4,0.7-4.1,0.6-4.4c-0.6,2.2-1.8,2.6-1.9,1.1c0.1-0.5,0.9-7.3,1.3-8.8c0.5-2.3,0.4,3.5,0.8,1.6
						c-0.1-0.1-0.1-1.4-0.1-1.9c0.2-1.4,0.2,0.6,0.5-2.5c-0.3-0.6,0.6-6.4-0.2-1.5c0.2-3.1,0.4-3.3,0.7-6.9
						c-0.3,1.1-0.4-3.3-0.2-6.4c0.1,0.2,0.2-0.5,0.3-0.8c0.7-6.3,1.2-9.7,1.9-15.6c0.1-0.5,0.6-3.4,0.6-2.1c0-0.9,0-1.6,0.2-3.5
						c0.7-3.5-0.5,4.1,0.2,1.4c-0.2-0.3,0.3-4.7,0.5-7.3c-0.4,0.8-0.8,6-1,8.6c-0.4,0-0.3-4.6,0.3-10.8c0.6-4.9,0.6-2.1,0.6-2.9
						c1.4-9.2,0.4-7.9,2-15.5c0.8-3,0.6,0,0.9-0.7c-0.6,4-1.2,6.1-1.6,8.7l0.7-3.3c-0.1,1.3-0.5,3.9-0.8,5.4
						c0.3-1.2,0.9-5.1,1.7-9.5c0.8-4.4,1.7-9.4,2.6-12.9c0.2-1.3,0.6-3.4,0.2-2.4l-0.4,2.2c-0.7,2,0.6-4.2-0.1-1.4
						c0.5-3,1-6.4,2.2-10.5l0.5-0.7c-0.1,0.1-0.9,2.7-1.1,3.9c0.3-1.8,2-6.2,2.2-8.2l-1,2.8c0.7-3,1.4-6.7,2.7-10.3
						c-0.8,1.6-0.3,0.8-1.4,3.3c0.6-1.1-0.2,1.3-0.8,3.4c-0.6,2.2-1.2,4.2-0.4,2.4c-0.6,1.3-0.9,2.4-1.3,3.7
						c-0.4,1.3-0.7,2.6-1.3,4.3c0.1-0.1,0.5-1.2-0.3,1.9c0,0.1,0,0.5-0.1,0.7c0,0.1,0,0.1-0.1,0.2c0-0.1,0-0.1,0-0.2
						c0,0.1,0,0.2,0-0.1c0.2-0.7,0.4-1.3,0.5-1.5c-0.2,1.6-1.2,6.5-1.4,8.2c-0.4,1.8,0-0.8-0.3,0.2l-0.3,2.5
						c-0.3,0.2-1.3,4.9-0.6,0.5l-0.8,3.9c-0.5,2.3-1.2,5.5-1.4,7.5c-0.4,1.9-0.5,4.8-0.4,3.1c-0.3,2.1-0.6,4.2-0.8,6.2l-0.1,0
						c-0.9,6.1-1.4,12.7-2.6,19.7c-0.2,2.1-0.4,4.2-0.8,7.7l-0.3,0.7c-0.2,2.7-1,8-0.9,9.1c-0.8,2.8-1.3,12.9-1.8,17.6l0.2,0.2
						c-0.3,3.2-0.4,6.3-0.7,10.3l0.2-0.2c-0.1,3.5-0.8,8.9-1.2,14.3c-0.1-0.4,0.1-1.8,0.2-2.7c-1,6.5-0.6,13.8-1.3,19.7
						c0,1.5-0.1,2.5-0.2,3.6c0-0.1,0-0.3,0-0.4c0,0.2,0,0.4,0,0.6c-0.1,0.6-0.2,1.3-0.3,2c0.1-0.6,0.2-1.2,0.2-1.7
						c-0.1,1.1-0.2,2.9-0.2,4.6l-0.3,0.7c0,0.1,0,0.2,0,0.4c-0.2,1.7,0,1.3,0.3,0.5c0,0.9,0,1.6,0,2.2c-0.5,1.3-0.2,4.4-0.7,6.3
						c0.1,1.2-0.4,8.5-0.1,9.4c-0.1,0.1-0.1,0.6-0.1-0.4c-0.2,1.9-0.4,3.8-0.4,5.5l-0.4,0.8l0.1,4.1c-0.4,2.5-0.6,3.5-0.6,1
						c-0.2,6-0.3,4.9-0.4,10l-0.2-0.3c-0.2,1.8-0.3,4.7-0.6,5.8c-0.2,1-0.6,2.7-1,4.9c-0.3,1.1-0.5,2.3-1,3.4
						c-0.2,0.5-0.5,1.3-0.7,2.1c-0.2,0.8-0.2,1.6,0,2.4c0.3,1.7,1.2,3.1,2.3,4.3c1.1,1.2,2.4,2.2,3.7,3.1c2.6,1.8,5.3,3.1,7.8,4.2
						c-0.8-0.7,0.3-0.1,1.7,0.5c1.4,0.6,3.1,1.4,3.4,1.2c0.5,0.3,1.9,0.9,0.2,0.4c5.2,1.6,7.7,2.6,11.4,3.2c0.6,0.3-1.2-0.1-0.7,0.1
						c0.4,0.1,1.7,0.3,2.2,0.5c0.5,0.2-0.8-0.1-1.6-0.2c5.3,1.3,6,1,6.5,0.7c2.7,0.8,4,1.1,6.1,1.2c0.9,0.3,2.5,0.8-0.9,0.1
						c0.9,0.2,3.8,0.8,6.5,1.3c2.7,0.5,5.1,0.9,5.3,0.7c0.6,0.2,2.6,0.5,3.1,0.5c4.2,0.7,4.6,0.7,8.8,1.3l-1.2-0.2
						c1.7-0.2,3.5,0.4,6.9,0.7l-0.1,0c3.9,0.6,4.7,0.6,5.5,0.7c0.8,0,1.6,0.1,5.5,0.6l-0.4-0.3c0.7-0.5,6.8,0.8,11.3,0.7l-1.6-0.2
						c2.4-0.1,6.8,0.8,9.4,0.5c0.6,0-0.9,0.2-1.6,0.3c1.7,0,2.6-0.2,3.1-0.3c0.7-0.2,0.8-0.3,0.7-0.3c0-0.1-0.1-0.1,0.2-0.3
						c0.2-0.1,0.4-0.2,0.7-0.5c0.2-0.2,0.3-0.4,0.4-0.7c0-0.3,0.1-0.7,0.1-1.1c0-0.3,0.1-0.3,0.1-0.3c0,0,0.1,0.1,0.1,0.1
						c0.1,0,0.2-0.3,0.2-1.9c0.2-1.6-0.3-9.3,0.2-13.7c-0.2,1-0.3,1.9-0.3-0.3c0.1-3.4,0.9-9.1,0.7-12.2c0.1-0.4,0.1-0.6,0.1-0.6
						c0-2.6,0.4-8.4,0.4-10c0.5-1.1,0.8-5.2,1.5-8.8c0.2-0.9,0.3-1.8,0.6-2.5c0.1-0.2,0.1-0.4,0.2-0.5c0.1-0.2,0.1-0.3,0.2-0.4
						c0.1-0.2,0.4-0.4,0.6-0.6c0.9-0.7,1.8-0.7,1.8-0.6c2.3-0.6,5.2-0.6,7.8-1.5l-0.2,0.1c2.6-0.7,4.2-1.5,5.4-2.2
						c1.2-0.7,1.9-1.3,2.6-1.9c1-0.6,0.3-0.1,0.3,0c0.8-0.5,1.4-1.1,2-1.6c0.6-0.5,1.1-1,1.5-1.4c0.9-0.8,1.6-1.6,2.2-2.3
						c0.7-0.7,1.2-1.5,1.8-2.4c0.7-0.9,1.3-1.9,2.1-3.3l0.6-0.4c0.4-0.8,2-3,3.7-6c1.7-3,3.5-6.7,4.8-10.2c0,0.1,0,0.2-0.2,0.8
						c0.7-1.9,1.5-3.9,2.3-5.9l0.6-1.7c0.3-0.8,0.6-1.6,0.9-2.4c0.3-0.8,0.6-1.6,0.8-2.4c0.1-0.4,0.3-0.8,0.4-1.2l0.2-0.6
						c0-0.1,0.1-0.2,0.1-0.3v-0.2c-1.5,0.8-3.2,1.7-4.7,2.5c-0.4,0.2-0.7,0.4-1.1,0.5c-0.3,0.2-0.8,0.4-0.9,0.5
						c-0.4,0.2-0.8,0.4-1.2,0.5c-1.5,0.7-2.8,1.2-3.4,1.7c-1.7,0.6-3.4,1.1-5.1,1.5c6.8-1.5-0.9,0.6,1.9,0.2
						c-2.7,0.7-7.1,0.8-3.7,0.4l0.5,0c0.6-0.3-1.6,0-3.8,0.1c-2.3,0.2-4.7,0.1-4.6-0.1c-3.4-0.1-6.8-0.6-10-1.5
						c-3.2-0.9-6.3-2.1-9-3.9l-0.5-0.3l-0.4-0.3c-0.2-0.1-0.3-0.3-0.5-0.4c-0.1-0.2-0.3-0.3-0.4-0.5c-0.1-0.2-0.1-0.4,0.1-0.6
						c0.3-0.3,0.8-0.2,1.2-0.2l0.3,0l0.4,0.1c0.4,0.1,0.8,0.1,1.2,0.2c3.3,0.8,6.6,1.2,9.9,1.3c-0.5-0.1-1-0.3-1.5-0.4
						c1.5,0.1,3,0.1,4.6,0.1c1.2,0,1.6,0.3-1.7,0.3c1.7,0.3,5.5-0.3,5.6-0.4c3.2-0.2,2.6-0.1,1.4,0.2c-1.2,0.2-2.9,0.4-1.9,0.3
						c0.9-0.1,1.8-0.1,2.7-0.3l-0.6,0c2.1-0.4,2.3-0.5,6.2-1.1c2.5-0.4,1.3,0,2.3-0.2c0,0,0.1,0,0.3,0c0.2-0.1,0.6-0.1,1.2-0.3
						c1.9-0.4,3.7-0.9,5.6-1.5c-0.8,0.2-1.5,0.3-2.3,0.4c2.4-0.8,5.1-1.8,2.5-1.1c0.9-0.2,2.4-0.6,4.2-1.5c0.9-0.4,1.9-0.9,2.8-1.6
						c0.5-0.3,0.9-0.8,1.4-1.3c0.4-0.5,0.8-1.3,0.6-2.2c-0.5-3-2-5.7-3.4-7.6c-0.7-1-1.4-1.8-1.9-2.4c-0.5-0.5-0.6-0.7-0.8-0.9
						l-0.6-0.5c-0.1,0,0-0.1,0-0.1l0.1-0.1l0.3-0.2l0.7-0.3c0.3-0.2,0.6-0.3,0.9-0.5c0.4-0.2,0.7-0.4,1.1-0.5
						c1.5-0.7,3.1-1.4,4.9-2.2c-1,0.4-1.7,0.4,1.7-1.2c-0.4,0.5,0.5,0.2,2-0.4c1.6-0.7,3.8-1.6,5.7-2.4c-0.1-0.7-0.2-1.3-0.4-1.9
						c-0.1-0.3-0.1-0.5-0.1-0.7c0-0.2,0-0.4,0-0.5c0.3,2.7-2.4-10.3-1.9-6.1c-0.6-3,0.2-0.2-0.2-2.6c-1.9-7.2-3.5-15.9-5.6-24.9
						c-0.1-0.1,0.1,1.4-0.5-0.5l-0.6-4.8c-0.4-1.8-0.9-1.5-1.3-4.8c0,0.5,0.1,1.2-0.2,0c-3.6-17.6-8.5-35.6-11.8-53.6
						c0.4,2.4,0,0.8-0.4-1c0.2,1.2-0.2,0-0.3,0.3l-1.4-7.5c-0.6-1.3-1.8-8-2.3-8.7l0.6,2.3c-1.1-3,0.2,4.6-0.4,4.2
						c1.2,3.4,1.5,9.4,3.4,15c0.2,1.3-0.4-1-0.4-0.3c0.5,1.4,1,3.2,1.6,6.4l-0.1-0.4c2.1,9.2,2.8,13.1,5.1,23.5l0.1-0.8
						c0.5,2.2,0.5,2.7,0.7,3.8c0.9,2.5-1.4-6.2-0.5-4c0.2,3,3.6,15.6,3.5,17.7c0.8,3.4,0-1.1,0.8,2.3l0.1,0.9l0.4,0.8
						c0.5,2.2,0.6,3.4,0.5,3.5c-0.1-0.5-0.4-1.5-0.5-2.1c0.5,2.9,1.9,8.1,2.1,9.2l-0.7-3.3c2.3,9.3,4.6,20.6,7,29.5l0-0.7
						c0.7,2.7,1,4.1,1.3,5.3c0.2,1,0.4,1.8,0.7,3.3c-0.3,0.1-0.6,0.2-0.9,0.4c-0.6,0.3-1.2,0.6-2,0.9l0.2-0.1
						c-1.4,0.7-3.2,1.7-5.1,2.5c1.7-0.9-3.4,1.3-1.2,0.1c-3.4,1.7-4.3,2.1-4.8,2.4c-0.3,0.2-0.5,0.3-0.9,0.5
						c-0.5,0.3-1.3,0.7-2.7,1.5l-0.3,0.1l-0.1,0l0,0.1l0.6,0.7c1,0.8,1.5,1.2,2.1,1.8c0.5,0.5,1.2,1.2,2.3,2.8
						c-1.9-2.4,1.1,2.1-1-0.6c1.9,2.8,2.9,5.3,3.3,7.3c0,0.1,0,0.2,0,0.3c0,0.1,0,0.2-0.1,0.3c-0.1,0.1-0.1,0.2-0.2,0.3
						c-0.1,0.1-0.2,0.2-0.2,0.3c-0.1,0.2-0.4,0.4-0.6,0.6c-0.2,0.2-0.4,0.3-0.6,0.5c-0.9,0.6-1.8,1-2.8,1.3c-1.5,1,0.1,0.4,1.7-0.5
						c0.8-0.4,1.6-1,2-1.4c0.4-0.4,0.5-0.6,0.3-0.2c0.5-0.5,0.3,0.1-0.7,0.9c-0.9,0.8-2.5,1.7-3.7,2.2c-1.2,0.5-2.3,0.7-3.8,1.1
						c-1.6,0.3-3.6,0.8-6.7,1.4c0.6-0.1,0.7-0.2,1.3-0.3c-2.4,0.4-4.6,1.1-7.5,1.2c-1.6,0.5-3.8,0.3-4.3,0.7c2-0.1,3.9-0.4,5.9-0.7
						c-3.3,0.5-6.4,1.4-12,1c0.4-0.1,2.1-0.1,3.2-0.2c-1.6-0.1-3.1,0.1-4.8-0.2c0.3-0.2,2-0.1,4.2-0.1c2.2,0,4.7-0.2,6.5-0.5
						c-0.9,0-2.5,0.2-3.8,0.3c-1.2,0.1-2.1,0.1-1.2-0.1c-2.6,0.6-6.3,0-10.6-0.3l0.3-0.2c-0.7-0.1-2-0.2-3.3-0.5
						c0.8,0.1,1.5,0.1,2.3,0.2c-0.9-0.1-1.7-0.3-2.6-0.5l-0.7-0.1l-0.9-0.1c-0.3,0-0.7-0.1-1-0.1c-0.3,0-0.7,0-1,0
						c-0.6,0.1-1.2,0.2-1.7,0.5c-0.4,0.3-0.8,0.8-0.9,1.4c-0.1,0.6,0.1,1.1,0.3,1.6c0.3,0.5,0.7,1.1,1.3,1.5c-1.1-1-1.5-1.9-1.6-2.6
						c-0.1-0.7,0.2-1.2,0.4-1.5c0.2-0.3,0.4-0.4,0.5-0.4c0.1,0,0.1,0,0.1,0c0,0.1-0.2,0.2-0.1,0.3c0.1,0,0.3-0.2,1.2-0.4
						c-0.7,0.2-1.2,0.5-1.5,0.9c-0.3,0.5-0.2,1.1,0,1.5c0.3,0.8,0.9,1.5,1.4,2c1.2,1,1.6,1.3,2.2,1.8c0.6,0.5,1.2,0.9,2.3,1.5
						c1.1,0.6,2.6,1.3,5.1,2c-1.4-0.3-4.8-1.9-2.8-1.2c1.8,0.8,4.2,1.6,5.3,2c6.6,1.3-1-0.4,1.9,0c2.2,0.7,3.3,0.5,6.2,0.6l0,0.2
						c1.9,0.2,3,0.1,3.6,0.1c0.7,0,0.9-0.1,1.1-0.2c0.4-0.2,0.7-0.2,4.1-0.5c-0.9,0.2-1.9,0.4-2.9,0.6c1.2-0.1,2.4-0.3,3.6-0.5
						l-0.7,0.4c1.9-0.4,3.2-0.6,4.4-0.9c1.2-0.3,2.5-0.6,4.3-1.1c-0.9,0.1,0.4-0.5,3.5-1.8c1.1-0.4,0.8-0.2,0.8-0.2c0,0,0,0,0.1,0
						c0,0,0.1,0,0.3-0.1c0.2-0.1,0.5-0.2,1-0.5c-0.3,0.2-0.5,0.4-0.8,0.6c-0.1,0-0.1,0.1-0.2,0.1c-0.2,0.1-0.3,0.1-0.5,0.2
						c-0.4,0.2-0.8,0.3-1.3,0.5c-0.2,0.1-0.9,0.5-1.1,0.7c0.6-0.2,1.2-0.4,1.9-0.7c0.3-0.1,0.7-0.3,1-0.4l0.2-0.1l0.1-0.1
						c0.4-0.2,0.7-0.4,1-0.6c0,0,0,0,0,0l0,0c-0.2,0.1-0.3,0.2-0.4,0.2l0.6-0.4c0.1-0.1,0.1,0,0.1,0.1l0,0.2l-0.1,0.4
						c-0.1,0.3-0.1,0.7-0.3,1.1c-0.2,0.5-0.3,0.5-0.3,0.3c0-0.1,0-0.2,0.1-0.4c0-0.1,0-0.2,0-0.2c-0.2,0.5-0.3,1-0.5,1.5
						c-0.2,0.6-0.4,1.3-0.8,2.3c0-0.6-0.2-0.5,0.7-3.2c-0.7,2-1.4,4-2.2,6c-0.2,0.4-1.5,2.9-1.3,2.1c-1.5,3.2-3.4,8-6,11.9
						c-0.1,0.2-0.3,0.7-0.8,1.5c-2.5,3.6-5,6.6-8.7,10c-0.4,0.3-0.8,0.5-1.2,0.8l-1.3,0.7c-0.8,0.6-1,0.7-0.9,0.7
						c0.1,0,0.5-0.1,0.8-0.3c0.3-0.1,0.5-0.2,0.3,0c-0.2,0.2-0.8,0.6-2.2,1.5c-2.1,1.1-2.6,1-2.6,1c-0.1-0.1,0.2-0.3-0.6-0.1
						c-1.1,0.4-2.5,0.9-4.4,1.3c-0.9,0.2-1.9,0.3-3.1,0.5c-1.1,0.2-2.4,0.5-3.6,1.3c0.7-0.6,1.5-0.9,2.2-1.1
						C155.7,304.6,156.4,304.5,157.1,304.4z M147.4,353.3c0-1-0.1-3,0-3.7C147.7,350.8,147.5,351.6,147.4,353.3z M78.3,352.7
						c0.7,0.1,1.8,0.4,3.1,0.8C80.5,353.3,79.4,353,78.3,352.7z M62.2,158.6c0,0,0,0.1,0,0.1C61.7,160.9,61.9,160.1,62.2,158.6z
						 M63.1,154.1c0.1-0.5,0-0.4-0.1-0.2c0,0.3-0.2,1.3-0.4,2.5C62.8,156.1,62.9,155.5,63.1,154.1z M179.2,260.2l-0.9,0.1
						C180.3,259.9,179.7,260,179.2,260.2z"/>
					<path class="st0" d="M87,354.3c0.3,0.1,0.3,0.2,0.4,0.2C87.7,354.6,87.8,354.5,87,354.3z"/>
					<path class="st0" d="M181.1,287.4l0.1-0.1c0-0.1,0-0.1,0-0.2L181.1,287.4z"/>
					<path class="st0" d="M56.4,225c-0.1,0.9-0.2,1.5-0.3,1.8C56.2,226.8,56.3,226.4,56.4,225z"/>
					<path class="st0" d="M68.2,130.2l-0.7,2.9c0.4-1.4,0.6-1.9,0.8-2.6C68.2,130.6,67.9,131.1,68.2,130.2z"/>
					<path class="st0" d="M78.8,106.9c0.2-0.4,0.4-0.8,0.6-1.2l-0.2,0C78.4,107.3,77.9,108.5,78.8,106.9z"/>
					<path class="st0" d="M69.7,127.8c0.3-0.2,0.7-2,1.3-3.9c0,0.1-0.1,0.2-0.1,0.3C70.8,123.5,70.2,125.7,69.7,127.8z"/>
					<path class="st0" d="M71.2,123.4c0.2-0.6,0.4-1.2,0.6-1.8C71.7,121.3,71.5,122.3,71.2,123.4z"/>
					<path class="st0" d="M64.1,148.4c0.2-0.9-0.1-0.7,0.1-1.2C64.1,146,63.2,153.6,64.1,148.4z"/>
					<polygon class="st0" points="70.8,126.4 70.4,127 70.2,128.2 					"/>
					<path class="st0" d="M66.5,142.1l0.8-3.2c-0.1,0,0-0.4,0.1-0.9C67,140,66.4,142.1,66.5,142.1z"/>
					<path class="st0" d="M67.4,138c0.2-1,0.5-2,0.6-2.6C67.9,136,67.6,137.2,67.4,138z"/>
					<path class="st0" d="M69.6,130.7l-0.3,0.9c-0.2,0.7-0.4,1.5-0.6,2.2C69,132.8,69.3,131.8,69.6,130.7z"/>
					<path class="st0" d="M60.3,176.9l-0.4,3.6c0,0.4,0.2-0.6,0.4-1.9C60.3,177.7,60.5,176.4,60.3,176.9z"/>
					<path class="st0" d="M62.6,166.3c-0.2,1-0.3,1-0.4,1.5l0.3,0.2L62.6,166.3z"/>
					<path class="st0" d="M61.1,176.6c0,0.4-0.5,5.2,0.1,0.7C61.2,177,61.6,173.4,61.1,176.6z"/>
					<polygon class="st0" points="55.1,230.4 55.2,229.5 54.7,229.6 					"/>
					<path class="st0" d="M53,278.1c0.4-4.2-0.2-1,0.2-4.9c-0.1-1-0.3,3.1-0.4,2.1C52.8,277.9,52.6,279.3,53,278.1z"/>
					<path class="st0" d="M52.8,275.3c0-0.4,0-0.8,0-1.3C52.8,274.8,52.8,275.1,52.8,275.3z"/>
					<polygon class="st0" points="180.2,118.4 179.7,115.7 179.9,117.5 					"/>
					<path class="st0" d="M178.7,113.4l0.2-0.7l-0.7-1.5C178.3,111.7,178.6,112.9,178.7,113.4z"/>
					<path class="st0" d="M146.6,359.1C146.6,359.1,146.6,359.1,146.6,359.1c0.1,0.1,0.1,0.1,0.2,0.1c0,0,0.1-0.1,0-0.1l0-0.1
						c0-0.1,0-0.1,0-0.2l0,0.1l0,0l0,0c0,0,0,0,0,0.1C146.7,359.1,146.6,359.1,146.6,359.1z"/>
					<polygon class="st0" points="148.5,323.7 148.4,324.4 148.8,323.2 					"/>
					<path class="st0" d="M165.8,301.7c-1.1,0.5-2.3,1-3.5,1.2C164.8,302.3,166.2,301.9,165.8,301.7z"/>
				</g>
			</g>
		</g>
	</g>
</g>
<g>
	<path class="st2" d="M170.5,41.7c0,0-14.2,19.9-36.4,28.8C99.6,84.2,60,92.3,38.8,88.3c-34.8-6.5,4.7,134.1,0,173.1
		s54.9-10.2,54.9-22.4s-13.8-15-13.8-31.2s17.8-17.3,21.3-13.8c3.5,3.5,7.5-49.5,16.5-58.5s39.6,4.9,63.9-30S170.5,41.7,170.5,41.7z
		"/>
	<g>
		<g>
			<g>
				<path class="st2" d="M171,42.4c-0.7-0.7-0.5-0.4-0.6-0.5C171.6,43,171,42.4,171,42.4z"/>
				<path class="st2" d="M181.6,55l-0.2-0.2c0.4,0.7,0.9,1.3,1.4,2C182.4,56.2,182,55.6,181.6,55z"/>
				<path class="st2" d="M188,68.9c-0.1-1.5-1.7-5.3-2.9-7.8l-0.2-0.4l-0.7-1C185.8,62.6,187.5,66.6,188,68.9z"/>
				<path class="st2" d="M188.8,77c0.1-0.5,0.2,1.7-0.1-1.9c0,0.2,0,0.2,0,0.3C188.8,75.8,188.8,76.3,188.8,77z"/>
				<path class="st2" d="M188.7,75.5c-0.1-0.8-0.1-0.5-0.1-0.2C188.7,75.6,188.7,76,188.7,75.5z"/>
				<path class="st2" d="M188.9,82.8l0-2.1c-0.1,0.4-0.2,2.3-0.2,1.6c0,0.5,0,0.9,0,1.1c0,0.2,0,0.3,0,0.4
					C188.7,83.8,188.8,83.4,188.9,82.8z"/>
				<path class="st2" d="M188.8,84.8l0.1-1.1C188.9,83.9,188.8,84.2,188.8,84.8z"/>
				<path class="st2" d="M189,81.4c0,0.8,0,1.5-0.1,2.3c0.1-0.3,0.2-0.3,0-1.1C189.1,82.8,189,82.4,189,81.4z"/>
				<path class="st2" d="M189.1,80.1c0.1-1.2,0.1-2.7,0.2-0.6c0-2-0.2-2.9-0.2-2.7c0,0.1,0,0.4,0,1
					C189.1,78.3,189.1,79.1,189.1,80.1z"/>
				<path class="st2" d="M188.5,69.6l-0.4-1.6c-0.1-0.4-0.3-0.9-0.5-1.3C187.9,67.4,188.4,69.7,188.5,69.6z"/>
				<path class="st2" d="M185.5,95.3c0,0.2,0.4-0.6,0.6-0.7l0.5-1.5C186.2,93.8,185.6,95.2,185.5,95.3z"/>
				<path class="st2" d="M186.1,94.6c-0.2,0.7-0.5,1.4-0.8,2.2C186.2,94.9,186.2,94.5,186.1,94.6z"/>
				<path class="st2" d="M189.1,85.2c0-0.6,0.1-1.3,0.1-1.9l0-1.9l0,2.3l-0.2,2.3L189.1,85.2z"/>
				<polygon class="st2" points="181.2,102.9 181.8,101.7 180.7,103.8 				"/>
				<path class="st2" d="M177.7,107.7c0.5-0.8-1.1,0.9-0.5,0c-1,1.2-1.7,2.4-2.5,3.3C175.6,110.1,176.5,109,177.7,107.7z"/>
				<path class="st2" d="M173.5,112.7c0.4-0.5,0.8-1,1.3-1.6C174.3,111.6,173.9,112.1,173.5,112.7z"/>
				<path class="st2" d="M183.4,100.2c-0.1,0.1-0.4,0.4-1.1,1.5c0.2-0.2,0.4-0.4,0.7-0.7C183,100.8,183.2,100.5,183.4,100.2z"/>
				<path class="st2" d="M182.9,101L182.9,101c-0.5,0.9-0.9,1.4-1.1,1.7C182,102.5,182.4,102,182.9,101z"/>
				<path class="st2" d="M183.5,100c0,0.1-0.1,0.1-0.1,0.2C183.4,100.2,183.5,100.1,183.5,100z"/>
				<path class="st2" d="M187.6,91.1c-0.1,0.3-0.2,0.8-0.3,1.2c-0.1,0.4-0.2,0.8-0.3,1c-0.1,0.5-0.1,0.6,0.5-0.7
					C187.8,91.7,187.2,93.2,187.6,91.1z"/>
				<path class="st2" d="M184.3,99.2c0.4-0.7,0.8-1.5,1.2-2.2c-0.1,0-0.3,0.4-0.1-0.2C185,97.5,184.7,98.4,184.3,99.2z"/>
				<polygon class="st2" points="183.7,100.3 184.3,99.2 183.8,100 				"/>
				<path class="st2" d="M176.5,109.7c-0.6,0.9-1.4,1.7-2.3,2.7c1-1,2-2.1,2.9-3.2C177.2,109.1,177.5,108.5,176.5,109.7z"/>
				<path class="st2" d="M179.8,105.6c0,0.1-0.1,0.1-0.1,0.2C179.8,105.7,179.9,105.6,179.8,105.6z"/>
				<path class="st2" d="M164.3,120.7c0.1,0,0.1-0.1,0.2-0.1c0,0,0,0,0-0.1L164.3,120.7z"/>
				<path class="st2" d="M177.3,109.1c0.7-0.8,1.1-1.3,1.4-1.9c-0.4,0.7-1,1.3-1.6,2C177.1,109.4,177.1,109.4,177.3,109.1z"/>
				<path class="st2" d="M171,115.3c0.4-0.3,0.9-0.7,1.4-1.2C171.9,114.4,171.1,115.1,171,115.3z"/>
				<path class="st2" d="M179.4,106c0,0,0.1-0.1,0.1-0.1C179.2,106.2,179.3,106.1,179.4,106z"/>
				<path class="st2" d="M179.4,106c-0.3,0.5-0.5,0.8-0.7,1.2c0.4-0.5,0.7-1,1-1.5C179.6,105.9,179.5,106,179.4,106z"/>
				<path class="st2" d="M161.8,124.3c0.1-0.3,2.4-1.9,4.6-3.1c1.9-1.5,0.1-1.3-1.9-0.5c0,0.1,0.1,0.2-1.9,1.6
					c0.4-0.2,1.6-0.8,2.5-1.3c0.9-0.5,1.4-0.8,0.7-0.1c-1.3,1-1.9,1.3-2.3,1.5c-0.4,0.2-0.7,0.3-1.4,0.6c0.7-0.2-0.2,0.4-1.1,1.1
					c-0.9,0.7-2,1.3-1.5,1.4c0.9-0.4,1.7-1,2.5-1.5C162,124,161.1,124.6,161.8,124.3z"/>
				<path class="st2" d="M168.3,118c0.3-0.2,0.5-0.4,0.8-0.6c-0.9,0.7-1.6,1.1-2.9,1.8c-1.3,1-1.5,1.3-1.6,1.4l2-1.4l2-1.5
					L168.3,118z"/>
				<path class="st2" d="M172.4,114.3c-0.2,0.4-0.7,1-1,1.4c-0.3,0.4-0.4,0.6,0.2,0.2c2.1-2.1,1.4-1.6,2.5-2.9
					C170.8,116.4,175,112,172.4,114.3c0.7-0.7,1.3-1.3,1.8-1.9c-0.6,0.6-1.2,1.2-1.8,1.7c0,0,0.1,0,0.1-0.1l0,0l0,0
					c0.2-0.1,0.2-0.2,0.1,0c0,0-0.1,0.1-0.1,0.1C172.5,114.1,172.4,114.2,172.4,114.3c-1,0.9-0.2,0.1,0.1-0.2c0,0,0-0.1,0-0.1l0,0
					c-1.1,1.2-2.3,2.2-3.4,3.3c0.4-0.3,0.8-0.7,1.4-1.2c0.3-0.2,0.6-0.5,0.9-0.8C171.6,115,172,114.7,172.4,114.3z"/>
				<path class="st2" d="M187.1,95.2c-0.1,0.1-0.1,0.1-0.1,0.1C186.9,95.7,186.9,95.8,187.1,95.2z"/>
				<path class="st2" d="M186.2,97c0.1-0.3,0.2-0.6,0.6-1.7c0.4-0.9,0.1,0,0.2,0c0.2-0.7,0.7-2.3-0.1-0.3l-0.1,0.3
					c-0.8,1.8-2.2,3.9-2.1,3.6C185.1,98.5,185.4,98.1,186.2,97z"/>
				<path class="st2" d="M180,106.4l-1.2,1.7l-1.2,1.6l1.5-1.5l-0.2,0C180.3,106.4,179.9,106.7,180,106.4z"/>
				<path class="st2" d="M163.9,120.9c0.1-0.2,0.2-0.3,0.3-0.5c-0.6,0.5-1.1,1-1.7,1.5L163.9,120.9z"/>
				<path class="st2" d="M159.5,123.4l0-0.3c-0.4,0.3-0.8,0.5-1.1,0.7L159.5,123.4z"/>
				<path class="st2" d="M35.4,217.4l-0.2-1.2C35.3,216.7,35.4,217.1,35.4,217.4z"/>
				<path class="st2" d="M36.5,225.9l0.1,0.2C36.5,225.7,36.4,225.6,36.5,225.9z"/>
				<path class="st2" d="M79.6,200c-1.1,1.7-1.9,3.8-1.5,3.6c0.1-0.2,0.3-0.4,0.4-0.5C78.8,201.7,79.1,200.7,79.6,200z"/>
				<path class="st2" d="M61.5,271.3c0.2-0.1,0.3-0.1,0.5-0.2c0.3-0.3,0.6-0.5,0.9-0.8C62.5,270.6,62,271,61.5,271.3z"/>
				<path class="st2" d="M60.9,272.7c-0.7,0.3-1.4,0.6-2.1,0.9C59.2,273.4,59.9,273.1,60.9,272.7z"/>
				<path class="st2" d="M28.4,170.7l-0.3-1.4C28.4,171.5,28.3,170.6,28.4,170.7z"/>
				<path class="st2" d="M111.5,143.5c-0.6,1.4-1,2.6-1.4,3.6C110.9,145.3,111.6,144,111.5,143.5z"/>
				<path class="st2" d="M36.9,220.6c-0.1-0.7-0.2-1-0.2-1C36.8,220.3,36.9,220.8,36.9,220.6z"/>
				<path class="st2" d="M109,151.3c0.1-0.3,0.2-0.5,0.3-0.8c0.2-1.1,0.5-2.2,0.9-3.5C109.6,148.3,109.2,149.8,109,151.3z"/>
				<path class="st2" d="M117.4,75.2c0.1,0,0.3-0.1,0.4-0.1C117.8,75.1,117.6,75.1,117.4,75.2z"/>
				<path class="st2" d="M161.2,52.8c-0.3,0.4-0.9,0.9-1.5,1.4C160,54,160.4,53.6,161.2,52.8z"/>
				<path class="st2" d="M139.7,128.8C140.8,128.7,139.9,128.8,139.7,128.8L139.7,128.8z"/>
				<path class="st2" d="M145.2,129.2c-0.2,0.1-0.4,0.2-0.4,0.2C144.8,129.3,145,129.3,145.2,129.2z"/>
				<path class="st2" d="M108.7,162.7C108.7,162.7,108.7,162.8,108.7,162.7C108.8,162.5,108.8,162.5,108.7,162.7z"/>
				<path class="st2" d="M141.3,128.7c-0.4,0-0.9,0-1.4,0.1C140.2,128.8,140.6,128.8,141.3,128.7z"/>
				<path class="st2" d="M141.1,128.6c0.4,0,0.7-0.1,1-0.1C142.2,128.4,142.1,128.4,141.1,128.6z"/>
				<path class="st2" d="M138.2,129c0.6-0.1,1.2-0.1,1.8-0.2c-0.2,0-0.3,0-0.3,0C139.4,128.9,138.9,128.9,138.2,129z"/>
				<path class="st2" d="M28.4,91.7c0.1-0.1,0.1-0.1,0.2-0.2C29.2,90.5,28.9,90.9,28.4,91.7z"/>
				<path class="st2" d="M89.8,226.4C89.7,226.3,89.7,226.3,89.8,226.4C89.7,226.3,89.8,226.4,89.8,226.4L89.8,226.4z"/>
				<path class="st2" d="M92.4,229.6c-0.6-0.7-1.1-1.2-1.5-1.7c-0.4-0.5-0.7-1-1.1-1.5c0,0.5,0.1,1.1,0.1,1.6
					C90.8,228.5,91.6,229,92.4,229.6z"/>
				<path class="st2" d="M32.5,196.9l0.3,2.8c-0.6-3.3-1-5.8-0.7-3.2c0.4,0.3,1.6,10.8,2,11.2l0.2,1.9c-0.1-0.5-0.1-0.6-0.2-1.1
					c0.4,3.6,0.6,2.6,1.2,7.3c0.2,1.6,0.3,2.7,0.1,1.6l0.5,3.6c0.1,1,0,0.8-0.1-0.2l0.7,5.5l0,0c0.1,0.8,0.4,2.5,0.6,3.4
					c0.1,1.4-0.1-0.7-0.1-0.3l0.4,3c0,1.2-0.3-1.3-0.5-3.4c0,2.9,0.4,2.5,0.8,8.7l-0.3-2.9c0,1.9,0.3,4.1,0.3,7.4
					c0-0.8-0.2-6.5,0.2-3.2c0.1,0.9,0.1,2.2,0.3,3.9c-0.1,0,0,1.8,0.1,3.9l-0.2-0.1c0.2,2.3,0.2,2.2,0.4,3.5c0,2.6-0.1,3.2-0.3,3.8
					c-0.1,4.2,0.3-2.9,0.2,2.1c-0.1,1.7-0.2,3.2-0.3,4.8c-0.1,1.6-0.3,3.3-0.2,5.4c0,2.5-0.2-0.4-0.2,0.5c0.1,0.8,0.2,1.5,0.4,2.2
					c0.1,0.6,0,0.4-0.1,0.3c0.2,0.9,0.3,1,0.4,1.1c0,0.1,0.1,0.2,0.2,0.5c0.1,0.3,0.2,0.7,0.6,1.4c0.3,0.3,0.8,1.8,2.4,3.2
					c0.8,0.6,1.8,1.2,2.8,1.5c1.1,0.3,2.1,0.3,3.1,0.2c0.9,0-0.4,0.2-0.2,0.3c2.6-0.2,3.6-0.6,4.6-0.9c0.9-0.3,1.7-0.6,3.6-1.5
					c1.1-0.4,2.2-0.8,3.3-1.2c-2.4,0.9,0.5-0.7,2.8-2.3c-0.8,0.3-1.6,0.6-2,0.8c1.3-0.7,2.6-1.5,3.8-2.4c0.5-0.2,0.2,0.1-0.4,0.6
					c0.3-0.2,0.5-0.4,0.7-0.5c1.4-0.7,0.8-0.1-0.1,0.6c-0.5,0.2-1,0.4-1.5,0.6c-0.9,0.7-1.7,1.4-1.4,1.5c0.2-0.2,0.7-0.5,1.3-0.8
					c-0.2,0.2-0.4,0.3-0.2,0.3c0.2,0,0.5-0.3,1.1-0.8l1.1-0.2l0.1-0.3c1.7-0.9,3.5-2,5.1-3c3.3-2.8,5.9-5.4,10.7-10
					c-1,1.3,0.1,0.6,0.3,1c-1.6,0.9-3.8,3.6-6.6,5.6c1.5-1.1,1.3-0.7,0.9-0.4c1.6-1.4,3.1-2.8,4.6-4.2c0.1,0.3,1.2-0.7,2.4-1.7
					c-0.7,0.2,0.1-0.7,1.3-1.8c1.1-1.2,2.6-2.7,3.4-3.6c0.3,0,0,0.6-2.2,2.8c2.8-2.1,2.6-3.7,5-5.9c-0.5,0.6-0.8,0.9-0.9,1.2
					c0.5-0.7,1.5-1.9,2.2-2.8c0.7-0.9,1.3-1.6,1.1-1.1l-0.5,0.6c0.8-1,1.7-2.3,2.5-3.9c0.4-0.8,0.8-1.6,1.1-2.5
					c0.1-0.5,0.2-0.9,0.3-1.5c0.1-0.6,0-0.9-0.1-1.4c0-0.4-0.1-0.9-0.1-1.3c-0.1-0.4-0.2-0.8-0.3-1.2c-0.1-0.4-0.2-0.7-0.3-1.1
					c-0.1-0.3-0.3-0.6-0.4-0.9c-0.5-1.1-1-1.7-1.2-1.9c0-0.1,0.9,0.3,1.2,0.5c-1.9-2.7-4.4-4.5-6.7-6.3c0.9,0.3,0-2.8,2.8,0.2
					c-0.7-1-1.6-2.2-3.2-4c0.4,0.7,0.6,2-0.1,1.2c-0.7-1.4-0.9-1.8-1.2-2.3c-0.1-0.3-0.3-0.6-0.5-1c-0.2-0.4-0.5-1-0.8-1.8
					c0.2,0.5,0,0.6-0.4,0.4c-0.2-0.1-0.4-0.3-0.7-0.6c-0.3-0.3-0.5-0.7-0.6-1.1c0.2,0.2,0.7-0.5,1,0.1c-0.4-0.6-0.8-1.3-1.2-1.9
					c-0.3-0.7-0.7-1.4-1-2.1c0.4,1.1,0.7,0,0.8-1c0,0.2-0.2-0.7-0.3-1.9c0-1.2-0.1-2.6-0.1-3.1c-0.1,0.6-0.1,1.3-0.2,1.9
					c-0.1-1.3-0.1-2.2-0.1-3c0-0.8-0.1-1.4-0.1-2.1c0-0.6,0-1.3,0.2-2.1c0.2-0.8,0.5-1.7,1.2-2.8c-0.1,0.3-0.1,0.8,0.2,0.9
					c0.2,0.1,0.6-0.1,1.4-1c0.2-0.6,0.6-1.9,1.7-3.4c1.1-1.5,3.1-3,5.5-3.7c0.3,0,0.7,0,1,0.1c1.2-0.3,2.5-0.5,3.8-0.5
					c-1.2,0.3-3.5,0.9-5.5,2c-1,0.6-2,1.2-2.8,1.9c-0.8,0.7-1.5,1.4-2,2c0.8-0.5,0.9-0.5,1.1-0.6c0.2-0.1,0.5-0.3,1.7-0.9
					c0.5-0.1,0.2,0.1-0.3,0.4c-0.2,0.2-0.5,0.3-0.8,0.5c-0.2,0.2-0.5,0.4-0.6,0.5c1.7-1.1,3.6-1.8,5.6-2.1c-0.2-0.2,1-0.6,2.2-0.8
					c1.2-0.2,2.4-0.1,2.3-0.4c-2.3-0.1-4.6,0.4-6.7,1.3c-0.2-0.2,0.6-0.9,2.2-1.5c1.6-0.6,4-1,6.3-0.3c0.3,0.1,0.4,0.3,0.3,0.4
					c-0.1,0.1-0.2,0.1-0.4,0.2c-0.4,0.1-0.9,0.3-0.9,0.4c0.1,0,0.5,0,0.9,0.1c0.5,0.1,1.5,0.7,2.1,0.9c0.4,0.1,0.6,0.2,0.9,0.2
					c0.3,0.1,0.7-0.1,0.9-0.3c0.4-0.4,0.7-0.7,0.8-0.8c-0.2,0.4-0.5,0.8-0.8,1.1c-0.2,0.1-0.4,0.3-0.6,0.3c-0.2,0-0.3,0-0.5,0
					c0.2,0.1,0.3,0.1,0.5,0.1c0.2,0,0.4-0.1,0.6-0.2c0.4-0.2,0.6-0.5,0.9-0.9c0.5-0.7,0.7-1.6,1-2.4c0.1-0.2,0.1-0.4,0.2-0.7
					c0-0.2,0.1-0.4,0.1-0.6c0.1-0.3,0.1-0.6,0.2-1c0.2-0.7,0.4-1.4,0.7-2.2c0.3-1.1,1.4-3.3,1.1-3.5c-1,1.7-2.9,1.7-3.1,0.4
					c0.1-0.4,1.7-5.8,2.2-7c0.8-1.8,0.6,3,1.3,1.5c-0.1-0.1-0.1-1.2-0.1-1.6c0.3-1.2,0.4,0.6,0.8-2c-0.5-0.5,1-5.2-0.2-1.3
					c0.3-2.5,0.6-2.7,1.1-5.6c-0.5,0.9-0.7-2.9-0.4-5.4c0.1,0.2,0.4-0.4,0.5-0.6c1.1-5.1,1.9-7.8,3.1-12.6c0.2-0.4,1-2.6,1-1.6
					c0.1-0.7,0.1-1.4,0.5-2.8c1.3-2.6-0.9,3.2,0.3,1.3c-0.3-0.3,0.7-3.8,1.4-5.8c-0.3,0.2-0.8,1.3-1.2,2.7c-0.4,1.4-0.7,2.9-0.9,4
					c-0.3-0.1-0.4-1.1-0.2-2.7c0.2-1.6,0.7-3.8,1.7-6.3c0.9-1.9,1.3-2.2,1.4-2.2c0.1,0,0,0.5,0.1,0.1c1.1-1.7,2.3-2.7,3.2-3.3
					c0.9-0.7,1.7-1.1,2.4-1.4c1.4-0.7,2.8-1.2,6-1.4c2.6,0.1,0.2,0.8,0.8,1c-3.3,0.5-5.1,0.5-7.3,1.3c0.9-0.3,1.8-0.5,2.7-0.6
					c-0.5,0.2-1.3,0.4-2.1,0.7c-0.8,0.3-1.6,0.7-2.1,0.9c0.5-0.2,1.5-0.6,2.8-1c1.3-0.4,3-0.7,4.9-0.9c3.7-0.4,7.8-0.7,10.8-0.8
					c1-0.2,2.8-0.6,1.9-0.6l-1.8,0.3c-1.7-0.1,3.4-0.8,1.1-0.7c2.4-0.5,5.1-1.2,8.5-1.8c0.2,0.1,0.5,0.2,0.7,0.3
					c-0.1-0.1-2.3,0.3-3.2,0.6c1.4-0.4,5.4-0.6,6.7-1.6c-0.8,0.1-1.6,0.3-2.4,0.4c2.3-0.8,5.1-2.2,7.9-3.3c-1.4,0.2-0.6,0.3-2.8,0.7
					c1,0-0.8,0.6-2.5,1.2c-1.7,0.5-3.3,0.9-1.8,0.9c-2.3,0-3.8,0.7-6.7,0.7c0.1,0.1,1.1,0.1-1.5,0.4c-0.1,0.1-0.4,0.2-0.5,0.2
					c-0.1,0-0.1,0-0.2,0c0.1,0,0.1,0,0.1,0c-0.1,0-0.1,0,0.1,0c0.6,0,1.1,0,1.3,0c-1.2,0.6-5.3,1-6.7,1.3c-1.5,0.1,0.6-0.2-0.2-0.3
					l-2.1,0.4c-0.2-0.3-4.2-0.2-0.5-0.7l-3.3,0.3c-2,0-4.7,0.2-6.5,0.7c-0.8,0.1-1.9,0.5-2.5,0.8c-0.6,0.3-0.9,0.4-0.2,0.1
					c-1.8,0.7-3.7,1.8-5,3.5l-0.1,0c-1.9,2.4-2.8,5-3.8,7.6c-0.9,2.7-1.7,5.4-2.7,8.2c-0.4,1.7-0.7,3.5-1.4,6.3l-0.4,0.5
					c-0.4,2.2-1.7,6.5-1.5,7.5c-1.3,2.2-2.1,10.5-3,14.3l0.4,0.2c-0.5,2.6-0.8,5.1-1.4,8.4l0.4-0.1c-0.1,0.7-0.2,1.5-0.5,2.3
					c-0.1,0.2-0.1,0.4-0.2,0.6c0,0.1-0.1,0.2-0.1,0.3c-0.1,0.2-0.2,0.5-0.3,0.7c-0.1,0.2-0.2,0.5-0.5,0.5c-0.1,0-0.2-0.2-0.3-0.2
					c-0.1-0.1-0.2-0.2-0.3-0.2c-0.1-0.1-0.2-0.1-0.3-0.2c0,0-0.2-0.1-0.4-0.1L99,191c-0.6-0.2-1.3-0.3-1.9-0.3
					c0.3-0.1,1.7,0.1,2.6,0.5c-1.5-0.7-3.1-0.9-4.6-0.8c-1.6,0-3.1,0.3-4.6,0.8c-2.9,1-5.5,2.6-7.6,4.4c-0.9,1.1-1.5,1.8-2.1,2.6
					c0.1-0.1,0.1-0.2,0.2-0.3c-0.1,0.1-0.2,0.3-0.3,0.5c-0.3,0.5-0.7,1-1,1.6c0.3-0.5,0.6-1,0.9-1.4c-0.6,0.9-1.2,2.4-1.5,3.9
					l-0.5,0.6c0,0.1,0,0.2-0.1,0.4c-0.4,1.5,0,1.2,0.4,0.5c-0.1,0.8-0.1,1.5-0.1,2c-0.2,0.3-0.2,0.7-0.3,1.1c0,0.5,0,1,0,1.5
					c0.1,1,0.1,2.1,0,2.9c0.2,0.5,0.5,2.3,1.2,4c0.7,1.7,1.6,3.3,2,3.5c0,0.1,0.1,0.5-0.3-0.2c0.7,1.5,1.5,2.9,2.5,3.9l0,0.8
					c0.8,0.8,1.7,1.6,2.6,2.4c1.1,1.8,1.5,2.5,0,1.1c1.8,1.7,2.4,2.5,2.9,3.2c0.5,0.7,1.1,1.3,2.2,3l-0.3-0.1
					c0.2,0.3,0.3,0.7,0.5,1.1c0.2,0.4,0.4,0.8,0.5,1.2c0.2,0.8,0.5,1.6,0.4,2c0,0.4,0,0.9,0,1.6c0,0.6-0.2,1.2-0.5,2
					c-0.6,1.6-1.8,3.4-3.2,5.3c-2.8,3.8-6.7,7.7-10,10.4c1.7-0.6-3.1,2.5-3.1,3.1c-0.5,0.2-1.5,0.9-0.5-0.1c-3.2,3-5.2,3.9-7.4,6.1
					c-0.5,0.2,0.6-0.7,0.2-0.5c-0.3,0.2-1,0.9-1.5,1.1c-0.4,0.2,0.5-0.5,1-0.9c-3.6,2.6-3.8,3.1-3.8,3.7c-2,1-3,1.6-4.3,2.6
					c-0.8,0.3-2,0.7,0.4-0.6c-0.7,0.4-2.8,1.4-4.8,2.3c-2,0.9-3.9,1.4-4,1.6c-0.5,0.1-2.1,0.5-2.5,0.5c-1.7,0.2-2.6,0.1-3.5,0
					c-0.2,0-0.4-0.1-0.7-0.1c-0.2-0.1-0.5-0.1-0.7-0.2c-0.2-0.1-0.5-0.2-0.8-0.3c-0.3-0.2-0.6-0.3-0.9-0.6c0.2,0.2,0.5,0.3,0.7,0.5
					c-1.3-0.4-2.4-1.5-3.3-4l0.1,0.1c-0.4-1.5-0.5-2.4-0.6-3.1c0-0.6-0.1-1-0.1-1.3c0-0.7-0.2-1.3,0.2-4.4l-0.2,0.3
					c-0.2-0.3,0.1-1.7,0.3-3.5c0.2-1.8,0.3-4,0.2-5.8l-0.1,1.3c-0.1-2,0.3-5.6,0.2-7.7c0-0.4,0.1,0.7,0.1,1.3
					c-0.2-5.3-0.2-0.7-0.5-4.6c0-0.7,0.3,0.9,0.1-1.7c0-1.3-1-7.6-1.3-11.2c0,0.8,0.1,1.6-0.2-0.2c-0.3-2.8-0.7-7.6-1.2-10
					c0-0.4,0-0.5,0-0.5c-0.3-2.1-1-6.9-1.3-8.2c0.1-2-2.1-13.2-1.7-13.2l-1-6.5l0.1,0.2c-0.6-4.2-0.9-5.6-1.2-7.1
					c-0.1-1,0-0.3,0.1-0.2c-0.8-6.1-0.9-6.7-1.8-11.8l0.1-0.6c-0.3-1.4-0.9-8.8-1.8-14.8c0,0.1,0.1,0.2,0.2,0.6
					c-0.5-3.4-0.8-7.4-1.1-10.9c-0.3-3.5-0.5-6.5-1-7.7l-0.6-4.4c0.4,5.8-0.4-0.8-0.4,1.6c-0.2-2.3-0.2-5.9,0.1-3.1l0,0.4
					c0.5,1-0.3-7.2,0.1-7.1c-0.2-5.7-0.2-11.3,0.2-16.8c0.2-2.7,0.6-5.4,1.1-8c0.5-2.6,1.3-5.1,2.4-7.3c-0.3,0.3-0.6,0.5-0.9,0.8
					c0.2-0.6,0.5-1.1,0.8-1.6c0.3-0.5,0.6-1,0.9-1.5c0.3-0.3,0.6-0.5,0.6-0.4c0,0.2-0.3,0.5-0.9,1.6c0.2-0.2,0.4-0.6,0.7-0.9
					c0.3-0.3,0.5-0.8,0.7-1.1c0.3-0.3,0.5-0.6,0.6-0.9c0.2-0.2,0.3-0.4,0.3-0.4c0.5-0.3,0.8-0.5,1.1-0.6c0.2-0.1,0.4-0.1,0.4-0.1
					c0.1,0-0.2,0.2-0.5,0.5c-0.7,0.5-1.5,1.3-1,0.9l0.7-0.5c0.2-0.2,0.5-0.3,0.8-0.4l-0.4,0.1c0.6-0.5,1-0.6,1.5-0.9
					c0.5-0.2,1.3-0.4,2.7-0.3c1.8,0.3,0.8,0.4,1.6,0.5c0,0,0.3,0.1,1.2,0.2l2.4,0.4c0.8,0.1,1.6,0.1,2.4,0.2L43.1,90
					c2.1,0,4.5,0.3,2.3-0.3c0.8,0.2,2.3,0.5,4.1,0.5c0.9,0,1.9,0.1,3,0.1c1,0,2.1-0.1,3.2-0.1c2.1,0,4.2-0.3,5.9-0.4
					c1.7-0.1,2.9-0.3,3.4-0.3c1.4-0.3,2.9-0.5,4.4-0.8c1.5-0.3,3.1-0.5,4.9-0.7c-0.9,0-1.5-0.3,1.6-0.7c-0.5,0.5,0.9,0.4,2.8,0.1
					c0.9-0.1,2-0.3,2.9-0.4c1-0.1,1.8-0.2,2.5-0.2c-1.1,0,1-0.4,3-0.9c2-0.5,3.8-1,2-0.8c2.5-0.5,0.2,0.3,2.2,0
					c3-0.8,6.2-1.7,9.7-2.5c3.4-0.9,7.1-1.8,10.7-3.1c0.1-0.1-1.2,0.1,0.3-0.5c1.3-0.3,2.6-0.5,3.9-0.8c1.4-0.5,1.1-0.9,3.8-1.5
					c-0.4,0.1-1,0.1,0-0.2c1.8-0.5,3.5-1.2,5.3-1.8c1.8-0.6,3.5-1.3,5.3-2c3.5-1.4,7.1-2.8,10.4-4.7c6.8-3.6,12.9-8.2,18.5-13.2
					c-1.5,1.4-0.5,0.4,0.6-0.7c-0.7,0.7-0.1-0.1-0.2,0c1.6-1.4,3.1-2.9,4.5-4.4c0.4-0.5,1.5-1.7,2.6-2.9c1.1-1.2,2-2.5,2.2-2.7
					c-0.4,0.5-0.8,1-1.2,1.6c0.8-1,0.2-0.4-0.6,0.5c-0.8,0.9-1.9,1.9-1.8,1.7c-1,1.1-2.3,2.5-4,4c-1.6,1.5-3.5,3-5.2,4.7
					c-0.8,0.7,0.6-0.7,0.2-0.3c-0.9,0.9-2,1.8-4.2,3.4l0.2-0.2c-3.1,2.3-5.4,3.8-7.9,5.2c-1.3,0.7-2.5,1.4-4,2.1
					c-0.7,0.4-1.5,0.7-2.4,1.1c-0.9,0.3-1.8,0.7-2.8,1.1l0.7-0.1c-1.7,0.7-2.1,0.8-2.9,1c-1,0.5,0.3,0.1,1.5-0.4
					c1.2-0.5,2.5-1,1.6-0.5c-2.4,0.7-12.3,4.7-14.1,4.7c-2.7,0.9,0.9,0-1.8,0.9l-0.8,0.1l-0.6,0.4c-1.8,0.6-2.8,0.7-2.9,0.6
					c0.4-0.1,1.2-0.4,1.7-0.6c-2.4,0.6-6.5,2.1-7.4,2.3l2.7-0.7c-7.4,2.5-16.7,4.7-24,6.6l0.6,0c-2.8,0.8-3.9,0.9-5.1,1.1
					c-1.2,0.2-2.5,0.4-5.6,1l0.2-0.1c-1.2,0.3-2.9,0.7-4.6,1c1.6-0.4-3,0.1-1-0.4c-6.1,1.2-3,0.7-7.1,1.7l-1-0.1
					c-1.4,0.4-1.5,0.5-4.6,0.8c2.6-0.4-2-0.2,0.8-0.7c-6.6,0-9.8,1-12.8,0.1c-3.1,0.6,5.7,0.5,4,0.6c1.4,0.2-2.5,0.5-4.6,0.4
					c-1.1-0.1-1.9-0.4-3.2-0.7c-1.3-0.3-2.9-0.7-5.5-1.1c0.5,0.1,0.6,0,1.1,0.1c-0.5-0.1-0.9-0.2-1.5-0.2c-0.6,0-1.1-0.1-1.7-0.1
					c-1.2,0-2.4,0.1-3.8,0.5c-0.4,0.2-0.7,0.4-1.1,0.6c-0.4,0.2-0.8,0.4-1.1,0.6c-0.6,0.5-1.1,0.9-1.1,1.2c1.3-1.3,3-2.2,4.8-2.5
					c-1.5,0.3-2.9,1.1-4.1,2.3c-1.2,1.2-2.3,2.7-3.4,4.8c0-0.2,0.2-0.6,0.4-1.1c0.2-0.5,0.5-1,0.7-1.5c-0.9,1.1-1.3,2.4-2,3.7
					c-0.1-0.1,0-0.6,0.2-1.2c0.1-0.3,0.3-0.7,0.5-1c0.2-0.4,0.4-0.8,0.7-1.2c0.5-0.8,1.2-1.7,2-2.5c0.8-0.8,1.6-1.4,2.4-1.8
					c-0.8,0.2-2.2,1.3-2.9,2.2c-0.4,0.4-0.7,0.8-0.8,1c-0.2,0.2-0.2,0.1-0.1-0.3c-0.1,0.3-0.3,0.6-0.4,0.9c-0.1,0.3-0.3,0.6-0.5,0.9
					c-0.4,0.6-0.7,1.3-1,2c-0.7,1.4-1.3,3.1-1.5,5L24.7,99c-0.1,0.6-0.2,1.8-0.4,2.9c0-0.7,0-1.3,0-2c-0.3,3-1.2,5.7-1.3,8.6
					c0.5-6,0.5-1.3,0.9-3.8c-0.1,1.9-0.2,3-0.3,3.9c-0.1,0.9-0.2,1.4-0.4,2c-0.3,1.2-0.6,2.4-0.5,6.6c-0.1-1.1,0.2-4.2,0.3-2.4
					c-0.1,1.6-0.2,3.6-0.3,4.6c0.2,5.4,0.2-0.8,0.5,1.5c-0.3,1.9,0.2,2.7,0.4,5l-0.3,0c0.2,6.2,0.6,1.6,0.8,7.2l-0.5-2.3l0.3,2.9
					l-0.3-0.6c0.5,3.1,0.5,4.1,0.8,7.2c0.1-0.7,0.4,0.4,0.7,3.1c0.1,1.9-0.3-1,0.2,2.8c-0.2-0.9-0.5-1.8-0.5-3.5
					c-0.1-0.2-0.2-0.8-0.3-1c0.1,2,0.6,5,0.7,6.4c-0.1-0.5-0.1-1.2-0.1-1.5l1,5.5c0,0.9-0.1,0.2-0.2-0.5c0.2,1.1,0.4,1.9,0.6,3.5
					c-0.2-0.4-0.3-0.3-0.7-2.6l0.9,5.3c0,0.4,0.2,2.7,0.1,2.1c0.3,2.9,1.3,7.2,1.8,11c0.1,0.2,0.1,0.6,0.3,1.4
					c0.5,3.6,0.9,6.9,1.7,11.2l0.2,2.5c0.6,3.4-0.3-3.3,0.6,2.3c0.7,4,0.1,1.5,0.2,2.9c0.4,2,1.1,5.4,1.5,9.1
					C32.8,199,32.7,198,32.5,196.9z M37.8,238.7c-0.1-0.8-0.3-2.4-0.3-3C37.8,236.6,37.8,237.3,37.8,238.7z M67.1,268.4
					c-0.5,0.4-1.3,0.9-2.2,1.4C65.5,269.4,66.2,268.9,67.1,268.4z M127.5,130.2C127.5,130.2,127.5,130.2,127.5,130.2
					C125.5,130.3,126.2,130.3,127.5,130.2z M131.4,130c0.4-0.1,0.3-0.1,0.2-0.2c-0.3,0.1-1.1,0.2-2.1,0.2
					C129.7,130.1,130.2,130.2,131.4,130z M39.4,89.7l-0.7-0.2C40.4,89.7,39.9,89.7,39.4,89.7z"/>
				<path class="st2" d="M61,272.5c-0.2,0.1-0.3,0.1-0.4,0C60.3,272.7,60.3,272.8,61,272.5z"/>
				<path class="st2" d="M28.5,171l0-0.1c0-0.1,0-0.1,0-0.1L28.5,171z"/>
				<path class="st2" d="M107.4,177.8c-0.2,0.8-0.3,1.2-0.5,1.4C107.1,179.3,107.2,179,107.4,177.8z"/>
				<path class="st2" d="M150.7,126.5c-0.7,0.3-1.5,0.5-2.2,0.7c1.1-0.3,1.5-0.3,2.1-0.4C150.5,126.7,150,126.8,150.7,126.5z"/>
				<path class="st2" d="M169.7,118.6c0.3-0.2,0.6-0.5,0.8-0.8l-0.2,0C169.2,118.8,168.4,119.5,169.7,118.6z"/>
				<path class="st2" d="M153.1,126.9c0.3,0.2,1.7-0.3,3.2-1.1c-0.1,0-0.2,0.1-0.3,0.1C156.3,125.4,154.8,126.2,153.1,126.9z"/>
				<path class="st2" d="M156.7,125.7c0.5-0.2,1-0.4,1.4-0.6C158.2,124.9,157.5,125.3,156.7,125.7z"/>
				<path class="st2" d="M136.1,129.4c0.8,0,0.5-0.4,0.9-0.3C137.9,128.6,131.8,130,136.1,129.4z"/>
				<polygon class="st2" points="154.7,127.3 154,127.2 153.2,127.8 				"/>
				<path class="st2" d="M141.7,130.2c0.9-0.1,1.8-0.2,2.7-0.3c-0.1-0.1,0.3-0.1,0.7-0.3C143.4,130,141.6,130.1,141.7,130.2z"/>
				<path class="st2" d="M145,129.7c0.9-0.1,1.7-0.3,2.1-0.5C146.7,129.3,145.7,129.5,145,129.7z"/>
				<path class="st2" d="M151.2,128.6c-0.3,0.1-0.5,0.1-0.8,0.2l-1.9,0.5C149.4,129,150.3,128.8,151.2,128.6z"/>
				<path class="st2" d="M115,138.9c-0.4,0.9-0.8,1.8-1.1,2.8c0,0.3,0.4-0.4,0.8-1.4C114.9,139.5,115.3,138.5,115,138.9z"/>
				<path class="st2" d="M121.9,133.8c-0.7,0.2-0.8,0.1-1.3,0.2l0.1,0.5C121.1,134.2,121.5,134,121.9,133.8z"/>
				<path class="st2" d="M116.2,139.1c0,0.3-1.4,3.9,0.1,0.6C116.3,139.4,117.5,136.9,116.2,139.1z"/>
				<polygon class="st2" points="105.3,182.1 105.4,181.3 104.6,181.3 				"/>
				<path class="st2" d="M82.4,203.8c0.2-0.7,0.4-1.1,0.4-1.4c0.1-0.2,0-0.3,0-0.4c0-0.2-0.1-0.3,0.6-1.5c0.1-0.4-0.2,0.1-0.5,0.6
					c-0.3,0.5-0.6,1-0.5,0.6c-0.1,0.5-0.2,0.9-0.3,1.2c-0.1,0.3-0.1,0.6-0.1,0.8C82,204.1,82,204.1,82.4,203.8z"/>
				<path class="st2" d="M82.5,201.7c0.1-0.3,0.2-0.6,0.3-0.9C82.6,201.3,82.5,201.5,82.5,201.7z"/>
				<polygon class="st2" points="166.9,46.8 168.3,45 167.4,46.1 				"/>
				<path class="st2" d="M169.5,43.3l0.4-0.4l0.8-1.1C170.4,42.2,169.8,43,169.5,43.3z"/>
				<path class="st2" d="M37.9,245l0.1,0.2c0-0.4,0-0.9-0.1-1.9L37.9,245z"/>
				<polygon class="st2" points="34.9,214.6 35,215.1 35,214.1 				"/>
				<path class="st2" d="M31,189.2c0.2,1,0.4,2.3,0.5,3.3C31.1,190.2,31.1,188.9,31,189.2z"/>
			</g>
		</g>
	</g>
</g>
<g>
	<g>
		<g>
			<g>
				<path class="st2" d="M143.9,197.4C143.9,197.4,143.8,197.4,143.9,197.4C143.9,197.4,143.9,197.4,143.9,197.4z"/>
				<polygon class="st2" points="144.9,197.3 144.9,197.3 145,197.2 				"/>
				<path class="st2" d="M145.8,197.1c-0.1-0.1-0.3,0.1-0.5,0.1l0,0l-0.1,0.1C145.4,197.2,145.7,197.1,145.8,197.1z"/>
				<path class="st2" d="M146.4,197.2c0,0,0.1,0-0.1,0C146.3,197.2,146.3,197.2,146.4,197.2C146.3,197.2,146.3,197.2,146.4,197.2z"
					/>
				<path class="st2" d="M146.3,197.2C146.2,197.3,146.4,197.3,146.3,197.2L146.3,197.2z"/>
				<path class="st2" d="M146.8,197.2l-0.1,0C146.7,197.2,146.8,197.2,146.8,197.2C146.9,197.2,146.9,197.2,146.8,197.2z"/>
				<path class="st2" d="M146.9,197.1L146.9,197.1C146.8,197.1,146.8,197.1,146.9,197.1z"/>
				<path class="st2" d="M146.7,197.2l0.1,0C146.8,197.1,146.8,197.1,146.7,197.2C146.7,197.1,146.7,197.1,146.7,197.2z"/>
				<path class="st2" d="M146.6,197.2C146.5,197.1,146.4,197.1,146.6,197.2C146.3,197.1,146.3,197.2,146.6,197.2z"/>
				<path class="st2" d="M145.9,197l-0.1,0l-0.1,0C145.7,197.1,145.9,197.1,145.9,197z"/>
				<path class="st2" d="M147.6,197.1c0,0-0.1-0.1-0.1-0.1l-0.1,0C147.5,197.1,147.6,197.1,147.6,197.1z"/>
				<path class="st2" d="M147.5,197l0.1-0.1C147.5,197,147.5,197,147.5,197z"/>
				<polygon class="st2" points="146.9,197 146.6,197.1 146.9,197 				"/>
				<polygon class="st2" points="148.2,197.1 148.1,197.2 148.2,197 				"/>
				<path class="st2" d="M148.6,197c0,0.1,0.1,0.1,0.1,0.1c0.1,0,0.2-0.1,0.2-0.1C148.8,197.1,148.7,197.1,148.6,197z"/>
				<path class="st2" d="M149,196.9c0,0-0.1,0.1-0.1,0.1C148.9,197,148.9,197,149,196.9z"/>
				<path class="st2" d="M147.9,197c0,0,0.1,0.1,0.1,0.1L147.9,197L147.9,197z"/>
				<path class="st2" d="M148,196.9L148,196.9c0.1,0,0.1,0,0.1,0C148.1,196.9,148.1,196.9,148,196.9z"/>
				<path class="st2" d="M147.9,197L147.9,197C147.9,197,147.9,196.9,147.9,197z"/>
				<path class="st2" d="M147.3,197c0.1-0.1,0.2-0.1,0.1-0.2C147.3,196.9,147.4,196.9,147.3,197z"/>
				<path class="st2" d="M147.8,196.9l-0.2,0c0,0,0,0,0,0.1L147.8,196.9z"/>
				<polygon class="st2" points="147.9,196.8 147.8,196.9 147.9,196.9 				"/>
				<path class="st2" d="M148.7,196.9c0.1-0.1,0.1-0.1,0.2-0.1C148.8,196.8,148.7,196.8,148.7,196.9
					C148.6,196.8,148.6,196.9,148.7,196.9z"/>
				<path class="st2" d="M148.3,196.9L148.3,196.9C148.3,196.9,148.3,196.9,148.3,196.9z"/>
				<polygon class="st2" points="149.7,196.6 149.7,196.6 149.7,196.6 				"/>
				<path class="st2" d="M148.6,196.8c-0.1,0-0.1,0-0.1,0.1C148.5,196.8,148.5,196.8,148.6,196.8
					C148.6,196.8,148.6,196.8,148.6,196.8z"/>
				<path class="st2" d="M149.2,196.9c0,0-0.1,0-0.1,0C149.1,196.8,149.2,196.9,149.2,196.9z"/>
				<path class="st2" d="M148.4,196.9L148.4,196.9C148.4,196.9,148.4,196.9,148.4,196.9z"/>
				<path class="st2" d="M148.4,196.9C148.4,196.9,148.4,196.9,148.4,196.9C148.4,196.9,148.4,196.9,148.4,196.9
					C148.4,196.9,148.4,196.9,148.4,196.9z"/>
				<path class="st2" d="M149.7,195.9c0,0.1-0.1,0.3-0.3,0.2c-0.1,0.1,0.1,0.4,0.2,0.6c0,0,0-0.1,0.1-0.2c-0.1,0-0.4,0-0.3-0.2
					c0.2-0.1,0.2,0,0.3,0c-0.1-0.1,0.2-0.3,0.1-0.4l-0.1,0.1C149.7,195.9,149.8,195.9,149.7,195.9z"/>
				<path class="st2" d="M149.4,196.7L149.4,196.7c0,0,0.1,0.1,0.2,0.1c0.1-0.1,0.1-0.1,0.1-0.2L149.4,196.7L149.4,196.7z"/>
				<path class="st2" d="M149,196.8c0-0.1,0.2-0.2,0-0.3c-0.2,0-0.1,0.1-0.2,0.2C149.2,196.6,148.8,196.7,149,196.8
					c-0.1,0-0.1,0-0.2,0C148.9,196.8,149,196.8,149,196.8L149,196.8L149,196.8L149,196.8C149,196.8,149,196.8,149,196.8L149,196.8
					C149,196.8,149,196.8,149,196.8C149.1,196.8,149.1,196.8,149,196.8L149,196.8L149,196.8l0.3,0
					C149.3,196.7,149.2,196.7,149,196.8z"/>
				<path class="st2" d="M147.4,196.6C147.4,196.6,147.4,196.6,147.4,196.6C147.5,196.6,147.5,196.6,147.4,196.6z"/>
				<path class="st2" d="M147.6,196.6C147.5,196.6,147.5,196.7,147.6,196.6c-0.2,0-0.1,0-0.1,0c0,0-0.1,0.1,0,0.1L147.6,196.6
					c0,0.1,0.2,0.2,0.2,0.2C147.7,196.7,147.7,196.7,147.6,196.6z"/>
				<path class="st2" d="M148.3,196.6l0.2-0.1l-0.1-0.1l0,0C148.3,196.5,148.3,196.6,148.3,196.6z"/>
				<polygon class="st2" points="149.7,196.7 149.7,196.8 149.8,196.6 				"/>
				<polygon class="st2" points="150.1,196.6 150.1,196.7 150.1,196.6 				"/>
				<path class="st2" d="M165.2,186.7L165.2,186.7C165.2,186.6,165.2,186.6,165.2,186.7z"/>
				<path class="st2" d="M164.8,187L164.8,187C164.9,187,164.8,187,164.8,187z"/>
				<path class="st2" d="M157.8,194.1c0.2,0.1,0.4,0.3,0.3,0.1l-0.1-0.2C157.9,194.2,157.9,194.2,157.8,194.1z"/>
				<path class="st2" d="M162.1,190.4L162.1,190.4c0,0,0,0.1,0,0.2C162.1,190.6,162.1,190.5,162.1,190.4z"/>
				<path class="st2" d="M161.6,189.6l0.2,0C161.8,189.7,161.7,189.6,161.6,189.6z"/>
				<path class="st2" d="M167.1,184.6l-0.1-0.2C166.9,184.5,167.1,184.6,167.1,184.6z"/>
				<path class="st2" d="M153.3,195.7c0.1,0,0.2,0,0.3,0C153.4,195.7,153.3,195.6,153.3,195.7z"/>
				<path class="st2" d="M166.5,188.5c0-0.1,0-0.1,0-0.1C166.5,188.4,166.5,188.5,166.5,188.5z"/>
				<path class="st2" d="M153.8,195.7C153.8,195.7,153.8,195.7,153.8,195.7c-0.1,0-0.2,0.1-0.3,0.1
					C153.7,195.8,153.8,195.8,153.8,195.7z"/>
				<path class="st2" d="M173,176.4L173,176.4C173,176.4,173,176.4,173,176.4z"/>
				<path class="st2" d="M174.2,173.6c0,0,0,0.1,0,0.1C174.2,173.7,174.2,173.7,174.2,173.6z"/>
				<path class="st2" d="M151.4,196.3C151.3,196.4,151.4,196.4,151.4,196.3L151.4,196.3z"/>
				<path class="st2" d="M150.9,195.9C150.9,195.9,150.9,195.9,150.9,195.9C150.9,195.9,150.9,195.9,150.9,195.9z"/>
				<path class="st2" d="M154.1,194.5L154.1,194.5C154.1,194.4,154.1,194.4,154.1,194.5z"/>
				<path class="st2" d="M151.2,196.3C151.3,196.3,151.3,196.3,151.2,196.3C151.3,196.3,151.3,196.3,151.2,196.3z"/>
				<path class="st2" d="M151.3,196.4C151.2,196.4,151.2,196.4,151.3,196.4C151.2,196.4,151.2,196.4,151.3,196.4z"/>
				<path class="st2" d="M151.5,196.3c0,0-0.1,0-0.1,0C151.4,196.3,151.4,196.3,151.5,196.3C151.4,196.3,151.4,196.3,151.5,196.3z"
					/>
				<path class="st2" d="M170.6,181.4C170.7,181.4,170.7,181.4,170.6,181.4C170.6,181.3,170.6,181.3,170.6,181.4z"/>
				<polygon class="st2" points="158.5,191.5 158.5,191.5 158.5,191.5 				"/>
				<path class="st2" d="M158.6,191.2c0,0.3,0,0.3-0.1,0.3l0.3,0.5L158.6,191.2z"/>
				<path class="st2" d="M166.1,185.8l-0.2,0c-0.1-0.4,0.1-0.4-0.2-0.5c0.4,0.5-0.4,0.5,0,1l-0.2,0c0,0,0,0,0-0.1
					c-0.4-0.1,0.2,0.5-0.1,0.6c-0.1,0-0.2,0-0.2-0.1l-0.1,0.3c-0.1,0-0.1-0.1-0.1-0.1l-0.2,0.2l0,0c0,0.1,0.1,0.3,0.1,0.4
					c-0.1,0,0-0.1-0.1-0.1l0,0.2c-0.2-0.1-0.2-0.3,0-0.4c-0.6-0.4,0,0.2-0.5,0.2l0.1-0.2c-0.3-0.2-0.3,0-0.6-0.1
					c0.1,0.1,0.7,0.2,0.6,0.5c-0.1,0-0.1,0-0.1,0.2c-0.1-0.2-0.2-0.1-0.3,0l-0.2-0.3c-0.1,0.2,0.1,0.3,0.1,0.4
					c-0.1,0.1-0.3-0.1-0.5-0.2c-0.2,0.1,0.4,0.2,0.2,0.4c-0.2,0-0.3,0.2-0.4,0.5c-0.2,0-0.1-0.2-0.2-0.2l0,0.3c0,0-0.1-0.1-0.1-0.1
					c0,0.1,0.2,0.3,0.1,0.4c0.2,0.3-0.6-0.2-0.5,0.2c-0.1,0-0.1-0.2-0.2-0.3c-0.1,0.4-0.1,0.3-0.1,0.7l-0.3-0.1
					c0.3,0.1,0.3,0.5,0.2,0.8c0.1,0.1,0.2,0.1,0.3,0.1l-0.1,0.3c-0.1,0-0.1-0.1-0.1-0.3c0,0,0,0.1,0,0.1c-0.1,0-0.2-0.2-0.2-0.4
					c0.1,0,0.1,0.1,0.2,0.1c0-0.2-0.1-0.4-0.2-0.6c0,0,0,0.1,0,0.1c0-0.1,0-0.1-0.1-0.1c0,0,0,0.1,0,0.1l-0.2-0.3l0.1,0.1l-0.4,0
					c0,0.5,0.1,1-0.2,1.3c0-0.3-0.2-0.4-0.3-0.6c0.3,0.2,0.2-0.3,0.4-0.3c-0.1,0-0.2-0.1-0.2-0.2l-0.2,0.4c-0.1-0.2-0.2-0.1-0.3-0.2
					c0.3,0.4-0.1,0.4-0.1,0.6c-0.1-0.1-0.1-0.3,0-0.4c-0.4-0.2,0.1,0.6-0.3,0.5c0,0,0.1,0,0-0.1c0,0.2-0.3,0.2-0.3,0l0,0
					c-0.3,0.1-0.8,0.4-0.6,0.8c0,0-0.2-0.5-0.2-0.5l0.2,1.5c-0.1-0.3-0.7-1-0.5-1.3c-0.1,0-0.2,0-0.3,0.2c0.1,0,0.3,0.4,0.3,0.4
					c-0.3-0.3-0.2-0.1-0.5-0.3c0.1,0,0.3,0.6,0.2,0.6c0-0.1-0.2-0.5-0.2-0.5l0,0.6c0-0.1-0.2-0.4-0.3-0.5c0.1,0.1-0.2,0.1-0.3,0.2
					l0.2,0.1c-0.3,0.1,0,0.8-0.3,0.9c0-0.1-0.2-0.6-0.4-0.6c0,0.3,0.2,1.3,0,1.6l-0.1-0.1l-0.1,0.2c0-0.4,0-1.3,0.1-1.7
					c-0.2-0.1-0.1-0.1-0.3-0.1c-0.1-0.1,0-0.2,0-0.3l-0.4,0.1c0.1,0.3-0.2,0.4-0.1,0.6l0.3-0.5c0.1,0.3,0.1,0.9-0.2,1
					c-0.1-0.1-0.2-0.5-0.2-0.6c0,0.1-0.2,0.3-0.2,0.2l0.1-0.2c-0.2,0-0.1,0.5-0.4,0.3c-0.1,0-0.3-0.3-0.3-0.1
					c0.2,0.3,0.6,1.2,0.7,1.4c0,0-0.5-0.1-0.6-0.3c-0.2-0.2-0.1-0.6-0.2-0.8c0,0.1,0,0.2,0,0.2c-0.1,0-0.1-0.2-0.2-0.1
					c0.1,0.3-0.3,0.1,0,0.3c-0.1,0.1-0.2,0-0.3,0.1c0.1,0.1,0.1,0.6,0,0.8c0-0.1-0.1-0.1-0.1-0.2c-0.3,0.1-0.5,0-0.8,0.1
					c0-0.1-0.2-0.1-0.2-0.2c0,0.1,0,0.2-0.1,0.2c-0.2-0.1,0.2-0.1,0-0.3c0,0.1-0.2,0.3-0.2,0.4c0.1,0.2,0.3-0.1,0.4-0.2
					c0.1,0.3,0,0.7-0.3,0.9c-0.2,0.1-0.2-0.2-0.2-0.1c-0.5,0.1-0.2,0.6-0.7,0.5c-0.2-0.1-0.1-0.3-0.2-0.5c0.2-0.1,0.3,0,0.5,0
					l-0.2,0c0-0.1,0.2-0.2,0.2-0.1c-0.2-0.1-0.8,0.2-1.2,0.2c0,0.1-0.1,0.2-0.1,0.2l0.1-0.1c0.1,0.1-0.1,0.2,0,0.3
					c-0.1,0.1-0.2,0.3-0.5,0.3l-0.1-0.2c0,0.1,0.2,0.1,0.2,0c-0.1,0.1-0.4-0.1-0.4,0.1l0.2,0.1c-0.1,0.1-0.3,0.4-0.5,0.4
					c0.1,0.1,0,0,0.2,0.1c-0.2-0.2,0.5-0.1,0.2-0.3c0.2,0.2,0.3,0,0.5,0.2c0-0.1-0.1-0.1,0.1-0.1c0,0,0,0,0-0.1c0,0,0,0,0,0l0,0
					c0,0,0,0,0,0c0,0-0.1,0-0.1-0.1c0-0.2,0.3-0.2,0.3-0.3c0.1,0,0,0.1,0.1,0.1l0.1-0.1c0.1,0.1,0.3,0.2,0.1,0.3l0.2,0
					c0.1,0.1,0.3,0,0.4,0c0.1,0,0.2-0.2,0.1-0.1l0.3-0.2l0,0c0.3-0.1,0.5-0.4,1-0.2c0.1-0.1,0.2-0.1,0.4-0.2l0.1,0.1
					c0.1-0.1,0.4,0,0.4-0.2c0.3,0.3,0.7-0.1,0.9-0.2l-0.1-0.2c0.2,0,0.3-0.2,0.5-0.3l-0.1-0.2c0.1-0.2,0.5,0,0.7-0.2
					c0,0.1-0.1,0.1-0.1,0.1c0.5,0.3,0.5-0.6,1-0.4c0-0.1,0.1-0.1,0.2-0.1c0,0,0,0,0,0c0,0,0,0,0,0c0,0,0.1,0,0.1,0.1
					c-0.1,0-0.1-0.1-0.1-0.1c0.1,0,0.1-0.1,0.2-0.2l0.1,0.2c0,0,0,0,0,0c0.1,0,0-0.1-0.1-0.3c0,0,0-0.1,0-0.2
					c0.2,0.3,0.2-0.2,0.4,0.1c0-0.2,0.3-0.3,0.2-0.7c0,0,0.1,0.1,0,0.1c0.1,0,0.2,0,0.2-0.2l0.2,0.2l0-0.4c0.2,0.1,0.3,0.2,0.3,0.4
					c0.1-0.5,0.2-0.2,0.2-0.7l0.1,0.2c0.1-0.1,0.1-0.3,0.2-0.2c0.4,0.2,0.9-0.4,1.6-0.4c-0.4-0.4,0.4,0.1,0.1-0.3
					c0.1,0.1,0.2,0.1,0.2,0.3c0.2-0.2,0.5,0,0.4-0.5c0.1,0.1,0.1,0.2,0.1,0.3c0,0,0-0.2,0.1-0.1c0.1,0.1,0,0.1,0,0.2
					c0.2-0.2,0-0.6-0.2-0.9c0.2,0.1,0.3,0,0.2-0.3c0.1,0.1,0.3,0.1,0.1,0.3c0.1,0,0.6-0.2,0.4-0.5c0.1,0,0.1-0.1,0.1-0.1
					c0.2-0.1,0.2-0.1,0.4-0.2l-0.1,0c-0.1-0.4,0.1-0.2,0.2-0.3l0,0c0.5,0,0.1-0.2,0.6-0.2l-0.2-0.2c-0.3-0.4,0.5,0,0.5-0.2l-0.2-0.1
					c0-0.2,0.7,0.3,0.8,0.3c0,0,0,0.1,0,0.1c0.4,0-0.2-0.3,0-0.5c0.1,0.1,0.2,0.4,0.4,0.3c0.2,0,0-0.7,0.4-0.6
					c-0.1-0.1-0.2-0.1-0.2-0.3c0.1-0.1,0.7,0.1,0.5-0.4c0,0,0.1,0,0.1,0.1c0-0.2,0.2-0.4,0.1-0.6c0.6,0.5,0.4-0.8,0.9-0.3l0.3-0.3
					l0,0.1c0.2-0.2,0.2-0.4,0.1-0.5c0.1,0,0.1,0.1,0.1,0.1c0.4-0.2,0.4-0.2,0.3-0.7l0.2,0.1c0-0.2,0.6-0.2,0.7-0.6c0,0,0,0.1,0,0.1
					c0.1-0.5,1.1-0.4,0.6-1.1l0-0.3c-0.3,0.3-0.2-0.3-0.4-0.2c0.1-0.1,0.4-0.1,0.3,0l0,0c0.3,0.3,0.4-0.3,0.6-0.1
					c0.2-0.3,0.5-0.5,0.7-0.8c0.2-0.3,0.4-0.5,0.6-0.8l-0.3-0.1l0.1-0.2c0.1,0,0.2,0,0.1,0.2c0.2,0,0-0.3,0-0.3
					c0.3-0.2,0.2,0.3,0.3,0.2l0.1-0.1l0,0c0-0.2-0.1-0.2,0-0.4c0.1-0.1,0.2,0,0.2,0c0,0,0,0,0-0.1l0.2-0.2l-0.2,0
					c0-0.2,0.1-0.2-0.1-0.2c0.4,0,0.6-0.9,0.7-1c0-0.2,0-0.4,0.1-0.6c-0.1,0-0.2,0-0.1-0.2c0.3,0.2,0.3-0.2,0.6-0.3
					c-0.2,0.1,0.1-0.5-0.2-0.4c0.1-0.1,0.1,0,0.2,0c0-0.4,0.4-0.8,0.4-1.3c0,0-0.1,0-0.1-0.1l0.2-0.2c0-0.1-0.2-0.1,0-0.3
					c0,0-0.1,0-0.1,0c0.2-0.4,0.3-0.9,0.3-1.4c0.1-0.5,0.1-0.9,0.2-1.4c0,0.1,0,0,0-0.1c0,0.1,0,0,0,0c0-0.1,0-0.3,0-0.4
					c0-0.1,0-0.4,0-0.5l0,0.1c0-0.2,0,0.2-0.1,0.2c0,0.2-0.2,0.5-0.2,0.8c0,0.1,0-0.1,0,0c0,0.1,0,0.2-0.1,0.3l0,0
					c-0.1,0.5-0.2,0.6-0.4,1.1l0.1,0c0,0.1-0.1,0.1-0.1,0.2c0.1,0.2,0.1-0.3,0.2-0.2c-0.2,0.1-0.3,0.8-0.5,0.8
					c-0.1,0.2,0.1,0,0.1,0.1l-0.1,0l0.1,0.1c-0.1,0.1-0.1,0.1-0.2,0.1c0,0,0-0.1,0-0.1c-0.1,0.1-0.1,0.4-0.2,0.4l0.1-0.1
					c-0.1,0.5-0.5,0.9-0.5,1.4l0.1,0c0,0.4-0.2,0.2-0.3,0.6l0,0c0,0.1,0,0.2-0.1,0.3c0-0.1-0.2,0.1-0.2-0.1c-0.1,0.4,0,0.2,0.1,0.5
					l-0.1,0c0.1,0.1,0.1,0.2,0,0.3c0-0.2-0.2,0-0.3-0.2c-0.4,0.2-0.1,0.6-0.5,0.6c0.2,0.3,0.3-0.2,0.4-0.1c0.1,0,0.2,0.3,0.1,0.4
					c-0.1,0.1-0.5,0-0.7,0.2c0,0,0,0,0-0.1c-0.2,0.1,0,0.3-0.2,0.3c0.1,0.2-0.1,0.1,0.1,0.3l0.1-0.3c0,0.2,0.2,0.5-0.1,0.6
					c0-0.1-0.1-0.2-0.1-0.2c-0.1,0,0,0.2-0.2,0.2c-0.2-0.2,0.1-0.3,0.1-0.6c-0.2,0,0,0.4-0.2,0.1c0.3,0.3-0.2,0.2-0.1,0.6l-0.1-0.1
					c0,0,0,0.1,0,0.2l-0.1-0.2c0.1,0.3-0.3,0.2-0.3,0.4c0.2-0.3,0.2,0.1,0.4,0c0,0.5-0.5-0.1-0.8,0.3c0-0.1,0.3-0.1,0.3,0
					c-0.1,0-0.2,0.1-0.4,0.1c-0.2,0.3,0.2,0.1,0.2,0.3c-0.3-0.1,0,0.2-0.1,0.3l-0.2-0.1c-0.3,0.2,0.3,0.3-0.1,0.5l-0.1-0.3l-0.1,0.2
					l-0.2-0.2c0,0.2-0.1,0.3-0.2,0.4c0.1,0.1,0.3,0.3,0.2,0.4c-0.2,0-0.1-0.2-0.2,0c-0.1-0.1-0.2-0.3,0.1-0.2c0-0.1-0.1-0.1-0.1-0.2
					c-0.2,0-0.2,0.2-0.3,0.3c0,0,0.1,0,0.1,0l0,0.4c-0.1,0-0.1-0.1-0.1-0.2c0,0.1,0,0.2,0,0.3c-0.1-0.1-0.3-0.2-0.2-0.4
					c0,0.1,0,0.2-0.1,0.4c-0.1,0-0.3,0-0.3-0.1c-0.2,0-0.1,0.5-0.3,0.6c0,0,0,0.1,0,0.1c-0.2,0.1-0.5,0.1-0.5,0.5l-0.3-0.1
					c-0.1,0.2,0.4,0.2,0.3,0.5c-0.1,0.2-0.3-0.1-0.4-0.1c0,0.2,0.1,0.6-0.2,0.6C166,185.9,166.1,185.9,166.1,185.8z M164.3,187.6
					c0-0.1,0-0.3,0.1-0.2C164.5,187.6,164.4,187.6,164.3,187.6z M161.5,190.3c0-0.1,0.1-0.1,0.2,0
					C161.6,190.3,161.6,190.3,161.5,190.3z M152.1,196L152.1,196C152.2,196.1,152.2,196,152.1,196z M151.8,196
					C151.8,196,151.8,196.1,151.8,196c0,0,0.1,0,0.1,0C151.9,196,151.9,196,151.8,196z M172,181.4L172,181.4
					C172,181.3,172,181.3,172,181.4z"/>
				<path class="st2" d="M161.7,189.7C161.7,189.8,161.7,189.8,161.7,189.7C161.8,189.8,161.7,189.7,161.7,189.7z"/>
				<polygon class="st2" points="167.1,184.7 167.1,184.7 167.1,184.6 				"/>
				<path class="st2" d="M154.7,193.4c0.1,0,0.1,0,0.1,0.1C154.8,193.4,154.7,193.3,154.7,193.4z"/>
				<path class="st2" d="M150.7,196.6l0.1-0.1C150.7,196.5,150.7,196.5,150.7,196.6C150.7,196.5,150.7,196.6,150.7,196.6z"/>
				<path class="st2" d="M149.2,196.1C149.2,196.2,149.1,196.1,149.2,196.1L149.2,196.1C149.2,196.2,149.3,196.1,149.2,196.1z"/>
				<path class="st2" d="M150.4,196.2c0-0.1-0.1,0-0.2,0l0,0C150.2,196.3,150.3,196.2,150.4,196.2z"/>
				<path class="st2" d="M150.2,196.2C150.1,196.2,150.1,196.2,150.2,196.2C150.1,196.3,150.1,196.2,150.2,196.2z"/>
				<path class="st2" d="M151.5,196.2c-0.1,0,0,0.2,0,0.1C151.5,196.5,151.8,196,151.5,196.2z"/>
				<polygon class="st2" points="150.2,195.8 150.3,195.9 150.3,195.8 				"/>
				<path class="st2" d="M151,195.7l-0.2,0c0,0,0,0,0,0.1C150.9,195.7,151,195.7,151,195.7z"/>
				<path class="st2" d="M150.8,195.7c-0.1,0-0.1,0-0.1,0.1C150.7,195.8,150.8,195.8,150.8,195.7z"/>
				<polygon class="st2" points="150.4,195.7 150.5,195.7 150.6,195.7 				"/>
				<path class="st2" d="M152.8,195.1l0.2-0.1c0-0.1-0.1-0.1-0.1,0C152.8,195.1,152.7,195.1,152.8,195.1z"/>
				<path class="st2" d="M152.1,194.9c0.1,0,0.1,0.1,0.1,0.1l-0.1-0.2L152.1,194.9z"/>
				<path class="st2" d="M152.5,194.6c0-0.1,0.2-0.3,0-0.2C152.5,194.5,152.4,194.6,152.5,194.6z"/>
				<polygon class="st2" points="155.2,193.9 155.2,193.9 155.3,194.3 				"/>
				<path class="st2" d="M156.9,191.9c-0.2,0,0.1,0.3-0.2,0.2c0,0.1,0.2,0,0.2,0.1C157,192.1,157.1,192.2,156.9,191.9z"/>
				<path class="st2" d="M157,192.3C157,192.3,156.9,192.4,157,192.3C157,192.4,157,192.3,157,192.3z"/>
				<polygon class="st2" points="174.2,173.1 174.2,172.9 174.2,173 				"/>
				<path class="st2" d="M174.2,172.8L174.2,172.8l0-0.1C174.2,172.7,174.2,172.7,174.2,172.8z"/>
				<path class="st2" d="M163.6,187.3L163.6,187.3c0.1,0.1,0.1,0.1,0.2,0.1L163.6,187.3z"/>
				<polygon class="st2" points="165.2,186.3 165.1,186.3 165.4,186.5 				"/>
				<path class="st2" d="M166,185.1c-0.1,0-0.1,0.1-0.1,0.2C166,185.1,166.3,185.3,166,185.1z"/>
			</g>
		</g>
	</g>
</g>
</svg>
