<?xml version="1.0" encoding="utf-8"?>
<!-- Generator: Adobe Illustrator 24.2.0, SVG Export Plug-In . SVG Version: 6.00 Build 0)  -->
<svg version="1.1" id="Layer_1" xmlns="http://www.w3.org/2000/svg" xmlns:xlink="http://www.w3.org/1999/xlink" x="0px" y="0px"
	 viewBox="0 0 300 300" style="enable-background:new 0 0 300 300;" xml:space="preserve">
<style type="text/css">
	.st0{fill:#863399;}
	.st1{fill:none;}
	.st2{fill:#B884C1;}
	.st3{fill:#7F3F98;}
	.st4{fill:#FFDD92;}
	.st5{fill:#FFC844;}
	.st6{fill:#FFFFFF;}
</style>
<g>
	<g>
		<path class="st0" d="M165.8,234.1c0,1.4-0.2,2.8-0.7,4.2c-0.5,1.4-1.2,2.6-2.3,3.7c-1.1,1.1-2.5,2-4.2,2.8
			c-1.7,0.7-3.7,1.1-6.2,1.1s-4.4-0.4-6.1-1.2c-1.6-0.8-2.9-1.8-3.9-2.9c-1-1.1-1.6-2.3-2-3.6c-0.3-1.3-0.5-2.5-0.5-3.6
			c0-0.9,0.2-2,0.5-3.4c0.3-1.3,1-2.6,2-3.8s2.3-2.3,3.9-3.1c1.6-0.9,3.8-1.3,6.4-1.3c2.3,0,4.3,0.3,6,1c1.7,0.7,3,1.6,4.1,2.7
			c1,1.1,1.8,2.3,2.3,3.6C165.6,231.7,165.8,232.9,165.8,234.1z M136.9,92.8c1.7-1,4.5-3.1,14.7-4.3c10.2-1.2,14.2,2.9,15.1,3.4
			c0.9,0.5-7.4,120.9-8.3,122.6c-0.9,1.7-2.9,2.5-6,2.5c-1.4,0-2.5-0.2-3.4-0.6c-0.9-0.4-3-2.4-3.2-2.9
			C145.7,212.9,135.1,93.8,136.9,92.8z"/>
		<g>
			<path class="st1" d="M165.8,234.1c0,1.4-0.2,2.8-0.7,4.2c-0.5,1.4-1.2,2.6-2.3,3.7c-1.1,1.1-2.5,2-4.2,2.8
				c-1.7,0.7-3.7,1.1-6.2,1.1s-4.4-0.4-6.1-1.2c-1.6-0.8-2.9-1.8-3.9-2.9c-1-1.1-1.6-2.3-2-3.6c-0.3-1.3-0.5-2.5-0.5-3.6
				c0-0.9,0.2-2,0.5-3.4c0.3-1.3,1-2.6,2-3.8s2.3-2.3,3.9-3.1c1.6-0.9,3.8-1.3,6.4-1.3c2.3,0,4.3,0.3,6,1c1.7,0.7,3,1.6,4.1,2.7
				c1,1.1,1.8,2.3,2.3,3.6C165.6,231.7,165.8,232.9,165.8,234.1z M136.9,92.8c1.7-1,4.5-3.1,14.7-4.3c10.2-1.2,14.2,2.9,15.1,3.4
				c0.9,0.5-7.4,120.9-8.3,122.6c-0.9,1.7-2.9,2.5-6,2.5c-1.4,0-2.5-0.2-3.4-0.6c-0.9-0.4-3-2.4-3.2-2.9
				C145.7,212.9,135.1,93.8,136.9,92.8z"/>
			<g>
				<g>
					<g>
						<path class="st0" d="M134.4,92.7c0-0.1,0-0.2,0.1-0.3c0-0.1,0-0.1,0-0.1c0-0.1,0-0.2,0.1-0.3c0-0.1,0.1-0.2,0.1-0.4
							c0.1-0.3,0.2-0.5,0.3-0.6c0.3-0.5-0.2-0.2,0.5-0.8c-0.2,0.2-0.5,0.3-0.7,0.6c-0.1,0.1-0.2,0.2-0.3,0.3
							c-0.1,0.1-0.2,0.3-0.2,0.3c-0.1,0.1-0.1,0.3-0.2,0.4c-0.1,0.3-0.1,0.3-0.1,0.4c0,0.2,0,0.3,0,0.4c0,0.1,0.1,0.2,0.2,0.2
							C134.3,92.8,134.4,92.7,134.4,92.7z"/>
						<polygon class="st0" points="135.3,100.2 135.2,100.1 135.6,101.1 						"/>
						<path class="st0" d="M135.7,106.8c0.7-0.7-0.3-2.4-0.1-3.6l0.2-0.2l-0.6-0.5C135.3,104,135.8,105.8,135.7,106.8z"/>
						<path class="st0" d="M134.4,110.5c0.3-0.2,0.3,0.7,0-0.8c0,0.1,0,0.1-0.1,0.2C134.4,109.9,134.4,110.1,134.4,110.5z"/>
						<path class="st0" d="M134.4,109.8C134.3,109.1,134.1,110.2,134.4,109.8L134.4,109.8z"/>
						<path class="st0" d="M134.7,113l-0.3-0.9c-0.2,0.2-0.1,1-0.3,0.7C134.3,113.7,134.5,113.5,134.7,113z"/>
						<path class="st0" d="M135.3,113.8l-0.1-0.5C135.1,113.4,135.1,113.6,135.3,113.8z"/>
						<path class="st0" d="M134.9,112.4l0.3,1c0.1-0.1,0.3-0.2-0.1-0.5C135.3,113,135,112.8,134.9,112.4z"/>
						<path class="st0" d="M134.9,111.8c0.1-0.5,0.2-1.2,0.5-0.3C135.2,109.7,134.7,110,134.9,111.8z"/>
						<path class="st0" d="M136.5,107.1l0.2-0.7l-0.3-0.6C136.5,106.1,136.2,107.2,136.5,107.1z"/>
						<path class="st0" d="M134.7,118.7c0.2,0,0.4-0.3,0.6-0.4l-0.2-0.7C135,118,135,118.7,134.7,118.7z"/>
						<path class="st0" d="M135.3,118.3l0.3,1C135.6,118.4,135.5,118.2,135.3,118.3z"/>
						<polygon class="st0" points="136.1,113.9 135.4,112.3 136.1,114.2 						"/>
						<polygon class="st0" points="135,122.6 134.6,122 135.2,123 						"/>
						<path class="st0" d="M135.2,125.1c-0.3-0.4-0.4,0.6-0.7,0.2c0.1,0.7,0.4,1.3,0.7,1.8C135.1,126.6,135.1,125.9,135.2,125.1z"/>
						<path class="st0" d="M135.6,128c-0.1-0.3-0.2-0.6-0.4-0.9C135.3,127.4,135.5,127.7,135.6,128z"/>
						<path class="st0" d="M135.7,121c-0.1,0.1-0.3,0.3-0.4,0.8l0.4-0.4C135.7,121.3,135.7,121.2,135.7,121z"/>
						<path class="st0" d="M135.7,121.4L135.7,121.4c0,0.4,0,0.7,0,0.9C135.8,122.2,135.7,121.9,135.7,121.4z"/>
						<path class="st0" d="M135.7,120.9c0,0,0,0.1,0,0.1C135.7,121,135.7,121,135.7,120.9z"/>
						<path class="st0" d="M135.9,116.6c0.3,0.6,0.6,1.8,0.9,0.6C136.5,116.8,136.3,117.5,135.9,116.6z"/>
						<path class="st0" d="M136.2,120.4l0-1.1c-0.1,0-0.3,0.2-0.4-0.1L136.2,120.4z"/>
						<polygon class="st0" points="136.4,120.9 136.2,120.4 136.2,120.8 						"/>
						<path class="st0" d="M135.9,126.1c0.2,0.5,0.3,1,0.3,1.5c0-0.6,0-1.3,0-1.9C136.1,125.7,135.8,125.5,135.9,126.1z"/>
						<path class="st0" d="M135.9,123.8c0,0,0,0.1,0,0.1C135.9,123.9,135.9,123.8,135.9,123.8z"/>
						<polygon class="st0" points="136.7,133.3 136.7,133.2 136.7,133.2 						"/>
						<path class="st0" d="M136.3,125.7c0-0.5-0.1-0.7-0.2-1c0.1,0.3,0.1,0.7,0.2,1.1C136.3,125.8,136.3,125.8,136.3,125.7z"/>
						<path class="st0" d="M136,129.6c0.1-0.2,0.1-0.5,0.2-0.8C136,129,135.8,129.5,136,129.6z"/>
						<path class="st0" d="M135.8,124.1L135.8,124.1C135.7,124.2,135.7,124.2,135.8,124.1z"/>
						<path class="st0" d="M135.8,124.1c0.1,0.2,0.2,0.4,0.3,0.6c-0.1-0.3-0.1-0.5-0.2-0.8C135.9,124,135.8,124.1,135.8,124.1z"/>
						<path class="st0" d="M139.5,134.8c-0.4-0.1-0.9-1.2-0.5-2.3c-0.4-1-1.6-0.2-2.3,0.7c0.2,0,0.3,0,0.6,1
							c0.2-0.4,0.3-2.4,0.7-1.5c0.3,1.4-0.1,1.2-0.2,1.9c0.4-0.6,0.9,1.7,1.6,1.4l-0.4-1.2C139.3,134.7,139.5,135.1,139.5,134.8z"/>
						<path class="st0" d="M136.6,131.2l-0.1-0.4c0,0.5-0.2,0.9-0.4,1.6c0.2,0.7,0.4,0.9,0.5,0.9l-0.1-2.2L136.6,131.2z"/>
						<path class="st0" d="M136.4,128.8c0.5,0.3,0.7,1.3,1.1,0.7c-0.1-1.3-0.4-0.9-0.7-1.6C137.1,129.9,136.6,127.2,136.4,128.8
							c-0.1-0.4-0.1-0.8-0.1-1.1c0,0.4-0.1,0.7-0.1,1.1c0,0,0,0,0,0l0,0l0,0c0-0.1,0.1-0.1,0.1,0c0,0,0,0,0,0
							C136.3,128.7,136.3,128.7,136.4,128.8c0,0.6-0.1,0.1-0.2-0.1c0,0,0,0-0.1,0l0,0l0.4,2.1C136.6,130.3,136.5,129.7,136.4,128.8z
							"/>
						<path class="st0" d="M137.8,118.2C137.8,118.3,137.7,118.3,137.8,118.2C137.8,118.4,137.8,118.5,137.8,118.2z"/>
						<path class="st0" d="M137.6,119.1c-0.1-0.1-0.3-0.3-0.2-0.8c0.1-0.4,0.2,0,0.3,0c-0.1-0.3-0.4-1-0.5-0.1l0.1,0.1
							c-0.1,0.8-0.5,2-0.6,1.8C137,119.9,137.3,119.7,137.6,119.1z"/>
						<path class="st0" d="M137.1,124l0.3,1.7l0.3-0.9l-0.2,0.1C137.5,123.9,137.3,124.1,137.1,124z"/>
						<polygon class="st0" points="136.5,133.5 136,133.3 136.7,134.3 						"/>
						<polygon class="st0" points="136.7,135.7 136.3,135.7 136.6,136.3 						"/>
						<path class="st0" d="M158.9,180.4l-0.1-0.5C158.9,180.1,158.9,180.3,158.9,180.4z"/>
						<path class="st0" d="M158.6,184l0.2,0.1C158.7,184,158.7,183.9,158.6,184z"/>
						<path class="st0" d="M141.3,190.8c-0.3,0.8-0.8,1.6-0.4,1.5l0.4-0.3C141.2,191.5,141.3,191.1,141.3,190.8z"/>
						<path class="st0" d="M158.4,214.2c-0.1,0-0.1,0.1-0.2,0.1l0,0.1c0,0.2,0.1,0.4,0.1,0.6c0-0.2,0.1-0.3,0.1-0.5
							C158.4,214.4,158.4,214.3,158.4,214.2z"/>
						<path class="st0" d="M156.7,213.3l0.2-0.2c0.1-0.1,0.1-0.3,0.2-0.4c-0.1,0.1-0.1,0.2-0.2,0.4
							C156.9,213,156.8,213.1,156.7,213.3z"/>
						<path class="st0" d="M159.9,160.3l-0.4-0.6C159.4,160.6,159.7,160.2,159.9,160.3z"/>
						<path class="st0" d="M138.7,158.7c-0.1,0.7-0.1,1.2-0.1,1.6C138.8,159.5,139.1,158.9,138.7,158.7z"/>
						<path class="st0" d="M163.4,182.2c-0.1-0.3-0.1-0.5-0.2-0.5C163.2,182,163.3,182.2,163.4,182.2z"/>
						<path class="st0" d="M138.7,162.1c0-0.1,0-0.2,0.1-0.3c-0.1-0.5-0.2-0.9-0.2-1.5C138.4,160.9,138.4,161.5,138.7,162.1z"/>
						<path class="st0" d="M162.3,92c0,0-0.1-0.1-0.1-0.1C162.2,92,162.2,92,162.3,92z"/>
						<path class="st0" d="M141.9,88.4c0.2-0.1,0.6-0.2,0.9-0.3C142.6,88.1,142.4,88.2,141.9,88.4z"/>
						<path class="st0" d="M137.2,144.8C137.2,144.3,137.2,144.7,137.2,144.8L137.2,144.8z"/>
						<path class="st0" d="M138.8,142.3c0.1,0.1,0.1,0.2,0.2,0.2C138.9,142.5,138.8,142.4,138.8,142.3z"/>
						<path class="st0" d="M141.8,166.6C141.8,166.7,141.8,166.7,141.8,166.6C141.9,166.5,141.9,166.6,141.8,166.6z"/>
						<path class="st0" d="M137.4,144c0,0.2-0.1,0.4-0.1,0.6C137.3,144.6,137.3,144.4,137.4,144z"/>
						<path class="st0" d="M137.2,144.2c0-0.2,0-0.3,0-0.4C137.1,143.7,137.1,143.7,137.2,144.2z"/>
						<path class="st0" d="M137.3,145.4c0-0.3,0-0.5,0-0.8c0,0.1,0,0.1-0.1,0.1C137.2,144.9,137.3,145.1,137.3,145.4z"/>
						<path class="st0" d="M163.7,126.7C163.7,126.7,163.7,126.6,163.7,126.7C163.6,126.1,163.6,126.3,163.7,126.7z"/>
						<path class="st0" d="M146.9,202.7C146.9,202.7,146.9,202.7,146.9,202.7C146.9,202.7,146.9,202.7,146.9,202.7L146.9,202.7z"/>
						<path class="st0" d="M147.4,204.4c-0.6-0.7-0.6-1.1-0.5-1.7l-1.2,0.7L147.4,204.4z"/>
						<path class="st0" d="M159.5,171.6l-0.5,1.2c-0.5-1.5-0.2-2.5-0.9-1.4c1.3,0.3-0.2,4.7,1.1,4.9l-0.3,0.8c0-0.2,0-0.3,0-0.5
							c-0.8,1.5,0.9,1.2,0.6,3.2c-0.2,0.7-0.4,1.1-0.5,0.7l0.2,1.6c-0.1,0.4-0.3,0.3-0.2-0.1l-0.1,2.4l0,0c0.2,0.4,0.5,1.1,0.6,1.5
							c-0.2,0.6-0.1-0.3-0.3-0.2l0.2,1.3c-0.4,0.5-0.7-0.6-0.5-1.5c-1.4,1.1,0.3,1.1-0.7,3.7l-0.1-1.2c-0.8,0.7-0.6,1.7-1.2,3.1
							c0.3-0.3,1.4-2.7,1.6-1.2c-0.1,0.4-0.2,0.9,0,1.7c-0.5,0-0.4,0.7-0.5,1.7l-0.6-0.1c0.1,1,0.4,1,0.7,1.6
							c-0.1,1.1-0.7,1.3-1.1,1.5c-0.2,1.8,0.9-1.2,0.8,1c-0.4,1.5-0.2,2.5,0.1,4.3c-0.3,1-0.4-0.2-0.6,0.1l0.4,1
							c0,0.2-0.2,0.1-0.3,0.1c0.1,0.8,0.6,0.1,0.7,1.4c0.7,0.4-1.2,2.4-0.6,4c-0.2,0.4-0.4-0.2-0.6-0.1c0.3,2.1,0.2,1.8,0.8,3.6
							l-0.6,1.4c0.6-1,1,0.4,1.3,1.6c0.3-0.3,0.5-0.6,0.7-0.8c0,0.4,0.1,0.9-0.1,1.4c-0.1,0.3-0.2,0.5-0.4,0.8
							c-0.3,0.1-0.3-0.2-0.3-0.6c0,0.1-0.1,0.3-0.1,0.4c-0.7,0.4-0.6-0.2-0.7-0.7c0.2-0.1,0.4-0.2,0.6-0.3l0.1,0c-0.2-0.6-0.7-1-1-1
							c0.1,0.1,0.1,0.3,0.1,0.5c-0.1-0.1-0.2-0.2-0.2-0.2c-0.1,0,0,0.1,0.1,0.3c0,0,0,0.1,0,0.2c-0.3,0-0.5-0.1-0.8-0.2l0.2,0.2
							c-0.2,0.1-0.4,0.2-0.7,0.3c-0.1,0-0.2,0-0.3,0l-0.4,0c-0.5,0.5-1.1,1.1-2,1.5c-0.9,0.4-2,0.8-3.4,0.6c0.8-0.3,0.3-0.8,0.6-1.4
							c0.2,0.4,0.7,0.4,1.3,0.3c0.6-0.1,1.2-0.3,1.9-0.3c-0.7,0-0.5-0.3-0.4-0.4c-0.8,0.2-1.5,0.4-2.2,0.5c0.1-0.5-0.4-0.5-0.7-0.8
							c0,0.3-0.2,0.5-0.4,0.5c-0.4,0.1-1.4-0.8-2-1.1c0.2-0.3,0.6-0.3,1.4,0.5c-0.2-0.7-0.7-0.7-1.2-0.8c-0.4,0-1,0-1-0.6
							c0,0,0,0,0-0.1c0,0,0,0,0,0.1c0.1,0.2,0.1,0.2,0.3,0.2c-0.1,0-0.2-0.1-0.3-0.2c-0.1-0.3-0.1-0.6,0-0.8c0-0.3,0.1-0.5,0.3-0.4
							l0,0.3c-0.1-2.1-0.6-6.4-1.5-6.6c0.1,0,1,0.2,1.2,0.3l-3.2-3.5c0.8,0.3,2.4-1.2,2.9,0.5c0.1-0.5,0.1-1.1-0.2-2.2
							c-0.1,0.4-1,0.9-1.1,0.5c0.7-1.4,0.4-0.9,0.9-2.6c-0.1,0.5-1.3,0.1-1.3-0.8c0.2,0.1,1.1-0.2,1.3,0.1l-1.3-1.9
							c0.2,0.5,1,0,1.2-0.5c-0.2,0.2-0.1-1.7-0.3-2.3l-0.2,0.9c0-2.3-1.8-2.1-1.9-4.4c0.3,0.3,1.5,0.6,1.5-0.6
							c-0.6-0.5-3-2.1-3.6-4.1l0.3-0.4l-0.5-1.5c0.9,0.9,3,3.4,3.8,4.8c0.2-0.9,0.4-0.3,0.2-1.5c0.3-0.5,0.5,0.7,0.6,1l-0.1-3
							c-0.7,0.2-0.9-2.2-1.4-2.1l1,3.2c-0.7,0.2-2.1-1.7-2.1-3.8c0.2-0.6,1.2,0.3,1.4,0.2c-0.3-0.3-0.6-2-0.5-2.2l0.4,0.9
							c0.2-1.2-1.1-1.8-0.5-3.3c0-0.5,0.7-1.5,0.3-1.6c-0.7,0.9-3,1.2-3.7,0.7c0-0.2,0.5-2.6,0.8-3.2c0.5-0.9,1.5,1.1,2,0.4
							c-0.2,0-0.4-0.4-0.5-0.6c0.1-0.5,0.6,0.2,0.4-0.9c-0.7-0.1-0.1-2.3-0.6-0.5c-0.3-1.1,0-1.2-0.1-2.4c-0.4,0.4-1.6-1-1.9-2.1
							c0.2,0,0.4-0.2,0.5-0.3c-0.1-2.2,0.1-3.5-0.1-5.5c0.1-0.2,0.3-1.2,0.6-0.8c-0.1-0.3-0.4-0.5-0.5-1.2c0.5-1.3,0.2,1.4,0.8,0.4
							c-0.4,0-0.7-1.6-1-2.5c-0.6,0.3,0.1,2.1,0.4,3c-0.8,0.1-1.9-1.4-2.4-3.6c-0.4-1.7,0.5-0.8,0.3-1.1c-0.1-3.3-1.7-2.6-1.3-5.4
							c0.4-1.1,1.1-0.1,1.4-0.4c0.3,1.4-0.2,2.2-0.1,3.1l0.2-1.2c0.2,0.4,0.4,1.4,0.3,1.9c0.4-0.9-0.4-5.5-0.1-8
							c-0.2-0.4-0.5-1.2-0.6-0.8l0.1,0.8c-0.4,0.8-0.7-1.4-0.8-0.4c-0.4-1-1-2.2-0.8-3.7l0.6-0.3c-0.2,0-0.3,1-0.1,1.4
							c-0.3-0.6,0.6-2.4-0.2-3l-0.3,1.1c-0.4-1-1.1-2.3-1.1-3.6c-0.6,0.7,0.1,0.3-0.5,1.3c0.8-0.9,0.2,3.4,1,2c-0.7,1-0.2,1.7-0.8,3
							c0.2-0.1,0.3-0.5,0.3,0.6c0.1,0,0.1,0.2,0.2,0.2c0,0,0,0,0,0.1c0,0,0,0,0-0.1c0,0,0,0,0,0c0.1-0.3,0.2-0.5,0.3-0.6
							c0.5,0.5,0.6,2.3,0.9,2.9c0,0.7-0.3-0.3-0.4,0.1l0.4,0.9c-0.4,0.1-0.6,1.8-1,0.3l0.1,1.4c-0.2,0.8-0.2,2,0.1,2.7
							c0,0.7,0.6,1.6,0.2,1.1l0.5,2.2l-0.1,0c0.1,2.2,1.1,4.4,0.5,6.9c0.2,0.7,0.4,1.5,0.3,2.7l-0.4,0.3c0.2,0.9-0.2,2.8,0.3,3.2
							c-1,1.1,0.2,4.6,0.1,6.2l0.5,0c0.1,1.1,0.3,2.2,0.6,3.6l0.4-0.1c0.5,1.2-0.1,3.1,0.2,5.1c-0.2-0.1-0.2-0.6-0.1-1
							c-0.8,2.4,1.2,4.8,0.6,6.9c0.2,0.5,0.2,0.9,0.1,1.3c0,0,0-0.1,0-0.1c0,0.1,0,0.1,0,0.2c-0.1,0.2-0.1,0.5-0.2,0.7
							c0.1-0.2,0.2-0.4,0.2-0.6c0,0.4,0.2,1,0.3,1.6l-0.5,0.3c0,0,0,0.1,0,0.1c-0.1,0.6,0.3,0.4,0.6,0.1c0.1,0.3,0.2,0.6,0.4,0.8
							c-0.7,0.5,0.4,1.5-0.4,2.3c0.4,0.4,0.6,3,1.4,3.2c-0.1,0-0.1,0.2-0.2-0.1c0,0.7-0.1,1.3,0.2,1.9l-0.6,0.3l0.9,1.4
							c-0.3,0.9-0.5,1.3-1,0.5c0.9,2,0.4,1.7,1.3,3.4l-0.4-0.1c0.1,0.6,0.7,1.6,0.4,2c-0.2,0.4-0.2,1.2-0.2,2.3
							c0,0.5,0.1,1.1,0.1,1.7c0.1,0.5,0.1,1.5,0.3,2.3c0.5,0.9,1.4,1.8,1.9,2.3c0.6,0.6,1.1,1.2,2,1.8c0.3,0.2,0.6,0.3,0.8,0.4
							c-0.3-0.7,0.2-0.4,0.8-0.1c0.6,0.3,1.4,0.6,1.5,0.1c0.2,0.3,0.8,0.5,0.1,0.7c1.1-0.1,1.9,0,2.7,0c0.8,0,1.5-0.2,2.2-0.8
							c0.4,0.2-0.4,0.5-0.1,0.6c0.2-0.1,0.7-0.5,1-0.4c0.3,0-0.3,0.4-0.6,0.6c0.3-0.1,0.6-0.2,0.9-0.4c0.3-0.2,0.5-0.3,0.7-0.5
							c0.4-0.3,0.6-0.6,0.7-0.9c0.2-0.5-0.1-0.9-0.3-1.2c0.6-0.3,0.9-0.7,1.1-1.1c0.2-0.4,0.1-0.9-0.1-1.4c0.2-0.2,0.3-0.5,0.4-0.5
							c0.1,0,0.1,0,0.1,0.1c0,0.1,0,0.4,0,0.8c0-0.2,0.1-0.6,0.2-1.2c0.1-0.4,0.2-0.9,0.2-1.4c0.1-1,0.1-1.8-0.2-1.9
							c0.2-0.2,0.1-0.9,0.1-1.1c0.2-1.5,0.2-1.6,0.3-3.1l-0.1,0.4c-0.7-0.6-0.1-1.2-0.1-2.4l0.1,0c0.8-2.7-0.2-1.2,0.7-3.8l-0.5,0.1
							c-1-0.3,0.8-2.3,0.5-3.9l-0.3,0.5c-0.3-0.9,1.6-2.3,1.8-3.1c0.1-0.2,0.1,0.3,0.2,0.6c0.8-2.2-0.6-0.3-0.6-2
							c0.4-0.3,0.8,0.5,1-0.7c0.3-0.5-0.9-3.3-0.1-4.8c-0.3,0.3-0.6,0.6-0.7-0.2c0-1.2,1.2-3.1,0.5-4.3c0.1-0.1,0.2-0.2,0.2-0.2
							c-0.1-0.9-0.1-3-0.5-3.6c1.7-0.7-0.4-5.7,1.1-5.6l0.1-2.8l0.2,0.1c0.2-1.8-0.1-2.4-0.4-3.1c0.1-0.4,0.3-0.1,0.3-0.1
							c0.5-2.6,0.4-2.9-0.2-5.1l0.5-0.2c-0.2-0.6,1-3.7,0.6-6.3c0.1,0,0.1,0.1,0.2,0.3c-0.4-2.9,1.8-6.8,0.1-8l-0.3-1.9
							c-0.3,2.5-0.8-0.4-1.1,0.6c0-1,0.7-2.5,0.7-1.3l-0.1,0.2c0.9,0.5,0.5-3,1.2-2.9c0.3-4.9,1.1-9.5,1.4-14.1l-0.8,0.5l0.1-1.6
							c0.2-0.4,0.6-0.5,0.5,0.6c0.5-0.6-0.2-1.9-0.4-2c0.4-2.2,0.8,0.9,0.9,0.2l0-0.9l-0.1,0.2c-0.3-0.8-0.6-0.9-0.4-2.2
							c0.2-0.9,0.5-0.4,0.5-0.7c0.1,0,0.1-0.1,0.1-0.5l0.2-2l-0.6,0.8c-0.2-0.9,0.1-1.9-0.6-1c1.1-1.3,0.8-7.4,1.2-8.2
							c-0.3-1.3-0.3-2.5-0.1-4c-0.1,0.4-0.8,0.6-0.6-0.7c1.3,0.6,0.7-2.4,1.7-3.4c-0.7,0.9,0-3.7-0.9-2.3c0.2-1.1,0.5,0,0.9-0.9
							c-0.2-1.3,0-2.7,0.1-4.3c0-0.4,0.1-0.8,0.1-1.2l0-0.3l0-0.4c0-0.3,0-0.6,0-0.9c0-0.3,0-0.6,0-0.9c0-0.1,0-0.3-0.1-0.4
							l-0.2-0.4l-0.1-0.1l0,0l0,0l0,0c0,0-0.1,0.1,0.1-0.1l0,0l0,0l-0.1-0.2c-0.1-0.1-0.2-0.2-0.3-0.3c-0.2-0.2-0.5-0.4-0.7-0.6
							c-0.2,0.1,0.1,0.6-0.5,0.4c0,0-0.1,0-0.2-0.1c-0.2-0.3-0.4-0.7-0.7-1l-0.6-0.9c-0.7-0.2-1,0.6-2-0.5c0.1,0.2,0.3,0.5-0.2,0.4
							c-1.5-0.8-3.2-1.3-4.9-1.5c-1.7-0.2-3.4-0.1-5.1,0c-3.4,0.4-6.5,0.9-10,0.9c1,0.1,0.4,0.3-0.3,0.5c0.5,0,0.1,0.4,0.3,0.6
							c-0.9,0-1.9,0.1-2.9,0.2c-0.1,0.4-0.8,0.7-1.5,1c-0.7,0.3-1.3,0.7-1.3,1c0.2-0.2,0.5-0.4,0.7-0.5c-0.4,0.6,0.2,0.8,0.9,0.9
							c0.7,0.2,1.4,0.4,1.5,0.8c0.4-0.6,1.3-0.6,2.2-0.6c0.9,0,1.9,0,2.8-0.8c0.5,0.1-0.3,0.4,0,0.5c0.4-0.5,1-0.7,2.2-0.7l-0.1,0.1
							c1.6-0.3,2.7-0.4,3.9-0.5c1.2,0,2.4,0,4.1,0.2l-0.3-0.5c0.7,0.1,0.9,0.2,1.2,0.4c0.9-0.7-2.1-0.1-1.3-0.9
							c0.5,0.5,1.8,0.5,3,0.7c1.2,0.2,2.4,0.5,2.5,1.2c1,0.3-0.1-0.6,0.9-0.3l0.2,0.4l0.4-0.3c0.6,0.3,0.8,0.8,0.7,1.1
							c-0.1-0.1-0.4-0.1-0.6-0.2c0.3,0.3,0.7,0.5,1,0.7c0.2,0.1,0.3,0.1,0.4,0.2c0.1,0,0.2,0.1,0.2,0.1c0.1,0,0.1,0.1,0.1,0.1
							l-0.1-0.1c0-0.1-0.1-0.2-0.2-0.3c0.1,0,0.2,0.1,0.3,0.1c0.1,0.1,0.3,0.2,0.5,0.3c0,0.2,0,0.4,0,0.5c0,0.2,0,1.2,0,2
							c0,1.7-0.1,3.4,0.1,4.9l0.2-0.2c0.3,2.5-0.3,2-0.3,4.7l0-0.1c0.2,0.6,0.3,1.3,0.2,2c-0.2-0.7-0.6,1.3-0.8,0.3
							c0.3,2.7,0.3,1.3,1,3.2l-0.4,0.4c0.3,0.6,0.5,0.7,0.5,2c-0.3-1.1-0.6,0.8-1-0.4c-1,2.8,0.6,4.3-0.7,5.5
							c0.9,1.4,0.7-2.4,0.9-1.7c0.4-0.6,0.7,1.1,0.5,2c-0.1,0.9-1.4,1.5-1.5,3.7c0-0.2-0.1-0.2,0-0.5c-0.3,0.8,0.2,1.7-0.2,2.7
							c0.6,0.6-0.1,1.4,0.7,1.6l-0.1-2.1c0.1,1.2,1,2.4,0.4,4.3c-0.1-0.2-0.3-0.8-0.4-1.2c-0.3,0.6,0.1,1.1-0.2,1.7
							c-0.8-0.2,0-2.5-0.5-3.9c-0.4,0.6,0.4,2.4-0.4,1.7c1,1-0.3,2.2,0.5,3.8l-0.5-0.1c0.1,0.2,0.2,0.8,0.2,1.2l-0.6-0.9
							c0.4,1.3-0.6,2.4-0.4,3.6c0.1-2.5,0.6-0.5,1-1.6c0.4,3.1-1.4,1.7-1.4,5.2c0-0.5,0.4-1.7,0.6-1c-0.1,0.7-0.4,1.5-0.7,1.9
							c-0.1,2.3,0.5-0.3,0.7,0.7c-0.6,0.7,0.2,1.1,0.3,2.2l-0.5,0c-0.5,2.6,1,0.8,0.4,3.1l-0.6-1l0.1,1.2l-0.5-0.3
							c0.3,1.4,0.2,1.8-0.1,3.1c0.4-0.3,0.9,0.2,0.8,1.4c-0.3,0.8-0.4-0.5-0.5,1.2c-0.3-0.4-0.6-0.8-0.1-1.5
							c-0.2-0.1-0.3-0.4-0.4-0.5c-0.4,0.8-0.2,2.1-0.3,2.7c0-0.2,0.1-0.5,0.2-0.6l0.5,2.4c-0.2,0.4-0.3,0.1-0.5-0.2
							c0,0.5,0.2,0.8,0.2,1.5c-0.4-0.2-0.8-0.2-0.9-1.2l0.3,2.3c-0.2,0.1-0.5,1.1-0.7,0.8c-0.3,1.2,0.5,3.1,0.1,4.8
							c0.1,0.1,0.1,0.3,0.2,0.6c-0.2,1.6-0.8,2.9-0.4,4.8l-0.8,1c0.1,1.5,1-1.4,1.1,1.1c0.1,1.7-0.6,0.6-0.9,1.2
							c0.3,0.9,0.9,2.4,0.2,3.9C159.3,172.5,159.5,172.1,159.5,171.6z M158.4,189.5c-0.1-0.4-0.3-1.1,0-1.3
							C158.9,188.7,158.7,188.9,158.4,189.5z M156.2,215.2c0.1-0.2,0.4-0.3,0.7-0.4C156.8,215,156.5,215.2,156.2,215.2z M138,150
							C138,150,138.1,150,138,150C137.9,150.8,138,150.5,138,150z M138.1,148.3c-0.1-0.2-0.1-0.1-0.2-0.1c0.1,0.1,0.2,0.5,0.2,0.9
							C138.2,149,138.3,148.8,138.1,148.3z M167.2,121.8l-0.1,0.3C167,121.4,167.1,121.6,167.2,121.8z"/>
						<path class="st0" d="M156.9,213.3c0.1,0,0.2,0,0.3,0C157.1,213.2,157,213.2,156.9,213.3z"/>
						<path class="st0" d="M160,160.4L160,160.4c0-0.1,0-0.1-0.1-0.1L160,160.4z"/>
						<path class="st0" d="M144.3,172.9c0,0.3-0.1,0.5-0.2,0.7C144.2,173.5,144.3,173.4,144.3,172.9z"/>
						<path class="st0" d="M136.6,139.9l0.2,1c-0.1-0.5,0-0.7,0.1-0.9C136.8,140,136.7,140.2,136.6,139.9z"/>
						<path class="st0" d="M138.9,130.7c-0.1-0.1,0-0.3-0.1-0.5l-0.2,0.1C138.6,130.9,138.9,131.4,138.9,130.7z"/>
						<path class="st0" d="M138.1,138.8c0.4-0.1,0.2-0.7,0.1-1.5c0,0,0,0.1,0,0.1C137.6,137.3,137.9,138,138.1,138.8z"/>
						<path class="st0" d="M138.2,137.2c0-0.2-0.1-0.4-0.1-0.7C137.9,136.4,138.1,136.8,138.2,137.2z"/>
						<path class="st0" d="M137.7,146.3c0.1-0.4-0.5-0.2-0.4-0.4C136.8,145.6,138.1,148.2,137.7,146.3z"/>
						<polygon class="st0" points="139.4,138.1 139,138.4 139.4,138.8 						"/>
						<path class="st0" d="M139.5,143.8l0-1.2c-0.1,0-0.1-0.1-0.2-0.3C139.4,143.1,139.4,143.9,139.5,143.8z"/>
						<path class="st0" d="M139.4,142.4c0-0.4-0.1-0.7-0.2-0.9C139.2,141.7,139.3,142.1,139.4,142.4z"/>
						<polygon class="st0" points="139.7,139.7 139.6,140 139.7,140.8 						"/>
						<path class="st0" d="M140.4,156.2l0.2,1.2c0.2,0.1,0.3-0.2,0.2-0.7C140.7,156.5,140.6,156,140.4,156.2z"/>
						<path class="st0" d="M141.5,152.3c-0.1,0.3-0.2,0.4-0.3,0.6l0.6,0L141.5,152.3z"/>
						<path class="st0" d="M141.9,156c0.2,0.1,0.6,1.8,0.5,0.2C142.2,156,142,154.8,141.9,156z"/>
						<polygon class="st0" points="142.7,175 142.7,174.6 141.7,174.8 						"/>
						<path class="st0" d="M146.6,191.4c0.1-1.5-0.7-0.3-0.5-1.7c-0.3-0.3-0.2,1.1-0.4,0.8C146.1,191.4,146,191.9,146.6,191.4z"/>
						<path class="st0" d="M145.7,190.6c-0.1-0.1-0.1-0.3-0.2-0.4C145.6,190.4,145.7,190.5,145.7,190.6z"/>
						<path class="st0" d="M138.1,89.3c-0.4,0.1-0.7,0.2-1.1,0.3c0.3,0,0.5,0,0.8,0L138.1,89.3z"/>
						<path class="st0" d="M136.7,90.9l-0.5-0.4c-0.1,0.3-0.1,0.5-0.2,0.8C136.1,91.1,136.5,90.9,136.7,90.9z"/>
						<path class="st0" d="M156.9,192.1l0.2,0.1c0.2-0.1,0.2-0.4,0.3-0.8L156.9,192.1z"/>
						<polygon class="st0" points="158.4,179.1 158.4,179.4 159,179 						"/>
						<path class="st0" d="M158.4,168.2c-0.1,0.4,0,1,0,1.4C158.4,168.6,159.2,168.1,158.4,168.2z"/>
					</g>
				</g>
			</g>
			<g>
				<g>
					<g>
						<path class="st0" d="M168.3,234c0,0.1,0.4,0.1,0.5,0.1C168.6,233.8,168.2,234,168.3,234z"/>
						<polygon class="st0" points="167.1,231.8 167.3,231.8 166.8,231.6 						"/>
						<path class="st0" d="M166.6,230c-0.6,0.4,0.3,0.6,0.2,1l-0.1,0.1l0.6,0C167,230.7,166.5,230.3,166.6,230z"/>
						<path class="st0" d="M167.6,228.3c-0.2,0.2-0.3-0.1,0,0.3c0,0,0-0.1,0-0.1C167.6,228.5,167.6,228.4,167.6,228.3z"/>
						<path class="st0" d="M167.7,228.5C167.8,228.7,167.8,228.3,167.7,228.5L167.7,228.5z"/>
						<path class="st0" d="M167,227.6l0.4,0.2c0.1-0.1,0-0.4,0.2-0.4C167.3,227.2,167.2,227.3,167,227.6z"/>
						<path class="st0" d="M166.4,227.6l0.2,0.1C166.6,227.6,166.6,227.6,166.4,227.6z"/>
						<path class="st0" d="M166.9,227.9l-0.4-0.2c-0.1,0.1-0.3,0.2,0.1,0.1C166.5,227.8,166.7,227.8,166.9,227.9z"/>
						<path class="st0" d="M166.9,228.1c-0.1,0.2-0.1,0.5-0.4,0.3C166.9,228.9,167.3,228.6,166.9,228.1z"/>
						<path class="st0" d="M165.8,230.1l-0.1,0.2l0.3,0.1C165.8,230.4,166,230,165.8,230.1z"/>
						<path class="st0" d="M166.3,225.7c-0.1,0.1-0.3,0.3-0.4,0.5l0.3,0.1C166.1,226.1,166.1,225.9,166.3,225.7z"/>
						<path class="st0" d="M165.9,226.2l-0.4-0.1C165.6,226.3,165.7,226.3,165.9,226.2z"/>
						<path class="st0" d="M165.7,227.9c0.2,0.1,0.5,0.1,0.7,0.2C166.2,228,165.9,227.9,165.7,227.9L165.7,227.9z"/>
						<polygon class="st0" points="165.4,224.7 165.8,224.6 165.2,224.7 						"/>
						<path class="st0" d="M164.7,224.1c0.3-0.1,0.2-0.5,0.4-0.5c-0.2-0.1-0.6-0.1-0.8-0.1C164.6,223.5,164.7,223.7,164.7,224.1z"/>
						<path class="st0" d="M163.9,223.6c0.1,0,0.3,0,0.5,0C164.2,223.5,164,223.5,163.9,223.6z"/>
						<path class="st0" d="M165.1,225.6c0.1-0.1,0.2-0.3,0.2-0.5l-0.2,0.4C165.1,225.5,165.1,225.6,165.1,225.6z"/>
						<path class="st0" d="M165.1,225.5L165.1,225.5c-0.1-0.1-0.1-0.2-0.2-0.2C164.9,225.3,165,225.4,165.1,225.5z"/>
						<path class="st0" d="M165.2,225.6L165.2,225.6C165.1,225.6,165.1,225.7,165.2,225.6z"/>
						<path class="st0" d="M165.6,227c-0.3,0-0.7-0.2-0.8,0.3C165.1,227.3,165.1,227,165.6,227z"/>
						<path class="st0" d="M164.9,226.1l0.1,0.3c0.1-0.1,0.2-0.2,0.3-0.2L164.9,226.1z"/>
						<polygon class="st0" points="164.6,226.1 164.9,226.1 164.8,226 						"/>
						<path class="st0" d="M164.1,224.3c-0.2,0-0.4-0.1-0.5-0.2c0.1,0.2,0.2,0.4,0.4,0.5C164,224.5,164.3,224.4,164.1,224.3z"/>
						<path class="st0" d="M164.6,224.9L164.6,224.9C164.5,224.9,164.5,224.9,164.6,224.9z"/>
						<path class="st0" d="M162,223C162,223.1,162,223.1,162,223L162,223L162,223z"/>
						<path class="st0" d="M163.9,224.7c0.1,0.2,0.2,0.2,0.3,0.1C164.1,224.8,164,224.7,163.9,224.7
							C163.9,224.6,163.8,224.7,163.9,224.7z"/>
						<path class="st0" d="M163.3,223.4c0,0.1,0,0.2,0.1,0.3C163.4,223.6,163.4,223.3,163.3,223.4z"/>
						<path class="st0" d="M164.6,224.8C164.6,224.8,164.6,224.8,164.6,224.8C164.6,224.7,164.6,224.7,164.6,224.8z"/>
						<path class="st0" d="M164.6,224.8c-0.1,0-0.2,0-0.3,0c0.1,0,0.2,0.1,0.3,0.1C164.5,224.8,164.5,224.8,164.6,224.8z"/>
						<path class="st0" d="M160.2,225.1c0.2-0.3,0.7-0.5,0.7,0c0.4-0.1,1-1.3,1.1-2.1c-0.1,0.1-0.2,0.3-0.6,0.3c0,0.2,0.3,0.8-0.1,1
							c-0.4,0-0.2-0.3-0.3-0.6c-0.1,0.5-0.8,0.4-1.1,1.1l0.4-0.1C160.4,224.9,160.2,225,160.2,225.1z"/>
						<path class="st0" d="M162.6,223.5l0.1,0c-0.1-0.1-0.1-0.3-0.1-0.7c-0.3,0-0.4,0.1-0.5,0.2
							C162.3,223.2,162.4,223.3,162.6,223.5L162.6,223.5z"/>
						<path class="st0" d="M163.2,223.9c-0.4,0.3-0.7,0.2-0.8,0.7c0.3,0.2,0.4-0.1,0.7-0.1C162.5,224.2,163.4,224.5,163.2,223.9
							c0.1,0.1,0.2,0.1,0.3,0.2c-0.1-0.1-0.1-0.2-0.2-0.4l0,0l0,0l0,0c0,0.1,0,0.1,0,0c0,0,0,0,0,0
							C163.3,223.9,163.3,223.9,163.2,223.9c-0.1-0.2,0-0.1,0.1-0.1l0,0l0,0c-0.2-0.1-0.5-0.2-0.7-0.2
							C162.8,223.7,162.9,223.8,163.2,223.9z"/>
						<path class="st0" d="M163.8,227.6C163.9,227.6,163.9,227.6,163.8,227.6C163.8,227.6,163.8,227.6,163.8,227.6z"/>
						<path class="st0" d="M163.9,227.3c0.1,0,0.2-0.1,0.3,0.1c0,0.2-0.2,0.1-0.3,0.2c0.1,0,0.4,0.1,0.4-0.3l-0.1,0
							c0-0.3,0.2-0.9,0.3-0.9C164.3,226.7,164.1,226.9,163.9,227.3z"/>
						<path class="st0" d="M163.6,225.7c-0.2-0.1-0.3-0.1-0.5-0.2l-0.1,0.4l0.1-0.2C163.3,226,163.5,225.8,163.6,225.7z"/>
						<polygon class="st0" points="162.1,222.8 162.4,222.5 161.8,222.9 						"/>
						<polygon class="st0" points="161.5,222.5 161.7,222.2 161.4,222.3 						"/>
						<path class="st0" d="M143.8,239.6l0.2,0C143.9,239.6,143.8,239.6,143.8,239.6z"/>
						<path class="st0" d="M143.4,239l-0.2,0.1C143.4,239.1,143.4,239,143.4,239z"/>
						<path class="st0" d="M144.8,222.4c-0.4-0.2-0.9-0.6-0.7-0.2l0.3,0.3C144.5,222.3,144.7,222.3,144.8,222.4z"/>
						<path class="st0" d="M140.4,232.4c0,0,0.1,0,0.1,0c-0.1-0.1-0.3-0.1-0.4-0.2C140.2,232.2,140.3,232.3,140.4,232.4z"/>
						<path class="st0" d="M142.1,232.9l-0.3,0.2C141.9,233,142,233,142.1,232.9z"/>
						<path class="st0" d="M147.3,241.9l0.3-0.3C147.4,241.5,147.4,241.8,147.3,241.9z"/>
						<path class="st0" d="M154.5,220.7c-0.2-0.2-0.3-0.3-0.5-0.3C154.3,220.7,154.5,221,154.5,220.7z"/>
						<path class="st0" d="M139.8,241.9c0.1,0,0.2,0,0.3,0C140,241.9,139.9,241.8,139.8,241.9z"/>
						<path class="st0" d="M153.5,220.4c0,0,0.1,0.1,0.1,0.1c0.1-0.1,0.3-0.1,0.5-0.1C153.9,220.2,153.7,220.1,153.5,220.4z"/>
						<path class="st0" d="M161.7,239.5C161.7,239.5,161.8,239.5,161.7,239.5C161.7,239.4,161.7,239.4,161.7,239.5z"/>
						<path class="st0" d="M167.6,236c0,0.1,0,0.2,0,0.3C167.6,236.2,167.6,236.1,167.6,236z"/>
						<path class="st0" d="M158.9,221.2C159,221.2,158.9,221.1,158.9,221.2L158.9,221.2z"/>
						<path class="st0" d="M159,223c0,0-0.1,0.1-0.1,0.2C158.9,223.1,158.9,223.1,159,223z"/>
						<path class="st0" d="M152.2,223.1L152.2,223.1C152.2,223.2,152.2,223.1,152.2,223.1z"/>
						<path class="st0" d="M159,221.4c0-0.1-0.1-0.1-0.1-0.2C158.9,221.3,159,221.3,159,221.4z"/>
						<path class="st0" d="M159.1,221.2c0,0,0.1,0.1,0.1,0.1C159.2,221.3,159.2,221.2,159.1,221.2z"/>
						<path class="st0" d="M158.7,221.1c0.1,0,0.2,0.1,0.2,0.1c0,0,0-0.1,0-0.1C158.8,221.2,158.8,221.1,158.7,221.1z"/>
						<path class="st0" d="M154.6,244.5C154.6,244.5,154.6,244.5,154.6,244.5C154.7,244.3,154.7,244.3,154.6,244.5z"/>
						<path class="st0" d="M144.8,227.9C144.8,227.9,144.8,227.9,144.8,227.9L144.8,227.9L144.8,227.9z"/>
						<path class="st0" d="M144.7,228.4c-0.3-0.5-0.2-0.5,0-0.5l-1-0.8C144.1,227.6,144.4,228,144.7,228.4z"/>
						<path class="st0" d="M145.1,240.9c0-0.2,0-0.3,0.1-0.5c0.6-0.3,0.6,0,0.8-0.6c-0.9,1-0.7-0.5-1.7,0.4l0.1-0.3c0,0,0.1,0,0.1,0
							c0.3-0.6-0.9,0.5-1,0c0-0.2,0.1-0.4,0.3-0.4c-0.2,0-0.3,0-0.5-0.1c0-0.1,0.2-0.2,0.2-0.1c-0.1-0.1-0.2-0.2-0.3-0.3l0,0
							c-0.2,0-0.6,0.1-0.7,0.1c0.1-0.2,0.2,0,0.3-0.1c-0.1,0-0.3-0.1-0.4-0.1c0.3-0.2,0.7-0.2,0.7,0c1.1-0.8-0.4-0.1,0.1-0.8
							l0.2,0.1c0.7-0.4,0.3-0.5,0.7-0.8c-0.2,0.1-1,0.8-1.4,0.7c0.1-0.1,0.1-0.2-0.2-0.3c0.5-0.2,0.3-0.2,0.2-0.4l0.6-0.1
							c-0.2-0.2-0.5-0.1-0.9-0.2c0-0.3,0.5-0.4,0.9-0.6c0-0.4-0.7,0.4-0.9,0c0.2-0.4-0.1-0.6-0.5-0.9c0.2-0.3,0.4,0,0.6-0.1
							l-0.5-0.2c0-0.1,0.2,0,0.2,0c-0.2-0.2-0.6,0-0.8-0.2c-0.4,0-0.1-0.2,0.1-0.4c0.2-0.2,0.5-0.3,0.1-0.5c0.2-0.1,0.4,0.1,0.6,0.1
							c-0.5-0.5-0.3-0.4-1-0.9l0.5-0.3c-0.5,0.2-1-0.2-1.4-0.7c-0.2,0.1-0.5,0.1-0.6,0.1l-0.2-0.6c0.1,0,0.3,0.1,0.6,0.2
							c0,0-0.1-0.1-0.1-0.1c0.3-0.1,0.6,0,0.9,0.2c-0.1,0-0.3,0.1-0.4,0.1c0.4,0.2,0.8,0.4,1.1,0.4c-0.1,0-0.1-0.1-0.1-0.2
							c0.1,0.1,0.2,0.1,0.3,0.1c0.1,0-0.1-0.1-0.2-0.2l0.7,0l-0.3-0.1l0.6-0.5c-0.6-0.6-1.5-1.2-1.5-2.1c0.4,0.4,0.8,0.4,1.3,0.6
							c-0.7-0.1,0.1,0.6-0.1,0.8c0.1-0.1,0.4,0,0.5,0.1c-0.1-0.2-0.3-0.5-0.4-0.7c0.5,0.2,0.4,0,0.6,0c-1-0.3-0.4-0.7-0.6-1
							c0.3,0.2,0.6,0.4,0.4,0.6c0.8,0.1-0.8-0.9-0.1-0.9c0,0.1-0.1,0.1,0,0.2c-0.2-0.3,0.3-0.5,0.5-0.3l0,0.1
							c0.4-0.4,0.9-1.2,0.3-1.8c0.1,0.1,0.7,0.7,0.8,0.9c-0.5-0.8-1-1.7-1.4-2.7c0.4,0.6,1.8,1.7,1.8,2.2c0.2,0,0.3,0,0.3-0.4
							c-0.1,0-0.9-0.7-0.8-0.8c0.8,0.4,0.5,0.2,1.2,0.5c-0.2,0-0.8-1-0.6-1.1c0.1,0.2,0.7,0.9,0.7,1c-0.1-0.4-0.2-0.8-0.3-1.2
							c0,0.2,0.5,0.8,0.8,1c-0.2-0.2,0.3-0.2,0.4-0.4l-0.3-0.1c0.5-0.1-0.4-1.6,0.2-1.9c0,0.2,0.5,1.3,0.9,1.3
							c-0.1-0.3-0.3-0.9-0.4-1.7c-0.1-0.7-0.1-1.4,0.1-1.7l0.2,0.3c0.1-0.2,0.2-0.3,0.3-0.5c0,0.9,0,2.9,0,3.6
							c0.3,0.2,0.2,0.3,0.4,0.2c0.2,0.2,0.1,0.5,0,0.5c0.2,0,0.4,0,0.6,0c-0.3-0.6,0.2-0.8,0-1.3c-0.2,0.3-0.3,0.6-0.4,0.9
							c-0.3-0.6-0.3-1.9,0.3-2c0.2,0.2,0.2,1.2,0.3,1.4c0-0.2,0.3-0.5,0.4-0.4l-0.1,0.4c0.3,0.2,0.2-1,0.7-0.4
							c0.1,0,0.5,0.8,0.4,0.4c-0.3-0.7-0.8-3-0.7-3.6c0.1,0,0.8,0.6,1,1c0.3,0.6-0.1,1.5,0.1,2c0-0.2,0.1-0.4,0.1-0.5
							c0.1,0.1,0,0.6,0.3,0.5c0-0.7,0.6,0,0.1-0.6c0.3-0.2,0.3,0.1,0.6,0.1c-0.1-0.4,0.2-1.5,0.5-1.7c0,0.2,0.1,0.4,0.1,0.5
							c0.6,0,0.9,0.4,1.5,0.4c0,0.2,0.3,0.4,0.2,0.7c0.1-0.1,0.2-0.3,0.3-0.4c0.3,0.6-0.4,0.1-0.2,0.8c0-0.4,0.4-0.5,0.7-0.7
							c0-0.6-0.5-0.2-0.8,0.1c0-0.8,0.5-1.7,1.2-2c0.5-0.2,0.1,0.6,0.2,0.5c0.9,0.3,1-1.3,1.7-0.6c0.2,0.6-0.2,1-0.2,1.4
							c-0.4,0.1-0.5-0.5-0.8-0.5l0.3,0.3c-0.2,0.2-0.4,0.2-0.5,0.1c0.2,0.5,1.4,0.4,1.9,1c0.2-0.1,0.4-0.2,0.4-0.5l-0.2,0
							c-0.1-0.5,0.6-0.4,0.4-0.7c0.4-0.2,0.9-0.5,1.2-0.1l-0.2,0.6c0.1-0.2-0.1-0.4-0.3-0.3c0.3-0.2,0.3,1,0.8,0.4l-0.1-0.5
							c0.4-0.2,1.1-0.6,1.3-0.2c0.1-0.6-0.1,0-0.1-0.7c-0.2,0.9-1-0.5-1,0.5c0.1-0.9-0.3-0.5-0.5-1.3c-0.1,0.2,0,0.4-0.3,0.2
							c0,0-0.1,0.1-0.1,0.1c0,0,0,0,0,0l0,0c0,0,0,0,0,0c0.1,0.1,0.1,0.2,0.1,0.4c-0.3,0.4-0.8,0.2-1.1,0.4
							c-0.2-0.1,0.1-0.2,0.1-0.4l-0.4,0.3c0.1-0.4-0.3-0.9,0.2-1l-0.4-0.1c-0.2-0.3-0.5-0.5-0.8-0.3c-0.2-0.1-0.6,0.4-0.4,0.1
							c-0.2,0.1-0.5,0.1-0.7,0.2l0-0.1c-0.7-0.1-1.4,0.6-2.1-0.2c-0.2,0.1-0.4,0.2-0.8,0.1l-0.1-0.4c-0.3,0.1-0.9-0.4-1,0
							c-0.4-1-1.4-0.1-2-0.2l0,0.5c-0.4,0-0.7,0.2-1.1,0.5l0.1,0.4c-0.3,0.4-1-0.1-1.6,0.1c0-0.2,0.2-0.2,0.3-0.1
							c-0.5-0.4-0.8-0.1-1.1,0.3c-0.3,0.4-0.5,0.7-1,0.6c-0.1,0.2-0.2,0.2-0.4,0.2c0,0,0,0,0,0c0,0,0,0-0.1,0
							c-0.1,0-0.2-0.1-0.3-0.1c0.1,0.1,0.2,0.1,0.3,0.1c-0.1,0.1-0.2,0.2-0.3,0.4l-0.3-0.4c0,0,0,0,0,0c-0.2-0.1,0,0.3,0.3,0.5
							c0,0.1-0.1,0.2,0,0.4c-0.5-0.6-0.2,0.5-0.9-0.1c0.1,0.4-0.6,0.8-0.1,1.5c-0.1-0.1-0.1-0.1-0.1-0.2c-0.2,0-0.4,0.1-0.4,0.4
							l-0.5-0.4c0.1,0.3,0.1,0.6,0.2,0.9c-0.4-0.1-0.7-0.2-0.8-0.7c0,1-0.2,0.6,0,1.5l-0.3-0.3c-0.1,0.2,0.1,0.7-0.2,0.6
							c-0.4-0.1-0.8,0.3-1.1,0.9c-0.4,0.5-0.7,1.1-1.3,1.5c1.2,0.2-0.7,0.3,0.1,0.7c-0.3,0-0.5,0.1-0.6-0.2c0,0.7-0.7,0.8-0.1,1.4
							c-0.3,0-0.4-0.2-0.5-0.2c0,0.1,0.2,0.2,0,0.2c-0.2,0-0.2-0.1-0.3-0.3c-0.1,0.6,0.7,0.8,1.5,1c-0.4,0.2-0.4,0.3,0.1,0.6
							c-0.3,0-0.6,0.2-0.6-0.2c-0.1,0.2-0.6,1.2,0.1,1.3c-0.2,0-0.1,0.3,0,0.3c-0.1,0.5-0.1,0.5-0.1,1l0.1-0.1
							c0.8,0.2,0.2,0.4,0.3,0.7l-0.1,0c-0.5,0.9,0.3,0.3-0.2,1.2l0.5-0.1c1-0.1-0.5,0.8,0,1.1l0.2-0.2c0.4,0.2-1.2,1-1.3,1.3
							c-0.1,0.1-0.2-0.1-0.2-0.1c-0.4,0.8,0.6-0.1,0.9,0.4c-0.3,0.2-0.9,0.1-0.8,0.5c-0.1,0.1,0.2,0.3,0.6,0.6
							c0.3,0.2,0.6,0.5,0.5,0.8c0.2-0.2,0.4-0.4,0.7-0.3c0.2,0.3-0.4,1.4,0.5,1.3c0,0.1-0.1,0.1-0.1,0.2c0.3,0.1,0.8,0.6,1.3,0.4
							c-0.6,0.6-0.1,0.9,0.3,1c0.4,0.1,0.9,0.2,0.3,0.8c0.2,0.2,0.5,0.3,0.7,0.5l-0.1,0.1c0.4,0.4,0.8,0.2,1.1,0
							c0,0.2-0.1,0.2-0.2,0.3c0.5,0.7,0.6,0.7,1.5,0.3l-0.2,0.5c0.1-0.1,0.3,0.2,0.5,0.5c0.3,0.3,0.7,0.6,1.1,0.5
							c0,0-0.1,0.1-0.2,0.2c0.5-0.1,0.9,0.4,1.3,0.7c0.4,0.3,0.8,0.4,1.1-0.4c0.2-0.1,0.4-0.2,0.6-0.3c-0.7-0.2,0.2-0.8,0-1.1
							c0.3-0.1,0.6,0.6,0.3,0.7l0-0.1c-0.3,0.9,0.8,0.4,0.7,1.1c1.4,0.1,2.8,0.6,4.1,0.5l-0.2-0.7l0.5,0c0.1,0.2,0.2,0.5-0.1,0.6
							c0.2,0.4,0.5-0.4,0.5-0.6c0.7,0.2-0.1,0.9,0.1,0.9l0.3-0.1l-0.1-0.1c0.2-0.3,0.1-0.6,0.6-0.7c0.3,0.1,0.2,0.4,0.3,0.4
							c0,0.1,0,0.1,0.2,0l0.6-0.1l-0.4-0.5c0.2-0.3,0.5-0.1,0.1-0.7c0.3,0.4,0.9,0.4,1.4,0.2c0.5-0.2,1-0.5,1.1-0.4
							c0.2-0.5,0.5-0.7,0.9-0.8c-0.2-0.1-0.5-0.6-0.2-0.7c0.5,1.2,0.9,0.2,1.7,0.8c-0.6-0.4,0.8-0.8,0-1.3c0.3-0.1,0.3,0.4,0.7,0.5
							c0.3-0.9,1.6-0.8,2.2-1.8c-0.1-0.1-0.4-0.2-0.5-0.5c0.3,0.1,0.7,0.1,1,0.2c0.1-0.2-0.7-0.8,0-0.7c-0.2,0-0.4-0.1-0.3-0.3
							c0.9-0.5,1.3-1.6,1.6-2.5c0.3-1,0.5-1.8,1.5-2.7c-0.4,0.2-0.4,0-0.4-0.2c-0.1,0.1-0.4-0.1-0.7-0.1c0.3-0.2,0.5-0.5,0.8-0.7
							c-0.6-0.2,0-0.9-0.6-1l0.1,0.3c-0.7-0.3-1.7,0.4-2.6,0.2c0.4,0.2,0.1,0.4-0.2,0.6c-0.3,0.2-0.5,0.4,0,0.7
							c-0.2,0.1-0.3-0.1-0.5-0.1c0.4,0.2,0.4,0.4,0.2,0.6l-0.1-0.1c-0.1,0.8-0.6,1-1.1,1.6l0.5,0.1c-0.1,0.1-0.3,0.1-0.4,0.1
							c0.6,0.5,0.2-0.4,0.9,0.1c-0.5-0.1-0.6,0.2-0.8,0.4c-0.2,0.2-0.4,0.5-0.8,0.2c-0.1,0.2,0.5,0.2,0.3,0.5l-0.3-0.1l0.3,0.3
							c-0.2,0.1-0.5-0.1-0.7-0.2c0,0,0-0.1,0-0.2c-0.4-0.1-0.3,0.5-0.4,0.5l0.3-0.1c-0.3,0.7-1.2,1-1.4,1.9l0.2,0.1
							c-0.3,0.7-0.5,0.1-1,0.6l0-0.1c0,0.3-0.1,0.4-0.3,0.5c0-0.3-0.5-0.3-0.5-0.7c-0.4,0.7-0.1,0.5-0.1,1.4l-0.2-0.3
							c0,0.4,0.1,0.5-0.2,0.8c0.1-0.4-0.4-0.4-0.3-0.9c-0.8-0.5-0.6,1.1-1.3,0.1c0,1.1,0.7,0.4,0.6,0.6c0.2,0.3,0,0.8-0.3,0.8
							c-0.2,0-0.7-1.2-1.2-1c0.1,0,0-0.1,0.1-0.1c-0.2-0.2-0.3,0.4-0.6,0c0,0.6-0.3,0-0.3,0.8l0.5-0.3c-0.2,0.2-0.4,1.2-1,0.8
							c0-0.2,0.1-0.4,0.2-0.5c-0.2-0.2-0.3,0.2-0.4,0c0-0.8,0.6-0.2,0.8-0.9c-0.2-0.3-0.5,0.6-0.4-0.2c-0.1,1.1-0.5-0.1-0.8,0.8
							l0-0.5c-0.1,0.1-0.2,0.3-0.3,0.3l0.2-0.6c-0.3,0.5-0.6-0.4-0.8-0.1c0.6,0,0.1,0.6,0.4,0.9c-0.8,0.7-0.5-1.2-1.3-1
							c0.1-0.1,0.4,0.3,0.2,0.5c-0.2-0.1-0.4-0.3-0.4-0.5c-0.5,0.1,0.1,0.5-0.2,0.8c-0.2-0.6-0.3,0.2-0.5,0.4l0-0.5
							c-0.6-0.4-0.3,1-0.8,0.5l0.3-0.6l-0.3,0.1l0.1-0.5c-0.4,0.4-0.4,0.2-0.7,0c0,0.3-0.2,0.9-0.5,0.8c-0.1-0.3,0.2-0.4-0.2-0.4
							c0.2-0.3,0.3-0.6,0.4-0.2c0-0.2,0.1-0.3,0.2-0.4c-0.1-0.4-0.4-0.2-0.5-0.2c0,0,0.1,0.1,0.1,0.1c-0.2,0.2-0.4,0.3-0.7,0.5
							c0-0.2,0.1-0.3,0.2-0.4c-0.1,0-0.2,0.2-0.4,0.2c0.2-0.4,0.3-0.7,0.5-0.9c-0.2,0.1-0.4,0.2-0.6,0.3c0-0.2,0-0.5,0.1-0.6
							c-0.1-0.2-0.3,0-0.5,0.1c-0.2,0.1-0.5,0.2-0.6-0.1c-0.1,0.1-0.1,0.1-0.2,0.1c-0.3-0.3-0.3-0.8-0.9-0.6l0.2-0.7
							c-0.3,0-0.3,0.9-0.8,0.8c-0.4,0,0.2-0.6,0.3-0.8c-0.3,0.2-1.1,0.5-0.9-0.1C145,240.7,145,240.8,145.1,240.9z M142.8,238.1
							c0.1,0,0.5,0,0.2,0.2C142.5,238.5,142.7,238.3,142.8,238.1z M141.4,231.9c0.1,0.1,0,0.2-0.2,0.3
							C141.2,232.1,141.3,232,141.4,231.9z M157.2,221.1L157.2,221.1C157,220.9,157,221,157.2,221.1z M157.6,221.4
							c0.1-0.1,0.1-0.1,0.1-0.2c-0.1,0.1-0.2,0.1-0.3,0C157.4,221.4,157.4,221.5,157.6,221.4z M156.5,247.5l-0.1-0.1
							C156.5,247.2,156.5,247.3,156.5,247.5z"/>
						<path class="st0" d="M141.9,232.8c-0.1,0-0.2,0-0.3,0C141.7,232.8,141.8,232.9,141.9,232.8z"/>
						<path class="st0" d="M147.2,242C147.2,242,147.2,242,147.2,242C147.3,242,147.3,242,147.2,242L147.2,242z"/>
						<path class="st0" d="M150.7,225.1c-0.1-0.1-0.1-0.1-0.2-0.2C150.5,225,150.6,225.1,150.7,225.1z"/>
						<path class="st0" d="M160.5,221.6l-0.3,0c0.2,0,0.2,0.2,0.2,0.3C160.4,221.7,160.4,221.5,160.5,221.6z"/>
						<path class="st0" d="M161.3,225.4c0.1,0,0.1,0,0.1,0l0.1-0.2C161.4,225.2,161.2,225.3,161.3,225.4z"/>
						<path class="st0" d="M160.1,223.1c-0.2,0.4,0.1,0.3,0.3,0.4c0,0,0,0,0,0C160.6,223,160.3,223.1,160.1,223.1z"/>
						<path class="st0" d="M160.4,223.5c0.1,0,0.1,0,0.2,0.1C160.7,223.4,160.5,223.5,160.4,223.5z"/>
						<path class="st0" d="M158.3,221.3c0.1,0.1,0.2-0.5,0.2-0.3C158.8,220.6,157.7,221.4,158.3,221.3z"/>
						<polygon class="st0" points="159.6,224.4 159.8,223.9 159.5,224.2 						"/>
						<path class="st0" d="M158.3,223.5l0.2,0.2c0-0.1,0.1-0.1,0.1-0.1C158.6,223.5,158.4,223.3,158.3,223.5z"/>
						<path class="st0" d="M158.7,223.6c0.1,0,0.2,0.1,0.3,0C159,223.6,158.8,223.6,158.7,223.6z"/>
						<polygon class="st0" points="159.2,224.4 159.1,224.2 159,224.1 						"/>
						<path class="st0" d="M155,222.7l-0.4,0.1c0,0.2,0,0.3,0.2,0.2C154.9,222.9,155.1,222.8,155,222.7z"/>
						<path class="st0" d="M155.8,224.1c-0.1-0.1-0.1-0.2-0.1-0.4l-0.1,0.6L155.8,224.1z"/>
						<path class="st0" d="M154.9,224.2c-0.1,0.2-0.5,0.4-0.1,0.4C154.8,224.4,155.2,224.3,154.9,224.2z"/>
						<polygon class="st0" points="150,223.5 150.1,223.4 149.9,222.4 						"/>
						<path class="st0" d="M147.1,227c0.4,0-0.2-0.6,0.2-0.5c0-0.3-0.3-0.1-0.4-0.3C146.9,226.5,146.7,226.5,147.1,227z"/>
						<path class="st0" d="M146.9,226.2c0-0.1,0-0.1,0-0.2C146.9,226.1,146.9,226.2,146.9,226.2z"/>
						<polygon class="st0" points="168.3,234.9 168.5,234.6 168.1,234.8 						"/>
						<path class="st0" d="M167.5,234.3l0.6-0.1l-0.6-0.2C167.6,234.2,167.7,234.3,167.5,234.3z"/>
						<path class="st0" d="M143.9,237.3l-0.2,0c-0.2,0.1-0.2,0.1-0.2,0.2L143.9,237.3z"/>
						<polygon class="st0" points="144.4,239.4 144.4,239.4 144,239.8 						"/>
						<path class="st0" d="M146.4,240.3c-0.1-0.1-0.2,0-0.3-0.1C146.3,240.2,146,240.9,146.4,240.3z"/>
					</g>
				</g>
			</g>
		</g>
	</g>
</g>
<g>
	<g>
		<g>
			<g>
				<path class="st0" d="M100.3,99.5c0.5-0.7,0.2-0.5,0.3-0.6C99.7,100.1,100.3,99.4,100.3,99.5z"/>
				<polygon class="st0" points="92.9,112.2 93,111.9 92.1,113.9 				"/>
				<path class="st0" d="M86,124c1.2-0.8,2.4-4.3,3.8-6.4l0.3-0.3l0.2-1.1C88.8,118.8,87.2,122.3,86,124z"/>
				<path class="st0" d="M80.9,129.6c0.5-0.3-0.6,1.5,1-1.4c-0.1,0.1-0.2,0.2-0.2,0.2C81.5,128.7,81.3,129,80.9,129.6z"/>
				<path class="st0" d="M81.7,128.4C82.4,127.2,81,129.1,81.7,128.4L81.7,128.4z"/>
				<path class="st0" d="M78.3,134.2l0.8-1.8c-0.4,0.3-1.3,1.7-1.1,1.1C77.1,135.2,77.4,135,78.3,134.2z"/>
				<path class="st0" d="M77.9,136l0.4-0.9C78.1,135.2,78,135.4,77.9,136z"/>
				<path class="st0" d="M79.1,133.2l-0.9,1.9c0.3-0.2,0.5-0.1,0.4-0.9C78.8,134.5,78.8,134,79.1,133.2z"/>
				<path class="st0" d="M79.9,132.2c0.7-0.8,1.5-2,0.7-0.2C82.4,128.8,81.7,129.1,79.9,132.2z"/>
				<path class="st0" d="M86.2,124.9l0.9-1.2l0.4-1.2C87.3,123.2,86,124.9,86.2,124.9z"/>
				<path class="st0" d="M71.7,144.1c0.1,0.2,0.8-0.3,1.1-0.3l0.5-1.3C72.8,143,72,144.2,71.7,144.1z"/>
				<path class="st0" d="M72.8,143.8l-0.8,2C73,144.2,73,143.8,72.8,143.8z"/>
				<path class="st0" d="M78.5,136.7l1.2-3.3c-0.5,1.3-1,2.6-1.5,3.9L78.5,136.7z"/>
				<polygon class="st0" points="67.5,151 67.7,149.7 67.2,151.9 				"/>
				<path class="st0" d="M64.8,155.6c0.1-1-1.3,0.7-1-0.2c-0.7,1.3-1,2.5-1.3,3.6C62.9,157.9,63.6,156.8,64.8,155.6z"/>
				<path class="st0" d="M62,160.8c0.2-0.6,0.4-1.2,0.5-1.8C62.3,159.6,62.1,160.2,62,160.8z"/>
				<path class="st0" d="M70.1,148.8c-0.2,0.1-0.6,0.2-1.4,1.1l0.9-0.4C69.8,149.3,69.9,149.1,70.1,148.8z"/>
				<path class="st0" d="M69.7,149.5L69.7,149.5c-0.5,0.8-0.8,1.3-1,1.5C68.8,150.8,69.1,150.4,69.7,149.5z"/>
				<path class="st0" d="M70.2,148.6c0,0.1-0.1,0.1-0.1,0.2C70.2,148.8,70.2,148.7,70.2,148.6z"/>
				<path class="st0" d="M75.3,141.3c-0.4,1.2-1.4,3.6,0.3,1.6C75.7,142,74.7,143.1,75.3,141.3z"/>
				<path class="st0" d="M71.3,148.1l1.2-1.9c-0.2,0-0.5,0.2-0.4-0.4L71.3,148.1z"/>
				<polygon class="st0" points="71,149.1 71.3,148.1 70.9,148.8 				"/>
				<path class="st0" d="M64.5,157.8c-0.2,1-0.8,1.9-1.3,2.9c0.8-1,1.5-2.2,2.1-3.2C65.2,157.3,65.2,156.6,64.5,157.8z"/>
				<path class="st0" d="M67.1,153.8c0,0.1-0.1,0.1-0.1,0.2C67.1,153.9,67.2,153.8,67.1,153.8z"/>
				<path class="st0" d="M57.2,170.9c0.1,0,0.1-0.1,0.2-0.1c0,0-0.1-0.1-0.1-0.1L57.2,170.9z"/>
				<path class="st0" d="M65.5,157.4c0.6-0.8,0.7-1.3,0.9-1.9c-0.3,0.6-0.7,1.3-1.1,2C65.3,157.6,65.4,157.7,65.5,157.4z"/>
				<path class="st0" d="M60.6,163.8c0.4-0.4,0.8-0.8,1.2-1.3C61.3,162.8,60.5,163.5,60.6,163.8z"/>
				<path class="st0" d="M66.7,154.2c0,0,0-0.1,0-0.1C66.4,154.3,66.5,154.3,66.7,154.2z"/>
				<path class="st0" d="M66.7,154.2c-0.2,0.5-0.2,0.9-0.3,1.3c0.3-0.5,0.5-1,0.6-1.5C66.9,154.1,66.8,154.2,66.7,154.2z"/>
				<path class="st0" d="M59.6,176.2c-0.5-0.5,0.2-3,1.8-4.6c0.6-2.1-2-1.9-4-0.9c0.2,0.2,0.5,0.3-0.3,2.4c0.7-0.5,3.2-3.9,2.8-2
					c-1.1,2.7-1.4,2-2.4,3.1c1.3-0.7-0.7,3.8,0.7,3.9l0.8-2.5C59.3,175.8,59.1,176.7,59.6,176.2z"/>
				<path class="st0" d="M59.6,167.2l0.4-0.8c-0.6,0.8-1.2,1.4-2.4,2.3c-0.5,1.5-0.4,1.8-0.3,2l2.3-3.8L59.6,167.2z"/>
				<path class="st0" d="M62.1,162.8c0.2,0.9-0.6,3,0.7,2.2c1.3-2.3,0.4-1.9,1-3.4C61.7,165.4,64,160.3,62.1,162.8
					c0.4-0.8,0.8-1.5,1.1-2.1c-0.5,0.6-0.9,1.2-1.4,1.8c0,0,0.1,0,0.1-0.1l0,0l0,0c0.2-0.1,0.2-0.1,0.1,0c0,0,0,0.1,0,0.1
					C62,162.6,62,162.7,62.1,162.8c-0.8,1-0.3,0.1-0.1-0.3c0,0,0-0.1-0.1-0.1l0,0l-1.8,3.9C60.6,165.6,61.1,164.6,62.1,162.8z"/>
				<path class="st0" d="M75.5,145.5c-0.1,0.1-0.1,0.1-0.2,0.1C75.2,145.8,75.2,145.9,75.5,145.5z"/>
				<path class="st0" d="M74.3,146.9c0.1-0.3,0-0.6,0.6-1.5c0.6-0.7,0.2,0.1,0.4,0.2c0.2-0.6,0.7-2.1-0.5-0.5l-0.1,0.3
					c-1,1.4-2.7,3-2.7,2.7C72.8,147.9,73.3,147.7,74.3,146.9z"/>
				<path class="st0" d="M68.4,155.1l-1.5,3.3l1.4-1.3l-0.3-0.1C69,155.2,68.5,155.4,68.4,155.1z"/>
				<polygon class="st0" points="56.7,171.1 56.3,170.3 56.2,172.6 				"/>
				<polygon class="st0" points="54.4,175.2 53.9,174.7 53.7,176 				"/>
				<path class="st0" d="M180.6,270.1l1.1-0.1C181.1,270,180.8,270,180.6,270.1z"/>
				<path class="st0" d="M172.9,270l-0.2,0.1C173.1,270,173.2,270,172.9,270z"/>
				<path class="st0" d="M31.9,276.6c1.5,0.7,3.3,1.8,3.1,1l-0.5-0.9C33.4,276.8,32.6,276.7,31.9,276.6z"/>
				<path class="st0" d="M110.4,271.4c-0.1-0.1-0.3-0.1-0.4-0.2c-0.4,0.2-0.7,0.4-1,0.6C109.3,271.7,109.8,271.5,110.4,271.4z"/>
				<path class="st0" d="M111.4,268.9l2,0.4C113,269.2,112.4,269.1,111.4,268.9z"/>
				<path class="st0" d="M222.3,269.2l1.2-0.4C221.6,268.9,222.4,269.1,222.3,269.2z"/>
				<path class="st0" d="M31,216.8c-1,1-1.6,1.8-2.1,2.6C30.1,218.3,31.5,217.6,31,216.8z"/>
				<path class="st0" d="M177.6,272.9c0.6-0.1,0.9-0.1,0.9-0.2C177.8,272.8,177.4,272.8,177.6,272.9z"/>
				<path class="st0" d="M27,222.8c0.2-0.2,0.3-0.3,0.5-0.5c0.3-0.9,0.7-1.8,1.3-2.8C28,220.3,27.1,221.4,27,222.8z"/>
				<path class="st0" d="M241.5,186.6c0-0.1-0.1-0.2-0.1-0.3C241.3,186.2,241.4,186.4,241.5,186.6z"/>
				<path class="st0" d="M224,146c0.2,0.4,0.6,1,1,1.5C224.8,147.2,224.5,146.8,224,146z"/>
				<path class="st0" d="M44.7,191.3C45.2,190.4,44.7,191.1,44.7,191.3L44.7,191.3z"/>
				<path class="st0" d="M50,188.6c0,0.2,0,0.4,0.2,0.5C50,189,49.9,188.8,50,188.6z"/>
				<path class="st0" d="M27.4,234.1C27.4,234.1,27.3,234.2,27.4,234.1C27.6,234,27.6,234.1,27.4,234.1z"/>
				<path class="st0" d="M45.8,190.1c-0.3,0.3-0.6,0.6-0.8,1C45.1,191,45.4,190.7,45.8,190.1z"/>
				<path class="st0" d="M45.4,190.1c0.2-0.3,0.4-0.5,0.5-0.7C45.8,189.3,45.7,189.3,45.4,190.1z"/>
				<path class="st0" d="M44.1,192.5c0.3-0.5,0.6-0.9,0.9-1.3c-0.1,0.1-0.2,0.2-0.2,0.1C44.6,191.5,44.4,191.9,44.1,192.5z"/>
				<path class="st0" d="M280.6,256.4c0-0.1,0-0.1,0-0.2C280.2,255.4,280.3,255.8,280.6,256.4z"/>
				<path class="st0" d="M57.6,267.8c0,0-0.1,0-0.1,0C57.6,267.8,57.6,267.8,57.6,267.8L57.6,267.8z"/>
				<path class="st0" d="M61.2,267.2c-1.5,1-2.4,0.9-3.5,0.6l1.2,2.3L61.2,267.2z"/>
				<path class="st0" d="M198.8,270l-2.5-0.2c3-0.4,5.2-0.3,2.8-0.6c-0.4,0.9-9.7,0.2-10,1l-1.6-0.2c0.5,0,0.5,0,1,0
					c-3.2-0.4-2.4,0.6-6.5,0.5c-1.4-0.1-2.4-0.2-1.5-0.3l-3.2,0.2c-0.9,0-0.7-0.2,0.2-0.1l-4.9,0l0,0c-0.7,0.1-2.3,0.3-3,0.4
					c-1.2-0.1,0.6-0.1,0.3-0.2l-2.7,0.2c-1.1-0.3,1.1-0.4,3-0.4c-2.5-0.9-2.2,0.2-7.7-0.4l2.6-0.1c-1.6-0.6-3.6-0.4-6.5-0.9
					c0.7,0.2,5.8,1,2.8,1.2c-0.8-0.1-1.9-0.1-3.5,0c0-0.4-1.6-0.3-3.5-0.3l0.1-0.5c-2.1,0.1-1.9,0.3-3.2,0.5
					c-2.3-0.1-2.8-0.5-3.4-0.9c-3.7-0.2,2.6,0.8-1.8,0.7c-3.1-0.3-5.3-0.2-9,0.1c-2.2-0.3,0.4-0.4-0.4-0.6l-1.9,0.5
					c-0.5,0-0.3-0.2-0.2-0.3c-1.6,0.2-0.1,0.6-2.7,0.8c-0.3,0.4-1.7,0.1-3.3-0.2c-1.6-0.3-3.5-0.6-5.1-0.2c-0.8-0.2,0.4-0.5,0.1-0.7
					c-4.3,0.5-3.7,0.3-7.3,1.2l-3-0.6c2.2,0.7-0.6,1.4-3.1,2c0.8,0.3,1.5,0.6,1.9,0.7l-4,0.5c-0.5-0.1-0.1-0.5,0.6-0.8
					c-0.3,0.1-0.5,0.1-0.7,0.2c-1.4-0.3-0.7-0.9,0.3-1.4c0.5,0.2,1,0.4,1.4,0.6c1-0.5,1.9-1.1,1.7-1.6c-0.3,0.1-0.8,0.2-1.3,0.2
					c0.3-0.1,0.4-0.3,0.3-0.4c-0.1-0.1-0.5,0.1-1.2,0.3l-0.9-1l-0.2,0.4l-5.2-0.8c-3.7,0.9-7,2.6-12.9,3c1.5-0.8,0.3-1.4,0.4-2.4
					c1.6,1.1,4.6-0.4,7.6-0.1c-1.6-0.1-1.2-0.6-0.8-0.7l-5.5,0.8c0.1-0.8-1.2-0.6-2.6-1c1.1,1.7-4.1,1-6.3,1.5
					c-0.1-0.6,0.4-1.1,3.1-1c-3-1.3-3.9,1.9-6.8,0.8c0.7,0,1,0.1,1.3-0.2c-1.5,0.5-5.3,0.1-4.4-0.5l0.7,0c-4.4-0.3-13.4-0.2-14,1.4
					c0-0.2,0.6-1.9,0.8-2.2c-2.6,1.7-5.2,3.5-7.8,5.3c0.7-1.4-2-4.7,1.7-5.4c-1-0.2-2.3-0.5-4.5,0c0.7,0.2,1.8,2,0.8,2.1
					c-2.7-1.6-1.9-0.8-5.2-2.2c1.1,0.3-0.1,2.5-1.8,2.4c0.3-0.3-0.1-2.2,0.5-2.4l-4.2,2.2c1.1-0.4,0.2-1.9-0.8-2.5
					c0.4,0.4-3.6-0.1-4.8,0.1l1.8,0.5c-4.7-0.4-4.7,3.1-9.4,3c0.3-0.2,0.6-1,0.6-1.7c0-0.4-0.1-0.7-0.4-1c-0.2-0.3-0.5-0.5-0.9-0.6
					c-0.2,0.3-0.6,0.8-1.2,1.2c-0.6,0.5-1.4,1.1-2.3,1.5c-1,0.4-2.1,0.7-3.3,0.7c-0.6,0-1.2-0.1-1.8-0.3c-0.6-0.1-1.2-0.5-1.7-0.8
					c-0.1-0.4-0.2-0.7-0.2-1.1c-0.5-0.4-1.1-0.7-1.5-1.2c-0.5-0.4-1-0.9-1.4-1.4c1.4,0.6,3.8,1.5,6.2,1.6c2.4,0.2,4.5-0.4,5.7-0.8
					c-0.5-0.4-0.5-0.7-0.6-0.8c-0.1-0.2-0.3-0.3-1.1-0.7c-0.1-0.4,0.2-0.5,0.6-0.5c0.4,0,0.8,0.1,1.1,0.2c-1.1-0.5-2-1.3-2.7-2.2
					c-0.2,0.3-0.5,0.4-0.8,0.3c-0.3-0.1-0.7-0.2-1.1-0.4c-0.7-0.4-1.3-1.1-1.8-0.7c1.2,1.3,2.6,2.1,4,2.6c-0.2,0.3-0.5,0.6-1,0.8
					c-0.5,0.1-1.1,0.2-1.9,0c-1.4-0.3-3.1-1.6-3.7-3.6c0.1-0.6,0.8-0.6,1.4-0.6c0.7,0,1.3,0.1,1.5,0c-0.1,0-0.3-0.2-0.5-0.5
					c-0.1-0.1-0.2-0.3-0.3-0.4c-0.1-0.2-0.2-0.3-0.2-0.5c-0.4-0.7-0.4-1.4-0.2-1.6c0.3,0.4,0.6,0.8,0.9,1.2c0-0.4,0-0.8-0.2-1.1
					c-0.2-0.3-0.4-0.7-0.6-1.1c-0.1-0.2-0.2-0.4-0.2-0.6c0-0.2,0-0.4,0-0.6c0-0.2,0.1-0.4,0.2-0.7c0.1-0.2,0.3-0.4,0.5-0.6
					c0.1-0.4,0.8-0.7,1.2-0.9c0.1-0.1,0.2-0.1,0.3-0.2c0,0,0.1,0,0.1-0.1c0.1,0,0.1-0.1,0.1-0.1c0.2-0.2,0.2-0.3,0-0.5
					c-0.3,0.1-0.6,0.1-0.9,0.1c-0.3,0-0.6-0.1-1-0.2c-0.7-0.2-1.5-0.4-2.3-0.6c-1.5-0.5-2.9-1.3-3.2-2.2c0.3-0.4,3.9-4,5.2-4.6
					c1.9-0.9,1.5,3.6,3.2,2.9c-0.3-0.2-0.3-1.3-0.3-1.7c0.8-0.8,0.9,1,1.8-1.2c-1.1-1,2.4-4.1-0.6-1.5c0.7-2.2,1.4-2,2.6-4.3
					c-1.2,0.3-1.7-3.6-1-5.8c0.3,0.3,0.9,0.1,1.3,0c2.3-4,4.1-5.9,6.2-9.7c0.5-0.2,1.9-1.8,2-0.8c0.1-0.7-0.1-1.4,0.5-2.6
					c2.3-1.7-1.2,2.7,1,1.7c-0.7-0.5,0.6-3.6,1.1-5.5c-1.4-0.1-2.3,3.7-2.8,5.7c-1.6-0.8-1.6-4.6-0.1-8.9c1.4-3.3,1.7-0.8,1.8-1.5
					c3.5-5.8,0.2-6.4,4-10.7c2-1.4,1.9,0.9,2.8,0.8c-1,2.8-2.8,3.6-3.7,5.4l1.6-1.9c-0.1,1-0.8,2.8-1.6,3.6
					c1.8-1.2,5.6-9.9,8.9-14.1c0.1-1,0.6-2.5-0.1-2.1l-0.7,1.5c-1.5,0.9,0.5-3.3-0.9-1.6c0.6-2.2,1-4.8,2.9-7.3l1.3,0
					c-0.3-0.1-1.6,1.5-1.7,2.4c0.2-1.4,3.7-3.5,3.1-5.4l-1.8,1.5c0.6-2.2,0.9-5.1,2.6-7.4c-1.6,0.6-0.2,0.6-2.3,1.7
					c2.2-0.7-3.6,6.1-0.7,4.5c-2.3,1-2.3,2.7-4.8,4.4c0.4,0.1,1.1-0.5-0.2,1.5c0,0.1,0,0.4,0,0.6c0,0.1-0.1,0.1-0.1,0.1
					c0,0,0.1-0.1,0.1-0.1c0,0.1,0,0.1,0,0c0.4-0.4,0.8-0.7,1.1-0.8c0.2,1.4-1.6,4.6-1.8,5.9c-0.8,1.1-0.1-0.7-0.9-0.3l-0.3,1.9
					c-0.9-0.2-3.1,2.5-1.9-0.6l-1.5,2.5c-1.3,1.3-2.6,3.2-3,4.7c-0.9,1.1-0.8,3.5-0.9,2.1l-1.8,4.2l-0.2-0.1
					c-2.3,3.9-3.2,8.8-7.2,12.5c-0.5,1.4-1,2.9-2.5,5l-1,0c-0.7,1.8-3.6,4.7-3.2,5.9c-3,0.8-5,8.1-7,10.9l0.9,0.6
					c-0.6,1-1.1,2.1-1.6,3.2c-0.1,0.3-0.2,0.6-0.4,0.9c-0.1,0.4-0.3,0.9-0.4,1.3c-0.1,0.5-0.3,0.9-0.4,1.4c-0.1,0.5-0.2,1-0.2,1.5
					l1,0c0,0.4-0.1,0.9-0.1,1.3c0,0.5-0.1,0.9-0.2,1.4c-0.1,0.5-0.1,1-0.2,1.6c0,0.5-0.1,1.1-0.1,1.7c-0.1,2.4,0.4,5.1,1.7,7.4
					c-0.2-0.1-0.5-0.4-0.7-0.9c-0.2-0.5-0.3-1-0.4-1.5c0,0.8,0.2,1.7,0.5,2.4c0.2,0.4,0.3,0.8,0.5,1.2c0.2,0.4,0.5,0.7,0.7,1.1
					c0.3,0.3,0.5,0.7,0.8,1c0.3,0.3,0.6,0.6,0.9,0.9c0.6,0.6,1.3,1,2,1.5c1.4,0.9,2.9,1.5,4.4,2.1c1.5,0.5,2.8,1,4.2,1.6
					c0.7,0,1.3,0,1.9,0c0.5,0,1.1,0.2,1.5,0.3c-0.1,0-0.2,0-0.3,0c0.1,0,0.2,0,0.3,0c0.1,0,0.2,0,0.2,0c0.5,0.2,1,0.3,1.5,0.5
					c-0.5-0.2-0.9-0.4-1.3-0.5c0.8,0,2.1-0.2,3.3-0.4l0.5,1c0.1,0,0.2,0,0.3,0c1.2,0.3,1-0.5,0.3-1.2c0.6-0.2,1.2-0.4,1.6-0.6
					c1,1.5,3.2-0.5,4.6,1.1c0.8-0.8,6.2-0.7,6.9-2.3c0,0.2,0.4,0.3-0.3,0.3c1.4,0.2,2.8,0.3,4-0.1l0.6,1.2l3-1.6
					c1.8,0.7,2.6,1.1,0.8,2c4.4-1.4,3.6-0.6,7.3-1.9l-0.2,0.7c1.3,0,3.5-1,4.3-0.4c3,1.3,14.7,0.1,22.4,1.1
					c-1.5-1.9,3.6,0.8,3.9-0.7c0.4,0.4,1.5,0.6,0.3,1.1c3.9-0.5,5.9,0.5,8.6-0.7c0.4,0.4-0.8,0.6-0.4,0.9c0.3-0.1,1.2-0.4,1.6-0.2
					c0.4,0.2-0.6,0.4-1.2,0.6c4-0.2,4.4-1.4,4.7-2.6c2,0.5,3,0.4,4.5-0.3c0.7,0.3,1.9,0.7-0.6,0.9c1.4,0,8.5,0.3,8.7-0.5
					c0.4,0.2,1.9,0,2.3-0.1c3.1,0,3.4,0,6.5-0.1l-0.9-0.1c1.2-0.9,2.6-0.2,5-0.4l-0.1,0.1c5.7,0.5,2.5-0.3,8.1,0.2l-0.3-0.4
					c0.5-0.9,5,0.5,8.2,0.1l-1.2-0.2c1.8-0.3,5,1.1,6.7,1.1c0.4,0.1-0.6,0.1-1.2,0.2c4.7,0.3,0.6-0.5,4.1-0.7
					c0.6,0.2-0.8,0.7,1.5,0.7c1.2,0.1,6.8-0.9,10-0.5c-0.7-0.2-1.4-0.3,0.2-0.5c2.5-0.1,6.7,0.6,8.9,0c0.3,0,0.4,0.1,0.4,0.1
					c1.9-0.1,6.2-0.2,7.3-0.5c1.7,1,11.8-0.5,11.7,0.5l5.8,0l-0.2,0.1c3.7,0.1,5-0.1,6.3-0.3c0.9,0.1,0.2,0.2,0.2,0.2
					c5.4,0.3,6,0.3,10.5-0.2l0.5,0.4c0.6-0.1,2.6,0.1,5.1,0.3c2.5,0.2,5.5,0.4,8.1,0.2c-0.1,0.1-0.2,0.1-0.6,0.2
					c3-0.2,6.6,0.3,9.7,0.6c3.1,0.3,5.8,0.5,6.9-0.6l4-0.5c-5.1-0.3,0.8-1-1.3-1.4c2-0.1,5.2,0.7,2.7,0.8l-0.4-0.1
					c-0.9,1.2,6.4,0.5,6.2,1.4c2.5,0,5,0.1,7.5,0.3c0.6,0,1.4,0,2.1,0c0.7,0,1.5-0.1,2.2-0.2c1.5-0.2,2.9-0.7,4.3-1.3
					c2.7-1.3,5.1-3.3,6.8-5.7c1.7-2.5,2.7-5.4,2.9-8.4c-0.4,0.4-0.9,0.8-1.4,1.2l0.1-1l0-1l0-1c0-0.3-0.1-0.6-0.1-1
					c0.1-0.5,0.3-0.9,0.5-0.8c0.1,0.1,0.2,0.2,0.3,0.6c0.1,0.4,0.3,0.9,0.2,1.6c0.2-0.4,0.2-0.9,0.1-1.5c-0.1-0.5-0.3-1.1-0.5-1.6
					c-0.5-1-1.2-1.6-1.3-1.6c-0.8-2.7-0.3-2.4,0.4-1.5c0.8,0.9,1.4,2.4,1.2,1.5c-0.2-0.8-0.7-1.6-1-2.3l0.1,0.6
					c-0.3-0.4-0.6-0.8-0.8-0.9c-0.2-0.2-0.5-0.3-0.7-0.6c-0.5-0.4-0.9-1-1.6-2.3c-0.6-1.7,0.3-1.2,0-1.8c0.1,0,0-0.3-0.5-1l-1.9-3.7
					l-0.1,1.9c-1.4-1.4-1.9-3.4-2-1.2c0.2-3.3-7-13.8-7.4-15.6c-1.9-1.9-3.2-4.1-4.6-6.9c0.2,0.8-0.6,1.7-1.8-0.7
					c2.5-0.2-1.6-4.8-1.3-7.5c0,2.2-4.1-6.6-3.9-3.2c-1-2.1,0.7-0.5,0.2-2.2c-3.4-4.3-5.5-10.6-9.1-16.2c-0.3,0-0.1,1.2-1.1,0.1
					l-0.7-3.6c-0.8-1.1-1.8-0.4-2.3-2.9c0,0.4,0,1-0.5,0.2c-2.8-5.9-6.4-11.5-9.9-17.3c-3.5-5.7-6.9-11.6-9.9-17.4
					c0.8,1.6,0.1,0.6-0.6-0.5c0.4,0.8-0.2,0.1-0.3,0.3c-0.8-1.7-1.7-3.3-2.6-4.9c-0.8-0.7-3.2-5-3.7-5.4l0.9,1.5
					c-0.7-0.9-0.4-0.2,0,0.8c0.4,1,0.8,2.3,0.6,2.2c0.8,1.1,1.5,2.7,2.2,4.5c0.8,1.8,1.6,3.8,2.9,5.5c0.3,0.9-0.6-0.6-0.5-0.1
					c0.7,0.8,1.4,2,2.4,4.2l-0.2-0.2c3.2,6,4.3,8.8,7.5,15.8l0.2-0.8c0.7,1.5,0.7,1.9,0.9,2.6c1.6,1.3-2.1-4.1-0.5-3
					c0,1.2,1.4,3.8,2.7,6.3c1.3,2.5,2.5,5,2.2,6c1.2,2.3,0.3-1,1.5,1.3l0,0.8l0.7,0.3c0.7,1.5,0.6,2.5,0.4,2.7
					c-0.2-0.4-0.6-1-0.8-1.3c0.6,2.2,3,5.3,3.2,6.1l-0.9-2.3c3.6,6,7,13.7,11,19.2l0.1-0.6c3,4.2,1.6,3.8,4.6,8.6l-0.2-0.1
					c0.9,0.8,1.8,2,2.5,3.4c-1.1-1,0.5,2.8-0.8,1.4c3.3,4.5,1.8,2.1,4.9,4.7l-0.2,1c1.1,0.8,1.4,0.8,3,3.1c-1.6-1.8,0,2-1.9,0.1
					c1.6,5.8,5.5,7,4.9,10.3c2.9,1.5-1.6-4.9-0.5-3.8c-0.1-1.4,2.3,1.3,3,3c0.9,1.7-0.5,3.9,1.8,8c-0.2-0.4-0.4-0.4-0.6-0.8
					c0.5,1.8,2.3,2.7,2.7,5c1.5,0.5,0.8,1.9,2.2,1.8c-0.1-0.3-0.2-0.6-0.3-0.8l-0.4-0.8l-0.2-0.4c-0.1-0.1-0.2-0.3-0.3-0.4l-0.6-0.9
					c0.4,0.5,0.9,1,1.3,1.4c0.3,0.4,0.8,0.8,1.2,1.3c0.7,1,1.2,2.6,0.7,4.4c-0.1-0.2-0.3-0.5-0.5-0.9c-0.1-0.2-0.2-0.4-0.2-0.6
					c-0.1-0.2-0.2-0.4-0.3-0.5c-0.1,0.5-0.1,1,0,1.4c0.1,0.5,0.1,1-0.2,1.4c-0.3-0.1-0.5-0.4-0.6-0.9c-0.1-0.4-0.1-1-0.2-1.6
					c-0.2-1.2-0.6-2.7-1.5-3.2c-0.1,0.3,0.1,0.6,0.2,0.8c0.2,0.3,0.3,0.7,0.5,1c0.3,0.6,0.3,1.1-0.5,0.7c0.5,0.2,0.8,0.6,0.9,1
					c0.1,0.4,0.1,0.9,0,1.4c-0.1,0.5-0.2,1-0.3,1.5c-0.1,0.3,0,0.6-0.1,0.9c0,0.3,0,0.6,0,1l-0.7-0.5c0,0.4,0,1.3-0.4,1.9
					c-0.1-0.6-0.2-1.1-0.3-1.6c0,1-0.6,1.7-1.4,2.2c-0.4,0.3-0.7,0.5-1.1,0.7c-0.2,0.1-0.3,0.2-0.5,0.4c-0.2,0.1-0.3,0.3-0.5,0.4
					c1.4-1.1,1.6-1.1,1.8-0.9c0.2,0.3,0.2,0.8,1,0.4c-0.6,1.1-1.3,1.7-1.9,1.9c-0.6,0.3-1,0.2-1.5,0.1c-0.2,0-0.5-0.1-0.7-0.1
					c-0.3-0.1-0.5-0.1-0.8-0.1c-0.2,0-0.3,0-0.5,0c-0.2,0-0.4,0-0.6,0c-0.2,0-0.4,0.1-0.7,0.1c-0.3,0-0.5,0.1-0.8,0.1
					c0.3-0.1,1,0,1.4,0c0.4,0.1,0.7,0.2,0.2,0.5c-0.5,0.1-1.1,0-1.6-0.1c-0.1,0-0.3,0-0.4-0.1c-0.2,0-0.3-0.1-0.5-0.1
					c-0.3-0.1-0.6-0.1-0.8-0.2c-4.8,0.3,0.7,0.7-1.3,1.2c-1.6-0.8-2.3,0.4-4.4,0.7l0-0.7c-5.4-0.2-1.4,1.5-6.3,1.1l2.1-1l-2.6,0.3
					l0.5-0.7c-2.8,0.7-3.6,0.5-6.4,0.5c0.6,0.4-0.4,1.1-2.8,1.2c-1.6-0.3,0.9-0.6-2.5-0.4c0.8-0.4,1.6-0.8,3.1-0.4
					c0.2-0.2,0.8-0.4,0.9-0.6c-1.8-0.3-4.4,0.1-5.7,0.2c0.5,0,1,0,1.3,0.1c-1.6,0.3-3.3,0.6-4.9,0.9c-0.8-0.2-0.2-0.3,0.5-0.5
					c-1,0.1-1.7,0.3-3.2,0.4c0.4-0.4,0.3-0.8,2.4-1.1c-1.6,0.2-3.1,0.4-4.7,0.6c-0.3-0.2-2.4-0.3-1.8-0.5c-2.6-0.1-6.4,1-9.9,0.8
					c-0.2,0.1-0.5,0.1-1.3,0.2c-3.3,0-6.1-0.2-10,0.2l-2.2-0.4c-3,0.2,3,0.5-2.1,0.8c-3.6,0.2-1.3-0.4-2.6-0.5
					c-1.8,0.3-4.9,0.7-8.1,0.4C197,270,197.8,270,198.8,270z M161.5,270c0.7-0.1,2.2-0.3,2.7,0C163.4,270.3,162.8,270.1,161.5,270z
					 M104.9,270c0.5-0.2,1.4-0.1,2.3,0.2C106.5,270.3,105.7,270.2,104.9,270z M40,201C40,201.1,40,201.1,40,201
					C38.9,202.4,39.3,201.9,40,201z M42,198.3c0-0.4-0.1-0.4-0.3-0.3c0.1,0.3-0.3,1-0.7,1.7C41.4,199.6,41.7,199.3,42,198.3z
					 M281.9,244.9l0.1,0.7C281.1,244.4,281.5,244.6,281.9,244.9z"/>
				<path class="st0" d="M111.3,269.2c0.2,0.1,0.3,0.2,0.3,0.4C111.9,269.5,111.9,269.4,111.3,269.2z"/>
				<path class="st0" d="M222,269.3l0.1,0c0.1,0,0.1-0.1,0.1-0.1L222,269.3z"/>
				<path class="st0" d="M24.6,247.7c-0.5,0.5-0.8,0.8-1.1,0.9C23.7,248.8,24,248.6,24.6,247.7z"/>
				<path class="st0" d="M49.5,182.2l-0.9,2c0.5-0.9,0.8-1.1,1.2-1.5C49.7,182.6,49.2,182.8,49.5,182.2z"/>
				<path class="st0" d="M63.2,168.4c0.1-0.3,0.3-0.6,0.4-0.9l-0.4-0.1C62.6,168.6,62.4,169.6,63.2,168.4z"/>
				<path class="st0" d="M53.1,181.8c0.7,0.2,1.2-1.1,1.8-2.5c0,0.1-0.1,0.2-0.1,0.2C54,178.7,53.5,180.3,53.1,181.8z"/>
				<path class="st0" d="M55,179.1c0.2-0.4,0.4-0.8,0.7-1.2C55.4,177.5,55.3,178.3,55,179.1z"/>
				<path class="st0" d="M43.7,194.4c0.5-0.5-0.7-0.9-0.2-1.1C43,192.2,42.2,198,43.7,194.4z"/>
				<polygon class="st0" points="55.8,181.9 54.7,182 54.9,183 				"/>
				<path class="st0" d="M49.5,192l1.4-2c-0.2,0-0.1-0.4,0-0.7C50.1,190.6,49.2,191.9,49.5,192z"/>
				<path class="st0" d="M50.9,189.3c0.4-0.7,0.7-1.3,0.8-1.8C51.5,187.9,51.1,188.7,50.9,189.3z"/>
				<polygon class="st0" points="54.4,184.9 53.9,185.5 53.1,186.9 				"/>
				<path class="st0" d="M36.8,214.5l-1,2.4c0.2,0.4,0.7-0.1,1.1-1C37,215.2,37.3,214.3,36.8,214.5z"/>
				<path class="st0" d="M43.1,208.9c-0.5,0.5-0.7,0.5-1.2,0.7l1.1,0.7L43.1,208.9z"/>
				<path class="st0" d="M39.8,215.7c0.2,0.4-0.9,3.8,0.6,0.9C40.2,216.2,41.2,213.7,39.8,215.7z"/>
				<polygon class="st0" points="19.4,249.6 19.7,249 17.7,248.1 				"/>
				<path class="st0" d="M34.3,266.1c-3.1-0.5-0.7,1.3-3.5,0.6c-0.7,0.5,2.3,0.5,1.5,0.9C34.2,267.2,35.1,267.5,34.3,266.1z"/>
				<path class="st0" d="M32.3,267.6c-0.3,0.1-0.6,0.2-1,0.3C31.9,267.8,32.1,267.7,32.3,267.6z"/>
				<polygon class="st0" points="220.2,139.7 219.2,138 219.8,139.1 				"/>
				<path class="st0" d="M218,136.5l-0.1-0.5l-0.8-0.9C217.3,135.5,217.8,136.2,218,136.5z"/>
				<path class="st0" d="M156,268.9l-0.2,0.1c0.3,0.1,0.8,0.2,1.7,0.2L156,268.9z"/>
				<polygon class="st0" points="183.1,269.7 182.6,269.7 183.5,270 				"/>
				<path class="st0" d="M205.8,269.1c-0.9,0-2,0.1-2.9,0.1C204.9,269.1,206,269.5,205.8,269.1z"/>
			</g>
		</g>
	</g>
</g>
<g>
	<g>
		<g>
			<g>
				<path class="st0" d="M217.1,134.8c0.1,0.3,0.1,0.2,0.2,0.2C217.1,134.5,217.1,134.8,217.1,134.8z"/>
				<path class="st0" d="M214.8,130l0.1,0c-0.2-0.2-0.4-0.4-0.5-0.6L214.8,130z"/>
				<path class="st0" d="M212.8,125.4c-0.3,0.7,0.8,1.6,1,2.5l0,0.2l0.5,0.2C213.8,127.3,212.9,126.2,212.8,125.4z"/>
				<path class="st0" d="M213,122.3c-0.2,0.3-0.4-0.4,0.1,0.6c0-0.1,0-0.1,0-0.1C213.1,122.7,213.1,122.5,213,122.3z"/>
				<path class="st0" d="M213.2,122.8C213.4,123.3,213.3,122.3,213.2,122.8L213.2,122.8z"/>
				<path class="st0" d="M212.2,120.6l0.5,0.5c0.1-0.2-0.1-0.8,0.1-0.7C212.4,119.8,212.3,120,212.2,120.6z"/>
				<path class="st0" d="M211.4,120.2l0.2,0.3C211.7,120.4,211.7,120.3,211.4,120.2z"/>
				<path class="st0" d="M212.1,121.1l-0.5-0.6c-0.1,0.2-0.3,0.3,0.2,0.3C211.6,120.8,211.9,120.9,212.1,121.1z"/>
				<path class="st0" d="M212.2,121.6c0,0.4,0.1,1-0.4,0.4C212.4,123.2,212.8,122.7,212.2,121.6z"/>
				<path class="st0" d="M212.1,125.5l0.1,0.5l0.4,0.3C212.4,126.2,212.3,125.4,212.1,125.5z"/>
				<path class="st0" d="M211,116.3c-0.2,0.1-0.4,0.5-0.6,0.6l0.4,0.4C210.8,117,210.7,116.5,211,116.3z"/>
				<path class="st0" d="M210.4,117l-0.6-0.5C210,117.1,210.2,117.1,210.4,117z"/>
				<path class="st0" d="M210.6,120.6c0.4,0.3,0.7,0.6,1,0.9c-0.4-0.4-0.8-0.7-1.2-1.1L210.6,120.6z"/>
				<polygon class="st0" points="209.9,113.6 210.5,113.7 209.5,113.4 				"/>
				<path class="st0" d="M209.1,111.8c0.5,0.1,0.5-0.8,0.8-0.6c-0.3-0.5-0.8-0.7-1.2-0.9C209,110.7,209.2,111.1,209.1,111.8z"/>
				<path class="st0" d="M208,110c0.2,0.1,0.4,0.3,0.7,0.4C208.5,110.2,208.3,110,208,110z"/>
				<path class="st0" d="M209.4,115.2c0.1-0.1,0.3-0.4,0.3-0.8l-0.4,0.6C209.3,115,209.3,115.1,209.4,115.2z"/>
				<path class="st0" d="M209.2,114.9L209.2,114.9c-0.1-0.3-0.2-0.5-0.2-0.6C209,114.4,209.1,114.5,209.2,114.9z"/>
				<path class="st0" d="M209.4,115.2C209.4,115.2,209.4,115.2,209.4,115.2C209.3,115.2,209.3,115.2,209.4,115.2z"/>
				<path class="st0" d="M210.1,118.5c-0.4-0.3-1.1-1-1.1,0.1C209.5,118.7,209.5,118.1,210.1,118.5z"/>
				<path class="st0" d="M208.9,115.9l0.2,0.8c0.1-0.1,0.3-0.3,0.5-0.2L208.9,115.9z"/>
				<polygon class="st0" points="208.6,115.7 208.9,115.9 208.8,115.6 				"/>
				<path class="st0" d="M208,111.5c-0.4-0.2-0.6-0.5-0.8-0.9c0.1,0.5,0.2,1,0.4,1.4C207.8,112,208.2,112,208,111.5z"/>
				<path class="st0" d="M208.6,113.2C208.5,113.2,208.5,113.2,208.6,113.2C208.5,113.2,208.5,113.3,208.6,113.2z"/>
				<polygon class="st0" points="205.4,106.8 205.4,106.9 205.5,106.8 				"/>
				<path class="st0" d="M207.6,112.1c0,0.4,0.3,0.5,0.5,0.6c-0.2-0.2-0.3-0.4-0.4-0.7C207.5,112,207.5,112,207.6,112.1z"/>
				<path class="st0" d="M207.2,109c-0.1,0.2-0.1,0.5-0.1,0.7C207.3,109.5,207.4,109,207.2,109z"/>
				<path class="st0" d="M208.6,113C208.6,113,208.6,113,208.6,113C208.7,112.8,208.7,112.9,208.6,113z"/>
				<path class="st0" d="M208.6,113c-0.2-0.1-0.3-0.2-0.5-0.2c0.1,0.2,0.3,0.3,0.4,0.4C208.5,113.1,208.6,113,208.6,113z"/>
				<path class="st0" d="M200.8,107.9c0.6-0.3,1.6,0.2,1.4,1.3c0.8,0.4,2.4-1,3.2-2.2c-0.3,0.1-0.5,0.2-1.2-0.3
					c-0.2,0.4,0.1,2-0.8,1.7c-0.8-0.8-0.2-0.9-0.1-1.5c-0.5,0.8-1.7-0.6-2.7,0.2l0.8,0.6C201.2,107.7,200.8,107.6,200.8,107.9z"/>
				<path class="st0" d="M205.9,108.3l0.2,0.3c-0.1-0.4,0.1-0.8,0.3-1.5c-0.5-0.3-0.8-0.3-1-0.3l0.6,1.5L205.9,108.3z"/>
				<path class="st0" d="M206.8,109.9c-0.7,0.1-1.3-0.5-1.7,0.3c0.5,0.8,0.8,0.3,1.3,0.7C205.5,109.6,206.9,111.2,206.8,109.9
					c0.2,0.3,0.3,0.5,0.4,0.7c0-0.3-0.1-0.6-0.1-0.9c0,0,0,0,0,0.1l0,0l0,0c0,0.1-0.1,0.1-0.1,0.1c0,0,0,0,0,0
					C207,109.9,206.9,109.9,206.8,109.9c-0.1-0.5,0.1-0.2,0.3-0.1c0,0,0.1,0,0.1,0l0,0l-1-1.2C206.2,108.9,206.4,109.3,206.8,109.9z
					"/>
				<path class="st0" d="M207.6,118.4c0-0.1,0.1-0.1,0.1-0.1C207.6,118.3,207.5,118.3,207.6,118.4z"/>
				<path class="st0" d="M207.6,117.7c0.1,0.1,0.4,0,0.5,0.4c0,0.4-0.2,0.1-0.4,0.2c0.2,0.1,0.7,0.5,0.6-0.2l-0.1-0.1
					c-0.1-0.6,0.1-1.7,0.3-1.7C208.1,116.8,207.8,117.1,207.6,117.7z"/>
				<path class="st0" d="M206.9,113.9l-0.9-1l-0.2,0.9l0.3-0.2C206.4,114.3,206.7,113.9,206.9,113.9z"/>
				<polygon class="st0" points="205.7,106.5 206.4,106.2 205.2,106.1 				"/>
				<polygon class="st0" points="204.9,105 205.5,104.7 205,104.5 				"/>
				<path class="st0" d="M150.5,29.1l-0.3,0C150.4,29.1,150.5,29.1,150.5,29.1z"/>
				<path class="st0" d="M152.9,29.8l0.1-0.1C152.9,29.7,152.8,29.7,152.9,29.8z"/>
				<path class="st0" d="M185.2,68.4c0.4-0.8,1-1.9,0.3-1.4l-0.7,0.6C185.2,67.8,185.3,68.1,185.2,68.4z"/>
				<path class="st0" d="M166.8,46c0,0.1-0.1,0.2-0.1,0.2c0.2,0,0.5,0,0.7,0.1C167.2,46.2,167,46.1,166.8,46z"/>
				<path class="st0" d="M164.5,46.8l0-0.8C164.4,46.2,164.4,46.4,164.5,46.8z"/>
				<path class="st0" d="M139.2,34.3l0.1,0.5C139.6,34.3,139.4,34.4,139.2,34.3z"/>
				<path class="st0" d="M197,89.6c0.1-0.6,0-1-0.1-1.3C196.7,89,196.2,89.8,197,89.6z"/>
				<path class="st0" d="M152.2,26.5c-0.3,0-0.4,0-0.4,0.1C152,26.6,152.2,26.6,152.2,26.5z"/>
				<path class="st0" d="M196.2,87c0,0.1,0,0.2-0.1,0.3c0.3,0.2,0.6,0.5,0.7,0.9C197,87.7,197,87.1,196.2,87z"/>
				<path class="st0" d="M113.9,82.6c0,0-0.1,0.1-0.1,0.1C113.9,82.7,113.9,82.7,113.9,82.6z"/>
				<path class="st0" d="M102.4,94.5c0-0.2,0.1-0.4,0.2-0.6C102.5,94,102.4,94.2,102.4,94.5z"/>
				<path class="st0" d="M202.3,98.6C202.5,98.9,202.4,98.6,202.3,98.6L202.3,98.6z"/>
				<path class="st0" d="M200.2,101.8c-0.1,0-0.2,0-0.4,0.1C200,101.7,200.1,101.7,200.2,101.8z"/>
				<path class="st0" d="M189.5,86.6L189.5,86.6C189.4,86.8,189.4,86.7,189.5,86.6z"/>
				<path class="st0" d="M202.2,99.3c0-0.2,0-0.3,0-0.5C202.2,98.9,202.2,99,202.2,99.3z"/>
				<path class="st0" d="M202.5,99.1c0,0.1,0,0.2,0.1,0.3C202.7,99.3,202.8,99.3,202.5,99.1z"/>
				<path class="st0" d="M202,98.2c0.1,0.2,0.1,0.4,0.2,0.6c0-0.1,0-0.1,0.1-0.1C202.2,98.5,202.1,98.4,202,98.2z"/>
				<path class="st0" d="M127.1,56.3C127.1,56.3,127.1,56.3,127.1,56.3C127.1,56.8,127.2,56.6,127.1,56.3z"/>
				<path class="st0" d="M172.9,64.4C172.9,64.4,173,64.4,172.9,64.4C173,64.4,173,64.4,172.9,64.4L172.9,64.4z"/>
				<path class="st0" d="M171.8,63.5c1.1,0,1.2,0.4,1.2,0.8l1.9-1.5L171.8,63.5z"/>
				<path class="st0" d="M144.7,29.6c0.3,0,0.5-0.1,0.8,0c-0.8,0.7-1.4,0.8-0.7,0.9c0-0.2,0.1-0.4,0.4-0.5c0.3-0.2,0.6-0.2,1-0.3
					c0.7-0.2,1.5-0.2,1.5-0.7l0.5,0.1c-0.2,0-0.2,0.1-0.3,0.1c0.5,0.1,0.7,0,0.9-0.1c0.2-0.2,0.5-0.4,1.2-0.3
					c0.5,0.1,0.8,0.3,0.4,0.4l1.1,0c0.3,0.1,0.2,0.2-0.1,0.1c0.5,0.1,1,0.3,1.5,0.5l0,0c0.3-0.1,0.8,0,1.1,0c0.3,0.3-0.2,0-0.2,0.1
					l0.9,0.2c0.2,0.4-0.6,0.2-1.1-0.1c0.2,0.6,0.3,0.6,0.6,0.7c0.3,0,0.7,0.2,1.3,0.9l-0.7-0.4c0.1,0.8,0.7,0.9,1,1.9
					c0-0.1-0.1-0.6-0.2-1c-0.1-0.4-0.1-0.7,0.3-0.5c0.2,0.2,0.4,0.5,0.8,0.7c-0.1,0.1-0.1,0.3,0,0.4c0.1,0.1,0.1,0.2,0.2,0.3
					c0.1,0.1,0.2,0.2,0.3,0.3l-0.4,0.3c0.5,0.4,0.6,0.2,1,0.4c0.2,0.3,0.2,0.6,0.1,0.8c-0.1,0.2-0.2,0.4-0.3,0.6
					c0.4,1.1,0.2-1.1,0.9,0.1c0.1,0.5,0.3,0.9,0.6,1.4c0.3,0.4,0.6,0.8,1.1,1.4c0.1,0.8-0.4,0.1-0.4,0.4l0.7,0.4
					c0.1,0.2-0.1,0.2-0.2,0.2c0.4,0.4,0.6-0.3,1.2,0.5c0.4-0.1,0.4,0.5,0.4,1.1c0,0.7,0.1,1.4,0.7,1.7c-0.1,0.4-0.5,0.1-0.7,0.3
					c1.2,1.1,0.9,1,2.3,1.8l0,1.2c0.2-1,1.3-0.4,2.3,0c0.1-0.4,0.3-0.7,0.3-0.9l1.1,1c0,0.2-0.4,0.2-0.8,0.2
					c0.1,0.1,0.2,0.1,0.3,0.1c0,0.6-0.6,0.6-1.3,0.5c0.1-0.2,0.2-0.5,0.2-0.7c-0.6-0.1-1.3-0.1-1.7,0.2c0.1,0,0.3,0.2,0.4,0.3
					c-0.2,0-0.3,0-0.4,0.1c-0.1,0.1,0.2,0.1,0.5,0.2l-0.7,0.8l0.4-0.1c0.1,0.7,0.2,1.3,0.2,2c1.5,0.7,3.5,1,5,2.7
					c-1-0.1-1.3,0.6-2.2,1c0.7-1-1.1-1.3-1.4-2.4c0.2,0.6-0.3,0.7-0.5,0.6c0.6,0.5,1.1,0.9,1.7,1.3c-0.7,0.3-0.4,0.7-0.4,1.3
					c1.3-1.1,1.6,0.8,2.5,1.3c-0.5,0.3-1.1,0.4-1.4-0.5c-0.6,1.6,2.4,0.3,1.9,1.8c-0.1-0.2-0.1-0.4-0.4-0.3c0.7,0.3,1,1.7,0.4,1.6
					l-0.1-0.2c0.5,1.5,2.2,4.3,3.7,3.8c-0.2,0.1-1.8,0.7-2.1,0.8c2,0,4,0,6,0c-1.3,0.4-3.8,2.8-5.1,2c0,0.4,0,1,0.8,1.4
					c0.1-0.3,1.5-1.5,1.7-1.3c-0.9,1.6-0.4,1-1,2.7c0.1-0.5,2.2-1.1,2.5-0.6c-0.3,0.1-1.9,1.1-2.2,1l2.6,0.3
					c-0.5-0.1-1.7,0.8-2.1,1.4c0.3-0.3,0.6,1.2,0.9,1.5l0.2-0.8c0.5,1.7,3.6,0,4.3,1.6c-0.5,0-2.8,0.9-2.6,1.8
					c1.2-0.2,5.8-1.1,7.4-0.3l-0.5,0.6l1.3,0.6c-2,0.2-6.3,0.3-8.1,0c-0.2,0.8-0.6,0.5-0.1,1.4c-0.4,0.6-1.1,0-1.3-0.2l0.7,2.2
					c1.2-0.8,2,0.9,3,0.2l-2.4-1.5c1.2-0.7,4.2-0.6,4.7,0.9c-0.3,0.6-2.4,0.9-2.8,1.2c0.5,0,1.5,0.9,1.3,1.2l-1-0.2
					c-0.1,1,2.4,0.4,1.7,2c0.1,0.4-1.1,1.8-0.3,1.5c1.2-1.3,5.6-3.8,6.8-4.1c0,0.2-0.4,2.4-0.9,3.2c-0.8,1.1-3.2,0.7-3.9,1.7
					c0.4-0.2,0.9-0.1,1.2-0.1c-0.1,0.5-1.2,0.4-0.6,1.1c1.4-0.6,0.7,1.6,1.3-0.2c0.8,0.5,0.2,0.9,0.7,1.7c0.7-0.7,3.3-0.8,4-0.3
					c-0.4,0.1-0.7,0.5-0.8,0.7c0.7,1.5,0.6,2.6,1.3,4c-0.2,0.3-0.2,1.2-0.9,1.2c0.3,0.1,0.9,0,1.1,0.4c-0.6,1.4-0.7-0.8-1.7,0.5
					c0.8-0.3,1.6,0.5,2.4,0.9c1-0.8-0.6-1.5-1.4-1.9c1.6-0.9,3.8-0.7,5.3,0.4c1,0.9-0.7,1-0.4,1.1c0.9,2.3,3.6,0.4,3.5,2.8
					c-0.6,1.2-1.8,1.1-2.4,1.6c-0.9-0.7-0.2-1.8-0.6-2.4l0,1c-0.5-0.1-1.1-0.6-1-1.1c-0.5,1.1,1.8,3.7,2,5.8c0.5,0.1,1.1,0.5,1.3,0
					l-0.4-0.5c0.5-0.9,1.5,0.4,1.5-0.4c0.9,0.4,2.1,0.8,2.2,2l-0.9,0.7c0.3-0.2,0.2-1-0.2-1.1c0.7,0.2-0.5,2.3,1,2l0.3-1.1
					c0.9,0.4,2.3,0.8,2.5,1.8c0.7-0.9-0.2-0.1,0.6-1.4c-1.1,1.3-1-2.3-2.1-0.6c1-1.4,0-1.4,0.7-2.9c-0.3,0.2-0.5,0.7-0.7-0.2
					c-0.1,0-0.3,0-0.4,0c0,0,0,0,0-0.1l0,0.1c-0.1,0-0.1,0,0,0c-0.1,0.3-0.2,0.5-0.3,0.7c-0.9,0-1.5-1.2-2.1-1.3
					c-0.1-0.5,0.5,0,0.7-0.5l-0.9-0.3c0.7-0.5,0.7-1.9,1.7-1.1l-0.4-1c0.2-0.8,0-1.7-0.6-2c0-0.5-1.4-0.6-0.6-0.6l-1.2-1.2l0.2-0.1
					c-0.6-1.5-2.9-2.2-2.3-4.7c-0.5-0.4-1-0.7-1.2-1.7l0.6-0.6c-0.6-0.5-0.3-2.3-1.2-2.1c1.6-1.7-1.2-3.2-1.5-4.5l-1,0.5
					c-0.4-0.8-1-1.3-2-2l-0.8,0.5c-1.1-0.4-0.6-2.4-1.4-3.6c0.4-0.1,0.5,0.3,0.4,0.6c1-2.5-3.2-2.4-2.7-4.5
					c-0.5-0.2-0.5-0.5-0.5-0.8c0,0,0.1,0.1,0.1,0.1c0,0,0-0.1-0.1-0.1c0-0.2,0.1-0.5,0.1-0.7c-0.1,0.2-0.2,0.5-0.2,0.6
					c-0.2-0.2-0.5-0.6-0.9-0.9l0.8-0.6c0,0,0-0.1-0.1-0.1c0.1-0.5-0.6-0.1-1.1,0.5c-0.3-0.1-0.5-0.2-0.8-0.2c1.2-1-1.1-0.8,0.1-2
					c-0.9,0.1-1.7-1.6-3.3-1.1c0.2-0.1,0.2-0.3,0.3-0.1c-0.1-0.5-0.2-1-0.8-1.2l0.9-0.7l-1.9-0.2c0.3-0.9,0.5-1.3,1.6-1.2
					c-2-0.7-1.1-0.9-3-1.4l0.7-0.3c-0.3-0.4-1.5-0.6-1.1-1.1c0.6-1.6-2.5-4.7-3-7.6c-1.4,1.3,0-1.5-1.3-0.9c0.3-0.3,0.3-0.8,0.9-0.6
					c-1.1-1-0.6-2.1-2.2-2.4c0.3-0.3,0.7,0,0.8-0.3c-0.1-0.1-0.6-0.2-0.4-0.4c0.1-0.2,0.4,0,0.7,0.1c-0.9-1.2-2-0.7-3.1-0.3
					c0.1-0.9-0.2-1.1-1.1-1.3c0.2-0.4,0.3-0.9,0.9-0.2c-0.2-0.5-1.3-2.8-2-2.5c0.1-0.2-0.3-0.6-0.5-0.7c-0.6-1-0.6-1.1-1.2-2
					l0.1,0.3c-1,0-0.6-0.7-1.2-1.4l0.1,0c-0.6-2-0.7-0.6-1.2-2.7l-0.3,0.3c-0.5,0.1-0.6-0.3-0.7-0.9c-0.1-0.6-0.3-1.4-0.8-1.8l0,0.5
					c-0.3-0.2-0.3-0.8-0.3-1.3c0-0.6-0.1-1.2-0.3-1.5c-0.1-0.2,0.3,0.1,0.4,0.2c-0.5-0.9-0.6-0.8-0.8-0.7c-0.1,0.1-0.3,0.3-0.9-0.1
					c0-0.3,0.7-0.2,0-0.9c-0.1-0.2-0.8-0.6-1.6-0.8c-0.4-0.1-0.8-0.3-1.1-0.5c-0.4-0.2-0.7-0.3-0.9-0.6c0.2,0.3,0.3,0.5-0.3,0.4
					c-0.4-0.2-1-0.6-1.6-0.9c-0.6-0.3-1.2-0.5-1.7-0.3c-0.1-0.1-0.1-0.1-0.1-0.2c-0.4,0-1-0.1-1.5-0.1c-0.6,0-1.1,0.1-1.3,0.2
					c-0.3-0.6-1.5-0.3-2.5-0.1c-1,0.3-1.9,0.6-2,0.2c-0.7,0.3-1.5,0.4-2.1,0.8l0-0.1c-0.7,0.3-1.1,0.5-1.4,0.8
					c-0.3,0.3-0.4,0.5-0.6,0.8c-0.3,0.1-0.2-0.1-0.2-0.1c-0.5,0.3-0.9,0.4-1.2,0.6c-0.3,0.2-0.5,0.4-0.7,0.6c-0.4,0.4-0.7,0.8-1,1.7
					l-0.4-0.1c-0.1,0.3-0.8,0.7-1.4,1.5c-0.3,0.4-0.7,0.8-1,1.2c-0.3,0.4-0.5,0.9-0.7,1.3c0,0-0.1-0.1-0.1-0.3c-0.3,1-1.4,2-2.2,2.8
					c-0.8,0.8-1.5,1.6-0.7,2.4c-0.1,0.5-0.2,1-0.3,1.5c1.1-1.5,0.7,0.7,1.5,0.2c-0.2,0.7-1.6,1.3-1.2,0.5l0.2-0.1
					c-0.9-0.9-1.6,1.8-2.4,1.3c-1.9,3.1-4.6,5.8-6.4,8.7l1.3,0.3l-0.7,1c-0.4,0.1-1.1-0.1-0.6-0.8c-0.9,0-0.2,1.5,0.1,1.7
					c-1.3,1.2-1-1.3-1.3-0.8l-0.3,0.6l0.2-0.1c0.2,0.7,0.7,1,0.1,1.9c-0.5,0.4-0.9-0.1-1,0.1c-0.1,0-0.2,0-0.2,0.3l-0.8,1.3l1.2,0
					c0.1,0.8-0.7,1.2,0.6,1.2c-2.1,0-3.2,4.6-4,4.9c0.2,1.2-0.2,2-0.8,3c0.3-0.2,1.4,0.2,0.8,1c-1.8-1.4-1.7,1.1-3.5,1.1
					c1.3-0.1-1,2.6,0.8,2.3c-0.5,0.6-0.7-0.3-1.5,0c-0.2,2.1-2.4,3.6-3.1,6c0.2,0.2,0.7,0,0.8,0.6c-0.6,0.2-1.1,0.4-1.6,0.6
					c-0.1,0.5,1,1.1-0.1,1.5c0.2,0,0.6,0,0.5,0.3c-1.5,1.9-2.3,4.2-3.2,6.5c-0.9,2.3-2,4.4-3.3,6.5c0.4-0.5,0.3-0.1,0.1,0.4
					c0.2-0.3,0.2,0.1,0.4,0.1c-0.4,0.6-0.8,1.1-1.1,1.7c0.1,0.5-0.7,2.1-0.7,2.3l0.2-0.6c-0.1,0.5,0.2,0.2,0.5,0
					c0.3-0.3,0.7-0.6,0.9-0.4c0.1-0.5,0.6-1,1.1-1.5c0.5-0.5,1.1-1.1,1.2-1.9c0.3-0.2,0,0.3,0.3,0.3c0-0.5,0.2-0.9,0.8-1.6l0,0.1
					c1.3-2.1,2.2-2.8,4.1-5l-0.6-0.1c0.4-0.5,0.6-0.5,0.9-0.7c-0.3-1-1,1.4-1.4,0.4c0.7-0.1,1.3-1,1.8-1.8c0.6-0.9,1.1-1.7,1.9-1.6
					c0.5-0.8-0.8-0.1-0.3-0.9l0.5,0l-0.3-0.4c0.4-0.5,1-0.5,1.3-0.3c-0.1,0.1-0.1,0.4-0.2,0.5c0.9-0.4,1.1-1.9,1.4-2.1l-0.7,0.6
					c1-2.3,3.2-4.6,3.6-7.2l-0.4,0c0.3-1.9,1.1-1.1,1.9-3l0,0.1c-0.1-0.5,0-1.1,0.3-1.6c0.1,0.7,1.3-0.4,1.4,0.4
					c0.3-2.1,0-1.1-0.6-3l0.7,0c-0.3-0.7-0.6-0.9-0.2-1.8c0.1,1,1.2-0.1,1.4,1.1c2.3-1.2,0.3-3.5,2.6-3.3c-1.2-1.7-1.8,1.1-1.9,0.5
					c-0.8,0.1-0.8-1.4-0.3-1.9c0.4-0.6,2.7,0.1,3.4-1.4c-0.1,0.1,0,0.2-0.1,0.4c0.7-0.3,0-1.4,1.1-1.8c-0.8-0.9,0.5-0.9-0.7-1.7
					l-0.4,1.5c0.1-1-1-2.5,0.4-3.4c0.2,0.2,0.3,0.8,0.4,1.2c0.6-0.2,0.1-0.9,0.7-1.1c1.2,0.8-0.6,1.8-0.1,3.2
					c0.7-0.1-0.1-2.1,1.1-0.9c-1.4-1.5,1-1.4,0.2-3.1l0.7,0.5c0-0.2-0.2-0.8,0-1l0.7,1c-0.4-1.3,1.5-1.3,1.4-2.3
					c-0.8,1.7-1-0.1-1.9,0.4c0.1-2.6,2.4-0.3,3.1-2.9c0,0.4-0.9,1-1,0.3c0.3-0.4,0.8-0.9,1.3-1c0.5-1.7-0.8-0.1-0.9-1
					c1-0.1,0-0.9,0.1-1.8l0.6,0.3c1.2-1.6-1-1.1,0.2-2.5l0.5,1.1l0.2-1l0.6,0.5c-0.1-1.2,0.2-1.4,0.7-2.2c-0.5,0-0.9-0.6-0.5-1.4
					c0.5-0.4,0.3,0.6,0.8-0.6c0.2,0.4,0.5,0.9-0.2,1.2c0.1,0.1,0.2,0.4,0.4,0.6c0.6-0.4,0.7-1.5,0.8-1.9c-0.1,0.2-0.2,0.3-0.3,0.4
					c0-0.7,0-1.3,0.1-2c0.3-0.2,0.3,0.1,0.4,0.4c0.1-0.4,0-0.7,0.2-1.2c0.3,0.3,0.7,0.5,0.6,1.3c0.1-0.6,0.2-1.2,0.2-1.8
					c0.2,0,0.7-0.6,0.8-0.3c0.3-0.4,0.3-1.1,0.4-1.6c0-0.3,0.1-0.6,0.2-0.9c0-0.1,0.1-0.3,0.1-0.4c0.1-0.1,0.2-0.2,0.3-0.3
					c0-0.1,0-0.2,0.1-0.4c0.3-0.4,0.6-0.7,1-1.1c0.4-0.3,0.7-0.8,1.1-1.3l0.8,0c0.3-0.3,0.1-0.3-0.1-0.4c-0.2,0-0.4-0.2,0.3-0.7
					c1-0.7,0.6,0.1,1,0.1c0.2-0.2,0.5-0.6,0.9-0.8c0.4-0.2,0.9-0.5,1.4-0.4C145.3,29.4,145,29.4,144.7,29.6z M156.1,31.6
					c-0.2-0.1-0.7-0.2-0.7-0.5C155.8,31,155.8,31.2,156.1,31.6z M166.6,48.4c-0.3-0.1-0.3-0.4-0.3-0.8
					C166.5,47.7,166.6,48,166.6,48.4z M199.9,95.5C199.9,95.5,199.8,95.5,199.9,95.5C199.9,94.8,199.9,95,199.9,95.5z M200.1,96.8
					c0.2,0,0.3,0,0.4-0.1c-0.2,0-0.4-0.2-0.5-0.5C199.8,96.3,199.7,96.5,200.1,96.8z M120.2,56.9l0.3-0.1
					C120.4,57.4,120.3,57.2,120.2,56.9z"/>
				<path class="st0" d="M164.7,46.7c0.1-0.1,0.2-0.2,0.3-0.3C164.9,46.4,164.8,46.4,164.7,46.7z"/>
				<path class="st0" d="M139.2,34.2L139.2,34.2C139.2,34.3,139.2,34.3,139.2,34.2L139.2,34.2z"/>
				<path class="st0" d="M183.5,84.3c0-0.3,0.1-0.5,0.2-0.7C183.5,83.8,183.4,84,183.5,84.3z"/>
				<path class="st0" d="M204.2,101.8l-0.5-0.6c0.2,0.3,0.1,0.5,0,0.8C203.9,101.9,204.1,101.6,204.2,101.8z"/>
				<path class="st0" d="M202.8,110.3c0.1,0.1,0.1,0.2,0.3,0.3l0.3-0.2C203.1,109.9,202.7,109.8,202.8,110.3z"/>
				<path class="st0" d="M202,103.8c-0.6,0.4-0.2,0.7,0.2,1.1c0,0,0-0.1,0-0.1C203.1,104.6,202.6,104.2,202,103.8z"/>
				<path class="st0" d="M202.3,105.1c0.1,0.1,0.2,0.3,0.2,0.4C202.9,105.4,202.5,105.3,202.3,105.1z"/>
				<path class="st0" d="M201.2,97.9c-0.1,0.3,0.9-0.3,0.7-0.1C202.9,97.6,200.1,96.9,201.2,97.9z"/>
				<polygon class="st0" points="200.1,105.4 200.8,104.8 200,104.9 				"/>
				<path class="st0" d="M198.6,101.3l0.2,0.9c0.1-0.1,0.3,0,0.4,0.1C199,101.8,198.9,101.1,198.6,101.3z"/>
				<path class="st0" d="M199.2,102.2c0.1,0.3,0.3,0.5,0.5,0.5C199.6,102.7,199.4,102.4,199.2,102.2z"/>
				<polygon class="st0" points="199.3,104.5 199.3,104.2 199.1,103.6 				"/>
				<path class="st0" d="M194.3,93l-0.7-0.7c-0.4,0.1-0.4,0.4-0.1,0.7C193.8,93,194.1,93.3,194.3,93z"/>
				<path class="st0" d="M193.2,96.8c0.1-0.3,0.2-0.4,0.5-0.7l-1.1,0.6L193.2,96.8z"/>
				<path class="st0" d="M191.6,94.6c-0.4,0.1-1.6-0.7-0.9,0.3C191,94.8,191.8,95.5,191.6,94.6z"/>
				<polygon class="st0" points="186,81.3 186.2,81.5 188.1,80.4 				"/>
				<path class="st0" d="M175.6,72.6c0.1,1.2,1.2-0.4,1.2,0.8c0.6,0,0.1-1,0.6-0.9C176.5,72.1,176.6,71.7,175.6,72.6z"/>
				<path class="st0" d="M177.3,72.5c0.1,0.1,0.3,0.1,0.4,0.2C177.5,72.5,177.4,72.5,177.3,72.5z"/>
				<polygon class="st0" points="101.2,96.9 101,97.6 101.2,97.2 				"/>
				<path class="st0" d="M101,98.4l-0.2,0.1c0,0.2,0,0.3,0,0.5C100.8,98.8,100.9,98.5,101,98.4z"/>
				<path class="st0" d="M156.6,33.5l0.1,0c0-0.2-0.1-0.3-0.2-0.5L156.6,33.5z"/>
				<polygon class="st0" points="149.7,29.3 149.8,29.3 149.6,29 				"/>
				<path class="st0" d="M143.1,31.2c0.2-0.1,0.5-0.4,0.7-0.5C143.3,31.1,142.8,30.8,143.1,31.2z"/>
			</g>
		</g>
	</g>
</g>
<g>
	<path class="st2" d="M162.8,231.1c0,1.4-0.2,2.8-0.7,4.2c-0.5,1.4-1.2,2.6-2.3,3.7c-1.1,1.1-2.5,2-4.2,2.8
		c-1.7,0.7-3.7,1.1-6.2,1.1s-4.4-0.4-6.1-1.2c-1.6-0.8-2.9-1.8-3.9-2.9c-1-1.1-1.6-2.3-2-3.6c-0.3-1.3-0.5-2.5-0.5-3.6
		c0-0.9,0.2-2,0.5-3.4c0.3-1.3,1-2.6,2-3.8s2.3-2.3,3.9-3.1c1.6-0.9,3.8-1.3,6.4-1.3c2.3,0,4.3,0.3,6,1c1.7,0.7,3,1.6,4.1,2.7
		c1,1.1,1.8,2.3,2.3,3.6C162.6,228.7,162.8,229.9,162.8,231.1z M133.9,89.8c1.7-1,4.5-3.1,14.7-4.3c10.2-1.2,14.2,2.9,15.1,3.4
		c0.9,0.5-7.4,120.9-8.3,122.6c-0.9,1.7-2.9,2.5-6,2.5c-1.4,0-2.5-0.2-3.4-0.6c-0.9-0.4-3-2.4-3.2-2.9
		C142.7,209.9,132.1,90.8,133.9,89.8z"/>
</g>
</svg>
