<?xml version="1.0" encoding="utf-8"?>
<!-- Generator: Adobe Illustrator 24.2.0, SVG Export Plug-In . SVG Version: 6.00 Build 0)  -->
<svg version="1.1" id="Layer_1" xmlns="http://www.w3.org/2000/svg" xmlns:xlink="http://www.w3.org/1999/xlink" x="0px" y="0px"
	 viewBox="0 0 543.8 263.2" style="enable-background:new 0 0 543.8 263.2;" xml:space="preserve">
<style type="text/css">
	.st0{fill:#B086BE;}
	.st1{fill:#7C3894;}
	.st2{fill:#F7CA5E;}
	.st3{fill:none;stroke:#000000;stroke-width:8;stroke-miterlimit:10;}
	.st4{fill:none;stroke:#764393;stroke-width:20;stroke-miterlimit:10;}
	.st5{fill:none;stroke:#764393;stroke-width:20;stroke-linejoin:bevel;stroke-miterlimit:10;}
	.st6{fill:#FFFFFF;}
	.st7{fill:none;stroke:#FFFFFF;stroke-width:18;stroke-miterlimit:10;}
	.st8{fill:none;stroke:#000000;stroke-width:8;stroke-linejoin:bevel;stroke-miterlimit:10;}
	.st9{fill:#EC9E8B;}
	.st10{fill:none;}
	.st11{font-family:'LifeSavers-Bold';}
	.st12{font-size:36px;}
</style>
<rect x="18.9" y="23.6" class="st0" width="506" height="215.9"/>
<g>
	<path class="st1" d="M166.9,106.7v132.9h-148V23.6h98.8c27.2,0,49.2,22,49.2,49.2V106.7"/>
	<g>
		<path class="st1" d="M166.9,93c0.1-6.5,0.1-13,0.2-19.6c0.1-6.5-1-13.2-3.5-19.3c-2.4-6.1-6.1-11.7-10.8-16.5
			c-4.6-4.7-10.2-8.5-16.3-11.1c-2-0.7-3.9-1.6-5.9-2.1c-1-0.3-2-0.6-3-0.8l-3.1-0.5l-1.6-0.3c-0.5,0-1-0.1-1.6-0.1l-3.1-0.2
			c-2.1-0.1-4.1-0.1-6.2-0.1c-8.2-0.1-16.5-0.1-24.7-0.2c-16.5-0.1-33-0.1-49.5-0.3L19.8,22L18,22l-0.4,0l-0.2,0l-0.1,0
			c0,0-0.1,0-0.1,0l0,0.9l0,3.5l0,4.4l0,8.7l0,34.7c0,23.2,0.1,46.3,0.3,69.5c0.3,29.1,0.6,58.2,0.7,87.3l0,5.7l0,3.5
			c0,0,0,0.1,0,0.1l0.2,0l0.3,0l0.7,0l0.9,0l1.4,0l11.4,0c7.6,0,15.1,0.1,22.7,0.2c15.1,0.3,30.3,0.6,45.4,0.9
			c15.2,0.2,30.3,0.6,45.5,0.5l10.7-0.1l5.3-0.1l3.3,0l2.5,0l0.3,0c0.1,0,0.3,0.1,0.2-0.1l0-0.6l0-1.3l-0.3-22.5
			c-0.2-14.2-0.4-28.5-0.6-42.7c-0.1-9.5-0.2-19.1-0.6-28.4c-0.3-7.6-0.3-15.2-0.4-22.8c0-5.5-0.1-11.2-0.2-16.4
			c-0.1-0.5-0.2,0.7-0.3,3.9c-0.1,2.9-0.2,6-0.3,8.8c-0.1,11.3-0.1,22.6-0.4,34.1c-0.2,5.7,0,11.8,0,17.7
			c0.1,13.1-0.4,26.2-0.1,39.2c0.2,6.3,0.3,12.7,0.4,19.1c0,3,0.1,6.1,0.1,9.1l0,0.2c0,0.1-0.1,0-0.2,0l-0.5,0l-0.9,0l-2.3,0
			c-1.6,0-3.2,0-4.8,0c-21.9-0.1-43.9,0.3-65.8,0.3c-23.7,0-47.4,0-71.1,0l-1.5,0c-0.1,0-0.1-0.1-0.1-0.2l0-0.3l0-0.8l0-3.3l0-6.6
			l0-13.3l0.1-26.5c0.1-17.7,0.3-35.3,0.5-53c0.3-22.4,0.4-44.8,0.5-67.3l0.2-33.6l0.1-8.1c0-0.3,0-0.6,0-0.9c0,0,0-0.1,0-0.1l0.1,0
			l0.2,0l0.4,0l0.5,0l1.1,0l2.1,0l16.8,0.2c22,0.3,44,0.2,65.9,0l8.2,0c0.7,0,1.4,0,2,0l2,0.1c1.3,0.1,2.6,0.1,4,0.3l2,0.3
			c0.7,0.1,1.3,0.2,2,0.3l3.9,1l3.7,1.3c0.6,0.2,1.2,0.5,1.8,0.8l1.8,0.9c9.5,4.7,17.4,12.7,21.9,22.4c2.8,6,4.5,12.5,4.7,19.2
			c0.2,6.8,0.3,13.7,0.5,20.5c0.1,5,0.4,9.8,0.6,14.1C166.8,101.5,166.9,97.3,166.9,93z"/>
	</g>
</g>
<g>
	<g>
		<g>
			<g>
				<path class="st9" d="M477.2,116.5c1.5-2.7,1.8-5.7,2.8-8.6c1.3-3.6,1.7-7.3,2.9-11c1.6-5.1,2.7-10.3,4-15.4
					c0.8-3.2,1.8-6.4,2.4-9.7c0.6-3.4,1.8-6.7,2.5-10.1c0.3-1.7,0.9-3.4,1.1-5.1c0.4-3.2,0.5-6.6,1.2-9.7c0.2-1.1,0.4-2.1,0.1-3.3
					c-0.2-0.9,0-1.8,0.1-2.7c0.1-0.6,0.5-1.2-0.3-2c-1.1-0.3-1.8-0.3-2,0c-0.2,0.3-0.6,0.6-0.5,0.9c0.2,1.4,0.3,2.7-0.3,3.9
					c-0.3,0.6-0.1,1.4-0.2,2c-0.1,1.5-0.9,2.9-0.8,4.4c0.2,1.5,0,3-0.3,4.4c-0.6,2.4-0.8,5-1.4,7.4c-0.6,2.6-1.3,5.3-2.1,7.9
					c-1.1,3.9-1.9,7.9-3.1,11.8c-1.5,4.9-2.2,10-3.8,14.9c-1.6,4.8-2.2,9.8-4,14.6c-0.6,1.5-0.8,3-1.1,4.6c-0.1,0.6-0.1,1.1,1.4,2
					C476.5,117.3,476.9,116.9,477.2,116.5z"/>
			</g>
		</g>
	</g>
	<g>
		<g>
			<g>
				<path class="st9" d="M464.9,71.8c1.5,1.1,3.2,0.9,4.8,1.5c2,0.8,4.1,0.6,6.1,1.2c2.8,0.8,5.7,1.1,8.6,1.6
					c1.8,0.3,3.6,0.8,5.4,0.9c1.9,0.1,3.7,0.7,5.6,0.9c0.9,0.1,1.9,0.4,2.8,0.4c1.8-0.1,3.7-0.5,5.4-0.2c0.6,0.1,1.2,0.1,1.8-0.4
					c0.5-0.4,1-0.3,1.5-0.3c0.3,0,0.7,0.3,1.1-0.6c0.2-1.1,0.2-1.8,0-2c-0.2-0.2-0.3-0.5-0.5-0.4c-0.8,0.4-1.5,0.7-2.2,0.3
					c-0.3-0.2-0.8,0.1-1.1,0.1c-0.8,0.1-1.6-0.5-2.5-0.1c-0.9,0.4-1.7,0.5-2.5,0.4c-1.4-0.2-2.8-0.1-4.1-0.3
					c-1.5-0.2-2.9-0.5-4.4-0.8c-2.2-0.5-4.4-0.7-6.6-1.2c-2.8-0.7-5.6-0.7-8.3-1.5c-2.7-0.8-5.5-0.7-8.1-1.7
					c-0.8-0.3-1.7-0.3-2.5-0.4c-0.3,0-0.6,0.1-1.1,1.6C464.4,71.3,464.6,71.6,464.9,71.8z"/>
			</g>
		</g>
	</g>
	<g>
		<g>
			<g>
				<path class="st9" d="M473.1,85.2c1.3-0.5,2.2-1.5,3.4-2.3c1.5-0.9,2.7-2.1,4.1-3.1c2-1.4,3.8-2.9,5.8-4.4
					c1.2-0.9,2.5-1.8,3.6-2.8c1.2-1.1,2.5-1.9,3.7-2.9c0.6-0.5,1.3-0.9,1.8-1.5c1.1-1.1,2-2.2,3.1-3.2c0.4-0.3,0.8-0.6,1-1.2
					c0.2-0.4,0.5-0.7,0.8-0.9c0.2-0.2,0.5-0.3,0.4-0.8c-0.3-0.5-0.6-0.7-0.8-0.6c-0.2,0-0.4,0-0.4,0.2c-0.3,0.6-0.6,1.1-1.2,1.4
					c-0.3,0.1-0.4,0.5-0.6,0.7c-0.5,0.5-1.1,0.7-1.5,1.4c-0.3,0.6-0.8,1.1-1.3,1.5c-0.9,0.7-1.7,1.5-2.6,2.3c-1,0.8-2,1.5-3,2.2
					c-1.5,1.1-2.9,2.3-4.4,3.3c-1.9,1.3-3.6,3-5.6,4.3c-1.9,1.3-3.5,2.9-5.5,4.1c-0.6,0.4-1.1,0.9-1.7,1.3c-0.2,0.2-0.3,0.4,0,1.1
					C472.6,85.3,472.8,85.3,473.1,85.2z"/>
			</g>
		</g>
	</g>
	<g>
		<g>
			<g>
				<path class="st9" d="M500.9,85.4c-0.7-1.6-2.1-2.2-3.1-3.5c-1.2-1.6-3-2.4-4.3-3.8c-1.9-2-4-3.6-6.1-5.4
					c-1.3-1.1-2.5-2.4-3.9-3.3c-1.5-1-2.6-2.4-4.1-3.4c-0.7-0.5-1.3-1.2-2.1-1.6c-1.5-0.8-3.2-1.3-4.5-2.3c-0.4-0.3-0.9-0.6-1.7-0.5
					c-0.6,0.1-0.9-0.2-1.3-0.4c-0.3-0.2-0.4-0.6-1.2,0c-0.7,0.9-1,1.5-1,1.7c0,0.2,0,0.6,0.2,0.6c0.8,0,1.6,0.1,1.9,0.7
					c0.2,0.3,0.7,0.3,1,0.4c0.7,0.3,1,1.2,1.9,1.2c0.9,0,1.6,0.4,2.2,0.8c1,0.8,2.2,1.4,3.2,2.1c1.1,0.8,2.1,1.8,3.1,2.8
					c1.5,1.4,3.2,2.6,4.6,4.1c1.8,1.9,4.1,3.2,5.9,5.2c1.7,1.9,4.1,3.1,5.6,5.2c0.5,0.7,1.2,1,1.8,1.5c0.2,0.2,0.6,0.2,1.7-0.9
					C501,86.1,501,85.7,500.9,85.4z"/>
			</g>
		</g>
	</g>
</g>
<g>
	<path class="st1" d="M325.1,191.2c0-0.1,0-0.2,0-0.4c0-0.2-0.1-0.3-0.2-0.4c-0.1-0.1-0.2-0.2-0.4-0.4c-0.2-0.1-0.4-0.2-0.8-0.2
		c-0.6,0-0.9,0.1-1.1,0.5c-0.2,0.3-0.3,0.6-0.3,0.9c0,0,0,0.4,0.1,1.3c0.1,0.8,0.1,2.1,0.2,3.8c-0.7-2.1-1.7-3.6-2.8-4.7
		c-0.8-0.7-1.7-1.2-2.7-1.6c0-1.8,0.1-2.9,0.1-2.9c0-0.5-0.5-0.7-1-0.7c-0.5,0-1.1,0.1-1.1,0.6c0,0,0,1,0.1,2.6h-2.4c0,0,0,0,0,0
		c0-1.6,0.1-2.5,0.1-2.5c0-0.5-0.6-0.7-1-0.7c-0.5,0-1.1,0.1-1.1,0.6c0,0,0.1,1.2,0.1,3c-0.4,0.1-0.9,0.3-1.3,0.4
		c-1.1,0.4-2,1-2.8,1.7c-0.8,0.7-1.5,1.6-2,2.6c-0.5,1-0.7,2.2-0.7,3.5c0,1.7,0.2,3.2,0.7,4.3c0.5,1.2,1.1,2.1,1.8,2.9
		c0.7,0.8,1.6,1.4,2.4,1.9c0.8,0.4,1.5,0.8,2.2,1.1c0,3.4-0.1,7.3-0.1,10.7c-0.3-0.1-0.7-0.2-1-0.4c-0.8-0.3-1.4-0.8-2-1.3
		c-0.5-0.5-0.9-1-1.2-1.7c-0.3-0.6-0.4-1.2-0.4-1.8c0-0.3,0-0.6,0-0.9c0-0.3-0.1-0.6-0.2-0.9c-0.1-0.3-0.3-0.5-0.4-0.7
		c-0.2-0.2-0.5-0.3-0.8-0.3c-0.6,0-1,0.2-1.1,0.6c-0.2,0.4-0.2,0.8-0.2,1.2c0,0.4,0,0.8,0,1.1c0,0.3,0,0.6,0,0.9s0,0.6,0,0.9
		c0,0.3,0,0.6,0,1.1c0,0.3,0,0.6,0,1c0,0.4,0,0.8-0.1,1.2c0,0.4,0,0.8-0.1,1.1c0,0.3,0,0.6,0,0.7c0,0.2,0.1,0.5,0.4,0.8
		c0.2,0.4,0.6,0.5,1.1,0.5c0.5,0,0.8-0.2,1-0.5c0.2-0.3,0.3-0.6,0.3-0.9l-0.1-1.5c0-0.4,0-1,0-1.5c0.6,1.3,1.5,2.3,2.8,2.9
		c0.7,0.3,1.4,0.6,2.1,0.8c0,3,0,5.1,0,5.1c0,0.5,0.5,0.7,1,0.7c0.5,0,1.1-0.1,1.1-0.6c0,0-0.2-2-0.3-4.8c0,0,2,0.2,2.6,0.1
		c0,2.8,0,4.7,0,4.7c0,0.5,0.5,0.7,1,0.7c0.5,0,1.1-0.1,1.1-0.6c0,0-0.2-2.1-0.3-5c0.5-0.1,0.9-0.2,1.4-0.3c1-0.3,1.9-0.7,2.8-1.2
		c0.8-0.5,1.5-1.2,2.1-1.9c0.5-0.8,0.8-1.7,0.8-2.8c0-1-0.3-1.9-0.8-2.7c-0.5-0.8-1.2-1.5-2.1-2.2c-0.8-0.7-1.8-1.2-2.8-1.8
		c-0.5-0.3-1.1-0.6-1.6-0.8c0-5.5,0.2-10.5,0.2-12.5c0-1.1,0-2.1,0-3c0.3,0.1,0.5,0.3,0.8,0.4c0.7,0.5,1.4,1.1,2,1.9
		c0.6,0.8,1.1,1.6,1.5,2.6c0.4,1,0.7,2.1,0.7,3.2c0,0.6,0.1,1.1,0.3,1.6c0.2,0.5,0.5,0.7,1.1,0.7c0.5,0,0.8-0.1,1.1-0.4
		c0.2-0.3,0.4-0.6,0.4-1c0-0.9,0-1.7,0-2.4c0-0.7,0-1.6,0-2.4c0-1,0-2,0.1-3C325.1,193.1,325.1,192.1,325.1,191.2z M311.2,205.7
		c-0.3-0.2-0.7-0.3-1-0.5c-0.6-0.4-1.2-0.8-1.7-1.4c-0.5-0.5-0.9-1.2-1.2-2.1c-0.3-0.8-0.4-1.8-0.4-3c0-1.9,0.6-3.3,1.7-4.4
		c0.7-0.7,1.5-1.2,2.4-1.6c0.1,3.3,0.2,7.1,0.2,9C311.3,202.4,311.3,203.9,311.2,205.7z M315.5,219.7c-0.5,0-2.3,0-2.6-0.1
		c0,0-0.1,0-0.1,0c0-1.2-0.1-2.4-0.1-3.7c0-2.2,0-4.5,0-6.7l0.3,0.1l2.7,1.1C315.5,213.6,315.5,216.9,315.5,219.7z M315.6,207.5
		l-2.7-1c-0.1,0-0.2-0.1-0.2-0.1c0-4.8,0.1-8.9,0.1-10.7c0-1.2,0-2.4,0-3.5c0,0,0,0,0.1,0c0.7,0,1.8-0.1,2.5-0.1
		c0.1,3.4,0.3,7.5,0.3,9.6C315.6,202.7,315.6,204.8,315.6,207.5z M317.7,211.6c0.7,0.4,1.3,0.7,1.9,1.2s1,0.9,1.3,1.3
		c0.3,0.5,0.5,1,0.5,1.6c0,0.5-0.2,1-0.5,1.5c-0.3,0.4-0.7,0.8-1.3,1.2c-0.5,0.3-1.1,0.6-1.8,0.9c-0.2,0.1-0.5,0.2-0.8,0.3
		c0-1.1-0.1-2.3-0.1-3.4c0-1.6,0-3.2,0-4.8C317.2,211.3,317.5,211.4,317.7,211.6z"/>
</g>
<g>
	<path class="st1" d="M355.1,186.8c0-0.1,0-0.2,0-0.4c0-0.2-0.1-0.3-0.2-0.4c-0.1-0.1-0.2-0.2-0.4-0.4c-0.2-0.1-0.4-0.2-0.8-0.2
		c-0.6,0-0.9,0.1-1.1,0.5c-0.2,0.3-0.3,0.6-0.3,0.9c0,0,0,0.4,0.1,1.3c0.1,0.8,0.1,2.1,0.2,3.8c-0.7-2.1-1.7-3.6-2.8-4.7
		c-0.8-0.7-1.7-1.2-2.7-1.6c0-1.8,0.1-2.9,0.1-2.9c0-0.5-0.5-0.7-1-0.7c-0.5,0-1.1,0.1-1.1,0.6c0,0,0,1,0.1,2.6h-2.4c0,0,0,0,0,0
		c0-1.6,0.1-2.5,0.1-2.5c0-0.5-0.6-0.7-1-0.7c-0.5,0-1.1,0.1-1.1,0.6c0,0,0.1,1.2,0.1,3c-0.4,0.1-0.9,0.3-1.3,0.4
		c-1.1,0.4-2,1-2.8,1.7c-0.8,0.7-1.5,1.6-2,2.6c-0.5,1-0.7,2.2-0.7,3.5c0,1.7,0.2,3.2,0.7,4.3c0.5,1.2,1.1,2.1,1.8,2.9
		c0.7,0.8,1.6,1.4,2.4,1.9c0.8,0.4,1.5,0.8,2.2,1.1c0,3.4-0.1,7.3-0.1,10.7c-0.3-0.1-0.7-0.2-1-0.4c-0.8-0.3-1.4-0.8-2-1.3
		s-0.9-1-1.2-1.7c-0.3-0.6-0.4-1.2-0.4-1.8c0-0.3,0-0.6,0-0.9c0-0.3-0.1-0.6-0.2-0.9c-0.1-0.3-0.3-0.5-0.4-0.7
		c-0.2-0.2-0.5-0.3-0.8-0.3c-0.6,0-1,0.2-1.1,0.6c-0.2,0.4-0.2,0.8-0.2,1.2c0,0.4,0,0.8,0,1.1c0,0.3,0,0.6,0,0.9s0,0.6,0,0.9
		c0,0.3,0,0.6,0,1.1c0,0.3,0,0.6,0,1c0,0.4,0,0.8-0.1,1.2s0,0.8-0.1,1.1c0,0.3,0,0.6,0,0.7c0,0.2,0.1,0.5,0.4,0.8
		c0.2,0.4,0.6,0.5,1.1,0.5c0.5,0,0.8-0.2,1-0.5c0.2-0.3,0.3-0.6,0.3-0.9l-0.1-1.5c0-0.4,0-1,0-1.5c0.6,1.3,1.5,2.3,2.8,2.9
		c0.7,0.3,1.4,0.6,2.1,0.8c0,3,0,5.1,0,5.1c0,0.5,0.5,0.7,1,0.7c0.5,0,1.1-0.1,1.1-0.6c0,0-0.2-2-0.3-4.8c0,0,2,0.2,2.6,0.1
		c0,2.8,0,4.7,0,4.7c0,0.5,0.5,0.7,1,0.7c0.5,0,1.1-0.1,1.1-0.6c0,0-0.2-2.1-0.3-5c0.5-0.1,0.9-0.2,1.4-0.3c1-0.3,1.9-0.7,2.8-1.2
		c0.8-0.5,1.5-1.2,2.1-1.9c0.5-0.8,0.8-1.7,0.8-2.8c0-1-0.3-1.9-0.8-2.7c-0.5-0.8-1.2-1.5-2.1-2.2c-0.8-0.7-1.8-1.2-2.8-1.8
		c-0.5-0.3-1.1-0.6-1.6-0.8c0-5.5,0.2-10.5,0.2-12.5c0-1.1,0-2.1,0-3c0.3,0.1,0.5,0.3,0.8,0.4c0.7,0.5,1.4,1.1,2,1.9
		c0.6,0.8,1.1,1.6,1.5,2.6c0.4,1,0.7,2.1,0.7,3.2c0,0.6,0.1,1.1,0.3,1.6c0.2,0.5,0.5,0.7,1.1,0.7c0.5,0,0.8-0.1,1.1-0.4
		c0.2-0.3,0.4-0.6,0.4-1c0-0.9,0-1.7,0-2.4c0-0.7,0-1.6,0-2.4c0-1,0-2,0.1-3C355,188.7,355.1,187.7,355.1,186.8z M341.2,201.3
		c-0.3-0.2-0.7-0.3-1-0.5c-0.6-0.4-1.2-0.8-1.7-1.4c-0.5-0.5-0.9-1.2-1.2-2.1c-0.3-0.8-0.4-1.8-0.4-3c0-1.9,0.6-3.3,1.7-4.4
		c0.7-0.7,1.5-1.2,2.4-1.6c0.1,3.3,0.2,7.1,0.2,9C341.2,198,341.2,199.4,341.2,201.3z M345.4,215.3c-0.5,0-2.3,0-2.6-0.1
		c0,0-0.1,0-0.1,0c0-1.2-0.1-2.4-0.1-3.7c0-2.2,0-4.5,0-6.7l0.3,0.1l2.7,1.1C345.5,209.1,345.5,212.4,345.4,215.3z M345.5,203.1
		l-2.7-1c-0.1,0-0.2-0.1-0.2-0.1c0-4.8,0.1-8.9,0.1-10.7c0-1.2,0-2.4,0-3.5c0,0,0,0,0.1,0c0.7,0,1.8-0.1,2.5-0.1
		c0.1,3.4,0.3,7.5,0.3,9.6C345.6,198.2,345.6,200.4,345.5,203.1z M347.7,207.1c0.7,0.4,1.3,0.7,1.9,1.2s1,0.9,1.3,1.3
		c0.3,0.5,0.5,1,0.5,1.6c0,0.5-0.2,1-0.5,1.5c-0.3,0.4-0.7,0.8-1.3,1.2c-0.5,0.3-1.1,0.6-1.8,0.9c-0.2,0.1-0.5,0.2-0.8,0.3
		c0-1.1-0.1-2.3-0.1-3.4c0-1.6,0-3.2,0-4.8C347.2,206.9,347.5,207,347.7,207.1z"/>
</g>
<g>
	<path class="st1" d="M382.8,190.9c0-0.1,0-0.2,0-0.4c0-0.2-0.1-0.3-0.2-0.4c-0.1-0.1-0.2-0.2-0.4-0.4c-0.2-0.1-0.4-0.2-0.8-0.2
		c-0.6,0-0.9,0.1-1.1,0.5c-0.2,0.3-0.3,0.6-0.3,0.9c0,0,0,0.4,0.1,1.3s0.1,2.1,0.2,3.8c-0.7-2.1-1.7-3.6-2.8-4.7
		c-0.8-0.7-1.7-1.2-2.7-1.6c0-1.8,0.1-2.9,0.1-2.9c0-0.5-0.5-0.7-1-0.7c-0.5,0-1.1,0.1-1.1,0.6c0,0,0,1,0.1,2.6h-2.4c0,0,0,0,0,0
		c0-1.6,0.1-2.5,0.1-2.5c0-0.5-0.6-0.7-1-0.7c-0.5,0-1.1,0.1-1.1,0.6c0,0,0.1,1.2,0.1,3c-0.4,0.1-0.9,0.3-1.3,0.4
		c-1.1,0.4-2,1-2.8,1.7c-0.8,0.7-1.5,1.6-2,2.6c-0.5,1-0.7,2.2-0.7,3.5c0,1.7,0.2,3.2,0.7,4.3c0.5,1.2,1.1,2.1,1.8,2.9
		c0.7,0.8,1.6,1.4,2.4,1.9c0.8,0.4,1.5,0.8,2.2,1.1c0,3.4-0.1,7.3-0.1,10.7c-0.3-0.1-0.7-0.2-1-0.4c-0.8-0.3-1.4-0.8-2-1.3
		c-0.5-0.5-0.9-1-1.2-1.7c-0.3-0.6-0.4-1.2-0.4-1.8c0-0.3,0-0.6,0-0.9c0-0.3-0.1-0.6-0.2-0.9c-0.1-0.3-0.3-0.5-0.4-0.7
		c-0.2-0.2-0.5-0.3-0.8-0.3c-0.6,0-1,0.2-1.1,0.6c-0.2,0.4-0.2,0.8-0.2,1.2c0,0.4,0,0.8,0,1.1c0,0.3,0,0.6,0,0.9s0,0.6,0,0.9
		c0,0.3,0,0.6,0,1.1c0,0.3,0,0.6,0,1c0,0.4,0,0.8-0.1,1.2c0,0.4,0,0.8-0.1,1.1c0,0.3,0,0.6,0,0.7c0,0.2,0.1,0.5,0.4,0.8
		c0.2,0.4,0.6,0.5,1.1,0.5c0.5,0,0.8-0.2,1-0.5c0.2-0.3,0.3-0.6,0.3-0.9l-0.1-1.5c0-0.4,0-1,0-1.5c0.6,1.3,1.5,2.3,2.8,2.9
		c0.7,0.3,1.4,0.6,2.1,0.8c0,3,0,5.1,0,5.1c0,0.5,0.5,0.7,1,0.7c0.5,0,1.1-0.1,1.1-0.6c0,0-0.2-2-0.3-4.8c0,0,2,0.2,2.6,0.1
		c0,2.8,0,4.7,0,4.7c0,0.5,0.5,0.7,1,0.7c0.5,0,1.1-0.1,1.1-0.6c0,0-0.2-2.1-0.3-5c0.5-0.1,0.9-0.2,1.4-0.3c1-0.3,1.9-0.7,2.8-1.2
		c0.8-0.5,1.5-1.2,2.1-1.9c0.5-0.8,0.8-1.7,0.8-2.8c0-1-0.3-1.9-0.8-2.7c-0.5-0.8-1.2-1.5-2.1-2.2c-0.8-0.7-1.8-1.2-2.8-1.8
		c-0.5-0.3-1.1-0.6-1.6-0.8c0-5.5,0.2-10.5,0.2-12.5c0-1.1,0-2.1,0-3c0.3,0.1,0.5,0.3,0.8,0.4c0.7,0.5,1.4,1.1,2,1.9
		c0.6,0.8,1.1,1.6,1.5,2.6c0.4,1,0.7,2.1,0.7,3.2c0,0.6,0.1,1.1,0.3,1.6c0.2,0.5,0.5,0.7,1.1,0.7c0.5,0,0.8-0.1,1.1-0.4
		c0.2-0.3,0.4-0.6,0.4-1c0-0.9,0-1.7,0-2.4c0-0.7,0-1.6,0-2.4c0-1,0-2,0.1-3C382.8,192.8,382.8,191.8,382.8,190.9z M368.9,205.4
		c-0.3-0.2-0.7-0.3-1-0.5c-0.6-0.4-1.2-0.8-1.7-1.4c-0.5-0.5-0.9-1.2-1.2-2.1c-0.3-0.8-0.4-1.8-0.4-3c0-1.9,0.6-3.3,1.7-4.4
		c0.7-0.7,1.5-1.2,2.4-1.6c0.1,3.3,0.2,7.1,0.2,9C369,202.1,369,203.5,368.9,205.4z M373.2,219.4c-0.5,0-2.3,0-2.6-0.1
		c0,0-0.1,0-0.1,0c0-1.2-0.1-2.4-0.1-3.7c0-2.2,0-4.5,0-6.7l0.3,0.1l2.7,1.1C373.2,213.2,373.2,216.5,373.2,219.4z M373.3,207.2
		l-2.7-1c-0.1,0-0.2-0.1-0.2-0.1c0-4.8,0.1-8.9,0.1-10.7c0-1.2,0-2.4,0-3.5c0,0,0,0,0.1,0c0.7,0,1.8-0.1,2.5-0.1
		c0.1,3.4,0.3,7.5,0.3,9.6C373.3,202.3,373.3,204.5,373.3,207.2z M375.4,211.2c0.7,0.4,1.3,0.7,1.9,1.2c0.5,0.4,1,0.9,1.3,1.3
		c0.3,0.5,0.5,1,0.5,1.6c0,0.5-0.2,1-0.5,1.5c-0.3,0.4-0.7,0.8-1.3,1.2c-0.5,0.3-1.1,0.6-1.8,0.9c-0.2,0.1-0.5,0.2-0.8,0.3
		c0-1.1-0.1-2.3-0.1-3.4c0-1.6,0-3.2,0-4.8C374.9,211,375.2,211.1,375.4,211.2z"/>
</g>
<rect x="164" y="37.9" class="st10" width="339.2" height="73.7"/>
<text transform="matrix(1 0 0 1 219.7172 76.0576)" class="st6 st11 st12">Gift Certificate</text>
<g>
	<path class="st0" d="M85.3,170.3l-4.7,1.3l-4.7,1.3c-3.1,0.8-6.3,1.7-9.4,2.5c-3.2,0.8-6.3,1.7-9.5,2.5l-1.2,0.3l-0.6,0.2
		c-0.2,0.1-0.4,0.1-0.7,0.2c-0.9,0.2-1.9,0.2-2.8,0c-0.9-0.2-1.8-0.6-2.5-1.2c-0.7-0.6-1.4-1.3-1.8-2.1l0-0.1l0-0.1l-4.6-12.5
		l-4.5-12.5c-0.8-2.1-1.5-4.2-2.2-6.3c-0.7-2.1-1.5-4.2-2.2-6.3l-2.2-6.3l-2.2-6.3l0.1,0.1l-0.2-0.5l-0.1-0.3l-0.1-0.3
		c-0.1-0.2-0.1-0.4-0.2-0.6l-0.1-0.6c-0.1-0.8-0.1-1.6,0.1-2.3c0.2-0.7,0.4-1.5,0.8-2.1c0.4-0.6,0.9-1.2,1.5-1.7l0.2-0.2
		c0.1-0.1,0.2-0.1,0.2-0.2c0.2-0.1,0.3-0.2,0.5-0.3c0.3-0.2,0.7-0.3,1-0.4c0.2-0.1,0.4-0.1,0.5-0.2l0.6-0.1c0.2,0,0.3,0,0.5-0.1
		l0.5-0.1l4-0.5l8-1l8-1c10.7-1.4,21.4-3,32.1-4.6l32.1-4.9l8-1.2l8-1.2l4-0.6l2-0.3c0.8-0.1,1.6-0.1,2.4,0c1.6,0.3,3.1,1.1,4.1,2.4
		c0.5,0.6,0.9,1.3,1.2,2.1c0.3,0.8,0.4,1.6,0.4,2.4l0,0.1l0,0.1c-0.7,5.3-1.5,10.6-2.2,15.8l-1.1,7.9c-0.4,2.6-0.8,5.3-1.2,7.9
		l-2.4,15.8l-2.4,15.8l0-0.2c0,0.6-0.1,1.2-0.2,1.8c-0.2,0.6-0.4,1.2-0.7,1.7c-0.3,0.5-0.6,1-1,1.5c-0.4,0.4-0.9,0.8-1.4,1.2
		c-0.5,0.3-1,0.6-1.6,0.8c-0.1,0.1-0.3,0.1-0.4,0.1l-0.2,0.1c-0.1,0-0.1,0-0.2,0l-0.8,0.1l-3.1,0.6l-12.3,2.3
		c-4.1,0.7-8.2,1.5-12.3,2.2c-4.1,0.7-8.2,1.5-12.4,2.2l0-0.2c4.1-0.9,8.1-1.9,12.2-2.8c4.1-0.9,8.2-1.8,12.2-2.7l12.2-2.7l3.1-0.7
		l0.8-0.2c0.1,0,0.1,0,0.2,0l0.1-0.1c0.1,0,0.2-0.1,0.3-0.1c0.4-0.2,0.8-0.4,1.2-0.6c0.4-0.3,0.7-0.6,1-0.9c0.3-0.3,0.5-0.7,0.7-1.1
		c0.2-0.4,0.3-0.8,0.5-1.2c0.1-0.4,0.1-0.9,0.1-1.3l0-0.1l0-0.1l2.2-15.9l2.2-15.8c0.4-2.6,0.8-5.3,1.1-7.9l1.2-7.9
		c0.8-5.3,1.6-10.5,2.4-15.8l0,0.2c0-0.5-0.1-1.1-0.3-1.6c-0.2-0.5-0.5-1-0.8-1.4c-0.7-0.9-1.7-1.4-2.7-1.6c-0.5-0.1-1.1-0.1-1.6,0
		l-2,0.3l-4,0.5l-8,1.1l-8,1l-32.2,4c-10.7,1.3-21.4,2.8-32.1,4.4l-8,1.2l-8,1.2l-4,0.6l-0.5,0.1c-0.2,0-0.3,0-0.5,0.1l-0.4,0.1
		c-0.1,0-0.3,0.1-0.4,0.1c-0.3,0.1-0.5,0.2-0.8,0.4c-0.1,0.1-0.2,0.2-0.4,0.2c-0.1,0-0.1,0.1-0.2,0.1l-0.2,0.1
		c-0.5,0.4-0.8,0.8-1.1,1.4c-0.3,0.5-0.5,1.1-0.6,1.6c-0.1,0.6-0.1,1.2,0,1.7l0.1,0.4c0,0.1,0.1,0.3,0.1,0.4l0.1,0.2l0.1,0.2
		l0.2,0.4l0,0.1l0,0l2.3,6.2l2.3,6.2c0.8,2.1,1.5,4.2,2.3,6.3c0.7,2.1,1.5,4.2,2.3,6.3l4.4,12.5l4.4,12.6l-0.1-0.1
		c0.3,0.6,0.8,1.1,1.3,1.6c0.5,0.4,1.2,0.7,1.9,0.9c0.7,0.2,1.4,0.2,2.1,0.1l0.5-0.1l0.6-0.1l1.2-0.3c3.2-0.7,6.4-1.4,9.5-2.2
		c3.2-0.7,6.4-1.4,9.6-2.1l4.8-1l4.8-1L85.3,170.3z"/>
	<path class="st0" d="M72.7,166.6l22.1,0.4c0.3,0,0.4,0.3,0.1,0.5l-18.3,12.2c0,0,3-6.1,2.5-8C78.7,169.7,72.7,166.6,72.7,166.6z"/>
	<circle class="st0" cx="95" cy="184.6" r="2.8"/>
	<polygon class="st6" points="66,120.4 56.5,120.4 56.5,122.5 60.3,122.5 60.3,140.3 62.4,140.3 62.4,122.5 66,122.5 	"/>
	<polygon class="st6" points="98.3,128.5 98.3,126.4 91.8,126.4 91.8,151 98.3,151 98.3,148.8 93.9,148.8 93.9,141 96.6,141 
		96.6,138.8 93.9,138.8 93.9,128.5 	"/>
	<polygon class="st6" points="74.9,140.9 74.9,138.8 68.5,138.8 68.5,163.4 74.9,163.4 74.9,161.3 70.6,161.3 70.6,153.4 
		73.3,153.4 73.3,151.3 70.6,151.3 70.6,140.9 	"/>
	<polygon class="st6" points="137,123.7 137,121.6 130.5,121.6 130.5,146.2 137,146.2 137,144.1 132.7,144.1 132.7,136.2 
		135.3,136.2 135.3,134.1 132.7,134.1 132.7,123.7 	"/>
	<g>
		<path class="st6" d="M124.8,152.3h-2.1v-24.4l0.9-0.2c0.1,0,2.3-0.4,4,1.3c1.3,1.3,2,3.4,2,6.2c0,3.8-0.8,6.5-2.3,8
			c-0.9,0.9-1.9,1.2-2.5,1.2V152.3z M124.8,130.2v11.9c0.3-0.1,0.7-0.2,1.2-0.7c0.7-0.7,1.5-2.4,1.5-6.1c0-2.1-0.4-3.5-1.3-4.4
			C125.7,130.5,125.2,130.3,124.8,130.2z"/>
	</g>
	<path class="st6" d="M67,152.1c0.5-2.1,0.5-6.7-0.9-8.6c-1.6-2.2-5.8-1.5-5.8-1.5v24.5l2.1,0l0.1-10.2c0.1,0,0.5,0,0.6,0l1.5,10.3
		l2.5,0.1l-2.1-11C65.9,155,66.6,154,67,152.1z M62.6,154.1l0-10.1c0.7,0,1.8,0.3,2.3,1.4c0.7,1.4,0.5,5.1,0.1,6.6
		C64.4,154,63.2,154.1,62.6,154.1z"/>
	<path class="st6" d="M104.7,163.5c0.5-1.9,0.6-6.1-1-7.8c-1.8-2-6.4-1.4-6.4-1.4v22.3l2.4,0l0.1-9.3c0.1,0,0.5,0,0.7,0l1.7,9.4
		l2.8,0.1l-2.3-10C103.4,166.1,104.2,165.2,104.7,163.5z M99.7,165.3l0-9.2c0.8,0,2,0.3,2.6,1.3c0.8,1.3,0.6,4.6,0.1,6
		C101.7,165.2,100.4,165.3,99.7,165.3z"/>
	<polygon class="st6" points="83,134 83,136.1 85.1,136.1 85.1,158.6 87.2,158.6 87.2,136.1 89.5,136.1 89.5,134 	"/>
	<path class="st6" d="M80.9,160.8H83l-2.3-24.6h-2.6l-2.4,24.6l2.1,0l0.5-4.8h2.1L80.9,160.8z M78.6,153.9l0.9-8.9l0.8,8.9H78.6z"/>
	<path class="st6" d="M119.6,147.9h2.1l-2.3-24.6h-2.6l-2.4,24.6l2.1,0l0.5-4.8h2.1L119.6,147.9z M117.3,141l0.9-8.9l0.8,8.9H117.3z
		"/>
	<g>
		<path class="st6" d="M110.3,151.4c-1.7,0-3-1.6-3-3.5v-17.5c0-1.9,1.4-3.5,3-3.5c1.7,0,3,1.6,3,3.5v2.7h-2.1v-2.7
			c0-0.7-0.4-1.3-0.9-1.3c-0.5,0-0.9,0.6-0.9,1.3V148c0,0.7,0.4,1.3,0.9,1.3c0.5,0,0.9-0.6,0.9-1.3v-2.7h2.1v2.7
			C113.3,149.9,112,151.4,110.3,151.4z"/>
	</g>
	<g>
		<path class="st6" d="M54.8,165.5c-1.8,0-3.2-1.6-3.2-3.6v-18.5c0-2,1.4-3.6,3.2-3.6c1.8,0,3.2,1.6,3.2,3.6v2.9h-2.1v-2.9
			c0-0.8-0.5-1.5-1.1-1.5s-1.1,0.7-1.1,1.5V162c0,0.8,0.5,1.5,1.1,1.5s1.1-0.7,1.1-1.5v-8.2h-1.1v-2.1h2.2l1.1,0v1.1v9.2
			C58,163.9,56.5,165.5,54.8,165.5z"/>
	</g>
	<g>
		<path class="st6" d="M102.5,153.5c-1.7,0-3.1-1.6-3.1-3.6v-2.9h2.1v2.9c0,0.8,0.5,1.4,1,1.4c0.5,0,1-0.7,1-1.4l0-0.1
			c0,0,0.5-4.4-0.1-6.9c-0.2-0.7-1.1-1.5-1.9-2.1c-0.5-0.4-0.9-0.8-1.2-1.1c-1.3-1.6-1-6.2-0.8-7.6c0-1.9,1.4-3.5,3.1-3.5
			c1.7,0,3.1,1.6,3.1,3.6v2.9h-2.1v-2.9c0-0.8-0.5-1.4-1-1.4c-0.5,0-1,0.7-1,1.4l0,0.1c-0.3,2.4-0.2,5.4,0.3,6.1
			c0.2,0.2,0.6,0.5,0.9,0.8c1,0.8,2.3,1.8,2.6,3.2c0.7,2.8,0.3,7.1,0.2,7.7C105.6,152,104.2,153.5,102.5,153.5z"/>
	</g>
	<g>
		<path class="st6" d="M109.2,171.3c-2,0-3.7-1.5-3.7-3.2v-9.4c0-1.8,1.7-3.2,3.7-3.2c2,0,3.7,1.5,3.7,3.2v9.4
			C112.9,169.9,111.3,171.3,109.2,171.3z M109.2,157.3c-0.9,0-1.6,0.6-1.6,1.4v9.4c0,0.8,0.7,1.4,1.6,1.4c0.9,0,1.6-0.6,1.6-1.4
			v-9.4C110.8,157.9,110.1,157.3,109.2,157.3z"/>
	</g>
	<path class="st6" d="M82.9,125.9v-6.4c0-2-1.7-3.7-3.7-3.7s-3.7,1.7-3.7,3.7v10.7c0,2,1.7,3.7,3.7,3.7s3.7-1.7,3.7-3.7v-1.3h-2.1
		v1.3c0,0.9-0.7,1.6-1.6,1.6s-1.6-0.7-1.6-1.6v-4.3H82.9z M77.6,119.5c0-0.9,0.7-1.6,1.6-1.6s1.6,0.7,1.6,1.6v4.3h-3.1V119.5z"/>
	<g>
		<path class="st6" d="M117.6,175.2c-2,0-3.7-1.5-3.7-3.2v-9.4c0-1.8,1.7-3.2,3.7-3.2c2,0,3.7,1.5,3.7,3.2v9.4
			C121.3,173.8,119.6,175.2,117.6,175.2z M117.6,161.2c-0.9,0-1.6,0.6-1.6,1.4v9.4c0,0.8,0.7,1.4,1.6,1.4c0.9,0,1.6-0.6,1.6-1.4
			v-9.4C119.1,161.8,118.4,161.2,117.6,161.2z"/>
	</g>
	<path class="st6" d="M131.4,155.2c-1,0-1.9,0.4-2.6,1.1c-0.7-0.7-1.6-1.1-2.6-1.1c-0.6,0-1.1,0.1-1.6,0.3v-2h-2.1v5.3v11.5v0.1h2.1
		v-0.1v-11.5c0-0.9,0.7-1.6,1.6-1.6c0.9,0,1.6,0.7,1.6,1.6v11.5h0h2.1h0v-11.5c0-0.9,0.7-1.6,1.6-1.6s1.6,0.7,1.6,1.6v11.5h2.1
		v-11.5C135.1,156.8,133.4,155.2,131.4,155.2z"/>
	<path class="st6" d="M70.7,120.5c-0.6,0-1.1,0.1-1.6,0.3v-6.2H67V137h2.1v-1.4h0v-11.5c0-0.9,0.7-1.6,1.6-1.6s1.6,0.7,1.6,1.6V137
		h2.1v-12.9C74.3,122.1,72.7,120.5,70.7,120.5z"/>
</g>
<g>
	<g>
		<g>
			<path class="st1" d="M496.3,135.1c-10.8-0.4-21.7-0.2-32.6-0.5c-13.7-0.3-27.4-0.1-41.1-0.2c-19.2-0.2-38.5-0.2-57.7-0.3
				c-12.1-0.1-24.2-0.2-36.3-0.1c-12.6,0.1-25.2-0.2-37.7-0.1c-6.3,0-12.6-0.1-18.9,0c-11.8,0.1-23.6,0.5-35.5,0.4
				c-4,0-7.9,0-11.8,0.3c-3.2,0.2-6.3,0.2-9.5,0.2c-2.3,0-4.7-0.1-6.8,0.4c-0.2,0.6,0.3,0.9,1.6,1c1.2,0.1,2.5,0.2,3.7,0.2
				c4.7-0.3,9.4-0.4,14.2-0.3c2.4,0.1,4.9-0.1,7.4-0.1c5.4-0.1,10.9,0.2,16.3-0.1c5.3-0.3,10.5-0.3,15.9-0.3
				c9.1,0,18.2-0.1,27.3-0.1c9.9,0,19.7,0.1,29.5,0.2c14.7,0.1,29.4,0.1,44.1,0.2c18.6,0.2,37.3,0,55.9,0.3
				c18.3,0.2,36.5,0,54.8,0.4c5.7,0.1,11.4,0,17,0.1c2.1,0,4.1-0.1,5.9-0.9C499.8,135.3,498.1,135.2,496.3,135.1z"/>
		</g>
	</g>
</g>
<g>
	<g>
		<g>
			<path class="st1" d="M496.3,175.2c-10.8-0.4-21.7-0.2-32.6-0.5c-13.7-0.3-27.4-0.1-41.1-0.2c-19.2-0.2-38.5-0.2-57.7-0.3
				c-12.1-0.1-24.2-0.2-36.3-0.1c-12.6,0.1-25.2-0.2-37.7-0.1c-6.3,0-12.6-0.1-18.9,0c-11.8,0.1-23.6,0.5-35.5,0.4
				c-4,0-7.9,0-11.8,0.3c-3.2,0.2-6.3,0.2-9.5,0.2c-2.3,0-4.7-0.1-6.8,0.4c-0.2,0.6,0.3,0.9,1.6,1c1.2,0.1,2.5,0.2,3.7,0.2
				c4.7-0.3,9.4-0.4,14.2-0.3c2.4,0.1,4.9-0.1,7.4-0.1c5.4-0.1,10.9,0.2,16.3-0.1c5.3-0.3,10.5-0.3,15.9-0.3
				c9.1,0,18.2-0.1,27.3-0.1c9.9,0,19.7,0.1,29.5,0.2c14.7,0.1,29.4,0.1,44.1,0.2c18.6,0.2,37.3,0,55.9,0.3
				c18.3,0.2,36.5,0,54.8,0.4c5.7,0.1,11.4,0,17,0.1c2.1,0,4.1-0.1,5.9-0.9C499.8,175.5,498.1,175.3,496.3,175.2z"/>
		</g>
	</g>
</g>
</svg>
