<?xml version="1.0" encoding="utf-8"?>
<!-- Generator: Adobe Illustrator 24.1.3, SVG Export Plug-In . SVG Version: 6.00 Build 0)  -->
<svg version="1.1" id="Layer_1" xmlns="http://www.w3.org/2000/svg" xmlns:xlink="http://www.w3.org/1999/xlink" x="0px" y="0px"
	 viewBox="0 0 600 600" style="enable-background:new 0 0 600 600;" xml:space="preserve">
<style type="text/css">
	.st0{fill:#B884C1;}
	.st1{fill:#FA9A86;}
	.st2{fill:#863399;}
	.st3{fill:#E64783;}
	.st4{fill:none;stroke:#000000;stroke-width:6;stroke-miterlimit:10;}
	.st5{fill:#FFDD92;}
	.st6{fill:#FFC844;}
	.st7{fill:#6CCA98;}
	.st8{fill:#1C355E;}
	.st9{fill:#757F9B;}
	.st10{fill:#E74F3D;}
	.st11{fill:#FFFFFF;}
	.st12{fill:#F697B2;}
	.st13{fill:#A9E0C0;}
	.st14{fill:none;stroke:#000000;stroke-width:2;stroke-miterlimit:10;}
	.st15{opacity:0.41;}
	.st16{stroke:#000000;stroke-width:4;stroke-miterlimit:10;}
	.st17{fill:none;stroke:#414042;stroke-width:2;stroke-miterlimit:10;}
	.st18{fill:#6FBB8F;}
	.st19{fill:#DB6041;}
	.st20{fill:#EC9E8B;}
	.st21{fill:#B5DEC2;}
	.st22{fill:#B086BE;}
	.st23{fill:#E99BB2;}
	.st24{fill:#FEDE9C;}
	.st25{fill:#767E99;}
	.st26{stroke:#000000;stroke-miterlimit:10;}
	.st27{fill:none;stroke:#000000;stroke-miterlimit:10;}
	.st28{fill:none;stroke:#000000;stroke-width:3;stroke-miterlimit:10;}
	.st29{fill:#7C3894;}
	.st30{fill:#83C89C;}
	.st31{fill:#FFFFFF;stroke:#000000;stroke-width:6;stroke-miterlimit:10;}
	.st32{fill:#F7CA5E;}
	.st33{fill:none;}
	.st34{fill:none;stroke:#000000;stroke-width:8;stroke-linecap:round;stroke-linejoin:round;stroke-miterlimit:10;}
	.st35{fill:#D45382;}
	.st36{fill-rule:evenodd;clip-rule:evenodd;fill:#D65A47;}
	.st37{fill-rule:evenodd;clip-rule:evenodd;fill:#83C89C;}
	.st38{fill-rule:evenodd;clip-rule:evenodd;fill:#D45382;}
	.st39{fill:#D65A47;}
	.st40{fill:#22345B;}
	.st41{fill:none;stroke:#000000;stroke-width:12;stroke-miterlimit:10;}
	.st42{fill:none;stroke:#000000;stroke-width:10;stroke-miterlimit:10;}
</style>
<g>
	<g>
		<g>
			<polygon class="st24" points="341.54,302.97 574.35,322.26 335.48,273.21 429.31,169.63 321.99,246.86 339.75,32.48 
				295.05,250.17 198.98,163.14 271.87,264.42 38.98,245.13 271.71,292.92 188.26,385.03 283.44,316.53 262.62,567.85 
				314.76,313.94 414.38,404.18 			"/>
		</g>
	</g>
	<g>
		<g>
			<g>
				<path class="st24" d="M341.62,307.13c-2.49-3.53-1.92-2.03-2.36-2.51C343.55,310.43,341.6,306.92,341.62,307.13z"/>
			</g>
		</g>
		<g>
			<g>
				<polygon class="st24" points="384,364.44 383.13,363.51 389.6,371.8 				"/>
			</g>
		</g>
		<g>
			<g>
				<path class="st24" d="M397.64,387.07c2.57,2.81,6.11,5.96,9,8.46c-3.17-4.26-6.2-8.26-7.93-10.86l-0.27-0.64
					c-1.28-1.46-2.4-2.7-3.37-3.73c3.16,4.25,6.87,9.24,10.18,13.68C402.67,391.71,399.86,389.19,397.64,387.07z"/>
			</g>
		</g>
		<g>
			<g>
				<path class="st24" d="M377.68,366.96c1.44,1.67-5.85-4.99,6.08,5.63c-0.57-0.56-0.73-0.73-1.07-1.06
					C381.63,370.56,380.17,369.23,377.68,366.96z"/>
			</g>
		</g>
		<g>
			<g>
				<path class="st24" d="M382.69,371.53C387.91,376.22,379.44,368.27,382.69,371.53L382.69,371.53z"/>
			</g>
		</g>
		<g>
			<g>
				<path class="st24" d="M358.57,349.88l7.01,6.03c-1.32-1.41-7.4-6.97-5.06-5C353.41,344.64,354.75,346.06,358.57,349.88z"/>
			</g>
		</g>
		<g>
			<g>
				<path class="st24" d="M351.73,344.37l3.62,3.14C354.77,346.89,353.85,346.03,351.73,344.37z"/>
			</g>
		</g>
		<g>
			<g>
				<path class="st24" d="M363.02,354.17l-7.67-6.66c0.92,0.98,0.87,1.24,3.51,3.07C358.11,350.18,359.73,351.38,363.02,354.17z"/>
			</g>
		</g>
		<g>
			<g>
				<path class="st24" d="M367.22,358.11c3.74,3.59,8.64,8.16,1.61,2.11C382,372.03,380.39,369.91,367.22,358.11z"/>
			</g>
		</g>
		<g>
			<g>
				<path class="st24" d="M397.79,388.17l4.89,4.71l2.68,2.11c-0.61-0.47-2.85-2.57-4.66-4.25
					C398.88,389.04,397.42,387.68,397.79,388.17z"/>
			</g>
		</g>
		<g>
			<g>
				<path class="st24" d="M312.43,309.73c-0.04,0.45,0.13-0.04,0.49-1.45c0.95,1.03,3.18,3.25,3.73,3.92l7.08,6.18
					c-3.22-3.04-8.74-8.25-10.86-10.25C312.62,309.18,312.49,309.65,312.43,309.73z"/>
			</g>
		</g>
		<g>
			<g>
				<path class="st24" d="M316.65,312.2l-3.44-3.02l-2.19,11.57c1.12-5.5,1.87-9.21,2.29-11.27
					C316.49,312.3,317.09,312.73,316.65,312.2z"/>
			</g>
		</g>
		<g>
			<g>
				<polygon class="st24" points="349.99,343.83 362.79,354.7 347.59,341.66 				"/>
			</g>
		</g>
		<g>
			<g>
				<polygon class="st24" points="303.62,352.51 304.45,346.77 302.88,356.98 				"/>
			</g>
		</g>
		<g>
			<g>
				<path class="st24" d="M298.47,377.88c0.59-4.26-1.65,5.66-0.91,1.19c-1.36,6.9-2.34,12.83-3.21,18.17
					C295.39,391.58,296.65,385.59,298.47,377.88z"/>
			</g>
		</g>
		<g>
			<g>
				<path class="st24" d="M292.84,406.19c0.48-2.82,0.97-5.76,1.51-8.96C293.81,400.24,293.29,403.2,292.84,406.19z"/>
			</g>
		</g>
		<g>
			<g>
				<path class="st24" d="M307.44,337.78c-0.25,0.76-0.78,2.2-2.03,7.79l1.21-3.85C306.88,340.52,307.16,339.16,307.44,337.78z"/>
			</g>
		</g>
		<g>
			<g>
				<path class="st24" d="M306.67,341.58l-0.04,0.14c-0.89,4.27-1.5,7.23-1.77,8.5C305.09,349.13,305.63,346.53,306.67,341.58z"/>
			</g>
		</g>
		<g>
			<g>
				<path class="st24" d="M307.65,336.79c-0.08,0.36-0.13,0.63-0.21,0.99C307.56,337.41,307.62,337.18,307.65,336.79z"/>
			</g>
		</g>
		<g>
			<g>
				<path class="st24" d="M330.39,325.57c-4.61-3.86-14.05-12.08-5.31-3.68C328.47,324.57,323.46,319.76,330.39,325.57z"/>
			</g>
		</g>
		<g>
			<g>
				<path class="st24" d="M309.16,332l2.28-10.61c-0.15,0.19-0.7,2.07-0.22-0.86L309.16,332z"/>
			</g>
		</g>
		<g>
			<g>
				<polygon class="st24" points="308.22,337.24 309.16,332 308.32,335.94 				"/>
			</g>
		</g>
		<g>
			<g>
				<path class="st24" d="M296.96,388.06c-0.77,4.63-1.78,9.66-2.92,15.34c1.29-6.08,2.62-12.36,3.89-18.32
					C297.97,384.21,298.28,381.54,296.96,388.06z"/>
			</g>
		</g>
		<g>
			<g>
				<path class="st24" d="M301.72,365.48c-0.06,0.32-0.13,0.73-0.19,1.03C301.69,365.89,301.81,365.39,301.72,365.48z"/>
			</g>
		</g>
		<g>
			<g>
				<path class="st24" d="M282.57,459.26c0.09-0.3,0.17-0.57,0.26-0.88c-0.01-0.08-0.02-0.14-0.03-0.22L282.57,459.26z"/>
			</g>
		</g>
		<g>
			<g>
				<path class="st24" d="M298.21,384.07c1.02-4.56,1.48-7.31,1.89-9.94c-0.68,3.43-1.4,7.05-2.17,10.94
					C297.91,385.47,297.93,385.55,298.21,384.07z"/>
			</g>
		</g>
		<g>
			<g>
				<path class="st24" d="M289.83,421.82c0.56-2.38,1.19-5.06,1.85-7.87C291.07,416.24,289.9,420.95,289.83,421.82z"/>
			</g>
		</g>
		<g>
			<g>
				<path class="st24" d="M301.1,368.02c0.04-0.23,0.08-0.44,0.12-0.69C300.83,368.82,300.91,368.64,301.1,368.02z"/>
			</g>
		</g>
		<g>
			<g>
				<path class="st24" d="M301.1,368.02c-0.38,2.35-0.69,4.23-1,6.11c0.52-2.79,1-5.38,1.43-7.63
					C301.37,367.05,301.22,367.61,301.1,368.02z"/>
			</g>
		</g>
		<g>
			<g>
				<path class="st24" d="M281.7,476.72c-0.21-0.88,1.91-12.97,4.44-23.27c1.82-10.27-0.79-3.85-3.32,4.92
					c0.1,0.35,0.25,0.38-1.68,10.93c0.96-3.64,5.27-23.21,3.79-14.28c-2.66,13.96-2.47,11.38-4.06,18.1
					c1.65-5.65-2.95,17.85-1.64,14.96l2.26-12.25C281.64,475.63,280.9,480.09,281.7,476.72z"/>
			</g>
		</g>
		<g>
			<g>
				<path class="st24" d="M286.97,438.37l0.84-4.33c-1.08,4.91-1.95,8.41-3.58,14.85c-1.29,7.23-1.46,8.75-1.44,9.27l4.42-21.28
					L286.97,438.37z"/>
			</g>
		</g>
		<g>
			<g>
				<path class="st24" d="M291.8,414.62c-0.28,3.46-2.24,13.88-0.49,7.61c2.58-12.69,1.48-8.96,2.86-16.58
					c-4.1,20.49,0.98-5.93-2.29,8.82c0.79-4.04,1.49-7.66,2.16-11.08c-0.82,3.67-1.61,7.21-2.36,10.55
					c0.05-0.18,0.08-0.31,0.12-0.46l0.02-0.1l0,0.02c0.23-0.87,0.32-1.16,0.09-0.17c-0.01,0.07-0.06,0.32-0.08,0.43
					C291.86,413.82,291.83,414.21,291.8,414.62c-1.3,5.91-0.3,0.91,0.03-0.96c-0.01-0.07,0.01-0.24-0.01-0.26l-0.02,0.08
					l-3.99,20.55C288.71,429.69,289.82,424.26,291.8,414.62z"/>
			</g>
		</g>
		<g>
			<g>
				<path class="st24" d="M316.07,314.93c-0.51-0.51-0.5-0.55-0.55-0.63C314.47,313.42,314.12,313.15,316.07,314.93z"/>
			</g>
		</g>
		<g>
			<g>
				<path class="st24" d="M313.01,320.52c0.25-1.46,0.4-2.93,1.39-7.7c0.18,0.16,0.49,0.44,0.81,0.74c3.66,3.49,0.02,0.29,0.31,0.74
					c1.21,1.01,3.31,2.77,4.21,3.52c0.88,0.68,0.74,0.42-3.45-3.51l-1.29-1.09c-0.22-0.2-0.44-0.41-0.67-0.62
					c-0.55,2.39-1.13,4.92-1.68,7.35c-0.5,2.05-0.98,4.01-1.4,5.68c-0.83,3.3-1.41,5.41-1.29,4.71
					C310.82,328.01,311.52,325.94,313.01,320.52z"/>
			</g>
		</g>
		<g>
			<g>
				<path class="st24" d="M302.39,368.18l-3.31,17.12l2.14-8.62l-0.3,0.4C303,367.38,302.3,369.42,302.39,368.18z"/>
			</g>
		</g>
		<g>
			<g>
				<polygon class="st24" points="281.96,461.17 281.99,458.82 280.58,468.81 				"/>
			</g>
		</g>
		<g>
			<g>
				<polygon class="st24" points="277.46,483.37 277.25,482.48 276.27,488.38 				"/>
			</g>
		</g>
		<g>
			<g>
				<path class="st24" d="M276.86,230.58l3.87,3.36C278.91,232.36,277.73,231.34,276.86,230.58z"/>
			</g>
		</g>
		<g>
			<g>
				<path class="st24" d="M249.39,205.67l-0.8-0.47C249.94,206.27,250.51,206.69,249.39,205.67z"/>
			</g>
		</g>
		<g>
			<g>
				<path class="st24" d="M258.04,311.6c5.28-5.29,11.28-11.09,10.36-10.72l-1.85,1.42C263.11,306.22,260.39,309.15,258.04,311.6z"
					/>
			</g>
		</g>
		<g>
			<g>
				<path class="st24" d="M159.06,254.98c-0.7-0.1-1.44-0.2-2.16-0.31c-1.82-0.01-3.53-0.01-5.06-0.01
					C154.01,254.75,156.47,254.86,159.06,254.98z"/>
			</g>
		</g>
		<g>
			<g>
				<path class="st24" d="M164.45,253.68l9.78,1.08C172.01,254.51,168.87,254.17,164.45,253.68z"/>
			</g>
		</g>
		<g>
			<g>
				<path class="st24" d="M330.12,65.7l2.17-12.72C328.81,69.96,330.38,63.39,330.12,65.7z"/>
			</g>
		</g>
		<g>
			<g>
				<path class="st24" d="M277,422.22c0.7-6.4,1.19-11.5,1.58-15.99C277.69,413.95,276.82,420.15,277,422.22z"/>
			</g>
		</g>
		<g>
			<g>
				<path class="st24" d="M263.05,224.1c2.37,2.05,3.42,2.88,3.42,2.75C264.03,224.74,262.62,223.57,263.05,224.1z"/>
			</g>
		</g>
		<g>
			<g>
				<path class="st24" d="M280.11,387.7c-0.13,1.13-0.25,2.23-0.38,3.38c-0.32,4.7-0.65,9.42-1.16,15.15
					C279.23,400.54,279.88,394.01,280.11,387.7z"/>
			</g>
		</g>
		<g>
			<g>
				<path class="st24" d="M545.49,313.88c0.77,0.17,1.68,0.38,2.38,0.54C548.46,314.49,547.29,314.24,545.49,313.88z"/>
			</g>
		</g>
		<g>
			<g>
				<path class="st24" d="M403.71,306.27c2.1,0.17,5.53,0.44,8.76,0.69C410.89,306.81,408.25,306.59,403.71,306.27z"/>
			</g>
		</g>
		<g>
			<g>
				<path class="st24" d="M269.02,522.57C268.97,523.54,269.11,522.08,269.02,522.57L269.02,522.57z"/>
			</g>
		</g>
		<g>
			<g>
				<path class="st24" d="M267.61,538.69c-0.29,1.91-0.48,3.17-0.6,3.91C267.17,541.54,267.36,540.32,267.61,538.69z"/>
			</g>
		</g>
		<g>
			<g>
				<path class="st24" d="M281.45,339.78c0.01-0.14,0.02-0.25,0.04-0.41C281.28,340.79,281.32,340.54,281.45,339.78z"/>
			</g>
		</g>
		<g>
			<g>
				<path class="st24" d="M268.56,526.71c0-0.06-0.01-0.12-0.02-0.1c0.09-0.77,0.19-1.71,0.31-2.7c-0.05,0.44-0.13,1.15-0.31,2.71
					C268.51,526.84,268.53,526.8,268.56,526.71z"/>
			</g>
		</g>
		<g>
			<g>
				<path class="st24" d="M268.96,523.8c0.06-0.23,0.11-0.41,0.16-0.58C269.3,521.99,269.37,521.42,268.96,523.8z"/>
			</g>
		</g>
		<g>
			<g>
				<path class="st24" d="M269.14,520.91c-0.1,1.06-0.2,2.05-0.29,3c0.15-1.11,0.14-1.03,0.18-1.34
					C269.05,522.22,269.08,521.73,269.14,520.91z"/>
			</g>
		</g>
		<g>
			<g>
				<path class="st24" d="M385.84,199.34c0.26-0.18,0.57-0.38,0.86-0.57C390.53,195.8,388.82,197.06,385.84,199.34z"/>
			</g>
		</g>
		<g>
			<g>
				<path class="st24" d="M171.36,274.31c0.22,0.04,0.34,0.06,0.54,0.09c-0.22-0.05-0.5-0.11-0.69-0.16L171.36,274.31z"/>
			</g>
		</g>
		<g>
			<g>
				<path class="st24" d="M154.39,271.14c7.3,0.97,11.39,1.87,16.82,3.1l-5.35-2.34L154.39,271.14z"/>
			</g>
		</g>
		<g>
			<g>
				<path class="st24" d="M305.18,188.77l-2.81,11.8c2.33-14.45,4.67-24.78,1.86-13.74c0.95,1.95-9.34,46.17-8.39,48.09l-1.88,7.77
					c0.44-2.25,0.51-2.61,0.94-4.83c-1.76,7.31-1.32,5.69-1.47,7.38c-0.43-0.19-0.78-0.22-2.05-1.16c-2.22-1.81-5.15-4.31-9.57-8.39
					c-5.1-4.76-8.58-8.17-4.95-5.09l-11.74-10.2c-3.33-3.06-2.36-2.48,0.96,0.56l-17.64-15.84l0.16,0.09
					c-2.64-2.19-8.54-7.06-11.41-9.44c-4.34-4.18,2.33,1.93,1.3,0.77l-9.95-8.58c-3.73-3.84,4.55,3.22,11.24,9.34
					c-4.1-4.6-6.18-6.37-9.61-9.28c-0.86-0.73-1.8-1.53-2.88-2.46c-1.65-1.46-3.51-3.11-5.68-5.04
					c-4.57-4.11-10.21-9.27-18.99-17.49l15.26,13.6c-4.93-4.93-10.77-10.39-17.4-16.51c-6.91-6.37-14.7-13.55-23.85-21.98
					c1.06,1.52,2.18,3.15,3.34,4.82c-0.49-0.73-1.51-2.27-2.81-4.23c6.05,5.76,15.01,14.29,20.26,19.29c5,4.86,6.31,6.37,0.08,0.91
					c-3.43-3.2-7.64-7.07-12.33-11.24c2.05,2.77,4.41,5.95,7.05,9.5c-2.49-2.66,5.45,8.18,14.38,20.54l-2.31-2.15
					c5.56,7.57,8.13,10.93,10.11,13.45c1.55,1.94,2.7,3.37,5.19,6.49c6.56,9.22,7.54,11.41,8.77,13.81
					c10.51,14.77-6.68-10.61,5.94,6.73c8.61,12.37,15,20.82,25.84,35.23c5.99,8.69-1.39-1.28,0.68,1.9l2.93,3.65l1.47,1.83
					c0.3,0.38,0.38,0.46,0.51,0.6l0.39,0.44c0.64,0.91,0.21,0.57,0.02,0.44c1.19,1.48,1.54,1.67,2.16,2.25
					c-0.11,0.13-0.7,0.22-4.32-0.01c-3.29,0.41-25.24-3.09-40.56-3.58c-3.75-0.49,1.85-0.23,0.72-0.56
					c-21.01-1.23-18-1.12-35.27-1.86l-14.63-1.62c10.74,1.36-3.08,0.77-15.17,0.22c3.82,0.53,7.08,0.98,9.24,1.28L149.02,255
					c-2.32-0.29-0.36-0.35,2.82-0.34c-1.31-0.05-2.56-0.1-3.54-0.14c-6.86-0.8-3.27-0.86,1.69-0.8c2.33,0.32,4.65,0.64,6.9,0.96
					c4.78,0.02,9.26-0.03,8.31-0.47c-1.26-0.03-3.67-0.17-6.32-0.36c1.25,0,2.05-0.02,1.48-0.13c-0.65-0.12-2.67-0.15-5.83-0.25
					l-4.32-1.05l-1.08,0.19l-25.14-2.52c-8.21-0.33-15.99-0.65-24.66-1c-10.83-0.55-20.21-1.01-30.87-1.7
					c-2.32-0.15-4.8-0.31-7.41-0.48c1.91-0.04,0.55-0.37-1.29-0.69c-1.91-0.33-4.32-0.67-6.11-1.06c2.1,0.2,4.09,0.34,5.86,0.39
					c5.52,0.48,11.04,0.82,17.82,1.27c6.69,0.45,14.71,1.01,22.9,1.74c-11.14-0.99-9.45-1.14-6.41-0.99l-36.33-2.43l-0.06,0.01
					c-3.71-0.83-6.03-0.55-10.29-0.58c2.59,0.31,2.69,0.56,0.75,0.62c-1.89,0.07-5.45,0.01-8.97-0.05c2.85,0.78,5.71,1.54,8.12,2.12
					c-0.66,0.02-2.94-0.43-8.15-2.13c0.47-0.01,1.03-0.02,1.63-0.03c-0.58,0.01-1.13,0.02-1.64,0.03c2.76,0.96,4.9,1.64,8.7,2.48
					c1.91,0.42,3.83,0.84,5.96,1.32c2.02,0.47,4.04,0.96,5.07,1.45c-2.15-0.56-3-0.84-4.87-1.15c1.5,0.36,3.53,0.85,5.69,1.36
					c5.07,1.07,10.51,2.22,14.2,3c3.48,0.78,5.19,1.23,2.49,0.79l-4.49-0.92c12.63,2.58,31.84,6.5,48.38,9.88
					c13.71,2.7,25.22,4.82,26.86,4.74c0.19,0.15-2.94,0.41-4.24,0.32l37.86,4.94c-3.43,0.02,8.85,4.26-8.57,1.1
					c4.96,1.12,11.09,2.5,21.63,4.41c-3.38-0.8-8.26-2.74-3.6-1.85c12.58,3.39,8.76,2.23,24.32,6.11c-5.06-1.19,0.82-1.12,8.85,0.56
					c-1.29-0.09,0.45,1.21-2.51,0.72l20.24,3.04c-5.04-0.83-1.07,0.72,3.35,1.95c-1.02-0.32,3.31,0.58,8.56,1.67
					c2.62,0.55,5.48,1.14,8.01,1.67c2.12,0.42,3.96,0.79,5.07,1.01l-1.1-0.29l-2.11-0.5l-4.22-1c2.6,0.53,4.89,0.99,6.93,1.41
					c1.27,0.21,2.4,0.39,3.42,0.56c-1.05,1.37-1.94,2.54-2.8,3.66c-1.36,1.73-2.67,3.38-4.08,5.16c-2.85,3.57-6.27,7.69-12.12,14.12
					c1.69-2.21,3.57-6-4.35,2.53c-3.17,4.33-13.87,19.31-27.15,34.61l-2.85,2.66l-4.22,4.93l-2.97,3.55c0.41-0.76,1.4-2.26,3.4-4.91
					c2.53-3.21,5.42-6.88,8.41-10.67c6.14-7.73,12.73-15.92,17.46-21.64c-5.98,6.23-1.89,1.53-10.55,11.13
					c-3.29,3.18,4.4-5.53,6.94-8.36l-20.36,22.18c0.4,0.05-1.99,2.93-9.01,10.9c-5.99,6.84-11.4,13.01-9.78,11.62l15.68-17.82
					l10.76-12.38c0.69-0.27-2.14,3.54-6.95,9.39c-1.3,1.55-2.71,3.23-4.21,5.02c-1.72,2-3.55,4.11-5.44,6.3
					c-3.71,4.25-7.52,8.54-11.85,13.27c-2.78,2.88-3.68,3.44-3.61,2.93c0.02-0.45,1.08-2.03,0.39-1.43
					c-1.23,1.56-7.93,9.16-13.28,15.12c4.32-3.14,7.69-5.55,8.24-5.88l-10.51,7.91l1.44-1.69c-0.73,0.79-1.45,1.57-2.14,2.33
					c6.6-4.68,13.73-10.08,20.15-14.89c6.6-4.94,12.3-9.16,20.3-14.56c1.42-0.97,3.19-2.18,5.08-3.48c1.36-0.88,2.8-1.81,4.13-2.67
					c2.66-1.72,4.88-3.19,5.11-3.6c-6.96,4.09-9.58,3.14-5.56-0.45c1.43-0.97,21.41-14.53,26.19-17.52
					c6.92-4.26-9.07,8.24-3.17,4.61c0.14-0.32,3.64-3.11,5.12-4.26c4.29-2.9-1.42,1.7,7.66-4.93c1.14-1.63,18.59-13.31,3.99-3.56
					c4.41-3.29,6.8-4.97,9.39-6.77c2.21-1.56,4.59-3.23,9.09-6.4c-0.72,0.32-0.1-0.41,2.01-2.24c0.21,2.62-0.13,12.3-0.57,19.08
					c-0.11-0.66-0.54,1.79-0.74,2.97c-2.01,22.44-3.09,34.5-4.96,55.43c-0.32,1.92-1.35,12.01-1.28,7.68
					c-0.13,3.02-0.14,5.81-0.66,12.27c-1.61,12.45,1.1-14.41-0.37-4.94c0.32,0.85-0.86,16.75-1.38,25.97
					c0.83-2.78,1.87-21.25,2.4-30.48c0.82,0.02,0.35,16.13-1.09,38.06c-1.24,17.41-1.15,7.5-1.29,10.53
					c-1.42,16.33-1.65,23.32-1.86,29.61c-0.11,3.15-0.22,6.12-0.48,10c-0.15,1.94-0.32,4.1-0.52,6.63
					c-0.12,1.26-0.24,2.62-0.38,4.08c-0.11,0.98-0.22,2.03-0.35,3.17c-0.54,3.32-0.89,4.43-1.11,4.16
					c-0.23-0.15-0.33-1.62-0.63-0.24c0.44-6.47,1-12.22,1.5-17c0.51-4.86,0.99-9.15,1.38-13.95l-1.23,11.81
					c0.2-4.52,0.85-13.99,1.43-19.14c-0.99,7.35-3.32,37.58-5.74,65.08c-0.49,6.12-0.96,11.85-1.35,16.78
					c-0.11,1.86-0.26,4.39-0.35,6.09c-0.03,0.45-0.06,0.84-0.08,1.16c-0.02,0.29-0.06,0.67,0.01,0.29c0.09-0.47,0.22-1.46,0.41-3.13
					l0.48-6.65c0.72-6.17,0.72-4.33,0.74-3.17c0.01,1.29,0.03,2.15,0.57-3.15c-0.01,1.02,0.02,1.76,0.04,2.44
					c0.76-4.14,1.55-8.5,2.4-13.17c0.71-3.76,1.31-6.71,1.94-9.35l-0.04,2.11l0.01,0.98c0.01-0.2-0.02-0.19-0.09,0.02
					c-0.3,0.8-1.17,4.52-1.89,8.78c0.58-3.43,1.08-5.1,1.83-8.1c0.87-3.42,2.15-9.03,2.63-13.52c-0.56,2.03-1.04,3.69-1.44,4.96
					c0.59-3.69,1.24-7.83,1.93-12.17c0.12-0.79,0.25-1.58,0.37-2.39l0.2-1.2l0.46-2.42c0.63-3.24,1.3-6.52,2.02-9.79
					c-1.8,5.85-0.56,3.04-3.14,12.23c0.31-0.99,0.44-1.21,0.43-0.85c-0.01,0.18-0.05,0.49-0.12,0.93c-0.02,0.17-0.05,0.38-0.08,0.63
					c-0.15,0.98-0.48,2.56-0.78,4.03c-0.31,1.48-0.59,2.86-0.76,3.97c-0.16,1.06-0.25,2.08,0.03,1.79c-0.32,0.06-0.48,0.27-0.69,0.9
					c-0.15,0.51-0.31,1.03-0.48,1.6c-0.13,0.32-0.23,0.3-0.05-1.66c-0.33,2.57-0.37,3.69-0.89,5.74c-0.12,0.76-0.37,2.42-0.54,3.47
					c-0.01,0.03-0.02,0.02-0.02,0.02l-0.01,0.16c-0.1,0.64-0.12,0.75,0,0.05c0,0.44-0.03,1.11-0.17,2.29
					c-0.43,2.81-0.93,5.72-1.47,8.72c-0.05-1.32,0.32-6.24,0.22-6.99c0.26-2.54,0.32-2.63,0.4-2.77c0.08-0.11,0.18-0.34,0.46-2.38
					c-0.1-0.25-0.17-0.77-0.22-1.58c0.01-0.07,0.02-0.13,0.06-0.35c0.17-1.11,0.82-5.3,1.17-7.58c0.32-1.96,0.49-2.41,0.48-0.83
					l0.41-4.69c0.27-1.84,0.48-3.3,0.62-4.53c0.17-2.05,0.34-4.07,0.5-5.95c0.15-2.19,0.29-4.22,0.41-5.99
					c0.64-6.64,0.91-16.84,0.77-11.02l1.56-22.14l0.13-0.2c1.86-21.81,3-44.98,5.85-69.86c0.5-7.36,0.99-14.96,2.13-27.24l0.57-2.36
					c0.65-9.44,2.72-28.29,2.67-32.38c0.11-0.68,0.23-1.44,0.36-2.28c0.06-0.43,0.12-0.89,0.19-1.36c0.08-0.71,0.16-1.46,0.25-2.23
					c0.37-3.89,0.8-8.37,1.27-13.29c-4.77,3.42-10.14,7.25-15.75,11.27c-3.6,2.62-7.36,5.35-11.05,8.03
					c-7.37,5.37-14.44,10.55-19.48,14.09l-0.22,0.77c-4.64,3.36-9.17,6.66-14,10.16c-2.4,1.77-4.86,3.58-7.45,5.49
					c-1.22,0.9-2.47,1.83-3.75,2.78c-0.52,0.4-1.04,0.81-1.59,1.23c0,0.18,0.03,0.34,0.08,0.48c-1.67,1.34-3.86,2.93-5.93,4.37
					c-1.76,1.19-3.69,2.49-5.71,3.86c2.69-2.84,4.97-5.25,6.89-7.39c0.18,0.05-1.17,1.47-2.7,3.01c2.91-2.85,4.33-4.29,5.7-5.82
					c2.93-3.34,5.88-6.7,8.8-10.03c7.87-9,15.53-17.82,22.85-25.37c3.4-3.99,5.98-6.76,8.53-9.41c-0.32,0.37-0.61,0.69-0.85,0.98
					c0.36-0.4,0.9-0.99,1.45-1.59c1.61-1.66,3.27-3.38,5.06-5.24c-1.55,1.58-3.01,3.08-4.28,4.38c2.68-3.02,6.74-7.6,10.73-12.1
					l2.06-1.58c0.32-0.36,0.58-0.66,0.92-1.04c1.73-1.78,3.7-4.04,3.47-3.97c-0.03-0.05-0.39,0.23-0.96,0.73
					c-0.49,0.44-1.13,1.01-1.87,1.68c2.54-2.96,4.9-5.69,6.72-7.8c-0.34-0.06-0.54-0.1-0.75-0.13c-1.34-0.47-3.6-1.01-6.25-1.58
					c-1.99-0.4-4.22-0.84-6.52-1.3c-4.08-0.78-8.38-1.61-11.5-2.66c-4.04-0.43-29.63-5.78-32.93-5.62c-0.18-0.15-1.9-0.55,1.27,0.09
					c-6.54-1.44-13.07-2.88-19-3.86l-2.66-1.15l-14.48-2.16c-8.62-2.14-12.19-3.09-3.46-1.76c-20.99-3.59-16.97-3.22-34.85-6.17
					l0.94-0.2c-6.34-1.29-16.58-2.86-20.34-3.96c-4.05-1.05-11.61-2.7-21.18-4.71c-5.78-1.21-12.78-2.66-20.09-4.19
					c-5.17-1.1-10.53-2.23-15.65-3.32c5.12,0.51,10.05,1.01,14.54,1.46c-4.7-0.73-5.5-0.89-4.1-0.75c1.6,0.18,4.29,0.49,6.91,0.8
					c3.33,0.39,5.52,0.63,3.9,0.14c2.91,0.51,5.55,0.88,4.24,1c1.54,0.06,3.33,0.2,4.9,0.35c2.09,0.2,3.97,0.38,5.75,0.55
					c6.36,0.57,12,1.03,18.56,1.2c2.14,0.45-4.08,0.06-2.17,0.37c1.52,0.07,6.02,0.27,7.98,0.59c1.91,0.32-2.79-0.01-5.79-0.14
					c19.31,1.55,21.33,0.89,22.8,0.24c9.75,1.18,14.64,1.53,21.75,1.61c3.39,0.53,9.05,1.27-2.96,0.37
					c6.75,0.6,41.19,3.79,41.93,3.22c2.1,0.33,9.43,0.83,11.21,0.9c15.14,1.27,16.47,1.38,31.34,2.63l-4.11-0.44
					c2.97-0.13,6.06,0.08,9.91,0.44c1.92,0.19,4.04,0.39,6.42,0.62c2.74,0.24,5.78,0.5,9.22,0.79l-0.34,0.05
					c1.97,0.19,3.77,0.37,4.85,0.48c-3.89-5.51-6.25-8.85-7.89-11.18c-1.4-1.89-2.18-2.96-3.03-4.1
					c-1.71-2.28-3.64-4.93-10.92-15.54l0.49,1.47c-2.29-1.47-13.6-19.91-23.14-32.51l3.11,4.78c-2.66-3.4-5.9-8.49-9.1-13.62
					c-0.8-1.28-1.6-2.57-2.38-3.83c-0.61-1.02-0.77-1.41-1.08-1.98c-0.52-1.02-0.8-1.63-1.19-2.22c-0.17-0.38,1,1.15,1.59,1.86
					c-0.78-1.34-1.04-1.76-1.43-2.25c-0.37-0.46-0.77-0.84-1.21-1.25c-0.92-0.86-1.76-1.46-4.72-5.44c0.34,0.19,1.69,1.7,2.52,2.56
					c0.85,0.88,1.33,1.3,0.59,0.22c0.06,0.04,0.01-0.05-0.16-0.28c0.76,0.68,1.04,0.58,3.3,2.37c1.07,0.84,2.51,2.05,3.95,3.33
					c1.44,1.31,2.84,2.59,4.17,3.82c1.44,1.38,2.82,2.68,4.09,3.9c-2.37-2.48-4.71-4.95,1.23,0.18
					c8.98,8.01,23.46,22.55,32.05,29.25c1.09,1.08,1.47,1.52,1.48,1.6c3.46,3.04,9.07,7.96,14.35,12.59c2.64,2.3,5.2,4.52,7.37,6.41
					c1.32,1.13,2.51,2.16,3.55,3.04c1.08,0.89,1.98,1.64,2.67,2.22c0.38,0.44,0.84,0.94,1.48,1.59c0.48-1.56,1.1-4.09,1.82-7.29
					c0.51-2.37,1.1-5.1,1.74-8.05c1.09-5.64,2.35-12.13,3.54-18.28c2.32-12.3,4.38-23.2,5.05-22.96l5.61-27.73l0,0.75
					c3.73-17.69,4.67-24.03,5.6-30.32c0.94-4.07,0.46-1.06,0.47-0.7c2.8-12.91,4.32-20.01,5.61-26.62c0.61-3.3,1.19-6.48,1.88-10.2
					c0.32-1.86,0.67-3.85,1.05-6.07c0.27-1.68,0.57-3.54,0.9-5.62c0.21-0.24,0.41-0.39,0.58-0.44c0.26-1.93,1.45-6.91,2.52-11.39
					c0.94-3.94,1.73-7.22,2.95-13.56c-0.08,1.23-0.11,2.19-0.1,2.92c-0.11,0.62-0.28,1.63-0.35,1.66c0.03,1.4-0.38,6.18-0.84,10.72
					c-0.33,3.13-0.67,6.29-0.99,9.32c-0.14,1.27-0.28,2.51-0.41,3.7c-0.17,1.73-0.33,3.4-0.48,4.99c-0.88,10.09-1.4,18.2-1.08,22.21
					l-1.16,19.21c2.19-24.79,0.45,3.76,1.59-6.42c-0.7,9.76-2.62,25.18-1.71,13.18l0.24-1.87c-0.55-4.48-2.88,30.8-3.44,30.08
					c-2.22,25.91-4.41,51.48-6.57,76.65c20.28-14.48,40.22-28.72,59.77-42.67l-4.7,2.51l13.01-9.31c3.5-2.32,4.9-2.84-4.38,3.8
					c2.55-1.59,6.39-4.45,9.61-6.96c3.22-2.51,5.82-4.65,5.91-4.81c1.06-0.73,1.95-1.36,2.71-1.88c0.49-0.32,0.88-0.58,1.2-0.79
					c0.61-0.39,0.88-0.53,0.93-0.51c0.09,0.05-0.65,0.7-1.43,1.37c-0.3,0.32-2.94,2.32-4.06,3.19c-1.27,0.98-1.78,1.4-0.38,0.4
					l5.32-3.9l-0.69,0.4c2.67-2.28,3.87-3.53,10.25-8.07c3.28-2.19-0.49,0.89,0.71,0.07c-0.26,0.23-0.16,0.19,0.83-0.54
					c-0.12,0.14-0.28,0.33-0.47,0.56l-6.25,6.8c1.35-1.22,2.98-2.73,4.88-4.55c-2.36,3.01-8.02,8.81-2.07,3.19
					c-1.2,1.14-2.57,2.51-4.03,4c-0.73,0.76-1.53,1.6-2.39,2.48c-1.2,1.29-2.47,2.65-3.8,4.08c-5.28,5.78-11.51,12.6-17.62,19.29
					c-12.18,13.44-23.86,26.46-26.79,29.46c-3.32,3.92-6.68,7.76-10.2,11.73c-4.02,4.46-8.18,9.08-12.66,14.06
					c3.11,0.64,6.43,1.33,9.87,2.05c-0.46-0.12-0.89-0.23-1.29-0.33c-0.48-0.14-0.91-0.26-1.27-0.36c-0.65-0.21-0.86-0.34-0.45-0.34
					c1.03,0.05,3.67,0.45,10.12,1.81c-4.99,0.3,23.56,5.41,33.83,8.48c-9.21-2.53,36.79,7.4,22.31,3.53
					c10.77,2.32,0.56,0.61,8.68,2.59c25.78,4.78,56.53,11.94,88.3,18.29c0.53-0.07-4.73-1.41,2.13-0.26l7.95,2.07
					c1.43,0.44,2.54,0.81,3.33,1.12c1.39,0.24,2.92,0.3,4.77,0.52c1.73,0.19,4.25,0.63,5.27,1.14c0.26-0.09,0.06-0.36,3.11,0.21
					l2.14,0.49c5.16,1.13,10.35,2.26,15.57,3.41c-5.81-0.48-11.65-0.96-17.5-1.44c-16.69-1.35-33.49-2.71-50.26-4.06
					c-21.25-1.8-42.46-3.74-63.46-6c8.67,1.05,2.87,0.6-3.77,0.06c4.31,0.44-0.13,0.41,0.7,0.71l-26.84-2.87
					c-4.95,0.23-28.84-2.35-31.7-1.97l8.53,0.6c-11.39-0.22,15.72,2.92,13.98,3.71c12.75,0.23,33.34,3.99,54.25,4.54
					c4.58,0.57-3.94-0.03-1.5,0.39c5.31,0.04,11.68,0.48,23.47,1.64l-1.34-0.01c16.59,1.33,28.43,2.38,40.77,3.52
					c16.29,1.47,33.26,2.99,57.8,5.2l-6.97-1.04c7.54,0.71,11.56,1.09,14.78,1.4c1.13,0.05,2.05,0.09,3.23,0.15
					c-0.07-0.49-2.11-0.49-5.03-0.52c-4.62-0.4-10.04-0.88-13.44-1.18c-3.59-0.35-5.22-0.59-3.22-0.64c3.79,0.5,9.37,1.07,16.06,1.7
					c6.17,0.21,12.47,0.04,18.46-0.02c-5.66-1.74-10.2-3.22-8.56-3.43c-2.26-0.92-3-0.88-3.56-0.82c-0.57,0.06-0.94,0.14-4.06-0.83
					c-0.04-0.01-0.19-0.04-0.34-0.07l-2.55-0.82l-7.16-1.09c-5.49-1.16-9.28-2.04-11.83-2.7c-2.52-0.65-3.74-1.05-3.57-1.14
					c3.24,0.64,9.2,1.82,12.67,2.51c-7.57-1.73-20.22-4.3-30.85-6.42c-3.35-0.65-6.47-1.27-8.99-1.76c-2.42-0.5-4.24-0.87-5.13-1.05
					l11.6,2.56c-33.09-6.52-73.36-15.18-105.39-21.16l2.38,0.71c-24.46-4.61-19.48-4.24-46.28-9.56l0.98,0.15
					c-5.4-0.89-12.57-2.25-19.89-3.78c1.7,0.28,1.76,0.23,1.04,0.02c-0.66-0.18-1.97-0.52-3.24-0.86c-1.58-0.45-2.42-0.76-0.31-0.47
					c-0.82-0.14-1.57-0.26-2.04-0.34c0.77-0.92,1.39-1.66,1.91-2.27c1.12-1.3,2-2.31,2.71-3.13c1.43-1.66,2.15-2.53,2.77-3.32
					c1.24-1.57,2.09-2.77,7.4-9.19l3.03-2.81c3.84-4.72,4.05-5.21,13.14-15.39c-7.28,8.5,6.25-6.09-1.86,3.48
					c19.81-20.69,27.95-32.04,37.63-41c0.86-1.14,1.9-2.44,1.99-2.66c0.15-0.29-0.28,0.09-1.08,0.89c-1.33,1.31-3.43,3.57-5.81,6.16
					c-4.67,5.1-9.76,10.8-7.37,8c-4.33,4.3,6.63-8.42,12.95-15.26c3.35-3.68,6.65-6.91,12.14-12.53
					c5.39-5.52,13.23-13.72,23.69-25.17c-1.59,1.14-3.25,2.33-4.99,3.57c2.72-2,3.19-2.34,5.52-4.06c-0.12,0.14-0.34,0.38-0.59,0.65
					l0.71-0.76c-4.5,3.11-10.33,7.41-15.94,11.53c-5.7,4.18-11.12,8.13-17.26,12.3c-2.04,1.65-3.99,3.15-5.9,4.57
					c-1.8,1.31-3.57,2.61-5.2,3.8c-2.35,1.7-4.26,3.12-4.72,3.93l21.55-15.73c-3.41,2.56-6.78,5.09-10.28,7.71
					c-2.85,2.18-5.8,4.43-8.96,6.84c-5.38,4.11-11.58,8.72-19.71,14.3c1.16-1.02,5.8-4.61,9-7.06c-4.81,3.18-8.92,6.6-13.91,9.91
					c0.47-0.81,5.65-4.59,11.97-9.16c3.16-2.29,6.59-4.79,9.89-7.18c3.93-2.94,7.68-5.75,10.82-8.1c-1,0.7-2.22,1.54-3.58,2.49
					c-1.06,0.77-2.24,1.62-3.46,2.5c-1.97,1.47-4.09,3.04-5.89,4.38c-3.59,2.68-5.95,4.39-3.57,2.17
					c-6.9,6.27-18.48,13.13-30.65,22.89l0.56-0.97c-1.96,1.5-5.98,4.66-9.67,7.3l6.32-5.28c-4.97,3.89-9.97,7.35-14.93,10.75
					c-2.48,1.71-4.95,3.4-7.41,5.1l-3.67,2.6l-1.7,1.24l-0.51,0.42c4.39-3.1,6.83-4.83,8.15-5.76c1.57-1.06,1.82-1.14,1.71-0.95
					c-0.22,0.39-1.9,1.87,2.54-1.12c-4.96,3.72-8.69,6.43-11.33,8.29c-1.58,1.09-2.59,1.7-3.27,2.04c0.17-0.96,0.35-1.76,0.51-2.48
					c0.08-0.33,0.16-0.67,0.24-1.04c0.05-0.25,0.06-0.14,0.13-0.69c0.06-0.48,0.13-0.99,0.2-1.53c0.54-4.29,1.16-10.41,1.96-20.88
					c-0.33,4.73-1.74,17.7-1.34,10.3c0.64-6.63,1.55-15.38,2.12-19.43c1.82-23.11-0.77,3.51-0.23-6.35
					c1.21-7.82,0.71-11.36,1.37-21.5l0.47-0.03c2.48-26.3-0.39-7.06,1.93-30.73l-0.18,10.07l0.86-12.37l0.32,2.59
					c0.72-13.47,1.17-17.65,2.41-30.81c-0.58,3.03-0.7-1.79,0.25-13.45c0.47-3.96,0.49-2.84,0.55-2.79
					c0.03,0.02,0.08-0.22,0.19-1.51c0.12-1.47,0.34-4.13,0.73-8.87c-0.07,2.25-0.14,4.6-0.22,7.37c-0.12,2.39-0.37,5.21-0.89,8.79
					c0.09,0.75-0.01,3.7,0.08,4.48c0.51-4.27,0.98-9.65,1.37-14.71c0.62-7.89,1.2-15.28,1.57-19.95c-0.36,3.93-0.8,8.6-1.03,11.05
					l2.26-35.08c0.76-6.99,0.63-3.73,0.44,0.17c0.19-2.77,0.35-5.21,0.53-7.82c-0.22-0.51-0.43-1.26-0.56-3.19
					c0.48-1.32,0.85-3.31,1.78-2.8c-0.05,0.68-0.11,1.6-0.18,2.59l0.19-2.63c-0.74-0.6-1.34-1.93-1.78-3.98
					c0.01-0.49-0.11-1.67-0.25-2.38c-0.14-0.74-0.3-1.05-0.17-0.8l-0.1-0.21c-0.57,0.62-1.21,1.24-1.97,2.63
					c-0.75,1.33-1.6,3.48-2.47,5.71c-1.86,9.43-3.62,18.14-5.4,26.36c-0.29,1.78-0.87,4.98-2.04,10.94
					c-2.09,9.78-4.07,19.02-6.14,28.69c-1.64,7.65-3.27,15.68-4.9,24.92l-2.81,10.28c-2.8,14.42,3.74-13.94-0.93,10.07
					c-3.27,17-1.87,6.21-3.28,12.12c-1.39,8.5-3.72,23.31-7.46,38.78C303.31,197.62,304.24,193.6,305.18,188.77z M197.94,159.33
					c1.89,1.64,4.73,4.11,7.42,6.45c2.86,2.52,5.81,5.18,7.56,6.95C209.19,170.08,205.67,166.54,197.94,159.33z M132.56,251.88
					c2.61,0.06,6.63,0.47,11.15,1.02C140.41,252.67,136.68,252.34,132.56,251.88z M269.89,507.55c0-0.05-0.01-0.08-0.01-0.13
					c0.11-0.81,0.19-1.34,0.23-1.65c0.08-0.75,0.1-0.97,0.08-0.77C270.16,505.2,270.04,506.21,269.89,507.55z M269.06,515.05
					c0.03,0.38,0.14-0.09,0.26-0.72c-0.14,0.23-0.01-1.38,0.17-3.24C269.3,511.92,269.09,513.37,269.06,515.05z M415.49,181.89
					l-0.53,0.23c1.3-0.98,2.02-1.51,2.34-1.75c-0.35,0.37-0.5,0.49-0.62,0.56C416.36,181.18,415.92,181.53,415.49,181.89z"/>
			</g>
		</g>
		<g>
			<g>
				<path class="st24" d="M163.72,253.82c0.98,0.16,1.25,0.27,1.48,0.38C166.58,254.23,166.61,254.14,163.72,253.82z"/>
			</g>
		</g>
		<g>
			<g>
				<path class="st24" d="M329.75,67.9l0.19-0.9c0.09-0.65,0.14-1.01,0.18-1.3L329.75,67.9z"/>
			</g>
		</g>
		<g>
			<g>
				<path class="st24" d="M250.88,342.32c-2.75,1.9-4.32,2.92-5.38,3.57C245.42,346.09,246.71,345.28,250.88,342.32z"/>
			</g>
		</g>
		<g>
			<g>
				<path class="st24" d="M271.51,510.36l-0.56,3.35c0.28-1.47,0.34-1.28,0.5-1.68C271.43,511.57,271.35,511.16,271.51,510.36z"/>
			</g>
		</g>
		<g>
			<g>
				<path class="st24" d="M289.76,435.91c0.29-1.51,0.6-3.15,0.89-4.64l-0.3,0.36C289.06,437.99,288.32,442.46,289.76,435.91z"/>
			</g>
		</g>
		<g>
			<g>
				<path class="st24" d="M272.79,511.87c0.15,0.23,0.46-0.95,0.86-2.83c0.46-2.34,1.05-5.39,1.69-8.61
					c-0.09,0.43-0.17,0.84-0.26,1.26c-0.05-1.11-0.43,0.25-0.96,2.84c-0.19,1.01-0.43,2.25-0.68,3.61
					C273.23,509.31,273.01,510.59,272.79,511.87z"/>
			</g>
		</g>
		<g>
			<g>
				<path class="st24" d="M275.66,498.77c0.45-2.2,0.91-4.45,1.35-6.61C276.96,491.28,276.41,494.83,275.66,498.77z"/>
			</g>
		</g>
		<g>
			<g>
				<path class="st24" d="M268.79,521.46c-0.31,2.5,0.92-4.98,0.55-2.54c0.46-2.57,0.26-1.96,0.03-1.4
					C269.15,518.05,268.86,519.04,268.79,521.46z"/>
			</g>
		</g>
		<g>
			<g>
				<path class="st24" d="M274.66,509.21c-0.31,0.71-0.6,1.32-0.87,1.81l-0.53,4.51L274.66,509.21z"/>
			</g>
		</g>
		<g>
			<g>
				<path class="st24" d="M263.88,559.91l1.9-8.59c0.1-0.9,0.45-2.85,0.83-4.88C265.33,552.63,264.16,557.85,263.88,559.91z"/>
			</g>
		</g>
		<g>
			<g>
				<path class="st24" d="M266.61,546.45c0.66-3.17,1.33-6.46,1.77-9.01C268,539.38,267.18,543.56,266.61,546.45z"/>
			</g>
		</g>
		<g>
			<g>
				<polygon class="st24" points="271.45,525.55 270.75,528.45 269.1,536.31 				"/>
			</g>
		</g>
		<g>
			<g>
				<path class="st24" d="M273.23,445.27l0.91-12.69c-0.06-1.31-0.45,2.14-0.77,6.87C273.23,442.49,272.91,447.2,273.23,445.27z"/>
			</g>
		</g>
		<g>
			<g>
				<path class="st24" d="M268.72,483.5c0.38-3.42,0.51-3.64,0.83-5.56l-0.57-0.44L268.72,483.5z"/>
			</g>
		</g>
		<g>
			<g>
				<path class="st24" d="M271.65,446.51c-0.06-1.28,1.05-18.44-0.25-2.37C271.46,445.45,270.54,458.16,271.65,446.51z"/>
			</g>
		</g>
		<g>
			<g>
				<polygon class="st24" points="233.95,352.47 236.57,350.57 235.62,350.04 				"/>
			</g>
		</g>
		<g>
			<g>
				<path class="st24" d="M262.07,299.65c-10.29,11.01-1.95,3.06-11.31,12.96c-2.2,2.78,7.65-8.09,5.37-5.26
					C262.05,300.43,265.36,296.99,262.07,299.65z"/>
			</g>
		</g>
		<g>
			<g>
				<path class="st24" d="M256.13,307.34c-0.94,1.11-1.94,2.29-3.01,3.54C254.82,308.88,255.62,307.93,256.13,307.34z"/>
			</g>
		</g>
		<g>
			<g>
				<polygon class="st24" points="368.36,302.81 358.71,301.81 364.92,302.65 				"/>
			</g>
		</g>
		<g>
			<g>
				<path class="st24" d="M349.75,302.01l-2.22-0.82l-5.85,0.09C343.87,301.43,348.1,301.73,349.75,302.01z"/>
			</g>
		</g>
		<g>
			<g>
				<path class="st24" d="M195.59,164.24l1.38,1.66c-1.03-1.71-3.36-4.97-8.06-11.54L195.59,164.24z"/>
			</g>
		</g>
		<g>
			<g>
				<polygon class="st24" points="286.33,238.33 284.66,236.8 287.41,240.06 				"/>
			</g>
		</g>
		<g>
			<g>
				<path class="st24" d="M310.77,155.47c-0.88,4.42-1.92,9.61-2.8,14.04C309.84,159.88,311.71,154.42,310.77,155.47z"/>
			</g>
		</g>
	</g>
</g>
</svg>
