<?xml version="1.0" encoding="utf-8"?>
<!-- Generator: Adobe Illustrator 24.2.0, SVG Export Plug-In . SVG Version: 6.00 Build 0)  -->
<svg version="1.1" id="Layer_1" xmlns="http://www.w3.org/2000/svg" xmlns:xlink="http://www.w3.org/1999/xlink" x="0px" y="0px"
	 viewBox="0 0 583.2 383.8" style="enable-background:new 0 0 583.2 383.8;" xml:space="preserve">
<style type="text/css">
	.st0{fill:#863399;}
	.st1{fill:#FFC844;}
	.st2{fill:#6CCA98;}
	.st3{fill:#E74F3D;}
	.st4{fill:#A9E0C0;}
	.st5{fill:#E64783;}
	.st6{fill:#1C355E;}
	.st7{fill:#F697B2;}
	.st8{fill:#FFDD92;}
	.st9{fill-rule:evenodd;clip-rule:evenodd;fill:#863399;}
	.st10{fill:#B884C1;}
	.st11{fill-rule:evenodd;clip-rule:evenodd;fill:#E64783;}
	.st12{fill:none;stroke:#000000;stroke-width:0.25;stroke-miterlimit:10;}
	.st13{clip-path:url(#SVGID_2_);}
	.st14{fill:#7F3F98;}
	.st15{fill:#FFFFFF;}
	.st16{fill:#FA9A86;}
	.st17{fill:#B984BA;}
	.st18{fill:#F79A87;}
	.st19{fill:#1C365E;}
	.st20{fill:#71C597;}
	.st21{fill:#757F9B;}
	.st22{fill:#FFC944;}
	.st23{fill:#853795;}
	.st24{clip-path:url(#SVGID_4_);}
	.st25{clip-path:url(#SVGID_6_);}
	.st26{fill:#F1F2F2;}
	.st27{clip-path:url(#SVGID_8_);}
	.st28{clip-path:url(#SVGID_10_);}
	.st29{clip-path:url(#SVGID_12_);}
	.st30{clip-path:url(#SVGID_14_);}
	.st31{clip-path:url(#SVGID_16_);}
	.st32{clip-path:url(#SVGID_18_);}
	.st33{clip-path:url(#SVGID_20_);}
	.st34{clip-path:url(#SVGID_22_);}
	.st35{clip-path:url(#SVGID_24_);}
	.st36{clip-path:url(#SVGID_26_);}
	.st37{clip-path:url(#SVGID_28_);}
	.st38{clip-path:url(#SVGID_30_);}
	.st39{clip-path:url(#SVGID_32_);}
	.st40{clip-path:url(#SVGID_34_);}
	.st41{clip-path:url(#SVGID_36_);}
	.st42{clip-path:url(#SVGID_38_);}
	.st43{clip-path:url(#SVGID_40_);}
	.st44{clip-path:url(#SVGID_42_);}
	.st45{clip-path:url(#SVGID_44_);}
	.st46{clip-path:url(#SVGID_46_);}
	.st47{clip-path:url(#SVGID_48_);}
	.st48{clip-path:url(#SVGID_50_);}
	.st49{clip-path:url(#SVGID_52_);}
	.st50{clip-path:url(#SVGID_54_);}
	.st51{clip-path:url(#SVGID_56_);}
	.st52{clip-path:url(#SVGID_58_);}
	.st53{clip-path:url(#SVGID_60_);}
	.st54{clip-path:url(#SVGID_62_);}
	.st55{clip-path:url(#SVGID_64_);}
	.st56{clip-path:url(#SVGID_66_);}
	.st57{clip-path:url(#SVGID_68_);}
	.st58{clip-path:url(#SVGID_70_);}
	.st59{clip-path:url(#SVGID_72_);}
	.st60{clip-path:url(#SVGID_74_);}
	.st61{clip-path:url(#SVGID_76_);}
	.st62{clip-path:url(#SVGID_78_);}
	.st63{clip-path:url(#SVGID_80_);}
	.st64{clip-path:url(#SVGID_82_);}
	.st65{clip-path:url(#SVGID_84_);}
	.st66{clip-path:url(#SVGID_86_);}
	.st67{clip-path:url(#SVGID_88_);}
	.st68{clip-path:url(#SVGID_90_);}
	.st69{clip-path:url(#SVGID_92_);}
	.st70{clip-path:url(#SVGID_94_);}
	.st71{clip-path:url(#SVGID_96_);}
	.st72{clip-path:url(#SVGID_98_);}
	.st73{clip-path:url(#SVGID_100_);}
	.st74{clip-path:url(#SVGID_102_);}
	.st75{clip-path:url(#SVGID_104_);}
	.st76{clip-path:url(#SVGID_106_);}
	.st77{clip-path:url(#SVGID_108_);}
	.st78{clip-path:url(#SVGID_110_);}
	.st79{clip-path:url(#SVGID_112_);}
	.st80{clip-path:url(#SVGID_114_);}
	.st81{clip-path:url(#SVGID_116_);}
	.st82{clip-path:url(#SVGID_118_);}
	.st83{clip-path:url(#SVGID_120_);}
	.st84{clip-path:url(#SVGID_122_);}
	.st85{clip-path:url(#SVGID_124_);}
	.st86{clip-path:url(#SVGID_126_);}
	.st87{clip-path:url(#SVGID_128_);}
	.st88{clip-path:url(#SVGID_130_);}
	.st89{clip-path:url(#SVGID_132_);}
	.st90{clip-path:url(#SVGID_134_);}
	.st91{clip-path:url(#SVGID_136_);}
	.st92{clip-path:url(#SVGID_138_);}
	.st93{clip-path:url(#SVGID_140_);}
	.st94{clip-path:url(#SVGID_142_);}
	.st95{clip-path:url(#SVGID_144_);}
	.st96{clip-path:url(#SVGID_146_);}
	.st97{clip-path:url(#SVGID_148_);}
	.st98{fill:url(#);}
	.st99{clip-path:url(#SVGID_150_);}
	.st100{clip-path:url(#SVGID_152_);}
	.st101{clip-path:url(#SVGID_154_);}
	.st102{clip-path:url(#SVGID_156_);}
	.st103{clip-path:url(#SVGID_158_);}
	.st104{clip-path:url(#SVGID_160_);}
	.st105{clip-path:url(#SVGID_162_);}
	.st106{clip-path:url(#SVGID_164_);}
	.st107{clip-path:url(#SVGID_166_);}
	.st108{clip-path:url(#SVGID_168_);}
	.st109{clip-path:url(#SVGID_170_);}
	.st110{clip-path:url(#SVGID_172_);}
	.st111{clip-path:url(#SVGID_174_);}
	.st112{clip-path:url(#SVGID_176_);}
	.st113{clip-path:url(#SVGID_178_);}
	.st114{clip-path:url(#SVGID_180_);}
	.st115{clip-path:url(#SVGID_182_);}
	.st116{clip-path:url(#SVGID_184_);}
	.st117{clip-path:url(#SVGID_186_);}
	.st118{clip-path:url(#SVGID_188_);}
	.st119{clip-path:url(#SVGID_190_);}
	.st120{clip-path:url(#SVGID_192_);}
	.st121{clip-path:url(#SVGID_194_);}
	.st122{clip-path:url(#SVGID_196_);}
	.st123{clip-path:url(#SVGID_198_);}
	.st124{clip-path:url(#SVGID_200_);}
	.st125{clip-path:url(#SVGID_202_);}
	.st126{clip-path:url(#SVGID_204_);}
	.st127{clip-path:url(#SVGID_206_);}
	.st128{clip-path:url(#SVGID_208_);}
	.st129{clip-path:url(#SVGID_210_);}
	.st130{clip-path:url(#SVGID_212_);}
	.st131{clip-path:url(#SVGID_214_);}
	.st132{clip-path:url(#SVGID_216_);}
	.st133{clip-path:url(#SVGID_218_);}
	.st134{clip-path:url(#SVGID_220_);}
	.st135{clip-path:url(#SVGID_222_);}
	.st136{clip-path:url(#SVGID_224_);}
	.st137{clip-path:url(#SVGID_226_);}
</style>
<g>
	<path class="st0" d="M461.4,344.6l69.9-245.8c3.1-10.9-4.2-22.1-15.5-23.6L76.4,17.9c-12.9-1.7-23.5,10-20.6,22.7l69.6,302.7
		c1.9,8.4,9.5,14.4,18.1,14.4l300,0.5C451.8,358.2,459.1,352.6,461.4,344.6z"/>
</g>
<path class="st10" d="M135.9,55.2l-6.6,4.5c-4.2,2.6-7.3,9.1-7.9,14l-0.8,6.4l-3.8-5.9c-3.1-4.8-8.2-7.9-13.9-8.4l-6.6-0.6l7-4.9
	c3.7-2.6,6.2-6.6,6.8-11.2l1.1-8.2l5,6.5c2.8,3.5,4.5,5.8,11.5,6.8L135.9,55.2z"/>
<path class="st10" d="M453.2,336.9l-7.1,0.8c-4.4,0.3-9.5,4.1-12,7.7l-3.4,4.7l-0.5-6.2c-0.4-5-3.2-9.6-7.4-12.4l-4.9-3.3l7.6-0.9
	c4-0.5,7.6-2.6,10.1-6l4.3-6l1.3,7.2c0.7,3.9,1.1,6.5,6.2,10.1L453.2,336.9z"/>
<path class="st16" d="M399.5,96.6l-9.8,2.5c-6.1,1.3-12.6,7.6-15.4,13.1l-3.8,7.3l-1.9-8.7c-1.5-7-6.3-12.9-12.7-16.1l-7.6-3.6
	l10.5-2.8c5.5-1.4,10.2-5.2,13-10.3l4.9-9.3l3.1,9.8c1.8,5.4,2.8,8.9,10.6,13L399.5,96.6z"/>
<path class="st16" d="M477.2,142.2l0.1-0.2c-5.4-2.3-10.9-4.3-16.5-5.9c-5.1-1.4-10.1-2.6-15.3-3.8c4.4-3.1,8.8-6.1,12.7-9.3
	c4.6-3.8,8.9-7.6,12.9-11.8l-0.2-0.3c-5.1,2.9-9.8,6.3-14.6,9.8c-4.5,3.5-8.8,7.1-12.9,11l-0.2-0.1c0.8-2.8,1.3-5.7,2.3-8.2
	c1.2-4.4,3-8.7,4.4-13.1c2.7-8.8,5-17.7,6.5-26.9l-0.2-0.1c-3.4,8.6-6.1,17.4-8.4,26.3c-1,4.5-2,9-3,13.5c-0.7,2.6-1.5,5.4-2.2,7.9
	c-1.9-1.3-3.8-2.6-5.5-3.8c-2.2-1.9-4.5-3.8-6.7-5.7c-4.5-3.5-9.4-6.9-14.7-9.4l-0.1,0.2c4.1,4.2,8.7,7.7,13.5,11.1
	c2.4,1.4,5,2.9,7.5,4.6c1.4,1.2,3.1,2.4,4.5,3.5c-1.9-0.5-3.8-0.8-5.6-1.6c-2.8-0.8-5.5-2-8.2-3.1c-5.5-1.8-11.2-3.1-17.1-3.8
	l-0.1,0.2c5.3,2.5,10.9,4.3,16.5,5.6c2.9,0.6,5.7,1.1,8.6,1.7c2.3,0.7,4.4,1.2,6.7,2.1c-0.1,0.2-0.1,0.5-0.2,0.7
	c-1.7,1.5-3.3,2.8-5.2,4.1c-2.2,1.6-4.9,3.2-7.1,4.8c-4.7,3.5-9.1,7.3-13,11.5l0.2,0.3c5.1-2.9,9.8-6.3,14.4-10.1
	c2.1-1.9,4.2-4.1,6.5-6c1.3-1.1,2.6-2,3.9-3.2c-0.1,0.2-0.2,0.7-0.3,0.9c-3,8.7-5.7,17.5-8.2,26.4c-2.3,8.9-4.5,17.9-6.3,26.9
	l0.2,0.1c3.2-8.7,6.1-17.4,8.6-26.3c2.5-8.9,4.7-17.8,6.8-26.8c0.3-0.9,0.5-1.6,0.7-2.6c0.3-0.2,0.6-0.3,0.9-0.5
	c4.2,3.7,8.8,7.2,13.2,10.5c4.8,3.4,9.5,6.4,14.8,9.2l0.1-0.2c-4.1-4.2-8.7-7.7-13.2-11.3c-3.2-2.1-6.3-4.3-9.5-6.4
	c3.7,1.3,7.2,2.3,10.9,3.3C465.7,140.2,471.4,141.6,477.2,142.2z"/>
<polygon class="st10" points="326.3,82.5 318,223.7 60.6,218.4 66.8,97 "/>
<polygon class="st10" points="142.3,300.1 164.8,160 531.8,187 513.8,307.5 "/>
<g>
	<path class="st16" d="M148.7,133.5c0-0.8-0.3-1.4-0.7-1.6c-0.4-0.3-1-0.4-1.8-0.4c-1.6,0-2.7-0.2-3.3-0.6c-0.6-0.3-0.9-1-0.9-1.9
		c0-0.9,0.2-1.5,0.8-1.9c0.6-0.4,1.6-0.6,3.2-0.7l18.9-0.8c0.8,0,1.6,0.1,2.1,0.3c0.6,0.2,0.9,0.8,0.9,1.8c0,0.8-0.3,1.4-0.9,1.7
		c-0.7,0.3-1.2,0.4-1.7,0.4c-0.4,0-0.9,0.1-1.6,0.1c-0.7,0.1-1.4,0.2-2.1,0.2c-0.7,0.1-1.4,0.2-1.9,0.2c-0.6,0.1-0.9,0.1-1.1,0.1
		c-2,0.3-3.2,1.3-3.5,3c-0.9,4.4-1.7,8.4-2.5,12.1c-0.8,3.6-1.6,7.3-2.5,11.1c-0.9,3.8-1.8,7.8-2.8,12.2s-2.2,9.5-3.5,15.4
		c-0.2,0.9-0.6,1.5-1.1,2.1c-0.5,0.5-1.4,0.8-2.7,0.9c-0.8,0-1.7-0.1-2.6-0.4c-0.9-0.3-1.5-1.1-1.8-2.3c-0.9-3.1-1.8-6.3-2.8-9.6
		c-1-3.3-1.9-6.4-2.9-9.5c-1-3.1-1.9-6-2.7-8.7c-0.9-2.7-1.6-5.1-2.3-7.2c-0.7-2.1-1.2-3.8-1.6-5.2c-0.4-1.3-0.7-2.2-0.7-2.5
		c-1.1,4.4-2.2,9-3.3,13.6c-1,4-2,8.5-3.2,13.3c-1.2,4.9-2.3,9.7-3.4,14.4c-0.2,0.8-0.6,1.4-1,1.9c-0.5,0.4-1.4,0.7-2.6,0.7
		c-1.1,0-2-0.1-2.4-0.6c-0.5-0.4-0.8-0.9-1.1-1.5c-1.5-4.1-2.9-8.2-4.3-12.2c-1.4-4-2.9-8.1-4.4-12.3c-1.5-4.2-3-8.6-4.6-13.1
		c-1.6-4.5-3.3-9.3-5.2-14.3c-0.3-0.8-0.8-1.4-1.7-1.7c-0.8-0.3-2.2-0.6-4.1-0.7c-1.5-0.1-2.6-0.3-3.1-0.7c-0.5-0.4-0.8-1-0.9-1.8
		c0-0.7,0.2-1.3,0.8-1.6c0.6-0.3,1.3-0.5,2.3-0.6l18.5-0.8c0.9,0,1.5,0.1,1.9,0.5c0.4,0.4,0.6,0.8,0.6,1.4c0,1-0.3,1.7-1.1,2
		c-0.8,0.4-1.7,0.6-2.6,0.8c-1,0.2-1.8,0.4-2.7,0.6c-0.8,0.2-1.2,0.6-1.2,1.2c0,0.5,0.3,1.5,0.8,3.1c0.5,1.5,1.1,3.4,1.9,5.7
		c0.8,2.3,1.7,4.8,2.7,7.7c1,2.8,2.1,5.8,3.2,8.9c1.1,3.1,2.2,6.2,3.3,9.3c1.1,3.2,2.1,6.2,3.1,9.1c1.4-6.4,2.6-12.4,3.8-17.9
		c0.5-2.4,1-4.7,1.5-7.1c0.5-2.4,1-4.6,1.5-6.8c0.5-2.1,0.9-4,1.3-5.7c0.4-1.7,0.7-3,0.9-3.9c0.3-1.2,0.7-2.2,1.2-3.3
		c0.5-1,1.5-1.6,2.9-1.6c1.1,0,2,0.2,2.6,0.7s1.2,1.8,1.7,3.8c1.5,5.4,2.9,10.3,4.1,14.4c1.3,4.2,2.5,8,3.5,11.4
		c1.1,3.4,2.1,6.5,3,9.4c0.9,2.8,1.8,5.6,2.6,8.2c0.2-1.6,0.6-3.8,1.2-6.4c0.6-2.6,1.2-5.4,1.9-8.3c0.7-3,1.4-6,2.1-9
		c0.7-3.1,1.4-5.9,2-8.5c0.6-2.6,1.1-4.8,1.5-6.6C148.5,135.2,148.7,134,148.7,133.5z"/>
	<path class="st16" d="M210.5,156.3c0.7,0,1.3,0.1,2,0.5c0.6,0.4,0.9,1,1,1.8c0,0.4,0,1.4,0,2.8c0,1.4,0,3.1,0,5
		c0,1.9-0.1,3.8-0.2,5.8c-0.1,2-0.1,3.7-0.2,5.2c-0.1,1-0.3,1.7-0.6,2c-0.4,0.3-1.2,0.5-2.4,0.6c-3,0.1-6,0.2-8.8,0.3
		c-2.8,0.1-5.8,0.2-8.8,0.3c-1.5,0.1-3.1,0.1-4.8,0.2c-1.7,0.1-3.5,0.2-5.2,0.3c-1.7,0.1-3.5,0.2-5.2,0.3c-1.7,0.1-3.3,0.2-4.8,0.2
		c-1.3,0.1-2.2-0.1-2.8-0.5c-0.6-0.4-0.9-1-0.9-1.8c0-1.1,0.3-1.9,1-2.3c0.7-0.5,1.6-0.7,2.6-0.8c1.4-0.2,2.4-0.5,2.8-0.9
		c0.4-0.4,0.6-1.1,0.6-1.9c-0.1-1.6-0.1-2.9-0.2-4.1c0-1.1-0.1-2.2-0.1-3.2c0-1,0-2-0.1-2.9c0-1-0.1-2.1-0.1-3.3
		c0-1.2-0.1-2.6-0.1-4.2c-0.1-1.6-0.2-3.5-0.3-5.8c-0.1-2.5-0.2-4.8-0.4-6.7c-0.1-1.9-0.3-3.7-0.4-5.3c-0.1-1.6-0.2-3.2-0.3-4.6
		c-0.1-1.4-0.2-2.9-0.3-4.4c-0.1-1.4-0.3-2.3-0.8-2.5c-0.5-0.2-1.2-0.3-2.2-0.3c-1.2,0.1-2.3-0.1-3-0.5c-0.8-0.4-1.2-1-1.2-1.8
		c-0.1-1.3,0.2-2.1,0.8-2.5c0.6-0.4,1.7-0.6,3.3-0.7c1.6-0.1,3.4-0.1,5.2-0.2c1.9-0.1,3.7-0.1,5.4-0.2c1.8-0.1,3.4-0.1,4.9-0.2
		c1.5,0,2.7-0.1,3.6-0.1c1.8-0.1,3.3-0.2,4.5-0.2c1.2-0.1,2.3-0.1,3.4-0.2s2.3-0.1,3.7-0.2c1.3-0.1,3.1-0.2,5.3-0.3
		c0.7,0,1.2,0.1,1.6,0.5c0.4,0.4,0.6,1.1,0.6,2.1l0.5,10.5c0.1,1.3-0.1,2.3-0.6,2.7c-0.4,0.5-1.2,0.8-2.3,0.8
		c-1.3,0.1-2.2-0.2-2.8-0.8c-0.5-0.6-0.8-1.3-0.9-2l-0.2-5.3c0-0.9-0.3-1.4-0.8-1.7c-0.5-0.2-1.2-0.3-2-0.3l-18.7,0.8l0.9,20.3
		c0.7,0,1.3,0,1.8,0c0.5,0,1,0,1.5,0c0.5,0,1,0,1.4,0c0.5,0,1.1,0,1.9-0.1c0.5,0,1.1-0.1,1.7-0.1c0.6-0.1,1.3-0.1,1.9-0.2
		c0.6-0.1,1.1-0.1,1.6-0.1c0.5,0,0.8-0.1,1-0.1c0.3,0,0.5-0.2,0.7-0.6c0.2-0.4,0.3-0.9,0.3-1.5c0-0.6,0.1-1.1,0.1-1.7
		c0-0.6,0-1,0-1.4c0-0.7,0.2-1.4,0.7-2c0.5-0.6,1.3-0.9,2.3-0.9c0.8,0,1.6,0.1,2.3,0.5c0.7,0.3,1,1.1,1.1,2.3
		c0.1,1.4,0.1,2.8,0.1,4.1c0,1.3,0,2.7,0.1,4.1c0.1,1.4,0.2,2.9,0.3,4.4c0.1,1.5,0.2,2.8,0.2,3.9c0.1,1.6-0.9,2.5-3,2.6
		c-1.3,0.1-2.1-0.2-2.5-0.7c-0.4-0.5-0.6-1.1-0.6-1.8c0-0.4-0.1-0.9-0.2-1.4c-0.1-0.6-0.3-1.1-0.6-1.6c-0.3-0.5-0.7-1-1.2-1.3
		c-0.5-0.4-1.1-0.5-1.8-0.5c-0.4,0-0.9,0-1.6,0c-0.6,0-1.5,0-2.5,0.1c-0.7,0-1.3,0.1-1.8,0.1c-0.5,0-1,0.1-1.4,0.1
		c-0.4,0-0.9,0.1-1.4,0.1c-0.5,0-1.1,0.1-1.8,0.1l1,21.8l20.6-0.9c0.3,0,0.7-0.1,1.1-0.1c0.4-0.1,0.7-0.2,1-0.4
		c0.3-0.2,0.5-0.5,0.7-0.8c0.2-0.4,0.3-0.9,0.3-1.5c0-0.7,0.1-1.6,0.1-2.7c0.1-1,0.1-2.1,0.2-3.2c0.1-1.1,0.1-2.2,0.1-3.2
		c0-1,0-2,0.1-2.8c0-1.1,0.4-1.8,1.1-2.2C208.8,156.6,209.6,156.4,210.5,156.3z"/>
	<path class="st16" d="M217.4,119.8c0-0.9,0.3-1.6,0.9-2.3c0.6-0.6,1.5-1,2.4-1c1.1,0,2.1,0.3,2.8,1c0.7,0.7,1.2,1.7,1.2,2.9
		c0,0.6-0.1,1.5-0.3,2.8c-0.2,1.2-0.5,2.5-0.9,3.8c-0.4,1.3-0.9,2.4-1.5,3.4c-0.6,1-1.3,1.5-2.1,1.5c-0.2,0-0.6-0.1-1-0.4
		c-0.4-0.3-0.7-0.6-0.7-0.9c0-0.2,0.1-0.7,0.2-1.3c0.2-0.6,0.4-1.2,0.5-1.9c0.2-0.7,0.4-1.3,0.5-2c0.2-0.7,0.2-1.2,0.2-1.6
		c0-0.3-0.2-0.6-0.4-0.9c-0.3-0.3-0.5-0.5-0.9-0.8s-0.6-0.6-0.9-1C217.6,120.9,217.4,120.4,217.4,119.8z"/>
	<path class="st16" d="M234.3,173.2c1.2-0.2,2.2-0.6,3-1.2c0.8-0.6,1.2-1.5,1.1-2.6c0-0.5-0.1-1.6-0.1-3.1c0-1.5-0.1-3.3-0.2-5.3
		c-0.1-2-0.2-4.2-0.2-6.5c-0.1-2.3-0.2-4.5-0.3-6.6c-0.1-3-0.3-5.5-0.4-7.7c-0.1-2.2-0.3-4.1-0.4-5.7c-0.1-1.7-0.2-3.2-0.3-4.5
		c-0.1-1.3-0.2-2.7-0.3-4c0-0.5-0.2-0.9-0.6-1.2c-0.4-0.3-0.8-0.6-1.3-0.8c-0.5-0.2-1.1-0.3-1.7-0.4c-0.6-0.1-1.1-0.1-1.6-0.1
		c-0.9,0-1.7-0.2-2.3-0.5c-0.6-0.3-0.9-1-0.9-2.1c0-1,0.2-1.7,0.8-2.1c0.6-0.4,1.3-0.6,2.2-0.6l16.3-0.7c1.6-0.1,2.6,0.1,3.1,0.4
		c0.5,0.3,0.7,0.9,0.8,1.8c0,0.9-0.3,1.6-0.9,1.9c-0.6,0.3-1.2,0.5-1.8,0.5c-2.1,0.1-3.4,0.4-4,0.9c-0.6,0.5-0.9,1.3-0.8,2.2
		l2.1,47.2l14.1-0.6c0.7,0,1.3-0.2,1.8-0.6c0.5-0.4,0.9-1,1-1.8c0-0.2,0.1-0.8,0.1-1.9c0.1-1.1,0.1-2.2,0.1-3.5
		c0-1.2,0.1-2.4,0.1-3.5c0-1.1,0.1-1.9,0-2.3c0-1.1,0.1-2,0.4-2.7c0.3-0.7,1.2-1.1,2.6-1.1c1.9-0.1,2.9,0.9,3,2.9c0,0.3,0,0.8,0,1.5
		c0,0.6,0,1.6,0,3c0,1.3,0,3.1-0.1,5.3c-0.1,2.2-0.1,5-0.2,8.5c-0.1,0.8-0.3,1.4-0.7,1.7c-0.4,0.3-0.9,0.5-1.7,0.5l-32.6,1.4
		c-1.7,0.1-2.8-0.1-3.3-0.6c-0.5-0.5-0.8-1.1-0.8-1.8c-0.1-1.2,0.3-2,1.1-2.4C231.5,173.8,232.7,173.5,234.3,173.2z"/>
	<path class="st16" d="M277.4,171.3c1.2-0.2,2.2-0.6,3-1.2c0.8-0.6,1.2-1.5,1.1-2.6c0-0.5-0.1-1.6-0.1-3.1c0-1.5-0.1-3.3-0.2-5.3
		c-0.1-2-0.2-4.2-0.2-6.5c-0.1-2.3-0.2-4.5-0.3-6.6c-0.1-3-0.3-5.5-0.4-7.7c-0.1-2.2-0.3-4.1-0.4-5.7c-0.1-1.7-0.2-3.2-0.3-4.5
		c-0.1-1.3-0.2-2.7-0.3-4c0-0.5-0.2-0.9-0.6-1.2c-0.4-0.3-0.8-0.6-1.3-0.8c-0.5-0.2-1.1-0.3-1.7-0.4c-0.6-0.1-1.1-0.1-1.6-0.1
		c-0.9,0-1.7-0.2-2.3-0.5c-0.6-0.3-0.9-1-0.9-2.1c0-1,0.2-1.7,0.8-2.1c0.6-0.4,1.3-0.6,2.2-0.6l16.3-0.7c1.6-0.1,2.6,0.1,3.1,0.4
		c0.5,0.3,0.7,0.9,0.8,1.8c0,0.9-0.3,1.6-0.9,1.9c-0.6,0.3-1.2,0.5-1.8,0.5c-2.1,0.1-3.4,0.4-4,0.9c-0.6,0.5-0.9,1.3-0.8,2.2
		l2.1,47.2l14.1-0.6c0.7,0,1.3-0.2,1.8-0.6c0.5-0.4,0.9-1,1-1.8c0-0.2,0.1-0.8,0.1-1.9c0.1-1.1,0.1-2.2,0.1-3.5
		c0-1.2,0.1-2.4,0.1-3.5c0-1.1,0.1-1.9,0-2.3c0-1.1,0.1-2,0.4-2.7c0.3-0.7,1.2-1.1,2.6-1.1c1.9-0.1,2.9,0.9,3,2.9c0,0.3,0,0.8,0,1.5
		c0,0.6,0,1.6,0,3c0,1.3,0,3.1-0.1,5.3c-0.1,2.2-0.1,5-0.2,8.5c-0.1,0.8-0.3,1.4-0.7,1.7c-0.4,0.3-0.9,0.5-1.7,0.5l-32.6,1.4
		c-1.7,0.1-2.8-0.1-3.3-0.6c-0.5-0.5-0.8-1.1-0.8-1.8c-0.1-1.2,0.3-2,1.1-2.4C274.6,172,275.8,171.6,277.4,171.3z"/>
	<path class="st16" d="M176.4,267.7c0.4,0,0.8-0.1,1.3-0.2c0.5-0.1,0.9-0.2,1.3-0.4c0.4-0.2,0.7-0.4,1-0.6c0.3-0.2,0.4-0.6,0.3-1
		c-0.2-3.1-0.4-6.1-0.6-8.8c-0.2-2.7-0.3-5-0.5-6.9c-0.2-2.4-0.4-5-0.6-7.8c-0.2-2.8-0.5-5.6-0.8-8.2c-0.3-2.6-0.5-5.1-0.8-7.3
		c-0.2-2.2-0.4-4-0.6-5.2c-0.2-1.1-0.5-1.8-1-2.1c-0.5-0.3-1.5-0.4-2.9-0.3c-1.1,0.1-1.9-0.1-2.4-0.7c-0.5-0.5-0.7-1.3-0.8-2.2
		c-0.1-0.8,0.2-1.5,0.7-2.1c0.5-0.6,1.2-0.9,2-1c1.9-0.1,4-0.3,6.3-0.5c2.3-0.2,4.4-0.4,6.5-0.6c2.1-0.2,3.9-0.3,5.4-0.5
		c1.5-0.1,2.6-0.2,3.1-0.3c2.6-0.2,5.1-0.1,7.5,0.4c2.4,0.5,4.6,1.3,6.5,2.4c1.9,1.1,3.4,2.6,4.7,4.5c1.2,1.8,1.9,4,2.1,6.6
		c0.3,3.4-0.5,6.5-2.2,9.2c-1.7,2.7-4.2,4.6-7.5,5.7c4.3,0.5,7.8,1.9,10.5,4.3c2.7,2.4,4.2,5.6,4.5,9.4c0.2,3-0.3,5.6-1.7,7.7
		c-1.3,2.2-3.2,4-5.6,5.5c-2.4,1.5-5.2,2.6-8.4,3.4c-3.2,0.8-6.6,1.4-10.1,1.6l-15.7,1.2c-1.3,0.1-2.2-0.1-2.8-0.5
		c-0.6-0.4-0.9-1-1-1.9s0.1-1.6,0.4-2.2C174.8,268.1,175.4,267.8,176.4,267.7z M189.5,217.5c-1.7,0.1-3,0.3-4,0.4
		c-0.9,0.1-1.6,0.3-2,0.3l1.6,20.7c0.4,0.1,1,0.1,1.7,0.1c0.7,0,1.9-0.1,3.5-0.2c2.5-0.2,4.7-0.5,6.9-1c2.1-0.5,4-1.3,5.5-2.2
		c1.6-1,2.7-2.2,3.6-3.7c0.8-1.5,1.2-3.3,1-5.6c-0.2-2-0.8-3.6-1.9-4.9c-1.1-1.2-2.5-2.1-4.2-2.8c-1.7-0.6-3.5-1-5.6-1.1
		C193.6,217.3,191.6,217.3,189.5,217.5z M191.4,244.7c-1.4,0.1-2.5,0.2-3.2,0.3s-1.6,0.2-2.6,0.3l1.6,21.2c4.3-0.3,8-0.8,11.2-1.4
		c3.2-0.6,5.8-1.4,8-2.3c2.1-1,3.7-2.2,4.7-3.6c1-1.4,1.4-3.1,1.3-5.1c-0.2-2.5-0.9-4.4-2.2-5.7c-1.3-1.4-2.9-2.3-4.9-3
		c-2-0.6-4.2-0.9-6.6-1C196.2,244.5,193.8,244.6,191.4,244.7z"/>
	<path class="st16" d="M264.4,249.3c0.7,0,1.3,0.3,1.9,0.7c0.6,0.4,0.8,1,0.8,1.9c0,0.4-0.1,1.4-0.2,2.8c-0.1,1.4-0.3,3.1-0.5,4.9
		c-0.2,1.8-0.4,3.7-0.7,5.7c-0.2,2-0.5,3.7-0.7,5.1c-0.1,1-0.4,1.7-0.8,2c-0.4,0.3-1.2,0.4-2.4,0.3c-3-0.1-5.9-0.3-8.7-0.5
		c-2.8-0.2-5.7-0.3-8.7-0.5c-1.5-0.1-3.1-0.1-4.8-0.2c-1.7-0.1-3.4-0.1-5.2-0.2c-1.7-0.1-3.4-0.1-5.2-0.2c-1.7-0.1-3.3-0.1-4.8-0.2
		c-1.3-0.1-2.2-0.3-2.7-0.7c-0.5-0.4-0.8-1-0.7-1.9c0-1.1,0.5-1.8,1.2-2.2c0.8-0.4,1.7-0.6,2.7-0.6c1.4,0,2.4-0.2,2.8-0.6
		c0.5-0.4,0.7-1,0.7-1.8c0.1-1.6,0.1-2.9,0.2-4.1c0.1-1.1,0.1-2.2,0.2-3.2c0.1-1,0.1-2,0.2-2.9c0-1,0.1-2,0.2-3.2
		c0.1-1.2,0.2-2.6,0.2-4.2c0.1-1.6,0.2-3.5,0.3-5.7c0.1-2.5,0.2-4.7,0.2-6.6c0-1.9,0.1-3.7,0.1-5.3c0-1.6,0-3.1,0.1-4.6
		c0-1.4,0.1-2.9,0.1-4.4c0.1-1.4-0.1-2.3-0.5-2.5c-0.4-0.3-1.2-0.4-2.2-0.5c-1.2-0.1-2.2-0.3-3-0.8c-0.7-0.5-1.1-1.1-1.1-1.9
		c0.1-1.3,0.4-2.1,1-2.4c0.6-0.3,1.7-0.4,3.3-0.4c1.6,0.1,3.4,0.2,5.2,0.3c1.8,0.1,3.6,0.2,5.4,0.3s3.4,0.2,4.8,0.3
		c1.5,0.1,2.7,0.2,3.6,0.2c1.8,0.1,3.3,0.1,4.5,0.2c1.2,0,2.3,0.1,3.4,0.1c1.1,0.1,2.3,0.1,3.7,0.1c1.3,0,3.1,0.1,5.2,0.2
		c0.7,0,1.2,0.2,1.5,0.6c0.3,0.4,0.5,1.1,0.4,2.1l-0.5,10.5c-0.1,1.3-0.3,2.2-0.8,2.7c-0.5,0.4-1.3,0.6-2.4,0.6
		c-1.3-0.1-2.2-0.4-2.6-1.1c-0.5-0.7-0.7-1.3-0.7-2l0.2-5.3c0-0.9-0.2-1.5-0.7-1.7c-0.5-0.3-1.1-0.4-2-0.5l-18.6-0.8l-0.9,20.1
		c0.7,0.1,1.3,0.1,1.8,0.2c0.5,0,1,0.1,1.4,0.1c0.5,0,0.9,0.1,1.4,0.1c0.5,0,1.1,0.1,1.8,0.1c0.5,0,1.1,0,1.7,0c0.6,0,1.3,0,1.8,0
		c0.6,0,1.1,0,1.6,0c0.5,0,0.8,0,1,0c0.3,0,0.5-0.2,0.7-0.6c0.2-0.4,0.3-0.9,0.4-1.4s0.2-1.1,0.2-1.7c0.1-0.6,0.1-1,0.1-1.4
		c0-0.7,0.3-1.4,0.9-1.9c0.5-0.5,1.3-0.8,2.4-0.7c0.8,0,1.6,0.3,2.2,0.7c0.6,0.4,0.9,1.2,0.9,2.4c-0.1,1.4-0.2,2.8-0.3,4.1
		c-0.1,1.3-0.2,2.7-0.3,4.1c-0.1,1.4-0.1,2.9-0.1,4.4c0,1.5-0.1,2.8-0.1,3.9c-0.1,1.6-1.1,2.4-3.2,2.3c-1.3-0.1-2.1-0.4-2.4-0.9
		c-0.3-0.6-0.5-1.2-0.5-1.8c0-0.4,0-0.9-0.1-1.4c-0.1-0.6-0.2-1.1-0.5-1.7c-0.2-0.6-0.6-1-1-1.4c-0.5-0.4-1-0.6-1.7-0.6
		c-0.4,0-0.9-0.1-1.5-0.1c-0.6-0.1-1.4-0.1-2.4-0.1c-0.7,0-1.3-0.1-1.8-0.1c-0.5,0-1,0-1.4,0c-0.4,0-0.9,0-1.4,0s-1.1,0-1.8,0
		l-1,21.6l20.5,0.9c0.3,0,0.7,0,1.1,0c0.4,0,0.7-0.1,1-0.3c0.3-0.2,0.6-0.4,0.8-0.8c0.2-0.4,0.4-0.9,0.4-1.5
		c0.1-0.7,0.2-1.6,0.3-2.6c0.1-1,0.3-2.1,0.4-3.2c0.1-1.1,0.3-2.1,0.4-3.2c0.1-1,0.2-2,0.3-2.8c0.1-1.1,0.5-1.8,1.3-2.1
		C262.7,249.4,263.5,249.2,264.4,249.3z"/>
	<path class="st16" d="M291.6,266.2c0.4,0,0.8,0,1.3-0.1c0.5,0,0.9-0.1,1.4-0.3c0.4-0.1,0.8-0.3,1-0.5c0.3-0.2,0.4-0.5,0.4-0.9
		c0-3.1,0-6.1,0-8.8c0-2.7,0-5,0-6.9c0-2.4,0-5,0-7.9c0-2.8-0.1-5.6-0.1-8.2c-0.1-2.7-0.1-5.1-0.2-7.3c-0.1-2.2-0.1-4-0.2-5.2
		c-0.1-1.1-0.4-1.9-0.8-2.2c-0.5-0.3-1.4-0.5-2.8-0.5c-1.1,0-1.9-0.3-2.3-0.8c-0.4-0.6-0.6-1.3-0.6-2.3c0-0.8,0.3-1.5,0.8-2
		c0.6-0.5,1.2-0.8,2-0.8c1.9,0,4,0,6.3,0c2.3,0,4.4,0,6.5-0.1c2.1,0,3.9,0,5.4-0.1c1.6,0,2.6,0,3.1,0c2.6,0,5.1,0.3,7.5,1
		c2.4,0.7,4.5,1.6,6.3,2.9c1.8,1.3,3.2,2.9,4.3,4.8c1.1,1.9,1.6,4.2,1.6,6.7c0,3.4-1,6.4-2.9,9c-1.9,2.5-4.6,4.2-7.9,5.1
		c4.2,0.8,7.6,2.5,10.1,5.1c2.5,2.6,3.8,5.9,3.8,9.7c0,3-0.8,5.5-2.3,7.6c-1.5,2.1-3.5,3.7-6,5c-2.5,1.3-5.4,2.2-8.7,2.8
		c-3.3,0.6-6.7,0.8-10.2,0.8h-15.8c-1.3,0-2.2-0.2-2.7-0.7c-0.5-0.4-0.8-1.1-0.8-1.9c0-0.8,0.2-1.6,0.6-2.1
		C290,266.5,290.6,266.2,291.6,266.2z M308.5,217.2c-1.7,0-3.1,0-4,0.1c-0.9,0.1-1.6,0.1-2,0.2v20.7c0.4,0.1,0.9,0.2,1.7,0.2
		c0.7,0,1.9,0,3.5,0c2.5,0,4.8-0.2,6.9-0.5c2.2-0.3,4.1-0.9,5.7-1.8c1.6-0.9,2.9-2,3.8-3.4c0.9-1.4,1.4-3.2,1.4-5.5
		c0-2-0.5-3.7-1.5-5c-1-1.3-2.3-2.3-3.9-3.1s-3.4-1.3-5.5-1.5C312.6,217.3,310.5,217.2,308.5,217.2z M308.3,244.5
		c-1.4,0-2.5,0-3.2,0.1c-0.7,0-1.6,0.1-2.6,0.1v21.3c4.3,0,8-0.2,11.3-0.5c3.2-0.3,5.9-0.9,8.1-1.7c2.2-0.8,3.8-1.9,4.9-3.2
		s1.7-3,1.7-5c0-2.5-0.6-4.4-1.8-5.9c-1.2-1.5-2.7-2.6-4.6-3.3c-1.9-0.8-4.1-1.3-6.5-1.5C313.1,244.6,310.7,244.5,308.3,244.5z"/>
	<path class="st16" d="M385.7,270.4c0.1,0.4,0.3,0.8,0.6,1.1c0.3,0.3,0.7,0.5,1.4,0.7c0.6,0.2,1.5,0.3,2.6,0.4
		c1.1,0.1,2.5,0.1,4.3,0.1c0.7,0,1.4,0.1,2.1,0.4c0.7,0.3,1.1,0.8,1.1,1.7c0,0.9-0.2,1.5-0.7,1.8c-0.4,0.3-1.1,0.4-1.9,0.4h-18.2
		c-0.9,0-1.5-0.2-1.8-0.5c-0.3-0.3-0.5-0.7-0.5-1.1c0-0.8,0.2-1.3,0.6-1.5c0.4-0.2,0.9-0.4,1.3-0.6c0.5-0.2,0.9-0.4,1.3-0.8
		c0.4-0.4,0.6-1.1,0.6-2.1c0-0.3-0.1-1.1-0.4-2.4c-0.3-1.2-0.6-2.6-1-4c-0.4-1.4-0.8-2.8-1.2-4.1c-0.4-1.3-0.7-2.2-0.8-2.8H358
		c-0.3,0.8-0.7,1.8-1,2.8c-0.3,1-0.6,2-0.8,3c-0.2,1-0.4,1.8-0.6,2.6c-0.1,0.8-0.2,1.4-0.2,1.8c0,0.4,0.5,0.7,1.4,0.9
		c0.9,0.2,2.2,0.3,3.9,0.3c0.8,0,1.4,0.2,1.8,0.5c0.4,0.3,0.6,1,0.6,1.8c0,0.5-0.2,1-0.5,1.5c-0.3,0.4-1,0.7-2,0.7H340
		c-0.4,0-0.8-0.2-1.2-0.6c-0.3-0.4-0.5-0.9-0.5-1.6c0-0.6,0.2-1.1,0.7-1.5c0.5-0.3,0.9-0.5,1.4-0.5c0.1,0,0.3,0,0.7-0.1
		c0.4,0,0.8-0.1,1.3-0.1c0.5,0,0.9-0.1,1.4-0.1c0.4,0,0.7-0.1,0.8-0.1c0.9-0.1,1.6-0.3,2.2-0.7c0.6-0.4,1.1-1.1,1.4-2.1
		c0.7-2,1.5-4.5,2.3-7.3c0.9-2.9,1.8-5.9,2.7-9.2s1.9-6.6,2.8-10c0.9-3.4,1.8-6.6,2.7-9.7c0.8-3.1,1.6-5.9,2.3-8.5
		c0.7-2.6,1.3-4.7,1.8-6.2c0.3-1.1,0.8-2,1.3-2.5c0.5-0.6,1.4-0.8,2.7-0.8c1,0,1.8,0.3,2.4,0.8c0.6,0.5,1,1.4,1.3,2.5L385.7,270.4z
		 M367.1,222c-0.3,1.3-0.8,3.2-1.4,5.6c-0.6,2.4-1.3,5.1-2,7.9c-0.7,2.8-1.4,5.6-2.1,8.4c-0.7,2.8-1.3,5.2-1.8,7.1c0.7,0,1.4,0,2,0
		c0.6,0,1.1,0,1.6,0.1c0.5,0,1,0,1.6,0c0.6,0,1.2,0,2,0c0.4,0,1,0,1.6,0c0.6,0,1.3,0,1.9,0c0.7,0,1.3,0,1.9-0.1c0.6,0,1.1,0,1.6,0
		c-0.6-2.2-1.2-4.5-1.8-6.9c-0.6-2.4-1.2-4.9-1.8-7.3c-0.6-2.5-1.1-5-1.7-7.5C368.1,226.8,367.6,224.4,367.1,222z"/>
	<path class="st16" d="M433.9,255.5c0,1.6-0.4,3.4-1.2,5.4c-0.8,2-2.1,3.9-3.8,5.7c-1.7,1.8-4,3.3-6.8,4.5
		c-2.8,1.2-6.2,1.8-10.2,1.8c-2.7,0-5.3-0.6-7.9-1.7c-2.6-1.2-4.9-3-7-5.5c-2.1-2.5-3.7-5.7-5-9.6c-1.3-3.9-1.9-8.6-1.9-14.1
		c0-4.5,0.6-8.7,1.8-12.5c1.2-3.9,2.8-7.3,4.9-10.1c2.1-2.9,4.5-5.1,7.2-6.8c2.8-1.6,5.7-2.5,8.8-2.5c2,0,3.8,0.3,5.5,0.9
		c1.6,0.6,3,1.4,4.2,2.4c1.2,1,2.2,2,2.9,3.1c0.8,1.1,1.3,2.2,1.7,3.2c-0.1-2.6-0.2-4.2-0.3-5c0-0.8,0-1.2,0-1.3
		c0-0.7,0.2-1.3,0.5-1.8c0.3-0.5,1.1-0.8,2.3-0.8c0.8,0,1.4,0.1,1.9,0.4c0.5,0.2,0.8,0.5,1,0.9c0.2,0.3,0.3,0.7,0.4,1
		c0,0.3,0.1,0.6,0.1,0.8c0,1.7-0.1,3.6-0.1,5.6c-0.1,2-0.1,3.9-0.1,5.7c0,1.6,0,3.1,0.1,4.5c0,1.4,0.1,2.9,0.1,4.5
		c0,1.2-0.2,2.1-0.7,2.7c-0.4,0.6-1.3,0.9-2.5,0.9c-1.2,0-2.1-0.3-2.6-0.8c-0.6-0.5-0.9-1.7-0.9-3.6c-0.1-2.1-0.3-4.2-0.8-6.3
		c-0.5-2.1-1.3-3.9-2.3-5.6c-1.1-1.6-2.4-2.9-4.1-3.9c-1.6-1-3.7-1.5-6-1.5c-2.3,0-4.4,0.7-6.3,2.2c-1.9,1.5-3.6,3.4-5,5.8
		c-1.4,2.4-2.5,5.2-3.2,8.4c-0.8,3.1-1.1,6.4-1.1,9.8c0,3.4,0.3,6.6,1,9.6c0.6,3,1.6,5.7,2.8,7.9c1.3,2.3,2.8,4.1,4.8,5.4
		c1.9,1.3,4.2,2,6.7,2c2.1,0,4-0.2,5.6-0.6c1.6-0.4,3.1-1,4.3-1.8c1.3-0.8,2.3-1.9,3.2-3.2c0.9-1.3,1.6-3,2.3-4.9
		c0.4-1.4,0.9-2.3,1.3-2.7c0.4-0.4,1.1-0.7,2.1-0.7C433,253.2,433.9,253.9,433.9,255.5z"/>
	<path class="st16" d="M453.3,239.4c0.9-0.9,2-2,3.3-3.3c1.3-1.3,2.6-2.7,4-4.2c1.4-1.5,2.8-3,4.1-4.4c1.4-1.5,2.6-2.8,3.7-4.1
		c1.1-1.3,2-2.3,2.6-3.2c0.7-0.9,1-1.4,1-1.6c0-0.5-0.1-0.8-0.3-0.9c-0.2-0.1-0.7-0.2-1.4-0.3c-0.5,0-1-0.2-1.6-0.5
		c-0.6-0.3-0.8-0.8-0.8-1.5c0-0.6,0.2-1.2,0.5-1.7c0.3-0.5,1-0.7,2-0.7h17.9c0.4,0,0.9,0.2,1.3,0.6c0.4,0.4,0.7,0.9,0.7,1.7
		c0,0.7-0.3,1.3-0.8,1.6c-0.5,0.3-1,0.5-1.5,0.5c-2.1,0.1-3.8,0.3-5.1,0.5c-1.3,0.2-2.3,0.7-3.1,1.4c-3.5,3.3-7,7-10.6,11
		c-3.6,4-7.3,8.1-11.3,12.5c2.6,3.4,5.1,6.7,7.5,9.8c1,1.3,2.1,2.7,3.3,4.2c1.2,1.5,2.3,2.9,3.4,4.2c1.1,1.4,2.2,2.7,3.2,3.9
		c1.1,1.3,2,2.4,2.9,3.4c0.4,0.4,1.4,0.6,3.1,0.7c1.6,0.1,3.5,0.1,5.6,0.1c1.6,0,2.9,0.2,3.9,0.6c1,0.4,1.5,1.1,1.5,2.1
		c0,0.5-0.1,1-0.3,1.3c-0.2,0.3-0.8,0.6-1.8,0.8c-1,0.2-2.6,0.4-4.8,0.4c-2.2,0.1-5.2,0.1-9.2,0.1c-0.4,0-1.1-0.5-2.1-1.4
		c-0.9-0.9-2-2.2-3.3-3.7c-1.3-1.5-2.7-3.3-4.2-5.2c-1.5-2-3-4-4.6-6.1c-1.5-2.1-3.1-4.1-4.6-6.1c-1.5-2-2.9-3.8-4.2-5.5l-0.4,0.6
		v20.1h5.5c0.9,0,1.7,0.1,2.2,0.4c0.5,0.3,0.8,0.8,0.8,1.6c0,0.9-0.2,1.6-0.7,2c-0.4,0.4-0.9,0.6-1.4,0.6h-15.4
		c-1.7,0-2.9-0.2-3.5-0.5c-0.6-0.3-0.9-1-0.9-1.9c0-0.8,0.3-1.4,1-1.8c0.6-0.4,1.5-0.6,2.4-0.7c0.9-0.1,1.6-0.4,2.1-0.9
		c0.5-0.5,0.7-1.5,0.7-2.9c0-1.8,0-3.6,0-5.2c0-1.7,0.1-3.3,0.1-5c0-1.6,0.1-3.3,0.1-5.1c0-1.7,0-3.6,0-5.5c0-3.9-0.1-8-0.1-12.1
		c-0.1-4.1-0.1-8.2-0.1-12.1c0-0.6-0.3-1.1-0.8-1.4c-0.5-0.3-1.2-0.5-2.1-0.6c-1.2-0.1-2.1-0.3-2.5-0.7c-0.5-0.4-0.7-1-0.7-1.8
		c0-1,0.3-1.6,1-1.9c0.7-0.3,1.4-0.4,2.3-0.4h14.2c1.6,0,2.6,0.1,3.1,0.4c0.5,0.2,0.8,0.8,0.8,1.6c0,0.9-0.3,1.6-1,2
		c-0.7,0.4-1.3,0.6-1.9,0.6c-0.4,0-1,0-1.6,0.1c-0.6,0.1-1.2,0.1-1.7,0.3c-0.5,0.1-1,0.4-1.4,0.6c-0.4,0.3-0.6,0.6-0.6,1.1V239.4z"
		/>
	<path class="st16" d="M508.1,274.2c0,0.6-0.2,1.2-0.4,1.8c-0.2,0.6-0.6,1.1-1.1,1.5c-0.5,0.4-1.1,0.8-1.8,1.1
		c-0.7,0.3-1.6,0.4-2.6,0.3c-1-0.1-1.9-0.3-2.6-0.6c-0.7-0.4-1.2-0.8-1.6-1.3c-0.4-0.5-0.7-1-0.8-1.6c-0.1-0.6-0.2-1.1-0.1-1.5
		c0-0.4,0.1-0.9,0.3-1.4c0.2-0.6,0.5-1.1,0.9-1.6c0.4-0.5,1-0.9,1.7-1.2c0.7-0.3,1.6-0.5,2.8-0.4c1,0,1.8,0.2,2.5,0.6
		c0.7,0.3,1.3,0.7,1.7,1.2c0.4,0.5,0.7,1,0.9,1.6C508.1,273.2,508.2,273.8,508.1,274.2z M500,264.6c0-0.2-0.1-0.9,0-2.3
		c0-1.4,0.1-3.2,0.2-5.4c0.1-2.2,0.2-4.7,0.3-7.5c0.1-2.8,0.2-5.7,0.3-8.6c0.1-2.9,0.2-5.9,0.4-8.7c0.1-2.9,0.2-5.5,0.3-7.8
		c0.1-2.3,0.2-4.3,0.3-5.9c0.1-1.6,0.1-2.6,0.1-3c0.1-1.4,0.5-2.3,1.2-2.7c0.8-0.4,1.5-0.6,2.2-0.6c0.1,0,0.4,0,0.8,0.1
		c0.4,0,0.8,0.2,1.2,0.4c0.4,0.2,0.7,0.6,1,1.1c0.3,0.5,0.4,1.2,0.3,2l-2.3,45.9c-0.1,2.1-0.4,3.4-0.8,4.1c-0.4,0.7-1.3,1-2.6,0.9
		c-0.6,0-1.1-0.1-1.4-0.3c-0.4-0.2-0.6-0.4-0.9-0.6c-0.2-0.2-0.4-0.5-0.4-0.7C500,264.8,500,264.6,500,264.6z"/>
</g>
<path class="st16" d="M167.6,297.7v-0.2c-4,0.2-8,0.7-11.9,1.4c-3.6,0.7-7.1,1.5-10.6,2.4c1.8-3.2,3.5-6.4,5-9.6
	c1.6-3.6,3.2-7.3,4.3-11.2l-0.2-0.1c-2.2,3.4-4.1,6.9-5.9,10.4c-1.7,3.5-3.2,7.1-4.6,10.7c-0.1,0-0.1,0-0.2,0
	c-0.4-1.9-0.8-3.9-1.2-5.8c-0.5-3.1-0.9-6.3-1.3-9.5c-1-6.3-2.4-12.5-4.2-18.6h-0.2c0.6,6.4,1.6,12.7,2.9,18.9
	c0.7,3.1,1.6,6.2,2.2,9.3c0.4,1.9,0.7,3.7,1,5.6c-1.5-0.2-3.1-0.4-4.6-0.7c-2-0.4-3.9-1-5.8-1.5c-3.9-0.8-7.9-1.3-11.9-1.4v0.2
	c3.8,1.3,7.7,2.1,11.7,2.7c2,0.2,4,0.3,6,0.6c1.3,0.2,2.6,0.4,3.9,0.7c-1.3,0.3-2.6,0.6-3.9,0.8c-2,0.3-4,0.4-6,0.7
	c-3.9,0.6-7.8,1.5-11.6,2.9v0.2c4-0.1,8-0.7,11.9-1.6c1.9-0.5,3.8-1.1,5.8-1.6c1.6-0.4,3.2-0.6,4.8-0.8c0,0.2,0,0.3,0.1,0.5
	c-0.6,1.4-1.2,2.8-1.8,4.2c-0.9,1.8-2,3.5-3,5.2c-1.8,3.5-3.4,7.2-4.5,11.1l0.2,0.1c2.3-3.3,4.1-6.9,5.7-10.5
	c0.7-1.9,1.4-3.8,2.2-5.6c0.5-1.1,1-2.1,1.5-3.1c0,0.2,0.1,0.5,0.1,0.7c0.8,6.3,1.9,12.6,3.1,18.8c1.3,6.2,2.7,12.4,4.4,18.6h0.2
	c-0.6-6.4-1.6-12.6-2.7-18.9c-1.2-6.2-2.5-12.5-4-18.7c-0.1-0.6-0.3-1.2-0.4-1.8c0.1-0.2,0.2-0.4,0.4-0.6c3.8,1,7.6,1.7,11.4,2.4
	c3.9,0.6,7.9,1.1,12,1.2V306c-3.8-1.2-7.7-2.1-11.7-2.9c-2.6-0.4-5.2-0.8-7.8-1.1c2.6-0.4,5.2-0.8,7.8-1.2
	C159.9,300,163.8,299,167.6,297.7z"/>
</svg>
