<?xml version="1.0" encoding="utf-8"?>
<!-- Generator: Adobe Illustrator 24.1.3, SVG Export Plug-In . SVG Version: 6.00 Build 0)  -->
<svg 
	version="1.1" 
	id="Layer_1" 
	xmlns="http://www.w3.org/2000/svg" 
	xmlns:xlink="http://www.w3.org/1999/xlink" 
	x="0px" 
	y="0px"
	viewBox="0 0 318.89 326.27" style="enable-background:new 0 0 318.89 326.27;" xml:space="preserve">
	<style type="text/css">
		.st0{fill:#B086BE;}
		.st1{fill:#EC9E8B;}
		.st2{fill:#7C3894;}
		.st3{fill:#D45382;}
		.st4{fill:none;stroke:#000000;stroke-width:6;stroke-miterlimit:10;}
		.st5{fill:#FEDE9C;}
		.st6{fill:#F7CA5E;}
		.st7{fill:#83C89C;}
		.st8{fill:#22345B;}
		.st9{fill:#767E99;}
		.st10{fill:#D65A47;}
		.st11{fill:#FFFFFF;}
		.st12{fill:#E99BB2;}
		.st13{fill:#B5DEC2;}
		.st14{fill:none;stroke:#000000;stroke-width:2;stroke-miterlimit:10;}
		.st15{opacity:0.41;}
		.st16{stroke:#000000;stroke-width:4;stroke-miterlimit:10;}
		.st17{fill:none;stroke:#414042;stroke-width:2;stroke-miterlimit:10;}
		.st18{fill:#6FBB8F;}
		.st19{fill:#DB6041;}
		.st20{stroke:#000000;stroke-miterlimit:10;}
		.st21{fill:none;stroke:#000000;stroke-miterlimit:10;}
		.st22{fill:none;stroke:#000000;stroke-width:3;stroke-miterlimit:10;}
		.st23{fill:#FFFFFF;stroke:#000000;stroke-width:6;stroke-miterlimit:10;}
		.st24{fill:none;}
		.st25{fill:none;stroke:#000000;stroke-width:8;stroke-linecap:round;stroke-linejoin:round;stroke-miterlimit:10;}
		.st26{fill-rule:evenodd;clip-rule:evenodd;fill:#D65A47;}
		.st27{fill-rule:evenodd;clip-rule:evenodd;fill:#83C89C;}
		.st28{fill-rule:evenodd;clip-rule:evenodd;fill:#D45382;}
		.st29{fill:none;stroke:#000000;stroke-width:12;stroke-miterlimit:10;}
		.st30{fill:none;stroke:#000000;stroke-width:10;stroke-miterlimit:10;}
	</style>
	<g>
		<path class="st5" d="M219.69,213.07c0.8,0.76,1.88,1.79,3.58,3.41L219.69,213.07z"/>
		<path class="st5" d="M193.9,188.32l-0.63-0.56C194.43,188.85,194.96,189.34,193.9,188.32z"/>
		<path class="st5" d="M266.45,146.54l9.05-2.83C271.4,145,268.49,145.91,266.45,146.54z"/>
		<path class="st5" d="M192.17,231.08l2.12,5.36C191.1,228.01,192.46,231.73,192.17,231.08z"/>
		<path class="st5" d="M70.51,231c0.38-0.35,0.83-0.77,1.17-1.09C71.78,229.79,71.27,230.28,70.51,231z"/>
		<path class="st5" d="M156.22,44.17c0.01,0.14,0.02,0.25,0.04,0.41C156.16,43.01,156.18,43.27,156.22,44.17z"/>
		<path class="st5" d="M148.85,250.33c-0.02-0.31-0.05-0.66-0.07-0.99C148.27,244.69,148.47,246.73,148.85,250.33z"/>
		<path class="st5" d="M235.75,99.3c-0.18,0.12-0.27,0.19-0.44,0.3c0.18-0.12,0.41-0.26,0.58-0.37L235.75,99.3z"/>
		<path class="st5" d="M245.18,93.37l2.19-1.67l3.49-2.52c-1.93,1.33-3.65,2.52-5.24,3.62c-1.2,0.83-2.3,1.58-3.37,2.29
			c-2.13,1.42-4.1,2.7-6.36,4.15l4.92-2.53L245.18,93.37z"/>
		<path class="st5" d="M214.37,294.64c0.05,0.12,0.05,0.13-0.39-1.04h0C214.21,294.23,214.32,294.52,214.37,294.64z"/>
		<path class="st5" d="M214.39,294.7C214.39,294.72,214.39,294.71,214.39,294.7L214.39,294.7z"/>
		<path class="st5" d="M214.32,294.52C214.32,294.51,214.32,294.51,214.32,294.52L214.32,294.52z"/>
		<path class="st5" d="M214.35,294.6L214.35,294.6c-0.01-0.01-0.01-0.02-0.01-0.03C214.32,294.52,214.31,294.5,214.35,294.6z"/>
		<path class="st5" d="M160.08,263.45c0.05-0.56,0.1-1.08,0.13-1.52C160.17,262.45,160.13,262.95,160.08,263.45z"/>
		<path class="st5" d="M214.34,294.57c0.02,0.04,0.04,0.11,0.05,0.13c0-0.01-0.01-0.03-0.02-0.06c-0.02-0.04-0.04-0.1-0.05-0.12
			C214.33,294.53,214.33,294.55,214.34,294.57z"/>
		<path class="st5" d="M208.22,202.09l1.4,1.34C209.08,202.92,208.61,202.47,208.22,202.09z"/>
		<path class="st5" d="M214.35,294.6L214.35,294.6L214.35,294.6l-0.01-0.02l-0.01-0.02l-0.03-0.05l-0.06-0.1
			c-0.04-0.07-0.08-0.14-0.12-0.21c-0.08-0.14-0.17-0.28-0.26-0.43c-0.18-0.29-0.36-0.6-0.56-0.92c-0.39-0.64-0.81-1.34-1.25-2.07
			l1.16,1.92l0.58,0.96l0.29,0.48l0.14,0.24l0.07,0.12l0.04,0.06l0.02,0.03L214.35,294.6l0,0.01l0,0l0,0l0,0
			C214.36,294.61,214.35,294.61,214.35,294.6L214.35,294.6L214.35,294.6z"/>
		<polygon class="st5" points="156.19,306.62 156.24,307.13 156.19,306.62 	"/>
		<path class="st5" d="M291.04,199.87c-0.2-0.14-0.39-0.27-0.57-0.39c-0.08-0.06-0.16-0.12-0.24-0.17l-0.11-0.08l-0.05-0.04
			l-0.02-0.02l-0.01-0.01l-0.01,0l0,0l0,0l0,0l0,0c-0.31-0.04,0.68,0.09-0.68-0.09c-3.2-1.14-5.35-1.91-7-2.5
			c-1.19-0.43-2.02-0.73-2.89-1.05c-16.59-5.45,11.41,3.91-8.25-2.49c-13.79-4.56-23.5-7.68-40.05-12.99
			c-9.65-3.21,1.72,0.46-1.73-0.72l-8.61-2.68c-2.1-0.69-1.41-0.51-1.06-0.41c-7.23-2.31-0.65-0.04-12.01-3.7
			c-0.78-0.2-2.62-0.8-5.16-1.64c-1.2-0.4-2.58-0.86-4.07-1.36c-0.48-0.16-0.98-0.34-1.5-0.51l-0.02-0.01l0.03-0.01l0.05-0.02
			l0.1-0.03l0.21-0.06c0.14-0.04,0.28-0.08,0.41-0.13c0.27-0.08,0.54-0.17,0.82-0.25c3.54-1.12,7.42-2.35,11.28-3.57
			c3.93-1.26,7.83-2.53,11.32-3.73c3.48-1.07-1.64,0.65-0.56,0.38c19.24-6.39,16.5-5.45,32.27-10.8l13.53-4.24
			c-4.98,1.53-4.32,1.22-1.03,0.07c1.65-0.57,3.95-1.36,6.52-2.25c2.61-0.89,5.49-1.87,8.28-2.82c-0.57,0.17-1.11,0.34-1.65,0.5
			l3.64-1.18l-1.99,0.68c0.73-0.22,1.49-0.45,2.25-0.68l1.75-0.63l0.51-0.19l6.68-2.17l-2.19,0.3c0.02,0,0.03-0.01,0.05-0.01
			c0.04-0.01,0.1-0.02,0.2-0.03c0.35-0.05,1.02-0.15,1.83-0.24l0.08-0.01c0.02,0,0.08-0.01,0.03,0l-0.14,0.05
			c-0.1,0.03-0.19,0.07-0.29,0.1c-0.19,0.07-0.39,0.14-0.6,0.22c-0.38,0.15-0.8,0.31-1.22,0.47c-1.27,0.46-2.67,0.93-4.17,1.41
			l-0.18,0.03l0,0l0,0l-0.01,0l-0.02,0.01l-0.04,0.01l-0.08,0.02l-0.15,0.05l-0.3,0.09c-0.2,0.06-0.39,0.12-0.58,0.18
			c-0.38,0.12-0.75,0.23-1.12,0.34c-2.28,0.82-4.48,1.62-6,2.17c-1.43,0.54-2.21,0.86-1.73,0.78c0.57-0.19,1.41-0.48,2.41-0.82
			c1.33-0.44,2.87-0.95,4.49-1.48c-1.41,0.5-2.4,0.85-1.62,0.62c0.42-0.13,1.24-0.4,2.37-0.78c0.55-0.19,1.2-0.41,1.92-0.65
			c0.35-0.12,0.73-0.25,1.12-0.38c0.19-0.07,0.39-0.13,0.59-0.2c0.1-0.03,0.2-0.07,0.31-0.1l0.15-0.05l0.08-0.03l0.04-0.01l0.02-0.01
			l0.01,0l0,0l0,0c0.3-0.04-0.66,0.09,0.67-0.09c0.04-0.02,0.08-0.05,0.13-0.07c1.33-0.44,2.35-0.83,3.04-1.18
			c0.01-0.06,0.05-0.13,0.12-0.2l0.49-0.28l0.24-0.14l0.12-0.07c0-0.01-0.09-0.01-0.14-0.01l-1.3-0.04l-1.24-0.05l-0.6-0.03
			l-0.3-0.02l-0.15-0.01l-0.07,0l-0.04,0l-0.02,0l-0.01,0l0,0h0l0,0c-0.23,0.08,0.52-0.17-0.52,0.17l-10.33,1.23l-7.45,0.94
			c-17.23,2.56-32.19,4.98-59.58,8.79c6.77-1.13,1.41-0.54,1.75-0.85c7.51-0.74,21.21-2.95,35.42-4.79c-7.41,0.96-5.8,0.63-3.92,0.34
			l-25.3,3.61c0.54-0.28-5.4,0.56-12.03,1.36c2.53-0.13-2.18,0.57-8.81,1.49c-0.57,0.08-1.15,0.16-1.75,0.25
			c-0.56,0.08-1.16,0.17-1.72,0.23c0.9-0.87,1.81-1.75,2.7-2.61c2.61-2.54,5.1-4.94,6.96-6.75c0.28-0.17,0,0.2-1.5,1.71
			c-0.75,0.75-1.81,1.79-3.25,3.19c-1.08,1.03-2.43,2.34-4.13,3.97c0.36-0.33,0.71-0.64,1.04-0.93c0.15-0.14,0.3-0.27,0.44-0.41
			c0.21-0.19,0.41-0.39,0.61-0.57c1.07-1.02,2.05-1.96,2.97-2.86c1.84-1.79,3.42-3.4,4.99-5c3.15-3.2,6.27-6.38,11.33-11.04
			c-2.24,2.15-3.46,3.28-4.29,4.18c5.14-5.1,17.98-17.26,15.07-14.29l-2.23,2.14c9.59-9.19,25.13-24.08,36.58-35.05
			c-0.53,0.35-0.14,0.09-0.26,0.17l0,0l0.01-0.01l0.01-0.01l0.02-0.03l0.04-0.05l0.09-0.11l0.18-0.22c0.12-0.15,0.24-0.29,0.35-0.43
			c0.24-0.29,0.47-0.57,0.7-0.85c0.48-0.57,0.94-1.12,1.38-1.64c0.23-0.27,0.45-0.53,0.67-0.78c0.11-0.13,0.22-0.26,0.33-0.38
			l0.16-0.19l0.02-0.02l-0.03,0.02l-0.06,0.03l-0.11,0.06c-0.6,0.34-1.17,0.65-1.69,0.94c-2.14,1.21-3.84,2.28-4.57,2.83
			c0.02-0.04,0.93-0.75,1.81-1.37c0.89-0.64,1.72-1.18,2.1-1.38c-0.83,0.42-1.74,0.93-2.75,1.53c0.36-0.35,0.09-0.09,0.17-0.17
			l-0.01,0.01l-0.02,0.01l-0.04,0.03l-0.08,0.06l-0.17,0.12l-0.33,0.23l-0.66,0.46l-1.29,0.89l-2.48,1.72l-4.55,3.17l-3.67,2.59
			l-3.29,2.34l-3.83,2.73l-9.67,6.37c-1.43,0.5-3.63,1.42,6.17-5.2c-4.12,2.65-9.21,5.93-17.76,11.71c2.82-1.79,7.23-4.16,3.44-1.62
			c-10.54,6.48-7.47,4.67-19.99,12.53c3.39-2.1-0.86,1.31-7.2,5.47c0.99-0.75-0.86-0.1,1.53-1.74l-8.07,5.64l-2.02,1.41l-1.55,1.1
			l-1.56,1.11l-0.84,0.59c-0.06,0.05-0.09,0.07-0.11,0.08c0,0,0,0,0,0l0.06-0.04c0.08-0.06,0.15-0.11,0.21-0.16
			c0.26-0.19,0.44-0.34,0.55-0.44c0.23-0.21,0.19-0.26,0.05-0.24c-0.04,0-0.08,0.01-0.13,0.03c-0.02,0.01-0.05,0.01-0.08,0.02
			c0,0-0.02,0.01-0.01,0l0.03-0.05l0.05-0.1c0.12-0.25,0.26-0.53,0.42-0.85c0.23-0.48,0.49-1.03,0.76-1.6
			c-0.06,0.11-0.06,0.09-0.01-0.06c0.03-0.07,0.06-0.18,0.11-0.31c0.08-0.21,0.17-0.46,0.27-0.75c0.56-1.48,1.39-3.69,2.3-6.1
			c1.83-4.83,3.98-10.52,4.88-12.99l-3.06,7.77c7.91-20.78,6.98-20.84,14.75-41.48c-0.83,2.54-1.63,6.43,2.38-4.04
			c0.49-1.56,1.35-4.34,2.49-8c0.6-1.89,1.28-4,2.02-6.3c0.23-0.72,0.47-1.46,0.71-2.22l5.7-15.19l-4.42,7.39
			c0.04-0.07,0.08-0.15,0.12-0.22c0.51-0.88,1.02-1.77,1.54-2.67c0.5-0.85,0.99-1.67,1.46-2.44l0.7-1.12l0.34-0.54l0.17-0.26
			l0.08-0.13l0.02-0.03c0.01-0.01,0,0.02-0.01,0.02l-0.02,0.07c-1,3.01-1.56,5.26-1.76,6.8c-0.22,0.37-0.06,0.1-0.11,0.19l0,0l0,0.01
			l-0.01,0.02l-0.01,0.03l-0.02,0.06l-0.04,0.12l-0.09,0.25c-0.06,0.17-0.12,0.33-0.17,0.49c-0.12,0.33-0.23,0.66-0.34,0.98
			c-0.23,0.66-0.46,1.29-0.67,1.91c-0.45,1.29-0.88,2.5-1.28,3.64c-0.87,2.46-1.64,4.64-2.35,6.64c2-5.16,2.59-6.6,3.15-8
			c0.27-0.7,0.55-1.41,1.04-2.67c0.24-0.62,0.52-1.37,0.89-2.33c0.18-0.47,0.38-1,0.6-1.58c0.11-0.29,0.22-0.6,0.35-0.92
			c0.06-0.16,0.12-0.32,0.19-0.49c0.03-0.08,0.06-0.17,0.1-0.26l0.05-0.13l0.02-0.07l0.01-0.03l0.01-0.02l0-0.01
			c0.08-0.14-0.18,0.3,0.19-0.32c0.03-0.4,0.07-0.89,0.11-1.48c0.14-0.68,0.18-0.74,0.25-0.57c0.06,0.17,0.15,0.58,0.25,1.02
			c-0.43,0.72-0.12,0.2-0.22,0.36l0,0l0,0.01l0,0.01l-0.01,0.02l-0.02,0.04l-0.03,0.09l-0.06,0.18l-0.13,0.36
			c-0.09,0.24-0.18,0.48-0.27,0.72c-0.18,0.49-0.36,0.98-0.54,1.46c-0.37,0.99-0.73,1.97-1.08,2.91c-0.71,1.91-1.35,3.63-1.8,4.84
			l2.07-5.49l1.04-2.76l0.52-1.38l0.26-0.69l0.13-0.35l0.07-0.17l0.03-0.09l0.02-0.04l0.01-0.02l0-0.01l0-0.01l0,0
			c0.1-0.17-0.22,0.38,0.23-0.38c-0.12-1.1-0.27-2.13-0.47-3.1c0-0.05-0.04,0-0.07,0.01l-0.09,0.06l-0.18,0.12l-0.35,0.23l-0.7,0.44
			c-0.46,0.29-0.92,0.55-1.37,0.81c-0.01,0.03-0.02,0.07-0.07,0.13c0.03-0.09,0.07-0.19,0.06-0.17l0,0.01l-0.01,0.01
			c0,0.01-0.01,0.02-0.01,0.03c-0.01,0.02-0.02,0.04-0.03,0.07c-0.04,0.08-0.11,0.21-0.19,0.38c-0.15,0.27-0.38,0.68-0.67,1.22
			c-0.53,0.92-1.3,2.27-2.23,3.9c-1.71,2.93-4.01,6.86-6.29,10.76c-1.41,2.44-2.8,4.86-3.81,6.6c-0.96,1.69-1.53,2.75-1.33,2.55
			l5.47-9.38l4.11-6.98l2.12-3.59l1.07-1.82l0.54-0.92l0.27-0.46l0.14-0.23l0.07-0.12l0.03-0.06l0.02-0.03l0.01-0.01l0-0.01
			c-0.03,0.08,0.07-0.19-0.07,0.18c1.2-1.39,2.32-2.58,3.37-3.58c0.08-0.06-0.19,0.19-0.89,1.11c-0.7,0.91-1.83,2.51-3.4,4.93
			c-2.34,4.03-5.16,8.92-8.26,14.27c-2.42,4.17-5.09,8.69-7.83,13.24c-2.81,4.41,1.46-3.68,1.14-3.38
			c-1.27,2.35-9.82,16.86-10.87,18.44l4.32-7.58c-6,9.75-9.18,16.27-16.54,27.89c-1.23,2.03-3.15,5.01-4.79,7.58
			c-0.82,1.29-1.57,2.47-2.14,3.39c-0.08,0.13-0.16,0.26-0.23,0.37c-0.04,0.07-0.07,0.13-0.11,0.19c-0.06,0.11-0.1,0.21-0.1,0.28
			c0.12-0.14,0.23-0.27,0.34-0.4l0.09-0.1c0.01-0.01,0.04-0.06,0.07-0.1l0.09-0.13c0.12-0.17,0.24-0.33,0.35-0.48
			c0.46-0.62,0.88-1.16,1.26-1.6c0.75-0.89,1.32-1.43,1.67-1.63c0.14-0.08,0.25-0.1,0.32-0.07l-6.04,10.1l-0.41-4.45
			c0.06,0.18,0.13,0.35,0.19,0.49l-0.27-2.92l-0.13,0.13l-1.5-16.48c0.16-1.69,1.83,12.54,1.55,6.71c-0.13-0.28-0.64-4.56-0.84-6.35
			c-0.37-4.97,0.5,2.03-0.53-8.76c-0.53-1.77-1.97-21.94-0.78-5.07c-1.07-10.54-0.95-11.22-2.09-23.61c0.06,1.98-0.4-0.78-1-5.36
			c-0.2-1.48-0.41-3.14-0.62-4.9l-1.24-13.58c-0.01-0.3-0.03-0.58-0.04-0.82c-0.14-1.54-0.27-3.02-0.37-4.16
			c-0.2-2.16-0.39-4.21-0.58-6.19c-0.09-0.98-0.19-1.93-0.28-2.87c-0.05-0.47-0.09-0.93-0.14-1.39l-0.03-0.34l-0.02-0.17l-0.01-0.08
			c0-0.02-0.01-0.09-0.01-0.04c-0.02,0.22-0.04,0.45-0.07,0.67c-0.36,3.56-0.7,6.79-1.04,9.87c-0.81,8.61-1.59,16.89-2.59,27.45
			c-0.26,1.85-1.25,11.57-1.03,7.41c-0.2,2.91-0.32,5.58-0.88,11.8c-1.41,12.01,1.21-13.87,0-4.73c0.14,0.8-1.17,16.12-1.85,24.99
			c0.57-2.7,1.93-20.47,2.6-29.35c0.16,0,0.15,1.85-0.01,5.14l-4.28,46.96l-9.11-15.22c-3.15-5.38-8.48-14.3-14.39-24.19
			c-3.89-6.52-8.04-13.47-12-20.1c-4.12-6.94-8.04-13.55-11.3-19.05c-0.08-0.12-0.14-0.23-0.21-0.34c-0.96-1.45-2.36-3.67-3.33-5.25
			c-0.24-0.4-0.46-0.75-0.63-1.02c-0.09-0.15-0.17-0.29-0.23-0.38l-0.48-0.8l28.88,76.97c-0.12-0.22-0.15-0.21-0.06,0.12l3.85,9.97
			l0.45,1.2c-0.19-0.35-1.46-3.54-0.42-0.66c0.11,0.17,0.47,1,0.98,2.26c0.21,0.52,0.44,1.11,0.7,1.77l0.98,2.61l-12.4-8.17
			c-0.23-0.16-0.46-0.31-0.68-0.47c-0.26-0.17-0.51-0.32-0.74-0.47l-11.96-7.89c-0.41-0.28-0.97-0.65-1.7-1.14
			c-0.79-0.52-1.65-1.07-2.48-1.61L45.29,81.63l72.65,69.66L18.2,137.86l95.73,31.13l-24.18,7.86c-4.49,1.42-9.36,2.96-8.68,2.68
			c-5.82,1.93-13.52,4.39-22.16,7.14c-8.64,2.76-18.22,5.8-27.76,8.99c-4.24,1.33,3.59-1.22,1.32-0.52c-1.4,0.47-2.89,0.97-4.58,1.53
			c-0.42,0.14-0.86,0.28-1.31,0.43c-0.22,0.07-0.45,0.15-0.68,0.22c-0.53,0.13-1.07,0.27-1.62,0.41c-2.23,0.56-4.6,1.15-7.16,1.79
			c7.08-0.99,1.96-0.27,3.54-0.5l0,0l0,0l0,0l-0.01,0l-0.02,0.01l-0.03,0.01l-0.06,0.03l-0.13,0.06c-0.09,0.04-0.17,0.08-0.26,0.12
			c-0.18,0.08-0.36,0.16-0.54,0.24c-0.37,0.16-0.76,0.33-1.16,0.51l-0.15,0.07l-0.08,0.03c-0.01,0-0.03,0.01-0.03,0.02l0.05,0
			c0.13-0.01,0.26-0.02,0.4-0.03c0.27-0.02,0.54-0.04,0.81-0.06c0.55-0.04,1.12-0.08,1.71-0.12c-1.01,0.33-0.28,0.09-0.5,0.17l0,0
			l0,0l0,0l0.01,0l0.02,0l0.04,0l0.07-0.01l0.14-0.02l0.29-0.04c0.19-0.03,0.39-0.05,0.58-0.08c0.39-0.05,0.79-0.1,1.2-0.16
			c0.82-0.11,1.65-0.22,2.51-0.33l-1.82,0.26c16.21-2.14,27.78-3.67,39.86-5.26c11.85-1.54,24.19-3.14,42.05-5.47l-2.66,0.22
			c3.84-0.49,6.16-0.79,7.98-1.02c1.57-0.19,2.69-0.33,4.25-0.51c0.55-0.1,0.86-0.16,0.91-0.18c0.05-0.02-0.15-0.01-0.55,0.04
			c-1.32,0.17-3.73,0.49-6.17,0.81c-5.49,0.72-11.07,1.46-7.08,0.82c1.28-0.14,3.08-0.35,5.27-0.62c2.12-0.27,4.61-0.59,7.35-0.94
			c0.4-0.05,0.81-0.11,1.23-0.16l0.31-0.04c0.02,0,0.07-0.01,0.06,0l-0.06,0.06l-0.12,0.11c-0.16,0.15-0.32,0.3-0.47,0.45
			c-0.92,0.88-1.86,1.78-2.82,2.7c-2.33,2.22-4.74,4.53-7.13,6.81c-9.57,9.14-18.84,17.99-21.47,20.26
			c-8.61,8.23,2.65-2.28-5.96,5.95l-2.35,2.11L74.04,228c-5.66,5.38-8.59,8.01-8.86,8.15c1.36-1.31,3.88-3.74,5.34-5.15
			c-2.91,2.72-6.73,6.36-10.43,9.91c-2.1,2.02-4.17,4.01-6.06,5.82c-1.38,1.32-2.69,2.59-3.91,3.76c-0.61,0.58-1.19,1.14-1.75,1.68
			c-0.28,0.27-0.55,0.53-0.82,0.78c-0.13,0.13-0.26,0.25-0.39,0.38l-0.19,0.18l-0.1,0.09l-0.05,0.05l-0.02,0.02l-0.01,0.01
			l-0.01,0.01c-0.27,0.18,0.19-0.13,0.05-0.03c0.01-0.01,0.03-0.02,0.05-0.03l0,0l0,0l0.01-0.01l0.02-0.02l0.03-0.03l0.07-0.07
			l0.14-0.13l0.28-0.26l0.55-0.52l1.1-1.04l2.18-2.07l4.3-4.08c-1.37,1.31-2.75,2.64-4.15,3.98c-0.7,0.67-1.4,1.34-2.1,2.02
			c-0.35,0.34-0.71,0.68-1.06,1.02l-0.53,0.51l-0.27,0.26l-0.13,0.13l-0.07,0.06l-0.03,0.03l-0.02,0.02l-0.01,0.01l0,0l0,0
			c-0.38,0.25,0.84-0.56-0.85,0.56c-0.32,0.75-0.67,1.53-1.05,2.33l-0.02,0.04c-0.01,0.01-0.02,0.03,0.01,0.02l0.11-0.05l0.23-0.1
			l0.46-0.19c0.31-0.13,0.61-0.26,0.92-0.39c0.62-0.26,1.24-0.52,1.86-0.79c-0.72,0.69-0.18,0.18-0.34,0.33l0.03-0.02l0.05-0.03
			l0.1-0.07l0.21-0.14l0.41-0.27l0.83-0.55l1.66-1.09c1.11-0.73,2.22-1.46,3.33-2.19c1.85-1.22,3.7-2.44,5.56-3.66
			c2.87-1.89,5.76-3.79,8.66-5.7c5.79-3.81,11.61-7.64,17.36-11.42c11.49-7.57,22.7-14.98,32.82-21.76l-2.04,1.23
			c4.46-2.97,7.59-5.05,10.07-6.7c0.11-0.07,0.22-0.14,0.32-0.21l0.16-0.1l0.08-0.05c0.02-0.02,0.01,0,0.01,0.02l-0.02,0.04
			c-0.09,0.23-0.17,0.46-0.26,0.68c-0.17,0.44-0.32,0.85-0.48,1.25c-0.41,1.07-0.79,2.07-1.18,3.07c-1.83,4.76-3.77,9.78-8.36,22.12
			l0.32-0.9c-1.76,4.97-4.19,11.57-6.74,18.31c2.23-6.26-4.61,11.63-1.66,3.42c-4.49,12.2-5.58,15.23-6.27,17.23
			c-0.34,1-0.59,1.74-1.1,3.25c-0.26,0.75-0.58,1.7-1.02,2.96c-0.22,0.63-0.47,1.34-0.75,2.15c-0.33,0.93-0.7,1.97-1.11,3.13
			l-2.15,5.2c-0.63,1.78-1.1,3.13-1.56,4.43c0.18-0.3,0.05-0.08,0.09-0.15l0,0l0,0l0,0.01l0,0.01l0,0.02l-0.01,0.04l-0.02,0.08
			l-0.04,0.17c-0.03,0.12-0.06,0.23-0.08,0.35c-0.06,0.25-0.13,0.5-0.2,0.77c-0.15,0.55-0.34,1.2-0.59,2.02
			c-0.27,0.85-0.58,1.85-0.97,3.08c0.75-1.14,1.64-2.49,2.72-4.13c-0.62,0.96-1.02,1.59-1.27,1.97c-0.12,0.19-0.21,0.32-0.25,0.4
			c-0.05,0.08-0.07,0.11-0.06,0.11c0.01,0,0.12-0.15,0.27-0.35c0.15-0.19,0.33-0.44,0.52-0.68c0.36-0.47,0.67-0.83,0.59-0.65
			c-0.08,0.17-0.55,0.89-1.66,2.3c0.87-1.06,1.66-1.95,2.39-2.76c-0.06,0.17-0.01,0.04-0.02,0.07l0.01-0.02l0.03-0.04l0.05-0.08
			l0.1-0.17l0.2-0.33l0.4-0.66c0.27-0.44,0.54-0.89,0.8-1.32c0.53-0.89,1.06-1.76,1.58-2.62c1.05-1.74,2.06-3.43,3.05-5.08
			c1.43-2.4,2.78-4.67,4.06-6.81c2.3-3.91,4.34-7.38,6.2-10.54c3.72-6.32,6.73-11.4,9.9-16.22c6.11-11.11-12.49,20.35-8.93,14.21
			c-3.18,5.02,5.07-9.15,9.56-16.56c2.27-3.78,4.32-6.92,7.23-11.49c1.45-2.29,3.12-4.93,5.14-8.19c1-1.64,2.09-3.42,3.3-5.39
			c1.17-1.94,2.45-4.07,3.86-6.4c-1.09,1.85-1.16,1.97-2.25,3.82c0.54-0.89,1.08-1.77,1.62-2.65c0.36-0.59,0.71-1.19,1.07-1.78
			c0.25-0.43,0.5-0.86,0.75-1.29l0.05-0.08l0.02-0.04c0.01-0.02,0.02-0.03,0.02-0.01l0.02,0.18l0.04,0.36
			c0.03,0.25,0.05,0.49,0.08,0.74c0.06,0.64,0.13,1.29,0.2,1.95c0.1,1.1,0.21,2.23,0.32,3.38c0.21,2.3,0.41,4.7,0.59,7.23
			c0.8,5.66,1.19,13.16,1.69,14.77L146,220.14c1.14,11.47,2.54,22.2,4.07,41.14c-0.21-1.47-0.81-7.09-1.22-10.95
			c0.4,5.54,1.04,10.64,1.46,16.39c-0.5-1.6-2.33-24.61-3.73-36.88c0.39,5.95,2.39,23.25,1.44,17.1c1.3,8.84,1.94,21.76,3.68,36.68
			l-0.3-0.97c0.13,1.18,0.32,3,0.54,5.06c0.25,2.47,0.53,5.23,0.79,7.84l-0.63-5.21l-0.5-3.93c0.13,1.2,0.25,2.38,0.38,3.56
			c0.15,1.56,0.31,3.1,0.46,4.64c0.35,3.74,0.7,7.44,1.05,11.11c-0.07,0.81-0.02,0.23-0.04,0.41l0,0l0,0l0,0.01l0.01,0.01l0.01,0.03
			l0.02,0.06l0.04,0.11l0.08,0.22l0.17,0.43c0.11,0.28,0.22,0.55,0.33,0.81c0.11,0.26,0.23,0.51,0.34,0.75l0.17,0.35l0.09,0.17
			l0.04,0.08c0.01,0.03,0.03,0.06,0.04,0.03c0.49-0.53,0.99-0.83,1.48-1.31l-0.06-0.72l0.05,0.58c-0.8,0.75-1.23,1.15-1.44,1.41
			c-0.05,0.13-0.09-0.04-0.12-0.09c-0.03-0.07-0.05-0.11-0.06-0.14c-0.02-0.06-0.01-0.06,0-0.03c0.04,0.06,0.11,0.27,0.1,0.21
			c-0.02-0.07-0.13-0.44-0.46-1.78c0.09,0.35,0.18,0.68,0.27,1.01c0.04,0.17,0.08,0.33,0.13,0.49l0.06,0.24l0.03,0.12l0.03-0.1
			c0.16-0.57,0.32-1.1,0.46-1.6c0.28-1.01,0.53-1.9,0.74-2.62c-0.13-1.49-0.04-0.42-0.06-0.76l0-0.02l0-0.03l0.01-0.06l0.01-0.12
			l0.02-0.24c0.01-0.16,0.03-0.31,0.04-0.47c0.03-0.31,0.06-0.61,0.08-0.91c0.06-0.59,0.11-1.16,0.16-1.71
			c0.11-1.1,0.21-2.12,0.3-3.07c0.2-1.95,0.37-3.62,0.53-5.17c0.07-0.62,0.14-1.21,0.2-1.79c0.06-0.49,0.12-0.98,0.18-1.46
			c0.12-0.97,0.23-1.95,0.36-3.03c0.49-4.16,1.1-9.85,2.21-22.55c-0.47,5.27-1.45,14.85-0.96,8.42c0.61-6.39,1.44-14.82,1.88-18.74
			c1.94-22.25-0.49,3.4,0.24-6.08c0.89-7.55,0.89-10.93,1.7-20.69l0.18-0.05c0.59-6.34,0.91-9.92,1.07-12.1
			c0.04-0.51,0.07-0.93,0.09-1.29c0.01-0.19,0.01-0.35,0.02-0.48c0.01-0.28,0.01-0.5,0-0.72c0-0.22,0-0.45,0.01-0.77
			c0-0.08,0.01-0.17,0.01-0.26l0-0.07l0-0.04l0.02,0.02c0.02,0.03,0.04,0.07,0.07,0.1c0.1,0.16,0.22,0.34,0.36,0.56
			c0.15,0.24,0.32,0.52,0.53,0.86c0.28,0.46,0.6,1,0.97,1.62c0.89,1.49,2.02,3.39,3.48,5.85l-2.59-4.09l-1.3-2.05
			c-0.53-0.85-0.62-0.97-0.83-1.28l5.74,9.44l-1.43-2.02c6.82,11.07,8.87,14.56,15.39,25.49c-1.43-2.59,1.09,1.29,6.9,10.95
			c3.89,6.64-2.33-3.62,5.91,10.07c-1.93-3.05-4.07-6.38-7.54-12.41c-0.41-0.59-1.91-3-2.33-3.61c4.18,7.15,10.71,17.84,13.69,22.8
			c-1.14-1.92-2.5-4.2-3.2-5.38l12.44,20.35c1.39,2.36,1.58,2.72,1.09,1.95c-0.47-0.77-1.56-2.53-2.64-4.28
			c0.84,1.39,1.63,2.69,2.4,3.96c0.41,0.68,0.82,1.36,1.24,2.04c0.21,0.34,0.41,0.68,0.62,1.02c0.1,0.17,0.21,0.34,0.31,0.51
			l0.16,0.26l0.08,0.13l0.04,0.07l0.02,0.03l0.01,0.02l0,0.01l0,0l0,0c-0.13-0.34,0.28,0.76-0.28-0.75c0.41,0.49,0.85,1.04,1.36,1.68
			c0.13,0.16,0.26,0.33,0.4,0.5l0.1,0.13l0.05,0.07c0.02,0.02,0.04,0.06,0.03,0.03c0-0.06,0.01-0.12,0.01-0.18
			c0.01-0.25,0.02-0.53,0.03-0.82c0.08,0.42,0.14,0.63,0.06,0.87c-0.02,0.06-0.05,0.11-0.1,0.16c-0.11-0.1-0.25-0.27-0.41-0.43
			c-0.32-0.33-0.73-0.74-1.26-1.24c0,0,0,0.01,0,0.01l0.84,0.82l0.43,0.43l0.22,0.22l0.11,0.11c0.03,0.03,0.08,0.1,0.09,0.07
			c0.29-0.14,0.55-0.33,0.77-0.59c-1.5-2.53-0.42-0.7-0.75-1.27l0,0l0-0.01l-0.01-0.01l-0.01-0.03l-0.02-0.05l-0.04-0.11l-0.08-0.22
			l-0.17-0.44l-0.33-0.87l-0.66-1.73l-1.3-3.43l-1.81-4.73c-0.48-1.39-3.9-10.64-2.85-7.97c-4.29-11.46-10.77-28.02-16.44-43.22
			c-0.31-0.78-0.92-2.36-2.15-5.58c-2.67-7.14-5.2-13.87-7.84-20.93c-0.2-0.54-0.4-1.08-0.61-1.62c-0.01-0.05-0.06-0.14-0.05-0.16
			l0.16,0.11l0.35,0.23c1.62,1.07,3.28,2.15,4.97,3.26c3.39,2.21,6.93,4.52,10.72,6.99l8.5,5.73c11.84,7.75-11.51-7.75,8.2,5.16
			c13.96,9.14,5.15,3.51,10.02,6.75c6.96,4.51,19.08,12.35,31.83,20.85c-4.24-2.79-7.56-4.97-11.53-7.57l9.72,6.47
			c-11.83-7.67-20.33-13.3-11.22-7.2c0.36,0.17,2.68,1.67,6.04,3.87c1.68,1.1,3.62,2.37,5.7,3.73c1.04,0.68,2.12,1.39,3.21,2.11
			c0.33,0.21,0.66,0.43,0.99,0.64c0.47,0.3,0.93,0.6,1.4,0.9c0.94,0.6,1.88,1.2,2.83,1.8c0.62,0.6,0.17,0.17,0.31,0.3h0h0h0l0,0
			l0.01,0l0.01,0l0.03,0l0.05,0l0.1,0l0.2-0.01c0.13-0.01,0.28,0,0.4-0.02l-0.08-0.41l-0.04-0.2l-0.02-0.1l-0.01-0.05l-0.01-0.03
			l0-0.01l0-0.01l0,0l0,0l0,0l0,0c-0.05-0.04,0.12,0.08-0.12-0.08c-1.46-1.41-2.9-2.8-4.3-4.16c-0.83-0.79-1.64-1.56-2.41-2.31
			c-1.55-1.48-2.98-2.84-4.21-4.01c-2.46-2.34-4.13-3.9-4.41-4.11l-5.53-5.36c1.59,1.52,1.85,1.77,3.43,3.28
			c-10.74-10.44-8.13-7.59-22.04-20.97c-4.84-4.67-8.21-7.94-4.88-4.78l-10.85-10.33c-2.6-2.5-2.5-2.44-0.62-0.65l-15.01-14.38
			l0.06,0.05c-0.14-0.12-0.29-0.27-0.47-0.43c-0.05-0.04-0.09-0.09-0.14-0.13c-0.05-0.03,0.01-0.02,0.03-0.02l0.09,0.01
			c0.13,0.01,0.26,0.03,0.39,0.05c1.09,0.14,2.29,0.29,3.51,0.44c2.68,0.34,5.41,0.69,7.2,0.92c5.75,0.81-2.89-0.37-1.42-0.14
			l12.55,1.64c5.1,0.75-5.3-0.6-13.96-1.78c11.68,1.81,10.41,1.35,35.66,4.91l-11.84-1.58c7.61,1.17,16.86,2.38,30.23,4.29
			c-3.17-0.48-26.77-3.86-13.15-2.07c3.83,0.54,8.89,1.23,16.23,2.18c0.01,0.02,0.47,0.1,1.29,0.22c0.82,0.12,2,0.28,3.46,0.49
			c2.92,0.4,6.96,0.94,11.44,1.55l-0.63,0.04c4.31,0.57,6.55,0.85,8.25,1.06c1.26,0.16,2.32,0.29,3.45,0.43
			c0.61,0.08,1.23,0.15,1.92,0.24c0.34,0.04,0.68,0.09,1.05,0.13c0.18,0.02,0.37,0.05,0.56,0.07c0.1,0.01,0.19,0.02,0.29,0.04
			l0.15,0.02l0.07,0.01l0.04,0l0.02,0l0.01,0l0,0c0.3,0.1-0.66-0.21,0.67,0.21c0.03-0.04,0.15-0.11,0.31-0.18
			c0.23-0.07,0.45-0.13,0.65-0.19l0.15-0.05l0.07-0.02c0-0.01-0.05-0.04-0.07-0.05C291.25,200.01,291.14,199.94,291.04,199.87z
			M212.82,44.56L212.82,44.56c-0.04,0.11-0.02,0.04,0.02-0.05C212.83,44.52,212.83,44.54,212.82,44.56L212.82,44.56z M285.74,138.29
			l0.3-0.1h0h0l0,0l0.01,0l0.01,0l0.02,0l0.04,0l0.09,0l0.18-0.01c0.12-0.01,0.24-0.01,0.36-0.02c0.24-0.01,0.49-0.02,0.75-0.04
			c0.52-0.03,1.06-0.06,1.62-0.09c-0.53,0.04-1.08,0.09-1.65,0.13c-0.28,0.02-0.57,0.04-0.86,0.07c-0.14,0.01-0.29,0.02-0.44,0.03
			l-0.22,0.02l-0.11,0.01l-0.06,0l-0.03,0L285.74,138.29L285.74,138.29l-0.01,0h0h0l-0.25,0.08c-2.34,0.29-4.87,0.6-7.56,0.93
			C279.91,139.01,282.69,138.66,285.74,138.29z M181.17,135.82c0-0.01,0.01-0.02,0.01-0.03C181.17,135.8,181.17,135.81,181.17,135.82
			z M229.15,192.16c3.83,0.42,6.78,0.87,12.49,1.67C238.28,193.39,231.59,192.54,229.15,192.16z"/>
		<path class="st5" d="M201,122.22c-0.14,0.09-0.3,0.19-0.47,0.3C200.69,122.41,200.84,122.32,201,122.22z"/>
		<path class="st5" d="M156.19,306.62L156.19,306.62l0-0.02l0-0.02l0-0.04l0.01-0.09l0.02-0.18l0.03-0.35l0.06-0.7l0.12-1.41
			c0.08-0.94,0.16-1.89,0.24-2.83c-0.1,1.16-0.2,2.27-0.29,3.22c-0.04,0.48-0.08,0.91-0.12,1.3c-0.02,0.19-0.03,0.38-0.05,0.54
			c-0.01,0.08-0.01,0.16-0.02,0.24c0,0.04-0.01,0.08-0.01,0.11l0,0.05l0,0.03l0,0.01l0,0.01l0,0l0,0L156.19,306.62L156.19,306.62
			L156.19,306.62z"/>
		<path class="st5" d="M45.51,255.43c0.13-0.38,0.28-0.77,0.45-1.18c1.55-1.03,0.82-0.54,0.83-0.55c-0.11,0.07-0.38,0.25-0.95,0.63
			C45.72,254.83,45.59,255.22,45.51,255.43z"/>
		<path class="st5" d="M46.79,253.69c0.02-0.01,0.03-0.02,0.03-0.02C46.8,253.68,46.79,253.69,46.79,253.69z"/>
		<path class="st5" d="M276.13,143.44c-0.92,0.27-1.18,0.32-1.4,0.36C273.47,144.23,273.45,144.27,276.13,143.44z"/>
		<path class="st5" d="M191.78,230.09c0.06,0.17,0.12,0.33,0.19,0.5c0.11,0.27,0.17,0.41,0.21,0.49L191.78,230.09z"/>
		<path class="st5" d="M162.94,106.41c0.25,3.21,0.37,5.01,0.43,6.21C163.45,112.78,163.37,111.32,162.94,106.41z"/>
		<polygon class="st5" points="106.22,75.43 110.12,85.98 108.99,82.86 	"/>
		<path class="st5" d="M137.35,114.11l-3.08-4.9c1.66,2.87,1.72,3.09,2.61,4.74L137.35,114.11z"/>
		<path class="st5" d="M146.27,116.34c0.02-1.22,1.35-17.74-0.03-2.27C146.22,115.32,145.18,127.55,146.27,116.34z"/>
		<path class="st5" d="M196.39,97.92c5.23-13.55,0.91-3.34,5.68-15.57c1.08-3.24-3.89,10-2.76,6.69
			C196.35,97.29,194.66,101.57,196.39,97.92z"/>
		<path class="st5" d="M199.31,89.03c0.47-1.32,0.97-2.73,1.5-4.22C199.95,87.2,199.55,88.33,199.31,89.03z"/>
		<path class="st5" d="M267.31,197.56l0.71,0.07c-1.43-0.23-3.59-0.53-7.94-1.12L267.31,197.56z"/>
		<polygon class="st5" points="229.55,222.53 228.25,221.15 226.68,219.64 	"/>
		<path class="st5" d="M227.3,232.68c0.49,0.32,0.99,0.65,1.5,0.99C228.31,233.35,227.81,233.02,227.3,232.68z"/>
		<path class="st5" d="M217.26,226.1c3.14,2.06,6.76,4.43,10.04,6.58C220.32,228.09,216.41,225.4,217.26,226.1z"/>
	</g>
</svg>
