<?xml version="1.0" encoding="utf-8"?>
<!-- Generator: Adobe Illustrator 24.2.0, SVG Export Plug-In . SVG Version: 6.00 Build 0)  -->
<svg version="1.1" id="Layer_1" xmlns="http://www.w3.org/2000/svg" xmlns:xlink="http://www.w3.org/1999/xlink" x="0px" y="0px"
	 viewBox="0 0 500 402" style="enable-background:new 0 0 500 402;" xml:space="preserve">
<style type="text/css">
	.st0{fill:#863399;}
	.st1{fill:#FFC844;}
	.st2{fill:#6CCA98;}
	.st3{fill:#E74F3D;}
	.st4{fill:#A9E0C0;}
	.st5{fill:#E64783;}
	.st6{fill:#1C355E;}
	.st7{fill:#F697B2;}
	.st8{fill:#FFDD92;}
	.st9{fill-rule:evenodd;clip-rule:evenodd;fill:#863399;}
	.st10{fill:#B884C1;}
	.st11{fill-rule:evenodd;clip-rule:evenodd;fill:#E64783;}
	.st12{fill:none;stroke:#000000;stroke-width:0.25;stroke-miterlimit:10;}
	.st13{clip-path:url(#SVGID_2_);}
	.st14{fill:#7F3F98;}
	.st15{fill:#FFFFFF;}
	.st16{fill:#FA9A86;}
	.st17{fill:#B984BA;}
	.st18{fill:#F79A87;}
	.st19{fill:#1C365E;}
	.st20{fill:#71C597;}
	.st21{fill:#757F9B;}
	.st22{fill:#FFC944;}
	.st23{fill:#853795;}
	.st24{clip-path:url(#SVGID_4_);}
	.st25{clip-path:url(#SVGID_6_);}
	.st26{fill:#F1F2F2;}
	.st27{clip-path:url(#SVGID_8_);}
	.st28{clip-path:url(#SVGID_10_);}
	.st29{clip-path:url(#SVGID_12_);}
	.st30{clip-path:url(#SVGID_14_);}
	.st31{clip-path:url(#SVGID_16_);}
	.st32{clip-path:url(#SVGID_18_);}
	.st33{clip-path:url(#SVGID_20_);}
	.st34{clip-path:url(#SVGID_22_);}
	.st35{clip-path:url(#SVGID_24_);}
	.st36{clip-path:url(#SVGID_26_);}
	.st37{clip-path:url(#SVGID_28_);}
	.st38{clip-path:url(#SVGID_30_);}
	.st39{clip-path:url(#SVGID_32_);}
	.st40{clip-path:url(#SVGID_34_);}
	.st41{clip-path:url(#SVGID_36_);}
	.st42{clip-path:url(#SVGID_38_);}
	.st43{clip-path:url(#SVGID_40_);}
	.st44{clip-path:url(#SVGID_42_);}
	.st45{clip-path:url(#SVGID_44_);}
	.st46{clip-path:url(#SVGID_46_);}
	.st47{clip-path:url(#SVGID_48_);}
	.st48{clip-path:url(#SVGID_50_);}
	.st49{clip-path:url(#SVGID_52_);}
	.st50{clip-path:url(#SVGID_54_);}
	.st51{clip-path:url(#SVGID_56_);}
	.st52{clip-path:url(#SVGID_58_);}
	.st53{clip-path:url(#SVGID_60_);}
	.st54{clip-path:url(#SVGID_62_);}
	.st55{clip-path:url(#SVGID_64_);}
	.st56{clip-path:url(#SVGID_66_);}
	.st57{clip-path:url(#SVGID_68_);}
	.st58{clip-path:url(#SVGID_70_);}
	.st59{clip-path:url(#SVGID_72_);}
	.st60{clip-path:url(#SVGID_74_);}
	.st61{clip-path:url(#SVGID_76_);}
	.st62{clip-path:url(#SVGID_78_);}
	.st63{clip-path:url(#SVGID_80_);}
	.st64{clip-path:url(#SVGID_82_);}
	.st65{clip-path:url(#SVGID_84_);}
	.st66{clip-path:url(#SVGID_86_);}
	.st67{clip-path:url(#SVGID_88_);}
	.st68{clip-path:url(#SVGID_90_);}
	.st69{clip-path:url(#SVGID_92_);}
	.st70{clip-path:url(#SVGID_94_);}
	.st71{clip-path:url(#SVGID_96_);}
	.st72{clip-path:url(#SVGID_98_);}
	.st73{clip-path:url(#SVGID_100_);}
	.st74{clip-path:url(#SVGID_102_);}
	.st75{clip-path:url(#SVGID_104_);}
	.st76{clip-path:url(#SVGID_106_);}
	.st77{clip-path:url(#SVGID_108_);}
	.st78{clip-path:url(#SVGID_110_);}
	.st79{clip-path:url(#SVGID_112_);}
	.st80{clip-path:url(#SVGID_114_);}
	.st81{clip-path:url(#SVGID_116_);}
	.st82{clip-path:url(#SVGID_118_);}
	.st83{clip-path:url(#SVGID_120_);}
	.st84{clip-path:url(#SVGID_122_);}
	.st85{clip-path:url(#SVGID_124_);}
	.st86{clip-path:url(#SVGID_126_);}
	.st87{clip-path:url(#SVGID_128_);}
	.st88{clip-path:url(#SVGID_130_);}
	.st89{clip-path:url(#SVGID_132_);}
	.st90{clip-path:url(#SVGID_134_);}
	.st91{clip-path:url(#SVGID_136_);}
	.st92{clip-path:url(#SVGID_138_);}
	.st93{clip-path:url(#SVGID_140_);}
	.st94{clip-path:url(#SVGID_142_);}
	.st95{clip-path:url(#SVGID_144_);}
	.st96{clip-path:url(#SVGID_146_);}
	.st97{clip-path:url(#SVGID_148_);}
	.st98{fill:url(#);}
	.st99{clip-path:url(#SVGID_150_);}
	.st100{clip-path:url(#SVGID_152_);}
	.st101{clip-path:url(#SVGID_154_);}
	.st102{clip-path:url(#SVGID_156_);}
	.st103{clip-path:url(#SVGID_158_);}
	.st104{clip-path:url(#SVGID_160_);}
	.st105{clip-path:url(#SVGID_162_);}
	.st106{clip-path:url(#SVGID_164_);}
	.st107{clip-path:url(#SVGID_166_);}
	.st108{clip-path:url(#SVGID_168_);}
	.st109{clip-path:url(#SVGID_170_);}
	.st110{clip-path:url(#SVGID_172_);}
	.st111{clip-path:url(#SVGID_174_);}
	.st112{clip-path:url(#SVGID_176_);}
	.st113{clip-path:url(#SVGID_178_);}
	.st114{clip-path:url(#SVGID_180_);}
	.st115{clip-path:url(#SVGID_182_);}
	.st116{clip-path:url(#SVGID_184_);}
	.st117{clip-path:url(#SVGID_186_);}
	.st118{clip-path:url(#SVGID_188_);}
	.st119{clip-path:url(#SVGID_190_);}
	.st120{clip-path:url(#SVGID_192_);}
	.st121{clip-path:url(#SVGID_194_);}
	.st122{clip-path:url(#SVGID_196_);}
	.st123{clip-path:url(#SVGID_198_);}
	.st124{clip-path:url(#SVGID_200_);}
	.st125{clip-path:url(#SVGID_202_);}
	.st126{clip-path:url(#SVGID_204_);}
	.st127{clip-path:url(#SVGID_206_);}
	.st128{clip-path:url(#SVGID_208_);}
	.st129{clip-path:url(#SVGID_210_);}
	.st130{clip-path:url(#SVGID_212_);}
	.st131{clip-path:url(#SVGID_214_);}
	.st132{clip-path:url(#SVGID_216_);}
	.st133{clip-path:url(#SVGID_218_);}
	.st134{clip-path:url(#SVGID_220_);}
	.st135{clip-path:url(#SVGID_222_);}
	.st136{clip-path:url(#SVGID_224_);}
	.st137{clip-path:url(#SVGID_226_);}
</style>
<path class="st10" d="M10.5,218.7C30,117.4,427.5-15.1,482.1,39.4c33.2,33.2-70.2,124.8-70.2,179.3s69.4,101.8,24.6,146.7
	C374.8,427.1-9.3,322,10.5,218.7z"/>
<path class="st8" d="M127.9,268.7L120,274c-4.9,3-8.6,10.6-9.4,16.2l-1.1,7.5l-4.4-6.9c-3.6-5.6-9.5-9.3-16.1-10.1l-7.7-0.8l8.3-5.7
	c4.4-3,7.3-7.7,8.1-13l1.4-9.6l5.8,7.6c3.2,4.1,5.2,6.9,13.3,8L127.9,268.7z"/>
<path class="st8" d="M360.8,114.4l-5.9,1.7c-3.7,0.9-7.5,4.9-9.1,8.3l-2.2,4.5l-1.4-5.2c-1.1-4.2-4.1-7.7-8.1-9.5l-4.7-2.1l6.3-1.9
	c3.3-1,6.1-3.3,7.6-6.5l2.8-5.7l2.1,5.9c1.2,3.2,1.9,5.3,6.7,7.7L360.8,114.4z"/>
<path class="st1" d="M344.9,348.7l-5.9,1.7c-3.7,0.9-7.5,4.9-9.1,8.3l-2.2,4.5l-1.3-5.2c-1.1-4.2-4.1-7.7-8.1-9.5l-4.7-2.1l6.3-1.9
	c3.3-1,6.1-3.3,7.6-6.5l2.8-5.7l2.1,5.9c1.2,3.2,1.9,5.3,6.7,7.7L344.9,348.7z"/>
<path class="st8" d="M479.6,55.2l-4.7,1.4c-2.9,0.7-6,3.9-7.3,6.6l-1.7,3.6l-1.1-4.1c-0.9-3.4-3.2-6.2-6.4-7.6l-3.7-1.6l5-1.5
	c2.7-0.8,4.9-2.7,6.1-5.2l2.2-4.6l1.7,4.7c0.9,2.6,1.5,4.3,5.3,6.1L479.6,55.2z"/>
<path class="st1" d="M450.5,89l-15.1,2.6c-9.3,1.2-19.8,10-24.8,18l-6.6,10.5l-1.9-13.2c-1.6-10.8-8-20.2-17.4-25.7l-10.9-6.4
	L390,72c8.5-1.5,16.1-6.6,20.7-14l8.4-13.4l3.6,15.2c2,8.2,3.1,13.7,14.5,20.8L450.5,89z"/>
<g>
	<polygon class="st0" points="151.4,319.1 167.6,234.8 346,230.4 327.2,318.5 	"/>
</g>
<g>
	<path class="st8" d="M195.4,314c-4.7,0-8.4-1.7-8.4-8.3v-63h6.2v64.9c0,0.5,0.2,2.4,2.2,2.4c1.7,0,2.3-1.4,2.3-2.4v-65.8h6.2v63.9
		C203.9,312,199.8,314,195.4,314z"/>
	<path class="st8" d="M217.7,290.6h-2.9v20.7h-6.2v-72.2h7.8c6.2,0,9.1,1.7,9.1,8.3v34.6C225.5,288.6,222.7,290.6,217.7,290.6z
		 M216.6,243.1h-1.8v43.2h1.4c1.4,0,3.1-0.8,3.1-3v-37.5C219.3,244.3,218.4,243.1,216.6,243.1z"/>
	<path class="st8" d="M237.6,312.2h-7.8v-69.5h7.8c5.8,0,9.1,2,9.1,7.8v53.3C246.7,310.5,243.6,312.2,237.6,312.2z M237.8,246.7H236
		V308h1.8c1.6,0,2.7-1.2,2.7-2.7v-55.9C240.5,247.9,239.6,246.7,237.8,246.7z"/>
	<path class="st8" d="M262.1,291.5h-4.5V314h-6.2v-66.1c0-6.5,3.7-8.2,8.4-8.2c4.4,0,8.6,2.1,8.6,8.2v63.4h-6.2V291.5z M259.8,243.7
		c-1.9,0-2.3,1.6-2.3,2.4v41.1h4.5v-41.1C262.1,245.3,261.7,243.7,259.8,243.7z"/>
	<path class="st8" d="M279.9,310.4h-6.2v-66h-3.6V240h13.4v4.4h-3.6V310.4z"/>
	<path class="st8" d="M286.4,240.9h11.7v4.4h-5.5v41.1h5.5v4.3h-5.5v18.1h5.5v4.4h-11.7V240.9z"/>
	<path class="st8" d="M306.6,304.2c2.6,0,4.8,1.4,4.8,3.8c0,2.5-2.2,3.9-4.8,3.9c-2.6,0-4.8-1.4-4.8-3.9
		C301.8,305.5,304,304.2,306.6,304.2z M304.6,299.9l-1.4-60.8h7.1l-1.4,60.8H304.6z"/>
</g>
<g>
	<path class="st0" d="M104.6,207.1c0.1,1.7-0.3,3.6-1.1,5.7c-0.8,2.1-2.1,4.2-3.9,6.2c-1.8,2-4.2,3.6-7.1,5
		c-2.9,1.4-6.5,2.2-10.7,2.3c-2.8,0.1-5.6-0.4-8.4-1.6c-2.8-1.1-5.3-3-7.6-5.6c-2.3-2.6-4.1-5.9-5.6-10c-1.5-4.1-2.3-9.1-2.4-14.9
		c-0.1-4.7,0.4-9.2,1.5-13.4c1.2-4.2,2.8-7.8,4.9-10.9c2.1-3.1,4.6-5.6,7.5-7.4c2.9-1.8,6-2.8,9.2-2.9c2.1-0.1,4.1,0.2,5.8,0.8
		c1.7,0.6,3.3,1.4,4.5,2.4c1.3,1,2.3,2.1,3.2,3.2c0.8,1.2,1.5,2.3,1.9,3.4c-0.2-2.7-0.4-4.5-0.4-5.3c-0.1-0.8-0.1-1.3-0.1-1.4
		c0-0.7,0.1-1.4,0.5-2c0.3-0.6,1.1-0.9,2.4-0.9c0.8,0,1.5,0.1,2,0.3c0.5,0.2,0.9,0.6,1.1,0.9c0.2,0.4,0.4,0.7,0.4,1.1
		c0.1,0.4,0.1,0.7,0.1,0.9c0.1,1.8,0.1,3.8,0,6c0,2.1,0,4.2,0,6c0.1,1.7,0.1,3.2,0.2,4.7c0.1,1.5,0.2,3.1,0.2,4.7
		c0,1.3-0.2,2.2-0.6,2.8c-0.5,0.6-1.3,1-2.6,1c-1.3,0-2.2-0.2-2.8-0.7c-0.6-0.5-1-1.8-1.1-3.8c-0.1-2.2-0.5-4.5-1.1-6.7
		c-0.6-2.2-1.5-4.2-2.6-5.8c-1.2-1.7-2.7-3-4.4-4.1c-1.8-1-3.9-1.5-6.4-1.4c-2.5,0.1-4.7,0.9-6.7,2.5c-2,1.6-3.7,3.7-5.1,6.3
		c-1.4,2.6-2.5,5.6-3.2,9c-0.7,3.4-1,6.8-0.9,10.5c0.1,3.6,0.5,7,1.3,10.2c0.8,3.2,1.9,6,3.3,8.3c1.4,2.4,3.1,4.2,5.2,5.6
		c2.1,1.3,4.5,2,7.2,1.9c2.2-0.1,4.2-0.3,5.9-0.8c1.7-0.4,3.2-1.1,4.5-2c1.3-0.9,2.4-2.1,3.3-3.5c0.9-1.4,1.7-3.2,2.3-5.2
		c0.4-1.5,0.9-2.5,1.3-2.9c0.5-0.5,1.2-0.7,2.2-0.8C103.6,204.7,104.6,205.4,104.6,207.1z"/>
	<path class="st0" d="M109.4,193c0-2.7,0.1-5.4,0.5-8.1c0.4-2.7,1-5.3,1.9-7.9s2-4.9,3.4-7.1c1.4-2.2,3.1-4.2,5-5.8
		c1.9-1.7,4.2-3,6.7-4c2.5-1,5.4-1.5,8.5-1.6c4.2-0.1,7.8,0.8,10.9,2.5c3.1,1.7,5.7,4.1,7.8,7.2c2.1,3,3.7,6.6,4.7,10.7
		c1.1,4.1,1.6,8.4,1.7,12.9c0.1,6.4-0.6,11.7-2.2,16s-3.7,7.7-6.2,10.3c-2.5,2.6-5.3,4.5-8.4,5.6c-3.1,1.1-6,1.7-8.8,1.8
		c-3.6,0.1-6.9-0.5-9.9-1.8c-3.1-1.2-5.8-3.2-8.1-5.8c-2.3-2.6-4.1-6-5.5-10.1C110.2,203.7,109.5,198.8,109.4,193z M117,193.2
		c0.1,4,0.6,7.7,1.5,10.9c0.9,3.2,2.2,6,3.9,8.3c1.6,2.3,3.5,4,5.7,5.2c2.2,1.2,4.6,1.8,7.1,1.7c5.8-0.1,10.4-2.5,13.5-7.1
		c3.2-4.6,4.7-11.4,4.5-20.4c-0.1-3.8-0.5-7.4-1.3-10.7c-0.8-3.3-1.9-6.2-3.4-8.7c-1.5-2.5-3.2-4.4-5.3-5.8c-2.1-1.4-4.5-2.1-7.2-2
		c-3.2,0.1-6,0.9-8.4,2.5c-2.4,1.6-4.4,3.7-6,6.4c-1.6,2.6-2.8,5.7-3.6,9.1C117.3,185.9,116.9,189.5,117,193.2z"/>
	<path class="st0" d="M189.5,213.5c0-0.1,0.2-0.7,0.5-1.9c0.3-1.2,0.8-2.7,1.3-4.6c0.5-1.9,1.2-4,1.9-6.5c0.7-2.4,1.4-4.9,2.1-7.5
		c0.7-2.6,1.4-5.2,2.1-7.7c0.7-2.5,1.3-4.8,1.8-7c0.5-2.1,1-3.9,1.3-5.5c0.3-1.5,0.5-2.5,0.5-3.1c0-0.5-0.3-0.8-0.8-1
		c-0.6-0.1-1.6-0.2-3.1-0.2c-1.4,0-2.3-0.3-2.9-0.7c-0.6-0.4-0.8-1.1-0.9-2.1c0-1.8,1.3-2.8,4-2.8l20.6-0.3c1.2,0,2,0.1,2.5,0.4
		c0.4,0.3,0.7,0.9,0.7,1.9c0,0.9-0.3,1.5-0.9,1.7c-0.6,0.2-1.3,0.4-2,0.5c-0.4,0-0.9,0-1.6,0.1c-0.6,0.1-1.3,0.1-1.9,0.2
		c-0.6,0.1-1.2,0.1-1.7,0.2c-0.5,0.1-0.8,0.1-1.1,0.1c-1.1,0.1-2,0.4-2.5,0.9c-0.5,0.5-0.9,1.2-1.3,2.1c-0.7,2.3-1.6,4.9-2.5,7.9
		c-0.9,3-1.8,6.2-2.8,9.5c-0.9,3.3-1.9,6.7-2.8,10.2c-0.9,3.5-1.8,6.8-2.7,10c-0.8,3.2-1.6,6.1-2.4,8.8c-0.7,2.7-1.4,4.9-1.8,6.7
		c-0.1,0.4-0.4,0.9-0.9,1.5c-0.5,0.6-1.4,0.8-2.6,0.9c-1,0-1.9-0.2-2.5-0.6c-0.6-0.4-1-1-1.2-1.6l-16.9-57.2c-0.3-1-0.8-1.7-1.5-2.1
		c-0.7-0.3-1.6-0.5-2.8-0.5c-0.4,0-0.9,0-1.4-0.1c-0.5-0.1-1-0.2-1.4-0.4c-0.4-0.2-0.8-0.4-1.1-0.8c-0.3-0.3-0.4-0.8-0.5-1.3
		c0-0.8,0.3-1.4,1-1.7c0.7-0.3,1.8-0.5,3.2-0.5l16.3-0.3c1,0,1.8,0.1,2.3,0.4c0.5,0.3,0.7,0.8,0.7,1.7c0,1-0.4,1.8-1.1,2.1
		c-0.8,0.4-1.6,0.7-2.6,0.9c-0.9,0.2-1.8,0.4-2.6,0.6c-0.8,0.2-1.2,0.7-1.2,1.4c0,0.4,0.2,1.4,0.6,3c0.4,1.6,0.9,3.5,1.5,5.8
		c0.6,2.3,1.3,4.8,2,7.6c0.8,2.8,1.5,5.6,2.3,8.4c0.8,2.8,1.6,5.6,2.4,8.2c0.8,2.7,1.5,5.1,2.1,7.2c0.6,2.1,1.1,3.8,1.5,5.1
		C189.3,212.8,189.5,213.5,189.5,213.5z"/>
	<path class="st0" d="M238.2,212l6.7-0.1c1,0,1.7,0.2,2.1,0.7c0.4,0.5,0.6,1.2,0.6,2.1c0,1.5-1.2,2.3-3.7,2.3l-17.9,0.3
		c-0.8,0-1.5-0.1-2-0.4c-0.5-0.3-0.7-0.9-0.7-1.9c0-0.9,0.2-1.6,0.8-2c0.5-0.5,1.1-0.7,1.7-0.8c1.9-0.2,3.2-0.5,3.9-1
		c0.7-0.5,1.1-1.5,1.1-2.9c-0.1-3.9-0.1-7.6,0-11.1c0-3.5,0-7.4,0-11.5c-0.1-4.2-0.2-8.3-0.4-12.4c-0.2-4.1-0.3-8.2-0.4-12.4
		c0-0.9-0.4-1.5-1-1.9c-0.7-0.4-2-0.6-3.9-0.7c-1.4-0.1-2.3-0.3-2.9-0.7c-0.6-0.4-0.8-1.1-0.9-2.1c0-1.1,0.4-1.8,1.1-2.1
		c0.8-0.3,1.6-0.5,2.5-0.5l16.1-0.3c1.7,0,2.8,0.2,3.3,0.5c0.5,0.4,0.8,1,0.8,1.8c0,0.8-0.2,1.4-0.7,1.9c-0.5,0.5-1.4,0.8-2.9,1.1
		c-1.1,0.2-2.1,0.4-2.9,0.8c-0.8,0.3-1.2,1-1.2,2L238.2,212z"/>
	<path class="st0" d="M251.5,160.4c0-0.9,0.2-1.7,0.7-2.3c0.5-0.6,1.1-0.9,2-1c2.6-0.1,5.4-0.3,8.3-0.3c2.9-0.1,6-0.1,9.2-0.2
		c3.3-0.1,6.7,0.4,10.3,1.4c3.6,1,6.8,2.6,9.8,4.9c3,2.3,5.4,5.3,7.4,9.1c1.9,3.8,3,8.4,3.1,14c0.1,4.7-0.5,9.2-1.7,13.3
		c-1.2,4.2-3.1,7.9-5.6,11c-2.5,3.2-5.7,5.7-9.5,7.6c-3.8,1.9-8.3,2.9-13.4,3l-16.5,0.3c-1.9,0-2.9-0.8-2.9-2.4c0-1.2,0.3-2,0.8-2.5
		c0.6-0.5,1.4-0.7,2.4-0.9c1.5-0.1,2.5-0.3,3.2-0.6c0.7-0.3,1-0.7,1-1.4c0-2.8-0.1-5.1-0.1-6.9c0-1.8,0-3.6-0.1-5.4
		c0-1.8,0-3.7-0.1-5.9c0-2.2-0.1-5-0.1-8.4c0-0.9-0.1-2.3-0.1-4.1c-0.1-1.8-0.2-3.7-0.3-5.7s-0.2-4-0.3-5.9
		c-0.1-1.9-0.1-3.5-0.2-4.7c0-1.4-0.5-2.2-1.3-2.6c-0.8-0.4-1.8-0.6-3-0.6C252.6,163.4,251.6,162.4,251.5,160.4z M271.3,163.1
		c-0.8,0-1.6,0.1-2.4,0.2c-0.8,0.1-1.6,0.2-2.4,0.2l0.8,50.3c0,0.2,0.2,0.4,0.5,0.5c0.3,0.1,0.7,0.2,1.2,0.2c0.5,0,1,0.1,1.6,0.1
		c0.6,0,1.1,0,1.6,0c4-0.1,7.5-0.8,10.3-2.3c2.9-1.5,5.2-3.5,7-6c1.8-2.5,3.1-5.5,4-9c0.8-3.4,1.2-7.1,1.1-11.1
		c-0.1-3.2-0.5-6.2-1.5-9c-0.9-2.8-2.4-5.3-4.3-7.4c-1.9-2.1-4.3-3.8-7.3-4.9C278.8,163.5,275.3,163,271.3,163.1z"/>
	<path class="st0" d="M329.8,187c0.5,0,1,0.3,1.5,0.8c0.5,0.6,0.7,1.2,0.7,2c0,0.3,0,0.6-0.1,1c-0.1,0.4-0.2,0.8-0.4,1.1
		c-0.2,0.3-0.5,0.6-0.8,0.9c-0.4,0.2-0.8,0.4-1.4,0.4c-1,0-2.4,0-4,0.1c-1.6,0-3.2,0.1-4.9,0.1c-1.7,0.1-3.3,0.1-4.8,0.1
		c-1.5,0-2.7,0-3.7,0.1c-0.7,0-1.4-0.3-1.9-1c-0.5-0.7-0.8-1.4-0.8-2.1c0-0.7,0.2-1.4,0.6-2.1c0.4-0.7,1.1-1,1.9-1
		c0.4,0,0.9,0,1.5,0c0.6,0,1.3,0,2,0c0.7,0,1.5,0,2.2,0c0.8,0,1.5,0,2.2,0c2.2,0,4.1-0.1,5.7-0.2C327.1,187.1,328.5,187,329.8,187z"
		/>
	<path class="st0" d="M356.4,215.6l5.5-0.1c0.7,0,1.4,0.1,2.1,0.5c0.7,0.3,1,1,1,2.1c0,0.7-0.2,1.3-0.6,1.7
		c-0.4,0.4-0.9,0.6-1.5,0.6l-18.4,0.3c-1.3,0-2.4-0.1-3.3-0.2c-0.9-0.2-1.3-0.7-1.4-1.7c0-1,0.2-1.7,0.8-2.1
		c0.5-0.4,1.5-0.7,2.8-0.7c0.5,0,1-0.1,1.6-0.1c0.6-0.1,1.2-0.3,1.7-0.5c0.5-0.3,1-0.6,1.4-1.1c0.4-0.5,0.6-1.1,0.7-1.9
		c0.1-1.8,0.2-4,0.3-6.6c0.1-2.6,0.1-5.3,0.1-8c0-2.7,0-5.2,0-7.6c0-2.4,0-4.1-0.1-5.3c0-2,0-3.6,0-4.9c0-1.3,0-2.4,0-3.3
		c0-0.9,0-1.7,0-2.4c0-0.7,0-1.5,0-2.4c0-0.9,0-1.9,0-3.1c0-1.2,0-2.8-0.1-4.7c0-0.9-0.1-1.6-0.3-2c-0.2-0.4-0.7-0.6-1.4-0.6
		c-0.2,0-0.5,0-0.9,0c-0.4,0-0.9,0-1.4,0.1c-0.5,0-1,0.1-1.5,0.1c-0.5,0-0.9,0-1.1,0c-0.9,0-1.8-0.1-2.5-0.4
		c-0.7-0.3-1.1-0.9-1.1-1.8c0-1,0.3-1.7,1-2c0.7-0.4,1.5-0.6,2.4-0.6c0.4,0,1.2,0,2.5-0.1c1.2,0,2.5-0.1,3.9-0.1
		c1.4,0,2.7-0.1,3.9-0.1c1.2,0,2-0.1,2.4-0.1c0.5,0,0.9,0.1,1.2,0.4c0.3,0.3,0.4,0.9,0.4,1.8L356.4,215.6z"/>
	<path class="st0" d="M383.6,215.6c-0.8,0.6-1.5,1.1-2.3,1.5c-0.8,0.4-1.6,0.6-2.7,0.6c-0.7,0-1.4-0.1-2-0.4
		c-0.6-0.3-0.9-0.9-0.9-1.9c0-0.6,0.1-1.2,0.4-1.6c0.3-0.4,0.7-0.9,1.5-1.5c2.3-1.6,4.5-3.5,6.4-5.7c1.9-2.2,3.7-4.6,5.2-7.1
		c1.5-2.5,2.8-5.1,3.9-7.7c1.1-2.6,1.9-5.1,2.5-7.5c-2,2-4.1,3.3-6.5,3.9c-2.4,0.6-5.1,1-8.2,1c-2.3,0-4.4-0.4-6.4-1.3
		c-2-0.9-3.8-2.1-5.3-3.8c-1.5-1.6-2.8-3.6-3.7-5.9c-0.9-2.3-1.4-4.9-1.4-7.7c0-2.2,0.3-4.5,1-6.8c0.7-2.3,1.8-4.5,3.4-6.4
		c1.6-1.9,3.7-3.5,6.3-4.7c2.6-1.2,5.8-1.9,9.6-2c4.2-0.1,7.5,0.6,10.1,2c2.6,1.4,4.5,3.2,5.9,5.2c1.4,2,2.3,4.2,2.7,6.5
		c0.5,2.3,0.7,4.2,0.7,5.7c0,2.7-0.1,5.3-0.5,7.9c-0.4,2.6-0.9,5.2-1.5,7.6c-0.6,2.5-1.3,4.8-2.2,7c-0.9,2.2-1.7,4.1-2.6,5.9
		c-2.4,4.6-4.7,8.2-7.1,10.9C387.5,212,385.4,214.1,383.6,215.6z M384.1,156.7c-4.2,0.1-7.5,1.2-9.9,3.5c-2.3,2.2-3.5,5.8-3.4,10.6
		c0,1.7,0.4,3.2,1,4.7c0.6,1.5,1.5,2.8,2.5,3.9c1.1,1.1,2.3,2,3.8,2.6c1.4,0.6,3,0.9,4.7,0.9c2.9,0,5.3-0.6,7.1-1.5
		c1.8-1,3.3-2.1,4.3-3.5s1.7-2.8,2-4.3c0.3-1.5,0.5-2.8,0.5-3.8c0-1.6-0.2-3.1-0.6-4.7c-0.4-1.6-1-3-2-4.2c-1-1.2-2.3-2.2-3.9-3
		C388.7,157.1,386.6,156.7,384.1,156.7z"/>
</g>
</svg>
