<?xml version="1.0" encoding="utf-8"?>
<!-- Generator: Adobe Illustrator 24.1.3, SVG Export Plug-In . SVG Version: 6.00 Build 0)  -->
<svg 
	version="1.1" 
	id="Layer_1" 
	xmlns="http://www.w3.org/2000/svg" 
	xmlns:xlink="http://www.w3.org/1999/xlink" 
	x="0px" 
	y="0px"	 
	viewBox="0 0 318.89 326.27" 
	style="enable-background:new 0 0 318.89 326.27;" 
	xml:space="preserve">
	<g>
		<path class="svg-review11" d="M156.78,35.17c0.65-1.23,0.05-0.97,0.08-1.19C155.91,36.1,156.9,35.16,156.78,35.17z"/>
		<polygon class="svg-review11" points="147.53,55.67 146.41,58.88 147.5,56.11 	"/>
		<path class="svg-review11" d="M143.69,64.49l0.25-1.8c-1.97,4.19-4.29,9.76-5.91,12.6c1.54-1.5,3.33-7,5.24-10.31L143.69,64.49z"/>
		<path class="svg-review11" d="M132.85,82.49c-0.15,0.21-0.19,0.28-0.28,0.4c-0.2,0.42-0.48,0.99-0.98,1.95
			C132.15,84.33,130.72,87.15,132.85,82.49z"/>
		<path class="svg-review11" d="M132.57,82.89C133.55,80.86,131.71,84.11,132.57,82.89L132.57,82.89z"/>
		<path class="svg-review11" d="M128.11,92.29l1.09-2.77c-0.42,0.48-1.62,2.84-1.3,1.9C126.68,94.21,127.1,93.72,128.11,92.29z"/>
		<path class="svg-review11" d="M127.92,93.62c-0.18,0.21-0.38,0.57-0.59,1.43L127.92,93.62z"/>
		<path class="svg-review11" d="M128.51,92.24c0.07,0.33,0.17-0.34,0.65-1.65l-1.24,3.02C128.21,93.28,128.44,93.35,128.51,92.24z"/>
		<path class="svg-review11" d="M130.9,88.46c2.43-5.14,1.6-4.61-0.82,0.53C130.95,87.56,131.99,85.68,130.9,88.46z"/>
		<path class="svg-review11" d="M139.38,74.69l0.64-1.83c-0.32,0.92-2.07,3.76-1.81,3.74L139.38,74.69z"/>
		<path class="svg-review11" d="M119.6,108.71c0.05,0.23,0.8-0.72,1.08-0.83l0.81-2.04C120.9,106.8,119.86,108.67,119.6,108.71z"/>
		<path class="svg-review11" d="M120.67,107.88l-1.22,3.06C120.78,108.32,120.91,107.79,120.67,107.88z"/>
		<polygon class="svg-review11" points="129.7,90.8 127.36,96.8 127.81,95.87 	"/>
		<path class="svg-review11" d="M115.42,116.5l0.01-0.02l0.02-0.05c0.01-0.03,0.02-0.06,0.03-0.09c0.01-0.06,0.01-0.12,0-0.18
			c0.02,0.09-0.01,0.18-0.07,0.28c0.02,0.01-0.05,0.03-0.13,0.05l-0.2,0.06l-0.4,0.13l-0.8,0.25l1.41-0.39L115.42,116.5z"/>
		<path class="svg-review11" d="M106.57,117.19c-2.23,0.38-4.1,0.9-5.78,1.37c1.81-0.39,3.76-0.64,6.31-0.77
			C108.41,117.31,105.16,117.58,106.57,117.19z"/>
		<path class="svg-review11" d="M97.95,119.31c0.9-0.2,1.83-0.46,2.84-0.74C99.83,118.77,98.89,119.01,97.95,119.31z"/>
		<path class="svg-review11" d="M116.42,116.44c-0.14,0.08-0.27,0.17-0.41,0.34c0.15,0.03,0.31,0.01,0.5-0.05c0.13-0.25,0.27-0.53,0.41-0.82
			C116.82,116.01,116.66,116.14,116.42,116.44z"/>
		<polygon class="svg-review11" points="115.78,117.25 116.27,117.2 116.52,116.73 116.5,116.74 116.26,117.2 	"/>
		<path class="svg-review11" d="M116.92,115.91c0.09-0.09,0.14-0.15,0.15-0.29C117.01,115.73,116.97,115.81,116.92,115.91z"/>
		<path class="svg-review11" d="M123.52,105.63c0.35-1.37-0.82,0.53,0.14-2.23C123.02,105.24,121.47,108.96,123.52,105.63z"/>
		<path class="svg-review11" d="M119.64,110.93l-1.39,3.49l1.63-3.08C119.75,111.35,119.32,111.84,119.64,110.93z"/>
		<polygon class="svg-review11" points="117.65,115.56 117.62,116.01 118.25,114.42 	"/>
		<path class="svg-review11" d="M103.91,118.85c-1.46,0.4-3.09,0.65-4.93,0.95c1.98-0.2,4.03-0.45,5.97-0.74
			C105.21,118.89,106.02,118.53,103.91,118.85z"/>
		<path class="svg-review11" d="M111.26,117.9c-0.1,0.02-0.23,0.05-0.33,0.07C111.14,117.98,111.31,117.97,111.26,117.9z"/>
		<path class="svg-review11" d="M80.87,122.43c0.1,0.01,0.2,0.02,0.3,0.03c0.02-0.03,0.03-0.05,0.06-0.08L80.87,122.43z"/>
		<path class="svg-review11" d="M105.3,119.09c1.49-0.13,2.37-0.37,3.19-0.62c-1.1,0.2-2.27,0.4-3.53,0.59
			C104.84,119.14,104.82,119.18,105.3,119.09z"/>
		<path class="svg-review11" d="M92.92,120.24c0.78-0.02,1.67-0.08,2.6-0.14C94.75,120.08,93.18,120.09,92.92,120.24z"/>
		<path class="svg-review11" d="M110.42,117.93c0.07-0.02,0.14-0.03,0.22-0.05C110.14,117.86,110.2,117.89,110.42,117.93z"/>
		<path class="svg-review11" d="M110.42,117.93c-0.75,0.17-1.34,0.36-1.93,0.54c0.9-0.16,1.73-0.33,2.44-0.5
			C110.74,117.97,110.55,117.95,110.42,117.93z"/>
		<path class="svg-review11" d="M87.67,121.56l1.4-0.25c-1.61,0.16-2.78,0.17-4.93,0.17c-2.3,0.53-2.77,0.75-2.91,0.9l6.91-0.95L87.67,121.56
			z"/>
		<path class="svg-review11" d="M93.12,121.81c4.11-0.63,2.83-0.78,5.26-1.32c-6.62,1.07,1.87-0.51-2.96-0.06c1.29-0.26,2.46-0.46,3.57-0.63
			c-1.2,0.12-2.37,0.23-3.46,0.3c0.06,0,0.11,0,0.16,0l0.03-0.01l-0.01,0.01c0.29,0.01,0.39,0.03,0.07,0.05
			c-0.02,0.01-0.1,0.02-0.14,0.03c-0.04,0.07-0.15,0.14-0.28,0.2c-1.94,0.19-0.32-0.07,0.28-0.2c0.02-0.02,0.07-0.05,0.07-0.08
			l-0.03,0l-6.62,1.2c1.42-0.15,3.18-0.41,6.29-0.92C94.33,120.98,90.99,121.65,93.12,121.81z"/>
		<path class="svg-review11" d="M122.76,109.26c-0.13,0.17-0.15,0.15-0.19,0.15C122.43,109.82,122.39,109.99,122.76,109.26z"/>
		<path class="svg-review11" d="M121.3,111.62c0.16-0.47,0.19-0.91,0.93-2.31c0.73-1.18,0.18,0.1,0.34,0.1c0.32-0.91,1.21-3.14-0.31-0.54
			l-0.16,0.45c-1.05,1.86-2.51,4.03-3.02,4.65C119.71,113.48,120.26,112.95,121.3,111.62z"/>
		<path class="svg-review11" d="M119.09,113.97c-0.06,0.05-0.11,0.09-0.17,0.14C118.88,114.21,118.95,114.14,119.09,113.97z"/>
		<path class="svg-review11" d="M110.64,119.24l-5.51,1.01l2.87-0.04l-0.18-0.2C110.99,119.64,110.27,119.47,110.64,119.24z"/>
		<polygon class="svg-review11" points="80.87,121.75 77.77,122.85 80.21,122.31 	"/>
		<polygon class="svg-review11" points="73.23,122.98 71.36,123.49 73.02,123.41 	"/>
		<path class="svg-review11" d="M82.41,238.01l0.55-0.65c0.21-1.66,0.47-2.92,0.75-3.98C82.94,235.68,81.92,238.22,82.41,238.01z"/>
		<path class="svg-review11" d="M41.66,152.51c1.36,1.56,2.49,2.76,3.51,3.79C43.56,154.38,42.38,152.71,41.66,152.51z"/>
		<path class="svg-review11" d="M224.97,284.28c0.93,0.4,1.35,0.52,1.37,0.42C225.38,284.29,224.82,284.09,224.97,284.28z"/>
		<path class="svg-review11" d="M49.45,160.46c-0.24-0.28-0.47-0.55-0.71-0.84c-1.13-1-2.26-2.02-3.56-3.33
			C46.36,157.72,47.79,159.27,49.45,160.46z"/>
		<path class="svg-review11" d="M171.27,54.85c-0.2-0.47-0.58-1.23-1.28-2.51C170.31,52.93,170.8,53.92,171.27,54.85z"/>
		<path class="svg-review11" d="M44.03,127.43C45.55,127.18,44.26,127.34,44.03,127.43L44.03,127.43z"/>
		<path class="svg-review11" d="M51.12,128.34c0.11-0.12,0.31-0.22,0.58-0.3C51.38,128.14,51.14,128.24,51.12,128.34z"/>
		<path class="svg-review11" d="M46.36,127.29c-0.58,0.03-1.25,0.08-1.97,0.16C44.7,127.43,45.3,127.39,46.36,127.29z"/>
		<path class="svg-review11" d="M46.02,127.13c0.53-0.06,0.94-0.11,1.34-0.15C47.54,126.88,47.36,126.86,46.02,127.13z"/>
		<path class="svg-review11" d="M44.03,127.43c-0.45,0.07-1.08,0.17-2.12,0.33c0.87-0.13,1.69-0.23,2.48-0.31
			C44.08,127.46,43.95,127.45,44.03,127.43z"/>
		<path class="svg-review11" d="M244.49,123.65c-0.06-0.03-0.14-0.06-0.24-0.1C244.32,123.58,244.4,123.62,244.49,123.65z"/>
		<path class="svg-review11" d="M293.59,134.63c0.79-0.57,1.86-1.46,3.16-2.61c-2.02-0.42-5.02-0.93-8.34-1.44
			c-1.38-0.21-2.81-0.43-4.24-0.65c-1.24-0.18-2.48-0.36-3.69-0.54c-4.83-0.69-9.09-1.27-10.22-1.56c-4.04-0.16-7.96-0.74-12.81-1.5
			c1.19,0.29,1.82,1.04-2.36,0.35c1.68-1.08-7.16-1.66-10.6-3.04c1.63,0.78-12.02-1.62-7.57-0.09c-3.48-0.62-0.14-0.53-2.75-1.23
			c-8.4-0.7-18.3-3-28.62-4.32c-0.19,0.15,1.5,0.67-0.75,0.61l-0.88-0.28l-0.44-0.14l-0.22-0.07c-0.06-0.02-0.09-0.04-0.13-0.06
			c-0.32-0.15-0.6-0.28-0.83-0.42c-0.07-0.36-0.12-0.68-0.14-0.96l-0.04-0.07l-0.09-0.15c-0.06-0.09-0.12-0.18-0.18-0.27
			c-0.12-0.16-0.23-0.31-0.35-0.43c-0.23-0.26-0.45-0.47-0.68-0.74c-0.45-0.54-0.92-1.31-1.48-3.13c0.1,0.54,0.25,1.35-0.41,0.14
			c-8.25-18.65-19.06-37.03-26.77-56.3c0.93,2.66,0.08,1-0.88-0.91c0.54,1.28-0.4,0.16-0.5,0.51l-3.24-8.06
			c-1.29-1.12-4.15-8.31-5.12-8.84l1.32,2.41c-1.26-1.62-0.9,0.15-0.5,2.06l-3.78-7.66l-41.55,84.19l-27.98,4.07
			c0.18-0.03,0.36-0.05,0.52-0.1l-0.16-0.2c-1.78,0.27-3.07,0.6-2.01,0.54l-4.76,0.69c2.87-0.76,0.58-1.69-2.33-1.98
			c-0.08,0.19-0.05,0.34-3.43,1.07c1.22,0.04,7.63-0.6,4.81,0.17c-4.48,0.86-3.72,0.4-5.94,0.51c1.72,0.19-4.04,1.26-4.6,1.9
			l-27.4,3.98c0.16-0.08,0.13-0.14-0.23-0.15l-2.53,0.44c-2.4-0.09,4.7-1.29,1.45-1.02c3.37-0.8,7.12-1.83,11.96-2.28l0.99,0.48
			c-0.13-0.16-3.19,0.09-4.51,0.48c1.96-0.56,7.48-0.25,9.56-1.36l-3.43,0.07c3.38-0.8,7.52-2.06,11.8-2.49
			c-2.02-0.32-0.97,0.21-4.1-0.05c2.75,0.49-10.89,1.55-6.55,1.85c-3.22-0.36-5.42,0.44-9.58,0.33c0.15,0.18,1.49,0.17-2.09,0.59
			c-0.15,0.08-0.52,0.21-0.76,0.29c-0.11,0.01-0.15,0.01-0.24,0.02c0.07,0,0.13,0,0.2,0c-0.15,0.05-0.16,0.06,0.07,0
			c0.86-0.04,1.57-0.03,1.86,0.04c-1.71,0.72-7.39,1.53-9.28,2.04c-2.13,0.21,0.85-0.36-0.33-0.4l-2.82,0.77
			c-0.35-0.4-5.74,0.08-0.78-0.91l-5.56,0.79c-3.18,0.28-7.47,0.8-10.9,1.32c1.13,1.09,2.21,2.1,3.15,2.94
			c1.25,1.28,3.11,2.92,4.22,3.88c1.11,0.96,1.59,1.33,0.3,0.32l2.2,2.04l1.37,1.24l2.65,2.39l-0.03,0.13
			c4.99,4.95,10.88,9.57,16.07,15.76c1.77,1.57,3.62,3.18,6.37,6.03l0.28,0.82c2.27,2.02,6.26,6.65,7.48,7.27
			c1.62,3.04,10.4,10.46,14.1,14.32l0.5-0.22c2.61,2.59,5.24,4.95,8.65,7.99l0.11-0.52c0.69,0.56,1.43,1.24,2.21,2
			c0.36,0.37,0.74,0.75,1.13,1.14c0.2,0.22,0.4,0.45,0.62,0.69c-0.05,0.19-0.1,0.38-0.15,0.58L89.95,200l-0.04,0.14l-0.06,0.29
			c-0.17,0.78-0.34,1.58-0.51,2.39c-0.34,1.62-0.67,3.3-0.95,4.98c-0.1-0.45,0.21-2,0.5-3.08c-2.26,7.16-1.93,15.59-3.79,22.11
			c-0.12,1.68-0.38,2.88-0.69,4.02c0.03-0.15,0.04-0.29,0.05-0.42c-0.03,0.17-0.08,0.42-0.12,0.68c-0.2,0.72-0.41,1.46-0.63,2.26
			c0.23-0.68,0.43-1.32,0.57-1.9c-0.21,1.28-0.49,3.23-0.7,5.15l-0.61,0.73c-0.02,0.16-0.04,0.28-0.06,0.44
			c-0.49,1.83-0.03,1.54,0.5,0.6c-0.09,0.97-0.14,1.86-0.14,2.56c-1.03,1.38-0.6,5.03-1.77,6.95c0.17,1.25-1.12,8.41-0.78,10.38
			c-0.46,2.08-0.91,4.17-1,6.09l-0.76,0.79l0.02,4.76c-0.85,2.75-1.26,3.87-1.25,1c-0.44,6.86-0.67,5.51-0.94,11.36l-0.34-0.35
			c-0.13,0.83-0.35,2.9-0.52,4.41c-0.18,1.58-0.35,2.91-0.69,3.93c-0.24,0.85-0.5,1.97-0.79,3.35c1.92-0.9,4.69-2.3,7.91-3.96
			c2.42-1.26,5.16-2.68,8-4.16c5.33-2.78,11.09-5.75,15.87-7.92c-2.59,0.04,5.15-2.12,5.15-3.14c0.74-0.08,2.29-0.72,0.69,0.4
			c5.26-3.07,8.3-3.87,11.66-6.5c0.75-0.08-0.96,0.96-0.34,0.82c0.4-0.28,1.6-1.11,2.24-1.26c0.62-0.14-0.68,0.62-1.48,1.17
			c5.48-2.93,5.64-3.98,5.67-4.9c2.97-1.13,4.33-1.91,6.1-3.43c1.09-0.28,2.84-0.89-0.54,0.99c1.94-0.98,11.93-5.84,11.83-6.51
			c0.68-0.17,2.71-1.37,3.18-1.7c2.17-1.11,3.35-1.72,4.52-2.32c0.58-0.3,1.16-0.61,1.86-0.97c0.6-0.32,1.3-0.7,2.2-1.19
			c-0.28,0.11-0.5,0.18-0.86,0.33c0.35-0.49,0.78-0.83,1.34-1.15c0.25,0.12,0.51,0.27,0.79,0.43c0.3,0.18,0.61,0.37,0.95,0.57
			c0.8,0.47,1.72,1,2.84,1.56l-0.13,0.02c7.58,4.61,3.51,1.54,10.94,6.17l-0.2-0.65c1.2-0.53,6.57,4.14,11.24,6.15l-1.49-1.09
			c2.61,0.98,6.2,4.84,8.6,6.25c0.49,0.36-0.91-0.32-1.69-0.65c6.16,3.93,1.13-0.12,6,2.28c0.73,0.77-1.54,0.16,1.66,1.92
			c1.48,1.09,9.89,3.95,13.99,6.85c-0.85-0.74-1.69-1.48,0.63-0.48c3.46,1.71,8.78,5.73,12.25,6.63c0.4,0.29,0.53,0.44,0.52,0.51
			c1.36,0.59,3.52,1.63,5.57,2.57c1.02,0.47,2.02,0.92,2.87,1.28c0.54,0.23,1.04,0.44,1.47,0.62c0.44,0.18,0.79,0.3,1.05,0.38
			c0.99,1.14,4.19,2.93,7.59,4.65c-0.37-2.01-0.82-4.18-1.24-6.2c-0.39-1.9-0.78-3.75-1.11-5.37c-0.49-2.37-0.72-4.1-0.21-4.16
			l-1.62-8.94l0.19,0.21c-0.88-5.74-1.59-7.7-2.3-9.65c-0.12-1.34,0.18-0.4,0.28-0.3c-1.13-8.41-1.34-9.23-3.29-16.11l0.36-0.81
			c-0.61-1.85-1.31-12.22-3.28-20.32c0.07,0.07,0.19,0.22,0.37,0.86c-1.06-4.5-1.67-9.99-2.29-14.76c-0.31-2.39-0.63-4.6-1.01-6.41
			c-0.1-0.45-0.19-0.88-0.3-1.29c-0.05-0.2-0.11-0.39-0.16-0.58l-0.08-0.27l-0.06-0.12c-0.16-0.3-0.37-0.6-0.64-0.93
			c0-0.04,0-0.06-0.01-0.09l0.56-0.7l0.17-0.2l0.26-0.29l0.51-0.58l2.06-2.31c-5.82,5.48,0.31-1.39-2.26,0.69
			c2.18-2.27,6.2-5.28,3.5-2.52l-0.5,0.36c-0.36,1.66,7.34-6.69,7.64-6.08c11.23-11.01,22.56-21.33,33.14-31.58l-1.73,0.66l3.71-3.56
			c1.08-0.82,1.7-0.85-0.95,1.68c1.67-1.05,4.16-4.54,4.12-4.73c5.35-4.8-1.41,2.57,0.18,1.04l2.1-2.12l-0.54,0.41
			c1.53-1.9,1.46-2.28,4.64-5.33c2.1-1.84,1.34-0.67,2.14-1.42c0.03,0.04,0.31-0.2,1.22-1.16l6.55-6.3
			c-1.27,0.97-2.44,1.84-3.53,2.63C294.04,134.67,297.52,131.72,293.59,134.63z M82.97,124.52l-5.84,0.85
			C78.54,124.99,80.81,124.59,82.97,124.52z M75.98,125.51c0.01,0.01,0,0.02-0.01,0.03l-0.42,0.06L75.98,125.51z M24.31,130.69
			c-0.06,0.02-0.11,0.03-0.16,0.05c-2.11,0.21-2.43,0.25-2.65,0.27C21.72,130.98,22.84,130.85,24.31,130.69z M37.45,146.84
			c-4.16-3.76-1.36-2.09-2.14-2.68c-1.66-1.66-2.95-2.84-4.01-3.74c-0.53-0.45-1.01-0.83-1.45-1.17c-0.58-0.46-1.1-0.87-1.59-1.26
			c-2.06-1.61-4.11-3.22-7.17-6.31c1.08-0.14,2.36-0.28,3.81-0.43c2.85-0.14,3.05,0.1,2.99,0.36c-0.1,0.27-0.48,0.55,0.19,0.65
			c-1.28,0.24-2.41,0.41-3.53,0.54c0.88,0.92,1.58,1.72,2.32,2.55c0.73,0.82,1.51,1.67,2.42,2.55l-2.71-2.99
			c1.43,1.15,3.72,3.19,4.79,4.45c-0.22-0.3-0.58-0.71-1.03-1.19l15.49,15.1C43.98,152.19,40.94,149.88,37.45,146.84z M62.68,170.29
			c0.22,0.02-0.02-0.47-0.22-0.83l3.25,3.17C64.67,171.91,63.58,171.08,62.68,170.29z M83.76,192.11c-0.36-0.42-5.43-6.32-6.46-7.85
			c-0.18-0.28-0.25-0.46-0.25-0.57l3.95,3.85l-0.45,0.62l1-0.08l3.87,3.77C85.02,192.28,84.42,192.43,83.76,192.11z M87.91,215.18
			l0.54-1.17l0.47-4.98c0.14,1.36,0.28,3.76,0.38,6.43l-1.4,8.16C87.7,221.15,87.61,218.2,87.91,215.18z M80.7,258.31
			c0.03,0.15,0.06,0.28,0.11,0.37C80.69,258.72,80.55,259.24,80.7,258.31z M79.85,270.57l-0.65,3.79l-0.23-3.89
			C79.13,270.83,79.48,270.72,79.85,270.57z M130.78,263.27c-0.71,0.26-0.26-0.23,0.51-0.94c-0.35,0.25-0.68,0.48-0.93,0.66
			c-0.83,0.33-1.18,0.39-1.24,0.27l2.72-1.43c-0.19,0.17-0.38,0.34-0.55,0.5c0.38-0.27,0.81-0.56,1.25-0.86l1.19-0.62
			c0.97-0.3,1.81-0.56,2.38-0.76L130.78,263.27z M287.52,141.87l-0.82,0.62C288.25,140.78,287.87,141.32,287.52,141.87z"/>
		<path class="svg-review11" d="M59.51,125.24c-0.08-0.09-0.56-0.15-0.05-0.27l-2.95,0.54C58.1,125.26,58.69,125.29,59.51,125.24z"/>
		<path class="svg-review11" d="M59.46,124.98l0.34-0.06C59.65,124.94,59.55,124.96,59.46,124.98z"/>
		<path class="svg-review11" d="M67.36,125.63c0.6-0.66-1.84-0.12-4.27,0.43c0.32,0.36,2.38-0.07,4.68-0.49
			C67.63,125.59,67.5,125.61,67.36,125.63z"/>
		<path class="svg-review11" d="M70.45,125.16c0.24-0.26-0.88,0.08-2.14,0.32C69.02,125.36,69.75,125.24,70.45,125.16z"/>
		<path class="svg-review11" d="M39.06,128.49c1.11-0.06,0.61-0.61,1.26-0.54C41.47,127.26,33.08,129.63,39.06,128.49z"/>
		<polygon class="svg-review11" points="65.16,127.11 64.26,126.73 63.02,127.32 	"/>
		<path class="svg-review11" d="M46.81,129.4l3.72-0.4c-0.07-0.07,0.4-0.19,0.97-0.31C49.22,129,46.7,129.27,46.81,129.4z"/>
		<path class="svg-review11" d="M51.5,128.69c1.19-0.16,2.32-0.34,2.97-0.52C53.83,128.27,52.45,128.49,51.5,128.69z"/>
		<path class="svg-review11" d="M39.22,146.98c-0.78-0.6-1.91-1.61-1.58-1.05l3.02,2.75C41.08,148.84,40.36,147.99,39.22,146.98z"/>
		<polygon class="svg-review11" points="165.44,41.87 164.25,38.98 164.83,40.94 	"/>
		<path class="svg-review11" d="M162.37,35.9l-1.35-1.42c0.34,0.62,0.99,1.82,1.1,2.36L162.37,35.9z"/>
	</g>
</svg>
