<?xml version="1.0" encoding="utf-8"?>
<!-- Generator: Adobe Illustrator 24.2.0, SVG Export Plug-In . SVG Version: 6.00 Build 0)  -->
<svg version="1.1" id="Layer_1" xmlns="http://www.w3.org/2000/svg" xmlns:xlink="http://www.w3.org/1999/xlink" x="0px" y="0px"
	 viewBox="0 0 500 397.4" style="enable-background:new 0 0 500 397.4;" xml:space="preserve">
<style type="text/css">
	.st0{fill:#F697B2;}
	.st1{fill:#FFC844;}
	.st2{fill:#B984BA;}
	.st3{fill:#B884C1;}
	.st4{fill:#E64783;}
	.st5{fill:#FFDD92;}
	.st6{fill:#863399;stroke:#7F3F98;stroke-width:2;stroke-miterlimit:10;}
	.st7{fill:#863399;}
	.st8{fill:none;stroke:#FFC844;stroke-width:4;stroke-miterlimit:10;}
	.st9{fill:#7F3F98;}
	.st10{fill:#6CCA98;}
	.st11{fill:#A9E0C0;}
	.st12{fill:#FFFFFF;}
	.st13{fill:#010101;}
	.st14{fill:#FA9A86;}
	.st15{fill:#1C355E;}
	.st16{fill:#757F9B;}
</style>
<g>
	<path class="st1" d="M416.2,356.6L486,111c3.1-10.9-4.2-22.1-15.5-23.6L31.5,30.2C18.6,28.5,8,40.2,10.9,52.9l69.5,302.4
		c1.9,8.4,9.5,14.4,18.1,14.4l299.7,0.5C406.6,370.2,413.9,364.6,416.2,356.6z"/>
</g>
<path class="st7" d="M394.3,87.4l-8.9,0.8c-5.5,0.3-12,4.9-15.2,9.3l-4.3,5.8l-0.5-7.8c-0.4-6.3-3.7-12.1-8.9-15.7l-6.1-4.2l9.5-1
	c5-0.5,9.6-3.1,12.7-7.2l5.5-7.4l1.4,9c0.8,4.9,1.2,8.1,7.5,12.8L394.3,87.4z"/>
<path class="st3" d="M458.1,152.7v-0.1c-2.4-0.3-4.8-0.5-7.2-0.5c-2.2,0-4.3,0.1-6.5,0.2c1.4-1.7,2.8-3.4,4-5.1c1.4-2,2.7-4,3.8-6.1
	l-0.1-0.1c-1.7,1.7-3.2,3.6-4.7,5.5c-1.4,1.9-2.7,3.8-3.9,5.8c0,0-0.1,0-0.1,0c0-1.2-0.1-2.4,0-3.5c0-1.9,0.2-3.8,0.3-5.7
	c0.1-3.8,0-7.6-0.4-11.4h-0.1c-0.4,3.8-0.5,7.6-0.4,11.4c0.1,1.9,0.2,3.8,0.3,5.7c0,1.1,0,2.3,0,3.4c-0.9-0.3-1.8-0.6-2.6-0.9
	c-1.1-0.5-2.2-1-3.3-1.5c-2.2-0.9-4.5-1.7-6.9-2.1l0,0.1c2.1,1.2,4.3,2.1,6.6,2.9c1.1,0.3,2.3,0.6,3.5,1c0.7,0.3,1.5,0.6,2.2,0.9
	c-0.8,0-1.6,0.1-2.4,0c-1.2,0-2.4-0.2-3.6-0.3c-2.4-0.1-4.8,0-7.2,0.4v0.1c2.4,0.4,4.8,0.5,7.2,0.4c1.2-0.1,2.4-0.2,3.6-0.3
	c1,0,1.9,0,2.9,0.1c0,0.1,0,0.2,0,0.3c-0.5,0.8-1,1.5-1.6,2.2c-0.7,0.9-1.6,1.8-2.3,2.7c-1.5,1.9-2.8,3.9-3.9,6l0.1,0.1
	c1.7-1.7,3.2-3.6,4.6-5.6c0.6-1,1.2-2.1,1.9-3.1c0.4-0.6,0.8-1.1,1.2-1.7c0,0.1,0,0.3,0,0.4c-0.2,3.8-0.3,7.6-0.3,11.4
	c0.1,3.8,0.2,7.6,0.5,11.4h0.1c0.3-3.8,0.5-7.6,0.5-11.4c0-3.8-0.1-7.6-0.3-11.4c0-0.4,0-0.7,0-1.1c0.1-0.1,0.2-0.2,0.3-0.3
	c2.1,1,4.3,1.9,6.4,2.7c2.3,0.8,4.5,1.5,6.9,2l0-0.1c-2.1-1.2-4.3-2.1-6.5-3c-1.5-0.5-3-1-4.5-1.5c1.6,0.1,3.1,0.1,4.7,0.1
	C453.3,153.2,455.7,153.1,458.1,152.7z"/>
<path class="st3" d="M96.8,80l0-0.2c-4,0.2-8,0.7-11.9,1.4c-3.6,0.7-7.1,1.5-10.6,2.4c1.8-3.2,3.5-6.4,5-9.6
	c1.6-3.6,3.2-7.3,4.3-11.2l-0.2-0.1c-2.2,3.4-4.1,6.9-5.9,10.4c-1.7,3.5-3.2,7.1-4.6,10.7c-0.1,0-0.1,0-0.2,0
	c-0.4-1.9-0.8-3.9-1.2-5.8c-0.5-3.1-0.9-6.3-1.3-9.5c-1-6.3-2.4-12.5-4.2-18.6l-0.2,0c0.6,6.4,1.6,12.7,2.9,18.9
	c0.7,3.1,1.6,6.2,2.2,9.3c0.4,1.9,0.7,3.7,1,5.6c-1.5-0.2-3.1-0.4-4.6-0.7c-2-0.4-3.9-1-5.8-1.5c-3.9-0.8-7.9-1.3-11.9-1.4l0,0.2
	c3.8,1.3,7.7,2.1,11.7,2.7c2,0.2,4,0.3,6,0.6c1.3,0.2,2.6,0.4,3.9,0.7c-1.3,0.3-2.6,0.6-3.9,0.8c-2,0.3-4,0.4-6,0.7
	c-3.9,0.6-7.8,1.5-11.6,2.9l0,0.2c4-0.1,8-0.7,11.9-1.6c1.9-0.5,3.8-1.1,5.8-1.6c1.6-0.4,3.2-0.6,4.8-0.8c0,0.2,0,0.3,0.1,0.5
	c-0.6,1.4-1.2,2.8-1.8,4.2c-0.9,1.8-2,3.5-3,5.2c-1.8,3.5-3.4,7.2-4.5,11.1l0.2,0.1c2.3-3.3,4.1-6.9,5.7-10.5
	c0.7-1.9,1.4-3.8,2.2-5.6c0.5-1.1,1-2.1,1.5-3.1c0,0.2,0.1,0.5,0.1,0.7c0.8,6.3,1.9,12.6,3.1,18.8c1.3,6.2,2.7,12.4,4.4,18.6l0.2,0
	c-0.6-6.4-1.6-12.6-2.7-18.9c-1.2-6.2-2.5-12.5-4-18.7c-0.1-0.6-0.3-1.2-0.4-1.8c0.1-0.2,0.2-0.4,0.4-0.6c3.8,1,7.6,1.7,11.4,2.4
	c3.9,0.6,7.9,1.1,12,1.2l0-0.2c-3.8-1.2-7.7-2.1-11.7-2.9c-2.6-0.4-5.2-0.8-7.8-1.1c2.6-0.4,5.2-0.8,7.8-1.2
	C89.1,82.3,93,81.3,96.8,80z"/>
<g>
	<path class="st7" d="M296.3,130.6c28.2-1.4,56.5-2.3,84.7-3.2l5.3-0.2l2.6-0.1c0.9,0,1.7-0.1,2.7,0c3.8,0,7.7,1.2,10.9,3.3
		c3.2,2.1,5.8,5.2,7.3,8.8c0.8,1.8,1.2,3.7,1.5,5.6c0.2,2,0.2,3.7,0.2,5.5c0.4,14.1,0.6,28.2,0.8,42.4l0.4,42.4l0.2,21.2l0.3,21.2
		c0.2,7.1,0.2,14.1,0.4,21.2l0.3,10.6c0.1,1.7,0.1,3.6-0.2,5.4c-0.4,1.8-0.9,3.6-1.7,5.2c-0.8,1.6-1.9,3.2-3.1,4.5
		c-1.3,1.3-2.7,2.5-4.3,3.4c-1.6,0.9-3.3,1.7-5.1,2.1c-0.4,0.2-0.9,0.2-1.4,0.3c-0.5,0.1-0.9,0.2-1.4,0.2l-1.4,0.1l-1.3,0.1
		l-21.2,0.7c-28.2,1-56.5,1.9-84.7,2.7c-28.2,0.8-56.5,1.6-84.7,2.2c-14.1,0.2-28.3,0.6-42.4,0.7l-42.4,0.6l-21.2,0.2
		c-1.9,0-3.8-0.2-5.6-0.8c-1.8-0.5-3.6-1.3-5.1-2.3c-3.2-2-5.7-4.9-7.3-8.3c-0.8-1.7-1.4-3.5-1.6-5.3c-0.1-0.5-0.1-0.9-0.1-1.4
		c0-0.5-0.1-0.9-0.1-1.4l0-2.6l0-10.6l0-21.2l0.4,0l0.9,21.2l0.4,10.6l0.1,2.6l0.1,1.3c0,0.4,0.1,0.8,0.2,1.2
		c0.2,1.7,0.8,3.2,1.6,4.7c1.5,3,3.8,5.5,6.7,7.2c1.4,0.9,3,1.5,4.6,1.9c1.6,0.4,3.2,0.5,4.9,0.5l21.2-0.7l42.4-1.3
		c14.1-0.5,28.2-0.8,42.4-1.2c28.2-0.7,56.5-1.2,84.8-1.6c28.3-0.5,56.5-0.9,84.8-1.1l21.2-0.2l1.3,0l1.3-0.1c0.4,0,0.8-0.1,1.3-0.2
		c0.4-0.1,0.8-0.1,1.2-0.2c1.7-0.4,3.2-1,4.7-1.9c1.5-0.8,2.8-1.9,4-3.2c1.2-1.2,2.1-2.7,2.9-4.1c0.8-1.5,1.3-3.1,1.6-4.8
		c0.3-1.7,0.3-3.4,0.3-5.1l-0.2-10.6c-0.1-7.1-0.3-14.1-0.5-21.2l-0.6-21.2l-0.8-21.2l-1.5-42.4c-0.4-14.1-0.8-28.2-1.1-42.4
		c0-1.7,0-3.6-0.2-5.1c-0.2-1.6-0.6-3.2-1.2-4.6c-1.2-2.9-3.4-5.5-6-7.3c-2.7-1.8-5.8-2.9-9-2.9c-0.8-0.1-1.7,0-2.6,0l-2.6,0
		l-5.3,0.1c-28.3,0.3-56.5,0.7-84.8,0.6L296.3,130.6z"/>
</g>
<g>
	<path class="st7" d="M77.7,283.7c-1.1-15.2-1.8-30.4-2.4-45.7L75,226.7l-0.3-11.4c-0.2-7.6-0.4-15.2-0.4-22.8l0-22.9l0-11.4
		l-0.1-11.4c0-0.9-0.1-1.9,0.1-3c0.2-1,0.4-2,0.9-2.9c0.9-1.8,2.3-3.4,4-4.4c0.9-0.5,1.8-0.9,2.8-1.2c1-0.2,2-0.3,3-0.3l5.7-0.2
		c7.6-0.2,15.2-0.6,22.8-0.9c15.2-0.7,30.4-1.4,45.7-1.8c15.2-0.5,30.5-1,45.7-1.3c30.5-0.5,60.9-0.7,91.4-0.1l0,0.4
		c-30.4,1.9-60.9,3.1-91.3,4c-15.2,0.4-30.5,0.6-45.7,0.8c-15.2,0.2-30.5,0.3-45.7,0.2c-7.6,0-15.2,0-22.9,0.1l-5.7,0.1
		c-1,0-1.8,0.1-2.7,0.3c-0.9,0.2-1.7,0.6-2.5,1c-1.5,0.9-2.8,2.3-3.5,3.9c-0.4,0.8-0.6,1.7-0.8,2.5c-0.2,0.9-0.1,1.8-0.1,2.7
		l0.4,11.4l0.5,11.4l1.1,22.8c0.3,7.6,0.5,15.2,0.6,22.8l0.2,11.4l0.1,11.4c0.1,15.2,0.1,30.5-0.3,45.7L77.7,283.7z"/>
</g>
<g>
	<path class="st3" d="M318.8,331.1c-0.7-8.3-1.2-16.7-1.6-25c-0.4-8.4-0.6-16.7-0.6-25.1l0.1-12.5c0.1-4.2,0.1-8.4,0.1-12.5
		c-0.1-8.4-0.4-16.7-0.9-25.1c-0.5-8.3-0.9-16.7-1.2-25c-0.3-8.4-0.6-16.7-0.8-25.1c-0.2-16.7-0.2-33.4,0.3-50.2l0.3,0
		c1.3,16.7,2.1,33.4,2.6,50.1c0.2,8.4,0.3,16.7,0.4,25.1c0.1,8.4,0.1,16.7,0,25.1c-0.1,8.4-0.1,16.7,0.2,25.1
		c0.1,4.2,0.4,8.3,0.6,12.5l0.7,12.5c0.4,8.4,0.5,16.7,0.5,25.1c0,8.4-0.1,16.7-0.5,25.1L318.8,331.1z"/>
</g>
<g>
	<path class="st3" d="M322.8,130.5c0.7,8.3,1.2,16.7,1.6,25c0.4,8.4,0.6,16.7,0.6,25.1l-0.1,12.5c-0.1,4.2-0.1,8.4-0.1,12.5
		c0.1,8.4,0.4,16.7,0.9,25.1c0.5,8.3,0.9,16.7,1.2,25c0.3,8.4,0.6,16.7,0.8,25.1c0.2,16.7,0.2,33.4-0.3,50.2l-0.3,0
		c-1.3-16.7-2.1-33.4-2.6-50.1c-0.2-8.4-0.3-16.7-0.4-25.1c-0.1-8.4-0.1-16.7,0-25.1c0.1-8.4,0.1-16.7-0.2-25.1
		c-0.1-4.2-0.4-8.3-0.6-12.5l-0.7-12.5c-0.4-8.4-0.5-16.7-0.5-25.1c0-8.4,0.1-16.7,0.5-25.1L322.8,130.5z"/>
</g>
<g>
	<polygon class="st3" points="177.7,158.8 178.7,133.7 180.7,158.7 	"/>
</g>
<g>
	<path class="st3" d="M179.9,181.9c0.7,6.3,1.1,12.7,1.4,19c0.3,6.3,0.5,12.7,0.5,19l-0.2,9.5c-0.1,3.2-0.2,6.4-0.1,9.5
		c0,6.3,0.4,12.7,0.8,19c0.4,6.3,0.8,12.7,1,19c0.2,6.3,0.5,12.7,0.6,19c0.2,12.7,0.1,25.4-0.6,38.1l-0.3,0
		c-1.2-12.7-1.9-25.4-2.3-38c-0.2-6.3-0.2-12.7-0.2-19c-0.1-6.3,0-12.7,0.2-19.1c0.1-6.4,0.2-12.7-0.1-19c-0.1-3.2-0.3-6.3-0.6-9.5
		l-0.6-9.5c-0.3-6.3-0.4-12.7-0.3-19c0-6.3,0.2-12.7,0.6-19.1L179.9,181.9z"/>
</g>
<g>
	<path class="st3" d="M171.9,158.9c-0.3-2.1-0.5-4.2-0.7-6.3c-0.2-2.1-0.4-4.2-0.6-6.3c-0.2-2.1-0.6-4.2-0.4-6.3
		c0.2-2.1,0.4-4.2,1.2-6.3l0.3,0c0.9,2.1,1.2,4.2,1.5,6.2c0.3,2.1-0.1,4.2-0.2,6.3c-0.1,2.1-0.2,4.2-0.3,6.3
		c-0.2,2.1-0.3,4.2-0.5,6.3L171.9,158.9z"/>
</g>
<g>
	<path class="st3" d="M175.8,334.4c-0.7-6.3-1.1-12.7-1.4-19c-0.3-6.3-0.5-12.7-0.5-19l0.2-9.5c0.1-3.2,0.2-6.4,0.1-9.5
		c0-6.3-0.4-12.7-0.8-19c-0.4-6.3-0.8-12.7-1-19c-0.2-6.3-0.5-12.7-0.6-19c-0.2-12.7-0.1-25.4,0.6-38.1l0.3,0
		c1.2,12.7,1.9,25.4,2.3,38c0.2,6.3,0.2,12.7,0.2,19c0.1,6.3,0,12.7-0.2,19.1c-0.1,6.4-0.2,12.7,0.1,19c0.1,3.2,0.3,6.3,0.6,9.5
		l0.6,9.5c0.3,6.3,0.4,12.7,0.3,19c0,6.3-0.2,12.7-0.6,19.1L175.8,334.4z"/>
</g>
<g>
	<path class="st7" d="M173.6,133.8c-0.8-9.9-1.3-19.9-1.7-29.8l-0.1-3.7c0-0.6-0.1-1.2-0.1-1.9l0-2c0.2-2.6,0.8-5.2,1.9-7.6
		c2.1-4.8,6.1-8.9,10.9-11c2.4-1.1,5-1.7,7.6-1.8c1.3-0.1,2.6-0.1,3.8-0.1l3.7,0c5,0,10,0.1,14.9,0c10-0.1,19.9-0.5,29.9-1
		c9.9-0.5,19.9-0.9,29.8-1.3l14.9-0.5L293,73c1.3,0,2.4-0.1,3.8,0c2.7,0.1,5.3,0.6,7.8,1.6c5,2,9.1,5.9,11.5,10.6
		c1.2,2.4,2,4.9,2.3,7.6c0.1,1.3,0.2,2.7,0.1,3.9l0,3.7c0,10-0.1,19.9-0.4,29.9l-0.3,0c-0.7-9.9-1.2-19.9-1.7-29.8
		c-0.1-2.5-0.2-5.1-0.4-7.3c-0.3-2.3-1.1-4.5-2.2-6.6c-2.2-4.1-5.8-7.4-10.1-9c-2.1-0.8-4.4-1.3-6.7-1.4c-1.1-0.1-2.4,0-3.6,0
		l-3.7,0.1l-14.9,0.2c-10,0.1-19.9,0.1-29.9,0.1c-10,0-19.9,0-29.9,0.3c-5,0.2-9.9,0.4-14.9,0.7l-3.7,0.2c-1.2,0.1-2.5,0.1-3.7,0.3
		c-2.4,0.3-4.6,1-6.7,2c-4.2,2-7.6,5.6-9.6,9.8c-1,2.1-1.6,4.4-1.8,6.7l-0.1,1.8c0,0.6,0,1.2,0,1.9l0,3.7c0.1,10,0,19.9-0.3,29.9
		L173.6,133.8z"/>
</g>
<g>
	<path class="st7" d="M185.7,133.3c-0.7-8.1-1.2-16.1-1.6-24.2c-0.2-4.2,0.7-8.6,2.9-12.3c0.5-1,1.1-1.8,1.8-2.7
		c0.7-0.8,1.4-1.6,2.2-2.4c0.8-0.8,1.6-1.4,2.5-2c0.9-0.6,1.8-1.2,2.8-1.6c1.9-1,4-1.6,6.1-1.9c0.5-0.1,1-0.2,1.6-0.2l1.6-0.1
		c1.1,0,2,0,3.1,0c4,0.1,8.1,0.1,12.1,0.1c8.1-0.1,16.2-0.4,24.2-0.9c8.1-0.5,16.1-0.9,24.2-1.1l12.1-0.4c1,0,2-0.1,3.1-0.1l1.6,0
		c0.5,0,1.1,0.1,1.6,0.2c2.1,0.3,4.3,0.9,6.2,1.8c1,0.4,1.9,1,2.8,1.6c0.9,0.6,1.8,1.2,2.6,2c0.8,0.7,1.5,1.5,2.3,2.3
		c0.7,0.9,1.3,1.7,1.9,2.6c2.3,3.6,3.4,8,3.3,12.2c-0.1,8.1-0.2,16.2-0.5,24.3l-0.3,0c-0.7-8.1-1.1-16.1-1.6-24.2
		c0-0.5-0.1-1-0.1-1.5c-0.1-0.5-0.1-1-0.2-1.4l-0.3-1.4c-0.1-0.5-0.3-0.9-0.4-1.4c-0.2-0.9-0.7-1.8-1-2.6c-0.5-0.8-0.9-1.7-1.4-2.4
		c-0.5-0.8-1.1-1.5-1.7-2.2c-0.7-0.7-1.3-1.4-2-2c-0.7-0.6-1.5-1.1-2.2-1.7c-0.8-0.4-1.6-1-2.5-1.3c-0.8-0.4-1.7-0.7-2.6-1
		c-0.4-0.1-0.9-0.2-1.4-0.3l-0.7-0.2l-0.7-0.1c-0.5-0.1-0.9-0.1-1.4-0.2l-1.4,0c-0.9,0-2,0-3,0l-12.1,0.1c-8.1,0.1-16.2,0.1-24.3,0
		c-8.1-0.1-16.2-0.1-24.2,0.2c-4,0.1-8.1,0.4-12.1,0.6c-1,0.1-2,0.1-3,0.2l-1.4,0.2c-0.5,0.1-0.9,0.2-1.4,0.3l-0.7,0.2l-0.7,0.2
		c-0.5,0.2-0.9,0.3-1.4,0.5c-0.9,0.4-1.8,0.7-2.6,1.2c-0.9,0.4-1.6,1-2.4,1.5c-0.7,0.6-1.5,1.2-2.2,1.8c-0.7,0.6-1.3,1.4-1.9,2.1
		c-0.5,0.8-1.1,1.5-1.6,2.4c-0.5,0.8-0.9,1.7-1.3,2.5c-0.3,0.9-0.7,1.8-0.9,2.7c-0.1,0.5-0.3,0.9-0.3,1.4l-0.2,1.4
		c-0.1,0.5-0.1,0.9-0.1,1.4c0,0.5-0.1,0.9,0,1.5c0,8.1-0.1,16.2-0.5,24.3L185.7,133.3z"/>
</g>
<g>
	<polygon class="st5" points="106.8,183.5 105.1,174.5 136.3,174.6 136.5,182.9 	"/>
	<path class="st5" d="M106.7,183.6c-0.5-1.3-1-2.7-1.4-4.2c-0.5-1.5-0.9-3.1-1.3-4.7l-0.3-1.3l1.4-0.1c2.6-0.1,5.2-0.2,7.8-0.2
		c2.6,0,5.2,0.3,7.8,0.6c2.6,0.3,5.2,0.4,7.8,0.3c2.6,0,5.2-0.2,7.8-0.4l0.8-0.1l0.1,1c0.1,1.4,0.3,2.7,0.4,4.1
		c0.1,1.4,0.2,2.8,0.3,4.1l0.1,1.4l-1.4,0.1c-2.5,0.1-5.1,0.3-7.7,0.3c-2.6,0.1-5.1,0-7.7,0C116.1,184.4,111.2,184.1,106.7,183.6z
		 M106.9,183.4c5.4-0.7,10.4-1.2,15.2-1.6c2.4-0.2,4.8-0.3,7.2-0.4c2.4-0.1,4.8,0,7.2,0l-1.4,1.4c0-1.4,0-2.8,0.1-4.1
		c0-1.4,0.1-2.8,0.2-4.1l0.9,0.9c-2.6-0.2-5.2-0.4-7.8-0.5c-2.6-0.1-5.2,0.1-7.8,0.3c-2.6,0.3-5.2,0.5-7.8,0.5
		c-2.6,0-5.2-0.1-7.8-0.2l1.1-1.3c0.2,1.4,0.3,2.8,0.4,4.3C106.7,180.1,106.8,181.7,106.9,183.4z"/>
</g>
<g>
	<polyline class="st5" points="299.4,159.1 297.7,149.4 189.7,153.3 189.9,158.5 	"/>
	<path class="st5" d="M299.3,159.1c-1-3.2-1.7-6.4-2.5-9.6l1,0.8c-9,0.7-18,1.3-27,1c-4.5-0.1-9-0.2-13.5,0c-4.5,0.2-9,0.6-13.5,1
		c-4.5,0.4-9,0.7-13.5,1c-4.5,0.3-9,0.5-13.5,0.7c-9,0.3-18,0.3-27,0l0.6-0.6c-0.1,1.7-0.2,3.5-0.3,5.2l-0.3,0
		c-0.2-1.7-0.4-3.5-0.6-5.2l-0.1-0.5l0.6-0.1c9-1,18-1.6,27-2c4.5-0.2,9-0.3,13.5-0.3c4.5-0.1,9-0.1,13.5,0c4.5,0.1,9,0.1,13.5,0
		c4.5-0.1,9-0.5,13.5-1c9-1,18-1.1,27-1l0.9,0l0.1,0.8c0.4,3.3,0.8,6.6,1,9.9L299.3,159.1z"/>
</g>
<g>
	<path class="st5" d="M309,179c-0.4-1.7-0.7-3.4-0.7-5.1c0-0.8-0.1-1.7,0-2.5c0-0.4,0-0.8,0.1-1.3c0-0.4,0.1-0.8,0.1-1.3
		c0.3-1.7,0.8-3.3,1-5c0.2-1.7,0.2-3.3,0-5l0.8,0.8l-21.9,0.3l-21.9,0.2l-43.9,0.2c-7.3,0-14.6,0-21.9-0.1l-21.9-0.2l-21.9-0.3
		l-21.9-0.4l0.8-0.8c0.2,4,0.4,8.1,0.6,12.1l0.5,12.1l-0.3,0l-1.2-12.1c-0.4-4-0.8-8-1.1-12.1l-0.1-0.8l0.8,0l21.9-0.4l21.9-0.2
		l21.9-0.1c7.3,0,14.6,0,21.9,0l43.9,0.3l21.9,0.3l21.9,0.4l0.9,0l-0.2,0.8c-0.4,1.7-0.6,3.3-0.5,5c0.1,1.7,0.4,3.4,0.5,5.1
		c0,0.4,0,0.8,0,1.3c0,0.4,0,0.8-0.1,1.3c-0.1,0.8-0.2,1.7-0.3,2.5c-0.3,1.7-0.7,3.3-1.3,5L309,179z"/>
</g>
<g>
	<path class="st3" d="M82.5,183.8c13.2-0.6,26.4-1.1,39.6-1.6l39.6-1.3c26.4-0.9,52.9-1.5,79.3-2.1c26.4-0.6,52.9-1.1,79.3-1.4
		l39.7-0.5c13.2,0,26.4-0.2,39.7-0.2c-13.2,0.6-26.4,1.1-39.6,1.6l-39.6,1.3c-26.4,0.9-52.9,1.5-79.3,2.1
		c-26.4,0.6-52.9,1.1-79.3,1.4l-39.7,0.5C109,183.7,95.8,183.9,82.5,183.8z"/>
</g>
</svg>
