<?xml version="1.0" encoding="utf-8"?>
<!-- Generator: Adobe Illustrator 24.1.3, SVG Export Plug-In . SVG Version: 6.00 Build 0)  -->
<svg version="1.1" id="Layer_1" xmlns="http://www.w3.org/2000/svg" xmlns:xlink="http://www.w3.org/1999/xlink" x="0px" y="0px"
	 viewBox="0 0 600 600" style="enable-background:new 0 0 600 600;" xml:space="preserve">
<style type="text/css">
	.st0{fill:#B884C1;}
	.st1{fill:#FA9A86;}
	.st2{fill:#863399;}
	.st3{fill:#E64783;}
	.st4{fill:none;stroke:#000000;stroke-width:6;stroke-miterlimit:10;}
	.st5{fill:#FFDD92;}
	.st6{fill:#FFC844;}
	.st7{fill:#6CCA98;}
	.st8{fill:#1C355E;}
	.st9{fill:#757F9B;}
	.st10{fill:#E74F3D;}
	.st11{fill:#FFFFFF;}
	.st12{fill:#F697B2;}
	.st13{fill:#A9E0C0;}
	.st14{fill:none;stroke:#000000;stroke-width:2;stroke-miterlimit:10;}
	.st15{opacity:0.41;}
	.st16{stroke:#000000;stroke-width:4;stroke-miterlimit:10;}
	.st17{fill:none;stroke:#414042;stroke-width:2;stroke-miterlimit:10;}
	.st18{fill:#52BD8C;}
	.st19{fill:#EC5535;}
	.st20{stroke:#000000;stroke-miterlimit:10;}
	.st21{fill:none;stroke:#000000;stroke-miterlimit:10;}
	.st22{fill:none;stroke:#000000;stroke-width:3;stroke-miterlimit:10;}
	.st23{fill:#FFFFFF;stroke:#000000;stroke-width:6;stroke-miterlimit:10;}
	.st24{fill:none;}
	.st25{fill:none;stroke:#000000;stroke-width:8;stroke-linecap:round;stroke-linejoin:round;stroke-miterlimit:10;}
	.st26{fill-rule:evenodd;clip-rule:evenodd;fill:#E74F3D;}
	.st27{fill-rule:evenodd;clip-rule:evenodd;fill:#6CCA98;}
	.st28{fill-rule:evenodd;clip-rule:evenodd;fill:#E64783;}
	.st29{fill:none;stroke:#000000;stroke-width:12;stroke-miterlimit:10;}
	.st30{fill:none;stroke:#000000;stroke-width:10;stroke-miterlimit:10;}
</style>
<g>
	<g>
		<polygon points="511.92,234.01 566.76,240.12 510.68,226.94 533.53,203.11 507.67,220.63 513.3,170.13 501.29,221.23 
			479.18,200.04 495.72,224.45 440.86,218.34 495.49,231.17 475.17,252.37 498.1,236.83 491.51,296.03 505.52,236.42 528.44,258.4 
					"/>
	</g>
	<g>
		<g>
			<path d="M511.86,235.02c-0.56-0.85-0.45-0.49-0.55-0.6C512.29,235.82,511.86,234.97,511.86,235.02z"/>
		</g>
		<g>
			<polygon points="521.51,248.83 521.3,248.61 522.78,250.6 			"/>
		</g>
		<g>
			<path d="M524.41,254.02c0.64,0.74,1.44,1.5,2.1,2.09c-0.73-1.04-1.44-2.02-1.81-2.63l-0.04-0.13l-0.84-0.99
				c0.73,1.04,1.59,2.26,2.35,3.34C525.58,255.16,524.93,254.55,524.41,254.02z"/>
		</g>
		<g>
			<path d="M520.06,249.32c0.33,0.41-1.35-1.21,1.4,1.37c-0.13-0.14-0.17-0.18-0.24-0.26C520.97,250.2,520.64,249.87,520.06,249.32z
				"/>
		</g>
		<g>
			<path d="M521.22,250.43C522.42,251.58,520.48,249.64,521.22,250.43L521.22,250.43z"/>
		</g>
		<g>
			<path d="M515.66,245.16l1.62,1.47c-0.3-0.35-1.7-1.7-1.16-1.22C514.49,243.88,514.79,244.23,515.66,245.16z"/>
		</g>
		<g>
			<path d="M514.08,243.82l0.84,0.76C514.78,244.44,514.57,244.23,514.08,243.82z"/>
		</g>
		<g>
			<path d="M516.69,246.21l-1.77-1.62c0.21,0.24,0.19,0.3,0.81,0.75C515.55,245.24,515.92,245.53,516.69,246.21z"/>
		</g>
		<g>
			<path d="M517.65,247.17c0.86,0.88,1.98,1.99,0.36,0.52C521.04,250.56,520.68,250.04,517.65,247.17z"/>
		</g>
		<g>
			<path d="M524.53,254.39l1.15,1.18l0.59,0.48c-0.13-0.11-0.65-0.62-1.07-1.04C524.77,254.59,524.43,254.26,524.53,254.39z"/>
		</g>
		<g>
			<path d="M504.96,235.29c-0.01,0.11,0.03,0,0.13-0.33c0.22,0.26,0.73,0.8,0.86,0.97l1.7,1.57c-0.76-0.76-2.07-2.07-2.57-2.57
				C505.01,235.16,504.97,235.27,504.96,235.29z"/>
		</g>
		<g>
			<path d="M505.94,235.92l-0.79-0.73l-0.61,2.81c0.31-1.33,0.52-2.23,0.63-2.73C505.91,235.95,506.05,236.05,505.94,235.92z"/>
		</g>
		<g>
			<polygon points="513.66,243.7 516.62,246.34 513.11,243.17 			"/>
		</g>
		<g>
			<polygon points="502.57,245.44 502.79,244.09 502.36,246.5 			"/>
		</g>
		<g>
			<path d="M501.18,251.4c0.16-1-0.44,1.32-0.24,0.27c-0.37,1.62-0.63,3.02-0.87,4.27C500.36,254.61,500.7,253.21,501.18,251.4z"/>
		</g>
		<g>
			<path d="M499.67,258.05c0.13-0.66,0.26-1.35,0.41-2.11C499.93,256.65,499.79,257.34,499.67,258.05z"/>
		</g>
		<g>
			<path d="M503.58,241.99c-0.06,0.18-0.21,0.51-0.54,1.82l0.32-0.9C503.43,242.64,503.51,242.32,503.58,241.99z"/>
		</g>
		<g>
			<path d="M503.37,242.89l-0.01,0.03c-0.24,1-0.4,1.7-0.47,2C502.95,244.66,503.1,244.05,503.37,242.89z"/>
		</g>
		<g>
			<path d="M503.64,241.76c-0.02,0.09-0.04,0.15-0.06,0.23C503.61,241.91,503.63,241.86,503.64,241.76z"/>
		</g>
		<g>
			<path d="M509.16,239.25c-1.07-0.94-3.24-2.94-1.24-0.89C508.7,239.01,507.56,237.83,509.16,239.25z"/>
		</g>
		<g>
			<path d="M504.04,240.64l0.61-2.49c-0.04,0.04-0.18,0.48-0.05-0.21L504.04,240.64z"/>
		</g>
		<g>
			<polygon points="503.78,241.87 504.04,240.64 503.81,241.57 			"/>
		</g>
		<g>
			<path d="M500.77,253.8c-0.21,1.09-0.48,2.27-0.79,3.6c0.35-1.43,0.7-2.9,1.04-4.3C501.04,252.9,501.12,252.27,500.77,253.8z"/>
		</g>
		<g>
			<path d="M502.04,248.5c-0.02,0.07-0.04,0.17-0.05,0.24C502.04,248.59,502.07,248.48,502.04,248.5z"/>
		</g>
		<g>
			<path d="M496.9,270.51c0.02-0.07,0.04-0.13,0.07-0.21c0-0.02,0-0.03-0.01-0.05L496.9,270.51z"/>
		</g>
		<g>
			<path d="M501.1,252.87c0.27-1.07,0.4-1.72,0.51-2.33c-0.18,0.8-0.38,1.66-0.58,2.57C501.02,253.19,501.02,253.21,501.1,252.87z"
				/>
		</g>
		<g>
			<path d="M498.86,261.72c0.15-0.56,0.32-1.19,0.49-1.84C499.19,260.41,498.87,261.51,498.86,261.72z"/>
		</g>
		<g>
			<path d="M501.88,249.09c0.01-0.05,0.02-0.1,0.03-0.16C501.81,249.28,501.83,249.24,501.88,249.09z"/>
		</g>
		<g>
			<path d="M501.88,249.09c-0.1,0.55-0.19,0.99-0.27,1.44c0.14-0.65,0.27-1.26,0.38-1.79C501.95,248.87,501.91,249,501.88,249.09z"
				/>
		</g>
		<g>
			<path d="M496.63,274.64c-0.05-0.21,0.52-3.05,1.2-5.47c0.49-2.41-0.19-0.92-0.86,1.13c0.02,0.08,0.06,0.09-0.46,2.57
				c0.26-0.85,1.41-5.44,1.01-3.34c-0.72,3.28-0.66,2.67-1.09,4.25c0.44-1.32-0.8,4.2-0.46,3.53l0.61-2.88
				C496.62,274.39,496.42,275.43,496.63,274.64z"/>
		</g>
		<g>
			<path d="M498.08,265.61l0.23-1.02c-0.29,1.15-0.52,1.97-0.96,3.48c-0.35,1.7-0.4,2.06-0.39,2.18l1.19-4.99L498.08,265.61z"/>
		</g>
		<g>
			<path d="M499.38,260.04c-0.08,0.82-0.61,3.27-0.15,1.8c0.69-2.98,0.4-2.11,0.78-3.9c-1.1,4.81,0.27-1.39-0.61,2.06
				c0.21-0.95,0.4-1.8,0.58-2.6c-0.22,0.86-0.43,1.69-0.63,2.47c0.01-0.04,0.02-0.07,0.03-0.11l0.01-0.02l0,0
				c0.06-0.2,0.09-0.27,0.02-0.04c0,0.02-0.02,0.07-0.02,0.1C499.4,259.85,499.39,259.94,499.38,260.04
				c-0.35,1.39-0.08,0.21,0.01-0.23c0-0.02,0-0.06,0-0.06l-0.01,0.02l-1.07,4.83C498.55,263.57,498.85,262.3,499.38,260.04z"/>
		</g>
		<g>
			<path d="M505.82,236.66c-0.12-0.13-0.12-0.14-0.13-0.16C505.45,236.29,505.37,236.23,505.82,236.66z"/>
		</g>
		<g>
			<path d="M505.05,237.96c0.07-0.36,0.11-0.7,0.38-1.82c0.04,0.04,0.11,0.11,0.19,0.18c0.84,0.85,0,0.08,0.07,0.19
				c0.28,0.24,0.76,0.67,0.97,0.85c0.21,0.17,0.16,0.09-0.79-0.86l-0.3-0.26c-0.05-0.05-0.1-0.1-0.15-0.15
				c-0.15,0.56-0.3,1.15-0.45,1.72c-0.14,0.49-0.27,0.96-0.38,1.36c-0.22,0.77-0.37,1.27-0.34,1.1
				C504.47,239.71,504.65,239.24,505.05,237.96z"/>
		</g>
		<g>
			<path d="M502.21,249.14l-0.89,4.02l0.57-2.02l-0.08,0.09C502.37,248.96,502.18,249.44,502.21,249.14z"/>
		</g>
		<g>
			<polygon points="496.74,270.96 496.75,270.4 496.37,272.76 			"/>
		</g>
		<g>
			<polygon points="495.53,276.17 495.48,275.96 495.21,277.35 			"/>
		</g>
		<g>
			<path d="M497.16,216.45l0.89,0.82C497.63,216.89,497.36,216.64,497.16,216.45z"/>
		</g>
		<g>
			<path d="M490.84,210.39l-0.19-0.11C490.96,210.53,491.1,210.63,490.84,210.39z"/>
		</g>
		<g>
			<path d="M492.18,235.53c1.29-1.21,2.75-2.53,2.53-2.45l-0.45,0.32C493.41,234.29,492.75,234.97,492.18,235.53z"/>
		</g>
		<g>
			<path d="M469.14,221.46c-0.17-0.03-0.34-0.06-0.51-0.09c-0.43-0.01-0.83-0.02-1.19-0.03
				C467.95,221.38,468.53,221.42,469.14,221.46z"/>
		</g>
		<g>
			<path d="M470.43,221.15l2.3,0.33C472.21,221.41,471.47,221.3,470.43,221.15z"/>
		</g>
		<g>
			<path d="M510.97,176.94l0.62-3.14C510.66,177.79,511.06,176.33,510.97,176.94z"/>
		</g>
		<g>
			<path d="M495.93,261.75c0.21-1.51,0.36-2.71,0.49-3.76C496.15,259.8,495.89,261.26,495.93,261.75z"/>
		</g>
		<g>
			<path d="M493.87,214.9c0.55,0.5,0.79,0.7,0.79,0.67C494.1,215.05,493.78,214.77,493.87,214.9z"/>
		</g>
		<g>
			<path d="M496.9,253.62c-0.04,0.27-0.08,0.53-0.11,0.8c-0.1,1.11-0.21,2.22-0.37,3.57C496.61,256.64,496.81,255.11,496.9,253.62z"
				/>
		</g>
		<g>
			<path d="M560.85,238.1c0.17,0.05,0.38,0.1,0.54,0.14C561.55,238.26,561.27,238.19,560.85,238.1z"/>
		</g>
		<g>
			<path d="M526.58,235.17c0.5,0.05,1.3,0.14,2.06,0.22C528.27,235.34,527.65,235.27,526.58,235.17z"/>
		</g>
		<g>
			<path d="M493.49,284.46C493.47,284.67,493.51,284.32,493.49,284.46L493.49,284.46z"/>
		</g>
		<g>
			<path d="M492.94,288.84c-0.09,0.48-0.14,0.79-0.18,0.99C492.82,289.55,492.87,289.25,492.94,288.84z"/>
		</g>
		<g>
			<path d="M497.48,242.31c0-0.03,0.01-0.06,0.01-0.1C497.43,242.54,497.44,242.48,497.48,242.31z"/>
		</g>
		<g>
			<path d="M493.34,285.5c0-0.02,0-0.04,0-0.04c0.03-0.19,0.06-0.42,0.1-0.67c-0.02,0.11-0.04,0.28-0.1,0.67
				C493.33,285.52,493.33,285.51,493.34,285.5z"/>
		</g>
		<g>
			<path d="M493.46,284.74c0.02-0.05,0.03-0.09,0.04-0.12C493.56,284.31,493.58,284.16,493.46,284.74z"/>
		</g>
		<g>
			<path d="M493.52,284.07c-0.03,0.25-0.06,0.49-0.09,0.72c0.04-0.28,0.04-0.26,0.05-0.34
				C493.49,284.38,493.51,284.26,493.52,284.07z"/>
		</g>
		<g>
			<path d="M523.05,209.82c0.06-0.04,0.14-0.08,0.21-0.13C524.18,209.01,523.77,209.3,523.05,209.82z"/>
		</g>
		<g>
			<path d="M471.91,226.15c0.05,0.01,0.08,0.02,0.13,0.02c-0.05-0.01-0.12-0.03-0.16-0.04L471.91,226.15z"/>
		</g>
		<g>
			<path d="M467.92,225.3c1.72,0.27,2.68,0.51,3.95,0.84l-1.24-0.61L467.92,225.3z"/>
		</g>
		<g>
			<path d="M504.04,206.79l-0.75,2.76c0.63-3.4,1.26-5.82,0.51-3.24c0.24,0.47-2.51,10.84-2.27,11.31l-0.5,1.81
				c0.12-0.52,0.14-0.61,0.25-1.13c-0.1,0.36-0.18,0.66-0.25,0.94c-0.03,0.12-0.06,0.23-0.08,0.32c-0.02,0.12-0.03,0.23-0.04,0.38
				c-0.09-0.03-0.2-0.07-0.45-0.25c-0.45-0.38-1.17-1.03-2.17-2.01c-1.17-1.16-1.97-1.99-1.13-1.24l-2.71-2.48
				c-0.77-0.74-0.54-0.61,0.23,0.13l-4.06-3.86l0.04,0.02c-0.61-0.53-1.98-1.72-2.64-2.3c-0.99-1.02,0.54,0.47,0.31,0.19l-2.3-2.09
				c-0.3-0.32-0.38-0.42-0.27-0.34c0.06,0.04,0.16,0.12,0.3,0.25c0.1,0.09,0.23,0.2,0.37,0.32c0.56,0.5,1.43,1.3,2.2,2.05
				c-0.93-1.12-1.41-1.55-2.2-2.26c-0.28-0.26-0.59-0.54-0.95-0.86c-0.4-0.37-0.85-0.79-1.37-1.28c-1.05-1-2.35-2.26-4.4-4.29
				l3.49,3.29c-1.18-1.25-2.54-2.6-4.07-4.1c-1.6-1.56-3.4-3.32-5.52-5.39c0.23,0.36,0.48,0.75,0.74,1.14
				c-0.11-0.17-0.33-0.53-0.61-0.99c1.42,1.43,3.51,3.55,4.75,4.8c1.18,1.22,1.51,1.62,0.09,0.31c-0.8-0.79-1.77-1.74-2.84-2.74
				c0.47,0.67,1.01,1.45,1.62,2.32c-0.63-0.72,1.19,1.91,3.22,4.9l-0.61-0.62c1.27,1.84,1.88,2.67,2.34,3.3
				c0.44,0.59,0.77,1.03,1.47,1.97c1.53,2.28,1.71,2.77,1.98,3.36c2.38,3.56-1.49-2.56,1.37,1.62c1.95,2.98,3.4,5.02,5.87,8.49
				c1.35,2.09-0.33-0.31,0.14,0.46l0.67,0.88l0.31,0.41l0.18,0.21c0.15,0.22,0.04,0.13-0.01,0.1c0.28,0.36,0.37,0.41,0.51,0.56
				c-0.02,0.03-0.15,0.05-1-0.02c-0.03,0.01-0.07,0.01-0.13,0.01c-0.08-0.01-0.18-0.01-0.29-0.02c-0.22-0.03-0.5-0.06-0.83-0.1
				c-0.65-0.09-1.48-0.21-2.4-0.34c-1.84-0.27-4.03-0.57-5.84-0.67c-0.88-0.14,0.44-0.05,0.17-0.14c-4.95-0.42-4.24-0.38-8.32-0.65
				l-3.44-0.49c2.53,0.4-0.73,0.18-3.59-0.02c0.9,0.16,1.66,0.29,2.17,0.38l-4.54-0.42c-0.54-0.09-0.08-0.09,0.67-0.07
				c-0.31-0.02-0.6-0.04-0.84-0.05c-1.61-0.24-0.76-0.24,0.41-0.2c0.55,0.09,1.09,0.19,1.62,0.28c1.13,0.03,2.19,0.04,1.97-0.08
				c-0.3-0.01-0.87-0.06-1.49-0.12c0.3,0.01,0.49,0,0.35-0.03c-0.15-0.03-0.63-0.05-1.37-0.09l-1.01-0.29l-0.26,0.04l-5.92-0.77
				c-0.91-0.06-1.8-0.12-2.71-0.18c-0.45-0.03-0.91-0.06-1.38-0.09c-0.59-0.04-1.2-0.09-1.81-0.14c-1.96-0.15-4.09-0.32-6.68-0.52
				c-0.7-0.06-1.46-0.13-2.27-0.2c0.45,0,0.13-0.08-0.3-0.17c-0.45-0.09-1.02-0.19-1.44-0.29c0.67,0.08,1.29,0.14,1.81,0.15
				c1.13,0.11,2.41,0.23,3.78,0.36c1.42,0.13,3.08,0.3,4.81,0.5c-2.65-0.31-2.35-0.35-1.67-0.3l-7.56-0.71l-0.28,0.02
				c-0.87-0.22-1.42-0.17-2.43-0.21c0.61,0.09,0.63,0.15,0.17,0.15c-0.45,0-1.29-0.03-2.12-0.07c0.71,0.21,1.4,0.41,1.9,0.56
				c-0.16,0-0.69-0.12-1.91-0.56c0.11,0,0.24,0,0.39,0c-0.14,0-0.27,0-0.39,0c0.65,0.24,1.15,0.42,2.04,0.64
				c0.82,0.21,2.06,0.48,2.59,0.73c-0.5-0.15-0.7-0.22-1.14-0.3c0.53,0.13,1.2,0.32,1.78,0.49c2.14,0.5,4.08,1,2.92,0.78l-1.06-0.25
				c3.11,0.73,7.83,1.83,11.9,2.78c3.22,0.73,5.92,1.3,6.31,1.28c0.04,0.04-0.7,0.1-1.01,0.07l8.92,1.36
				c-0.81,0,2.05,1.12-2.04,0.26c1.16,0.3,2.6,0.67,5.08,1.19c-0.79-0.21-1.93-0.72-0.83-0.48c2.94,0.9,2.05,0.59,5.7,1.63
				c-1.19-0.32,0.21-0.29,2.09,0.17c-0.3-0.03,0.09,0.31-0.6,0.18l4.76,0.83c-1.18-0.23-0.26,0.18,0.77,0.51
				c-0.24-0.08,0.78,0.16,2.01,0.45c0.62,0.15,1.29,0.31,1.88,0.45c0.47,0.11,0.87,0.2,1.12,0.26l-0.23-0.07l-0.45-0.12l-0.99-0.27
				c0.59,0.14,1.1,0.26,1.57,0.36c0.3,0.06,0.57,0.11,0.81,0.15c-0.24,0.3-0.44,0.56-0.64,0.81c-0.33,0.4-0.65,0.78-0.99,1.2
				c-0.69,0.83-1.52,1.78-2.95,3.26c0.41-0.51,0.86-1.41-1.07,0.55c-0.77,1.01-3.36,4.51-6.59,8.04l-0.69,0.61l-1.55,1.75
				c0.07-0.15,0.27-0.46,0.72-1.04c0.42-0.54,1.23-1.51,1.95-2.38c1.49-1.79,3.09-3.69,4.24-5.02c-1.46,1.43-0.46,0.34-2.57,2.55
				c-0.8,0.73,1.07-1.28,1.69-1.93l-4.96,5.1c0.04-0.01,0.02,0.04-0.06,0.14c-0.04,0.05-0.09,0.12-0.15,0.19
				c-0.03,0.04-0.07,0.08-0.1,0.12c-0.06,0.07-0.13,0.14-0.19,0.22c-0.54,0.58-1.27,1.38-2,2.18c-1.44,1.55-2.73,2.96-2.3,2.61
				l6.67-7.21c0.17-0.05-0.52,0.83-1.69,2.19c-0.36,0.4-0.75,0.84-1.16,1.3c-0.41,0.45-0.85,0.93-1.3,1.43
				c-0.89,0.97-1.81,1.95-2.87,3.04c-0.7,0.68-0.96,0.84-0.98,0.76c-0.04-0.07,0.18-0.4,0-0.25c-0.28,0.34-1.89,2.07-3.19,3.44
				c1.05-0.72,1.85-1.26,1.98-1.33l-2.58,1.83l0.34-0.38c-0.18,0.18-0.36,0.36-0.53,0.54c1.58-1.06,3.34-2.31,4.91-3.42
				c1.61-1.14,3-2.11,4.88-3.3c0.36-0.23,0.8-0.52,1.28-0.83c0.25-0.15,0.5-0.31,0.75-0.47c0.17-0.1,0.34-0.2,0.5-0.3
				c0.64-0.39,1.18-0.72,1.23-0.81c-1.68,0.91-2.32,0.62-1.35-0.21c0.34-0.22,5.16-3.28,6.31-3.94c1.67-0.95-2.18,1.91-0.76,1.1
				c0.03-0.08,0.88-0.72,1.23-0.98c1.03-0.65-0.34,0.4,1.85-1.11c0.27-0.39,4.48-3.02,0.96-0.82c1.06-0.75,1.64-1.13,2.26-1.54
				c0.52-0.34,1.08-0.72,2.14-1.42c-0.17,0.06-0.01-0.11,0.51-0.54c0.04,0.59-0.09,2.88-0.24,4.48c-0.03-0.16-0.15,0.42-0.2,0.7
				c-0.63,5.29-0.96,8.13-1.55,13.06c-0.09,0.45-0.41,2.83-0.37,1.8c-0.05,0.71-0.06,1.37-0.23,2.89c-0.47,2.93,0.36-3.4-0.07-1.17
				c0.08,0.2-0.3,3.95-0.48,6.13c0.23-0.65,0.59-5,0.77-7.18c0.21,0.01,0.01,3.82-0.47,8.98c-0.4,4.1-0.33,1.76-0.38,2.48
				c-0.45,3.85-0.54,5.5-0.63,6.98c-0.04,0.74-0.09,1.44-0.17,2.36c-0.05,0.45-0.1,0.94-0.16,1.52c-0.05,0.33-0.1,0.72-0.16,1.17
				c-0.16,0.87-0.27,1.22-0.34,1.24c-0.07,0.05-0.1-0.22-0.19,0.17c0.29-3.07,0.64-4.98,0.88-7.21l-0.37,2.78
				c0.07-1.07,0.29-3.3,0.46-4.51c-0.14,0.81-0.39,2.94-0.69,5.57c-0.31,2.77-0.69,6.07-1.03,9.1c-0.18,1.69-0.36,3.27-0.5,4.61
				c-0.04,0.44-0.09,1.03-0.12,1.44c-0.01,0.11-0.02,0.2-0.03,0.27c-0.01,0.07-0.02,0.16,0,0.06c0.03-0.13,0.07-0.38,0.13-0.79
				l0.15-1.54c0.22-1.53,0.22-1.14,0.22-0.91c0,0.26,0.01,0.44,0.17-0.85c0,0.21,0,0.36,0.01,0.49c0.21-1.01,0.43-2.06,0.67-3.2
				c0.2-0.9,0.36-1.6,0.52-2.19l-0.06,0.94c0.02-0.16-0.06,0.06-0.16,0.44c-0.1,0.38-0.23,0.92-0.36,1.57
				c0.19-0.99,0.33-1.31,0.58-2.21c0.21-0.74,0.47-1.84,0.62-2.86c-0.14,0.43-0.25,0.77-0.35,1.02c0.17-0.93,0.37-1.97,0.57-3.06
				c0.07-0.37,0.14-0.75,0.22-1.14l0.17-0.76l0.28-1.15c-0.24,0.68-0.28,0.86-0.34,1.14c-0.02,0.07-0.03,0.14-0.06,0.23
				c-0.02,0.07-0.06,0.25-0.07,0.26c-0.03,0.09-0.08,0.21-0.15,0.29c0.07-0.05,0.08,0.03,0.03,0.29c-0.04,0.25-0.13,0.62-0.21,0.96
				c-0.08,0.35-0.16,0.67-0.21,0.95c-0.05,0.27-0.08,0.55-0.03,0.56c-0.04-0.06-0.07-0.09-0.1-0.04c-0.04,0.05-0.09,0.25-0.14,0.36
				c-0.04,0.1-0.07,0.14,0.01-0.49c-0.11,0.67-0.14,1-0.27,1.45c-0.04,0.19-0.11,0.61-0.16,0.88c0,0.01,0,0,0,0l0,0.05
				c-0.03,0.16-0.03,0.19,0,0.01c-0.01,0.13-0.03,0.33-0.07,0.65c-0.09,0.48-0.25,1.25-0.42,2.16c-0.01-0.26,0.1-1.4,0.08-1.52
				c0.08-0.61,0.1-0.65,0.12-0.71c0.02-0.05,0.06-0.13,0.14-0.65c-0.03-0.02-0.05-0.1-0.06-0.25c0.03-0.17,0.11-0.57,0.2-1.06
				c0.19-1.1,0.32-1.82,0.32-1.37c0,0,0,0.01,0,0.03l0.01-0.08l0.12-1.03c0.06-0.35,0.12-0.75,0.19-1.15
				c0.02-0.15,0.03-0.29,0.05-0.42c0.05-0.52,0.09-0.99,0.13-1.41c0.2-1.56,0.32-3.97,0.25-2.6l0.51-5.22l0.03-0.04
				c0.59-5.14,0.99-10.6,1.85-16.46c0.16-1.73,0.33-3.53,0.68-6.42l0.16-0.55c0.21-2.23,0.84-6.66,0.85-7.63
				c0.03-0.16,0.07-0.34,0.11-0.54c0.02-0.11,0.04-0.23,0.06-0.35c0.03-0.2,0.06-0.42,0.09-0.64c0.11-0.92,0.25-1.98,0.39-3.14
				c-1.19,0.8-2.52,1.7-3.92,2.64c-0.87,0.59-1.77,1.21-2.66,1.82c-1.77,1.22-3.48,2.4-4.69,3.2l-0.05,0.19
				c-1.12,0.76-2.21,1.51-3.37,2.31c-0.58,0.4-1.17,0.81-1.79,1.25c-0.29,0.21-0.59,0.42-0.9,0.65c-0.02,0.06-0.04,0.12-0.05,0.17
				c-0.42,0.32-0.95,0.68-1.44,1c-0.41,0.26-0.87,0.55-1.34,0.85c0.67-0.66,1.23-1.23,1.7-1.72c0.07-0.01-0.27,0.32-0.65,0.69
				c0.75-0.69,1.1-1.03,1.43-1.38c0.6-0.65,1.2-1.3,1.8-1.95c1.91-2.08,3.78-4.11,5.56-5.84c0.83-0.92,1.46-1.56,2.08-2.16
				c-0.08,0.08-0.15,0.16-0.21,0.23c0.09-0.09,0.22-0.23,0.35-0.37c0.39-0.38,0.8-0.77,1.23-1.2c-0.38,0.36-0.73,0.71-1.04,1
				c0.65-0.7,1.64-1.75,2.61-2.79l0.5-0.35c0.08-0.08,0.14-0.15,0.22-0.24c0.12-0.12,0.23-0.23,0.32-0.32
				c0.14-0.15,0.26-0.27,0.35-0.37c0.18-0.19,0.25-0.28,0.24-0.3c-0.01-0.03-0.38,0.29-0.75,0.61c0.63-0.7,1.22-1.34,1.68-1.85
				c-0.08-0.02-0.13-0.03-0.18-0.04c-0.54-0.23-2.32-0.63-3.05-0.79c-0.96-0.21-1.97-0.43-2.7-0.71c-0.95-0.12-6.96-1.56-7.74-1.52
				c-0.04-0.04-0.44-0.15,0.3,0.03c-1.53-0.39-3.07-0.77-4.46-1.04l-0.62-0.3l-3.41-0.59c-2.02-0.57-2.85-0.82-0.8-0.46
				c-4.94-0.97-3.99-0.87-8.19-1.67l0.23-0.05c-1.49-0.35-3.9-0.78-4.78-1.07c-0.46-0.13-1.1-0.31-1.9-0.51
				c-0.75-0.19-1.65-0.41-2.65-0.65c-1.21-0.29-2.67-0.64-4.21-1.01c-1.31-0.32-2.69-0.65-4-0.97c1.24,0.16,2.43,0.32,3.51,0.46
				c-2.89-0.52,0.02-0.06,1.08,0.09c0.52,0.07,0.77,0.1,0.38-0.02c0.78,0.16,1.45,0.27,1.22,0.3c0.71,0.05,1.58,0.17,2.15,0.24
				c0.6,0.07,1.16,0.13,1.73,0.19c0.71,0.07,1.43,0.12,2.21,0.16c0.5,0.13-0.96-0.01-0.52,0.09c0.36,0.02,1.42,0.1,1.88,0.19
				c0.45,0.09-0.66-0.02-1.37-0.06c4.55,0.49,5.03,0.33,5.39,0.17c2.29,0.35,3.45,0.47,5.12,0.52c0.8,0.15,2.13,0.37-0.7,0.08
				c1.59,0.19,9.7,1.18,9.88,1.04c0.49,0.1,2.22,0.26,2.64,0.29c3.57,0.4,3.88,0.44,7.38,0.83l-0.97-0.13
				c0.7-0.02,1.43,0.05,2.34,0.16c0.95,0.12,1.83,0.25,3.73,0.45l-0.08,0.01c0.47,0.06,0.89,0.11,1.15,0.15
				c-1.93-2.94-2.07-3.11-2.5-3.72c-0.39-0.55-0.83-1.19-2.47-3.75l0.1,0.36c-0.55-0.35-3.07-4.8-5.24-7.83l0.7,1.15
				c-0.61-0.82-1.33-2.05-2.05-3.28c-0.08-0.13-0.21-0.35-0.24-0.42l-0.13-0.25c-0.06-0.14-0.12-0.27-0.18-0.39
				c-0.09-0.22-0.14-0.34-0.22-0.48c-0.02-0.08,0.25,0.3,0.39,0.48c-0.16-0.3-0.21-0.39-0.3-0.52c-0.09-0.11-0.19-0.22-0.31-0.34
				c-0.24-0.25-0.48-0.45-1.16-1.42c0.1,0.07,0.44,0.47,0.65,0.71c0.22,0.24,0.35,0.37,0.18,0.11c0.02,0.01,0.01-0.01-0.03-0.06
				c0.17,0.17,0.21,0.1,0.7,0.51c0.54,0.45,1,0.85,2.48,2.37c-0.54-0.61-1.07-1.21,0.3,0.04c2.07,1.95,5.38,5.5,7.37,7.12
				c0.25,0.26,0.33,0.37,0.33,0.39c0.8,0.74,2.09,1.94,3.31,3.06c0.61,0.56,1.2,1.1,1.7,1.56c0.32,0.29,0.6,0.55,0.85,0.77
				c0.25,0.22,0.45,0.4,0.61,0.53c0.09,0.11,0.19,0.23,0.34,0.39c0.65-2.07,1.28-5,1.91-7.94c0.63-2.89,1.18-5.45,1.35-5.39
				l1.51-6.51l0,0.18c1-4.15,1.26-5.64,1.51-7.13c0.25-0.96,0.12-0.25,0.12-0.16c0.75-3.03,1.16-4.7,1.5-6.25
				c0.16-0.78,0.32-1.52,0.51-2.4c0.12-0.65,0.26-1.4,0.44-2.36c0.04,0,0.08,0.02,0.11,0.07c0.07-0.45,0.34-1.43,0.59-2.35
				c0.27-0.98,0.48-1.73,0.85-3.39c-0.02,0.28-0.04,0.49-0.03,0.64c-0.03,0.17-0.09,0.43-0.11,0.46c0.01,0.32-0.15,1.67-0.32,2.89
				c-0.18,1.29-0.35,2.58-0.5,3.65c-0.05,0.49-0.1,0.96-0.15,1.4c-0.04,0.5-0.09,0.96-0.12,1.39c-0.06,0.85-0.09,1.52-0.06,1.98
				l-0.39,4.53c0.69-5.84,0.1,0.89,0.44-1.5c-0.23,2.3-0.8,5.93-0.51,3.1l0.07-0.44c-0.12-1.06-0.89,7.25-1.03,7.08
				c-0.7,6.13-1.4,12.18-2.08,18.14c4.91-3.3,9.74-6.54,14.47-9.72l-1.14,0.55l3.14-2.11c0.85-0.52,1.18-0.63-1.05,0.88
				c0.62-0.35,1.54-1.01,2.31-1.58c0.38-0.29,0.73-0.55,0.99-0.75c0.26-0.2,0.42-0.34,0.4-0.34c1.35-0.87,0.91-0.5,0.52-0.19
				c-0.09,0.08-0.2,0.16-0.3,0.24c-0.09,0.07-0.15,0.12-0.35,0.27c-0.3,0.22-0.43,0.32-0.09,0.09l0.91-0.63l-0.15,0.08
				c0.69-0.56,1.03-0.88,2.56-1.91c0.77-0.48-0.19,0.26,0.09,0.08c-0.07,0.06-0.05,0.05,0.19-0.12c-0.03,0.03-0.07,0.07-0.11,0.12
				l-1.53,1.57l1.27-1.11c-0.53,0.66-1.96,2.03-0.42,0.66c-0.31,0.28-0.66,0.6-1.02,0.96c-0.17,0.17-0.36,0.35-0.56,0.55
				c-0.24,0.24-0.5,0.5-0.77,0.77c-1.29,1.33-2.8,2.9-4.29,4.44c-2.97,3.09-5.81,6.09-6.52,6.78c-0.81,0.91-1.62,1.79-2.48,2.71
				c-0.99,1.04-2.01,2.11-3.12,3.27c0.74,0.18,1.54,0.36,2.36,0.56c-0.19-0.05-0.51-0.14-0.64-0.19c-0.15-0.05-0.2-0.09-0.09-0.09
				c0.09,0,0.37,0.05,0.75,0.12c0.37,0.07,0.91,0.19,1.66,0.38c-1.19,0.07,5.53,1.45,7.92,2.26c-2.16-0.67,8.64,1.99,5.25,0.96
				c2.53,0.62,0.13,0.16,2.03,0.69c6.06,1.29,13.27,3.2,20.73,4.91c0.13-0.02-1.11-0.37,0.51-0.06l0.49,0.14l0.29,0.1l0.48,0.17
				c0.28,0.1,0.49,0.19,0.63,0.26c0.34,0.07,0.79,0.11,1.28,0.18c0.46,0.07,1.08,0.19,1.22,0.3c0.11-0.01,0.14-0.06,0.88,0.1
				l0.16,0.04c1.32,0.35,2.54,0.65,3.91,0.98c-1.49-0.16-2.98-0.33-4.48-0.5c-3.73-0.41-7.49-0.82-11.24-1.23
				c-4.89-0.56-9.78-1.15-14.61-1.82c2.04,0.31,0.67,0.17-0.89,0c1.02,0.13-0.04,0.11,0.16,0.19l-6.32-0.87
				c-1.17,0.04-6.79-0.75-7.47-0.66l2.01,0.2c-2.69-0.11,3.69,0.83,3.27,1.02c3.01,0.12,7.84,1.19,12.78,1.43
				c1.08,0.17-0.93-0.03-0.36,0.09c1.25,0.04,2.76,0.18,5.53,0.54l-0.32-0.01c3.91,0.42,6.7,0.75,9.6,1.11
				c4.05,0.48,8.27,0.98,14.37,1.71l-1.8-0.32c1.07,0.13,1.83,0.22,2.39,0.29c0.55,0.04,0.84,0.06,1.27,0.09
				c0-0.14-0.73-0.14-1.59-0.17c-1.97-0.22-3.82-0.44-3.11-0.46c0.74,0.12,1.7,0.25,2.86,0.4c1.65,0.13,3.28,0.13,4.87,0.16
				c-1.33-0.45-2.39-0.83-2-0.87c-0.53-0.23-0.71-0.23-0.84-0.22c-0.13,0.01-0.23,0.03-0.98-0.23c0.05-0.02,0.1-0.04,0.17-0.05
				l-0.11-0.04l-1.81-0.33c-2.52-0.61-3.52-0.94-3.38-0.97c0.77,0.17,2.18,0.5,3.01,0.68c-1.72-0.45-4.7-1.14-7.21-1.72
				c-2.9-0.67-3.65-0.82-4.18-0.96l3.27,0.82c-4.05-0.94-8.55-1.99-13.02-3.03c-4.27-1-8.52-1.98-12.28-2.79l0.56,0.19
				c-5.75-1.24-4.57-1.14-10.86-2.57l0.23,0.04c-1.27-0.24-2.96-0.61-4.67-1.02c0.4,0.08,0.42,0.06,0.25,0.01
				c-0.14-0.04-0.42-0.13-0.7-0.21c-0.37-0.12-0.56-0.2-0.05-0.12c-0.2-0.04-0.37-0.07-0.48-0.09c0.53-0.59,0.85-0.95,1.07-1.19
				c0.35-0.38,0.52-0.59,0.67-0.77c0.3-0.36,0.51-0.64,1.8-2.13l0.74-0.64c0.93-1.09,0.98-1.21,3.2-3.55
				c-1.77,1.96,1.53-1.39-0.45,0.82c2.41-2.37,4.11-4.22,5.51-5.73c0.7-0.75,1.32-1.42,1.91-2.03c0.3-0.3,0.59-0.59,0.88-0.87
				c0.34-0.32,0.68-0.63,1.03-0.96c0.76-0.88,0.67-0.85,0.28-0.48c-0.19,0.19-0.48,0.47-0.82,0.81c-0.24,0.25-0.52,0.53-0.81,0.82
				c-1.14,1.17-2.38,2.49-1.79,1.84c-0.53,0.5-0.13,0,0.6-0.81c0.37-0.4,0.81-0.88,1.25-1.36c0.49-0.52,0.98-1.03,1.38-1.45
				c0.82-0.85,1.66-1.62,3.04-2.95c1.36-1.3,3.31-3.23,5.86-5.87c-0.38,0.26-0.78,0.53-1.2,0.81c0.66-0.46,0.77-0.54,1.34-0.93
				c-0.03,0.03-0.08,0.09-0.14,0.15l0.17-0.18c-1.07,0.69-2.49,1.68-3.85,2.62c-1.38,0.96-2.7,1.86-4.14,2.78
				c-1.96,1.51-4.1,2.76-4.15,3.04l5.44-3.74c-1.7,1.18-3.4,2.42-4.88,3.48c-1.29,0.94-2.79,1.99-4.75,3.25
				c0.28-0.24,1.4-1.06,2.17-1.62c-1.16,0.72-2.15,1.5-3.35,2.25c0.11-0.19,1.36-1.05,2.88-2.09c1.6-1.09,2.98-2.02,5.34-3.72
				c-0.45,0.28-1.17,0.77-1.93,1.29c-0.52,0.36-1.07,0.75-1.54,1.08c-0.87,0.61-1.43,1-0.86,0.48c-1.66,1.45-4.45,2.98-7.38,5.21
				l0.13-0.23c-0.47,0.34-1.44,1.07-2.33,1.66l1.52-1.22c-1.2,0.89-2.4,1.67-3.6,2.44c-0.6,0.39-1.19,0.77-1.79,1.15l-0.88,0.59
				l-0.3,0.21l-0.12,0.1c1-0.67,1.56-1.03,1.86-1.23c0.38-0.24,0.44-0.25,0.41-0.21c-0.05,0.09-0.46,0.44,0.61-0.24
				c-0.6,0.42-1.12,0.79-1.57,1.1c-0.42,0.29-0.78,0.53-1.09,0.74c-0.38,0.25-0.62,0.38-0.78,0.45c0.05-0.23,0.1-0.42,0.15-0.6
				c0.02-0.08,0.04-0.16,0.07-0.25c0.02-0.09,0.04-0.09,0.08-0.41c0.16-1.01,0.35-2.45,0.61-4.92c-0.11,1.11-0.54,4.17-0.4,2.42
				c0.2-1.56,0.47-3.62,0.64-4.57c0.58-5.44-0.21,0.82-0.03-1.5c0.35-1.84,0.24-2.68,0.46-5.07l0.12,0
				c0.77-6.19-0.07-1.67,0.65-7.24l-0.1,2.38l0.28-2.92l0.07,0.62c0.25-3.18,0.39-4.16,0.77-7.26c-0.16,0.71-0.17-0.43,0.13-3.18
				c0.14-0.93,0.14-0.67,0.16-0.66c0.01,0,0.02-0.03,0.06-0.37c0.05-0.45,0.14-1.27,0.3-2.73c-0.03,0.59-0.06,1.26-0.14,2.16
				c-0.04,0.36-0.08,0.74-0.12,1.17c-0.04,0.34-0.1,0.72-0.18,1.14c0.02,0.18-0.02,0.88,0,1.06c0.07-0.51,0.14-1.07,0.22-1.66
				c0.09-0.77,0.18-1.56,0.26-2.34c0.21-2.01,0.42-3.89,0.54-5.08c-0.11,0.94-0.25,2.05-0.32,2.64l0.73-8.04
				c0.02-0.13,0.03-0.21,0.04-0.24c0.05-0.44,0.09-0.55,0.14-0.58c-0.01,0.18-0.03,0.44-0.04,0.7c0.03-0.32,0.06-0.62,0.09-0.91
				c-0.06-0.17-0.14-0.27-0.16-0.89c0.13-0.33,0.24-0.83,0.48-0.63c-0.19-0.13-0.34-0.46-0.43-0.98c0.01-0.12-0.01-0.4-0.04-0.56
				c-0.03-0.18-0.06-0.25-0.03-0.19l-0.02-0.05c-0.15,0.15-0.32,0.31-0.53,0.69c-0.2,0.36-0.45,0.95-0.68,1.5
				c-0.41,1.79-0.8,3.45-1.18,5c-0.08,0.44-0.25,1.22-0.57,2.64c-0.63,2.59-1.22,5.03-1.85,7.59c-0.44,1.8-0.88,3.68-1.32,5.85
				l-0.75,2.41c-0.75,3.39,0.99-3.26-0.26,2.38c-0.88,3.99-0.5,1.45-0.87,2.84c-0.38,2-1.01,5.48-2.01,9.11
				C503.54,208.87,503.79,207.93,504.04,206.79z M478.69,198.81c0.43,0.39,1.07,0.98,1.68,1.54c0.65,0.61,1.33,1.25,1.75,1.7
				C481.33,201.48,480.48,200.59,478.69,198.81z M462.91,220.53c0.62,0.03,1.56,0.15,2.63,0.32
				C464.76,220.78,463.88,220.67,462.91,220.53z M493.77,281.05l0-0.02C493.9,280.24,493.85,280.51,493.77,281.05z M493.51,282.89
				c0.01,0.07,0.04-0.07,0.08-0.24c-0.04,0.1,0-0.28,0.06-0.73C493.59,282.16,493.52,282.53,493.51,282.89z M529.89,206.16
				c-0.03,0.01-0.07,0.02-0.11,0.03c0.32-0.23,0.49-0.35,0.57-0.41c-0.09,0.09-0.13,0.12-0.16,0.14
				C530.11,205.99,530,206.08,529.89,206.16z"/>
		</g>
		<g>
			<path d="M470.26,221.19c0.23,0.05,0.29,0.08,0.35,0.1C470.93,221.31,470.94,221.28,470.26,221.19z"/>
		</g>
		<g>
			<path d="M510.86,177.49l0.05-0.21c0.03-0.16,0.04-0.26,0.06-0.34L510.86,177.49z"/>
		</g>
		<g>
			<path d="M490.27,242.73c-0.66,0.43-1.04,0.66-1.3,0.8C488.95,243.59,489.26,243.41,490.27,242.73z"/>
		</g>
		<g>
			<path d="M494.17,281.52l-0.16,0.82l0,0.01l0-0.01c0.08-0.34,0.08-0.26,0.12-0.33C494.13,281.86,494.13,281.7,494.17,281.52z"/>
		</g>
		<g>
			<path d="M498.8,265.06c0.08-0.36,0.16-0.74,0.24-1.09l-0.08,0.08C498.62,265.54,498.42,266.6,498.8,265.06z"/>
		</g>
		<g>
			<path d="M494.37,282.43c0.05,0.24,0.3-1,0.57-2.23c-0.02,0.08-0.04,0.16-0.06,0.25C494.81,280.12,494.63,281.09,494.37,282.43z"
				/>
		</g>
		<g>
			<path d="M495.03,279.8c0.12-0.52,0.24-1.04,0.36-1.55C495.38,278.04,495.23,278.88,495.03,279.8z"/>
		</g>
		<g>
			<path d="M493.42,284.31c-0.1,0.62,0.28-1.35,0.17-0.72c0.14-0.69,0.08-0.5,0.01-0.3C493.53,283.47,493.44,283.78,493.42,284.31z"
				/>
		</g>
		<g>
			<path d="M494.75,282.27c-0.07,0.11-0.13,0.19-0.19,0.25l-0.18,1.2L494.75,282.27z"/>
		</g>
		<g>
			<path d="M491.88,294.04l0.5-1.97c0.03-0.24,0.13-0.71,0.24-1.2C492.28,292.32,491.97,293.51,491.88,294.04z"/>
		</g>
		<g>
			<path d="M492.62,290.87c0.18-0.74,0.36-1.52,0.48-2.14C493,289.19,492.78,290.18,492.62,290.87z"/>
		</g>
		<g>
			<polygon points="493.87,286.15 493.69,286.8 493.35,288.24 493.25,288.63 493.34,288.27 			"/>
		</g>
		<g>
			<path d="M494.84,267.16l0.3-2.99c-0.01-0.31-0.13,0.5-0.23,1.62C494.86,266.5,494.75,267.61,494.84,267.16z"/>
		</g>
		<g>
			<path d="M493.5,276.15c0.12-0.8,0.15-0.86,0.24-1.31l-0.14-0.11L493.5,276.15z"/>
		</g>
		<g>
			<path d="M494.43,267.44c-0.01-0.3,0.36-4.35-0.05-0.56C494.39,267.19,494.09,270.18,494.43,267.44z"/>
		</g>
		<g>
			<polygon points="486.18,244.99 486.81,244.56 486.58,244.41 			"/>
		</g>
		<g>
			<path d="M493.13,232.66c-2.51,2.53-0.47,0.72-2.75,2.99c-0.54,0.65,1.86-1.86,1.31-1.2
				C493.13,232.85,493.94,232.06,493.13,232.66z"/>
		</g>
		<g>
			<path d="M491.69,234.45c-0.23,0.26-0.47,0.53-0.73,0.82C491.37,234.8,491.57,234.59,491.69,234.45z"/>
		</g>
		<g>
			<polygon points="518.25,234.1 515.98,233.8 517.44,234.05 			"/>
		</g>
		<g>
			<path d="M513.86,233.81l-0.52-0.22l-1.38-0.01C512.48,233.63,513.48,233.73,513.86,233.81z"/>
		</g>
		<g>
			<path d="M477.93,199.75l0.33,0.42c-0.21-0.38-0.74-1.17-1.8-2.75L477.93,199.75z"/>
		</g>
		<g>
			<polygon points="499.35,218.34 498.97,217.96 499.59,218.76 			"/>
		</g>
		<g>
			<path d="M505.56,198.96c-0.24,1.04-0.52,2.26-0.75,3.3C505.31,199.99,505.8,198.72,505.56,198.96z"/>
		</g>
	</g>
</g>
<g>
	<g>
		<polygon points="118.95,461.51 171.82,445.68 115.05,455.48 126.76,424.61 109.81,450.85 95.24,402.17 104.17,453.9 75.54,443.04 
			100.3,459.03 47.42,474.87 102.73,465.32 92.32,492.77 107.34,469.5 124.43,526.57 114.01,466.23 143.7,477.49 		"/>
	</g>
	<g>
		<g>
			<path d="M119.3,462.46c-0.85-0.56-0.6-0.27-0.74-0.34C120.01,463.02,119.28,462.41,119.3,462.46z"/>
		</g>
		<g>
			<polygon points="133.57,471.39 133.3,471.27 135.44,472.52 			"/>
		</g>
		<g>
			<path d="M138.28,475.03c0.87,0.43,1.91,0.81,2.75,1.1c-1.08-0.67-2.11-1.3-2.7-1.71l-0.09-0.1l-1.16-0.58
				c1.08,0.67,2.34,1.46,3.47,2.16C139.8,475.63,138.96,475.32,138.28,475.03z"/>
		</g>
		<g>
			<path d="M132.44,472.41c0.46,0.25-1.72-0.59,1.82,0.71c-0.17-0.08-0.22-0.1-0.33-0.14C133.62,472.86,133.18,472.69,132.44,472.41
				z"/>
		</g>
		<g>
			<path d="M133.94,472.98C135.49,473.56,132.94,472.54,133.94,472.98L133.94,472.98z"/>
		</g>
		<g>
			<path d="M126.76,470.3l2.06,0.72c-0.41-0.2-2.23-0.9-1.54-0.67C125.18,469.58,125.59,469.79,126.76,470.3z"/>
		</g>
		<g>
			<path d="M124.78,469.69l1.07,0.38C125.67,469.98,125.39,469.87,124.78,469.69z"/>
		</g>
		<g>
			<path d="M128.11,470.86l-2.26-0.8c0.29,0.14,0.3,0.21,1.04,0.37C126.68,470.42,127.14,470.54,128.11,470.86z"/>
		</g>
		<g>
			<path d="M129.37,471.37c1.13,0.47,2.6,1.05,0.53,0.34C133.82,473.16,133.29,472.83,129.37,471.37z"/>
		</g>
		<g>
			<path d="M138.53,475.33l1.52,0.63l0.73,0.21c-0.16-0.05-0.85-0.32-1.4-0.54C138.83,475.42,138.39,475.24,138.53,475.33z"/>
		</g>
		<g>
			<path d="M113.05,465.4c0.03,0.1,0.03-0.02-0.01-0.35c0.3,0.15,0.99,0.45,1.17,0.55l2.18,0.78c-1-0.4-2.71-1.1-3.37-1.36
				C113.04,465.26,113.05,465.38,113.05,465.4z"/>
		</g>
		<g>
			<path d="M114.2,465.6l-1.02-0.37l0.54,2.82c-0.24-1.35-0.4-2.26-0.48-2.76C114.18,465.64,114.35,465.68,114.2,465.6z"/>
		</g>
		<g>
			<polygon points="124.34,469.73 128.1,471.01 123.63,469.46 			"/>
		</g>
		<g>
			<polygon points="114.82,475.68 114.5,474.35 115.04,476.73 			"/>
		</g>
		<g>
			<path d="M115.87,481.71c-0.24-0.99,0.11,1.39-0.11,0.34c0.3,1.63,0.6,3.02,0.87,4.27C116.37,484.99,116.13,483.56,115.87,481.71z
				"/>
		</g>
		<g>
			<path d="M117.08,488.42c-0.14-0.66-0.29-1.35-0.45-2.1C116.77,487.03,116.92,487.72,117.08,488.42z"/>
		</g>
		<g>
			<path d="M114.4,472.11c0.01,0.19,0.01,0.55,0.22,1.89l-0.06-0.95C114.51,472.76,114.46,472.44,114.4,472.11z"/>
		</g>
		<g>
			<path d="M114.56,473.01l0,0.03c0.17,1.02,0.29,1.72,0.34,2.02C114.86,474.81,114.76,474.19,114.56,473.01z"/>
		</g>
		<g>
			<path d="M114.36,471.88c0.01,0.09,0.03,0.15,0.04,0.24C114.4,472.02,114.39,471.96,114.36,471.88z"/>
		</g>
		<g>
			<path d="M118.46,467.4c-1.35-0.45-4.13-1.44-1.49-0.34C117.95,467.36,116.43,466.73,118.46,467.4z"/>
		</g>
		<g>
			<path d="M114.29,470.69l-0.41-2.53c-0.02,0.05,0.02,0.52-0.13-0.17L114.29,470.69z"/>
		</g>
		<g>
			<polygon points="114.54,471.92 114.29,470.69 114.45,471.63 			"/>
		</g>
		<g>
			<path d="M116.43,484.07c0.23,1.08,0.44,2.28,0.68,3.62c-0.24-1.45-0.49-2.94-0.72-4.36
				C116.33,483.14,116.16,482.52,116.43,484.07z"/>
		</g>
		<g>
			<path d="M115.53,478.7c0.02,0.08,0.03,0.17,0.05,0.24C115.56,478.79,115.54,478.67,115.53,478.7z"/>
		</g>
		<g>
			<path d="M119.41,500.97c-0.01-0.07-0.01-0.14-0.02-0.22c-0.01-0.02-0.02-0.03-0.03-0.05L119.41,500.97z"/>
		</g>
		<g>
			<path d="M116.37,483.09c-0.17-1.09-0.31-1.73-0.44-2.35c0.15,0.81,0.3,1.67,0.47,2.59C116.42,483.42,116.44,483.44,116.37,483.09
				z"/>
		</g>
		<g>
			<path d="M117.77,492.11c-0.08-0.57-0.17-1.22-0.27-1.89C117.56,490.78,117.71,491.92,117.77,492.11z"/>
		</g>
		<g>
			<path d="M115.61,479.31c-0.01-0.05-0.02-0.1-0.03-0.16C115.62,479.51,115.62,479.46,115.61,479.31z"/>
		</g>
		<g>
			<path d="M115.61,479.31c0.12,0.55,0.22,0.99,0.31,1.43c-0.13-0.66-0.24-1.27-0.35-1.8C115.59,479.07,115.6,479.21,115.61,479.31z
				"/>
		</g>
		<g>
			<path d="M120.78,504.88c-0.13-0.17-0.71-3.02-1.04-5.5c-0.49-2.41-0.54-0.77-0.35,1.38c0.06,0.07,0.09,0.06,0.58,2.55
				c-0.1-0.88-0.83-5.56-0.38-3.47c0.62,3.3,0.43,2.72,0.66,4.33c-0.11-1.39,0.9,4.18,0.96,3.43l-0.56-2.89
				C120.67,504.64,120.89,505.69,120.78,504.88z"/>
		</g>
		<g>
			<path d="M118.58,496l-0.19-1.03c0.19,1.17,0.29,2.02,0.48,3.58c0.34,1.7,0.44,2.05,0.49,2.16l-0.86-5.06L118.58,496z"/>
		</g>
		<g>
			<path d="M117.59,490.36c0.24,0.78,0.72,3.24,0.57,1.71c-0.53-3.01-0.45-2.1-0.81-3.89c0.87,4.86-0.3-1.39,0.25,2.14
				c-0.18-0.96-0.33-1.81-0.48-2.62c0.13,0.88,0.26,1.72,0.39,2.52c0-0.04-0.01-0.08-0.01-0.11l0-0.02l0,0
				c-0.02-0.21-0.03-0.28,0.01-0.04c0,0.02,0.01,0.07,0.02,0.1C117.53,490.18,117.56,490.27,117.59,490.36
				c0.22,1.41,0.01,0.23-0.08-0.21c-0.01-0.02-0.02-0.05-0.03-0.06l0,0.02l0.9,4.86C118.21,493.94,117.99,492.65,117.59,490.36z"/>
		</g>
		<g>
			<path d="M114.38,466.33c-0.16-0.07-0.16-0.08-0.18-0.09C113.89,466.13,113.79,466.1,114.38,466.33z"/>
		</g>
		<g>
			<path d="M114.18,467.82c-0.08-0.36-0.17-0.69-0.36-1.82c0.05,0.02,0.15,0.06,0.24,0.09c1.11,0.46,0.03,0.07,0.14,0.15
				c0.35,0.12,0.96,0.32,1.22,0.4c0.26,0.08,0.19,0.02-1.07-0.48l-0.38-0.13c-0.07-0.03-0.13-0.05-0.2-0.08
				c0.08,0.57,0.17,1.18,0.26,1.76c0.07,0.51,0.13,0.99,0.18,1.4c0.1,0.8,0.15,1.31,0.12,1.15
				C114.33,469.66,114.31,469.16,114.18,467.82z"/>
		</g>
		<g>
			<path d="M115.94,479.23l0.75,4.05l-0.27-2.08l-0.04,0.11C116.01,479,116.03,479.51,115.94,479.23z"/>
		</g>
		<g>
			<polygon points="119.43,501.45 119.23,500.93 119.79,503.24 			"/>
		</g>
		<g>
			<polygon points="120.36,506.72 120.23,506.54 120.53,507.92 			"/>
		</g>
		<g>
			<path d="M98.5,451.12l1.14,0.4C99.11,451.33,98.76,451.21,98.5,451.12z"/>
		</g>
		<g>
			<path d="M90.31,448l-0.22-0.03C90.48,448.09,90.65,448.13,90.31,448z"/>
		</g>
		<g>
			<path d="M101.38,470.62c0.71-1.62,1.54-3.41,1.36-3.25l-0.29,0.47C102.03,469,101.69,469.88,101.38,470.62z"/>
		</g>
		<g>
			<path d="M74.68,466.68c-0.16,0.04-0.33,0.08-0.5,0.12c-0.4,0.16-0.77,0.31-1.11,0.44C73.55,467.07,74.1,466.88,74.68,466.68z"/>
		</g>
		<g>
			<path d="M75.74,465.9l2.25-0.6C77.48,465.43,76.76,465.62,75.74,465.9z"/>
		</g>
		<g>
			<path d="M95.76,409.35l-0.65-3.13C95.8,410.25,95.6,408.75,95.76,409.35z"/>
		</g>
		<g>
			<path d="M115.08,493.29c-0.4-1.47-0.73-2.63-1.03-3.65C114.52,491.4,114.86,492.85,115.08,493.29z"/>
		</g>
		<g>
			<path d="M94.87,450.97c0.7,0.24,1,0.34,0.99,0.31C95.14,451.02,94.73,450.89,94.87,450.97z"/>
		</g>
		<g>
			<path d="M112.8,485.42c0.07,0.26,0.14,0.51,0.21,0.78c0.34,1.06,0.67,2.13,1.05,3.43C113.71,488.32,113.3,486.83,112.8,485.42z"
				/>
		</g>
		<g>
			<path d="M165.58,446.13c0.18-0.03,0.39-0.06,0.55-0.08C166.29,446,166.01,446.05,165.58,446.13z"/>
		</g>
		<g>
			<path d="M132.9,456.84c0.48-0.14,1.25-0.38,1.99-0.6C134.52,456.33,133.92,456.51,132.9,456.84z"/>
		</g>
		<g>
			<path d="M121.72,515.14C121.79,515.35,121.69,515.01,121.72,515.14L121.72,515.14z"/>
		</g>
		<g>
			<path d="M122.93,519.38c0.11,0.47,0.18,0.78,0.22,0.98C123.09,520.09,123.03,519.79,122.93,519.38z"/>
		</g>
		<g>
			<path d="M108.91,474.78c-0.01-0.03-0.02-0.06-0.03-0.09C108.96,475.02,108.94,474.96,108.91,474.78z"/>
		</g>
		<g>
			<path d="M121.99,516.16c-0.01-0.02-0.02-0.04-0.02-0.04c-0.05-0.19-0.11-0.41-0.17-0.65c0.03,0.11,0.07,0.28,0.17,0.65
				C121.99,516.18,121.99,516.17,121.99,516.16z"/>
		</g>
		<g>
			<path d="M121.81,515.41c0-0.05-0.01-0.09-0.01-0.13C121.73,514.98,121.69,514.83,121.81,515.41z"/>
		</g>
		<g>
			<path d="M121.6,514.77c0.07,0.25,0.14,0.48,0.2,0.7c-0.07-0.27-0.06-0.26-0.08-0.33C121.69,515.06,121.66,514.95,121.6,514.77z"
				/>
		</g>
		<g>
			<path d="M119.74,434.88c0.04-0.06,0.09-0.13,0.14-0.2C120.46,433.7,120.19,434.12,119.74,434.88z"/>
		</g>
		<g>
			<path d="M79.06,469.92c0.05-0.01,0.08-0.02,0.13-0.03c-0.05,0.01-0.12,0.02-0.17,0.02L79.06,469.92z"/>
		</g>
		<g>
			<path d="M75.06,470.69c1.69-0.43,2.66-0.58,3.96-0.78l-1.38-0.08L75.06,470.69z"/>
		</g>
		<g>
			<path d="M101.06,439.53l0.39,2.84c-0.75-3.38-1.12-5.85-0.8-3.18c0.4,0.34,1.93,10.96,2.33,11.3l0.25,1.86
				c-0.1-0.53-0.11-0.61-0.21-1.14c0.05,0.37,0.09,0.68,0.13,0.96c0.02,0.12,0.04,0.23,0.05,0.33c0.02,0.12,0.06,0.22,0.11,0.36
				c-0.09,0.01-0.21,0.02-0.51-0.05c-0.56-0.17-1.48-0.49-2.79-1c-1.53-0.61-2.59-1.06-1.52-0.7l-3.46-1.22
				c-1-0.39-0.73-0.35,0.26,0.04l-5.25-1.96l0.04,0.01c-0.77-0.25-2.49-0.81-3.33-1.08c-1.31-0.55,0.68,0.22,0.35,0.05l-2.93-1.02
				c-0.4-0.18-0.51-0.24-0.38-0.21c0.07,0.01,0.19,0.05,0.37,0.11c0.13,0.04,0.29,0.09,0.47,0.15c0.71,0.24,1.82,0.64,2.82,1.02
				c-1.29-0.67-1.9-0.88-2.91-1.22c-0.36-0.13-0.75-0.27-1.21-0.43c-0.51-0.19-1.09-0.4-1.76-0.65c-1.36-0.51-3.05-1.16-5.72-2.23
				l4.5,1.66c-1.57-0.69-3.35-1.4-5.35-2.18c-2.08-0.81-4.43-1.73-7.19-2.81c0.36,0.24,0.74,0.5,1.13,0.76
				c-0.17-0.12-0.51-0.36-0.95-0.67c1.86,0.76,4.62,1.89,6.25,2.56c1.56,0.66,2.03,0.9,0.21,0.25c-1.04-0.41-2.31-0.91-3.69-1.41
				c0.7,0.44,1.5,0.94,2.4,1.5c-0.86-0.41,1.84,1.3,4.87,3.25l-0.81-0.33c1.89,1.19,2.77,1.72,3.45,2.12
				c0.63,0.37,1.11,0.65,2.12,1.24c2.3,1.5,2.65,1.88,3.14,2.32c3.58,2.34-2.38-1.77,1.9,0.95c2.96,1.98,5.09,3.28,8.72,5.51
				c2.06,1.4-0.42-0.15,0.31,0.37l0.96,0.55l0.45,0.25l0.25,0.12c0.22,0.15,0.09,0.11,0.03,0.09c0.4,0.22,0.5,0.24,0.69,0.31
				c-0.01,0.04-0.12,0.11-0.93,0.37c-0.02,0.02-0.06,0.04-0.11,0.06c-0.08,0.03-0.17,0.06-0.28,0.1c-0.22,0.06-0.49,0.14-0.8,0.24
				c-0.63,0.17-1.45,0.38-2.34,0.62c-1.8,0.47-3.93,1.05-5.64,1.67c-0.87,0.21,0.38-0.22,0.11-0.2c-4.72,1.55-4.05,1.31-7.91,2.65
				l-3.36,0.9c2.48-0.62-0.6,0.45-3.31,1.39c0.89-0.21,1.64-0.39,2.15-0.5l-4.35,1.39c-0.54,0.13-0.11-0.05,0.59-0.33
				c-0.29,0.1-0.57,0.2-0.79,0.28c-1.58,0.41-0.8,0.08,0.3-0.34c0.54-0.13,1.08-0.25,1.6-0.38c1.05-0.42,2.03-0.82,1.78-0.84
				c-0.28,0.1-0.82,0.28-1.42,0.47c0.27-0.11,0.45-0.19,0.31-0.16c-0.15,0.03-0.6,0.2-1.3,0.45l-1.04,0.13l-0.22,0.14l-5.75,1.6
				c-0.86,0.3-1.71,0.6-2.56,0.9c-0.43,0.15-0.86,0.3-1.3,0.46c-0.56,0.19-1.14,0.39-1.72,0.58c-1.86,0.62-3.89,1.3-6.35,2.13
				c-0.67,0.22-1.4,0.45-2.17,0.7c0.42-0.17,0.09-0.13-0.34-0.04c-0.45,0.09-1.01,0.22-1.44,0.29c0.65-0.19,1.24-0.38,1.72-0.57
				c1.08-0.34,2.31-0.73,3.62-1.15c1.36-0.43,2.96-0.93,4.62-1.42c-2.56,0.75-2.3,0.59-1.65,0.37l-7.23,2.3l-0.25,0.13
				c-0.89,0.14-1.37,0.4-2.31,0.76c0.6-0.16,0.64-0.11,0.22,0.07c-0.41,0.18-1.2,0.47-1.98,0.76c0.73-0.09,1.45-0.17,1.97-0.23
				c-0.14,0.06-0.68,0.16-1.98,0.24c0.1-0.04,0.22-0.09,0.36-0.15c-0.13,0.05-0.25,0.1-0.36,0.15c0.69-0.03,1.22-0.06,2.13-0.21
				c0.84-0.12,2.09-0.36,2.66-0.34c-0.52,0.06-0.73,0.07-1.17,0.17c0.53-0.08,1.23-0.18,1.83-0.25c2.17-0.37,4.14-0.67,2.99-0.42
				l-1.07,0.19c3.14-0.55,7.93-1.38,12.04-2.1c3.25-0.59,5.96-1.12,6.31-1.29c0.05,0.02-0.61,0.37-0.9,0.46l8.74-2.24
				c-0.75,0.31,2.32,0.23-1.78,1.04c1.19-0.18,2.66-0.4,5.14-0.9c-0.81,0.11-2.06,0.09-0.96-0.12c3.06-0.32,2.12-0.26,5.88-0.73
				c-1.22,0.17,0.08-0.34,1.99-0.67c-0.29,0.09,0.21,0.25-0.49,0.4l4.71-1.1c-1.18,0.26-0.17,0.27,0.91,0.17
				c-0.25,0.02,0.78-0.16,2.03-0.37c0.62-0.11,1.3-0.22,1.91-0.32c0.47-0.08,0.88-0.16,1.13-0.2l-0.24,0.03l-0.46,0.06l-1.01,0.14
				c0.59-0.1,1.12-0.2,1.58-0.28c0.3-0.07,0.56-0.12,0.81-0.18c-0.1,0.37-0.19,0.69-0.27,0.99c-0.15,0.5-0.29,0.98-0.44,1.49
				c-0.31,1.03-0.71,2.24-1.44,4.15c0.18-0.63,0.24-1.64-0.77,0.92c-0.31,1.23-1.33,5.46-2.92,9.98l-0.4,0.83l-0.74,2.22
				c0-0.17,0.07-0.53,0.25-1.23c0.17-0.66,0.54-1.87,0.86-2.96c0.67-2.23,1.4-4.61,1.94-6.28c-0.78,1.88-0.29,0.5-1.37,3.36
				c-0.45,0.98,0.48-1.6,0.8-2.44l-2.57,6.63c0.03-0.03,0.03,0.03,0,0.15c-0.02,0.06-0.04,0.14-0.06,0.23
				c-0.01,0.05-0.03,0.1-0.05,0.15c-0.03,0.09-0.06,0.18-0.09,0.28c-0.26,0.75-0.63,1.77-0.99,2.79c-0.71,1.99-1.36,3.79-1.1,3.3
				l3.32-9.25c0.13-0.12-0.15,0.97-0.7,2.67c-0.17,0.51-0.36,1.06-0.56,1.65c-0.2,0.58-0.41,1.19-0.64,1.82
				c-0.44,1.24-0.9,2.5-1.45,3.92c-0.38,0.9-0.55,1.15-0.61,1.08c-0.06-0.05,0.01-0.44-0.1-0.23c-0.12,0.42-0.93,2.65-1.59,4.41
				c0.68-1.07,1.21-1.89,1.3-2l-1.66,2.7l0.16-0.48c-0.09,0.24-0.18,0.47-0.27,0.7c1.04-1.59,2.17-3.43,3.18-5.07
				c1.04-1.68,1.94-3.12,3.21-4.94c0.24-0.35,0.54-0.79,0.86-1.26c0.17-0.24,0.34-0.48,0.51-0.73c0.12-0.16,0.23-0.32,0.34-0.47
				c0.44-0.61,0.8-1.12,0.82-1.23c-1.19,1.49-1.89,1.48-1.32,0.34c0.23-0.34,3.47-5.03,4.27-6.1c1.17-1.53-1.26,2.61-0.27,1.31
				c0-0.08,0.53-1,0.75-1.38c0.7-1.01-0.15,0.5,1.27-1.74c0.1-0.46,2.94-4.53,0.56-1.13c0.68-1.1,1.07-1.68,1.48-2.3
				c0.35-0.52,0.72-1.08,1.42-2.14c-0.13,0.12-0.06-0.1,0.25-0.7c0.27,0.53,1.04,2.68,1.53,4.21c-0.09-0.13,0.03,0.44,0.08,0.72
				c1.49,5.11,2.29,7.86,3.68,12.62c0.09,0.45,0.73,2.76,0.37,1.8c0.23,0.68,0.48,1.29,0.92,2.75c0.71,2.88-1-3.26-0.52-1.05
				c0.15,0.16,1.27,3.75,1.95,5.83c-0.05-0.69-1.42-4.84-2.1-6.91c0.2-0.07,1.5,3.51,3.08,8.45c1.23,3.94,0.38,1.75,0.62,2.43
				c1.09,3.72,1.66,5.27,2.16,6.67c0.25,0.7,0.49,1.36,0.76,2.24c0.13,0.43,0.28,0.91,0.45,1.47c0.09,0.33,0.19,0.7,0.31,1.14
				c0.19,0.87,0.23,1.23,0.18,1.28c-0.04,0.07-0.18-0.17-0.11,0.23c-0.93-2.94-1.36-4.83-2.01-6.98l0.74,2.7
				c-0.35-1.01-1.03-3.15-1.34-4.33c0.19,0.8,0.79,2.85,1.55,5.4c0.79,2.67,1.74,5.86,2.61,8.78c0.49,1.62,0.95,3.15,1.34,4.44
				c0.14,0.42,0.32,0.99,0.45,1.37c0.03,0.1,0.06,0.19,0.08,0.26c0.02,0.06,0.05,0.16,0.03,0.05c-0.03-0.13-0.09-0.38-0.19-0.78
				l-0.46-1.48c-0.39-1.49-0.25-1.14-0.15-0.92c0.1,0.24,0.18,0.4-0.17-0.85c0.08,0.2,0.14,0.33,0.2,0.45
				c-0.2-1.01-0.41-2.07-0.63-3.21c-0.17-0.91-0.3-1.61-0.38-2.22l0.31,0.89c-0.05-0.16-0.03,0.08,0.02,0.46
				c0.06,0.39,0.15,0.94,0.29,1.58c-0.21-0.98-0.21-1.34-0.33-2.26c-0.1-0.76-0.28-1.88-0.55-2.87c0.04,0.45,0.07,0.81,0.08,1.07
				c-0.2-0.92-0.43-1.95-0.67-3.04c-0.08-0.37-0.16-0.75-0.25-1.13l-0.14-0.77l-0.19-1.17c0.05,0.72,0.08,0.9,0.13,1.18
				c0.01,0.07,0.02,0.15,0.04,0.24c0.01,0.07,0.04,0.25,0.04,0.27c0,0.09,0,0.23-0.02,0.33c0.04-0.08,0.08,0,0.14,0.26
				c0.06,0.25,0.12,0.62,0.18,0.97c0.06,0.35,0.12,0.68,0.18,0.96c0.06,0.27,0.14,0.54,0.19,0.53c-0.06-0.04-0.1-0.05-0.11,0
				c-0.02,0.07,0.01,0.26,0.01,0.38c0,0.11-0.01,0.15-0.18-0.45c0.17,0.66,0.27,0.97,0.32,1.44c0.04,0.19,0.14,0.61,0.2,0.87
				c0,0.01,0,0,0,0l0.01,0.04c0.04,0.16,0.04,0.19,0,0.01c0.04,0.13,0.1,0.31,0.19,0.62c0.1,0.48,0.26,1.25,0.45,2.15
				c-0.11-0.23-0.45-1.33-0.52-1.43c-0.17-0.6-0.16-0.64-0.16-0.71c0-0.06,0-0.15-0.13-0.65c-0.03-0.01-0.08-0.07-0.16-0.21
				c-0.04-0.17-0.12-0.56-0.23-1.05c-0.25-1.09-0.41-1.8-0.24-1.39c0,0,0.01,0.01,0.01,0.03l-0.02-0.08l-0.29-1
				c-0.08-0.34-0.18-0.74-0.27-1.13c-0.04-0.14-0.08-0.28-0.12-0.41c-0.16-0.49-0.3-0.95-0.43-1.35c-0.43-1.52-1.26-3.78-0.78-2.49
				l-1.57-5l0.01-0.05c-1.47-4.96-3.23-10.15-4.73-15.87c-0.53-1.66-1.08-3.37-1.88-6.17l-0.07-0.57c-0.67-2.13-1.83-6.46-2.21-7.35
				c-0.03-0.16-0.07-0.34-0.11-0.53c-0.03-0.11-0.05-0.22-0.08-0.34c-0.05-0.2-0.11-0.41-0.17-0.62c-0.25-0.89-0.55-1.92-0.87-3.04
				c-0.78,1.2-1.66,2.55-2.57,3.96c-0.57,0.89-1.16,1.81-1.74,2.72c-1.16,1.82-2.26,3.57-3.07,4.78l0.03,0.19
				c-0.73,1.14-1.44,2.26-2.2,3.44c-0.37,0.6-0.76,1.21-1.16,1.85c-0.18,0.3-0.37,0.62-0.57,0.95c0,0.07,0.01,0.12,0.02,0.18
				c-0.26,0.46-0.61,1-0.93,1.49c-0.28,0.4-0.58,0.84-0.9,1.3c0.35-0.87,0.66-1.61,0.89-2.24c0.06-0.03-0.12,0.4-0.33,0.89
				c0.42-0.92,0.61-1.38,0.78-1.83c0.3-0.83,0.59-1.67,0.89-2.5c0.95-2.66,1.87-5.26,2.84-7.55c0.4-1.17,0.73-2,1.07-2.8
				c-0.04,0.11-0.07,0.2-0.1,0.29c0.05-0.12,0.11-0.29,0.18-0.47c0.21-0.5,0.43-1.02,0.67-1.59c-0.21,0.48-0.4,0.94-0.57,1.33
				c0.33-0.9,0.82-2.25,1.31-3.59l0.33-0.52c0.04-0.11,0.07-0.2,0.11-0.31c0.07-0.16,0.12-0.3,0.17-0.42
				c0.07-0.19,0.13-0.35,0.18-0.47c0.09-0.25,0.12-0.36,0.1-0.37c-0.02-0.03-0.24,0.41-0.46,0.85c0.31-0.89,0.6-1.71,0.82-2.35
				c-0.08,0.02-0.13,0.03-0.18,0.04c-0.59,0-2.39,0.33-3.12,0.47c-0.97,0.18-1.98,0.37-2.76,0.4c-0.92,0.26-7.01,1.29-7.72,1.63
				c-0.05-0.02-0.47,0.04,0.29-0.09c-1.56,0.25-3.12,0.49-4.51,0.79l-0.69-0.04l-3.37,0.79c-2.08,0.26-2.95,0.36-0.92-0.11
				c-4.92,1.03-4.01,0.76-8.19,1.67l0.19-0.13c-1.51,0.26-3.89,0.81-4.81,0.89c-0.47,0.06-1.13,0.15-1.95,0.28
				c-0.77,0.12-1.68,0.27-2.69,0.43c-1.23,0.21-2.71,0.46-4.27,0.72c-1.33,0.22-2.73,0.45-4.06,0.67c1.2-0.34,2.36-0.66,3.41-0.95
				c-2.87,0.65,0-0.07,1.03-0.34c0.51-0.14,0.75-0.22,0.34-0.17c0.78-0.16,1.44-0.32,1.24-0.2c0.67-0.24,1.52-0.46,2.07-0.61
				c0.58-0.17,1.12-0.34,1.67-0.5c0.68-0.22,1.37-0.45,2.09-0.71c0.51-0.08-0.89,0.37-0.44,0.28c0.34-0.12,1.35-0.47,1.8-0.56
				c0.45-0.09-0.61,0.24-1.28,0.48c4.38-1.32,4.76-1.66,5.02-1.95c2.25-0.57,3.35-0.92,4.92-1.53c0.79-0.17,2.1-0.49-0.62,0.35
				c1.54-0.45,9.39-2.71,9.5-2.91c0.49-0.1,2.15-0.63,2.54-0.77c3.44-1.03,3.74-1.12,7.12-2.12l-0.94,0.26
				c0.64-0.29,1.34-0.51,2.22-0.76c0.92-0.27,1.78-0.49,3.6-1.05l-0.07,0.04c0.45-0.13,0.86-0.24,1.11-0.31
				c-2.93-1.95-3.13-2.05-3.76-2.45c-0.57-0.35-1.23-0.77-3.74-2.48l0.23,0.29c-0.64-0.11-4.7-3.22-7.89-5.16l1.09,0.79
				c-0.88-0.52-2.03-1.36-3.17-2.22c-0.12-0.09-0.33-0.24-0.38-0.29l-0.21-0.19c-0.11-0.1-0.22-0.2-0.32-0.29
				c-0.17-0.16-0.26-0.26-0.39-0.36c-0.05-0.06,0.34,0.18,0.55,0.29c-0.26-0.21-0.35-0.28-0.48-0.36c-0.13-0.07-0.27-0.13-0.42-0.19
				c-0.32-0.13-0.62-0.22-1.62-0.85c0.12,0.03,0.59,0.26,0.87,0.4c0.3,0.14,0.46,0.2,0.21,0.03c0.02,0.01,0-0.01-0.05-0.04
				c0.23,0.08,0.23,0.01,0.85,0.2c0.67,0.2,1.25,0.39,3.21,1.21c-0.73-0.35-1.46-0.69,0.29-0.08c2.67,0.99,7.1,2.96,9.57,3.67
				c0.33,0.14,0.45,0.21,0.46,0.23c1.02,0.37,2.68,0.96,4.24,1.53c0.78,0.28,1.53,0.54,2.17,0.77c0.4,0.14,0.77,0.27,1.09,0.38
				c0.31,0.1,0.57,0.19,0.77,0.25c0.12,0.07,0.27,0.14,0.47,0.23c-0.21-2.15-0.78-5.1-1.34-8.06c-0.55-2.9-1.05-5.48-0.86-5.49
				l-1.16-6.58l0.07,0.17c-0.7-4.21-1.05-5.69-1.4-7.15c-0.14-0.98,0.02-0.27,0.05-0.2c-0.49-3.08-0.77-4.77-1.06-6.34
				c-0.15-0.78-0.3-1.53-0.47-2.4c-0.14-0.65-0.31-1.39-0.52-2.35c0.04-0.02,0.08-0.01,0.13,0.02c-0.11-0.45-0.25-1.45-0.38-2.39
				c-0.14-1.01-0.23-1.78-0.55-3.45c0.09,0.27,0.16,0.47,0.22,0.6c0.03,0.17,0.09,0.43,0.08,0.47c0.13,0.29,0.51,1.6,0.84,2.78
				c0.34,1.26,0.68,2.51,0.97,3.56c0.14,0.47,0.28,0.92,0.41,1.34c0.15,0.48,0.3,0.92,0.43,1.32c0.27,0.8,0.51,1.44,0.72,1.85
				l1.41,4.32c-1.65-5.64,0.44,0.78-0.18-1.56c0.69,2.21,1.58,5.77,0.75,3.05l-0.11-0.43c-0.52-0.93,2.02,7.02,1.82,6.92
				c1.75,5.92,3.48,11.76,5.18,17.5c3.23-4.95,6.4-9.83,9.52-14.6l-0.83,0.95l2.06-3.17c0.57-0.81,0.84-1.04-0.63,1.22
				c0.43-0.57,1.02-1.53,1.51-2.36c0.24-0.41,0.46-0.8,0.62-1.08c0.16-0.29,0.26-0.47,0.24-0.47c0.9-1.33,0.64-0.82,0.41-0.38
				c-0.06,0.11-0.12,0.23-0.18,0.34c-0.05,0.1-0.09,0.17-0.22,0.38c-0.19,0.33-0.27,0.46-0.05,0.12l0.59-0.94l-0.11,0.13
				c0.42-0.78,0.6-1.22,1.61-2.76c0.52-0.74-0.07,0.32,0.12,0.04c-0.04,0.08-0.02,0.07,0.13-0.18c-0.01,0.04-0.03,0.09-0.05,0.16
				l-0.79,2.05l0.73-1.52c-0.23,0.82-1.01,2.63-0.12,0.77c-0.18,0.38-0.37,0.81-0.57,1.28c-0.09,0.22-0.19,0.47-0.3,0.72
				c-0.13,0.32-0.26,0.66-0.41,1.01c-0.66,1.73-1.45,3.76-2.21,5.76c-1.52,4.01-2.97,7.88-3.35,8.79c-0.39,1.15-0.79,2.29-1.23,3.46
				c-0.5,1.34-1.03,2.73-1.59,4.23c0.75-0.13,1.56-0.27,2.39-0.41c-0.19,0.03-0.53,0.07-0.66,0.07c-0.16,0.01-0.21-0.01-0.12-0.04
				c0.08-0.04,0.36-0.1,0.73-0.18c0.37-0.08,0.91-0.18,1.68-0.3c-1.07,0.52,5.65-0.83,8.18-1.02c-2.25,0.23,8.73-1.55,5.21-1.17
				c2.57-0.42,0.18,0.1,2.14-0.16c6.08-1.18,13.46-2.24,21-3.59c0.11-0.06-1.16,0.09,0.44-0.26l0.5-0.06l0.3-0.02l0.51-0.03
				c0.3-0.02,0.53-0.02,0.68-0.01c0.34-0.07,0.77-0.21,1.25-0.33c0.45-0.12,1.07-0.25,1.24-0.2c0.1-0.05,0.11-0.11,0.85-0.25
				l0.16-0.02c1.35-0.2,2.59-0.39,3.98-0.63c-1.43,0.43-2.87,0.86-4.32,1.3c-3.6,1.08-7.21,2.18-10.82,3.27
				c-4.72,1.4-9.45,2.77-14.16,4.04c2-0.51,0.69-0.11-0.82,0.35c0.99-0.27,0.01,0.11,0.22,0.11l-6.16,1.67
				c-1.07,0.49-6.55,1.97-7.14,2.31l1.93-0.61c-2.52,0.95,3.72-0.68,3.41-0.34c2.82-1.07,7.68-1.97,12.32-3.68
				c1.06-0.27-0.87,0.34-0.29,0.23c1.17-0.46,2.61-0.91,5.3-1.67l-0.3,0.12c3.76-1.14,6.46-1.93,9.27-2.74
				c3.91-1.14,7.99-2.33,13.89-4.05l-1.78,0.41c1.03-0.3,1.77-0.51,2.31-0.67c0.52-0.18,0.79-0.27,1.21-0.41
				c-0.05-0.12-0.73,0.16-1.53,0.47c-1.9,0.56-3.69,1.09-3.04,0.79c0.72-0.18,1.67-0.43,2.79-0.75c1.57-0.52,3.07-1.17,4.54-1.76
				c-1.4,0.1-2.52,0.17-2.18-0.02c-0.58-0.01-0.74,0.07-0.86,0.13c-0.12,0.06-0.2,0.11-0.99,0.17c0.03-0.04,0.08-0.07,0.14-0.12
				l-0.12,0.01l-1.8,0.41c-2.56,0.43-3.6,0.51-3.49,0.43c0.78-0.14,2.2-0.4,3.03-0.55c-1.76,0.26-4.77,0.79-7.31,1.24
				c-2.93,0.52-3.67,0.67-4.22,0.75l3.33-0.53c-4.1,0.72-8.65,1.51-13.16,2.31c-4.33,0.75-8.62,1.51-12.4,2.23l0.59-0.04
				c-5.77,1.1-4.65,0.74-11,1.89l0.23-0.05c-1.26,0.27-2.96,0.6-4.7,0.89c0.4-0.09,0.41-0.1,0.23-0.09
				c-0.15,0.02-0.44,0.05-0.72,0.08c-0.38,0.03-0.59,0.03-0.1-0.09c-0.19,0.04-0.37,0.08-0.48,0.1c0.25-0.74,0.41-1.21,0.52-1.52
				c0.17-0.49,0.25-0.74,0.32-0.97c0.14-0.45,0.21-0.79,0.82-2.66l0.43-0.88c0.43-1.37,0.43-1.5,1.55-4.52
				c-0.86,2.5,0.86-1.87-0.09,0.93c1.29-3.13,2.14-5.49,2.83-7.43c0.35-0.97,0.65-1.83,0.96-2.62c0.15-0.4,0.31-0.78,0.47-1.14
				c0.19-0.43,0.38-0.85,0.57-1.28c0.35-1.11,0.29-1.05,0.07-0.55c-0.1,0.25-0.26,0.62-0.44,1.07c-0.13,0.32-0.27,0.69-0.42,1.08
				c-0.59,1.52-1.22,3.22-0.93,2.39c-0.3,0.67-0.11,0.05,0.24-0.98c0.18-0.52,0.4-1.13,0.62-1.75c0.25-0.67,0.5-1.33,0.71-1.87
				c0.42-1.1,0.89-2.15,1.64-3.91c0.74-1.73,1.78-4.27,3.1-7.7c-0.25,0.39-0.51,0.79-0.79,1.21c0.43-0.68,0.5-0.8,0.87-1.38
				c-0.02,0.04-0.04,0.11-0.07,0.19l0.09-0.23c-0.71,1.05-1.63,2.52-2.52,3.92c-0.9,1.42-1.75,2.77-2.73,4.18
				c-1.21,2.16-2.69,4.15-2.63,4.42l3.54-5.57c-1.1,1.75-2.18,3.56-3.13,5.11c-0.82,1.37-1.79,2.92-3.1,4.85
				c0.16-0.33,0.87-1.52,1.36-2.33c-0.79,1.11-1.39,2.22-2.21,3.38c0.03-0.22,0.84-1.5,1.83-3.05c1.05-1.63,1.95-3.03,3.46-5.51
				c-0.31,0.44-0.78,1.17-1.27,1.94c-0.33,0.53-0.69,1.11-0.99,1.59c-0.56,0.9-0.93,1.48-0.61,0.78c-0.96,1.99-2.93,4.48-4.76,7.69
				l0.03-0.27c-0.3,0.5-0.91,1.54-1.49,2.44l0.92-1.71c-0.75,1.29-1.56,2.48-2.36,3.65c-0.4,0.59-0.8,1.17-1.19,1.76l-0.58,0.89
				l-0.2,0.31l-0.08,0.14c0.66-1.01,1.03-1.56,1.23-1.86c0.25-0.37,0.3-0.41,0.3-0.35c-0.01,0.11-0.25,0.58,0.47-0.46
				c-0.39,0.63-0.73,1.16-1.02,1.63c-0.28,0.43-0.51,0.79-0.72,1.11c-0.25,0.37-0.42,0.59-0.54,0.72c-0.04-0.23-0.07-0.43-0.1-0.61
				c-0.01-0.08-0.02-0.17-0.03-0.26c-0.01-0.1,0-0.1-0.08-0.41c-0.25-0.99-0.64-2.39-1.36-4.76c0.34,1.07,1.14,4.04,0.58,2.38
				c-0.43-1.51-0.98-3.52-1.2-4.46c-1.59-5.24,0.12,0.84-0.61-1.37c-0.4-1.83-0.83-2.56-1.56-4.84l0.11-0.05
				c-1.72-6-0.72-1.51-2.24-6.92l0.84,2.23l-0.88-2.79l0.3,0.54c-1.01-3.02-1.27-3.98-2.13-6.98c0.13,0.72-0.33-0.33-1.12-2.97
				c-0.24-0.91-0.13-0.67-0.11-0.66c0.01-0.01,0-0.04-0.09-0.37c-0.13-0.44-0.37-1.22-0.79-2.63c0.2,0.55,0.44,1.18,0.71,2.04
				c0.11,0.34,0.22,0.71,0.34,1.12c0.09,0.33,0.19,0.7,0.28,1.12c0.09,0.16,0.32,0.81,0.41,0.98c-0.14-0.49-0.29-1.04-0.44-1.62
				c-0.22-0.74-0.45-1.51-0.67-2.25c-0.59-1.93-1.14-3.75-1.49-4.89c0.26,0.91,0.57,1.99,0.74,2.56l-2.48-7.69
				c-0.03-0.12-0.05-0.2-0.06-0.23c-0.13-0.43-0.13-0.54-0.1-0.59c0.06,0.17,0.15,0.41,0.24,0.66c-0.1-0.31-0.19-0.59-0.27-0.87
				c-0.13-0.14-0.23-0.19-0.5-0.76c-0.01-0.36-0.11-0.86,0.2-0.77c-0.23-0.04-0.49-0.29-0.78-0.73c-0.04-0.11-0.17-0.36-0.26-0.5
				c-0.09-0.15-0.16-0.21-0.11-0.16l-0.04-0.04c-0.08,0.2-0.17,0.41-0.22,0.84c-0.05,0.41-0.04,1.05-0.04,1.65
				c0.32,1.8,0.61,3.48,0.87,5.07c0.1,0.44,0.25,1.22,0.51,2.65c0.43,2.63,0.84,5.11,1.27,7.71c0.3,1.82,0.63,3.73,1.08,5.9
				l0.25,2.51c0.63,3.41-0.36-3.39,0.69,2.29c0.75,4.02,0.11,1.53,0.31,2.95c0.43,1.99,1.21,5.44,1.71,9.17
				C101.41,441.64,101.27,440.68,101.06,439.53z M74.6,442.1c0.55,0.19,1.37,0.48,2.15,0.76c0.84,0.3,1.71,0.63,2.27,0.88
				C78.08,443.53,76.95,443.03,74.6,442.1z M68.58,468.27c0.58-0.21,1.5-0.47,2.54-0.73C70.37,467.77,69.53,468.02,68.58,468.27z
				 M120.65,511.89l-0.01-0.02C120.45,511.09,120.51,511.37,120.65,511.89z M121.13,513.68c0.03,0.06,0.01-0.08-0.02-0.25
				c0,0.1-0.11-0.26-0.23-0.7C120.91,512.98,121,513.35,121.13,513.68z M124.6,428.84c-0.02,0.02-0.05,0.04-0.09,0.07
				c0.2-0.33,0.32-0.52,0.37-0.6c-0.04,0.11-0.07,0.16-0.1,0.19C124.74,428.6,124.67,428.72,124.6,428.84z"/>
		</g>
		<g>
			<path d="M75.6,465.99c0.23-0.05,0.3-0.04,0.36-0.04C76.26,465.84,76.26,465.82,75.6,465.99z"/>
		</g>
		<g>
			<path d="M95.87,409.9l-0.04-0.21c-0.04-0.16-0.06-0.26-0.08-0.33L95.87,409.9z"/>
		</g>
		<g>
			<path d="M102.44,478c-0.44,0.65-0.7,1.01-0.88,1.25C101.56,479.3,101.78,479.01,102.44,478z"/>
		</g>
		<g>
			<path d="M121.2,512.17l0.17,0.82l0,0.01l0-0.01c-0.07-0.35-0.03-0.27-0.02-0.35C121.3,512.5,121.23,512.36,121.2,512.17z"/>
		</g>
		<g>
			<path d="M119.02,495.21c-0.07-0.36-0.14-0.74-0.21-1.1l-0.04,0.11C119.04,495.73,119.27,496.77,119.02,495.21z"/>
		</g>
		<g>
			<path d="M121.73,512.93c0.14,0.2-0.11-1.04-0.34-2.28c0.01,0.08,0.03,0.17,0.04,0.25C121.24,510.63,121.46,511.6,121.73,512.93z"
				/>
		</g>
		<g>
			<path d="M121.32,510.25c-0.09-0.52-0.18-1.06-0.27-1.57C120.95,508.49,121.14,509.32,121.32,510.25z"/>
		</g>
		<g>
			<path d="M121.6,515.03c0.16,0.61-0.27-1.35-0.13-0.73c-0.14-0.69-0.12-0.49-0.11-0.28C121.38,514.22,121.42,514.53,121.6,515.03z
				"/>
		</g>
		<g>
			<path d="M122.02,512.63c-0.02,0.13-0.05,0.23-0.07,0.3l0.31,1.17L122.02,512.63z"/>
		</g>
		<g>
			<path d="M123.99,524.59l-0.31-2.01c-0.06-0.23-0.16-0.71-0.25-1.2C123.68,522.85,123.87,524.06,123.99,524.59z"/>
		</g>
		<g>
			<path d="M123.43,521.38c-0.13-0.75-0.27-1.54-0.39-2.16C123.12,519.68,123.31,520.69,123.43,521.38z"/>
		</g>
		<g>
			<polygon points="122.74,516.55 122.83,517.22 123.07,518.68 123.14,519.07 123.08,518.7 			"/>
		</g>
		<g>
			<path d="M116.2,498.69l-0.9-2.87c-0.13-0.28,0.08,0.51,0.42,1.58C115.96,498.08,116.3,499.14,116.2,498.69z"/>
		</g>
		<g>
			<path d="M118.48,507.49c-0.21-0.79-0.2-0.85-0.29-1.3l-0.17-0.04L118.48,507.49z"/>
		</g>
		<g>
			<path d="M115.93,499.11c-0.13-0.27-1.37-4.14-0.27-0.5C115.8,498.89,116.69,501.77,115.93,499.11z"/>
		</g>
		<g>
			<polygon points="99.56,481.67 99.97,481.03 99.7,480.98 			"/>
		</g>
		<g>
			<path d="M101.14,467.61c-1.32,3.31-0.15,0.85-1.36,3.83c-0.24,0.8,0.99-2.44,0.74-1.62
				C101.21,467.79,101.64,466.74,101.14,467.61z"/>
		</g>
		<g>
			<path d="M100.51,469.82c-0.11,0.33-0.23,0.67-0.35,1.04C100.35,470.27,100.45,469.99,100.51,469.82z"/>
		</g>
		<g>
			<polygon points="124.82,459.11 122.61,459.72 124.05,459.37 			"/>
		</g>
		<g>
			<path d="M120.66,460.55l-0.56,0l-1.28,0.54C119.32,460.93,120.28,460.63,120.66,460.55z"/>
		</g>
		<g>
			<path d="M74.28,443.27l0.47,0.26c-0.34-0.27-1.14-0.79-2.73-1.83L74.28,443.27z"/>
		</g>
		<g>
			<polygon points="101.26,451.99 100.76,451.8 101.64,452.29 			"/>
		</g>
		<g>
			<path d="M99.39,431.73c0.19,1.05,0.41,2.28,0.6,3.33C99.57,432.78,99.52,431.42,99.39,431.73z"/>
		</g>
	</g>
</g>
<g>
	<g>
		
			<rect x="27.06" y="45.7" transform="matrix(0.9993 -0.0367 0.0367 0.9993 -11.4344 1.6536)" class="st24" width="24.55" height="533.29"/>
	</g>
	<g>
		<path class="st26" d="M23.38,154.71c-0.09-0.29-0.14-0.8-0.16-1.4C23.36,153.45,23.49,154.22,23.38,154.71z"/>
	</g>
	<g>
		<path class="st26" d="M39.24,132.86c-0.09-0.42-0.28-1.76,0.01-1.62C39.31,131.99,39.24,132.31,39.24,132.86z"/>
	</g>
	<g>
		<path class="st26" d="M39.53,130.56c-0.14-0.11-0.06-1.14-0.11-1.62C39.6,128.95,39.61,130.25,39.53,130.56z"/>
	</g>
	<g>
		<path class="st26" d="M36.76,124.13c-0.1-0.33-0.21-1.21-0.11-1.63C36.79,122.61,36.71,123.64,36.76,124.13z"/>
	</g>
	<g>
		<path class="st26" d="M39.31,121.06c-0.18-0.55-0.26-1.5-0.26-2.79C39.25,118.71,39.24,120.05,39.31,121.06z"/>
	</g>
	<g>
		<path class="st26" d="M25.93,113.45c-0.07-1.42-0.4-4.31-0.16-5.34C25.66,109.85,26.02,111.83,25.93,113.45z"/>
	</g>
	<g>
		<path class="st26" d="M31.52,109.43c-0.42-1.76-0.14-4.95-0.46-7.21c0.28-0.33,0.16,3.32,0.42,3.96c0,0.54-0.04,0.95-0.08,1.38
			C31.45,108.19,31.66,108.77,31.52,109.43z"/>
	</g>
	<g>
		<path class="st26" d="M31.59,87.67c-0.16,0.05-0.26-0.1-0.26-0.71c0.05-0.18,0.13-0.24,0.23-0.21
			C31.57,87.06,31.58,87.37,31.59,87.67z"/>
	</g>
	<g>
		<path class="st26" d="M29.22,78.72c-0.32-1.42-0.46-4.69-0.31-6.5c-0.05-0.24-0.15-0.25-0.14-0.71c-0.07-1.08-0.05-3.49,0.03-1.15
			C29.09,73.25,28.98,75.55,29.22,78.72z"/>
	</g>
	<g>
		<path class="st26" d="M32.19,77.53c-0.1-0.34-0.15-0.91-0.17-1.63C32.17,76.07,32.25,77.26,32.19,77.53z"/>
	</g>
	<g>
		<path class="st26" d="M24.27,75.61c-0.14-0.26-0.07-1.46-0.12-2.09C24.24,73.98,24.37,75.09,24.27,75.61z"/>
	</g>
	<g>
		<path class="st26" d="M31.12,75.84c-0.17-0.56-0.18-1.86-0.32-2.57C31.02,72.63,31.06,74.96,31.12,75.84z"/>
	</g>
	<g>
		<path class="st26" d="M31.93,74.74c-0.2-0.45-0.19-1.8-0.26-2.8C31.83,72.53,31.83,73.83,31.93,74.74z"/>
	</g>
	<g>
		<path class="st26" d="M22.76,73.43c-0.21-0.08-0.22-0.99-0.29-1.64C22.67,71.92,22.67,72.86,22.76,73.43z"/>
	</g>
	<g>
		<path class="st26" d="M24.17,72.37c-0.2-0.75-0.24-3.36-0.26-4.64C24.11,69.35,24.14,70.59,24.17,72.37z"/>
	</g>
	<g>
		<path class="st26" d="M31.65,71.48c-0.32-1.19-0.17-2.94-0.18-3.95C31.67,68.63,31.44,70.23,31.65,71.48z"/>
	</g>
	<g>
		<path class="st26" d="M28.74,68.51c-0.12-0.45-0.16-1.22-0.24-1.87C28.76,66.5,28.7,67.72,28.74,68.51z"/>
	</g>
	<g>
		<path class="st26" d="M29.28,66.46c-0.17-0.55-0.12-1.04-0.12-1.86C29.3,64.78,29.23,65.9,29.28,66.46z"/>
	</g>
	<g>
		<path class="st26" d="M29.94,64.42c-0.17-0.25-0.26-1.99,0.07-1.62c0.04,0.5-0.07,0.44-0.17,0.45
			C29.84,63.82,29.97,63.77,29.94,64.42z"/>
	</g>
	<g>
		<path class="st26" d="M25.17,59.7C25.46,60.84,25.16,62.82,25.17,59.7L25.17,59.7z"/>
	</g>
	<g>
		<path class="st26" d="M22.88,57.24c-0.16-0.95-0.16-1.9-0.15-3.02C22.83,54.92,22.91,56.76,22.88,57.24z"/>
	</g>
	<g>
		<path class="st26" d="M22.5,56.52c-0.17,0.34-0.23-1.53-0.04-1.16C22.47,55.74,22.49,56.13,22.5,56.52z"/>
	</g>
	<g>
		<path class="st26" d="M19.25,54.45c-0.14-0.32-0.19-1.05-0.17-1.63C19.24,52.98,19.31,54.18,19.25,54.45z"/>
	</g>
	<g>
		<path class="st26" d="M19.3,47.97C18.95,46.05,19.21,45.36,19.3,47.97L19.3,47.97z"/>
	</g>
	<g>
		<path class="st26" d="M21.1,100.17c-0.09-0.38-0.15-0.92-0.28-1.18c0.22-0.73-0.05-2.03,0.03-3.01
			C21.16,97.16,20.87,98.45,21.1,100.17z"/>
	</g>
	<g>
		<path class="st26" d="M25.3,74.06c-0.04-0.56,0.09-0.5,0.03-1.15c0.1-0.06,0.11,0.22,0.19,0.24c0-1.16-0.11-1.8-0.14-2.79
			c0.05,0.13,0.11,0.25,0.19,0.25c-0.37-1.3,0.09-2.84-0.17-5.57c0.44,2.6,0.4,8.4,0.56,10.68c-0.25-0.33-0.1-2.34-0.38-2.57
			C25.38,73.11,25.59,74.45,25.3,74.06z"/>
	</g>
	<g>
		<path class="st26" d="M30.87,71.43c-0.02-0.26-0.06-0.13-0.06,0c-0.14-0.07-0.06-1.02-0.03-1.16
			C30.95,70.54,30.97,73.61,30.87,71.43z"/>
	</g>
	<g>
		<path class="st26" d="M29.57,54.21c0.08,0,0.16,0.01,0.24,0.01c-0.07-1.48-0.21-3.86-0.02-4.86c0.23,1.75-0.05,5.49,0.38,6.74
			c-0.05,0.3-0.03,0.85-0.09,1.15c0.53,4.08,0.28,8.53,0.68,12.77c-0.71-1.88,0.01-6.24-0.73-8.38c0.02-0.36,0.06-0.01,0.07,0.24
			C30.02,60.01,30.05,56.62,29.57,54.21z"/>
	</g>
	<g>
		<path class="st26" d="M22,56.02c-0.12-0.36-0.17-1.01-0.28-1.41C21.72,54.4,22.15,55.54,22,56.02z"/>
	</g>
	<g>
		<path class="st26" d="M34.69,520.44c0.04,1.04,0.3,2.17,0.34,3.26c0.1,2.55-0.05,4.85,0.16,7.42c0.19,2.27,0.59,4.4,0.74,6.76
			c0.11,1.75,0.23,2.32,0.34,3.5c0.34,3.43,0.34,6.24,1.01,7.7c0.5,2.39,0.85,5.4,1.3,7.49c0.07,0.33,0.07,1.04,0.1,1.16
			c1.15,5.32,2.83,8.55,3.74,14.83c0.37,0.54,0.9,0.89,1.38,1.94c0.22,0.47,0.38,1.55,0.6,1.89c0.79,1.26,1.7,0.09,2.35,2.47
			c0.19,0.13,0.23-0.31,0.35-0.44c1.49,0.02,2.71-0.98,3.89-0.44c0.62-1.67,1.43-1.34,2.02-2.64c0.37-0.81,0.69-2.37,1.04-3.4
			c0.4-1.18,0.69-2.42,1.1-3.4c0.45-0.01,0.48-1.49,0.85-1.79c0.21-1.81,0.55-3.2,0.75-5.04c0.14-0.18,0.22-0.62,0.4-0.67
			c0.63-3.88,1.43-7.81,1.53-13.09c0.01-0.47,0.02-1.49,0-2.08c-0.16-3.91-0.22-9.95,0.3-12.01c0.02-0.71-0.12-0.69-0.1-1.39
			c0.27-0.46,0.73-2.55,0.65-4.36c-0.03-0.62-0.45-1.69-0.57-3.05c-0.18-2.02,0.27-3.96,0.13-5.78c-0.07-0.84-0.45-1.71-0.56-2.58
			c-0.29-2.27-0.31-6.9-0.26-8.81c0.04-1.51,0.3-2.09,0.2-3.23c-0.09-1.03-0.43-1.8-0.89-1.68c-1.12-2.93-0.62-10.58-1.23-15.13
			c0.24-3.37-0.48-6.54-0.53-9.76c-0.01-0.64,0.09-1.42,0.06-2.08c-0.05-1.1-0.29-2.56-0.42-3.96c-0.21-2.41-0.26-4.53-0.49-6.51
			c0.48-3.09-0.29-5.32-0.35-7.89c-0.03-0.97,0.13-1.92,0.09-3c-0.03-0.91-0.24-1.79-0.26-2.79c-0.02-1,0.13-2.04,0.09-3
			c-0.03-0.72-0.17-1.28-0.18-1.86c-0.01-0.77,0.11-1.26,0.06-2.08c-0.06-0.86-0.32-1.71-0.38-2.57c-0.21-3.16-0.09-6.57-0.64-9.53
			c0.18-5.4-0.59-10.07-0.43-16.46c-0.18-1.58-0.31-2.75-0.25-4.41c-0.06-0.37-0.2-0.36-0.21-0.94c0.06-3.32-0.58-6.79-0.48-10.22
			c-0.07-0.12-0.14-0.25-0.19-0.48c0.11-4.72-0.07-10.69-0.55-14.38c0.19-2.88-0.27-6.21-0.41-9.75c-0.07-1.66,0.04-3.31-0.08-4.87
			c-0.24-3.05-0.23-7.05-0.42-9.98c-0.06-0.87-0.26-1.72-0.32-2.57c-0.11-1.55,0-3.22-0.14-4.87c-0.57-6.36-0.61-13.69-0.81-19.27
			c-0.06-1.73-0.31-3.19-0.45-5.12c-0.23-3.19-0.03-6.53-0.23-9.74c-0.05-0.81-0.2-1.59-0.25-2.33c-0.13-1.92-0.09-3.76-0.17-5.8
			c-0.21-4.97-0.73-9.94-0.62-14.62c-0.61-5.95-0.81-14.66-1.12-21.6c-0.38-1.55-0.16-3.04-0.26-4.64
			c-0.31-4.95-0.91-11.29-0.85-16.49c-1.38-21.82-1.96-44.6-3.41-66.19c0.19-1.7-0.07-4.32-0.29-5.8c0.14-0.33,0.1-1.32,0.12-2.08
			c-0.5-2.69-0.3-6.11-0.52-9.52c-0.42-0.85-0.2-2.92-0.55-4.2c0.19-0.56,0.21,0.74,0.29-0.21c-0.79-2.19-0.73-9.68-1.05-13.03
			c0.01,0.23-0.1,0.29-0.12-0.01c0.15-0.82-0.22-1.19-0.24-2.1c-0.3-6.09-1.16-10.42-1.61-15.61c0.08-0.66,0.31-2.41,0.03-3.01
			c-0.01,0.94,0.06,2.13-0.24,2.06c0.04-1.57-0.17-3.62-0.44-4.66c-0.1-1.93,0.02-2.93-0.26-4.65c-0.01-0.42-0.29,0.42-0.31-0.48
			c0.06-2.71-0.25-4.07-0.19-6.49c-0.3-0.7-0.49-3.54-0.37-4.42c-0.15-0.79-0.2,0.88-0.29,0.21c-0.17-2.19-0.36-4.24-0.25-6.27
			c-0.15-0.5-0.34-0.82-0.41-1.65c-0.04-0.56,0.28,0.15,0.16-0.68c-0.19-0.78-0.25,0.62-0.47,0.43c-0.14-1.1-0.28-0.87-0.46-1.42
			c0.11-1.54-0.27-2.58-0.42-3.96c-0.16-1.43-0.11-3.03-0.25-4.41c-0.12-1.19-0.35-1.69-0.39-3.04c-0.04-1.09,0.14-2.02,0.08-3.23
			c-0.07-0.64-0.21,0.44-0.25-0.48c-0.23-4.26-0.46-8.51-0.95-11.64c0.65,4.81,0.28,8.34,0.85,12.55c-0.25,0.65,0.24,1.89-0.1,2.54
			c0.17,0.28,0.24-0.7,0.25,0.25c-0.01,0.31-0.07,0.44-0.03,0.92c-0.34-0.59-0.31,0.31-0.52,0.66c0.15,3.6,0.4,6.41,0.52,9.52
			c0.1,0.57,0.17-0.41,0.25,0.25c0.1,1.18,0.08,2.09,0.22,3.49c-0.22,0.43-0.31,1.37-0.63,0.88c-0.13-4.2-0.81-9.89-1.04-14.88
			c-0.07-1.51,0.11-3.09-0.3-3.95c0.2,2.24-0.15,4.06-0.12,6.01c0.04,2.52,0.52,5.2,0.53,7.67c0,0.7-0.1,0.99-0.07,1.61
			c0.02,0.49,0.23,1.32,0.24,1.87c0.01,0.6-0.12,0.64-0.09,1.15c0.07,1.05,0.29,1.86,0.33,3.03c0.06,1.96-0.09,3.88,0.06,6.02
			c-0.09,0.4-0.36,0.23-0.43-0.26c-0.08-2.54-0.11-2.97-0.23-5.57c-0.02,0.29-0.06,0.47-0.17,0.45c-0.01-0.8,0.05-1.09-0.11-1.63
			c0.08,1.93-0.39,1.77-0.63,1.12c-0.09-4.79-0.52-10.66-0.5-14.62c-0.14-0.43-0.32-0.7-0.4-1.41c-0.31-4.43-0.34-9.41-0.66-14.16
			c-0.16,5.44,0.26,11.1,0.64,17.4c-0.05,0.24-0.22,0.06-0.16,0.68c0.27,2.68,0.34,5.82,0.48,7.9c-0.22,0.94-0.46,1.85-0.7,2.73
			c0.46,6.61-0.42,11.48-0.19,17.81c-0.18-0.02-0.22,0.47-0.34,0.67c-0.17-0.5-0.37-0.84-0.52-1.42c-0.05-1.04-0.19-2.1-0.09-3.02
			c-0.73-5.31-0.63-12.9-1.18-19.52c-0.33-0.8-0.53-0.15-0.77,0.41c-0.06,3.2,0.47,6.11,0.22,9.5c-0.66,1.24-1.2-0.02-1.34-2.63
			c-0.22-4.33-0.43-11.8-0.43-14.61c-0.89-12.69-1.18-25.31-1.98-38.32c0.13,7.24,0.75,13.93,0.73,20.42
			c0.13-0.03,0.2,0.21,0.2,0.71c0.16,6.38,0.43,13.45,0.87,19.04c-0.35,2.36,0.33,6.87-0.02,9.25c-0.7-0.57-1.09-2.5-1.35-4.95
			c0.13,2.5-0.01,4.84,0.03,6.94c0.03,1.72,0.34,4.69,0.23,5.57c-0.03,0.21-0.18-0.19-0.17,0.22c-0.02-0.71,0.08,1.26,0.1,1.4
			c0.11,0.94,0.16,0.76,0.18,1.86c0.02,1.43,0.01,1.4-0.11,2.31c0.07,4.93,0.46,9.7,0.5,14.61c0,0.51,0.05,1.54,0.05,1.62
			c-0.03,0.47-0.16,0.07-0.16,0.69c0,0.35,0.14,0.19,0.14,0.7c0.01,1.92,0.03,4.11,0.12,6.02c0.21,4.79,0.26,10.47,0.43,14.38
			c-0.01,0.87-0.26-0.27-0.21,0.91c0.1,6.74,0.25,13.87,0.45,21.09c0,0.54-0.28,0.12-0.21,0.92c-0.01,0.99,0.27,0.74,0.29,1.64
			c-0.06,0.56-0.13,1.07-0.26,1.37c0.08,8.27,0.64,16.78,1.05,25.3c0.39,7.94,0.67,15.9,1,23.44c0.26,5.94,0.72,11.62,0.74,16.94
			c0.46,7.13,0.68,13.29,0.96,19.97c0.2,4.81,0.26,10.12,0.54,14.15c0.05,0.7,0.22,1.52,0.25,2.33c0.05,1.23-0.11,2.47-0.07,3.7
			c0.11,3.31,0.49,6.69,0.6,9.99c0.12,3.7,0.21,7.26,0.32,10.9c0.06,2.05,0.33,4.01,0.42,6.05c0.06,1.35-0.05,2.77,0,4.17
			c0.15,3.92,0.56,7.9,0.65,11.61c0.11,4.96,0.03,10.06,0.51,15.08c0.04,5.56,0.28,12.31,0.59,17.63c-0.32,4.33,0.34,8.8,0.41,13.68
			c0.01,0.52-0.07,0.86-0.08,1.38c-0.08,7.4,0.86,15.57,0.76,21.58c0.4,2.23,0.12,4.17,0.13,6.26c0.01,2.26,0.29,4.34,0.37,6.51
			c0.03,0.71-0.07,1.36-0.06,2.08c0.03,2.19,0.31,4.33,0.44,6.74c0.19,3.61-0.19,7.46,0.29,11.59c-0.11,3.2-0.19,7.94,0.23,11.59
			c-0.22,6.2,0.53,12.42,0.56,18.78c0.01,2.15-0.24,4.11,0.13,6.26c-0.24,2.25,0.05,4.92,0.11,7.65c0.06,2.7-0.02,5.51,0.01,8.33
			c0.04,4.02,0.49,9-0.06,12.03c-1.31,1.42,0.79,4.01,0.63,7.22c-0.21,1.71-0.61,1.5-1.07,2.24c-0.15,1.52,0.03,2.94,0.19,4.41
			C35.18,516.88,34.61,518.16,34.69,520.44z M34.47,113.79c0.07,0.04,0.11-0.05,0.11-0.23C34.89,114.05,34.51,115.16,34.47,113.79z
			 M34.34,113.31c-0.1-1.93-0.47-4.63-0.3-6.04c-0.01-0.38-0.33,0.35-0.43-0.26c0.12-0.83,0.19-1.81,0.14-3.23
			c0.49-0.11,0.3,2.72,0.74,2.83c0,1.09,0,1.62,0.24,2.1c-0.08,2.23,0.24,2.72,0.13,4.41C34.57,112.69,34.66,113.43,34.34,113.31z"
			/>
	</g>
</g>
<g>
	<g>
		<polygon class="st24" points="46,59.15 554.13,40.26 563.51,563.04 89.09,558.59 88.86,583.14 588.51,587.83 578.23,14.8 
			45.1,34.61 		"/>
	</g>
	<g>
		<path class="st26" d="M405.53,583.99c-0.86,0.08-2.36,0.09-4.1,0.07C401.85,583.93,404.13,583.85,405.53,583.99z"/>
	</g>
	<g>
		<path class="st26" d="M343.67,566.76c-1.25,0.06-5.15,0.17-4.73-0.12C341.16,566.63,342.08,566.72,343.67,566.76z"/>
	</g>
	<g>
		<path class="st26" d="M337,566.32c-0.33,0.13-3.34-0.02-4.75,0C332.32,566.15,336.12,566.23,337,566.32z"/>
	</g>
	<g>
		<path class="st26" d="M317.94,568.68c-0.98,0.08-3.56,0.13-4.76,0C313.51,568.55,316.51,568.69,317.94,568.68z"/>
	</g>
	<g>
		<path class="st26" d="M309.28,565.93c-1.63,0.14-4.4,0.16-8.18,0.08C302.42,565.84,306.35,565.94,309.28,565.93z"/>
	</g>
	<g>
		<path class="st26" d="M285.55,578.8c-4.14-0.03-12.62,0.13-15.57-0.18C275.02,578.84,280.83,578.61,285.55,578.8z"/>
	</g>
	<g>
		<path class="st26" d="M274.47,572.97c-5.18,0.3-14.44-0.18-21.06-0.01c-0.93-0.3,9.7,0.05,11.61-0.16
			c1.58,0.04,2.76,0.1,4.02,0.17C270.87,572.96,272.58,572.78,274.47,572.97z"/>
	</g>
	<g>
		<path class="st26" d="M211.06,571.5c0.14,0.16-0.33,0.25-2.11,0.21c-0.51-0.06-0.68-0.14-0.59-0.25
			C209.27,571.48,210.16,571.49,211.06,571.5z"/>
	</g>
	<g>
		<path class="st26" d="M184.69,573.29c-4.18,0.23-13.74,0.16-18.99-0.1c-0.71,0.03-0.75,0.13-2.07,0.1c-3.15,0-10.19-0.17-3.36-0.1
			C168.72,573.08,175.4,573.33,184.69,573.29z"/>
	</g>
	<g>
		<path class="st26" d="M181.56,570.25c-1,0.08-2.68,0.09-4.77,0.06C177.29,570.18,180.78,570.18,181.56,570.25z"/>
	</g>
	<g>
		<path class="st26" d="M175.05,578.04c-0.76,0.13-4.25-0.03-6.11-0.01C170.29,577.96,173.54,577.9,175.05,578.04z"/>
	</g>
	<g>
		<path class="st26" d="M176.5,571.21c-1.67,0.14-5.43,0.06-7.52,0.15C167.13,571.11,173.92,571.22,176.5,571.21z"/>
	</g>
	<g>
		<path class="st26" d="M173.39,570.34c-1.34,0.17-5.26,0.08-8.19,0.08C166.94,570.29,170.73,570.37,173.39,570.34z"/>
	</g>
	<g>
		<path class="st26" d="M168.51,579.4c-0.24,0.2-2.91,0.15-4.82,0.18C164.1,579.4,166.83,579.46,168.51,579.4z"/>
	</g>
	<g>
		<path class="st26" d="M165.57,577.93c-2.22,0.15-9.81,0.03-13.57-0.04C156.76,577.79,160.38,577.84,165.57,577.93z"/>
	</g>
	<g>
		<path class="st26" d="M163.85,570.41c-3.5,0.24-8.59-0.02-11.53-0.08C155.55,570.2,160.19,570.54,163.85,570.41z"/>
	</g>
	<g>
		<path class="st26" d="M154.85,573.12c-1.32,0.09-3.57,0.08-5.47,0.12C149.01,572.97,152.56,573.11,154.85,573.12z"/>
	</g>
	<g>
		<path class="st26" d="M148.94,572.45c-1.61,0.13-3.04,0.05-5.43,0C144.06,572.32,147.31,572.47,148.94,572.45z"/>
	</g>
	<g>
		<path class="st26" d="M143.08,571.66c-0.75,0.15-5.83,0.13-4.7-0.18c1.45-0.01,1.26,0.1,1.3,0.2
			C141.3,571.73,141.18,571.59,143.08,571.66z"/>
	</g>
	<g>
		<path class="st26" d="M128.77,576.12C132.12,575.9,137.86,576.33,128.77,576.12L128.77,576.12z"/>
	</g>
	<g>
		<path class="st26" d="M121.31,578.25c-2.79,0.1-5.54,0.04-8.82-0.04C114.55,578.15,119.93,578.18,121.31,578.25z"/>
	</g>
	<g>
		<path class="st26" d="M119.17,578.58c0.98,0.2-4.48,0.13-3.38-0.04C116.91,578.56,118.03,578.57,119.17,578.58z"/>
	</g>
	<g>
		<path class="st26" d="M112.76,581.69c-0.96,0.11-3.1,0.12-4.77,0.06C108.48,581.61,111.99,581.62,112.76,581.69z"/>
	</g>
	<g>
		<path class="st26" d="M93.88,581.23C88.24,581.45,86.26,581.15,93.88,581.23L93.88,581.23z"/>
	</g>
	<g>
		<path class="st26" d="M246.26,582.78c-1.12,0.07-2.7,0.09-3.46,0.2c-2.09-0.26-5.93-0.08-8.76-0.22
			C237.5,582.52,241.22,582.9,246.26,582.78z"/>
	</g>
	<g>
		<path class="st26" d="M170.65,576.91c-1.64,0.01-1.44-0.13-3.36-0.1c-0.16-0.1,0.66-0.1,0.73-0.17c-3.38-0.08-5.26-0.01-8.14-0.04
			c0.38-0.04,0.74-0.09,0.74-0.17c-3.83,0.29-8.27-0.27-16.25-0.19c7.63-0.27,24.54,0.14,31.2,0.13c-0.99,0.23-6.84-0.05-7.53,0.21
			C167.87,576.76,171.8,576.65,170.65,576.91z"/>
	</g>
	<g>
		<path class="st26" d="M163.6,571.18c-0.77,0-0.4,0.06-0.01,0.06c-0.22,0.14-2.99,0-3.39-0.04
			C161.03,571.04,169.97,571.22,163.6,571.18z"/>
	</g>
	<g>
		<path class="st26" d="M113.28,571.37l0.07-0.24c-4.33-0.03-11.26-0.04-14.17-0.29c5.13-0.12,16.01,0.4,19.69,0.05
			c0.87,0.07,2.48,0.09,3.35,0.16c11.95-0.27,24.91,0.26,37.32,0.14c-5.57,0.59-18.18-0.41-24.51,0.19
			c-1.04-0.04-0.02-0.06,0.69-0.05C130.22,571.29,120.35,571.05,113.28,571.37z"/>
	</g>
	<g>
		<path class="st26" d="M117.67,579.05c-1.06,0.1-2.97,0.11-4.14,0.19C112.91,579.22,116.29,578.87,117.67,579.05z"/>
	</g>
	<g>
		<path class="st26" d="M216.72,28.23c-3.03,0.11-6.35,0.45-9.53,0.57c-7.45,0.28-14.13,0.29-21.64,0.69
			c-6.62,0.35-12.86,0.9-19.76,1.23c-5.12,0.24-6.79,0.39-10.21,0.6c-10.01,0.59-18.22,0.78-22.53,1.56
			c-7,0.67-15.8,1.24-21.93,1.84c-0.96,0.1-3.03,0.14-3.4,0.18c-15.6,1.54-25.11,3.45-43.49,4.82c-1.59,0.41-2.64,0.96-5.76,1.52
			c-1.39,0.25-4.55,0.5-5.56,0.73c-3.72,0.89-0.39,1.71-7.36,2.54c-0.38,0.2,0.9,0.2,1.25,0.32c-0.15,1.5,2.67,2.65,1,3.87
			c4.83,0.5,3.81,1.33,7.56,1.84c2.33,0.31,6.87,0.52,9.85,0.8c3.4,0.31,6.99,0.52,9.83,0.86c-0.01,0.45,4.32,0.38,5.17,0.72
			c5.28,0.08,9.28,0.32,14.64,0.39c0.52,0.13,1.79,0.17,1.92,0.35c11.27,0.35,22.65,0.87,38.05,0.6c1.38-0.03,4.35-0.08,6.07-0.15
			c11.42-0.44,29.01-0.94,35-0.56c2.06-0.03,2.02-0.17,4.07-0.2c1.31,0.24,7.39,0.55,12.65,0.34c1.81-0.07,4.96-0.57,8.92-0.79
			c5.91-0.32,11.51-0.01,16.84-0.29c2.44-0.13,5.02-0.57,7.57-0.74c6.64-0.45,20.13-0.81,25.71-0.89c4.4-0.07,6.06,0.16,9.39-0.03
			c3.01-0.17,5.27-0.56,4.96-1.01c8.61-1.34,30.89-1.38,44.18-2.32c9.79,0,19.11-0.95,28.48-1.23c1.87-0.06,4.12-0.01,6.05-0.09
			c3.2-0.12,7.47-0.48,11.59-0.7c7.04-0.39,13.22-0.59,19.01-0.96c8.99,0.26,15.53-0.67,23.04-0.92c2.82-0.09,5.59-0.01,8.75-0.12
			c2.67-0.1,5.23-0.37,8.16-0.46c2.91-0.1,5.94-0.02,8.75-0.12c2.09-0.08,3.74-0.26,5.45-0.31c2.25-0.07,3.67,0.02,6.05-0.09
			c2.5-0.12,5-0.44,7.52-0.56c9.22-0.44,19.17-0.56,27.83-1.33c15.73-0.21,29.4-1.32,48.02-1.61c4.63-0.29,8.03-0.51,12.88-0.57
			c1.08-0.08,1.06-0.23,2.76-0.28c4.84-0.09,9.8-0.36,14.79-0.62c1.25-0.06,2.5-0.13,3.75-0.19L554,37.4l0.24-0.02l0.44-0.03
			c0.59-0.04,1.19-0.05,1.73-0.01c0.14-0.08,0.29-0.15,0.49-0.2c0.06,0,0.12,0.01,0.18,0.01c-0.05,0.9-0.09,1.78-0.11,2.64
			c-0.02-0.21,0.01,2.45,0.03,4.13c0.03,1.85,0.06,3.69,0.09,5.5c0.13,7.27,0.33,14.16,0.6,19.46c-0.15,8.39,0.37,18.14,0.56,28.46
			c0.09,4.86,0.01,9.65,0.16,14.19c0.29,8.9,0.34,20.57,0.57,29.14c0.07,2.55,0.29,5.03,0.36,7.52c0.13,4.53,0.05,9.38,0.22,14.2
			c0.67,18.6,0.82,39.97,1.12,56.25c0.09,5.04,0.36,9.33,0.53,14.97c0.28,9.33,0.14,19.04,0.38,28.41c0.06,2.36,0.22,4.65,0.29,6.82
			c0.16,5.62,0.15,10.98,0.26,16.92c0.29,14.5,0.88,29.05,0.84,42.7c0.71,17.42,1.03,42.83,1.46,63.08
			c0.41,4.55,0.21,8.88,0.33,13.57c0.39,14.47,1.09,32.99,1.11,48.16c0.54,20.1,1.01,40.48,1.45,60.92
			c0.38,17.91,0.77,35.89,1.15,53.75c-9.44-0.03-18.84-0.07-28.18-0.1c-11.85-0.02-23.62-0.03-35.28-0.05
			c-4.94-0.29-12.61-0.21-16.95-0.08c-0.94-0.17-3.83-0.18-6.04-0.25c-7.91,0.32-17.85-0.09-27.83-0.09
			c-2.54,0.37-8.54,0.02-12.31,0.28c-1.61-0.23,2.17-0.16-0.58-0.31c-6.46,0.65-28.32,0.11-38.12,0.21
			c0.68,0.01,0.83,0.11-0.03,0.12c-2.37-0.2-3.5,0.14-6.15,0.11c-17.8-0.09-30.51,0.49-45.71,0.6c-1.9-0.12-6.99-0.47-8.76-0.22
			c2.74,0.07,6.23,0.08,5.99,0.37c-4.56-0.14-10.57-0.06-13.62,0.14c-5.64-0.03-8.53-0.21-13.58-0.04c-1.23-0.02,1.2,0.32-1.45,0.28
			c-7.9-0.23-11.88-0.01-18.95-0.22c-2.06,0.26-10.39,0.26-12.94,0.09c-2.31,0.1,2.54,0.26,0.58,0.31
			c-6.42,0.03-12.39,0.09-18.3-0.16c-1.47,0.12-2.44,0.28-4.85,0.3c-1.63,0,0.47-0.27-1.97-0.2c-2.28,0.14,1.77,0.29,1.21,0.49
			c-3.21,0.07-2.58,0.22-4.19,0.37c-4.47-0.21-7.54,0.1-11.61,0.16c-4.19,0.06-8.85-0.08-12.9-0.03c-3.47,0.04-4.96,0.24-8.9,0.19
			c-3.2-0.03-5.87-0.27-9.42-0.29c-1.87,0.03,1.25,0.24-1.42,0.22c-12.43-0.04-24.86-0.09-34.04,0.2
			c14.09-0.34,24.36,0.26,36.7-0.05c1.86,0.29,5.55-0.11,7.4,0.27c0.84-0.15-2.01-0.28,0.75-0.23c0.91,0.03,1.27,0.1,2.69,0.09
			c-1.76,0.3,0.86,0.33,1.87,0.56c10.5,0.03,18.73,0.06,27.82,0.09c1.69-0.06-1.17-0.19,0.75-0.23c3.46-0.02,6.11,0.05,10.2,0
			c1.22,0.25,3.96,0.39,2.5,0.69c-12.25-0.14-28.92,0.18-43.5,0.09c-4.42-0.03-9-0.31-11.56,0.04c6.55-0.06,11.82,0.41,17.51,0.51
			c7.36,0.12,15.23-0.19,22.43-0.04c2.03,0.04,2.86,0.16,4.69,0.17c1.43,0.01,3.87-0.14,5.48-0.12c1.75,0.03,1.85,0.16,3.35,0.16
			c3.07,0,5.45-0.17,8.86-0.14c5.71,0.07,11.31,0.34,17.57,0.33c1.15,0.12,0.64,0.38-0.81,0.41c-7.42-0.06-8.68-0.07-16.27-0.13
			c0.85,0.03,1.37,0.09,1.3,0.2c-2.34-0.04-3.16-0.12-4.76,0c5.63,0.04,5.12,0.5,3.19,0.7c-13.99-0.21-31.15-0.16-42.67-0.44
			c-1.27,0.12-2.09,0.28-4.17,0.31c-12.96,0.03-27.48-0.26-41.36-0.25c15.84,0.51,32.4,0.45,50.81,0.48c0.7,0.06,0.14,0.22,1.97,0.2
			c7.85-0.1,17,0.03,23.09,0.03c2.71,0.3,5.34,0.59,7.89,0.87c19.31-0.04,33.41,1.15,51.89,1.33c-0.09,0.18,1.35,0.25,1.91,0.38
			c-1.49,0.13-2.48,0.32-4.2,0.43c-3.03-0.02-6.14,0.05-8.81-0.1c-15.58,0.39-37.68-0.2-57.05-0.07c-2.36,0.28-0.51,0.52,1.12,0.79
			c9.33,0.26,17.86-0.08,27.73,0.39c3.53,0.74-0.19,1.2-7.83,1.17c-12.65-0.05-34.46-0.33-42.65-0.5
			c-37.11,0.07-73.92-0.45-111.95-0.48c21.13,0.33,40.69,0.14,59.6,0.58c-0.07-0.13,0.62-0.18,2.09-0.16
			c18.61,0.25,39.27,0.43,55.6,0.35c6.84,0.5,20.06,0.11,26.98,0.62c-1.74,0.66-7.43,0.92-14.58,1.03
			c7.31,0.03,14.12,0.32,20.24,0.42c5.03,0.08,13.72-0.04,16.27,0.13c0.61,0.04-0.57,0.17,0.61,0.19c-2.06-0.03,3.67,0,4.09-0.01
			c2.74-0.05,2.24-0.11,5.45-0.06c4.17,0.07,4.09,0.08,6.71,0.26c14.38,0.24,28.34,0.16,42.66,0.44c1.49,0.02,4.51,0.05,4.74,0.06
			c1.35,0.06,0.2,0.16,1.98,0.2c1.01,0.02,0.56-0.12,2.06-0.1c5.59,0.11,11.98,0.23,17.58,0.27c14,0.16,30.55,0.36,41.97,0.49
			c2.54,0.07-0.81,0.24,2.63,0.27c19.66,0.29,40.48,0.59,61.54,0.9c1.59,0.04,0.32,0.29,2.64,0.27c2.9,0.07,2.2-0.23,4.81-0.18
			c1.62,0.09,3.11,0.2,3.96,0.35c12.06,0.22,24.31,0.33,36.65,0.4c14,0.07,28.11,0.14,42.23,0.21c3.87,0.03,7.74,0.06,11.43,0.08
			c-0.48-24.56-0.96-48.95-1.41-72.17c-0.35-17.36-0.9-33.94-1.01-49.47c-0.58-20.82-0.89-38.82-1.27-58.31
			c-0.27-14.05-0.41-29.52-0.76-41.32c-0.06-2.04-0.24-4.45-0.29-6.83c-0.07-3.58,0.07-7.2,0.01-10.77
			c-0.17-9.66-0.59-19.56-0.75-29.19c-0.17-10.81-0.33-21.2-0.5-31.82c-0.09-5.98-0.39-11.73-0.51-17.67
			c-0.08-3.93,0.01-8.06-0.07-12.15c-0.22-11.45-0.69-23.09-0.83-33.93c-0.19-14.47-0.19-29.34-0.75-44.01
			c-0.13-16.21-0.48-35.93-0.86-51.45c0.25-12.6-0.48-25.69-0.62-39.94c-0.02-1.51,0.06-2.5,0.06-4.02
			c-0.01-9.21-0.22-18.85-0.44-28.24c-0.12-4.69-0.23-9.32-0.34-13.8c-0.15-7.74-0.29-15.22-0.42-22.29
			c-4.93,0.15-9.62,0.3-14.07,0.44c-1.45,0.08-2.86,0.17-4.26,0.25c-1.31,0.06-2.6,0.12-3.87,0.18c-1.54,0.07-3.05,0.11-4.54,0.14
			c-2.98,0.05-5.91,0.09-8.96,0.14c-6.58,0.17-12.66,0.6-18.99,0.84c-2.07,0.08-3.96,0.03-6.05,0.09
			c-6.4,0.19-12.64,0.62-19.69,0.92c-10.53,0.45-21.75,0.35-33.81,1.12c-9.33,0.12-23.15,0.38-33.8,1.06
			c-18.05,0.22-36.26,1.42-54.79,1.91c-6.26,0.16-11.95,0.06-18.25,0.58c-6.54-0.08-14.33,0.4-22.3,0.65
			c-7.87,0.2-16.07,0.4-24.29,0.6c-11.72,0.33-26.27,1.13-35.06,0.8c-4.05-1.22-11.74,1.08-21.08,1.15
			c-4.96-0.09-4.33-0.5-6.46-0.92c-4.43-0.04-8.58,0.24-12.87,0.51C227.06,28.47,223.39,27.99,216.72,28.23z M287.53,570.3
			c0.13-0.07-0.12-0.11-0.65-0.13C288.34,569.9,291.52,570.35,287.53,570.3z M286.13,570.4c-5.63-0.03-13.54,0.17-17.63-0.09
			c-1.1-0.01,0.98,0.35-0.81,0.41c-2.4-0.17-5.24-0.31-9.4-0.35c-0.26-0.5,7.96-0.13,8.33-0.56c3.17,0.07,4.73,0.11,6.15-0.11
			c6.5,0.23,7.95-0.06,12.86,0.15C284.33,570.13,286.51,570.08,286.13,570.4z"/>
	</g>
</g>
<g>
	<polygon class="st6" points="418.24,100.8 58.8,106 44.4,274.13 115.43,274.13 89.27,321.46 153.54,274.13 404.27,274.13 	"/>
</g>
<g>
	<path d="M94.02,340l30.33-54.87H55.13l14.92-174.09l2.71-0.04l362.74-5.25l-14.46,179.38H168.53L94.02,340z M61.66,279.13h72.86
		l-21.99,39.79l54.03-39.79H415.5l13.49-167.28l-353.43,5.11L61.66,279.13z"/>
</g>
<g>
	<polygon class="st7" points="181.91,313.99 541.35,319.19 555.76,487.32 484.72,487.32 510.88,534.65 446.61,487.32 195.89,487.32 
			"/>
</g>
<g>
	<path d="M505.5,533.11l-74.51-54.87H178.48l-14.46-179.38l365.45,5.29l14.92,174.09h-69.22L505.5,533.11z M184.01,472.24h248.94
		l54.03,39.79l-21.99-39.79h72.86l-13.9-162.17l-353.43-5.11L184.01,472.24z"/>
</g>
</svg>
