<?xml version="1.0" encoding="utf-8"?>
<!-- Generator: Adobe Illustrator 24.2.0, SVG Export Plug-In . SVG Version: 6.00 Build 0)  -->
<svg version="1.1" id="Layer_1" xmlns="http://www.w3.org/2000/svg" xmlns:xlink="http://www.w3.org/1999/xlink" x="0px" y="0px"
	 viewBox="0 0 500 397.4" style="enable-background:new 0 0 500 397.4;" xml:space="preserve">
<style type="text/css">
	.st0{fill:#F697B2;}
	.st1{fill:#FFC844;}
	.st2{fill:#B984BA;}
	.st3{fill:#B884C1;}
	.st4{fill:#E64783;}
	.st5{fill:#FFDD92;}
	.st6{fill:#863399;stroke:#7F3F98;stroke-width:2;stroke-miterlimit:10;}
	.st7{fill:#863399;}
	.st8{fill:none;stroke:#FFC844;stroke-width:4;stroke-miterlimit:10;}
	.st9{fill:#7F3F98;}
	.st10{fill:#6CCA98;}
	.st11{fill:#A9E0C0;}
	.st12{fill:#FFFFFF;}
	.st13{fill:#010101;}
	.st14{fill:#FA9A86;}
	.st15{fill:#1C355E;}
	.st16{fill:#757F9B;}
</style>
<g>
	<path class="st2" d="M88,363.5L13.1,119.3c-3.3-10.9,3.8-22.2,15-23.9l437.7-66.4c12.8-2,23.7,9.5,21,22.2l-63.2,303.8
		c-1.8,8.5-9.2,14.6-17.8,14.8l-299.6,6.7C97.9,376.8,90.4,371.4,88,363.5z"/>
</g>
<g>
	<path class="st2" d="M88,363.5L13.1,119.3c-3.3-10.9,3.8-22.2,15-23.9l437.7-66.4c12.8-2,23.7,9.5,21,22.2l-63.2,303.8
		c-1.8,8.5-9.2,14.6-17.8,14.8l-299.6,6.7C97.9,376.8,90.4,371.4,88,363.5z"/>
</g>
<path class="st1" d="M200.9,102l-6.9,5.7c-4.4,3.3-7.2,10.8-7.4,16.2l-0.3,7.2l-4.8-6.1c-3.9-5-9.8-8-16.2-8.1l-7.4-0.1l7.4-6.1
	c3.9-3.2,6.3-8,6.5-13l0.4-9.2l6.2,6.7c3.4,3.6,5.5,6.1,13.3,6.4L200.9,102z"/>
<path class="st1" d="M426.5,250.2l-8.9,0.8c-5.5,0.3-12,4.9-15.2,9.3l-4.3,5.8l-0.5-7.8c-0.4-6.3-3.7-12.1-8.9-15.7l-6.1-4.2l9.5-1
	c5-0.5,9.6-3.1,12.7-7.2l5.5-7.4l1.4,9c0.8,4.9,1.2,8.1,7.5,12.8L426.5,250.2z"/>
<path class="st5" d="M283.2,208.2v-0.1c-2.4-0.3-4.8-0.5-7.2-0.5c-2.2,0-4.3,0.1-6.5,0.2c1.4-1.7,2.8-3.4,4-5.1c1.4-2,2.7-4,3.8-6.1
	l-0.1-0.1c-1.7,1.7-3.2,3.6-4.7,5.5c-1.4,1.9-2.7,3.8-3.9,5.8c0,0-0.1,0-0.1,0c0-1.2-0.1-2.4,0-3.5c0-1.9,0.2-3.8,0.3-5.7
	c0.1-3.8,0-7.6-0.4-11.4h-0.1c-0.4,3.8-0.5,7.6-0.4,11.4c0.1,1.9,0.2,3.8,0.3,5.7c0,1.1,0,2.3,0,3.4c-0.9-0.3-1.8-0.6-2.6-0.9
	c-1.1-0.5-2.2-1-3.3-1.5c-2.2-0.9-4.5-1.7-6.9-2.1l0,0.1c2.1,1.2,4.3,2.1,6.6,2.9c1.1,0.3,2.3,0.6,3.5,1c0.7,0.3,1.5,0.6,2.2,0.9
	c-0.8,0-1.6,0.1-2.4,0c-1.2,0-2.4-0.2-3.6-0.3c-2.4-0.1-4.8,0-7.2,0.4v0.1c2.4,0.4,4.8,0.5,7.2,0.4c1.2-0.1,2.4-0.2,3.6-0.3
	c1,0,1.9,0,2.9,0.1c0,0.1,0,0.2,0,0.3c-0.5,0.8-1,1.5-1.6,2.2c-0.7,0.9-1.6,1.8-2.3,2.7c-1.5,1.9-2.8,3.9-3.9,6l0.1,0.1
	c1.7-1.7,3.2-3.6,4.6-5.6c0.6-1,1.2-2.1,1.9-3.1c0.4-0.6,0.8-1.1,1.2-1.7c0,0.1,0,0.3,0,0.4c-0.2,3.8-0.3,7.6-0.3,11.4
	c0.1,3.8,0.2,7.6,0.5,11.4h0.1c0.3-3.8,0.5-7.6,0.5-11.4c0-3.8-0.1-7.6-0.3-11.4c0-0.4,0-0.7,0-1.1c0.1-0.1,0.2-0.2,0.3-0.3
	c2.1,1,4.3,1.9,6.4,2.7c2.3,0.8,4.5,1.5,6.9,2l0-0.1c-2.1-1.2-4.3-2.1-6.5-3c-1.5-0.5-3-1-4.5-1.5c1.6,0.1,3.1,0.1,4.7,0.1
	C278.5,208.7,280.9,208.6,283.2,208.2z"/>
<path class="st5" d="M458.9,73v-0.1c-2.4-0.3-4.8-0.5-7.2-0.5c-2.2,0-4.3,0.1-6.5,0.2c1.4-1.7,2.8-3.4,4-5.1c1.4-2,2.7-4,3.8-6.1
	l-0.1-0.1c-1.7,1.7-3.2,3.6-4.7,5.5c-1.4,1.9-2.7,3.8-3.9,5.8c0,0-0.1,0-0.1,0c0-1.2-0.1-2.4,0-3.5c0-1.9,0.2-3.8,0.3-5.7
	c0.1-3.8,0-7.6-0.4-11.4H444c-0.4,3.8-0.5,7.6-0.4,11.4c0.1,1.9,0.2,3.8,0.3,5.7c0,1.1,0,2.3,0,3.4c-0.9-0.3-1.8-0.6-2.6-0.9
	c-1.1-0.5-2.2-1-3.3-1.5c-2.2-0.9-4.5-1.7-6.9-2.1l0,0.1c2.1,1.2,4.3,2.1,6.6,2.9c1.1,0.3,2.3,0.6,3.5,1c0.7,0.3,1.5,0.6,2.2,0.9
	c-0.8,0-1.6,0.1-2.4,0c-1.2,0-2.4-0.2-3.6-0.3c-2.4-0.1-4.8,0-7.2,0.4V73c2.4,0.4,4.8,0.5,7.2,0.4c1.2-0.1,2.4-0.2,3.6-0.3
	c1,0,1.9,0,2.9,0.1c0,0.1,0,0.2,0,0.3c-0.5,0.8-1,1.5-1.6,2.2c-0.7,0.9-1.6,1.8-2.3,2.7c-1.5,1.9-2.8,3.9-3.9,6l0.1,0.1
	c1.7-1.7,3.2-3.6,4.6-5.6c0.6-1,1.2-2.1,1.9-3.1c0.4-0.6,0.8-1.1,1.2-1.7c0,0.1,0,0.3,0,0.4c-0.2,3.8-0.3,7.6-0.3,11.4
	c0.1,3.8,0.2,7.6,0.5,11.4h0.1c0.3-3.8,0.5-7.6,0.5-11.4c0-3.8-0.1-7.6-0.3-11.4c0-0.4,0-0.7,0-1.1c0.1-0.1,0.2-0.2,0.3-0.3
	c2.1,1,4.3,1.9,6.4,2.7c2.3,0.8,4.5,1.5,6.9,2l0-0.1c-2.1-1.2-4.3-2.1-6.5-3c-1.5-0.5-3-1-4.5-1.5c1.6,0.1,3.1,0.1,4.7,0.1
	C454.1,73.4,456.5,73.3,458.9,73z"/>
<path class="st5" d="M99.5,178.3v-0.2c-4-0.6-8-0.8-12-0.9c-3.6,0-7.2,0.1-10.9,0.4c2.4-2.8,4.6-5.6,6.7-8.5
	c2.3-3.3,4.5-6.6,6.4-10.2l-0.1-0.1c-2.8,2.9-5.3,6-7.8,9.2c-2.3,3.1-4.5,6.3-6.5,9.7c-0.1,0-0.1,0-0.2-0.1c-0.1-2-0.1-3.9-0.1-5.9
	c0.1-3.2,0.3-6.4,0.5-9.5c0.1-6.4-0.1-12.7-0.7-19.1h-0.2c-0.6,6.4-0.8,12.7-0.7,19.1c0.1,3.2,0.4,6.4,0.5,9.5c0,1.9,0,3.8-0.1,5.7
	c-1.5-0.4-3-0.9-4.4-1.5c-1.8-0.8-3.6-1.7-5.4-2.5c-3.7-1.5-7.5-2.8-11.5-3.6l-0.1,0.2c3.5,2,7.2,3.5,11,4.8c1.9,0.6,3.9,1,5.8,1.7
	c1.2,0.4,2.5,0.9,3.7,1.5c-1.3,0.1-2.6,0.1-3.9,0.1c-2-0.1-4-0.3-6-0.5c-4-0.1-8,0-12,0.7v0.2c4,0.6,8,0.8,12,0.7c2-0.1,4-0.4,6-0.5
	c1.6-0.1,3.2,0,4.8,0.1c0,0.2,0,0.3,0,0.5c-0.8,1.3-1.7,2.5-2.6,3.7c-1.2,1.6-2.6,3-3.9,4.6c-2.5,3.1-4.7,6.5-6.5,10.1l0.1,0.1
	c2.9-2.9,5.4-6,7.6-9.3c1.1-1.7,2-3.5,3.2-5.1c0.6-1,1.3-1.9,2.1-2.8c0,0.2,0,0.5,0,0.7c-0.3,6.4-0.5,12.7-0.5,19.1
	c0.1,6.4,0.3,12.7,0.9,19.1h0.2c0.6-6.4,0.8-12.7,0.9-19.1c0-6.4-0.1-12.7-0.5-19.1c0-0.6,0-1.2-0.1-1.8c0.2-0.2,0.3-0.4,0.5-0.6
	c3.5,1.7,7.1,3.1,10.7,4.5c3.8,1.3,7.6,2.5,11.5,3.4l0.1-0.2c-3.5-1.9-7.2-3.5-10.9-5c-2.5-0.9-4.9-1.7-7.4-2.5
	c2.6,0.1,5.2,0.2,7.8,0.2C91.5,179.1,95.5,178.9,99.5,178.3z"/>
<path class="st7" d="M231.8,177c0.2,0.8,0.1,1.6-0.2,2.3c-0.3,0.7-0.7,1.4-1.1,2c-0.9,1.2-2,2.3-3.2,3.3c-2.3,2-4.8,3.6-7.4,5.3
	c-5.1,3.2-10.5,6-16,8.5c-11,5.2-22.5,9.1-34.1,12.1c-5.9,1.5-11.8,2.8-17.7,3.9c-5.9,1.1-11.9,2.1-17.9,2.9c-6,0.8-12,1.5-18,1.7
	c-1.5,0.1-3,0.1-4.6,0c-1.5,0-3-0.1-4.6-0.3c-1.5-0.2-3.1-0.5-4.6-1c-0.8-0.3-1.5-0.7-2.2-1.2c-0.7-0.5-1.3-1.3-1.7-2.3
	c-0.3-1-0.1-2,0.1-2.8c0.3-0.8,0.7-1.6,1.2-2.2c1-1.3,2.1-2.4,3.3-3.5c2.4-2.1,4.9-3.8,7.5-5.3c5.2-3.2,10.7-5.8,16.3-8.2
	c11.1-4.8,22.6-8.8,34.2-12c11.7-3.2,23.5-5.8,35.6-7c6-0.7,12.1-1,18.1-1c3,0.1,6.1,0.1,9.1,0.7c1.5,0.2,3,0.6,4.4,1.1
	c0.7,0.3,1.4,0.7,2,1.1C231.1,175.5,231.6,176.2,231.8,177z M231.5,177.1c-0.2-0.7-0.7-1.2-1.2-1.7c-0.6-0.4-1.2-0.8-1.9-1
	c-1.4-0.5-2.8-0.8-4.3-1c-3-0.4-6-0.4-9-0.2c-6,0.3-11.9,1.3-17.8,2.4c-2.9,0.6-5.9,1.2-8.8,1.8c-1.5,0.3-2.9,0.6-4.4,1
	c-1.5,0.3-2.9,0.7-4.4,1c-5.8,1.4-11.6,2.9-17.4,4.6c-5.8,1.6-11.5,3.4-17.1,5.3c-5.7,1.9-11.3,3.9-16.8,6.2
	c-5.5,2.3-11,4.7-16.1,7.6c-2.6,1.4-5.1,3-7.4,4.7c-1.1,0.9-2.2,1.8-3.1,2.9c-0.2,0.3-0.4,0.5-0.6,0.8c-0.2,0.3-0.3,0.6-0.4,0.8
	c-0.2,0.6-0.3,1.1-0.2,1.6c0.1,0.5,0.5,0.9,0.9,1.3c0.5,0.4,1.1,0.7,1.7,1c1.3,0.5,2.7,0.9,4.2,1.1c2.9,0.5,5.9,0.6,8.9,0.6
	c6-0.1,12-0.7,17.9-1.7c3-0.5,5.9-1,8.8-1.7c2.9-0.7,5.9-1.3,8.8-2.1c5.8-1.5,11.6-3.1,17.3-4.9c11.5-3.5,22.8-7.2,34.1-11.3
	c2.8-1.1,5.6-2.2,8.3-3.4c2.7-1.2,5.5-2.5,8.1-3.9c2.6-1.4,5.2-3,7.5-4.8c1.2-0.9,2.3-2,3.2-3.1c0.5-0.6,0.8-1.2,1.1-1.9
	C231.5,178.5,231.6,177.8,231.5,177.1z"/>
<path class="st7" d="M426.2,125.7c-0.2,1-0.9,1.7-1.7,2.2c-0.8,0.5-1.6,0.9-2.5,1.2c-1.7,0.6-3.6,0.9-5.4,1.2
	c-3.6,0.6-7.3,0.8-10.9,0.9c-7.3,0.3-14.6,0.1-21.9-0.3c-14.6-0.8-29.1-2.9-43.5-5.8c-7.2-1.5-14.3-3.2-21.3-5.1
	c-3.5-0.9-7.1-1.9-10.6-2.9c-3.5-1-7-2-10.5-3.1c-7-2.1-13.9-4.4-20.7-7.1c-3.4-1.4-6.8-2.8-10-4.6c-1.6-0.9-3.2-1.9-4.7-3.1
	c-0.7-0.6-1.5-1.3-2.1-2.1c-0.6-0.8-1.2-2-0.9-3.3c0.2-1.3,1.2-2.2,2-2.8c0.9-0.6,1.8-1,2.7-1.3c1.8-0.7,3.7-1,5.5-1.3
	c3.7-0.6,7.4-0.8,11.1-0.9c7.4-0.2,14.7,0.1,22,0.7c14.6,1.2,29.1,3.2,43.5,6c14.4,2.8,28.6,6.2,42.5,10.9
	c6.9,2.3,13.8,4.8,20.5,7.8c3.3,1.5,6.7,3,9.8,4.9c1.6,0.9,3.1,1.9,4.5,3.1c0.7,0.6,1.4,1.3,1.9,2
	C425.9,123.8,426.3,124.7,426.2,125.7z M425.8,125.7c0.2-0.8-0.2-1.7-0.7-2.4c-0.5-0.7-1.2-1.3-1.9-1.9c-1.4-1.1-2.9-2.1-4.5-3
	c-3.2-1.7-6.5-3.2-9.9-4.4c-6.8-2.5-13.8-4.6-20.8-6.4c-7-1.8-14.1-3.5-21.2-5.1c-7.1-1.6-14.2-3.1-21.3-4.4
	c-7.1-1.4-14.3-2.5-21.5-3.7c-7.2-1.1-14.4-2-21.6-2.7c-7.2-0.7-14.5-1.2-21.7-1.2c-3.6,0-7.2,0.1-10.7,0.5c-1.8,0.2-3.5,0.5-5.1,1
	c-0.8,0.3-1.6,0.6-2.2,1c-0.7,0.4-1.1,0.9-1.2,1.4c-0.1,0.5,0.1,1.2,0.5,1.8c0.4,0.7,1,1.3,1.7,1.8c1.3,1.1,2.8,2.1,4.3,3.1
	c3.1,1.8,6.4,3.4,9.7,4.8c6.7,2.8,13.6,5.1,20.6,7.1c3.5,1,7,1.9,10.6,2.8c3.5,0.8,7.1,1.6,10.7,2.4c7.1,1.5,14.3,2.8,21.4,4.1
	c14.3,2.5,28.7,4.7,43.1,6.5c7.2,0.9,14.5,1.5,21.7,1.6c3.6,0.1,7.3-0.1,10.9-0.5c1.8-0.2,3.6-0.6,5.3-1.1c0.9-0.3,1.7-0.6,2.4-1.1
	C425,127.2,425.6,126.5,425.8,125.7z"/>
<path class="st7" d="M255.2,269.7c0.3,0.8,0.3,1.6,0.1,2.4c-0.2,0.8-0.6,1.5-1,2.2c-0.9,1.3-1.9,2.5-3.1,3.5c-0.6,0.5-1.2,1-1.7,1.5
	c-0.6,0.5-1.2,1-1.8,1.4c-1.2,0.9-2.5,1.8-3.8,2.6c-1.3,0.8-2.6,1.6-3.9,2.3c-1.3,0.7-2.7,1.4-4,2.1c-2.7,1.4-5.5,2.6-8.3,3.6
	c-5.7,2.1-11.5,3.7-17.3,5.6c-2.9,0.9-5.7,1.9-8.6,2.8l-8.6,2.9c-5.7,2-11.5,3.7-17.4,5.1c-2.9,0.7-5.9,1.4-8.9,2
	c-3,0.6-6,1.1-9,1.6c-6,0.8-12.1,1.3-18.2,1.2c-1.5,0-3.1-0.1-4.6-0.3c-1.5-0.1-3.1-0.3-4.6-0.7c-1.5-0.3-3-0.8-4.5-1.4
	c-0.7-0.3-1.4-0.8-2-1.3c-0.6-0.6-1.1-1.3-1.2-2.1l0.3-0.1c0.6,1.3,1.9,2,3.3,2.4c1.4,0.4,2.8,0.6,4.3,0.7c2.9,0.2,5.9,0.1,8.8-0.1
	c5.9-0.4,11.8-1.2,17.7-2.2c5.9-0.9,11.8-1.9,17.7-3.1l8.8-1.8c2.9-0.6,5.9-1.2,8.8-1.9c5.9-1.3,11.7-2.9,17.3-4.9
	c5.7-2,11.1-4.7,16.5-7.2c5.4-2.5,10.9-4.9,16.1-7.7c2.6-1.4,5.2-2.9,7.6-4.6c1.2-0.9,2.3-1.8,3.3-2.8c1-1,1.8-2.3,1.6-3.7
	L255.2,269.7z"/>
<path class="st7" d="M100,214c4.3,14.8,8.4,29.7,12.3,44.6l2.9,11.2l2.8,11.2c1.9,7.5,3.7,14.9,5.5,22.5l2.6,11.3l1.3,5.6l0.6,2.8
	c0.1,0.6,0.6,1.2,1.3,1.6c0.3,0.3,0.7,0.4,1.1,0.6c0.4,0.2,0.8,0.3,1.3,0.5c0.9,0.3,1.8,0.5,2.7,0.7c1.8,0.3,3.7,0.5,5.6,0.6
	c3.8,0.2,7.6,0,11.5-0.3c15.3-1.3,30.4-4.9,45.1-9.3c14.7-4.5,29.2-9.8,42.9-16.5c3.4-1.7,6.7-3.5,9.9-5.6c1.6-1,3.1-2.1,4.4-3.3
	c0.7-0.6,1.3-1.2,1.9-1.8c0.3-0.3,0.5-0.6,0.8-1c0.2-0.3,0.5-0.7,0.6-1c0.2-0.3,0.2-0.6,0.3-0.8c0-0.1,0-0.2,0-0.3
	c0-0.1,0-0.2-0.1-0.3l-0.7-2.8l-1.4-5.6l-2.8-11.2c-7.3-30-14.3-60-20.6-90.2l0.4-0.1c8.5,29.6,16.4,59.4,24,89.3l2.8,11.2l1.4,5.6
	l0.7,2.8c0.1,0.3,0.1,0.7,0.2,1.1c0,0.4,0,0.7-0.1,1.1c-0.1,0.7-0.4,1.3-0.6,1.9c-0.3,0.6-0.6,1-0.9,1.5c-0.4,0.4-0.7,0.9-1.1,1.3
	c-0.7,0.8-1.5,1.5-2.3,2.1c-1.6,1.3-3.2,2.5-4.9,3.5c-3.3,2.1-6.8,3.9-10.3,5.6c-7,3.4-14.3,6.2-21.6,8.7
	c-7.3,2.6-14.8,4.7-22.2,6.6c-7.5,2-15,3.6-22.6,5.1c-7.6,1.5-15.2,2.7-22.9,3.5c-3.8,0.4-7.7,0.6-11.6,0.6c-1.9,0-3.9-0.1-5.9-0.4
	c-1-0.1-2-0.3-3-0.6c-0.5-0.1-1-0.3-1.5-0.5c-0.5-0.2-1-0.4-1.4-0.7c-0.9-0.6-1.9-1.4-2.3-2.7l-0.8-2.8l-1.5-5.6l-3-11.2
	c-2-7.5-3.9-14.9-5.7-22.4l-2.7-11.2l-2.7-11.3c-3.5-15-6.9-30.1-10-45.2L100,214z"/>
<path class="st1" d="M111.8,261.6c0.6-3,2.2-5.9,4.3-8.1c2.2-2.3,4.8-4.1,7.7-5.3c2.9-1.3,6-1.9,9.1-2.2c3.1-0.3,6.3-0.1,9.4,0.2
	c3.1,0.3,6.2,0.9,9.2,1.5c3,0.6,6,1.1,9,0.9c3-0.2,5.8-1.2,8.2-3c2.4-1.7,4.5-4,6.5-6.3c4.1-4.6,8.3-9.3,13.3-13.2
	c2.5-1.9,5.1-3.7,8-5.1c2.8-1.4,5.9-2.3,9.1-2.7c3.2-0.4,6.4,0,9.4,0.5c3.1,0.6,6.1,1.3,9.1,1.8c3,0.5,6.1,0.6,9.1,0.1
	c3-0.6,5.9-1.9,8-4.3c-0.9,1.2-2.1,2.3-3.5,3c-1.4,0.8-2.8,1.3-4.4,1.7c-3.1,0.7-6.2,0.7-9.3,0.3c-3.1-0.4-6.1-1.1-9.2-1.5
	c-3-0.5-6.1-0.7-9.1-0.3c-3,0.4-5.9,1.4-8.6,2.7c-2.7,1.3-5.2,3-7.6,4.9c-4.8,3.8-8.9,8.4-12.9,13.1c-2.1,2.3-4.2,4.6-6.9,6.5
	c-1.3,0.9-2.7,1.7-4.3,2.3c-1.5,0.6-3.2,0.9-4.8,0.9c-3.2,0.2-6.4-0.4-9.4-1c-3-0.6-6-1.3-9.1-1.7c-3-0.4-6.1-0.6-9.1-0.5
	c-3,0.2-6.1,0.7-8.9,1.8c-2.8,1.1-5.5,2.7-7.7,4.9C114.3,255.9,112.7,258.6,111.8,261.6z"/>
<path class="st7" d="M260.5,94.2c-1.9,4.9-3.4,9.8-4.6,14.9c-1.2,5-2,10.1-2.2,15.2c0,1.3,0,2.5,0,3.8c0,1.3,0.2,2.5,0.3,3.8
	c0.1,1.3,0.4,2.5,0.6,3.7c0.2,1.2,0.6,2.4,0.9,3.6c1.5,4.8,3.7,9.4,6.4,13.7c1.4,2.1,2.8,4.2,4.4,6.2c1.6,2,3.3,3.9,5.2,5.7
	c1.8,1.8,3.7,3.6,5.7,5.2c2,1.7,4,3.3,6.1,4.8c4.2,3.1,8.5,6,12.7,9.1c2.1,1.6,4.2,3.2,6.1,5c1.9,1.9,3.7,3.9,4.9,6.4
	c1.2,2.7,1.4,5.3,1.7,8c0.2,2.7,0.3,5.3,0.3,7.9c0,5.3-0.4,10.5-0.9,15.7c-0.9,10.4-2.2,20.8-3.9,31.1c-1.7,10.3-3.6,20.6-5.8,30.8
	c-1.1,5.1-2.3,10.2-3.5,15.3c-0.6,2.5-1.3,5.1-1.9,7.6c-0.7,2.5-1.3,5-2.3,7.5l-0.3-0.2c1.1-5,1.8-10.2,2.7-15.3
	c0.9-5.1,1.7-10.3,2.5-15.4c1.6-10.3,3.3-20.6,4.8-30.9c0.8-5.1,1.5-10.3,2.3-15.4c0.7-5.1,1.4-10.3,2-15.4c0.6-5.2,1-10.3,1.3-15.5
	c0.1-2.6,0.2-5.2,0.2-7.7c-0.1-2.5-0.2-5.1-1-7.3c-0.9-2.2-2.5-4.3-4.2-6.1c-1.7-1.9-3.7-3.6-5.7-5.2c-4.1-3.2-8.4-6.1-12.7-9.1
	c-4.3-3-8.5-6.1-12.5-9.5c-2-1.7-3.9-3.6-5.7-5.5c-1.8-2-3.5-4-5-6.2c-1.5-2.2-2.9-4.5-4.1-6.9c-0.6-1.2-1.1-2.4-1.6-3.7
	c-0.3-0.6-0.5-1.3-0.7-1.9c-0.2-0.6-0.5-1.2-0.6-1.9c-0.3-1.3-0.7-2.6-0.9-4c-0.2-1.3-0.4-2.7-0.5-4c-0.1-1.3-0.1-2.7-0.1-4
	c0.1-1.3,0.1-2.7,0.2-4c0.1-1.3,0.2-2.7,0.4-4c0.2-1.3,0.4-2.6,0.7-3.9c0.3-1.3,0.6-2.6,0.9-3.9c0.4-1.3,0.7-2.6,1.1-3.8
	c1.6-5,3.6-9.9,6.1-14.5L260.5,94.2z"/>
<path class="st7" d="M427.4,126.3c0.5,5.3,0.3,10.6-0.2,15.9c-0.1,1.3-0.3,2.6-0.5,4c-0.2,1.3-0.5,2.6-0.7,3.9L425,154l-1.2,3.9
	l-1.5,3.8l-1.8,3.7l-2.1,3.5l-2.5,3.3c-1.8,2-3.7,4-5.8,5.7c-1,0.9-2.1,1.7-3.2,2.5c-1.1,0.7-2.2,1.5-3.4,2.2
	c-4.6,2.8-9.6,4.8-14.7,6.4c-2.5,0.8-5.1,1.4-7.7,2c-2.6,0.6-5.2,1.1-7.8,1.7c-5.2,1.1-10.4,2-15.4,3.4c-2.5,0.7-5,1.5-7.3,2.6
	c-0.6,0.3-1.2,0.6-1.7,0.9L348,200l-0.8,0.5c-0.5,0.3-1,0.8-1.5,1.1c-0.5,0.4-0.8,0.8-1.2,1.3c-1.5,2-2.6,4.3-3.7,6.7
	c-1.1,2.4-2,4.8-2.9,7.2c-1.8,4.9-3.5,9.9-5.1,14.9c-1.6,5-3.1,10-4.5,15.1l-4.3,15.2c-2.9,10.1-5.6,20.3-8.4,30.4
	c-1.4,5.1-2.8,10.2-4.1,15.2c-1.3,5.1-2.8,10.2-3.8,15.3l-0.4,0c0-1.4,0.2-2.7,0.4-4l0.6-3.9c0.4-2.6,0.9-5.2,1.4-7.8
	c1-5.2,2-10.4,3.1-15.5c2.2-10.3,4.7-20.6,7.4-30.8c2.7-10.2,5.8-20.3,9.2-30.3c1.7-5,3.5-10,5.6-14.9c1-2.4,2.1-4.9,3.4-7.2
	c1.3-2.4,2.6-4.7,4.4-6.9c0.5-0.5,1-1.1,1.6-1.5c0.6-0.4,1.1-0.8,1.7-1.2l0.9-0.5l0.9-0.5c0.6-0.3,1.2-0.6,1.8-0.8
	c2.5-1,5.1-1.8,7.6-2.4c5.2-1.3,10.3-2.2,15.5-3.4c2.6-0.6,5.1-1.2,7.6-2c2.5-0.8,5-1.6,7.4-2.5c4.9-1.9,9.5-4.2,13.8-7
	c4.3-2.8,8.2-6.2,11.6-10l2.3-3l2-3.2l1.8-3.4l1.5-3.5c1.9-4.8,3.2-9.8,4.1-15c0.9-5.1,1.5-10.4,1.7-15.6L427.4,126.3z"/>
<path class="st7" d="M294.9,301.1c-0.4,1.2-1.1,2.2-1.9,3.1c-0.8,0.9-1.7,1.7-2.7,2.5c-1.9,1.5-4,2.8-6.1,3.9
	c-2.1,1.2-4.3,2.2-6.5,3.2c-2.2,1-4.4,1.9-6.6,2.8c-2.2,0.9-4.5,1.7-6.7,2.6l-6.7,2.4c-2.2,0.8-4.5,1.6-6.7,2.5
	c-1.1,0.4-2.2,0.9-3.2,1.3c-0.5,0.2-1,0.5-1.4,0.7c-0.2,0.1-0.4,0.3-0.6,0.4c-0.1,0.1-0.2,0.3-0.1,0.1c0,0,0.1-0.2,0-0.2
	c0,0,0,0,0,0c0,0.1,0,0.1,0,0.2c0,0.1,0,0.2,0.1,0.2c0,0.1,0.1,0.2,0.1,0.3c0.2,0.4,0.5,0.8,0.8,1.2c0.7,0.8,1.5,1.6,2.4,2.3
	c1.8,1.5,3.7,2.8,5.7,4c2,1.2,4.1,2.4,6.2,3.5c2.1,1.1,4.3,2,6.5,3c8.8,3.6,18.1,6,27.5,7.4c4.7,0.7,9.4,1.1,14.1,1.2
	c4.7,0.2,9.4,0.2,14.2-0.1c4.7-0.3,9.4-0.8,14-1.7c2.3-0.5,4.6-1,6.7-1.6c1.1-0.3,2.1-0.7,3-1.2c0.4-0.2,0.8-0.5,1-0.7
	c0,0,0.1-0.1,0.1-0.1c0,0,0,0,0,0c0,0,0,0-0.1,0.2c-0.1,0.7,0.1,0.7,0,0.6c-0.1-0.2-0.4-0.6-0.8-1c-0.4-0.4-0.7-0.8-1.2-1.2
	c-0.8-0.8-1.7-1.5-2.6-2.3c-1.8-1.5-3.7-3-5.5-4.5c-3.7-3-7.5-6-11.1-9.1c-3.6-3.1-7.2-6.5-10.4-10.1c-1.6-1.8-3.1-3.8-4.2-5.9
	c-0.6-1.1-1.1-2.2-1.4-3.4c-0.3-1.2-0.3-2.5,0.1-3.7l0.3,0.1c-0.2,1.1,0,2.3,0.3,3.4c0.4,1.1,1,2.1,1.6,3.1c1.3,1.9,2.9,3.6,4.6,5.3
	c3.3,3.3,7.1,6.3,10.8,9.2c3.8,2.9,7.6,5.7,11.4,8.6c1.9,1.4,3.8,2.9,5.7,4.4c0.9,0.8,1.9,1.5,2.8,2.4c0.5,0.4,0.9,0.9,1.4,1.3
	c0.5,0.5,0.9,1,1.4,1.8l0.2,0.4c0.1,0.1,0.1,0.3,0.2,0.5c0,0.1,0.1,0.4,0.1,0.6c0,0.2,0,0.5-0.1,0.8c-0.3,0.9-0.7,1.2-1,1.6
	c-0.7,0.6-1.3,1-1.9,1.3c-1.2,0.6-2.4,1.1-3.6,1.5c-2.4,0.8-4.8,1.3-7.2,1.7c-4.8,0.8-9.7,1.2-14.5,1.3c-9.7,0.3-19.4-0.6-28.8-2.6
	c-2.4-0.5-4.7-1.1-7-1.7c-2.3-0.6-4.6-1.3-6.9-2c-4.6-1.4-9.1-2.9-13.6-4.6c-2.2-0.9-4.5-1.7-6.7-2.7c-2.2-0.9-4.4-1.9-6.6-3
	c-2.2-1.1-4.3-2.3-6.3-3.8c-1-0.7-2-1.5-2.9-2.5c-0.5-0.5-0.9-1-1.3-1.7c-0.1-0.2-0.2-0.3-0.3-0.5l-0.2-0.6
	c-0.1-0.2-0.1-0.5-0.1-0.7c0-0.1,0-0.2,0-0.4c0-0.2,0.1-0.5,0.1-0.7c0.3-0.8,0.7-1,1-1.3c0.3-0.3,0.6-0.5,0.9-0.7
	c0.6-0.4,1.1-0.7,1.7-1c1.1-0.6,2.3-1,3.4-1.5c2.3-0.9,4.5-1.7,6.8-2.5L270,314c4.5-1.6,8.9-3.2,13.3-5.1c2.1-1,4.3-2,6.3-3.2
	c1-0.6,2-1.3,2.8-2.1c0.9-0.8,1.7-1.6,2.2-2.7L294.9,301.1z"/>
<path class="st5" d="M253.3,134.6c6.1-2,12.3-4,18.7-5c6.4-1,13.1-0.8,19.4,1.3c3.1,1.1,6.1,2.6,8.7,4.7c2.6,2.1,4.7,4.6,6.9,6.9
	c4.4,4.6,9.7,8.2,15.7,10.2c3,1.1,6.1,1.8,9.2,2.4c3.1,0.4,6.3,0.8,9.5,0.8c6.4,0.2,12.8-0.6,19.1-1.6c3.2-0.5,6.3-1.2,9.5-1.8
	c3.2-0.6,6.4-1.1,9.7-1.1c3.3,0,6.6,0.7,9.5,2.2c2.9,1.4,5.4,3.8,6.7,6.8c-1.4-2.9-4-5.1-6.9-6.4c-2.9-1.3-6.1-1.8-9.3-1.7
	c-6.4,0.1-12.5,2.3-18.9,3.4c-6.4,1.2-12.9,1.9-19.4,1.8c-3.3,0-6.5-0.3-9.8-0.7l-2.4-0.4c-0.8-0.1-1.6-0.3-2.4-0.5l-2.4-0.6
	c-0.8-0.2-1.6-0.5-2.3-0.8c-6.2-2.1-11.8-6-16.3-10.8c-2.2-2.4-4.3-4.8-6.7-6.8c-2.4-2-5.2-3.5-8.1-4.6c-6-2.2-12.5-2.5-18.8-1.7
	C265.7,131.2,259.5,132.9,253.3,134.6z"/>
</svg>
