<?xml version="1.0" encoding="utf-8"?>
<!-- Generator: Adobe Illustrator 24.2.0, SVG Export Plug-In . SVG Version: 6.00 Build 0)  -->
<svg version="1.1" id="Layer_1" xmlns="http://www.w3.org/2000/svg" xmlns:xlink="http://www.w3.org/1999/xlink" x="0px" y="0px"
	 viewBox="0 0 500 397.4" style="enable-background:new 0 0 500 397.4;" xml:space="preserve">
<style type="text/css">
	.st0{fill:#F697B2;}
	.st1{fill:#FFC844;}
	.st2{fill:#B984BA;}
	.st3{fill:#B884C1;}
	.st4{fill:#E64783;}
	.st5{fill:#FFDD92;}
	.st6{fill:#863399;stroke:#7F3F98;stroke-width:2;stroke-miterlimit:10;}
	.st7{fill:#863399;}
	.st8{fill:none;stroke:#FFC844;stroke-width:4;stroke-miterlimit:10;}
	.st9{fill:#7F3F98;}
	.st10{fill:#6CCA98;}
	.st11{fill:#A9E0C0;}
	.st12{fill:#FFFFFF;}
	.st13{fill:#010101;}
	.st14{fill:#FA9A86;}
	.st15{fill:#1C355E;}
	.st16{fill:#757F9B;}
</style>
<path class="st0" d="M17.5,213C36.2,115.8,417.3-11.2,469.6,41.1c31.8,31.8-67.3,119.6-67.3,171.9s66.5,97.6,23.6,140.6
	C366.7,412.7-1.5,312,17.5,213z"/>
<path class="st7" d="M457.6,76.9v-0.2c-4-0.6-8-0.8-12-0.9c-3.6,0-7.2,0.1-10.9,0.4c2.4-2.8,4.6-5.6,6.7-8.5
	c2.3-3.3,4.5-6.6,6.4-10.2l-0.1-0.1c-2.8,2.9-5.3,6-7.8,9.2c-2.3,3.1-4.5,6.3-6.5,9.7c-0.1,0-0.1,0-0.2-0.1c-0.1-2-0.1-3.9-0.1-5.9
	c0.1-3.2,0.3-6.4,0.5-9.5c0.1-6.4-0.1-12.7-0.7-19.1h-0.2c-0.6,6.4-0.8,12.7-0.7,19.1c0.1,3.2,0.4,6.4,0.5,9.5c0,1.9,0,3.8-0.1,5.7
	c-1.5-0.4-3-0.9-4.4-1.5c-1.8-0.8-3.6-1.7-5.4-2.5c-3.7-1.5-7.5-2.8-11.5-3.6l-0.1,0.2c3.5,2,7.2,3.5,11,4.8c1.9,0.6,3.9,1,5.8,1.7
	c1.2,0.4,2.5,0.9,3.7,1.5c-1.3,0.1-2.6,0.1-3.9,0.1c-2-0.1-4-0.3-6-0.5c-4-0.1-8,0-12,0.7v0.2c4,0.6,8,0.8,12,0.7c2-0.1,4-0.4,6-0.5
	c1.6-0.1,3.2,0,4.8,0.1c0,0.2,0,0.3,0,0.5c-0.8,1.3-1.7,2.5-2.6,3.7c-1.2,1.6-2.6,3-3.9,4.6c-2.5,3.1-4.7,6.5-6.5,10.1l0.1,0.1
	c2.9-2.9,5.4-6,7.6-9.3c1.1-1.7,2-3.5,3.2-5.1c0.6-1,1.3-1.9,2.1-2.8c0,0.2,0,0.5,0,0.7c-0.3,6.4-0.5,12.7-0.5,19.1
	c0.1,6.4,0.3,12.7,0.9,19.1h0.2c0.6-6.4,0.8-12.7,0.9-19.1c0-6.4-0.1-12.7-0.5-19.1c0-0.6,0-1.2-0.1-1.8c0.2-0.2,0.3-0.4,0.5-0.6
	c3.5,1.7,7.1,3.1,10.7,4.5c3.8,1.3,7.6,2.5,11.5,3.4l0.1-0.2c-3.5-1.9-7.2-3.5-10.9-5c-2.5-0.9-4.9-1.7-7.4-2.5
	c2.6,0.1,5.2,0.2,7.8,0.2C449.6,77.7,453.6,77.5,457.6,76.9z"/>
<path class="st7" d="M92.1,312.8l0-0.2c-5.5,0-11,0.5-16.4,1.1c-4.9,0.7-9.8,1.6-14.7,2.7c2.7-4.2,5.1-8.5,7.5-12.9
	c2.5-4.9,4.8-9.9,6.6-15.1l-0.2-0.1c-3.3,4.5-6.1,9.2-8.7,13.9c-2.5,4.7-4.8,9.5-6.9,14.4c-0.1,0-0.2,0-0.3,0
	c-0.5-2.7-0.9-5.3-1.2-8c-0.5-4.3-0.8-8.7-1.2-13c-1-8.7-2.6-17.2-4.6-25.7l-0.2,0c0.4,8.7,1.4,17.4,2.8,26
	c0.8,4.3,1.8,8.5,2.5,12.8c0.4,2.6,0.7,5.1,1,7.7c-2.1-0.3-4.2-0.7-6.3-1.2c-2.7-0.7-5.2-1.6-7.9-2.4c-5.3-1.4-10.7-2.3-16.2-2.6
	l-0.1,0.2c5.2,2,10.5,3.4,15.8,4.4c2.7,0.4,5.5,0.6,8.1,1.1c1.8,0.3,3.5,0.8,5.3,1.3c-1.8,0.4-3.5,0.7-5.3,0.9
	c-2.7,0.3-5.5,0.3-8.2,0.5c-5.4,0.6-10.8,1.6-16.1,3.2l0,0.2c5.5,0.1,11-0.5,16.4-1.4c2.7-0.6,5.3-1.3,8-1.8
	c2.2-0.4,4.4-0.6,6.6-0.8c0,0.2,0,0.5,0.1,0.7c-0.9,1.9-1.7,3.8-2.8,5.6c-1.4,2.4-3,4.6-4.4,6.9c-2.7,4.7-5.1,9.7-6.9,14.9l0.2,0.1
	c3.3-4.4,6.1-9.1,8.5-14.1c1.1-2.5,2.1-5.1,3.3-7.5c0.7-1.4,1.5-2.8,2.3-4.1c0,0.3,0.1,0.7,0.1,1c0.8,8.7,1.8,17.3,3.1,26
	c1.4,8.6,2.9,17.2,4.9,25.7l0.2,0c-0.5-8.7-1.4-17.4-2.5-26c-1.2-8.6-2.6-17.2-4.4-25.8c-0.2-0.8-0.3-1.6-0.4-2.5
	c0.2-0.3,0.4-0.6,0.5-0.9c5.1,1.6,10.2,2.9,15.4,4c5.4,1,10.8,1.9,16.3,2.3l0.1-0.2c-5.2-1.9-10.5-3.4-15.8-4.7
	c-3.5-0.8-7-1.4-10.6-2c3.6-0.3,7.1-0.7,10.7-1.2C81.4,315.4,86.8,314.4,92.1,312.8z"/>
<path class="st1" d="M115.1,228.3l-6.9,5.7c-4.4,3.3-7.2,10.8-7.4,16.2l-0.3,7.2l-4.8-6.1c-3.9-5-9.8-8-16.2-8.1l-7.4-0.1l7.4-6.1
	c3.9-3.2,6.3-8,6.5-13l0.4-9.2l6.2,6.7c3.4,3.6,5.5,6.1,13.3,6.4L115.1,228.3z"/>
<path class="st1" d="M335.1,70l-6.6,1.8c-4.1,0.9-8.4,5.3-10.2,9.1l-2.5,5l-1.4-5.8c-1.2-4.7-4.4-8.6-8.8-10.7l-5.1-2.4l7.1-2
	c3.7-1.1,6.9-3.6,8.6-7.1l3.2-6.3l2.2,6.6c1.3,3.6,2,6,7.3,8.6L335.1,70z"/>
<path class="st1" d="M412.1,317.4l-5.1,1.4c-3.2,0.7-6.5,4.1-8,7l-1.9,3.9l-1.1-4.5c-0.9-3.7-3.4-6.7-6.9-8.3l-4-1.8l5.5-1.5
	c2.9-0.8,5.3-2.8,6.7-5.5l2.5-4.9l1.7,5.1c1,2.8,1.5,4.6,5.7,6.7L412.1,317.4z"/>
<g>
	<path class="st5" d="M307.7,389.3c-0.5-3.6-1.2-7.2-1.9-10.7c-0.7-3.6-1.4-7.1-2.4-10.6c-0.5-1.8-0.9-3.5-1.4-5.3
		c-0.4-1.8-0.8-3.5-1-5.3c-0.6-3.6-0.9-7.2-1.2-10.8c-0.3-3.6-0.8-7.2-1.1-10.8c-0.3-3.6-0.6-7.2-0.9-10.8
		c-0.2-3.6-0.5-7.2-0.5-10.7c-0.1-3.4-0.1-6.8,0.2-10.1c0.6-0.9,1.2-1.8,1.8-2.7c0.4-0.7,0.8-1.4,1.2-2.2c0.2-0.4,0.4-0.8,0.5-1.1
		c0.2-0.4,0.3-0.8,0.5-1.2c0.5-1.6,0.8-3.3,1-5c0.4-3.4,0.5-6.8,0.4-10.2c-0.1-6.8-0.7-13.6-1.5-20.4c-0.4-3.4-0.8-6.8-1.3-10.1
		c-0.4-3.4-0.8-6.7-1.1-10.1c-0.3-3.4-0.6-6.7-0.9-10.1c-0.3-3.4-0.6-6.8-1.2-10.2c-0.6-3.4-1.4-6.7-2.3-10.1l-0.7-2.5
		c-0.2-0.8-0.4-1.6-0.7-2.5c-0.3-0.8-0.5-1.7-1-2.5c-0.5-0.8-1.2-1.7-2.2-2.1c-1-0.4-2-0.3-2.9,0c-0.9,0.3-1.7,0.9-2.3,1.5
		c-0.6,0.7-1.1,1.5-1.4,2.3c-0.3,0.8-0.5,1.7-0.6,2.6c-0.1,0.9-0.1,1.8-0.1,2.7c0,0.4,0.1,0.9,0.2,1.3l0.2,1.3l0.9,5
		c1.2,6.7,2.2,13.4,2.9,20.2c0.4,3.4,0.7,6.8,0.7,10.1c0,0.8,0,1.7-0.1,2.5c0,0.1,0,0.2-0.1,0.3c0,0,0,0,0-0.1
		c-0.2-0.3-0.4-0.7-0.5-1.1c-0.6-1.6-1.1-3.2-1.5-4.9c-1.8-6.6-3.2-13.3-4.6-19.9c-1.3-6.7-2.6-13.4-3.7-20.1
		c-0.6-3.4-1.1-6.7-1.6-10.1c-0.3-1.7-0.7-3.4-1.2-5.1c-0.5-1.7-1.1-3.3-2-4.9c-0.5-0.8-1-1.6-1.7-2.2c-0.7-0.7-1.5-1.3-2.4-1.6
		c-1-0.4-2-0.4-2.9-0.2c-0.9,0.2-1.7,0.6-2.6,1c-1,0.7-1.4,1.6-1.7,2.5c-0.3,0.9-0.5,1.7-0.6,2.6c-0.2,1.7-0.3,3.5-0.2,5.2
		c0.1,3.4,0.4,6.9,0.8,10.3c0.4,3.4,1,6.8,1.6,10.1c1.3,6.7,2.6,13.4,3.9,20.1c0.7,3.3,1.3,6.7,2,10c0.3,1.7,0.6,3.3,0.9,5
		c0.1,0.8,0.2,1.5,0.3,2.3c-1.1-0.9-1.9-2.3-2.4-3.9c-0.7-2-1.2-4.3-2-6.5c-0.8-2.1-1.5-4.2-2.2-6.3c-0.7-2.1-1.4-4.3-2.1-6.4
		c-2.6-8.6-4.8-17.3-6.4-26.1c-0.4-2.2-0.9-4.4-1.5-6.6c-0.6-2.2-1.4-4.4-2.5-6.5c-0.5-1-1.2-2.1-2-3c-0.8-0.9-1.8-1.7-3-2.1
		c-0.6-0.2-1.2-0.3-1.8-0.2c-0.6,0.1-1.2,0.2-1.8,0.4c-1.2,0.5-1.9,1.6-2.4,2.6c-1,2.1-1.3,4.4-1.4,6.6c-0.1,2.2-0.1,4.5,0.1,6.7
		c0.4,4.5,1.2,8.9,2.6,13.2c2,7.8,4,15.5,5.8,23.3c0.9,3.9,1.8,7.8,2.5,11.7c0.2,1,0.4,1.9,0.5,2.9c0.1,0.5,0.1,1,0.2,1.4
		c0,0,0,0,0,0c-0.1-0.1-0.2-0.3-0.3-0.4c-0.5-0.8-0.9-1.7-1.3-2.6c-3.2-7.3-5.3-15.1-7.2-22.9c-1.8-7.8-3.1-15.7-6.2-23.4
		c-0.2-0.5-0.5-1-0.8-1.4c-0.4-0.5-0.7-0.9-1.2-1.2c-0.8-0.7-1.8-1.3-2.9-1.7c-1-0.4-2.2-0.5-3.3-0.3c-0.6,0.1-1.1,0.3-1.6,0.6
		c-0.5,0.3-0.9,0.7-1.3,1.1c-0.7,0.9-1.1,2-1.3,3.1c-0.2,1.1-0.2,2.2-0.1,3.2c0.1,1,0.3,2.1,0.4,3l0.5,3c0.7,4,1.5,7.9,2.4,11.8
		c0.9,3.9,1.9,7.8,2.9,11.7c1,3.9,2.2,7.8,3.4,11.6c1.2,3.8,2.5,7.7,4,11.4c2.8,7.4,6,14.7,10.2,21.5c-0.4-0.3-0.8-0.8-1.1-1.2
		c-0.4-0.5-0.9-1.1-1.3-1.6c-0.8-1.1-1.6-2.3-2.4-3.4c-1.6-2.3-3.1-4.7-4.7-7c-3.1-4.7-6.2-9.4-9.4-14.1c-0.8-1.2-1.6-2.3-2.6-3.5
		c-0.5-0.6-1.1-1.1-1.9-1.5c-0.7-0.4-1.5-0.7-2.4-0.7c-0.8,0-1.7,0.2-2.4,0.5c-0.7,0.4-1.3,0.9-1.8,1.6c-0.9,1.3-1.3,2.8-1.4,4.3
		c-0.2,3,1,6,2.5,8.4c0.8,1.3,1.7,2.3,2.6,3.4c0.9,1.1,1.8,2.2,2.6,3.3c1.7,2.2,3.3,4.5,4.9,6.9c1.5,2.4,3,4.8,4.4,7.2
		c2.9,4.8,5.7,9.7,8.1,14.7c3.9,10,11.6,19.2,21.3,24c-1.1,5.3-1.4,10.7-1.6,16.1c-0.1,2.7,0,5.4,0,8.2l0,4.1c0,1.4,0.1,2.7,0.1,4.1
		c0.1,2.7,0,5.4-0.4,8.1c-0.3,2.7-1,5.3-1.6,7.9c-0.3,1.3-0.5,2.6-0.8,3.9l-0.4,2c-0.1,0.7-0.2,1.3-0.4,2c-0.3,1.3-0.6,2.6-0.9,3.9
		c-0.3,1.3-0.7,2.6-0.9,3.9l0.2,0.1"/>
	<g>
		<path class="st3" d="M267.8,185.8c-1-0.3-2-0.2-2.9,0c-0.9,0.3-1.7,0.7-2.5,1.2c-1,0.7-1.4,1.7-1.7,2.5c-0.3,0.9-0.4,1.8-0.5,2.6
			c-0.2,1.7-0.2,3.4-0.2,5.1c0.1,3.4,0.5,6.7,1,10.1c0.5,3.3,1.1,6.6,1.7,9.9c1.4,6.6,2.8,13.1,4.3,19.6c0.7,3.3,1.4,6.5,2.1,9.8
			c0.3,1.6,0.7,3.3,1,4.9c0.1,0.8,0.3,1.5,0.4,2.3c-1.1-0.8-1.9-2.1-2.5-3.7c-0.8-1.9-1.3-4.1-2.1-6.2c-0.8-2-1.6-4.1-2.3-6.1
			c-0.7-2.1-1.5-4.1-2.2-6.2c-2.7-8.3-5.1-16.8-6.8-25.4c-0.4-2.2-1-4.3-1.6-6.5c-0.7-2.1-1.4-4.2-2.6-6.2c-0.6-1-1.2-2-2-2.8
			c-0.8-0.8-1.8-1.6-3-1.9c-0.6-0.1-1.2-0.2-1.8-0.1c-0.6,0.1-1.2,0.2-1.8,0.5c-1.2,0.6-1.9,1.7-2.3,2.7c-0.9,2.1-1.2,4.4-1.3,6.6
			c-0.1,2.2,0,4.4,0.2,6.6c0.5,4.4,1.4,8.7,2.9,12.9c2.1,7.3,4.1,14.6,6,21.9c0.9,3.7,1.9,7.3,2.7,11c0.4,1.8,0.8,3.6,1,5.4
			c-0.3-0.5-0.6-1-0.9-1.5c-0.9-1.6-1.6-3.3-2.3-5.1c-0.7-1.7-1.4-3.5-2-5.3c-1.2-3.6-2.3-7.2-3.3-10.9c-1-3.7-1.8-7.3-2.7-11
			c-0.9-3.7-1.9-7.4-3.3-11c-0.3-0.9-0.7-1.8-1.1-2.7c-0.2-0.4-0.5-0.9-0.8-1.3c-0.3-0.5-0.7-0.9-1.1-1.2c-0.8-0.7-1.7-1.2-2.7-1.6
			c-1-0.4-2.1-0.5-3.2-0.4c-1.1,0.1-2.2,0.6-3,1.4c-0.8,0.8-1.4,1.8-1.6,2.9c-0.5,2.1-0.2,4.1,0.1,6c1.3,7.5,2.8,14.9,4.7,22.3
			c1.8,7.4,4.1,14.7,6.7,21.8c2.8,7.1,6,14.1,10.3,20.3l0.2-0.1c-0.9-1.6-1.8-3.3-2.7-5c-0.8-1.7-1.6-3.4-2.4-5.1
			c-1.5-3.5-2.8-7-4-10.6c-2.5-7.1-4.4-14.5-6.1-21.8c-1.7-7.4-3.3-14.7-4.8-22.2c-0.4-1.8-0.6-3.6-0.2-5.2c0.3-1.6,1.5-2.8,3.1-3
			c1.6-0.2,3.3,0.4,4.6,1.4c0.3,0.3,0.6,0.6,0.8,0.9c0.2,0.3,0.5,0.7,0.7,1.1c0.4,0.8,0.8,1.7,1.2,2.5c2.8,7,4.6,14.4,6.6,21.7
			c1,3.7,2,7.3,3.1,11c1.1,3.7,2.1,7.3,3.8,10.8c0.4,0.9,0.9,1.8,1.6,2.6c0.2,0.2,0.3,0.4,0.7,0.7c0.1,0.1,0.3,0.1,0.5,0.2
			c0.3,0,0.6-0.1,0.8-0.3c0.3-0.4,0.3-0.6,0.4-0.8c0.1-0.7,0.1-1.2,0.1-1.7c-0.2-2-0.6-3.8-1-5.7c-0.9-3.7-1.8-7.4-2.9-11
			c-2.1-7.3-4.5-14.5-7.3-21.6c-1.3-4.2-2.1-8.5-2.4-12.9c-0.2-2.2-0.2-4.4,0-6.5c0.2-2.1,0.5-4.3,1.4-6.2c0.4-0.9,1.1-1.8,1.9-2.2
			c0.9-0.4,1.9-0.5,2.8-0.2c0.9,0.2,1.7,0.9,2.4,1.6c0.7,0.7,1.3,1.7,1.8,2.6c1,1.9,1.7,3.9,2.3,6c0.6,2.1,1.1,4.2,1.5,6.3
			c1.6,8.7,3.8,17.2,6.5,25.7c1.3,4.2,2.8,8.4,4.4,12.5c0.8,2,1.3,4.1,2.1,6.2c0.4,1.1,0.9,2.2,1.7,3.2c0.7,0.9,1.7,1.7,2.8,2.2
			c0,0,0,0,0.1,0.1c0.1,0.1,0.1,0.2,0.4,0.3c0.1,0.1,0.4,0.2,0.8,0.1c0.4-0.1,0.7-0.4,0.8-0.5c0.2-0.3,0.2-0.4,0.2-0.6
			c0-0.1,0-0.2,0-0.3c0-0.2,0-0.3,0-0.4c0-0.5-0.1-0.9-0.1-1.4c-0.1-0.9-0.3-1.7-0.4-2.5c-0.3-1.7-0.6-3.3-1-4.9
			c-0.7-3.3-1.4-6.5-2.1-9.8c-1.5-6.5-3-13-4.4-19.5c-0.7-3.2-1.3-6.5-1.8-9.8c-0.5-3.3-0.9-6.6-1-9.9c-0.1-1.6-0.1-3.3,0.1-4.9
			c0.1-0.8,0.2-1.6,0.4-2.3c0.2-0.7,0.6-1.3,1-1.6c1.2-0.8,2.7-1.4,4-1c1.3,0.4,2.4,1.5,3.3,2.8c1.7,2.7,2.6,5.9,3.3,9.1
			c0.7,3.2,1.3,6.5,2,9.8c1.4,6.5,2.8,13.1,4.4,19.6c0.8,3.2,1.6,6.5,2.4,9.7c0.8,3.2,1.7,6.5,2.7,9.7c0.5,1.6,1,3.2,1.7,4.8
			c0.2,0.4,0.4,0.8,0.6,1.2c0.1,0.1,0.1,0.2,0.3,0.3c0.1,0,0.2,0.1,0.3,0.1c0.2,0,0.3-0.1,0.4-0.2c0.1-0.2,0.2-0.3,0.2-0.4
			c0-0.1,0.1-0.2,0.1-0.3c0.1-0.9,0.1-1.7,0.1-2.6c-0.1-3.4-0.4-6.7-0.8-10c-0.8-6.6-1.8-13.2-3-19.8l-0.9-4.9l-0.2-1.2
			c-0.1-0.4-0.1-0.8-0.2-1.2c-0.1-0.8,0-1.6,0.1-2.4c0.1-0.8,0.3-1.6,0.6-2.3c0.3-0.7,0.6-1.4,1.1-1.9c0.5-0.5,1.1-1,1.8-1.2
			c0.6-0.3,1.4-0.3,2-0.1c0.6,0.2,1,0.7,1.4,1.3c0.4,0.6,0.6,1.4,0.9,2.2c0.2,0.8,0.4,1.6,0.6,2.4l0.7,2.4c0.9,3.2,1.7,6.4,2.3,9.7
			c0.6,3.2,1,6.5,1.3,9.8c0.3,3.3,0.7,6.6,1.1,10c0.4,3.3,0.9,6.6,1.3,9.9c0.5,3.3,1,6.6,1.5,9.9c0.5,3.3,0.9,6.6,1.3,9.9
			c0.4,3.3,0.7,6.6,0.9,9.9c0.2,3.3,0.2,6.6,0,9.9c-0.1,1.6-0.4,3.3-0.8,4.8c-0.1,0.4-0.3,0.8-0.4,1.1c-0.2,0.4-0.3,0.8-0.5,1.1
			c-0.3,0.7-0.7,1.5-1.1,2.2c-1.6,2.9-3.4,5.7-5.5,8.2c-2.1,2.6-4.5,4.9-7.2,6.8l0.1,0.2c2.8-1.8,5.4-4.1,7.6-6.6
			c2.2-2.5,4.2-5.3,5.9-8.2c0.4-0.7,0.8-1.5,1.2-2.2c0.2-0.4,0.3-0.8,0.5-1.2c0.1-0.4,0.3-0.8,0.4-1.2c0.5-1.6,0.8-3.3,1-5
			c0.3-3.4,0.3-6.7,0.2-10.1c-0.2-6.7-1-13.4-1.9-20c-0.4-3.3-0.9-6.6-1.4-9.9c-0.4-3.3-0.9-6.6-1.2-9.9c-0.4-3.3-0.7-6.6-1-10
			c-0.3-3.3-0.7-6.7-1.4-10c-0.6-3.3-1.5-6.6-2.5-9.8l-0.7-2.4c-0.2-0.8-0.4-1.6-0.7-2.4c-0.3-0.8-0.6-1.7-1.1-2.5
			c-0.5-0.8-1.2-1.6-2.2-1.9c-1-0.3-2-0.2-2.9,0.2c-0.9,0.4-1.6,1-2.3,1.6c-0.6,0.7-1.1,1.5-1.3,2.4c-0.3,0.8-0.5,1.7-0.6,2.6
			c-0.1,0.9-0.1,1.8,0,2.6c0,0.4,0.1,0.9,0.2,1.3l0.3,1.2l1,4.9c1.3,6.5,2.4,13.1,3.3,19.7c0.4,3.3,0.8,6.6,0.9,9.9
			c0,0.8,0,1.7-0.1,2.4c0,0.1,0,0.2-0.1,0.3c0,0,0,0,0,0c0,0,0,0,0-0.1c-0.2-0.3-0.4-0.7-0.5-1.1c-0.6-1.5-1.1-3.1-1.6-4.7
			c-1.9-6.4-3.4-12.9-4.9-19.4c-1.4-6.5-2.8-13-4-19.6c-0.6-3.3-1.2-6.5-1.8-9.9c-0.3-1.7-0.7-3.3-1.3-4.9c-0.5-1.6-1.2-3.2-2.1-4.7
			c-0.5-0.7-1-1.5-1.7-2.1C269.6,186.6,268.8,186.1,267.8,185.8z M250.7,257.6C250.7,257.6,250.7,257.6,250.7,257.6L250.7,257.6z"/>
		<path class="st3" d="M297.1,319.3c-0.1,3.4,0.1,6.9,0.4,10.2c0.3,3.4,0.9,6.8,1.4,10.1c0.6,3.3,1.1,6.7,1.9,10
			c0.7,3.3,1.5,6.6,2.1,10c0.6,3.3,1,6.7,1.6,10.1c0.6,3.4,1.4,6.6,2.4,9.9c1,3.3,2,6.5,3.3,9.6l0.2-0.1c-0.5-3.4-1.3-6.7-2-10
			c-0.7-3.3-1.5-6.6-2.4-9.9c-0.9-3.3-1.9-6.5-2.5-9.8c-0.7-3.3-1.1-6.7-1.4-10.1c-0.7-6.7-1.7-13.5-2.6-20.1
			c-0.8-6.7-1.4-13.4-1-20.2l-0.2,0C297.5,312.4,297.2,315.9,297.1,319.3z"/>
		<path class="st3" d="M264.5,324.6c-4.9-2.5-9.1-6-12.6-10c-1.8-2-3.4-4.2-4.8-6.5l-1-1.7c-0.3-0.6-0.6-1.2-0.9-1.8
			c-0.5-1.2-1.2-2.5-1.8-3.7c-0.7-1.2-1.3-2.5-2-3.6l-1.1-1.8l-1.1-1.7c-1.5-2.3-3.1-4.5-4.8-6.7c-1.7-2.2-3.4-4.3-5.1-6.5
			c-1.7-2.2-3.4-4.3-5-6.5l-4.8-6.6c-1.4-2.2-2.3-4.8-2.2-7.3c0.1-1.2,0.4-2.4,1.1-3.4c0.7-0.9,1.7-1.6,2.7-1.6c1.1,0,2.1,0.6,3,1.4
			c0.9,0.9,1.7,2,2.6,3l10,13c1.7,2.2,3.4,4.3,5.2,6.4c0.9,1,1.8,2.1,2.7,3.1c0.5,0.5,0.9,1,1.5,1.5c0.5,0.5,1,0.9,1.7,1.2l0.1-0.2
			c-0.6-0.3-1-0.8-1.5-1.3c-0.5-0.5-0.9-1-1.3-1.6c-0.9-1.1-1.7-2.1-2.5-3.2c-1.6-2.2-3.2-4.4-4.8-6.6c-3.2-4.4-6.3-8.9-9.6-13.3
			c-0.9-1.1-1.7-2.2-2.7-3.2c-0.5-0.5-1.2-1-1.9-1.4c-0.7-0.4-1.5-0.6-2.4-0.6c-0.8,0-1.7,0.3-2.4,0.7c-0.7,0.4-1.3,1-1.8,1.7
			c-0.9,1.3-1.3,2.8-1.4,4.3c-0.1,3,1.1,5.8,2.7,8.1c0.8,1.2,1.8,2.2,2.7,3.2c0.9,1,1.8,2,2.7,3.1c1.8,2.1,3.4,4.3,5,6.5
			c1.6,2.2,3,4.5,4.5,6.9c2.9,4.6,5.8,9.2,8.3,14c4.3,10.1,12.6,19.1,22.9,22.9L264.5,324.6z"/>
		<path class="st3" d="M263.7,349.5c0.1-2.6,0.1-5.2,0.1-7.8c-0.1-5.2-0.4-10.4-0.6-15.6l-0.2,0c-1,5.2-1.2,10.4-1.3,15.6
			c0,2.6,0.1,5.2,0.2,7.8l0.1,3.9c0,1.3,0.1,2.6,0.2,3.9c0.1,2.6,0.1,5.2-0.2,7.8c-0.3,2.6-0.9,5.1-1.4,7.6
			c-0.3,1.3-0.5,2.5-0.7,3.8l-0.4,1.9c-0.1,0.6-0.2,1.3-0.4,1.9c-0.3,1.3-0.5,2.5-0.8,3.8c-0.3,1.3-0.6,2.5-0.8,3.8l0.2,0.1
			c0.6-1.2,1.2-2.4,1.7-3.6c0.3-0.6,0.5-1.2,0.7-1.9c0.2-0.6,0.4-1.2,0.6-1.9c0.7-2.5,1.4-5.1,1.6-7.7c0.3-2.6,0.3-5.3,0.4-7.9
			c0.2-2.6,0.4-5.2,0.7-7.8C263.4,354.8,263.6,352.1,263.7,349.5z"/>
	</g>
</g>
<g>
	<path class="st14" d="M441.9,249.2c-3.4-1.3-6.8-2.5-10.3-3.6c-3.4-1.1-6.9-2.3-10.4-3.2c-1.8-0.5-3.5-0.9-5.3-1.4
		c-1.7-0.5-3.5-1.1-5.1-1.7c-3.4-1.3-6.7-2.8-9.9-4.3c-3.3-1.5-6.6-2.9-9.9-4.4c-3.3-1.5-6.5-3-9.8-4.6c-3.2-1.6-6.5-3.1-9.6-4.9
		c-3-1.6-5.9-3.3-8.7-5.2c-0.5-1-0.9-1.9-1.5-2.9c-0.4-0.7-0.8-1.4-1.3-2.1c-0.2-0.4-0.5-0.7-0.7-1c-0.3-0.3-0.5-0.7-0.8-1
		c-1.2-1.3-2.5-2.4-3.8-3.4c-2.7-2-5.7-3.8-8.7-5.4c-6-3.3-12.2-6.1-18.4-8.8c-3.1-1.3-6.3-2.6-9.4-3.9c-3.1-1.3-6.2-2.7-9.3-4.1
		c-3.1-1.4-6.1-2.9-9.2-4.3c-3.1-1.4-6.2-2.8-9.5-4c-3.2-1.2-6.6-2.1-9.9-3l-2.5-0.6c-0.8-0.2-1.6-0.5-2.5-0.7
		c-0.9-0.2-1.8-0.4-2.7-0.4c-0.9,0-2.1,0.2-2.9,0.9c-0.8,0.7-1.3,1.6-1.4,2.5c-0.2,0.9-0.1,1.9,0.2,2.7c0.3,0.9,0.8,1.7,1.3,2.4
		c0.6,0.7,1.2,1.3,1.9,1.8c0.7,0.5,1.5,1,2.3,1.4c0.4,0.2,0.8,0.3,1.2,0.5l1.2,0.4l4.8,1.7c6.4,2.3,12.8,4.7,19,7.4
		c3.1,1.4,6.2,2.8,9.1,4.4c0.7,0.4,1.5,0.8,2.1,1.3c0.1,0.1,0.1,0.1,0.2,0.2c0,0-0.1,0-0.1,0c-0.4,0-0.8,0-1.2-0.1
		c-1.7-0.3-3.3-0.7-5-1.1c-6.6-1.7-13.1-3.8-19.6-5.9c-6.5-2.1-12.9-4.4-19.3-6.7c-3.2-1.2-6.3-2.4-9.6-3.6c-1.6-0.6-3.3-1.1-5-1.5
		c-1.7-0.4-3.5-0.7-5.3-0.7c-0.9,0-1.8,0.1-2.8,0.3c-0.9,0.2-1.9,0.7-2.6,1.3c-0.8,0.7-1.3,1.6-1.6,2.4c-0.3,0.9-0.4,1.8-0.4,2.7
		c0.1,1.2,0.7,2,1.3,2.7c0.6,0.7,1.3,1.3,2,1.8c1.4,1.1,2.9,1.9,4.4,2.8c3,1.7,6.1,3.1,9.3,4.4c3.2,1.3,6.4,2.5,9.6,3.7
		c6.5,2.2,12.9,4.4,19.4,6.5c3.2,1.1,6.5,2.1,9.7,3.3c1.6,0.6,3.2,1.1,4.8,1.7c0.7,0.3,1.5,0.6,2.2,0.8c-1.3,0.5-2.9,0.5-4.5,0.2
		c-2.1-0.4-4.3-1.1-6.6-1.4c-2.2-0.4-4.4-0.8-6.6-1.2c-2.2-0.4-4.4-0.9-6.6-1.4c-8.8-2-17.4-4.4-25.8-7.4c-2.1-0.8-4.3-1.4-6.5-2
		c-2.2-0.5-4.5-1-6.8-1.1c-1.2,0-2.4,0-3.5,0.2c-1.2,0.2-2.4,0.7-3.3,1.6c-0.5,0.4-0.9,0.9-1.1,1.5c-0.3,0.6-0.5,1.1-0.5,1.7
		c-0.1,1.3,0.4,2.4,1.1,3.4c1.3,1.9,3.2,3.3,5,4.5c1.9,1.2,3.9,2.3,5.9,3.2c4.1,1.9,8.4,3.4,12.8,4.3c7.8,2.1,15.5,4.3,23.1,6.5
		c3.8,1.2,7.7,2.3,11.4,3.6c0.9,0.3,1.9,0.7,2.8,1c0.5,0.2,0.9,0.4,1.3,0.6c0,0,0,0,0,0c-0.2,0-0.3,0-0.5,0c-1,0-1.9,0-2.9-0.1
		c-7.9-0.9-15.8-2.9-23.4-5.1c-7.7-2.3-15.2-5.1-23.4-6.2c-0.5,0-1.1-0.1-1.7,0c-0.6,0.1-1.1,0.2-1.7,0.4c-1.1,0.4-2,0.9-2.9,1.7
		c-0.8,0.7-1.5,1.7-1.9,2.8c-0.2,0.5-0.3,1.1-0.3,1.7c0,0.6,0.1,1.2,0.4,1.7c0.4,1.1,1.2,2,2.1,2.7c0.9,0.7,1.8,1.2,2.7,1.7
		c0.9,0.4,1.9,0.8,2.9,1.1l2.8,1c3.8,1.3,7.6,2.6,11.4,3.8c3.8,1.2,7.7,2.3,11.6,3.3c3.9,1,7.8,1.9,11.8,2.8
		c3.9,0.8,7.9,1.6,11.9,2.2c7.8,1.2,15.8,2.1,23.7,1.7c-0.5,0.2-1,0.3-1.6,0.4c-0.7,0.1-1.4,0.2-2.1,0.3c-1.4,0.2-2.8,0.3-4.2,0.4
		c-2.8,0.2-5.6,0.4-8.4,0.6c-5.6,0.4-11.2,0.7-16.9,1.2c-1.4,0.2-2.8,0.3-4.3,0.6c-0.8,0.2-1.5,0.4-2.2,0.9c-0.7,0.4-1.4,1-1.8,1.7
		c-0.5,0.7-0.7,1.5-0.7,2.4c0,0.8,0.2,1.6,0.5,2.3c0.6,1.4,1.8,2.6,3,3.4c2.6,1.7,5.7,2.1,8.6,2c1.5-0.1,2.9-0.4,4.2-0.6
		c1.4-0.2,2.8-0.5,4.2-0.7c2.8-0.4,5.6-0.6,8.4-0.8c2.8-0.1,5.6-0.2,8.4-0.2c5.6-0.1,11.2-0.1,16.8,0.3c10.7,1.6,22.5-0.5,31.3-6.6
		c4.1,3.6,8.6,6.5,13.2,9.4c2.3,1.4,4.7,2.7,7.1,4.1l3.6,2c1.2,0.7,2.4,1.3,3.6,1.9c2.4,1.3,4.7,2.7,6.9,4.3
		c2.2,1.6,4.1,3.5,6.1,5.3c1,0.9,2,1.8,3,2.7l1.5,1.3c0.5,0.4,1,0.9,1.5,1.3c1,0.9,2,1.8,3,2.7c0.9,0.9,1.9,1.9,3,2.8l0.2-0.1"/>
	<g>
		<path class="st15" d="M242.5,183.3c-0.7,0.7-1.2,1.6-1.5,2.5c-0.3,0.9-0.3,1.8-0.2,2.8c0.1,1.2,0.8,2,1.4,2.7
			c0.6,0.7,1.3,1.3,2,1.8c1.4,1,2.9,1.9,4.4,2.7c3,1.6,6.1,2.9,9.2,4.2c3.1,1.2,6.3,2.4,9.5,3.5c6.4,2.1,12.7,4.1,19.1,6.1
			c3.2,1,6.4,2,9.5,3c1.6,0.5,3.2,1,4.7,1.6c0.7,0.3,1.4,0.5,2.1,0.8c-1.2,0.6-2.8,0.6-4.4,0.3c-2.1-0.3-4.2-1-6.5-1.3
			c-2.2-0.3-4.3-0.7-6.5-1c-2.2-0.4-4.3-0.8-6.4-1.2c-8.6-1.8-17.1-4-25.4-6.8c-2.1-0.7-4.2-1.3-6.4-1.8c-2.2-0.5-4.4-0.9-6.7-0.9
			c-1.1,0-2.3,0.1-3.4,0.3c-1.1,0.3-2.3,0.8-3.2,1.7c-0.4,0.4-0.8,1-1,1.5c-0.2,0.6-0.4,1.1-0.4,1.8c-0.1,1.3,0.5,2.5,1.2,3.4
			c1.4,1.9,3.2,3.2,5,4.5c1.9,1.2,3.8,2.2,5.9,3.1c4,1.8,8.3,3.2,12.6,4c7.4,1.9,14.7,3.8,22,5.8c3.6,1,7.3,2,10.9,3.2
			c1.8,0.6,3.6,1.2,5.2,1.9c-0.6,0.1-1.2,0.1-1.8,0.1c-1.8,0-3.7-0.3-5.6-0.5c-1.9-0.3-3.7-0.6-5.6-0.9c-3.7-0.7-7.4-1.6-11.1-2.6
			c-3.7-1-7.3-2.1-10.9-3.2c-3.7-1-7.3-2-11.1-2.7c-0.9-0.2-1.9-0.3-2.9-0.4c-0.5,0-1-0.1-1.5,0c-0.6,0-1.1,0.2-1.6,0.3
			c-1,0.3-1.9,0.9-2.7,1.5c-0.8,0.7-1.5,1.5-1.9,2.6c-0.4,1-0.6,2.2-0.3,3.3c0.3,1.1,0.9,2.1,1.7,2.8c1.6,1.5,3.5,2.3,5.3,2.9
			c7.1,2.6,14.3,5,21.7,7.1c7.3,2.1,14.7,3.8,22.3,5.1c7.5,1.2,15.2,1.9,22.8,1.2l0-0.2c-1.9,0-3.8-0.1-5.7-0.2
			c-1.9-0.1-3.8-0.3-5.6-0.5c-3.8-0.4-7.5-1.1-11.2-1.8c-7.4-1.4-14.7-3.5-21.9-5.6c-7.2-2.2-14.4-4.5-21.6-6.9
			c-1.7-0.6-3.4-1.3-4.6-2.4c-1.2-1.1-1.7-2.7-1.1-4.2c0.6-1.5,2-2.7,3.6-3.3c0.4-0.1,0.8-0.3,1.2-0.3c0.4,0,0.9,0,1.3,0
			c0.9,0,1.8,0.1,2.8,0.3c7.4,1.1,14.7,3.2,22.1,5.1c3.7,0.9,7.3,1.9,11,2.8c3.7,0.9,7.4,1.8,11.3,2.2c1,0.1,2,0.1,3,0
			c0.3,0,0.5-0.1,1-0.3c0.1-0.1,0.3-0.2,0.4-0.4c0.2-0.2,0.2-0.6,0.1-0.8c-0.1-0.5-0.3-0.6-0.5-0.7c-0.5-0.5-1-0.6-1.4-0.9
			c-1.8-0.8-3.6-1.4-5.4-2c-3.6-1.1-7.3-2.1-11-3c-7.4-1.8-14.8-3.3-22.3-4.5c-4.3-1-8.4-2.5-12.4-4.4c-2-1-3.9-2-5.7-3.3
			c-1.8-1.2-3.5-2.6-4.7-4.3c-0.6-0.9-1-1.8-0.9-2.7c0.1-0.9,0.5-1.9,1.2-2.6c0.7-0.7,1.6-1.1,2.6-1.3c1-0.2,2.1-0.3,3.1-0.2
			c2.1,0.1,4.3,0.5,6.4,1c2.1,0.5,4.2,1.2,6.2,1.9c8.3,3,16.8,5.3,25.5,7.2c4.3,1,8.6,1.8,13,2.4c2.1,0.3,4.2,0.9,6.4,1.3
			c1.1,0.2,2.3,0.3,3.6,0.1c1.1-0.1,2.3-0.6,3.3-1.3c0,0,0.1,0,0.1,0c0.1,0,0.2,0,0.5-0.2c0.1-0.1,0.4-0.2,0.5-0.6
			c0.1-0.4,0-0.8-0.1-0.9c-0.2-0.3-0.3-0.4-0.4-0.5c-0.1-0.1-0.2-0.1-0.2-0.2c-0.1-0.1-0.2-0.2-0.4-0.2c-0.4-0.2-0.8-0.4-1.2-0.6
			c-0.8-0.3-1.6-0.6-2.4-0.9c-1.6-0.6-3.2-1.1-4.8-1.6c-3.2-1-6.4-2-9.6-3c-6.4-2-12.8-3.9-19.1-6c-3.2-1-6.3-2.1-9.4-3.4
			c-3.1-1.2-6.1-2.5-9-4c-1.5-0.8-2.9-1.6-4.2-2.5c-0.6-0.5-1.2-1-1.8-1.5c-0.5-0.5-0.9-1.2-0.9-1.7c-0.1-1.5,0.2-3,1.1-3.9
			c1-1,2.5-1.3,4.1-1.4c3.2-0.1,6.4,0.7,9.5,1.7c3.1,1,6.3,2.2,9.5,3.2c6.4,2.1,12.7,4.1,19.1,6c3.2,1,6.4,1.9,9.6,2.8
			c3.2,0.9,6.4,1.8,9.7,2.5c1.6,0.4,3.3,0.7,5,0.9c0.4,0,0.9,0.1,1.3,0.1c0.1,0,0.2,0,0.4-0.1c0.1,0,0.2-0.1,0.3-0.2
			c0.1-0.1,0.1-0.3,0.1-0.4c-0.1-0.2-0.2-0.3-0.2-0.4c-0.1-0.1-0.2-0.2-0.3-0.2c-0.7-0.6-1.4-1-2.2-1.4c-3-1.6-6-3-9.1-4.3
			c-6.1-2.6-12.4-5-18.7-7.3l-4.7-1.7l-1.2-0.4c-0.4-0.1-0.7-0.3-1.1-0.4c-0.7-0.3-1.4-0.8-2-1.2c-0.6-0.5-1.2-1-1.7-1.7
			c-0.5-0.6-0.9-1.2-1.1-2c-0.2-0.7-0.3-1.5-0.2-2.2c0.1-0.7,0.4-1.3,0.9-1.8c0.4-0.4,1.1-0.6,1.9-0.5c0.7,0,1.5,0.1,2.3,0.3
			c0.8,0.2,1.6,0.4,2.4,0.6l2.4,0.6c3.2,0.8,6.4,1.7,9.5,2.8c3.1,1.1,6.1,2.4,9.2,3.8c3,1.4,6.1,2.7,9.2,4.1
			c3.1,1.3,6.2,2.6,9.3,3.8c3.1,1.2,6.2,2.4,9.3,3.7c3.1,1.2,6.2,2.5,9.2,3.9c3,1.3,6.1,2.7,9,4.2c3,1.5,5.9,3.1,8.6,5
			c1.3,0.9,2.6,2,3.8,3.1c0.3,0.3,0.5,0.6,0.8,0.9c0.2,0.3,0.5,0.6,0.7,1c0.5,0.7,0.9,1.4,1.4,2c1.7,2.8,3.2,5.8,4.4,8.9
			c1.2,3.1,2,6.3,2.3,9.7l0.2,0c-0.1-3.4-0.8-6.7-1.9-9.9c-1.1-3.2-2.5-6.3-4.2-9.2c-0.4-0.7-0.9-1.4-1.4-2.1
			c-0.2-0.3-0.5-0.7-0.7-1c-0.3-0.3-0.5-0.7-0.8-1c-1.2-1.3-2.5-2.3-3.9-3.3c-2.7-2-5.7-3.7-8.6-5.2c-5.9-3.2-12.1-5.9-18.3-8.4
			c-3.1-1.3-6.2-2.5-9.3-3.7c-3.1-1.3-6.2-2.5-9.2-3.9c-3.1-1.3-6.1-2.7-9.1-4.1c-3.1-1.4-6.1-2.7-9.3-3.8c-3.2-1.1-6.4-2-9.7-2.8
			l-2.4-0.6c-0.8-0.2-1.6-0.4-2.5-0.6c-0.8-0.2-1.7-0.3-2.7-0.3c-0.9,0-2,0.2-2.8,1c-0.8,0.7-1.2,1.7-1.3,2.6c-0.1,1,0,1.9,0.3,2.8
			c0.3,0.9,0.8,1.7,1.4,2.4c0.6,0.7,1.2,1.3,1.9,1.8c0.7,0.5,1.5,1,2.3,1.3c0.4,0.2,0.8,0.3,1.2,0.5l1.2,0.4l4.7,1.6
			c6.3,2.1,12.6,4.5,18.7,7c3.1,1.3,6.1,2.6,9.1,4.2c0.7,0.4,1.5,0.8,2.1,1.3c0.1,0.1,0.1,0.1,0.2,0.2c0,0,0,0,0,0c0,0-0.1,0-0.1,0
			c-0.4,0-0.8,0-1.2-0.1c-1.6-0.2-3.3-0.6-4.9-1c-6.5-1.6-12.9-3.5-19.2-5.5c-6.4-2-12.7-4.1-19-6.3c-3.2-1.1-6.3-2.2-9.4-3.4
			c-1.6-0.5-3.2-1-4.9-1.4c-1.7-0.3-3.4-0.6-5.2-0.5c-0.9,0-1.8,0.1-2.7,0.4C244.2,182.2,243.3,182.6,242.5,183.3z M296.2,234
			C296.2,234,296.2,234,296.2,234L296.2,234z"/>
		<path class="st15" d="M372.8,224.7c2.9,1.8,6,3.4,9.1,4.8c3.1,1.4,6.3,2.6,9.5,3.8c3.2,1.2,6.4,2.4,9.6,3.4c3.2,1,6.5,2,9.7,3.1
			c3.2,1.1,6.3,2.4,9.5,3.6c3.2,1.2,6.5,2.1,9.8,2.9c3.3,0.8,6.6,1.5,10,1.9l0-0.2c-3.2-1.2-6.4-2.3-9.6-3.3c-3.2-1-6.4-2-9.7-2.9
			c-3.3-0.8-6.6-1.6-9.8-2.7c-3.2-1.1-6.3-2.4-9.4-3.8c-6.2-2.8-12.5-5.2-18.7-7.9c-6.2-2.6-12.3-5.4-18-9.2l-0.1,0.2
			C367.1,220.9,369.8,222.9,372.8,224.7z"/>
		<path class="st15" d="M361,255.6c-4.6,2.9-9.7,4.9-15,5.9c-2.6,0.5-5.3,0.8-8,0.9l-2,0c-0.7,0-1.3,0-2-0.1
			c-1.3-0.1-2.7-0.2-4.1-0.3c-1.4,0-2.8-0.1-4.2,0l-2.1,0.1l-2.1,0.1c-2.8,0.1-5.5,0.4-8.2,0.7c-2.7,0.4-5.4,0.8-8.1,1.2
			c-2.7,0.4-5.4,0.7-8.2,1l-8.1,0.8c-2.6,0.1-5.3-0.4-7.4-1.8c-1-0.7-1.9-1.6-2.4-2.7c-0.5-1-0.5-2.2,0-3.1c0.5-0.9,1.6-1.6,2.7-1.9
			c1.2-0.3,2.6-0.5,3.9-0.7l16.3-2.1c2.7-0.4,5.4-0.8,8.1-1.3c1.4-0.2,2.7-0.5,4-0.8c0.7-0.2,1.3-0.3,2-0.5c0.7-0.2,1.3-0.4,1.9-0.9
			l-0.1-0.2c-0.5,0.3-1.2,0.5-1.9,0.6c-0.7,0.1-1.3,0.3-2,0.4c-1.3,0.2-2.7,0.4-4.1,0.5c-2.7,0.3-5.4,0.6-8.2,0.8
			c-5.4,0.5-10.9,1-16.3,1.7c-1.4,0.2-2.7,0.3-4.2,0.7c-0.7,0.2-1.5,0.5-2.1,0.9c-0.7,0.4-1.3,1-1.7,1.8c-0.4,0.7-0.6,1.6-0.6,2.4
			c0,0.8,0.2,1.6,0.6,2.3c0.7,1.4,1.8,2.5,3.1,3.3c2.5,1.6,5.6,2,8.4,1.8c1.4-0.1,2.8-0.5,4.1-0.7c1.3-0.3,2.7-0.6,4-0.8
			c2.7-0.5,5.4-0.8,8.1-1c2.7-0.2,5.5-0.4,8.2-0.5c5.5-0.2,10.9-0.4,16.3-0.2c10.9,1.4,22.8-1.3,31.3-8.4L361,255.6z"/>
		<path class="st15" d="M382.3,268.8c-2.2-1.4-4.5-2.7-6.7-4c-4.6-2.5-9.2-4.9-13.8-7.3l-0.1,0.2c4,3.5,8.4,6.3,12.9,9
			c2.3,1.3,4.5,2.5,6.8,3.8l3.4,1.8c1.1,0.6,2.3,1.2,3.5,1.8c2.3,1.2,4.5,2.5,6.6,4.1c2.1,1.5,4,3.3,5.9,5.1c0.9,0.9,2,1.7,2.9,2.5
			l1.4,1.3c0.5,0.4,1,0.8,1.5,1.3c0.9,0.9,1.9,1.7,2.9,2.6c0.9,0.9,1.9,1.8,2.9,2.6l0.2-0.1c-0.7-1.1-1.5-2.2-2.3-3.2
			c-0.4-0.5-0.8-1-1.3-1.5c-0.4-0.5-0.9-1-1.3-1.5c-1.8-1.9-3.7-3.7-5.9-5.3c-2.1-1.6-4.4-2.9-6.6-4.3c-2.2-1.4-4.3-2.9-6.4-4.5
			C386.7,271.6,384.5,270.1,382.3,268.8z"/>
	</g>
</g>
<g>
	<path class="st10" d="M384.7,66.7c-2.8,2.3-5.5,4.7-8.2,7.1c-2.7,2.4-5.4,4.9-7.9,7.5c-1.3,1.3-2.5,2.6-3.8,3.9
		c-1.3,1.3-2.7,2.5-4.1,3.6c-2.8,2.3-5.7,4.4-8.6,6.5c-2.9,2.1-5.8,4.3-8.7,6.4c-2.9,2.1-5.8,4.2-8.8,6.3c-2.9,2-5.9,4.1-8.9,6
		c-2.9,1.8-5.8,3.5-8.8,5c-1.1-0.1-2.1-0.1-3.2-0.1c-0.8,0-1.7,0-2.5,0.1c-0.4,0-0.8,0.1-1.3,0.1c-0.4,0.1-0.9,0.1-1.3,0.2
		c-1.7,0.4-3.3,1-4.8,1.7c-3.1,1.4-6.1,3.1-9,4.9c-5.8,3.6-11.3,7.6-16.7,11.8c-2.7,2.1-5.4,4.2-8.1,6.3c-2.7,2.1-5.4,4.1-8.1,6.1
		c-2.7,2-5.5,3.9-8.3,5.9c-2.8,2-5.5,4-8.1,6.3c-2.6,2.3-5.1,4.7-7.4,7.1l-1.8,1.9c-0.6,0.6-1.2,1.2-1.8,1.9
		c-0.6,0.7-1.2,1.3-1.7,2.2c-0.5,0.8-0.9,1.9-0.7,3c0.2,1,0.8,1.9,1.5,2.5c0.7,0.6,1.6,1,2.5,1.2c0.9,0.2,1.9,0.2,2.7,0
		c0.9-0.2,1.7-0.4,2.5-0.8c0.8-0.3,1.6-0.8,2.3-1.3c0.4-0.3,0.7-0.6,1-0.8l0.9-0.9l3.8-3.4c5.1-4.5,10.4-8.8,15.8-12.9
		c2.7-2,5.5-4,8.3-5.8c0.7-0.4,1.5-0.9,2.2-1.1c0.1,0,0.2-0.1,0.3-0.1c0,0,0,0,0,0.1c-0.2,0.3-0.4,0.7-0.7,1c-1,1.3-2.2,2.6-3.4,3.8
		c-4.7,4.9-9.7,9.6-14.8,14.1c-5,4.6-10.2,9.1-15.3,13.5c-2.6,2.2-5.2,4.4-7.8,6.6c-1.3,1.1-2.6,2.3-3.7,3.6
		c-1.2,1.3-2.3,2.7-3.2,4.3c-0.4,0.8-0.8,1.6-1.1,2.6c-0.2,0.9-0.3,1.9-0.1,2.9c0.2,1,0.7,1.9,1.3,2.6c0.7,0.7,1.4,1.2,2.2,1.7
		c1.1,0.5,2.1,0.4,3,0.2c0.9-0.2,1.7-0.5,2.6-0.8c1.6-0.7,3.1-1.6,4.6-2.5c2.9-1.8,5.7-3.8,8.4-5.9c2.7-2.1,5.3-4.3,7.9-6.5
		c5.1-4.5,10.2-9.1,15.2-13.7c2.5-2.3,5.1-4.6,7.6-6.8c1.3-1.1,2.5-2.2,3.8-3.3c0.6-0.5,1.2-1,1.8-1.5c-0.2,1.4-1,2.8-2.1,4
		c-1.4,1.7-3.1,3.2-4.5,5.1c-1.4,1.7-2.8,3.5-4.3,5.2c-1.5,1.7-2.9,3.4-4.5,5c-6,6.6-12.4,13-19.1,18.8c-1.7,1.5-3.4,3-4.9,4.7
		c-1.6,1.7-3,3.4-4.3,5.4c-0.6,1-1.2,2-1.5,3.2c-0.4,1.1-0.6,2.4-0.3,3.7c0.1,0.6,0.4,1.2,0.7,1.7c0.4,0.5,0.7,0.9,1.3,1.3
		c1.1,0.7,2.3,0.8,3.5,0.7c2.3-0.2,4.4-1.1,6.4-2.1c2-1,3.9-2.2,5.7-3.5c3.6-2.6,7-5.6,10-9.1c5.6-5.7,11.3-11.4,17.1-16.9
		c2.9-2.8,5.8-5.6,8.7-8.2c0.7-0.7,1.5-1.3,2.3-1.9c0.4-0.3,0.8-0.6,1.1-0.9c0,0,0,0,0,0c-0.1,0.1-0.1,0.3-0.2,0.4
		c-0.4,0.8-1,1.7-1.6,2.5c-4.7,6.5-10.3,12.3-16,17.9c-5.8,5.6-11.9,10.7-16.9,17.3c-0.3,0.4-0.6,0.9-0.8,1.4
		c-0.2,0.5-0.4,1.1-0.5,1.6c-0.2,1.1-0.2,2.2,0,3.3c0.2,1.1,0.7,2.2,1.5,3c0.4,0.4,0.8,0.8,1.4,1.1c0.5,0.3,1.1,0.5,1.7,0.5
		c1.2,0.2,2.3-0.1,3.3-0.5c1-0.4,1.9-1,2.8-1.6c0.9-0.6,1.6-1.3,2.4-1.9l2.3-2c3-2.6,6-5.3,8.9-8.1c2.9-2.8,5.8-5.6,8.6-8.5
		c2.8-2.9,5.5-5.9,8.2-8.9c2.7-3,5.3-6.1,7.8-9.3c4.9-6.2,9.6-12.7,13.2-19.8c-0.1,0.5-0.3,1-0.4,1.5c-0.2,0.7-0.5,1.3-0.8,2
		c-0.5,1.3-1.1,2.6-1.7,3.9c-1.2,2.5-2.4,5.1-3.6,7.6c-2.4,5.1-4.9,10.1-7.2,15.3c-0.6,1.3-1.1,2.6-1.6,4c-0.2,0.7-0.4,1.5-0.3,2.4
		c0,0.8,0.2,1.7,0.6,2.4c0.4,0.8,1,1.4,1.7,1.8c0.7,0.4,1.5,0.7,2.3,0.7c1.6,0.2,3.1-0.3,4.4-1c2.7-1.4,4.6-3.9,5.9-6.5
		c0.7-1.3,1.1-2.7,1.6-4c0.5-1.3,0.9-2.7,1.5-4c1-2.6,2.2-5.2,3.4-7.7c1.3-2.5,2.6-5,3.9-7.5c2.7-4.9,5.4-9.8,8.5-14.5
		c6.6-8.5,10.6-19.8,9.7-30.5c5.1-1.8,9.9-4.3,14.7-6.9c2.4-1.3,4.7-2.8,7-4.2l3.5-2.1c1.2-0.7,2.3-1.5,3.5-2.2
		c2.3-1.4,4.7-2.8,7.2-3.9c2.5-1.1,5.1-1.9,7.6-2.7c1.3-0.4,2.5-0.9,3.8-1.3l1.9-0.6c0.6-0.2,1.3-0.5,1.9-0.7
		c1.3-0.4,2.5-0.8,3.8-1.2c1.3-0.4,2.6-0.8,3.9-1.2l0-0.2"/>
	<g>
		<path class="st16" d="M227.7,204c0.2,1,0.8,1.9,1.5,2.5c0.7,0.7,1.4,1.2,2.3,1.6c1.1,0.5,2.1,0.3,3,0.2c0.9-0.2,1.7-0.5,2.5-0.8
			c1.6-0.7,3.1-1.5,4.5-2.4c2.9-1.8,5.6-3.8,8.2-5.9c2.6-2.1,5.2-4.2,7.7-6.5c5-4.5,9.9-9,14.8-13.5c2.5-2.3,4.9-4.5,7.4-6.7
			c1.2-1.1,2.5-2.2,3.7-3.3c0.6-0.5,1.2-1,1.8-1.4c-0.1,1.4-0.9,2.7-1.9,4c-1.3,1.6-3,3.2-4.3,5c-1.3,1.7-2.7,3.4-4.1,5.1
			c-1.4,1.7-2.8,3.3-4.3,5c-5.8,6.5-12,12.8-18.6,18.6c-1.7,1.5-3.3,3-4.8,4.6c-1.5,1.6-2.9,3.4-4.1,5.3c-0.6,1-1.1,2-1.4,3.1
			c-0.3,1.1-0.5,2.4-0.1,3.6c0.2,0.6,0.4,1.2,0.8,1.7c0.4,0.5,0.8,0.9,1.3,1.3c1.1,0.7,2.4,0.8,3.5,0.7c2.3-0.2,4.4-1.1,6.4-2.1
			c2-1,3.8-2.2,5.6-3.5c3.6-2.6,6.9-5.6,9.7-8.9c5.3-5.4,10.6-10.8,16-16.1c2.7-2.6,5.4-5.3,8.2-7.8c1.4-1.2,2.8-2.5,4.2-3.5
			c-0.2,0.5-0.5,1-0.8,1.6c-1,1.6-2.1,3.1-3.2,4.6c-1.2,1.5-2.4,2.9-3.6,4.4c-2.5,2.9-5.1,5.6-7.8,8.3c-2.7,2.7-5.4,5.3-8.2,7.9
			c-2.7,2.7-5.4,5.4-7.9,8.3c-0.6,0.7-1.2,1.5-1.8,2.3c-0.3,0.4-0.5,0.8-0.8,1.3c-0.2,0.5-0.4,1-0.5,1.5c-0.2,1-0.2,2.1,0,3.1
			c0.2,1,0.6,2.1,1.3,3c0.7,0.9,1.6,1.6,2.8,1.9c1.1,0.3,2.3,0.3,3.3,0c2.1-0.6,3.7-1.9,5.2-3.1c5.8-4.9,11.5-9.9,17-15.2
			c5.5-5.3,10.7-10.9,15.5-16.7c4.8-5.9,9.2-12.2,12.4-19.1l-0.2-0.1c-1,1.6-1.9,3.2-3,4.8c-1.1,1.6-2.2,3.1-3.3,4.6
			c-2.2,3-4.7,5.9-7.2,8.8c-5,5.7-10.3,11-15.8,16.2c-5.5,5.2-11.1,10.2-16.8,15.2c-1.4,1.2-2.8,2.3-4.4,2.8
			c-1.6,0.5-3.2,0.1-4.2-1.1c-1-1.2-1.4-3.1-1.1-4.7c0.1-0.4,0.2-0.8,0.3-1.2c0.2-0.4,0.4-0.8,0.6-1.1c0.5-0.8,1-1.5,1.6-2.3
			c4.6-5.9,10.2-11.1,15.4-16.6c2.7-2.7,5.3-5.4,8-8.1c2.6-2.7,5.3-5.5,7.5-8.7c0.6-0.8,1.1-1.6,1.5-2.6c0.1-0.3,0.2-0.5,0.2-1
			c0-0.1,0-0.3-0.1-0.6c-0.1-0.2-0.4-0.5-0.6-0.5c-0.5-0.1-0.7,0-0.9,0c-0.7,0.2-1,0.5-1.5,0.8c-1.6,1.1-3,2.4-4.5,3.7
			c-2.8,2.6-5.5,5.3-8.1,8c-5.3,5.5-10.3,11.2-15,17.1c-3,3.2-6.3,6.1-10,8.5c-1.8,1.2-3.7,2.3-5.6,3.3c-2,0.9-4,1.7-6.1,1.9
			c-1,0.1-2.1-0.1-2.8-0.6c-0.8-0.6-1.4-1.4-1.6-2.3c-0.2-0.9-0.1-1.9,0.2-2.9c0.3-1,0.8-1.9,1.4-2.8c1.1-1.8,2.5-3.4,4.1-5
			c1.5-1.6,3.1-3,4.8-4.4c6.7-5.7,13-11.9,19-18.4c3-3.3,5.9-6.6,8.6-10.1c1.3-1.7,2.9-3.1,4.4-4.9c0.7-0.9,1.4-1.9,1.9-3
			c0.4-1,0.7-2.3,0.5-3.5c0,0,0-0.1,0-0.1c0-0.1,0.1-0.2,0.1-0.5c0-0.1,0-0.4-0.3-0.7c-0.3-0.3-0.6-0.4-0.8-0.4
			c-0.4,0-0.5,0.1-0.6,0.1c-0.1,0-0.2,0.1-0.3,0.1c-0.1,0.1-0.3,0.1-0.4,0.2c-0.4,0.3-0.8,0.5-1.1,0.8c-0.7,0.5-1.3,1.1-2,1.6
			c-1.3,1.1-2.5,2.2-3.8,3.3c-2.5,2.2-5,4.5-7.4,6.8c-4.9,4.5-9.8,9.1-14.7,13.6c-2.5,2.2-5,4.4-7.6,6.4c-2.6,2.1-5.2,4.1-8,5.8
			c-1.4,0.9-2.8,1.7-4.3,2.3c-0.7,0.3-1.5,0.6-2.2,0.8c-0.7,0.2-1.4,0.2-1.9,0c-1.3-0.6-2.5-1.7-2.8-3c-0.3-1.3,0.1-2.8,0.8-4.2
			c1.5-2.8,3.8-5.2,6.2-7.4c2.5-2.2,5-4.4,7.5-6.6c5-4.5,9.9-9,14.7-13.6c2.4-2.3,4.8-4.6,7.2-7c2.4-2.3,4.7-4.7,7-7.2
			c1.1-1.2,2.3-2.5,3.3-3.8c0.3-0.3,0.5-0.7,0.7-1.1c0.1-0.1,0.1-0.2,0.1-0.4c0-0.1,0-0.2,0-0.3c-0.1-0.1-0.2-0.3-0.3-0.3
			c-0.2,0-0.3,0-0.5,0c-0.1,0-0.2,0.1-0.3,0.1c-0.8,0.3-1.5,0.8-2.3,1.2c-2.9,1.8-5.6,3.7-8.3,5.7c-5.4,4-10.5,8.2-15.7,12.5
			l-3.8,3.3l-0.9,0.8c-0.3,0.3-0.6,0.5-0.9,0.7c-0.6,0.5-1.4,0.8-2.1,1.1c-0.7,0.3-1.5,0.5-2.3,0.6c-0.8,0.1-1.5,0.1-2.2,0
			c-0.7-0.2-1.4-0.5-2-0.9c-0.5-0.4-0.9-1.1-1.1-1.7c-0.1-0.6,0.1-1.2,0.5-1.9c0.4-0.6,0.9-1.2,1.4-1.8c0.6-0.6,1.2-1.2,1.8-1.8
			l1.8-1.8c2.3-2.4,4.7-4.7,7.2-6.8c2.5-2.2,5.2-4.1,7.9-6.1c2.7-1.9,5.4-3.9,8.1-5.9c2.7-2,5.3-4.1,8-6.1c2.6-2.1,5.2-4.2,7.8-6.2
			c2.6-2.1,5.3-4.1,8-6c2.7-2,5.4-3.9,8.2-5.7c2.8-1.8,5.6-3.5,8.6-4.9c1.5-0.7,3-1.3,4.6-1.7c0.4-0.1,0.8-0.2,1.2-0.2
			c0.4,0,0.8-0.1,1.2-0.1c0.8-0.1,1.6-0.1,2.5-0.2c3.3-0.1,6.6,0.1,9.9,0.7c3.3,0.6,6.5,1.4,9.5,2.9l0.1-0.2c-3-1.6-6.2-2.6-9.5-3.3
			c-3.3-0.7-6.7-1-10-1c-0.8,0-1.7,0-2.5,0.1c-0.4,0-0.8,0.1-1.3,0.1c-0.4,0.1-0.9,0.1-1.3,0.2c-1.7,0.4-3.3,1-4.8,1.7
			c-3.1,1.4-6,3.1-8.9,4.8c-5.7,3.6-11.1,7.5-16.4,11.6c-2.6,2-5.3,4.1-7.9,6.2c-2.6,2-5.3,4.1-8,6c-2.7,2-5.4,3.9-8.1,5.9
			c-2.7,2-5.4,4-8,6.2c-2.5,2.2-4.9,4.6-7.2,7l-1.7,1.8c-0.6,0.6-1.2,1.2-1.7,1.8c-0.6,0.6-1.1,1.3-1.6,2.1
			c-0.4,0.8-0.8,1.8-0.6,2.9c0.3,1,0.9,1.8,1.6,2.4c0.8,0.6,1.6,1,2.6,1.1c0.9,0.2,1.9,0.2,2.7,0c0.9-0.2,1.7-0.4,2.5-0.8
			c0.8-0.3,1.6-0.8,2.3-1.3c0.4-0.3,0.7-0.5,1-0.8l0.9-0.8l3.7-3.3c5-4.4,10.2-8.7,15.5-12.7c2.7-2,5.3-4,8.2-5.7
			c0.7-0.4,1.4-0.8,2.2-1.1c0.1,0,0.2-0.1,0.3-0.1c0,0,0,0,0,0c0,0,0,0,0,0.1c-0.2,0.3-0.4,0.7-0.7,1c-1,1.3-2.1,2.5-3.3,3.7
			c-4.6,4.8-9.4,9.4-14.4,13.9c-4.9,4.5-9.9,8.9-15,13.3c-2.5,2.2-5.1,4.3-7.6,6.5c-1.3,1.1-2.5,2.3-3.6,3.6c-1.1,1.3-2.2,2.6-3,4.2
			c-0.4,0.8-0.8,1.6-1,2.5C227.6,202,227.5,203,227.7,204z M298.5,182.9C298.5,182.9,298.5,182.9,298.5,182.9L298.5,182.9z"/>
		<path class="st16" d="M328.7,111.9c3-1.6,5.9-3.5,8.7-5.5c2.8-2,5.4-4.1,8-6.3c2.6-2.2,5.2-4.3,7.7-6.6c2.5-2.3,5-4.6,7.6-6.8
			c2.6-2.2,5.3-4.3,7.9-6.4c2.6-2.2,5-4.6,7.4-7c2.3-2.5,4.6-5,6.7-7.7l-0.1-0.1c-2.7,2.1-5.2,4.4-7.7,6.7c-2.5,2.3-5,4.6-7.3,7
			c-2.4,2.4-4.7,4.9-7.2,7.1c-2.5,2.2-5.3,4.3-8,6.3c-5.5,4-10.8,8.2-16.2,12.3c-5.4,4.1-10.9,7.9-16.9,10.9l0.1,0.2
			C322.6,114.9,325.7,113.5,328.7,111.9z"/>
		<path class="st16" d="M349.6,137.5c0.2,5.5-0.7,10.9-2.4,16c-0.9,2.5-1.9,5-3.2,7.4l-1,1.7c-0.4,0.6-0.7,1.1-1.1,1.7
			c-0.8,1.1-1.5,2.2-2.3,3.4c-0.7,1.2-1.5,2.4-2.1,3.6l-1,1.8l-0.9,1.8c-1.3,2.5-2.4,5-3.5,7.5c-1,2.5-2.1,5.1-3.1,7.6
			c-1,2.5-2.1,5.1-3.2,7.6l-3.4,7.4c-1.2,2.3-3,4.4-5.2,5.5c-1.1,0.6-2.3,0.8-3.5,0.7c-1.2-0.1-2.2-0.7-2.7-1.6
			c-0.5-0.9-0.6-2.1-0.3-3.3c0.3-1.2,0.9-2.5,1.3-3.7l6.3-15.2c1-2.5,2-5.1,3-7.7c0.5-1.3,0.9-2.6,1.3-3.9c0.2-0.7,0.4-1.3,0.5-2
			c0.1-0.7,0.3-1.4,0.2-2.1l-0.2,0c0,0.6-0.2,1.3-0.4,1.9c-0.2,0.6-0.4,1.3-0.7,1.9c-0.5,1.3-1,2.5-1.6,3.8c-1.1,2.5-2.2,5-3.4,7.5
			c-2.3,5-4.6,9.9-6.7,15c-0.5,1.3-1.1,2.5-1.5,4c-0.2,0.7-0.3,1.5-0.3,2.3c0,0.8,0.3,1.6,0.7,2.4c0.4,0.7,1.1,1.3,1.8,1.7
			c0.7,0.4,1.5,0.6,2.3,0.7c1.6,0.1,3.1-0.3,4.4-1c2.7-1.4,4.5-3.8,5.7-6.4c0.6-1.3,1-2.6,1.4-3.9c0.4-1.3,0.9-2.6,1.3-3.9
			c0.9-2.6,2-5.1,3.2-7.6c1.2-2.5,2.4-4.9,3.7-7.3c2.5-4.8,5.1-9.7,8-14.2c6.6-8.7,10.3-20.4,8.4-31.3L349.6,137.5z"/>
		<path class="st16" d="M371.6,125.7c-2.3,1.2-4.6,2.5-6.8,3.8c-4.5,2.7-8.8,5.5-13.2,8.4l0.1,0.2c5-1.7,9.6-4.1,14.2-6.7
			c2.3-1.3,4.5-2.7,6.7-4l3.3-2c1.1-0.7,2.2-1.4,3.3-2.1c2.2-1.4,4.5-2.7,6.9-3.7c2.4-1.1,4.9-1.8,7.3-2.6c1.2-0.4,2.4-0.8,3.7-1.3
			l1.8-0.6c0.6-0.2,1.2-0.5,1.8-0.6c1.2-0.4,2.5-0.8,3.7-1.2c1.2-0.4,2.5-0.7,3.7-1.2l0-0.2c-1.3,0.1-2.6,0.2-3.9,0.3
			c-0.7,0.1-1.3,0.2-1.9,0.3c-0.6,0.1-1.3,0.2-1.9,0.4c-2.6,0.6-5.1,1.4-7.5,2.4c-2.4,1.1-4.7,2.4-7,3.6c-2.3,1.2-4.7,2.3-7.1,3.3
			C376.3,123.3,373.9,124.4,371.6,125.7z"/>
	</g>
</g>
<g>
	<path class="st1" d="M196.3,18.2c0.6,3.6,1.3,7.1,2.1,10.7c0.8,3.5,1.6,7.1,2.6,10.6c0.5,1.7,1,3.5,1.4,5.3
		c0.4,1.8,0.8,3.5,1.1,5.3c0.6,3.6,1,7.2,1.4,10.8c0.4,3.6,0.9,7.2,1.2,10.7c0.4,3.6,0.7,7.2,1,10.7c0.3,3.6,0.6,7.2,0.7,10.7
		c0.1,3.4,0.2,6.8,0,10.1c-0.6,0.9-1.2,1.8-1.7,2.7c-0.4,0.7-0.8,1.5-1.2,2.2c-0.2,0.4-0.3,0.8-0.5,1.2c-0.1,0.4-0.3,0.8-0.4,1.2
		c-0.5,1.6-0.8,3.3-0.9,5c-0.3,3.4-0.3,6.8-0.2,10.2c0.2,6.8,1,13.6,1.9,20.3c0.4,3.4,1,6.8,1.4,10.1c0.4,3.4,0.9,6.7,1.2,10.1
		c0.4,3.4,0.7,6.7,1,10.1c0.3,3.4,0.7,6.8,1.4,10.2c0.7,3.4,1.5,6.7,2.5,10l0.7,2.5c0.2,0.8,0.4,1.6,0.7,2.5
		c0.3,0.8,0.6,1.7,1.1,2.5c0.5,0.8,1.2,1.7,2.2,2.1c1,0.3,2,0.3,2.9-0.1c0.9-0.3,1.6-0.9,2.3-1.6c0.6-0.7,1.1-1.5,1.3-2.3
		c0.3-0.8,0.5-1.7,0.6-2.6c0.1-0.9,0.1-1.8,0-2.7c0-0.4-0.1-0.9-0.2-1.3l-0.3-1.2l-1-5c-1.3-6.7-2.4-13.4-3.3-20.1
		c-0.4-3.4-0.8-6.7-0.9-10.1c0-0.8,0-1.7,0.1-2.5c0-0.1,0-0.2,0.1-0.3c0,0,0,0,0,0.1c0.2,0.3,0.4,0.7,0.5,1.1
		c0.6,1.6,1.1,3.2,1.6,4.8c1.9,6.5,3.5,13.2,4.9,19.9c1.5,6.7,2.8,13.3,4,20c0.6,3.4,1.2,6.7,1.8,10.1c0.3,1.7,0.7,3.4,1.3,5
		c0.5,1.7,1.2,3.3,2.1,4.9c0.5,0.8,1,1.5,1.7,2.2c0.7,0.7,1.5,1.3,2.5,1.6c1,0.3,2,0.3,2.9,0.1c0.9-0.2,1.7-0.6,2.5-1.1
		c1-0.7,1.4-1.6,1.7-2.5c0.3-0.9,0.4-1.8,0.5-2.6c0.2-1.7,0.2-3.5,0.2-5.2c-0.1-3.4-0.5-6.8-1-10.2c-0.5-3.4-1.1-6.8-1.7-10.1
		c-1.4-6.7-2.8-13.4-4.3-20c-0.7-3.3-1.4-6.7-2.1-10c-0.3-1.7-0.7-3.3-1-5c-0.1-0.8-0.3-1.5-0.4-2.3c1.1,0.8,1.9,2.3,2.5,3.8
		c0.8,2,1.3,4.2,2.2,6.4c0.8,2.1,1.6,4.2,2.3,6.3c0.8,2.1,1.5,4.2,2.2,6.4c2.8,8.5,5.1,17.2,6.8,26c0.4,2.2,1,4.4,1.6,6.6
		c0.7,2.2,1.5,4.4,2.6,6.4c0.6,1,1.2,2,2,2.9c0.8,0.9,1.8,1.7,3,2.1c0.6,0.2,1.2,0.3,1.8,0.2c0.6-0.1,1.2-0.2,1.8-0.4
		c1.2-0.6,1.9-1.6,2.4-2.6c0.9-2.1,1.2-4.4,1.3-6.6c0.1-2.2,0-4.5-0.2-6.7c-0.5-4.5-1.4-8.9-2.9-13.2c-2.2-7.7-4.2-15.5-6.2-23.2
		c-1-3.9-1.9-7.8-2.7-11.7c-0.2-1-0.4-1.9-0.5-2.9c-0.1-0.5-0.1-1-0.2-1.4c0,0,0,0,0,0c0.1,0.1,0.2,0.3,0.3,0.4
		c0.5,0.8,1,1.7,1.4,2.6c3.3,7.3,5.6,15,7.5,22.8c1.9,7.8,3.3,15.7,6.6,23.3c0.2,0.5,0.5,0.9,0.8,1.4c0.4,0.5,0.7,0.9,1.2,1.2
		c0.9,0.7,1.8,1.3,2.9,1.6c1.1,0.3,2.2,0.5,3.3,0.2c0.6-0.1,1.1-0.3,1.6-0.6c0.5-0.3,0.9-0.7,1.3-1.2c0.7-0.9,1.1-2,1.2-3.1
		c0.2-1.1,0.1-2.2,0-3.2c-0.1-1-0.3-2.1-0.5-3l-0.6-3c-0.8-3.9-1.6-7.9-2.6-11.8c-0.9-3.9-2-7.8-3.1-11.7c-1.1-3.9-2.3-7.7-3.6-11.5
		c-1.3-3.8-2.7-7.6-4.1-11.4c-3-7.3-6.3-14.6-10.6-21.3c0.4,0.3,0.8,0.7,1.1,1.1c0.5,0.5,0.9,1.1,1.3,1.6c0.9,1.1,1.7,2.2,2.5,3.4
		c1.6,2.3,3.2,4.6,4.8,6.9c3.2,4.6,6.3,9.3,9.7,13.9c0.9,1.1,1.7,2.3,2.7,3.4c0.5,0.6,1.2,1.1,1.9,1.5c0.7,0.4,1.5,0.7,2.4,0.7
		c0.8,0,1.7-0.2,2.4-0.6c0.7-0.4,1.3-1,1.8-1.6c0.9-1.3,1.3-2.8,1.4-4.3c0.1-3-1.1-6-2.7-8.4c-0.8-1.2-1.8-2.3-2.7-3.3
		c-0.9-1.1-1.8-2.1-2.7-3.3c-1.8-2.2-3.4-4.5-5-6.8c-1.6-2.3-3.1-4.7-4.5-7.1c-2.9-4.8-5.8-9.6-8.3-14.6
		c-4.1-10-11.9-19.1-21.6-23.6c1-5.3,1.2-10.8,1.3-16.1c0-2.7-0.1-5.4-0.1-8.2l-0.1-4.1c0-1.4-0.1-2.7-0.2-4.1
		c-0.1-2.7-0.1-5.4,0.2-8.1c0.3-2.7,0.9-5.3,1.4-7.9c0.3-1.3,0.5-2.6,0.7-3.9l0.4-2c0.1-0.7,0.2-1.3,0.4-2c0.3-1.3,0.6-2.6,0.8-3.9
		c0.3-1.3,0.6-2.6,0.9-4l-0.2-0.1"/>
	<g>
		<path class="st3" d="M238.2,227.1c1,0.3,2,0.2,2.9,0c0.9-0.3,1.7-0.7,2.5-1.2c1-0.7,1.4-1.7,1.7-2.5c0.3-0.9,0.4-1.8,0.5-2.6
			c0.2-1.7,0.2-3.4,0.2-5.1c-0.1-3.4-0.5-6.7-1-10.1c-0.5-3.3-1.1-6.6-1.7-9.9c-1.4-6.6-2.8-13.1-4.3-19.6c-0.7-3.3-1.4-6.5-2.1-9.8
			c-0.3-1.6-0.7-3.3-1-4.9c-0.1-0.8-0.3-1.5-0.4-2.3c1.1,0.8,1.9,2.1,2.5,3.7c0.8,1.9,1.3,4.1,2.1,6.2c0.8,2,1.6,4.1,2.3,6.1
			c0.7,2.1,1.5,4.1,2.2,6.2c2.7,8.3,5.1,16.8,6.8,25.4c0.4,2.2,1,4.3,1.6,6.5c0.7,2.1,1.4,4.2,2.6,6.2c0.6,1,1.2,2,2,2.8
			c0.8,0.8,1.8,1.6,3,1.9c0.6,0.1,1.2,0.2,1.8,0.1c0.6-0.1,1.2-0.2,1.8-0.5c1.2-0.6,1.9-1.7,2.3-2.7c0.9-2.1,1.2-4.4,1.3-6.6
			c0.1-2.2,0-4.4-0.2-6.6c-0.5-4.4-1.4-8.7-2.9-12.9c-2.1-7.3-4.1-14.6-6-21.9c-0.9-3.7-1.9-7.3-2.7-11c-0.4-1.8-0.8-3.6-1-5.4
			c0.3,0.5,0.6,1,0.9,1.5c0.9,1.6,1.6,3.3,2.3,5.1c0.7,1.7,1.4,3.5,2,5.3c1.2,3.6,2.3,7.2,3.3,10.9c1,3.7,1.8,7.3,2.7,11
			c0.9,3.7,1.9,7.4,3.3,11c0.3,0.9,0.7,1.8,1.1,2.7c0.2,0.4,0.5,0.9,0.8,1.3c0.3,0.5,0.7,0.9,1.1,1.2c0.8,0.7,1.7,1.2,2.7,1.6
			c1,0.4,2.1,0.5,3.2,0.4c1.1-0.1,2.2-0.6,3-1.4c0.8-0.8,1.4-1.8,1.6-2.9c0.5-2.1,0.2-4.1-0.1-6c-1.3-7.5-2.8-14.9-4.7-22.3
			c-1.8-7.4-4.1-14.7-6.7-21.8c-2.8-7.1-6-14.1-10.3-20.3l-0.2,0.1c0.9,1.6,1.8,3.3,2.7,5c0.8,1.7,1.6,3.4,2.4,5.1
			c1.5,3.5,2.8,7,4,10.6c2.5,7.1,4.4,14.5,6.1,21.8c1.7,7.4,3.3,14.7,4.8,22.2c0.4,1.8,0.6,3.6,0.2,5.2c-0.3,1.6-1.5,2.8-3.1,3
			c-1.6,0.2-3.3-0.4-4.6-1.4c-0.3-0.3-0.6-0.6-0.8-0.9c-0.2-0.3-0.5-0.7-0.7-1.1c-0.4-0.8-0.8-1.7-1.2-2.5c-2.8-7-4.6-14.4-6.6-21.7
			c-1-3.7-2-7.3-3.1-11c-1.1-3.7-2.1-7.3-3.8-10.8c-0.4-0.9-0.9-1.8-1.6-2.6c-0.2-0.2-0.3-0.4-0.7-0.7c-0.1-0.1-0.3-0.1-0.5-0.2
			c-0.3,0-0.6,0.1-0.8,0.3c-0.3,0.4-0.3,0.6-0.4,0.8c-0.1,0.7-0.1,1.2-0.1,1.7c0.2,2,0.6,3.8,1,5.7c0.9,3.7,1.8,7.4,2.9,11
			c2.1,7.3,4.5,14.5,7.3,21.6c1.3,4.2,2.1,8.5,2.4,12.9c0.2,2.2,0.2,4.4,0,6.5c-0.2,2.1-0.5,4.3-1.4,6.2c-0.4,0.9-1.1,1.8-1.9,2.2
			c-0.9,0.4-1.9,0.5-2.8,0.2c-0.9-0.2-1.7-0.9-2.4-1.6c-0.7-0.7-1.3-1.7-1.8-2.6c-1-1.9-1.7-3.9-2.3-6c-0.6-2.1-1.1-4.2-1.5-6.3
			c-1.6-8.7-3.8-17.2-6.5-25.7c-1.3-4.2-2.8-8.4-4.4-12.5c-0.8-2-1.3-4.1-2.1-6.2c-0.4-1.1-0.9-2.2-1.7-3.2
			c-0.7-0.9-1.7-1.7-2.8-2.2c0,0,0,0-0.1-0.1c-0.1-0.1-0.1-0.2-0.4-0.3c-0.1-0.1-0.4-0.2-0.8-0.1c-0.4,0.1-0.7,0.4-0.8,0.5
			c-0.2,0.3-0.2,0.4-0.2,0.6c0,0.1,0,0.2,0,0.3c0,0.2,0,0.3,0,0.4c0,0.5,0.1,0.9,0.1,1.4c0.1,0.9,0.3,1.7,0.4,2.5
			c0.3,1.7,0.6,3.3,1,4.9c0.7,3.3,1.4,6.5,2.1,9.8c1.5,6.5,3,13,4.4,19.5c0.7,3.2,1.3,6.5,1.8,9.8c0.5,3.3,0.9,6.6,1,9.9
			c0.1,1.6,0.1,3.3-0.1,4.9c-0.1,0.8-0.2,1.6-0.4,2.3c-0.2,0.7-0.6,1.3-1,1.6c-1.2,0.8-2.7,1.4-4,1c-1.3-0.4-2.4-1.5-3.3-2.8
			c-1.7-2.7-2.6-5.9-3.3-9.1c-0.7-3.2-1.3-6.5-2-9.8c-1.4-6.5-2.8-13.1-4.4-19.6c-0.8-3.2-1.6-6.5-2.4-9.7c-0.8-3.2-1.7-6.5-2.7-9.7
			c-0.5-1.6-1-3.2-1.7-4.8c-0.2-0.4-0.4-0.8-0.6-1.2c-0.1-0.1-0.1-0.2-0.3-0.3c-0.1,0-0.2-0.1-0.3-0.1c-0.2,0-0.3,0.1-0.4,0.2
			c-0.1,0.2-0.2,0.3-0.2,0.4c0,0.1-0.1,0.2-0.1,0.3c-0.1,0.9-0.1,1.7-0.1,2.6c0.1,3.4,0.4,6.7,0.8,10c0.8,6.6,1.8,13.2,3,19.8
			l0.9,4.9l0.2,1.2c0.1,0.4,0.1,0.8,0.2,1.2c0.1,0.8,0,1.6-0.1,2.4c-0.1,0.8-0.3,1.6-0.6,2.3c-0.3,0.7-0.6,1.4-1.1,1.9
			c-0.5,0.5-1.1,1-1.8,1.2c-0.6,0.3-1.4,0.3-2,0.1c-0.6-0.2-1-0.7-1.4-1.3c-0.4-0.6-0.6-1.4-0.9-2.2c-0.2-0.8-0.4-1.6-0.6-2.4
			l-0.7-2.4c-0.9-3.2-1.7-6.4-2.3-9.7c-0.6-3.2-1-6.5-1.3-9.8c-0.3-3.3-0.7-6.6-1.1-10c-0.4-3.3-0.9-6.6-1.3-9.9
			c-0.5-3.3-1-6.6-1.5-9.9c-0.5-3.3-0.9-6.6-1.3-9.9c-0.4-3.3-0.7-6.6-0.9-9.9c-0.2-3.3-0.2-6.6,0-9.9c0.1-1.6,0.4-3.3,0.8-4.8
			c0.1-0.4,0.3-0.8,0.4-1.1c0.2-0.4,0.3-0.8,0.5-1.1c0.3-0.7,0.7-1.5,1.1-2.2c1.6-2.9,3.4-5.7,5.5-8.2c2.1-2.6,4.5-4.9,7.2-6.8
			l-0.1-0.2c-2.8,1.8-5.4,4.1-7.6,6.6c-2.2,2.5-4.2,5.3-5.9,8.2c-0.4,0.7-0.8,1.5-1.2,2.2c-0.2,0.4-0.3,0.8-0.5,1.2
			c-0.1,0.4-0.3,0.8-0.4,1.2c-0.5,1.6-0.8,3.3-1,5c-0.3,3.4-0.3,6.7-0.2,10.1c0.2,6.7,1,13.4,1.9,20c0.4,3.3,0.9,6.6,1.4,9.9
			c0.4,3.3,0.9,6.6,1.2,9.9c0.4,3.3,0.7,6.6,1,10c0.3,3.3,0.7,6.7,1.4,10c0.6,3.3,1.5,6.6,2.5,9.8l0.7,2.4c0.2,0.8,0.4,1.6,0.7,2.4
			c0.3,0.8,0.6,1.7,1.1,2.5c0.5,0.8,1.2,1.6,2.2,1.9c1,0.3,2,0.2,2.9-0.2c0.9-0.4,1.6-1,2.3-1.6c0.6-0.7,1.1-1.5,1.3-2.4
			c0.3-0.8,0.5-1.7,0.6-2.6c0.1-0.9,0.1-1.8,0-2.6c0-0.4-0.1-0.9-0.2-1.3l-0.3-1.2l-1-4.9c-1.3-6.5-2.4-13.1-3.3-19.7
			c-0.4-3.3-0.8-6.6-0.9-9.9c0-0.8,0-1.7,0.1-2.4c0-0.1,0-0.2,0.1-0.3c0,0,0,0,0,0c0,0,0,0,0,0.1c0.2,0.3,0.4,0.7,0.5,1.1
			c0.6,1.5,1.1,3.1,1.6,4.7c1.9,6.4,3.4,12.9,4.9,19.4c1.4,6.5,2.8,13,4,19.6c0.6,3.3,1.2,6.5,1.8,9.9c0.3,1.7,0.7,3.3,1.3,4.9
			c0.5,1.6,1.2,3.2,2.1,4.7c0.5,0.7,1,1.5,1.7,2.1C236.4,226.3,237.3,226.8,238.2,227.1z M255.3,155.3
			C255.3,155.3,255.3,155.3,255.3,155.3L255.3,155.3z"/>
		<path class="st3" d="M209,93.6c0.1-3.4-0.1-6.9-0.4-10.2c-0.3-3.4-0.9-6.8-1.4-10.1c-0.6-3.3-1.1-6.7-1.9-10
			c-0.7-3.3-1.5-6.6-2.1-10c-0.6-3.3-1-6.7-1.6-10.1c-0.6-3.4-1.4-6.6-2.4-9.9c-1-3.3-2-6.5-3.3-9.6l-0.2,0.1c0.5,3.4,1.3,6.7,2,10
			c0.7,3.3,1.5,6.6,2.4,9.9c0.9,3.3,1.9,6.5,2.5,9.8c0.7,3.3,1.1,6.7,1.4,10.1c0.7,6.7,1.7,13.5,2.6,20.1c0.8,6.7,1.4,13.4,1,20.2
			l0.2,0C208.5,100.5,208.9,97,209,93.6z"/>
		<path class="st3" d="M241.6,88.3c4.9,2.5,9.1,6,12.6,10c1.8,2,3.4,4.2,4.8,6.5l1,1.7c0.3,0.6,0.6,1.2,0.9,1.8
			c0.5,1.2,1.2,2.5,1.8,3.7c0.7,1.2,1.3,2.5,2,3.6l1.1,1.8l1.1,1.7c1.5,2.3,3.1,4.5,4.8,6.7c1.7,2.2,3.4,4.3,5.1,6.5
			c1.7,2.2,3.4,4.3,5,6.5l4.8,6.6c1.4,2.2,2.3,4.8,2.2,7.3c-0.1,1.2-0.4,2.4-1.1,3.4c-0.7,0.9-1.7,1.6-2.7,1.6c-1.1,0-2.1-0.6-3-1.4
			c-0.9-0.9-1.7-2-2.6-3l-10-13c-1.7-2.2-3.4-4.3-5.2-6.4c-0.9-1-1.8-2.1-2.7-3.1c-0.5-0.5-0.9-1-1.5-1.5c-0.5-0.5-1-0.9-1.7-1.2
			l-0.1,0.2c0.6,0.3,1,0.8,1.5,1.3c0.5,0.5,0.9,1,1.3,1.6c0.9,1.1,1.7,2.1,2.5,3.2c1.6,2.2,3.2,4.4,4.8,6.6
			c3.2,4.4,6.3,8.9,9.6,13.3c0.9,1.1,1.7,2.2,2.7,3.2c0.5,0.5,1.2,1,1.9,1.4c0.7,0.4,1.5,0.6,2.4,0.6c0.8,0,1.7-0.3,2.4-0.7
			c0.7-0.4,1.3-1,1.8-1.7c0.9-1.3,1.3-2.8,1.4-4.3c0.1-3-1.1-5.8-2.7-8.1c-0.8-1.2-1.8-2.2-2.7-3.2c-0.9-1-1.8-2-2.7-3.1
			c-1.8-2.1-3.4-4.3-5-6.5c-1.6-2.2-3-4.5-4.5-6.9c-2.9-4.6-5.8-9.2-8.3-14C260.3,101,252,92,241.6,88.2L241.6,88.3z"/>
		<path class="st3" d="M242.4,63.4c-0.1,2.6-0.1,5.2-0.1,7.8c0.1,5.2,0.4,10.4,0.6,15.6l0.2,0c1-5.2,1.2-10.4,1.3-15.6
			c0-2.6-0.1-5.2-0.2-7.8l-0.1-3.9c0-1.3-0.1-2.6-0.2-3.9c-0.1-2.6-0.1-5.2,0.2-7.8c0.3-2.6,0.9-5.1,1.4-7.6
			c0.3-1.3,0.5-2.5,0.7-3.8l0.4-1.9c0.1-0.6,0.2-1.3,0.4-1.9c0.3-1.3,0.5-2.5,0.8-3.8c0.3-1.3,0.6-2.5,0.8-3.8l-0.2-0.1
			c-0.6,1.2-1.2,2.4-1.7,3.6c-0.3,0.6-0.5,1.2-0.7,1.9c-0.2,0.6-0.4,1.2-0.6,1.9c-0.7,2.5-1.4,5.1-1.6,7.7c-0.3,2.6-0.3,5.3-0.4,7.9
			c-0.2,2.6-0.4,5.2-0.7,7.8C242.6,58.1,242.5,60.8,242.4,63.4z"/>
	</g>
</g>
<g>
	<path class="st16" d="M60.9,161c3.4,1.4,6.8,2.6,10.2,3.8c3.4,1.2,6.8,2.4,10.3,3.3c1.7,0.5,3.5,1,5.2,1.5c1.7,0.6,3.4,1.2,5.1,1.8
		c3.4,1.3,6.6,2.9,9.9,4.5c3.3,1.5,6.6,3,9.8,4.6c3.2,1.6,6.5,3.1,9.7,4.7c3.2,1.6,6.4,3.2,9.5,5c2.9,1.7,5.9,3.4,8.6,5.3
		c0.4,1,0.9,2,1.4,2.9c0.4,0.7,0.8,1.5,1.3,2.2c0.2,0.4,0.5,0.7,0.7,1c0.3,0.3,0.5,0.7,0.8,1c1.1,1.3,2.4,2.4,3.8,3.4
		c2.7,2.1,5.6,3.8,8.6,5.5c5.9,3.4,12.1,6.3,18.3,9c3.1,1.4,6.3,2.7,9.4,4.1c3.1,1.4,6.2,2.8,9.3,4.2c3.1,1.4,6.1,3,9.2,4.4
		c3.1,1.5,6.2,2.9,9.4,4.1c3.2,1.2,6.5,2.2,9.8,3.1l2.5,0.7c0.8,0.2,1.6,0.5,2.5,0.7c0.9,0.2,1.7,0.4,2.7,0.4c0.9,0,2.1-0.1,2.9-0.8
		c0.8-0.7,1.3-1.6,1.5-2.5c0.2-0.9,0.1-1.9-0.2-2.7c-0.2-0.9-0.7-1.7-1.3-2.4c-0.6-0.7-1.2-1.3-1.9-1.9c-0.7-0.5-1.5-1-2.3-1.4
		c-0.4-0.2-0.8-0.4-1.2-0.5l-1.2-0.4l-4.8-1.7c-6.4-2.4-12.7-4.9-18.9-7.7c-3.1-1.4-6.2-2.9-9.1-4.5c-0.7-0.4-1.4-0.9-2-1.4
		c-0.1-0.1-0.1-0.1-0.2-0.2c0,0,0.1,0,0.1,0c0.4,0,0.8,0.1,1.2,0.1c1.7,0.3,3.3,0.7,5,1.1c6.6,1.8,13.1,4,19.5,6.2
		c6.4,2.2,12.8,4.6,19.2,7c3.2,1.2,6.3,2.5,9.5,3.7c1.6,0.6,3.3,1.1,5,1.5c1.7,0.4,3.5,0.7,5.3,0.7c0.9,0,1.8-0.1,2.8-0.3
		c0.9-0.2,1.9-0.6,2.6-1.3c0.8-0.6,1.3-1.5,1.6-2.4c0.3-0.9,0.4-1.8,0.4-2.7c-0.1-1.2-0.7-2-1.3-2.7c-0.6-0.7-1.3-1.3-2-1.8
		c-1.4-1.1-2.9-2-4.3-2.8c-3-1.7-6.1-3.2-9.2-4.5c-3.1-1.4-6.3-2.6-9.5-3.8c-6.4-2.3-12.9-4.6-19.3-6.8c-3.2-1.1-6.4-2.2-9.6-3.4
		c-1.6-0.6-3.2-1.2-4.8-1.8c-0.7-0.3-1.5-0.6-2.2-0.9c1.3-0.5,2.9-0.4,4.5-0.1c2.1,0.4,4.3,1.1,6.6,1.5c2.2,0.4,4.4,0.8,6.6,1.3
		c2.2,0.5,4.4,1,6.6,1.5c8.7,2.1,17.3,4.6,25.7,7.8c2.1,0.8,4.3,1.5,6.5,2.1c2.2,0.6,4.5,1,6.8,1.2c1.2,0.1,2.4,0,3.5-0.2
		c1.2-0.2,2.4-0.7,3.3-1.5c0.5-0.4,0.9-0.9,1.1-1.5c0.3-0.6,0.5-1.1,0.5-1.7c0.1-1.3-0.4-2.4-1-3.4c-1.3-1.9-3.1-3.3-4.9-4.6
		c-1.9-1.3-3.8-2.4-5.9-3.3c-4.1-1.9-8.3-3.5-12.7-4.4c-7.7-2.2-15.4-4.5-23-6.9c-3.8-1.2-7.6-2.4-11.4-3.8
		c-0.9-0.3-1.9-0.7-2.8-1.1c-0.4-0.2-0.9-0.4-1.3-0.6c0,0,0,0,0,0c0.2,0,0.3,0,0.5,0c1,0,1.9,0.1,2.9,0.2c7.9,1,15.7,3.1,23.4,5.5
		c7.6,2.4,15.1,5.4,23.3,6.5c0.5,0,1.1,0.1,1.7,0c0.6-0.1,1.1-0.2,1.7-0.4c1.1-0.3,2-0.9,2.9-1.6c0.8-0.7,1.6-1.6,2-2.7
		c0.2-0.5,0.3-1.1,0.3-1.7c0-0.6-0.1-1.2-0.3-1.7c-0.4-1.1-1.2-2-2-2.7c-0.8-0.7-1.8-1.2-2.7-1.7c-0.9-0.5-1.9-0.8-2.8-1.2l-2.8-1.1
		c-3.8-1.4-7.6-2.7-11.4-4c-3.8-1.2-7.7-2.4-11.6-3.5c-3.9-1.1-7.8-2.1-11.7-3c-3.9-0.9-7.9-1.7-11.9-2.4
		c-7.8-1.3-15.7-2.3-23.7-2.1c0.5-0.2,1-0.3,1.6-0.4c0.7-0.1,1.4-0.2,2.1-0.3c1.4-0.2,2.8-0.3,4.2-0.4c2.8-0.2,5.6-0.3,8.4-0.5
		c5.6-0.3,11.3-0.5,16.9-1c1.4-0.1,2.8-0.2,4.3-0.5c0.8-0.2,1.5-0.4,2.2-0.8c0.7-0.4,1.4-1,1.8-1.7c0.5-0.7,0.7-1.5,0.8-2.4
		c0-0.8-0.1-1.6-0.4-2.3c-0.6-1.5-1.7-2.6-3-3.4c-2.5-1.7-5.6-2.2-8.5-2.1c-1.5,0-2.9,0.3-4.3,0.5c-1.4,0.2-2.8,0.4-4.2,0.6
		c-2.8,0.3-5.6,0.6-8.4,0.7c-2.8,0.1-5.6,0.1-8.4,0.1c-5.6,0-11.2,0-16.8-0.5c-10.6-1.7-22.5,0.2-31.4,6.1c-4-3.6-8.5-6.7-13.1-9.6
		c-2.3-1.4-4.7-2.8-7-4.2l-3.5-2c-1.2-0.7-2.4-1.3-3.6-2c-2.4-1.3-4.7-2.8-6.8-4.5c-2.2-1.6-4.1-3.6-6-5.4c-1-0.9-2-1.8-3-2.7
		l-1.5-1.4c-0.5-0.5-1-0.9-1.5-1.3c-0.9-0.9-1.9-1.8-2.9-2.8c-0.9-1-1.9-1.9-2.9-2.8l-0.2,0.1"/>
	<g>
		<path class="st15" d="M263.5,229.6c0.7-0.7,1.2-1.6,1.5-2.5c0.3-0.9,0.3-1.8,0.2-2.8c-0.1-1.2-0.8-2-1.4-2.7
			c-0.6-0.7-1.3-1.3-2-1.8c-1.4-1-2.9-1.9-4.4-2.7c-3-1.6-6.1-2.9-9.2-4.2c-3.1-1.2-6.3-2.4-9.5-3.5c-6.4-2.1-12.7-4.1-19.1-6.1
			c-3.2-1-6.4-2-9.5-3c-1.6-0.5-3.2-1-4.7-1.6c-0.7-0.3-1.4-0.5-2.1-0.8c1.2-0.6,2.8-0.6,4.4-0.3c2.1,0.3,4.2,1,6.5,1.3
			c2.2,0.3,4.3,0.7,6.5,1c2.2,0.4,4.3,0.8,6.4,1.2c8.6,1.8,17.1,4,25.4,6.8c2.1,0.7,4.2,1.3,6.4,1.8c2.2,0.5,4.4,0.9,6.7,0.9
			c1.1,0,2.3-0.1,3.4-0.3c1.1-0.3,2.3-0.8,3.2-1.7c0.4-0.4,0.8-1,1-1.5c0.2-0.6,0.4-1.1,0.4-1.8c0.1-1.3-0.5-2.5-1.2-3.4
			c-1.4-1.9-3.2-3.2-5-4.5c-1.9-1.2-3.8-2.2-5.9-3.1c-4-1.8-8.3-3.2-12.6-4c-7.4-1.9-14.7-3.8-22-5.8c-3.6-1-7.3-2-10.9-3.2
			c-1.8-0.6-3.6-1.2-5.2-1.9c0.6-0.1,1.2-0.1,1.8-0.1c1.8,0,3.7,0.3,5.6,0.5c1.9,0.3,3.7,0.6,5.6,0.9c3.7,0.7,7.4,1.6,11.1,2.6
			c3.7,1,7.3,2.1,10.9,3.2c3.7,1,7.3,2,11.1,2.7c0.9,0.2,1.9,0.3,2.9,0.4c0.5,0,1,0.1,1.5,0c0.6,0,1.1-0.2,1.6-0.3
			c1-0.3,1.9-0.9,2.7-1.5c0.8-0.7,1.5-1.5,1.9-2.6c0.4-1,0.6-2.2,0.3-3.3c-0.3-1.1-0.9-2.1-1.7-2.8c-1.6-1.5-3.5-2.3-5.3-2.9
			c-7.1-2.6-14.3-5-21.7-7.1c-7.3-2.1-14.7-3.8-22.3-5.1c-7.5-1.2-15.2-1.9-22.8-1.2l0,0.2c1.9,0,3.8,0.1,5.7,0.2
			c1.9,0.1,3.8,0.3,5.6,0.5c3.8,0.4,7.5,1.1,11.2,1.8c7.4,1.4,14.7,3.5,21.9,5.6c7.2,2.2,14.4,4.5,21.6,6.9c1.7,0.6,3.4,1.3,4.6,2.4
			c1.2,1.1,1.7,2.7,1.1,4.2c-0.6,1.5-2,2.7-3.6,3.3c-0.4,0.1-0.8,0.3-1.2,0.3c-0.4,0-0.9,0-1.3,0c-0.9,0-1.8-0.1-2.8-0.3
			c-7.4-1.1-14.7-3.2-22.1-5.1c-3.7-0.9-7.3-1.9-11-2.8c-3.7-0.9-7.4-1.8-11.3-2.2c-1-0.1-2-0.1-3,0c-0.3,0-0.5,0.1-1,0.3
			c-0.1,0.1-0.3,0.2-0.4,0.4c-0.2,0.2-0.2,0.6-0.1,0.8c0.1,0.5,0.3,0.6,0.5,0.7c0.5,0.5,1,0.6,1.4,0.9c1.8,0.8,3.6,1.4,5.4,2
			c3.6,1.1,7.3,2.1,11,3c7.4,1.8,14.8,3.3,22.3,4.5c4.3,1,8.4,2.5,12.4,4.4c2,1,3.9,2,5.7,3.3c1.8,1.2,3.5,2.6,4.7,4.3
			c0.6,0.9,1,1.8,0.9,2.7c-0.1,0.9-0.5,1.9-1.2,2.6c-0.7,0.7-1.6,1.1-2.6,1.3c-1,0.2-2.1,0.3-3.1,0.2c-2.1-0.1-4.3-0.5-6.4-1
			c-2.1-0.5-4.2-1.2-6.2-1.9c-8.3-3-16.8-5.3-25.5-7.2c-4.3-1-8.6-1.8-13-2.4c-2.1-0.3-4.2-0.9-6.4-1.3c-1.1-0.2-2.3-0.3-3.6-0.1
			c-1.1,0.1-2.3,0.6-3.3,1.3c0,0-0.1,0-0.1,0c-0.1,0-0.2,0-0.5,0.2c-0.1,0.1-0.4,0.2-0.5,0.6c-0.1,0.4,0,0.8,0.1,0.9
			c0.2,0.3,0.3,0.4,0.4,0.5c0.1,0.1,0.2,0.1,0.2,0.2c0.1,0.1,0.2,0.2,0.4,0.2c0.4,0.2,0.8,0.4,1.2,0.6c0.8,0.3,1.6,0.6,2.4,0.9
			c1.6,0.6,3.2,1.1,4.8,1.6c3.2,1,6.4,2,9.6,3c6.4,2,12.8,3.9,19.1,6c3.2,1,6.3,2.1,9.4,3.4c3.1,1.2,6.1,2.5,9,4
			c1.5,0.8,2.9,1.6,4.2,2.5c0.6,0.5,1.2,1,1.8,1.5c0.5,0.5,0.9,1.2,0.9,1.7c0.1,1.5-0.2,3-1.1,3.9c-1,1-2.5,1.3-4.1,1.4
			c-3.2,0.1-6.4-0.7-9.5-1.7c-3.1-1-6.3-2.2-9.5-3.2c-6.4-2.1-12.7-4.1-19.1-6c-3.2-1-6.4-1.9-9.6-2.8c-3.2-0.9-6.4-1.8-9.7-2.5
			c-1.6-0.4-3.3-0.7-5-0.9c-0.4,0-0.9-0.1-1.3-0.1c-0.1,0-0.2,0-0.4,0.1c-0.1,0-0.2,0.1-0.3,0.2c-0.1,0.1-0.1,0.3-0.1,0.4
			c0.1,0.2,0.2,0.3,0.2,0.4c0.1,0.1,0.2,0.2,0.3,0.2c0.7,0.6,1.4,1,2.2,1.4c3,1.6,6,3,9.1,4.3c6.1,2.6,12.4,5,18.7,7.3l4.7,1.7
			l1.2,0.4c0.4,0.1,0.7,0.3,1.1,0.4c0.7,0.3,1.4,0.8,2,1.2c0.6,0.5,1.2,1,1.7,1.7c0.5,0.6,0.9,1.2,1.1,2c0.2,0.7,0.3,1.5,0.2,2.2
			c-0.1,0.7-0.4,1.3-0.9,1.8c-0.4,0.4-1.1,0.6-1.9,0.5c-0.7,0-1.5-0.1-2.3-0.3c-0.8-0.2-1.6-0.4-2.4-0.6l-2.4-0.6
			c-3.2-0.8-6.4-1.7-9.5-2.8c-3.1-1.1-6.1-2.4-9.2-3.8c-3-1.4-6.1-2.7-9.2-4.1c-3.1-1.3-6.2-2.6-9.3-3.8c-3.1-1.2-6.2-2.4-9.3-3.7
			c-3.1-1.2-6.2-2.5-9.2-3.9c-3-1.3-6.1-2.7-9-4.2c-3-1.5-5.9-3.1-8.6-5c-1.3-0.9-2.6-2-3.8-3.1c-0.3-0.3-0.5-0.6-0.8-0.9
			c-0.2-0.3-0.5-0.6-0.7-1c-0.5-0.7-0.9-1.4-1.4-2c-1.7-2.8-3.2-5.8-4.4-8.9c-1.2-3.1-2-6.3-2.3-9.7l-0.2,0c0.1,3.4,0.8,6.7,1.9,9.9
			c1.1,3.2,2.5,6.3,4.2,9.2c0.4,0.7,0.9,1.4,1.4,2.1c0.2,0.3,0.5,0.7,0.7,1c0.3,0.3,0.5,0.7,0.8,1c1.2,1.3,2.5,2.3,3.9,3.3
			c2.7,2,5.7,3.7,8.6,5.2c5.9,3.2,12.1,5.9,18.3,8.4c3.1,1.3,6.2,2.5,9.3,3.7c3.1,1.3,6.2,2.5,9.2,3.9c3.1,1.3,6.1,2.7,9.1,4.1
			c3.1,1.4,6.1,2.7,9.3,3.8c3.2,1.1,6.4,2,9.7,2.8l2.4,0.6c0.8,0.2,1.6,0.4,2.5,0.6c0.8,0.2,1.7,0.3,2.7,0.3c0.9,0,2-0.2,2.8-1
			c0.8-0.7,1.2-1.7,1.3-2.6c0.1-1,0-1.9-0.3-2.8c-0.3-0.9-0.8-1.7-1.4-2.4c-0.6-0.7-1.2-1.3-1.9-1.8c-0.7-0.5-1.5-1-2.3-1.3
			c-0.4-0.2-0.8-0.3-1.2-0.5l-1.2-0.4l-4.7-1.6c-6.3-2.1-12.6-4.5-18.7-7c-3.1-1.3-6.1-2.6-9.1-4.2c-0.7-0.4-1.5-0.8-2.1-1.3
			c-0.1-0.1-0.1-0.1-0.2-0.2c0,0,0,0,0,0c0,0,0.1,0,0.1,0c0.4,0,0.8,0,1.2,0.1c1.6,0.2,3.3,0.6,4.9,1c6.5,1.6,12.9,3.5,19.2,5.5
			c6.4,2,12.7,4.1,19,6.3c3.2,1.1,6.3,2.2,9.4,3.4c1.6,0.5,3.2,1,4.9,1.4c1.7,0.3,3.4,0.6,5.2,0.5c0.9,0,1.8-0.1,2.7-0.4
			C261.9,230.7,262.8,230.3,263.5,229.6z M209.9,178.9C209.9,178.9,209.9,178.9,209.9,178.9L209.9,178.9z"/>
		<path class="st15" d="M133.3,188.2c-2.9-1.8-6-3.4-9.1-4.8c-3.1-1.4-6.3-2.6-9.5-3.8c-3.2-1.2-6.4-2.4-9.6-3.4
			c-3.2-1-6.5-2-9.7-3.1c-3.2-1.1-6.3-2.4-9.5-3.6c-3.2-1.2-6.5-2.1-9.8-2.9c-3.3-0.8-6.6-1.5-10-1.9l0,0.2c3.2,1.2,6.4,2.3,9.6,3.3
			c3.2,1,6.4,2,9.7,2.9c3.3,0.8,6.6,1.6,9.8,2.7c3.2,1.1,6.3,2.4,9.4,3.8c6.2,2.8,12.5,5.2,18.7,7.9c6.2,2.6,12.3,5.4,18,9.2
			l0.1-0.2C139,192,136.2,190,133.3,188.2z"/>
		<path class="st15" d="M145,157.3c4.6-2.9,9.7-4.9,15-5.9c2.6-0.5,5.3-0.8,8-0.9l2,0c0.7,0,1.3,0,2,0.1c1.3,0.1,2.7,0.2,4.1,0.3
			c1.4,0,2.8,0.1,4.2,0l2.1-0.1l2.1-0.1c2.8-0.1,5.5-0.4,8.2-0.7c2.7-0.4,5.4-0.8,8.1-1.2c2.7-0.4,5.4-0.7,8.2-1l8.1-0.8
			c2.6-0.1,5.3,0.4,7.4,1.8c1,0.7,1.9,1.6,2.4,2.7c0.5,1,0.5,2.2,0,3.1c-0.5,0.9-1.6,1.6-2.7,1.9c-1.2,0.3-2.6,0.5-3.9,0.7
			l-16.3,2.1c-2.7,0.4-5.4,0.8-8.1,1.3c-1.4,0.2-2.7,0.5-4,0.8c-0.7,0.2-1.3,0.3-2,0.5c-0.7,0.2-1.3,0.4-1.9,0.9l0.1,0.2
			c0.5-0.3,1.2-0.5,1.9-0.6c0.7-0.1,1.3-0.3,2-0.4c1.3-0.2,2.7-0.4,4.1-0.5c2.7-0.3,5.4-0.6,8.2-0.8c5.4-0.5,10.9-1,16.3-1.7
			c1.4-0.2,2.7-0.3,4.2-0.7c0.7-0.2,1.5-0.5,2.1-0.9c0.7-0.4,1.3-1,1.7-1.8c0.4-0.7,0.6-1.6,0.6-2.4c0-0.8-0.2-1.6-0.6-2.3
			c-0.7-1.4-1.8-2.5-3.1-3.3c-2.5-1.6-5.6-2-8.4-1.8c-1.4,0.1-2.8,0.5-4.1,0.7c-1.3,0.3-2.7,0.6-4,0.8c-2.7,0.5-5.4,0.8-8.1,1
			c-2.7,0.2-5.5,0.4-8.2,0.5c-5.5,0.2-10.9,0.4-16.3,0.2c-10.9-1.4-22.8,1.3-31.3,8.4L145,157.3z"/>
		<path class="st15" d="M123.8,144.1c2.2,1.4,4.5,2.7,6.7,4c4.6,2.5,9.2,4.9,13.8,7.3l0.1-0.2c-4-3.5-8.4-6.3-12.9-9
			c-2.3-1.3-4.5-2.5-6.8-3.8l-3.4-1.8c-1.1-0.6-2.3-1.2-3.5-1.8c-2.3-1.2-4.5-2.5-6.6-4.1c-2.1-1.5-4-3.3-5.9-5.1
			c-0.9-0.9-2-1.7-2.9-2.5l-1.4-1.3c-0.5-0.4-1-0.8-1.5-1.3c-0.9-0.9-1.9-1.7-2.9-2.6c-0.9-0.9-1.9-1.8-2.9-2.6l-0.2,0.1
			c0.7,1.1,1.5,2.2,2.3,3.2c0.4,0.5,0.8,1,1.3,1.5c0.4,0.5,0.9,1,1.3,1.5c1.8,1.9,3.7,3.7,5.9,5.3c2.1,1.6,4.4,2.9,6.6,4.3
			c2.2,1.4,4.3,2.9,6.4,4.5C119.4,141.3,121.6,142.8,123.8,144.1z"/>
	</g>
</g>
<path class="st3" d="M121.8,351.6c2.8-2.4,5.4-4.8,8.1-7.3c2.6-2.5,5.2-5,7.7-7.7c1.2-1.3,2.5-2.7,3.8-4c1.3-1.3,2.6-2.5,4-3.7
	c2.7-2.4,5.6-4.6,8.5-6.7c2.9-2.2,5.7-4.5,8.5-6.6c2.9-2.2,5.7-4.3,8.6-6.5c2.9-2.1,5.8-4.2,8.8-6.2c2.8-1.9,5.7-3.7,8.7-5.2
	c1.1,0.1,2.2,0.1,3.2,0.1c0.8,0,1.7-0.1,2.5-0.1c0.4,0,0.8-0.1,1.3-0.2c0.4-0.1,0.9-0.1,1.3-0.3c1.7-0.4,3.3-1.1,4.8-1.8
	c3.1-1.5,6-3.2,8.8-5.1c5.7-3.7,11.1-7.9,16.4-12.1c2.7-2.1,5.3-4.3,7.9-6.5c2.6-2.1,5.3-4.2,8-6.3c2.7-2.1,5.4-4.1,8.1-6.1
	c2.7-2.1,5.4-4.1,8-6.5c2.6-2.3,5-4.8,7.3-7.3l1.7-1.9c0.6-0.6,1.2-1.2,1.8-1.9c0.6-0.7,1.2-1.4,1.6-2.2c0.5-0.8,0.8-1.9,0.6-3
	c-0.2-1-0.8-1.9-1.6-2.5c-0.7-0.6-1.6-0.9-2.5-1.1c-0.9-0.2-1.9-0.1-2.7,0.1c-0.9,0.2-1.7,0.5-2.5,0.8c-0.8,0.4-1.6,0.8-2.3,1.4
	c-0.4,0.3-0.7,0.6-1,0.9l-0.9,0.9l-3.7,3.5c-5,4.6-10.2,9-15.5,13.2c-2.7,2.1-5.4,4.2-8.2,6c-0.7,0.4-1.4,0.9-2.2,1.2
	c-0.1,0-0.2,0.1-0.3,0.1c0,0,0,0,0-0.1c0.2-0.3,0.4-0.7,0.7-1c1-1.3,2.1-2.6,3.3-3.9c4.6-5,9.5-9.8,14.4-14.5
	c4.9-4.7,10-9.3,15-13.8c2.5-2.3,5.1-4.5,7.7-6.8c1.3-1.2,2.5-2.4,3.7-3.7c1.1-1.3,2.2-2.7,3.1-4.3c0.4-0.8,0.8-1.7,1-2.6
	c0.2-0.9,0.3-1.9,0.1-2.9c-0.2-1-0.7-1.9-1.4-2.6c-0.7-0.7-1.4-1.2-2.2-1.6c-1.1-0.5-2.1-0.3-3-0.1c-0.9,0.2-1.7,0.5-2.5,0.9
	c-1.6,0.7-3.1,1.6-4.5,2.6c-2.9,1.9-5.6,4-8.2,6.1c-2.7,2.2-5.2,4.4-7.8,6.7c-5,4.7-10,9.3-14.9,14c-2.5,2.3-4.9,4.7-7.4,7
	c-1.2,1.2-2.5,2.3-3.8,3.4c-0.6,0.5-1.2,1-1.8,1.5c0.2-1.4,1-2.8,2-4.1c1.3-1.7,3-3.3,4.4-5.2c1.4-1.8,2.8-3.5,4.2-5.3
	c1.4-1.7,2.9-3.5,4.3-5.1c5.9-6.8,12.1-13.3,18.7-19.3c1.7-1.5,3.3-3.1,4.8-4.8c1.5-1.7,3-3.5,4.2-5.5c0.6-1,1.1-2.1,1.5-3.2
	c0.3-1.1,0.5-2.4,0.2-3.7c-0.2-0.6-0.4-1.2-0.8-1.7c-0.4-0.5-0.8-0.9-1.3-1.3c-1.1-0.7-2.3-0.8-3.5-0.6c-2.3,0.3-4.4,1.2-6.4,2.3
	c-2,1.1-3.8,2.3-5.6,3.7c-3.6,2.7-6.9,5.8-9.8,9.3c-5.5,5.8-11.1,11.6-16.7,17.3c-2.8,2.8-5.6,5.7-8.6,8.4c-0.7,0.7-1.5,1.3-2.2,2
	c-0.4,0.3-0.8,0.6-1.1,0.9c0,0,0,0,0,0c0.1-0.1,0.1-0.3,0.2-0.4c0.4-0.9,1-1.7,1.5-2.5c4.5-6.6,10-12.6,15.6-18.2
	c5.6-5.7,11.7-11,16.5-17.7c0.3-0.5,0.6-0.9,0.8-1.5c0.2-0.6,0.3-1.1,0.4-1.6c0.2-1.1,0.1-2.2-0.1-3.3c-0.3-1.1-0.7-2.1-1.5-3
	c-0.4-0.4-0.9-0.8-1.4-1.1c-0.5-0.3-1.1-0.4-1.7-0.5c-1.2-0.2-2.3,0.1-3.3,0.6c-1,0.4-1.9,1-2.8,1.6c-0.8,0.6-1.6,1.3-2.4,2l-2.2,2
	c-3,2.7-5.9,5.5-8.7,8.3c-2.9,2.8-5.6,5.7-8.4,8.7c-2.7,3-5.4,6-8,9.1c-2.6,3.1-5.1,6.2-7.6,9.4c-4.7,6.3-9.3,12.9-12.7,20.1
	c0.1-0.5,0.2-1,0.4-1.6c0.2-0.7,0.5-1.3,0.7-2c0.5-1.3,1-2.6,1.6-3.9c1.1-2.6,2.3-5.1,3.4-7.7c2.3-5.1,4.7-10.2,6.9-15.5
	c0.5-1.3,1.1-2.6,1.5-4.1c0.2-0.8,0.3-1.5,0.3-2.4c0-0.8-0.2-1.7-0.6-2.4c-0.4-0.7-1-1.4-1.7-1.8c-0.7-0.4-1.5-0.6-2.3-0.7
	c-1.6-0.1-3.1,0.4-4.4,1.1c-2.7,1.5-4.5,4-5.8,6.6c-0.6,1.3-1,2.7-1.5,4c-0.5,1.3-0.9,2.7-1.4,4c-1,2.6-2.1,5.2-3.3,7.8
	c-1.2,2.5-2.5,5.1-3.8,7.6c-2.6,5-5.2,10-8.2,14.6c-6.4,8.7-10.1,20-9,30.7c-5.1,1.9-9.8,4.5-14.5,7.2c-2.3,1.4-4.6,2.9-6.9,4.3
	l-3.4,2.2c-1.1,0.7-2.3,1.5-3.4,2.3c-2.3,1.5-4.6,2.9-7.1,4c-2.4,1.2-5,2-7.5,2.9c-1.3,0.4-2.5,0.9-3.8,1.4l-1.9,0.7
	c-0.6,0.2-1.2,0.5-1.9,0.7c-1.3,0.4-2.5,0.9-3.8,1.3c-1.3,0.4-2.6,0.8-3.8,1.3l0,0.2"/>
<g>
	<path class="st16" d="M278.3,208.9c-0.2-1-0.8-1.9-1.5-2.5c-0.7-0.7-1.4-1.2-2.3-1.6c-1.1-0.5-2.1-0.3-3-0.2
		c-0.9,0.2-1.7,0.5-2.5,0.8c-1.6,0.7-3.1,1.5-4.5,2.4c-2.9,1.8-5.6,3.8-8.2,5.9c-2.6,2.1-5.2,4.2-7.7,6.5c-5,4.5-9.9,9-14.8,13.5
		c-2.5,2.3-4.9,4.5-7.4,6.7c-1.2,1.1-2.5,2.2-3.7,3.3c-0.6,0.5-1.2,1-1.8,1.4c0.1-1.4,0.9-2.7,1.9-4c1.3-1.6,3-3.2,4.3-5
		c1.3-1.7,2.7-3.4,4.1-5.1c1.4-1.7,2.8-3.3,4.3-5c5.8-6.5,12-12.8,18.6-18.6c1.7-1.5,3.3-3,4.8-4.6c1.5-1.6,2.9-3.4,4.1-5.3
		c0.6-1,1.1-2,1.4-3.1c0.3-1.1,0.5-2.4,0.1-3.6c-0.2-0.6-0.4-1.2-0.8-1.7c-0.4-0.5-0.8-0.9-1.3-1.3c-1.1-0.7-2.4-0.8-3.5-0.7
		c-2.3,0.2-4.4,1.1-6.4,2.1c-2,1-3.8,2.2-5.6,3.5c-3.6,2.6-6.9,5.6-9.7,8.9c-5.3,5.4-10.6,10.8-16,16.1c-2.7,2.6-5.4,5.3-8.2,7.8
		c-1.4,1.2-2.8,2.5-4.2,3.5c0.2-0.5,0.5-1,0.8-1.6c1-1.6,2.1-3.1,3.2-4.6c1.2-1.5,2.4-2.9,3.6-4.4c2.5-2.9,5.1-5.6,7.8-8.3
		c2.7-2.7,5.4-5.3,8.2-7.9c2.7-2.7,5.4-5.4,7.9-8.3c0.6-0.7,1.2-1.5,1.8-2.3c0.3-0.4,0.5-0.8,0.8-1.3c0.2-0.5,0.4-1,0.5-1.5
		c0.2-1,0.2-2.1,0-3.1c-0.2-1-0.6-2.1-1.3-3c-0.7-0.9-1.6-1.6-2.8-1.9c-1.1-0.3-2.3-0.3-3.3,0c-2.1,0.6-3.7,1.9-5.2,3.1
		c-5.8,4.9-11.5,9.9-17,15.2c-5.5,5.3-10.7,10.9-15.5,16.7c-4.8,5.9-9.2,12.2-12.4,19.1l0.2,0.1c1-1.6,1.9-3.2,3-4.8
		c1.1-1.6,2.2-3.1,3.3-4.6c2.2-3,4.7-5.9,7.2-8.8c5-5.7,10.3-11,15.8-16.2c5.5-5.2,11.1-10.2,16.8-15.2c1.4-1.2,2.8-2.3,4.4-2.8
		c1.6-0.5,3.2-0.1,4.2,1.1c1,1.2,1.4,3.1,1.1,4.7c-0.1,0.4-0.2,0.8-0.3,1.2c-0.2,0.4-0.4,0.8-0.6,1.1c-0.5,0.8-1,1.5-1.6,2.3
		c-4.6,5.9-10.2,11.1-15.4,16.6c-2.7,2.7-5.3,5.4-8,8.1c-2.6,2.7-5.3,5.5-7.5,8.7c-0.6,0.8-1.1,1.6-1.5,2.6c-0.1,0.3-0.2,0.5-0.2,1
		c0,0.1,0,0.3,0.1,0.6c0.1,0.2,0.4,0.5,0.6,0.5c0.5,0.1,0.7,0,0.9,0c0.7-0.2,1-0.5,1.5-0.8c1.6-1.1,3-2.4,4.5-3.7
		c2.8-2.6,5.5-5.3,8.1-8c5.3-5.5,10.3-11.2,15-17.1c3-3.2,6.3-6.1,10-8.5c1.8-1.2,3.7-2.3,5.6-3.3c2-0.9,4-1.7,6.1-1.9
		c1-0.1,2.1,0.1,2.8,0.6c0.8,0.6,1.4,1.4,1.6,2.3c0.2,0.9,0.1,1.9-0.2,2.9c-0.3,1-0.8,1.9-1.4,2.8c-1.1,1.8-2.5,3.4-4.1,5
		c-1.5,1.6-3.1,3-4.8,4.4c-6.7,5.7-13,11.9-19,18.4c-3,3.3-5.9,6.6-8.6,10.1c-1.3,1.7-2.9,3.1-4.4,4.9c-0.7,0.9-1.4,1.9-1.9,3
		c-0.4,1-0.7,2.3-0.5,3.5c0,0,0,0.1,0,0.1c0,0.1-0.1,0.2-0.1,0.5c0,0.1,0,0.4,0.3,0.7c0.3,0.3,0.6,0.4,0.8,0.4
		c0.4,0,0.5-0.1,0.6-0.1c0.1,0,0.2-0.1,0.3-0.1c0.1-0.1,0.3-0.1,0.4-0.2c0.4-0.3,0.8-0.5,1.1-0.8c0.7-0.5,1.3-1.1,2-1.6
		c1.3-1.1,2.5-2.2,3.8-3.3c2.5-2.2,5-4.5,7.4-6.8c4.9-4.5,9.8-9.1,14.7-13.6c2.5-2.2,5-4.4,7.6-6.4c2.6-2.1,5.2-4.1,8-5.8
		c1.4-0.9,2.8-1.7,4.3-2.3c0.7-0.3,1.5-0.6,2.2-0.8c0.7-0.2,1.4-0.2,1.9,0c1.3,0.6,2.5,1.7,2.8,3c0.3,1.3-0.1,2.8-0.8,4.2
		c-1.5,2.8-3.8,5.2-6.2,7.4c-2.5,2.2-5,4.4-7.5,6.6c-5,4.5-9.9,9-14.7,13.6c-2.4,2.3-4.8,4.6-7.2,7c-2.4,2.3-4.7,4.7-7,7.2
		c-1.1,1.2-2.3,2.5-3.3,3.8c-0.3,0.3-0.5,0.7-0.7,1.1c-0.1,0.1-0.1,0.2-0.1,0.4c0,0.1,0,0.2,0,0.3c0.1,0.1,0.2,0.3,0.3,0.3
		c0.2,0,0.3,0,0.5,0c0.1,0,0.2-0.1,0.3-0.1c0.8-0.3,1.5-0.8,2.3-1.2c2.9-1.8,5.6-3.7,8.3-5.7c5.4-4,10.5-8.2,15.7-12.5l3.8-3.3
		l0.9-0.8c0.3-0.3,0.6-0.5,0.9-0.7c0.6-0.5,1.4-0.8,2.1-1.1c0.7-0.3,1.5-0.5,2.3-0.6c0.8-0.1,1.5-0.1,2.2,0c0.7,0.2,1.4,0.5,2,0.9
		c0.5,0.4,0.9,1.1,1.1,1.7c0.1,0.6-0.1,1.2-0.5,1.9c-0.4,0.6-0.9,1.2-1.4,1.8c-0.6,0.6-1.2,1.2-1.8,1.8l-1.8,1.8
		c-2.3,2.4-4.7,4.7-7.2,6.8c-2.5,2.2-5.2,4.1-7.9,6.1c-2.7,1.9-5.4,3.9-8.1,5.9c-2.7,2-5.3,4.1-8,6.1c-2.6,2.1-5.2,4.2-7.8,6.2
		c-2.6,2.1-5.3,4.1-8,6c-2.7,2-5.4,3.9-8.2,5.7c-2.8,1.8-5.6,3.5-8.6,4.9c-1.5,0.7-3,1.3-4.6,1.7c-0.4,0.1-0.8,0.2-1.2,0.2
		c-0.4,0-0.8,0.1-1.2,0.1c-0.8,0.1-1.6,0.1-2.5,0.2c-3.3,0.1-6.6-0.1-9.9-0.7c-3.3-0.6-6.5-1.4-9.5-2.9l-0.1,0.2
		c3,1.6,6.2,2.6,9.5,3.3c3.3,0.7,6.7,1,10,1c0.8,0,1.7,0,2.5-0.1c0.4,0,0.8-0.1,1.3-0.1c0.4-0.1,0.9-0.1,1.3-0.2
		c1.7-0.4,3.3-1,4.8-1.7c3.1-1.4,6-3.1,8.9-4.8c5.7-3.6,11.1-7.5,16.4-11.6c2.6-2,5.3-4.1,7.9-6.2c2.6-2,5.3-4.1,8-6
		c2.7-2,5.4-3.9,8.1-5.9c2.7-2,5.4-4,8-6.2c2.5-2.2,4.9-4.6,7.2-7l1.7-1.8c0.6-0.6,1.2-1.2,1.7-1.8c0.6-0.6,1.1-1.3,1.6-2.1
		c0.4-0.8,0.8-1.8,0.6-2.9c-0.3-1-0.9-1.8-1.6-2.4c-0.8-0.6-1.6-1-2.6-1.1c-0.9-0.2-1.9-0.2-2.7,0c-0.9,0.2-1.7,0.4-2.5,0.8
		c-0.8,0.3-1.6,0.8-2.3,1.3c-0.4,0.3-0.7,0.5-1,0.8l-0.9,0.8l-3.7,3.3c-5,4.4-10.2,8.7-15.5,12.7c-2.7,2-5.3,4-8.2,5.7
		c-0.7,0.4-1.4,0.8-2.2,1.1c-0.1,0-0.2,0.1-0.3,0.1c0,0,0,0,0,0c0,0,0,0,0-0.1c0.2-0.3,0.4-0.7,0.7-1c1-1.3,2.1-2.5,3.3-3.7
		c4.6-4.8,9.4-9.4,14.4-13.9c4.9-4.5,9.9-8.9,15-13.3c2.5-2.2,5.1-4.3,7.6-6.5c1.3-1.1,2.5-2.3,3.6-3.6c1.1-1.3,2.2-2.6,3-4.2
		c0.4-0.8,0.8-1.6,1-2.5C278.5,210.9,278.5,209.9,278.3,208.9z M207.6,230C207.6,230,207.6,230,207.6,230L207.6,230z"/>
	<path class="st16" d="M177.3,301c-3,1.6-5.9,3.5-8.7,5.5c-2.8,2-5.4,4.1-8,6.3c-2.6,2.2-5.2,4.3-7.7,6.6c-2.5,2.3-5,4.6-7.6,6.8
		c-2.6,2.2-5.3,4.3-7.9,6.4c-2.6,2.2-5,4.6-7.4,7c-2.3,2.5-4.6,5-6.7,7.7l0.1,0.1c2.7-2.1,5.2-4.4,7.7-6.7c2.5-2.3,5-4.6,7.3-7
		c2.4-2.4,4.7-4.9,7.2-7.1c2.5-2.2,5.3-4.3,8-6.3c5.5-4,10.8-8.2,16.2-12.3c5.4-4.1,10.9-7.9,16.9-10.9l-0.1-0.2
		C183.5,298,180.3,299.4,177.3,301z"/>
	<path class="st16" d="M156.5,275.4c-0.2-5.5,0.7-10.9,2.4-16c0.9-2.5,1.9-5,3.2-7.4l1-1.7c0.4-0.6,0.7-1.1,1.1-1.7
		c0.8-1.1,1.5-2.2,2.3-3.4c0.7-1.2,1.5-2.4,2.1-3.6l1-1.8l0.9-1.8c1.3-2.5,2.4-5,3.5-7.5c1-2.5,2.1-5.1,3.1-7.6
		c1-2.5,2.1-5.1,3.2-7.6l3.4-7.4c1.2-2.3,3-4.4,5.2-5.5c1.1-0.6,2.3-0.8,3.5-0.7c1.2,0.1,2.2,0.7,2.7,1.6c0.5,0.9,0.6,2.1,0.3,3.3
		c-0.3,1.2-0.9,2.5-1.3,3.7l-6.3,15.2c-1,2.5-2,5.1-3,7.7c-0.5,1.3-0.9,2.6-1.3,3.9c-0.2,0.7-0.4,1.3-0.5,2
		c-0.1,0.7-0.3,1.4-0.2,2.1l0.2,0c0-0.6,0.2-1.3,0.4-1.9c0.2-0.6,0.4-1.3,0.7-1.9c0.5-1.3,1-2.5,1.6-3.8c1.1-2.5,2.2-5,3.4-7.5
		c2.3-5,4.6-9.9,6.7-15c0.5-1.3,1.1-2.5,1.5-4c0.2-0.7,0.3-1.5,0.3-2.3c0-0.8-0.3-1.6-0.7-2.4c-0.4-0.7-1.1-1.3-1.8-1.7
		c-0.7-0.4-1.5-0.6-2.3-0.7c-1.6-0.1-3.1,0.3-4.4,1c-2.7,1.4-4.5,3.8-5.7,6.4c-0.6,1.3-1,2.6-1.4,3.9c-0.4,1.3-0.9,2.6-1.3,3.9
		c-0.9,2.6-2,5.1-3.2,7.6c-1.2,2.5-2.4,4.9-3.7,7.3c-2.5,4.8-5.1,9.7-8,14.2c-6.6,8.7-10.3,20.4-8.4,31.3L156.5,275.4z"/>
	<path class="st16" d="M134.4,287.2c2.3-1.2,4.6-2.5,6.8-3.8c4.5-2.7,8.8-5.5,13.2-8.4l-0.1-0.2c-5,1.7-9.6,4.1-14.2,6.7
		c-2.3,1.3-4.5,2.7-6.7,4l-3.3,2c-1.1,0.7-2.2,1.4-3.3,2.1c-2.2,1.4-4.5,2.7-6.9,3.7c-2.4,1.1-4.9,1.8-7.3,2.6
		c-1.2,0.4-2.4,0.8-3.7,1.3l-1.8,0.6c-0.6,0.2-1.2,0.5-1.8,0.6c-1.2,0.4-2.5,0.8-3.7,1.2c-1.2,0.4-2.5,0.7-3.7,1.2l0,0.2
		c1.3-0.1,2.6-0.2,3.9-0.3c0.7-0.1,1.3-0.2,1.9-0.3c0.6-0.1,1.3-0.2,1.9-0.4c2.6-0.6,5.1-1.4,7.5-2.4c2.4-1.1,4.7-2.4,7-3.6
		c2.3-1.2,4.7-2.3,7.1-3.3C129.8,289.6,132.1,288.5,134.4,287.2z"/>
</g>
</svg>
