<?xml version="1.0" encoding="utf-8"?>
<!-- Generator: Adobe Illustrator 24.2.0, SVG Export Plug-In . SVG Version: 6.00 Build 0)  -->
<svg version="1.1" id="Layer_1" xmlns="http://www.w3.org/2000/svg" xmlns:xlink="http://www.w3.org/1999/xlink" x="0px" y="0px"
	 viewBox="0 0 543.8 436.7" style="enable-background:new 0 0 543.8 436.7;" xml:space="preserve">
<style type="text/css">
	.st0{fill:#863399;}
	.st1{fill:#B884C1;}
	.st2{fill:#FFC844;}
	.st3{fill:#B086BE;}
	.st4{fill:#7C3894;}
	.st5{fill:none;stroke:#000000;stroke-width:8;stroke-miterlimit:10;}
	.st6{fill:none;stroke:#764393;stroke-width:20;stroke-miterlimit:10;}
	.st7{fill:none;stroke:#764393;stroke-width:20;stroke-linejoin:bevel;stroke-miterlimit:10;}
	.st8{fill:#FFFFFF;}
	.st9{fill:none;stroke:#FFFFFF;stroke-width:18;stroke-miterlimit:10;}
	.st10{fill:none;stroke:#000000;stroke-width:8;stroke-linejoin:bevel;stroke-miterlimit:10;}
</style>
<g>
	<path class="st4" d="M428.3,91l6.3,85.4c7.7-0.7,20.4-2.7,26.5-20c4.5-12.9,4.2-44.4-5-55.7C449,92,436.7,90.3,428.3,91z"/>
	<path class="st4" d="M493.8,17.5L41.4,89.9c-18.5,3-28.5,23.3-19.7,39.8l148.4,275.6c6.1,11.3,19.1,16.8,31.4,13.3l219.7-62.8
		l-3.3,27.5l64.1-54.6l9.9-8.6c-5.5-1.9-11.5-3-18.1-4.7c-12.8-3.3-21.4-5-34.1-8.5c-11.8-3.3-23.5-6.4-35.3-9.9
		c3.5,8.6,4.2,10.3,7.2,18.9c-5.4-7.9-10.6-15.9-15.8-23.9l-1.5-2.4l2.8,0.7c12.9,3,76.9,19.7,84.2,21.7c0,0,38.4-10.6,40.5-67.3
		l3.7-200.2C525.4,27.7,510.4,14.9,493.8,17.5z M142.2,117.1l14.8,172.6l-20.7,1.8l-14.8-172.6L85.5,122l-1.8-20.7l92.1-7.9
		l1.8,20.7L142.2,117.1z M241.9,383.8c-24.7,1.2-45.6-14.9-46.7-35.8l-9.6-195.8c-1-21,18.2-39,42.9-40.2s45.6,14.9,46.7,35.9
		l1.5,30.6l-29.6,1.4l-1.5-30.6c-0.4-8.4-7.7-15.1-15.9-14.7s-14.8,7.8-14.4,16.2l9.6,195.8c0.4,8.4,7.7,15.1,15.9,14.7
		s14.8-7.8,14.4-16.2l-4.2-86.6l-15.2,0.7l-1.1-22.6l30-1.5l14.8-0.7l0.6,11.3l4.8,97.9C285.9,364.6,266.6,382.6,241.9,383.8z
		 M389.2,89.4l-59.7-0.7l-1.3,109.8l36.8,0.4l-0.3,22.6l-36.8-0.4l-1,83.7l59.7,0.7l-0.3,22.6l-89.1-1l3-261.5l89.1,1L389.2,89.4z
		 M467.3,279.3l-24.1-85.7c-1.3,0.2-5.7,0.6-6.8,0.7l5.9,86.3l-24.5,2.2L402,75.6c0,0,47-9.3,67.3,8.1c17.4,14.8,19.4,54,15.4,71.8
		c-3.7,16.3-11.3,25.5-19.6,30.9l30.7,91.5L467.3,279.3z"/>
</g>
</svg>
