<?xml version="1.0" encoding="utf-8"?>
<!-- Generator: Adobe Illustrator 24.1.3, SVG Export Plug-In . SVG Version: 6.00 Build 0)  -->
<svg version="1.1" id="Layer_1" xmlns="http://www.w3.org/2000/svg" xmlns:xlink="http://www.w3.org/1999/xlink" x="0px" y="0px"
	 viewBox="0 0 339 198" style="enable-background:new 0 0 339 198;" xml:space="preserve">
<style type="text/css">
	.st0{fill-rule:evenodd;clip-rule:evenodd;fill:#E99BB2;}
</style>
<g>
	<path class="st0" d="M225.3,146.7c0.2-0.1,0.6-0.1,1-0.1C226.2,146.7,225.7,146.8,225.3,146.7z"/>
	<path class="st0" d="M240.8,162.7c0.3-0.1,1.2-0.3,1.1,0C241.4,162.8,241.2,162.7,240.8,162.7z"/>
	<path class="st0" d="M242.4,163c0.1-0.1,0.8,0,1.1-0.1C243.5,163.1,242.6,163.1,242.4,163z"/>
	<path class="st0" d="M246.8,160.3c0.2-0.1,0.8-0.2,1.1-0.1C247.9,160.3,247.2,160.2,246.8,160.3z"/>
	<path class="st0" d="M249,162.9c0.4-0.2,1-0.2,1.9-0.2C250.6,162.8,249.7,162.8,249,162.9z"/>
	<path class="st0" d="M254.1,149.5c1,0,3-0.4,3.7-0.1C256.6,149.3,255.2,149.6,254.1,149.5z"/>
	<path class="st0" d="M257,155.1c1.2-0.4,3.4-0.1,5-0.4c0.2,0.3-2.3,0.1-2.8,0.4c-0.4,0-0.7,0-1-0.1
		C257.8,155.1,257.4,155.3,257,155.1z"/>
	<path class="st0" d="M272.1,155.4c0-0.2,0.1-0.3,0.5-0.3c0.1,0,0.2,0.1,0.1,0.2L272.1,155.4z"/>
	<path class="st0" d="M278.3,153.1c1-0.3,3.3-0.4,4.5-0.3c0.2,0,0.2-0.1,0.5-0.1c0.8-0.1,2.4,0,0.8,0
		C282.1,153,280.5,152.9,278.3,153.1z"/>
	<path class="st0" d="M279.2,156c0.2-0.1,0.6-0.1,1.1-0.2C280.2,156,279.4,156.1,279.2,156z"/>
	<path class="st0" d="M280.4,148.1c0.2-0.1,1,0,1.5-0.1C281.5,148.1,280.7,148.2,280.4,148.1z"/>
	<path class="st0" d="M280.3,155c0.4-0.2,1.3-0.2,1.8-0.3C282.6,154.9,281,154.9,280.3,155z"/>
	<path class="st0" d="M281.1,155.8c0.3-0.2,1.2-0.2,1.9-0.2C282.6,155.7,281.8,155.7,281.1,155.8z"/>
	<path class="st0" d="M281.9,146.7c0-0.2,0.7-0.2,1.1-0.3C282.9,146.6,282.3,146.6,281.9,146.7z"/>
	<path class="st0" d="M282.6,148.1c0.5-0.2,2.3-0.2,3.2-0.2C284.7,148,283.9,148.1,282.6,148.1z"/>
	<path class="st0" d="M283.4,155.5c0.8-0.3,2-0.1,2.7-0.1C285.4,155.6,284.2,155.4,283.4,155.5z"/>
	<path class="st0" d="M285.4,152.7c0.3-0.1,0.9-0.1,1.3-0.2C286.8,152.7,285.9,152.6,285.4,152.7z"/>
	<path class="st0" d="M286.8,153.2c0.4-0.2,0.7-0.1,1.3-0.1C288,153.3,287.2,153.2,286.8,153.2z"/>
	<path class="st0" d="M288.3,153.9c0.2-0.2,1.4-0.2,1.1,0.1c-0.4,0-0.3-0.1-0.3-0.2C288.7,153.8,288.7,153.9,288.3,153.9z"/>
	<path class="st0" d="M291.5,149.2C290.7,149.5,289.3,149.1,291.5,149.2L291.5,149.2z"/>
	<path class="st0" d="M293.1,146.9c0.7-0.1,1.3-0.1,2.1-0.1C294.8,146.9,293.5,146.9,293.1,146.9z"/>
	<path class="st0" d="M293.6,146.5c-0.2-0.2,1.1-0.2,0.8,0C294.2,146.5,293.9,146.5,293.6,146.5z"/>
	<path class="st0" d="M295,143.3c0.2-0.1,0.7-0.2,1.1-0.2C296,143.3,295.2,143.4,295,143.3z"/>
	<path class="st0" d="M299.5,143.4C300.9,143,301.3,143.3,299.5,143.4L299.5,143.4z"/>
	<path class="st0" d="M263.2,144.8c0.3-0.1,0.6-0.1,0.8-0.3c0.5,0.2,1.4,0,2.1,0C265.3,144.9,264.4,144.6,263.2,144.8z"/>
	<path class="st0" d="M281.5,149.2c0.4,0,0.4,0.1,0.8,0c0,0.1-0.1,0.1-0.2,0.2c0.8,0,1.2-0.1,1.9-0.1c-0.1,0-0.2,0.1-0.2,0.2
		c0.9-0.4,2,0.1,3.9-0.1c-1.8,0.4-5.8,0.3-7.4,0.5c0.2-0.2,1.6-0.1,1.8-0.4C282.1,149.3,281.2,149.5,281.5,149.2z"/>
	<path class="st0" d="M283.4,154.8C283.6,154.8,283.5,154.7,283.4,154.8c0-0.2,0.7-0.1,0.8-0.1C284,154.9,281.9,154.9,283.4,154.8z"
		/>
	<path class="st0" d="M295.4,153.6v0.2c1-0.1,2.7-0.2,3.4,0c-1.2,0.2-3.8-0.1-4.7,0.3c-0.2,0-0.6,0-0.8-0.1
		c-2.8,0.5-5.9,0.2-8.9,0.6c1.3-0.7,4.3,0,5.8-0.7c0.2,0,0,0.1-0.2,0.1C291.3,154,293.7,154.1,295.4,153.6z"/>
	<path class="st0" d="M294,146c0.2-0.1,0.7-0.2,1-0.3C295.1,145.8,294.3,146.2,294,146z"/>
	<path class="st0" d="M60.1,59.5c-0.2-0.7-0.6-1.4-0.8-2.1c-0.5-1.7-0.7-3.3-1.2-5c-0.5-1.5-1.2-2.9-1.7-4.4
		c-0.4-1.2-0.6-1.5-0.8-2.3c-0.8-2.2-1.2-4.2-2.1-5c-0.8-1.5-1.6-3.5-2.4-4.8c-0.1-0.2-0.2-0.7-0.3-0.8c-1.9-3.4-4-5.1-5.8-9.2
		c-0.4-0.3-1-0.4-1.6-1c-0.3-0.3-0.6-1-0.9-1.1c-1-0.7-1.7,0.3-2.7-1.1c-0.2,0-0.2,0.3-0.3,0.4c-1.5,0.3-2.5,1.3-3.7,1.2
		c-0.4,1.3-1.2,1.2-1.6,2.3c-0.2,0.6-0.3,1.8-0.5,2.6c-0.2,0.9-0.3,1.8-0.6,2.6c-0.4,0.1-0.2,1.1-0.6,1.4c0.1,1.3-0.1,2.3,0,3.6
		c-0.1,0.2-0.1,0.5-0.3,0.5c0,2.8-0.2,5.6,0.4,9.3c0.1,0.3,0.2,1,0.3,1.4c0.7,2.6,1.7,6.7,1.5,8.2c0.1,0.5,0.2,0.4,0.3,0.9
		c-0.2,0.4-0.3,1.9,0,3.1c0.1,0.4,0.7,1,1,1.9c0.5,1.3,0.3,2.8,0.7,4c0.2,0.5,0.7,1.1,0.9,1.6c0.6,1.5,1.3,4.6,1.5,5.9
		c0.2,1,0,1.5,0.3,2.2c0.2,0.7,0.7,1.1,1.1,0.9c1.5,1.7,2.2,7,3.4,10c0.3,2.4,1.4,4.3,2,6.5c0.1,0.4,0.1,1,0.2,1.4
		c0.2,0.7,0.7,1.7,1,2.6c0.6,1.6,0.9,3,1.4,4.3c0,2.2,1.1,3.5,1.5,5.3c0.2,0.6,0.2,1.3,0.3,2.1c0.2,0.6,0.5,1.2,0.7,1.8
		c0.2,0.7,0.2,1.4,0.3,2.1c0.1,0.5,0.3,0.8,0.4,1.2c0.1,0.5,0.1,0.9,0.2,1.4c0.2,0.6,0.6,1.1,0.7,1.7c0.7,2.1,1,4.5,2,6.3
		c0.6,3.7,2.1,6.7,2.8,11.1c0.4,1,0.7,1.8,0.9,2.9c0.1,0.2,0.2,0.2,0.3,0.6c0.4,2.3,1.6,4.5,2,6.8c0.1,0.1,0.2,0.1,0.3,0.3
		c0.6,3.2,1.6,7.3,2.7,9.6c0,0.2,0.1,0.5,0.1,0.8l0.1,0.4l0.2,0.6c0.2,0.9,0.5,1.9,0.8,2.8c0.6,1.9,1.2,3.9,1.8,6
		c0.5,1.9,0.9,4,1.5,5.8c0.1,0.5,0.3,0.9,0.4,1.4c3.4-0.2,7.5-0.3,10.6-0.5c1.1-0.1,2.1-0.3,3.2-0.4c0.9-0.1,1.9-0.1,2.9-0.1H86
		c0.3,0,0.6,0,0.9-0.1c4.4-0.5,9.5-0.5,13.4-0.7c1.2,0,2.2-0.3,3.6-0.4c2.2-0.2,4.5,0,6.8-0.2c0.6,0,1.1-0.2,1.6-0.2
		c1.3-0.1,2.6-0.1,4-0.1c3.4-0.2,6.9-0.6,10.2-0.5c4.1-0.6,10.2-0.7,15-1c1.1-0.4,2.1-0.1,3.2-0.2c3.4-0.3,7.8-0.8,11.5-0.7
		c15.2-1.2,31-1.6,46-2.9c1.2,0.2,3,0,4-0.2c0.2,0.1,0.9,0.1,1.4,0.1c1.9-0.5,4.2-0.3,6.6-0.5c0.6-0.4,2-0.2,2.9-0.5
		c0.4,0.2-0.5,0.2,0.1,0.3c1.5-0.8,6.7-0.7,9.1-1c-0.2,0-0.2-0.1,0-0.1c0.6,0.1,0.8-0.2,1.5-0.2c4.2-0.3,7.2-1.1,10.8-1.5
		c0.5,0.1,1.7,0.3,2.1,0c-0.7,0-1.5,0-1.4-0.2c1.1,0,2.5-0.1,3.2-0.4c1.3-0.1,2,0,3.2-0.2c0.3,0-0.3-0.3,0.3-0.3
		c1.9,0.1,2.8-0.2,4.5-0.1c0.5-0.3,2.5-0.5,3.1-0.3c0.5-0.1-0.6-0.2-0.1-0.3c1.5-0.1,2.9-0.3,4.3-0.2c0.3-0.1,0.6-0.3,1.1-0.4
		c0.4,0-0.1,0.3,0.5,0.2c0.5-0.2-0.4-0.3-0.3-0.5c0.8-0.1,0.6-0.3,1-0.5c1.1,0.1,1.8-0.2,2.8-0.4c1-0.1,2.1-0.1,3.1-0.2
		c0.8-0.1,1.2-0.3,2.1-0.4c0.8,0,1.4,0.2,2.2,0.1c0.4-0.1-0.3-0.2,0.3-0.2c3-0.2,5.9-0.4,8.1-0.9c-3.3,0.6-5.8,0.2-8.7,0.8
		c-0.5-0.2-1.3,0.2-1.8-0.1c-0.2,0.2,0.5,0.2-0.2,0.2c-0.2,0-0.3-0.1-0.6,0c0.4-0.3-0.2-0.3-0.5-0.5c-2.5,0.1-4.5,0.4-6.6,0.5
		c-0.4,0.1,0.3,0.2-0.2,0.2c-0.8,0.1-1.5,0.1-2.4,0.2c-0.3-0.2-1-0.3-0.6-0.6c2.9-0.1,6.9-0.7,10.3-0.9c1-0.1,2.1,0.1,2.8-0.3
		c-1.5,0.2-2.8-0.2-4.2-0.2c-1.8,0-3.6,0.5-5.3,0.5c-0.5,0-0.7-0.1-1.1-0.1c-0.3,0-0.9,0.2-1.3,0.2s-0.5-0.1-0.8-0.1
		c-0.7,0.1-1.3,0.3-2.1,0.3c-1.4,0-2.7-0.1-4.2,0c-0.3-0.1-0.2-0.4,0.2-0.4c1.8-0.1,2.1-0.1,3.9-0.2c-0.2,0-0.3-0.1-0.3-0.2
		c0.6,0,0.8,0.1,1.1-0.1c-1.3,0.1-1.2-0.4-0.8-0.6c3.3-0.1,7.4-0.4,10.2-0.4c0.3-0.1,0.5-0.3,1-0.4c3.1-0.3,6.5-0.3,9.8-0.6
		c-3.8-0.2-7.7,0.2-12.1,0.5c-0.2,0,0-0.2-0.5-0.2c-1.9,0.2-4,0.3-5.5,0.4c-0.7-0.2-1.3-0.5-1.9-0.7c-4.6,0.4-8-0.5-12.4-0.3
		c0-0.2-0.3-0.2-0.5-0.4c0.4-0.2,0.6-0.4,1-0.5c0.7,0,1.5-0.2,2.1-0.1c3.7-0.7,9-0.5,13.6-1c0.5-0.3,0.1-0.5-0.3-0.8
		c-2.2-0.1-4.2,0.4-6.6,0.1c-0.9-0.7,0-1.2,1.8-1.3c3-0.2,8.2-0.3,10.2-0.3c8.8-0.8,17.6-1,26.6-1.7c-5,0.1-9.7,0.6-14.2,0.6
		c0,0.1-0.1,0.2-0.5,0.2c-4.4,0.1-9.4,0.3-13.2,0.7c-1.6-0.4-4.8,0.3-6.4-0.1c0.4-0.7,1.7-1.1,3.4-1.3c-1.7,0.1-3.4,0-4.8,0
		c-1.2,0-3.3,0.3-3.9,0.2c-0.1,0,0.1-0.2-0.1-0.2c0.5,0-0.9,0.1-1,0.1c-0.6,0.1-0.5,0.1-1.3,0.2c-1,0-1,0-1.6-0.1
		c-3.4,0-6.7,0.4-10.2,0.4c-0.4,0-1.1,0-1.1,0c-0.3,0-0.1-0.2-0.5-0.2c-0.2,0-0.1,0.1-0.5,0.1c-1.3,0-2.9,0-4.2,0.1
		c-3.3,0.2-7.3,0.2-10,0.3c-0.6,0,0.2-0.3-0.6-0.2c-4.7,0-9.6,0.1-14.7,0.3c-0.4,0-0.1-0.3-0.6-0.2c-0.7,0-0.5,0.3-1.1,0.3
		c-0.4-0.1-0.8-0.1-1-0.3c-5.8,0-11.7,0.5-17.6,0.9c-5.5,0.3-11.1,0.6-16.3,0.8c-4.1,0.2-8.1,0.6-11.8,0.6
		c-4.9,0.4-9.2,0.6-13.9,0.8c-3.3,0.2-7,0.2-9.8,0.4c-0.5,0-1.1,0.2-1.6,0.2c-0.9,0-1.7-0.1-2.6-0.1c-2.3,0.1-4.7,0.4-6.9,0.5
		c-2.6,0.1-5.1,0.2-7.6,0.2c-1.4,0-2.8,0.3-4.2,0.4c-0.9,0-1.9-0.1-2.9,0c-2.7,0.1-5.5,0.5-8.1,0.6c-3.4,0.1-7,0-10.5,0.4
		c-1,0-2,0-3,0c-0.8,0-1.6,0-2.4,0.1c-0.5,0-1.1,0.1-1.6,0.1c-0.2-0.1-0.3-0.2-0.6-0.2c-0.1-0.5-0.4-0.9-0.5-1.6
		c0-0.1,0.1-0.2,0.1-0.3c0-0.2,0-0.3,0-0.5l-0.2-0.9l-0.3-1c-0.3-1.3-0.7-2.5-1.1-3.8c-0.8-2.5-1.5-4.8-1.9-6.9
		c-0.7-1.4-0.7-2.8-1-4.2c-0.3-1.5-0.9-2.9-1.3-4.3c-0.1-0.5-0.1-0.9-0.2-1.4c-0.4-1.5-0.9-2.9-1.4-4.5c-0.7-2.4-0.9-5.1-2-7.8
		c-0.4-2.2-1-5.5-1.9-7.8c-0.7-4.3-2.3-8.3-3.3-12.6c-0.3-1.5-0.4-2.9-1-4.2c-0.1-1.6-0.8-3.3-1.2-5.2c-0.5-1.8-0.8-3.8-1.2-5.7
		c-0.6-2.7-1.8-6-1.7-8.2c1.1-1.3-1.4-2.5-1.7-4.8c0-1.2,0.4-1.2,0.7-1.8c-0.1-1.1-0.5-2-0.8-3C60.1,62.1,60.5,61.1,60.1,59.5z
		 M254,158.1c0,0.1,0,0.1,0.2,0.1C253.8,158.5,253,158.1,254,158.1z M254.3,157.9c1.3-0.1,3.2-0.4,4.2-0.3c0.3,0-0.2-0.3,0.2-0.4
		c0.6,0.1,1.3,0.2,2.2,0.2c0.1,0.5-1.9,0.3-2,0.7c-0.8,0-1.1,0-1.5,0.2c-1.6-0.1-1.9,0.2-3.1,0.1
		C254.8,158.2,254.2,158.3,254.3,157.9z"/>
</g>
</svg>
