<?xml version="1.0" encoding="utf-8"?>
<!-- Generator: Adobe Illustrator 24.1.3, SVG Export Plug-In . SVG Version: 6.00 Build 0)  -->
<svg version="1.1" id="Layer_1" xmlns="http://www.w3.org/2000/svg" xmlns:xlink="http://www.w3.org/1999/xlink" x="0px" y="0px"
	 viewBox="0 0 334.2 250" style="enable-background:new 0 0 334.2 250;" xml:space="preserve">
<style type="text/css">
	.st0{fill-rule:evenodd;clip-rule:evenodd;fill:#E99BB2;}
</style>
<g>
	<path class="st0" d="M107.6,52.8c-0.3,0.1-0.7,0.1-1.3,0.2C106.4,52.8,107.2,52.7,107.6,52.8z"/>
	<path class="st0" d="M87.5,36.7c-0.4,0.1-1.6,0.3-1.5,0C86.7,36.7,87,36.7,87.5,36.7z"/>
	<path class="st0" d="M85.4,36.4c-0.1,0.1-1,0-1.5,0.1C83.9,36.3,85.1,36.3,85.4,36.4z"/>
	<path class="st0" d="M79.4,39.1c-0.3,0.1-1.1,0.2-1.5,0.1C78,39.1,79,39.2,79.4,39.1z"/>
	<path class="st0" d="M76.6,36.5c-0.5,0.2-1.4,0.2-2.6,0.2C74.4,36.6,75.7,36.6,76.6,36.5z"/>
	<path class="st0" d="M69.5,49.8c-1.3,0-4,0.4-4.9,0.1C66.2,50.1,68,49.8,69.5,49.8z"/>
	<path class="st0" d="M65.8,44.2c-1.6,0.4-4.6,0.1-6.6,0.4c-0.3-0.3,3.1-0.1,3.7-0.4c0.5,0,0.9,0,1.3,0.1
		C64.7,44.3,65.2,44.1,65.8,44.2z"/>
	<path class="st0" d="M45.8,44c0,0.2-0.1,0.3-0.7,0.2c-0.2,0-0.2-0.1-0.2-0.2H45.8z"/>
	<path class="st0" d="M37.5,46.2c-1.3,0.3-4.3,0.4-6,0.2c-0.2,0-0.2,0.1-0.6,0.1c-1,0.1-3.2,0-1.1,0C32.5,46.3,34.6,46.4,37.5,46.2z
		"/>
	<path class="st0" d="M36.4,43.2c-0.3,0.1-0.8,0.1-1.5,0.2C35.1,43.2,36.2,43.2,36.4,43.2z"/>
	<path class="st0" d="M34.6,51.2c-0.2,0.1-1.3,0-1.9,0.1C33.1,51.2,34.1,51,34.6,51.2z"/>
	<path class="st0" d="M34.9,44.3c-0.5,0.2-1.7,0.2-2.4,0.3C31.9,44.4,34.1,44.4,34.9,44.3z"/>
	<path class="st0" d="M33.8,43.5c-0.4,0.2-1.7,0.2-2.6,0.2C31.8,43.6,33,43.6,33.8,43.5z"/>
	<path class="st0" d="M32.6,52.6c-0.1,0.2-0.9,0.2-1.5,0.3C31.2,52.7,32.1,52.7,32.6,52.6z"/>
	<path class="st0" d="M31.6,51.2c-0.7,0.2-3.1,0.2-4.3,0.2C28.8,51.2,30,51.2,31.6,51.2z"/>
	<path class="st0" d="M30.8,43.7c-1.1,0.3-2.7,0.1-3.6,0.1C28.2,43.7,29.7,43.9,30.8,43.7z"/>
	<path class="st0" d="M28.1,46.6c-0.4,0.1-1.1,0.2-1.7,0.2C26.2,46.6,27.4,46.7,28.1,46.6z"/>
	<path class="st0" d="M26.2,46c-0.5,0.2-1,0.1-1.7,0.1C24.7,46,25.7,46.1,26.2,46z"/>
	<path class="st0" d="M24.3,45.4c-0.2,0.2-1.8,0.2-1.5-0.1c0.5,0,0.4,0.1,0.4,0.2C23.8,45.5,23.7,45.3,24.3,45.4z"/>
	<path class="st0" d="M20,50.1C21,49.8,22.8,50.1,20,50.1L20,50.1z"/>
	<path class="st0" d="M17.7,52.4c-0.9,0.2-1.8,0.1-2.8,0.1C15.5,52.4,17.2,52.3,17.7,52.4z"/>
	<path class="st0" d="M17,52.7c0.3,0.2-1.4,0.2-1.1,0C16.3,52.8,16.6,52.8,17,52.7z"/>
	<path class="st0" d="M15.1,56c-0.3,0.1-1,0.2-1.5,0.2C13.7,56,14.8,55.9,15.1,56z"/>
	<path class="st0" d="M9.1,55.8C7.3,56.2,6.7,55.9,9.1,55.8L9.1,55.8z"/>
	<path class="st0" d="M57.3,54.6c-0.4,0.1-0.9,0.1-1.1,0.3c-0.7-0.2-1.9,0-2.8-0.1C54.5,54.5,55.7,54.8,57.3,54.6z"/>
	<path class="st0" d="M33.2,50.1c-0.5,0-0.5-0.1-1.1,0C32,50,32.3,50,32.3,49.9c-1.1,0-1.7,0.1-2.6,0.1c0.1,0,0.2-0.1,0.2-0.2
		c-1.2,0.4-2.6-0.1-5.1,0.1c2.4-0.4,7.8-0.3,9.9-0.5c-0.3,0.2-2.2,0.1-2.4,0.3C32.3,50,33.6,49.8,33.2,50.1z"/>
	<path class="st0" d="M30.8,44.5C30.6,44.5,30.7,44.6,30.8,44.5c-0.1,0.2-0.9,0.1-1.1,0.1C30,44.4,32.8,44.4,30.8,44.5z"/>
	<path class="st0" d="M14.9,45.6v-0.2c-1.4,0-3.6,0.2-4.5,0c1.6-0.2,5.1,0.1,6.2-0.3c0.3,0.1,0.8,0,1.1,0.1
		c3.8-0.5,7.9-0.2,11.8-0.6c-1.7,0.7-5.8-0.1-7.7,0.7c-0.3,0,0-0.1,0.2-0.1C20.2,45.2,17.1,45.2,14.9,45.6z"/>
	<path class="st0" d="M16.5,53.2c-0.3,0.1-0.9,0.2-1.3,0.3C15,53.5,16.1,53.1,16.5,53.2z"/>
	<path class="st0" d="M278.1,185.5c0,1,0.1,2,0.1,3c-0.1,2.4-0.4,4.5-0.4,6.8c0,2.1,0.3,4.1,0.3,6.3c0,1.6,0.1,2.1,0.1,3.2
		c0.1,3.2-0.1,5.8,0.5,7.2c0.3,2.2,0.5,5,0.8,7c0,0.3,0,1,0,1.1c0.8,5,2.2,8.1,2.7,13.9c0.3,0.5,0.8,0.9,1.2,1.9
		c0.2,0.4,0.3,1.5,0.5,1.8c0.7,1.2,1.7,0.2,2.2,2.4c0.2,0.1,0.2-0.3,0.4-0.4c1.5,0.1,2.8-0.7,3.9-0.1c0.7-1.5,1.5-1.1,2.2-2.3
		c0.4-0.7,0.9-2.1,1.3-3.1c0.5-1.1,0.9-2.2,1.3-3.1c0.5,0,0.6-1.3,1-1.6c0.3-1.6,0.8-2.9,1.1-4.6c0.2-0.2,0.3-0.6,0.5-0.6
		c0.9-3.5,2-7.1,2.5-11.9c0-0.4,0.1-1.4,0.2-1.9c0.1-3.6,0.5-9.2,1.2-11c0.1-0.6-0.1-0.6,0-1.3c0.3-0.4,0.9-2.3,1-4
		c0-0.6-0.3-1.6-0.3-2.8c0-1.9,0.5-3.6,0.5-5.3c0-0.8-0.3-1.6-0.4-2.4c-0.1-2.1,0.2-6.4,0.4-8.1c0.2-1.4,0.5-1.9,0.4-2.9
		c0-0.9-0.3-1.7-0.8-1.6c-0.9-2.8,0.1-9.8-0.2-14c0.5-3.1,0-6.1,0.2-9c0-0.6,0.2-1.3,0.2-1.9c0-1-0.1-2.4-0.1-3.7c0-2.2,0.1-4.2,0-6
		c0.7-2.8,0.1-4.9,0.2-7.3c0-0.9,0.3-1.8,0.3-2.8c0-0.8-0.1-1.7-0.1-2.6s0.3-1.9,0.3-2.8c0-0.7-0.1-1.2,0-1.7c0-0.7,0.2-1.2,0.2-1.9
		c0-0.8-0.2-1.6-0.2-2.4c0-2.9,0.4-6.1,0-8.8c0.6-5,0.1-9.3,0.7-15.2c-0.1-1.5-0.1-2.6,0.1-4.1c0-0.3-0.2-0.3-0.1-0.9
		c0.3-3.1-0.1-6.3,0.2-9.4c-0.1-0.1-0.1-0.2-0.2-0.4c0.5-4.3,0.7-9.8,0.5-13.3c0.4-2.6,0.2-5.7,0.3-9c0-0.8,0.1-1.5,0.2-2.3
		c0-0.4,0-0.8,0.1-1.2c0-0.7,0-1.3,0.1-1.9c0-4.9,0.5-11.4,0.5-16.1c0-1.4-0.1-2.6-0.1-3.9c0-0.2,0-0.4,0-0.7
		c-2.3,0.1-4.6,0-7.1,0.2c-2.6,0.2-5.3,0.3-7.9,0.4c-2.6,0.1-5.3,0.2-7.9,0.2c-3.1,0.1-6,0.1-8.6,0.2c-1.6,0-2.9,0.3-4.7,0.4
		c-3,0.2-6,0-9,0.1c-0.7,0-1.5,0.2-2.1,0.2c-1.8,0.1-3.5,0-5.4,0.1c-4.6,0.2-9.2,0.6-13.5,0.5c-5.5,0.6-13.5,0.7-19.9,0.9
		c-1.4,0.4-2.8,0.1-4.3,0.2c-4.6,0.3-10.4,0.8-15.2,0.7c-20.1,1.2-41.2,1.5-61.1,2.8c-1.6-0.2-4,0-5.4,0.2c-0.3-0.2-1.2-0.1-1.9-0.1
		c-2.5,0.5-5.6,0.2-8.8,0.4c-0.8,0.4-2.7,0.2-3.9,0.5c-0.5-0.2,0.7-0.2-0.2-0.3c-2,0.8-8.9,0.6-12,0.9c0.2,0,0.3,0.1,0,0.1
		c-0.8-0.2-1.1,0.2-1.9,0.2c-5.6,0.2-9.6,1.1-14.4,1.5c-0.6-0.1-2.2-0.3-2.8-0.1c0.9,0,2,0,1.9,0.3c-1.5,0-3.3,0.1-4.3,0.4
		c-1.8,0.1-2.7,0-4.3,0.2c-0.4,0,0.4,0.3-0.5,0.3c-2.5-0.1-3.8,0.2-6,0.1c-0.6,0.3-3.3,0.5-4.1,0.3c-0.7,0.1,0.8,0.2,0.2,0.3
		c-2,0.2-3.9,0.3-5.8,0.2c-0.5,0.1-0.8,0.3-1.5,0.4c-0.5,0,0.1-0.3-0.6-0.2c-0.7,0.2,0.6,0.3,0.4,0.5c-1,0.1-0.8,0.3-1.3,0.5
		c-1.4-0.1-2.4,0.2-3.7,0.4c-1.3,0.1-2.8,0.1-4.1,0.2c-1.1,0.1-1.6,0.3-2.8,0.4c-1,0-1.9-0.2-3-0.1c-0.6,0.1,0.4,0.2-0.4,0.2
		c-3.9,0.2-7.9,0.4-10.7,0.8c4.4-0.6,7.7-0.2,11.6-0.7c0.6,0.2,1.8-0.2,2.3,0.1c0.3-0.2-0.6-0.2,0.2-0.2c0.3,0,0.4,0.1,0.9,0
		c-0.5,0.3,0.3,0.3,0.6,0.5c3.3-0.1,5.9-0.3,8.8-0.4c0.5-0.1-0.4-0.2,0.2-0.2c1.1-0.1,1.9-0.1,3.2-0.2c0.4,0.2,1.3,0.3,0.8,0.6
		c-3.9,0.1-9.1,0.7-13.7,0.9c-1.4,0.1-2.9-0.1-3.6,0.3c2.1-0.2,3.8,0.2,5.5,0.2c2.3,0,4.8-0.5,7.1-0.5c0.6,0,0.9,0.1,1.5,0.1
		c0.5,0,1.2-0.2,1.7-0.2s0.6,0.1,1.1,0.1c1-0.1,1.7-0.3,2.8-0.3c1.8,0,3.6,0.1,5.6,0c0.4,0.1,0.2,0.4-0.2,0.4
		c-2.3,0-2.8,0.1-5.1,0.2c0.3,0,0.4,0.1,0.4,0.2c-0.7,0-1-0.1-1.5,0.1c1.8-0.1,1.6,0.4,1,0.6c-4.4,0-9.8,0.4-13.5,0.3
		c-0.4,0.1-0.6,0.3-1.3,0.4c-4.1,0.3-8.7,0.2-13.1,0.5c5,0.2,10.2-0.2,16.1-0.5c0.2,0,0,0.2,0.6,0.2c2.5-0.2,5.4-0.3,7.3-0.4
		c0.9,0.2,1.7,0.5,2.5,0.7c6.1-0.4,10.6,0.5,16.4,0.4c0,0.2,0.4,0.2,0.6,0.3c-0.5,0.2-0.8,0.4-1.3,0.5c-1,0-1.9,0.2-2.8,0.1
		c-4.9,0.7-11.9,0.5-18,1c-0.7,0.3-0.1,0.5,0.4,0.8c3,0.1,5.6-0.4,8.8-0.1c1.1,0.7,0,1.2-2.4,1.3c-4,0.2-10.9,0.3-13.5,0.3
		c-11.7,0.8-23.4,0.9-35.4,1.6c6.7-0.1,12.9-0.6,18.8-0.5c0-0.1,0.2-0.2,0.6-0.2c5.9-0.1,12.4-0.3,17.6-0.7c2.2,0.4,6.3-0.3,8.5,0.1
		c-0.5,0.7-2.3,1.1-4.6,1.3c2.3-0.1,4.5,0,6.4,0c1.6,0,4.3-0.3,5.1-0.2c0.2,0-0.2,0.2,0.2,0.2c-0.6,0,1.2-0.1,1.3-0.1
		c0.9-0.1,0.7-0.2,1.7-0.2c1.3,0,1.3,0,2.1,0.1c4.5,0,9-0.4,13.5-0.3c0.5,0,1.4,0,1.5,0c0.4,0,0.1,0.2,0.6,0.2
		c0.3,0,0.2-0.1,0.6-0.1c1.8,0,3.8,0,5.6-0.1c4.4-0.2,9.7-0.2,13.3-0.3c0.8,0-0.2,0.3,0.8,0.2c6.2,0,12.8-0.1,19.5-0.2
		c0.5,0,0.1,0.3,0.8,0.2c0.9,0,0.7-0.3,1.5-0.3c0.5,0.1,1,0.1,1.3,0.3c7.6,0,15.5-0.5,23.4-0.8c7.3-0.3,14.7-0.5,21.6-0.8
		c5.5-0.2,10.7-0.6,15.6-0.6c6.6-0.4,12.3-0.5,18.4-0.8c4.4-0.2,9.3-0.2,13.1-0.4c0.6,0,1.4-0.2,2.2-0.2c1.1,0,2.3,0.1,3.4,0.1
		c3.1-0.1,6.2-0.4,9.2-0.5c3.4-0.1,6.7-0.2,10.1-0.2c1.9,0,3.7-0.3,5.6-0.4c1.2,0,2.5,0.1,3.8,0c3.6-0.1,7.3-0.5,10.7-0.5
		c2.3,0,4.6,0,6.9,0h1.8c0.5,0,1.4,0,1.3,0c0.3,0,0.6-0.1,0.9-0.2c0.7,0.1,1.5,0.1,2.3,0.1c0,0.7,0,1.3,0,1.8
		c-0.1,0.3-0.2,0.6-0.2,0.8c0,0.1,0,0.2,0,0.4v0.5c0,2.1,0,4.3-0.2,6.5c0,0.5-0.1,0.8-0.2,1.3c-0.6,6.8-0.2,14.4-0.8,19.9
		c0.2,2.1-0.2,3.8-0.3,5.8c-0.2,2.1,0,4-0.1,6c0,0.7-0.2,1.2-0.2,1.9c-0.1,2,0,4,0,6.2c-0.1,3.3-0.7,6.8-0.5,10.7
		c-0.3,2.9-0.8,7.3-0.6,10.7c-0.7,5.7-0.3,11.5-0.8,17.3c-0.1,2-0.5,3.8-0.3,5.8c-0.4,2.1-0.3,4.5-0.4,7c-0.1,2.5-0.4,5.1-0.6,7.7
		c-0.2,3.7-0.2,8.3-0.9,11.1c-1.4,1.2,0.5,3.7,0.1,6.7c-0.3,1.6-0.7,1.3-1.2,2c-0.3,1.4-0.2,2.7-0.1,4.1
		C278.8,182.2,278.2,183.4,278.1,185.5z M69.9,41.3c0-0.1,0-0.1-0.2-0.1C70.1,40.9,71.2,41.3,69.9,41.3z M69.4,41.5
		c-1.8,0.1-4.3,0.4-5.6,0.2c-0.4,0,0.3,0.3-0.2,0.4c-0.8-0.1-1.7-0.2-3-0.2c-0.1-0.5,2.5-0.3,2.6-0.7c1,0,1.5,0,1.9-0.2
		c2.1,0.1,2.5-0.2,4.1-0.1C68.9,41.2,69.6,41.1,69.4,41.5z"/>
</g>
</svg>
