<?xml version="1.0" encoding="utf-8"?>
<!-- Generator: Adobe Illustrator 24.2.0, SVG Export Plug-In . SVG Version: 6.00 Build 0)  -->
<svg version="1.1" id="Layer_1" xmlns="http://www.w3.org/2000/svg" xmlns:xlink="http://www.w3.org/1999/xlink" x="0px" y="0px"
	 viewBox="0 0 415 500" style="enable-background:new 0 0 415 500;" xml:space="preserve">
<style type="text/css">
	.st0{fill:#FFC844;}
	.st1{fill:#FFFFFF;}
	.st2{fill:#FFDD92;}
</style>
<g>
	<g>
		<path class="st1" d="M395.3,108.8c-3.4-26.4-16.8-49.9-37.9-66.1c-21-16.3-47.2-23.4-73.6-20c-54.5,7-93.1,57-86.1,111.5
			c3,23.1,13.7,44,30.4,59.8L22,420.6c-2.2,2.4-3.3,5.6-3,8.8c0.3,3.2,1.8,6.2,4.4,8.2l47.2,37.9c2.1,1.7,4.7,2.6,7.4,2.6
			c0.6,0,1.2,0,1.8-0.1c3.3-0.5,6.2-2.4,8-5.1l171.4-259.1c11.8,4.8,24.3,7.3,37.2,7.3c4.3,0,8.6-0.3,12.9-0.8
			c26.4-3.4,49.9-16.8,66.1-37.9C391.6,161.3,398.7,135.2,395.3,108.8z M78.7,467c-0.2,0.3-0.5,0.4-0.7,0.4c-0.2,0-0.5,0-0.8-0.2
			L30,429.3c-0.3-0.2-0.3-0.5-0.4-0.7c0-0.2,0-0.5,0.3-0.7l166-182.6l19.5,14.9L78.7,467z M366.8,175.7
			c-14.5,18.8-35.5,30.8-59,33.8c-23.5,3-46.8-3.3-65.6-17.8c-18.8-14.5-30.8-35.5-33.8-59c-6.2-48.6,28.2-93.2,76.8-99.4
			c23.5-3,46.8,3.3,65.6,17.8c18.8,14.5,30.8,35.5,33.8,59C387.6,133.7,381.3,157,366.8,175.7z"/>
		<g>
			<g>
				<g>
					<g>
						<path class="st1" d="M367.4,175.4c-0.5,0.7-0.3,0.4-0.4,0.6C367.8,174.8,367.3,175.4,367.4,175.4z"/>
						<polygon class="st1" points="374.7,163.9 374.6,164.1 375.5,162.3 						"/>
						<path class="st1" d="M380.1,152.4c-0.3,0.5-0.7,1.6-1.2,2.8c-0.2,0.6-0.5,1.2-0.7,1.8c-0.3,0.6-0.6,1.2-0.8,1.7l-0.2,0.3
							l-0.4,1C378.1,157.5,379.4,154.2,380.1,152.4z"/>
						<path class="st1" d="M382.7,146c-0.2,0.4,0.4-1.4-0.5,1.5c0.1-0.1,0.1-0.2,0.1-0.3C382.4,147,382.5,146.6,382.7,146z"/>
						<path class="st1" d="M382.3,147.3C381.9,148.6,382.6,146.4,382.3,147.3L382.3,147.3z"/>
						<path class="st1" d="M384,141.3l-0.4,1.7c0.1-0.3,0.6-1.9,0.5-1.3c0.2-0.9,0.3-1.2,0.3-1.3C384.3,140.4,384.2,140.8,384,141.3
							z"/>
						<path class="st1" d="M384.2,139.6l-0.2,0.9C384.1,140.3,384.2,140.1,384.2,139.6z"/>
						<path class="st1" d="M383.6,142.4c0.1-0.6,0.3-1.3,0.4-1.9c-0.1,0.2-0.2,0.3-0.2,0.9C383.8,141.2,383.8,141.6,383.6,142.4z"/>
						<path class="st1" d="M383.3,143.5c-0.3,1-0.7,2.2-0.3,0.4c-0.4,1.6-0.7,2.3-0.6,2.2C382.5,146,382.9,145.1,383.3,143.5z"/>
						<path class="st1" d="M380.2,151.7l-0.5,1.2l-0.4,1.1C379.5,153.5,380.3,151.6,380.2,151.7z"/>
						<path class="st1" d="M386.2,130.4c-0.1-0.1-0.2,0.6-0.3,0.7c0,0.4,0,0.9-0.1,1.3C386,131.7,386.1,130.4,386.2,130.4z"/>
						<path class="st1" d="M385.9,131.1l0.1-2C385.8,130.8,385.8,131.2,385.9,131.1z"/>
						<path class="st1" d="M384,139.2c-0.1,1.1-0.4,2.1-0.6,3.2c0.1-0.6,0.3-1.3,0.4-1.9l0.3-1.9L384,139.2z"/>
						<path class="st1" d="M387,122.8c0.1,0.4,0.1,0.8,0.1,1.1c0-0.7-0.1-1.3-0.2-2L387,122.8z"/>
						<path class="st1" d="M387.1,117.8c0.2,0.8,0.3-1.2,0.4-0.3c-0.1-1.4-0.2-2.5-0.4-3.6C387.2,115,387.2,116.2,387.1,117.8z"/>
						<path class="st1" d="M386.7,112.2c0.1,0.6,0.2,1.1,0.3,1.7C387,113.3,386.9,112.7,386.7,112.2z"/>
						<path class="st1" d="M386.4,125.7c0.1-0.2,0.2-0.4,0.3-1.5l-0.3,0.8C386.4,125.2,386.4,125.5,386.4,125.7z"/>
						<path class="st1" d="M386.4,125L386.4,125c0.1-0.9,0.1-1.5,0.1-1.7C386.5,123.5,386.5,124,386.4,125z"/>
						<path class="st1" d="M386.4,125.9c0-0.1,0-0.1,0-0.2C386.3,125.8,386.3,125.9,386.4,125.9z"/>
						<path class="st1" d="M385.1,134.2c0.1-1.2,0.4-3.5-0.1-1.3C385,133.8,385.3,132.5,385.1,134.2z"/>
						<path class="st1" d="M386,126.9c0,0.7-0.1,1.4-0.2,2.1c0.1,0,0.2-0.4,0.2,0.2C386,128.4,386.1,127.6,386,126.9z"/>
						<polygon class="st1" points="386,125.9 386,126.9 386.1,126.1 						"/>
						<path class="st1" d="M386.7,115.8c-0.1-0.5-0.1-0.9-0.1-1.4c0-0.5-0.1-1-0.2-1.6c0,0.6,0,1.2,0.1,1.8c0,0.6,0,1.2,0,1.8
							C386.6,116.6,386.7,117.1,386.7,115.8z"/>
						<path class="st1" d="M386.6,120.3c0-0.1,0-0.1,0-0.2C386.6,120.2,386.6,120.3,386.6,120.3z"/>
						<path class="st1" d="M384.9,101.8c0,0.1,0,0.1,0,0.2c0,0,0,0,0.1,0L384.9,101.8z"/>
						<path class="st1" d="M386.4,116.6c0,0.9,0.1,1.4,0.1,2c0-0.7-0.1-1.4-0.1-2.2C386.4,116.3,386.4,116.3,386.4,116.6z"/>
						<path class="st1" d="M386.3,109.1c0,0.5,0,1,0,1.6C386.4,110.2,386.4,109.2,386.3,109.1z"/>
						<path class="st1" d="M386.7,119.8c0,0,0,0.1,0,0.1C386.8,119.6,386.7,119.6,386.7,119.8z"/>
						<path class="st1" d="M386.7,119.8c0-0.5-0.1-0.8-0.1-1.2c0,0.5,0,1.1,0.1,1.5C386.7,120,386.7,119.8,386.7,119.8z"/>
						<path class="st1" d="M382.1,99c0.3,0.1,1.2,2.3,1.3,4.3c0.6,1.9,1.3,0.5,1.5-1.4c-0.2,0-0.2,0-0.9-2c0.1,0.7,0.5,4.6-0.1,2.9
							c-0.7-2.7-0.4-2.2-0.5-3.5c-0.1,1.2-1.4-3.2-1.8-2.5c0.3,0.7,0.5,1.5,0.8,2.2C382.4,99.2,382,98.4,382.1,99z"/>
						<path class="st1" d="M385.6,105.9l0.1,0.8c-0.1-1-0.1-1.7-0.1-3c-0.4-1.4-0.5-1.7-0.7-1.7c0.2,1.4,0.5,2.8,0.7,4.2
							L385.6,105.9z"/>
						<path class="st1" d="M386.2,110.6c-0.3-0.6-0.7-2.6-0.9-1.4c0.3,2.5,0.4,1.7,0.7,3.2C385.6,108.4,386.2,113.5,386.2,110.6
							c0.1,0.8,0.1,1.5,0.2,2.2c0-0.7,0-1.4,0-2.1c0,0,0,0.1,0,0.1l0,0l0,0c0,0.2,0,0.2,0,0c0,0,0-0.1,0-0.1
							C386.2,110.7,386.2,110.6,386.2,110.6c0-1.2,0.1-0.2,0.1,0.2c0,0,0,0,0,0c0,0,0,0,0,0c-0.1-1.3-0.4-2.7-0.6-4
							C385.8,107.6,386,108.7,386.2,110.6z"/>
						<path class="st1" d="M384.9,130.8c0-0.1,0-0.1,0.1-0.1C385,130.4,384.9,130.3,384.9,130.8z"/>
						<path class="st1" d="M385.2,129.1c0,0.3,0,0.5-0.1,1.5c-0.1,0.8-0.1,0-0.1,0c0,0.6-0.1,2,0.2,0.2l0-0.3
							c0.2-1.6,0.7-3.7,0.7-3.4C385.6,127.7,385.4,128.1,385.2,129.1z"/>
						<path class="st1" d="M386,119.8c0-1.1-0.1-2.2-0.2-3.3l-0.1,1.7l0.1-0.1C385.8,120,385.9,119.6,386,119.8z"/>
						<path class="st1" d="M385,101.4l0.4,0.4c-0.3-0.6-0.6-1.2-0.9-1.8C384.7,100.4,384.9,100.9,385,101.4z"/>
						<path class="st1" d="M384,97.1l0.3,0.1c-0.1-0.4-0.3-0.7-0.5-1.1C384,96.4,384,96.7,384,97.1z"/>
						<path class="st1" d="M209,110.6l-0.1,1C209,111.1,209,110.8,209,110.6z"/>
						<path class="st1" d="M210.2,103.7l0-0.2C210.2,103.9,210.2,104,210.2,103.7z"/>
						<path class="st1" d="M306,30.6c-1.4-0.5-3-1.2-2.9-0.7l0.4,0.5C304.5,30.3,305.3,30.4,306,30.6z"/>
						<path class="st1" d="M238.3,54.4c0.1-0.1,0.3-0.1,0.4-0.2c0.2-0.3,0.4-0.6,0.6-0.8C239,53.7,238.7,54.1,238.3,54.4z"/>
						<path class="st1" d="M238.4,56l-1.5,1.1C237.2,56.9,237.7,56.5,238.4,56z"/>
						<path class="st1" d="M213,148.4l0.5,1C213,147.7,213.1,148.5,213,148.4z"/>
						<path class="st1" d="M362,57.9c-0.8-1-1.4-1.8-2-2.4C360.9,56.7,361.5,57.8,362,57.9z"/>
						<path class="st1" d="M208,107.7c-0.1,0.6-0.1,0.9,0,0.8C208.1,107.9,208.1,107.5,208,107.7z"/>
						<path class="st1" d="M357.3,52.9c0.1,0.2,0.3,0.3,0.4,0.5c0.7,0.6,1.5,1.1,2.3,2C359.4,54.5,358.4,53.6,357.3,52.9z"/>
						<path class="st1" d="M324,204.7c0.1,0,0.2,0,0.3-0.1C324.4,204.7,324.2,204.7,324,204.7z"/>
						<path class="st1" d="M359.1,184.8c-0.3,0.3-0.7,0.8-1.2,1.2C358.1,185.8,358.4,185.4,359.1,184.8z"/>
						<path class="st1" d="M378.1,80.2C378.5,81.1,378.2,80.4,378.1,80.2L378.1,80.2z"/>
						<path class="st1" d="M378.6,85.1c-0.1-0.2-0.2-0.3-0.3-0.3C378.4,84.8,378.5,84.9,378.6,85.1z"/>
						<path class="st1" d="M348.3,49.4C348.3,49.4,348.3,49.4,348.3,49.4C348.4,49.6,348.4,49.5,348.3,49.4z"/>
						<path class="st1" d="M378.5,81.6c-0.1-0.3-0.2-0.7-0.4-1.1C378.2,80.7,378.3,81,378.5,81.6z"/>
						<path class="st1" d="M378.6,81.4c0.1,0.3,0.2,0.5,0.3,0.8C379.1,82.2,379.1,82.1,378.6,81.4z"/>
						<path class="st1" d="M377.5,79.1c0.3,0.5,0.5,0.9,0.6,1.4c-0.1-0.2-0.1-0.3,0-0.2C378,80,377.8,79.6,377.5,79.1z"/>
						<path class="st1" d="M252.5,197.2c0,0,0.1,0.1,0.1,0.1C253.5,197.7,253.1,197.5,252.5,197.2z"/>
						<path class="st1" d="M282.2,35.7C282.3,35.7,282.3,35.7,282.2,35.7C282.3,35.6,282.2,35.6,282.2,35.7L282.2,35.7z"/>
						<path class="st1" d="M279.1,36.5c1.2-0.8,2-0.9,3.1-0.9l-1.3-1L279.1,36.5z"/>
						<path class="st1" d="M208.6,127.4l0-2.3c0.3,2.8,0.5,4.7,0.4,2.6c-0.2-0.1-0.4-2.4-0.5-4.6c0-2.2,0-4.4-0.2-4.6l0.2-1.5
							c0,0.4,0,0.5,0,0.9c0.4-2.9-0.2-2.2,0.2-6c0.2-1.3,0.3-2.2,0.3-1.3l0.3-2.9c0.1-0.8,0.2-0.6,0,0.2c0.2-1.5,0.5-3,0.8-4.4l0,0
							c0.1-0.6,0.3-2.1,0.4-2.8c0.3-1.1-0.1,0.6,0,0.3l0.5-2.4c0.4-0.9,0,1.1-0.5,2.7c0.5-1.1,0.6-1.6,0.8-2.4
							c0.1-0.8,0.4-2,1.3-4.3l-0.7,2.2c0.7-1.4,1.1-3.1,2.3-5.5c-0.1,0.3-0.7,1.5-1.2,2.3c-0.4,0.8-0.7,1.3-0.3,0
							c0.3-0.7,0.7-1.6,1.1-3c0.1,0,0.2-0.3,0.5-0.8c0.2-0.5,0.5-1.3,0.9-2.1l0.2,0.2c0.7-1.8,0.5-1.7,0.9-2.8
							c1-1.9,1.3-2.2,1.7-2.6c1.7-3-1.4,1.9,0.5-1.7c1.4-2.5,2.4-4.2,4.1-7.1c1.2-1.6,0,0.4,0.4-0.1l0.8-1.6
							c0.2-0.4,0.2-0.2,0.2-0.1c0.8-1.3-0.2-0.3,1.1-2.2c0-0.4,0.9-1.3,1.9-2.3c1.1-1,2.3-2.3,3.1-3.6c0.6-0.5-0.1,0.4,0.2,0.3
							c2.4-3.1,2.1-2.6,4.1-5.3c0.7-0.6,1.5-1.1,2.2-1.7c-1.7,1.1-0.1-0.9,1.4-2.7c-0.7,0.3-1.2,0.7-1.6,0.9
							c0.8-0.9,1.7-1.8,2.6-2.6c0.4-0.2,0.2,0.1-0.1,0.7c0.2-0.2,0.3-0.4,0.4-0.5c1.1-0.7,0.8-0.1,0.2,0.7c-0.4,0.2-0.8,0.4-1.2,0.6
							c-0.5,0.8-1,1.6-0.6,1.6c0.1-0.2,0.4-0.5,0.8-0.9c-0.1,0.2-0.2,0.3-0.1,0.3c0.1,0,0.4-0.4,0.7-0.8l1-0.1l0-0.3
							c1.3-0.9,2.6-1.8,4-2.6c2.4-2.4,4.4-4.8,9.1-7.7c-1,1,0.1,0.7,0.3,1.2c-0.8,0.1-1.7,0.7-2.7,1.4c-1,0.7-2.1,1.5-3.3,2.3
							c1.2-0.8,1.1-0.4,0.8-0.1c1.3-1,2.7-2,4-3c0.1,0.4,1.1-0.2,2.3-0.7c-0.6-0.1,0.1-0.7,1.2-1.4c1.2-0.6,2.7-1.3,3.5-1.9
							c0.2,0.2-0.1,0.7-2.3,1.7c1.4-0.3,2-0.9,2.7-1.5c0.7-0.6,1.4-1.2,2.7-1.4c-0.6,0.2-0.9,0.3-1,0.6c0.6-0.4,1.7-0.9,2.6-1.2
							c0.9-0.3,1.6-0.4,1.2-0.1l-0.6,0.2c1-0.3,2.1-0.8,3.4-1.2c1.3-0.4,2.6-0.9,3.9-1.3c2.5-0.8,4.6-1.5,4.8-1.9
							c0.1,0.1-0.3,1-0.5,1.2l3.2-2c1.1-0.7,2.2-1.3,3.4-1.9c-0.5,0.8,2.1,2-1.1,2.9c1,0,2.1-0.1,4.1-0.6c-0.7,0-1.7-0.8-0.9-1
							c2.5,0.5,1.7,0.2,4.8,0.6c-1-0.1,0-1.3,1.6-1.3c-0.2,0.2,0.2,1.1-0.4,1.2c1.3-0.4,2.5-0.9,3.8-1.2c-1,0.2-0.1,0.9,0.7,1.2
							c-0.2-0.1,0.6-0.1,1.6-0.1c1,0,2.2,0.1,2.7,0.1l-1.6-0.3c4.3,0.4,4.4-1.4,8.7-0.9c-0.6,0.2-1.4,1.3,0.7,1.7
							c0.5-0.2,1.7-0.8,3.3-1.2c1.6-0.4,3.5-0.8,5.5-0.5l0.7,0.5c1,0.1,2,0.2,3,0.4c-1,0.2-2.9,0.5-4.9,0.7c-2,0.3-4,0.5-5.5,0.7
							c1.5,0.5,0.4,0.5,2.7,0.9c0.8,0.5-1.4,0.2-2.1,0.1c1.8,0.5,3.6,0.8,5.4,1.4c0-0.4,1-0.3,2.1-0.2c1.1,0.1,2.1,0.3,2.1,0
							c-1-0.2-2-0.3-3-0.5c-1-0.1-2-0.3-3-0.4c0-0.4,0.9-0.7,2.4-0.7c0.7,0,1.6,0,2.5,0.1c0.9,0.1,1.9,0.4,2.8,0.7
							c0.9,0.6-1.1,1-1.1,1.2c0.3,0,1.2,0.1,2.1,0.3c0.9,0.3,1.8,0.5,1.9,0.7l-1.7-0.2c2,1,3.7,0.3,6,2c0.4,0.2,1,0.7,1.4,1.1
							c0.5,0.4,0.9,0.7,1,0.6c-1-1.4-0.3-3.8,0.9-4c0.3,0.2,4.2,2.8,4.9,3.7c1.1,1.3-2.7,0.3-1.8,1.4c0.1-0.1,1,0,1.3,0.1
							c0.8,0.6-0.6,0.4,1.3,1.3c0.7-0.5,3.7,2.2,1.2,0c1.9,0.9,1.8,1.2,3.9,2.5c-0.4-0.8,2.7-0.2,4.6,0.9c-0.2,0.1,0,0.6,0.2,0.8
							c0.9,0.6,1.6,1.2,2.3,1.8c0.7,0.6,1.3,1.1,1.9,1.7c0.6,0.5,1.2,1.1,1.8,1.6c0.6,0.6,1.3,1.2,2,1.9c0.1,0.2,0.4,0.6,0.7,1
							c0.2,0.4,0.3,0.7-0.1,0.5c0.5,0.3,1,0.5,1.9,1.3c1.2,2.1-2-1.8-1.2,0c0.4-0.2,2.7,1.8,4,2.9c0-0.4-0.6-1.2-1.5-2
							c-0.9-0.8-2-1.5-2.7-2.1c0.6-0.6,3.5,0.8,6.6,3.7c2.4,2.4,0.5,1.5,1,1.8c2,2.5,3,3.3,4,4.1c0.5,0.4,1,0.8,1.4,1.4
							c0.5,0.6,1,1.4,1.6,2.6c0.7,2-0.8,0.7-0.9,1.3c-0.8-1.1-1.4-2-1.8-2.8c-0.4-0.8-0.9-1.6-1.4-2.3l1.2,2c-0.7-0.6-1.9-2-2.3-2.8
							c0.3,0.9,1.9,2.9,3.6,5.5c1.7,2.5,3.4,5.5,4.3,7.7c0.6,0.7,1.4,1.9,1.3,1.2c-0.2-0.5-0.5-0.9-0.8-1.3
							c-0.3-1.4,1.8,2.3,1.1,0.5c1.1,1.7,2.6,3.6,3.4,6.5l-0.3,0.7c0.1-0.1-0.4-1.9-0.9-2.6c0.7,1,1,4.4,2.1,5.4l-0.3-2.1
							c0.9,1.9,2.4,4.1,2.9,6.7c0.2-1.3-0.2-0.6-0.2-2.5c-0.2,1.8-2.1-6.4-2-3.6c0-1-0.2-1.8-0.5-2.7c-0.3-0.9-0.6-1.8-0.8-3.1
							c-0.1,0.1,0,1-0.8-1.1c-0.1-0.1-0.3-0.3-0.4-0.4c0-0.1,0-0.1,0-0.1c0,0,0,0.1,0,0.1c-0.1-0.1-0.1-0.1,0,0
							c0.1,0.5,0.2,0.9,0.2,1.1c-0.4-0.4-1-1.4-1.6-2.4c-0.6-1-1.2-2-1.6-2.5c-0.5-1.2,0.4,0.4,0.3-0.4c-0.4-0.5-0.7-0.9-1.1-1.4
							c0.3-0.4-1.1-3.4,0.6-0.8l-1.4-2.4c-0.6-1.6-1.8-3.5-2.7-4.5c-0.7-1.1-2.4-2.4-1.4-1.7c-0.9-1.1-1.9-2.2-2.9-3.3l0.1-0.1
							c-2.7-3.4-6.4-6.1-9.4-10c-0.6-0.4-1.2-0.9-1.8-1.4c-0.7-0.5-1.4-1.1-2.3-2l-0.1-0.6c-0.8-0.6-1.8-1.5-2.8-2.3
							c-1-0.8-1.9-1.5-2.3-1.5c-0.3-0.5-0.9-1.1-1.6-1.7c-0.4-0.3-0.8-0.6-1.3-0.9c-0.5-0.3-1-0.6-1.5-0.9c-2.1-1.2-4.5-2.3-5.9-3.1
							l-0.4,0.4c-1-0.5-2-0.9-3.1-1.4c-1.1-0.5-2.3-0.8-3.6-1.3l0,0.5c-0.6-0.1-1.2-0.4-1.9-0.7c-0.7-0.3-1.4-0.6-2.2-0.9
							c-0.8-0.3-1.6-0.7-2.5-1c-0.9-0.3-1.8-0.6-2.7-0.9c0.3-0.1,1.2,0.2,1.8,0.5c-1-0.6-2.1-1-3.3-1.3c-1.2-0.3-2.3-0.4-3.5-0.6
							c-1.2-0.2-2.3-0.2-3.4-0.4c-1.1-0.2-2.2-0.4-3.2-0.7c-1,0-1.8-0.1-2.5-0.3c0.1,0,0.2,0,0.3,0c-0.1,0-0.3,0-0.4-0.1
							c-0.4-0.1-0.9-0.2-1.4-0.4c0.4,0.1,0.8,0.3,1.2,0.3c-0.8-0.1-2-0.1-3.2-0.1l-0.5-0.5c-0.1,0-0.2,0-0.3,0
							c-1.1-0.3-0.9,0.2-0.4,0.6c-0.6,0.1-1.1,0.1-1.6,0.2c-0.9-0.8-3.1,0.1-4.3-0.7c-0.4,0.2-1.9,0.3-3.3,0.5
							c-1.4,0.2-2.9,0.5-3.1,0.9c0-0.1-0.4-0.1,0.2-0.2c-1.3,0-2.6,0-3.7,0.4l-0.6-0.5c-0.9,0.3-1.8,0.7-2.7,1.1
							c-1.7-0.1-2.5-0.2-0.9-0.9c-2,0.7-2.8,0.9-3.5,1.1c-0.7,0.2-1.4,0.4-3,1.1l0.1-0.4c-1.2,0.3-3,1.3-3.8,1.2
							c-0.7,0-1.9,0.3-3.4,0.7c-0.7,0.2-1.6,0.4-2.4,0.8c-0.9,0.3-1.8,0.7-2.7,1c-3.7,1.5-7.9,3.4-11.2,5c1.7,0.1-3.1,1.3-3,2.1
							c-0.5,0-1.4,0.5-0.5-0.3c-0.8,0.5-1.4,1-2.1,1.4c-0.6,0.4-1.2,0.8-1.7,1.1c-1,0.7-2,1.3-2.8,2.3c-0.5,0.1,0.4-0.7,0.1-0.6
							c-0.2,0.2-0.8,0.9-1.2,1c-0.4,0.1,0.3-0.5,0.7-0.9c-3,2.4-2.8,3.1-2.7,3.7c-1.6,1-2.3,1.6-3.1,2.9c-0.6,0.3-1.5,0.9,0.1-0.7
							c-0.5,0.4-2,1.7-3.3,3.1c-1.3,1.3-2.4,2.6-2.3,2.8c-0.4,0.2-1.2,1.4-1.4,1.6c-2,2.2-2.1,2.4-3.9,4.7l0.5-0.6
							c-0.4,1.1-1.4,2-2.7,3.9l0-0.1c-1.6,2.1-1.9,2.6-2.2,3.1c-0.3,0.5-0.6,0.9-2,3.1l0.3-0.1c0.1,0.3-0.6,1.3-1.4,2.5
							c-0.8,1.3-1.8,2.8-2.3,4.2l0.6-0.9c-0.6,1.6-2.5,3.9-3.1,5.5c-0.2,0.3,0.2-0.6,0.3-1c-1.8,4,0,0.6-1.1,3.7
							c-0.3,0.5,0-0.8-0.8,1.2c-0.5,1-1.7,6.1-2.5,9c0.2-0.6,0.5-1.2,0.2,0.3c-0.1,0.6-0.3,1.2-0.5,1.9c-0.2,0.7-0.3,1.5-0.5,2.2
							c-0.4,1.5-0.6,3-0.6,4c-0.1,0.3-0.1,0.4-0.1,0.4c-0.1,0.4-0.1,1-0.2,1.6c0,0.6-0.1,1.3-0.2,2c-0.1,1.3-0.2,2.6-0.1,3.1
							c-0.3,0.8-0.4,3.5-0.3,6.1c0,2.5,0.3,4.8,0,4.8c0.1,1.8,0.3,3.6,0.5,5.4l-0.1-0.1c0.1,1.7,0.4,2.9,0.5,3.8
							c0.2,0.9,0.3,1.5,0.5,2.1c0.1,0.8,0,0.2-0.1,0.2c0.9,5,1,5.5,2.4,9.5l-0.1,0.5c0.4,1.1,1.8,7.1,4.1,11.6c0,0-0.1-0.1-0.3-0.5
							c2.5,5,5.5,12.4,7.6,13.5c0.7,1,1.5,1.9,2.4,2.9c-2.8-3.9,0.8,0.3-0.2-1.4c1.2,1.4,2.6,4.1,1.2,2.3l-0.2-0.3
							c-0.5-0.2,0.3,1.1,1.3,2.3c1,1.2,2,2.6,1.8,2.6c6.2,7.1,13,13.5,20.6,18.3l-0.5-1.1l2.6,1.6c0.6,0.5,0.7,1-1.2-0.2
							c0.4,0.5,1.2,0.9,2,1.2c0.8,0.3,1.4,0.4,1.5,0.3c3.7,2.3-1.9-0.1-0.7,0.5l1.6,0.8l-0.3-0.3c1.4,0.4,1.6,0.3,4,1.4
							c1.5,0.8,0.6,0.7,1.2,1c0,0,0.2,0.2,0.9,0.4l3.6,1.5l-1.3-1.1c1.7,0.4,3.4,1.3,1.9,0.2c0.5,0.4,1.7,1,3.1,1.5
							c1.4,0.6,3.1,1.1,4.8,1.6c1.7,0.4,3.4,0.8,4.7,1.1c1.4,0.3,2.4,0.5,2.8,0.6c1.2,0.1,2.4,0.1,3.7,0.3c0.6,0.1,1.3,0.1,1.9,0.2
							c0.7,0.1,1.4,0.1,2.1,0.2c-0.7-0.2-1.1-0.7,1.4-0.4c-1,1,4.6,0.8,6.7,1.4c-0.9-0.2,0.9-0.3,2.6-0.4c1.7-0.1,3.2-0.3,1.8-0.6
							c2.1-0.1,0.1,0.3,1.8,0.5c1.3-0.2,2.6-0.3,4-0.5c0.7-0.1,1.4-0.2,2.1-0.2c0.7-0.1,1.4-0.2,2.2-0.3c0.7-0.1,1.5-0.2,2.2-0.3
							c0.7-0.2,1.5-0.3,2.2-0.5c0.7-0.2,1.5-0.3,2.3-0.5c0.7-0.2,1.5-0.4,2.2-0.6c0.1-0.1-1,0,0.3-0.4c1.1-0.1,2.2-0.3,3.3-0.6
							c1.2-0.5,1-0.8,3.1-1.3c-0.3,0.1-0.8,0.1,0-0.2c5.8-1.9,11.4-4.8,16.7-8.1c5.3-3.3,10.3-7.1,14.8-11.3
							c-1.3,1.1-0.4,0.3,0.5-0.5c-0.6,0.6,0-0.1-0.2,0c1.3-1.2,2.5-2.4,3.7-3.6c0.3-0.4,1.2-1.4,2.1-2.4c0.9-1,1.7-2,1.8-2.2l-1,1.3
							c0.7-0.9,0.2-0.3-0.5,0.4c-0.7,0.7-1.5,1.6-1.5,1.4c-0.4,0.5-0.9,1-1.4,1.6c-0.6,0.5-1.2,1.1-1.8,1.8
							c-1.3,1.3-2.8,2.5-4.2,3.9c-0.7,0.6,0.5-0.5,0.2-0.2c-0.7,0.7-1.7,1.5-3.4,2.9l0.2-0.2c-2.5,1.9-4.3,3.3-6.4,4.5
							c-1,0.7-2,1.3-3.2,1.9c-0.6,0.3-1.2,0.7-1.9,1.1c-0.7,0.3-1.4,0.7-2.2,1.1l0.5-0.1c-1.4,0.7-1.7,0.8-2.3,1.1
							c-1.5,1,3.8-1.9,2.5-1c-0.5,0.2-1.3,0.6-2.3,1.1c-1,0.5-2.2,1-3.4,1.5c-2.4,1-4.8,1.9-5.5,1.9c-2.2,0.7,0.7,0-1.5,0.7
							l-0.6,0.1l-0.5,0.3c-1.5,0.4-2.3,0.5-2.4,0.4c0.4-0.1,1-0.3,1.4-0.4c-1,0.2-2.3,0.6-3.5,0.9c-1.2,0.3-2.2,0.6-2.6,0.6l2.2-0.4
							c-3.1,0.8-6.5,1.5-10,1.9c-0.9,0.1-1.7,0.2-2.6,0.3c-0.9,0.1-1.7,0.2-2.6,0.2c-1.7,0.2-3.3,0.3-4.8,0.5l0.5,0.1
							c-2.3,0.3-3.3,0.1-4.3,0.1c-0.5,0-1-0.1-1.7-0.1c-0.7-0.1-1.6-0.1-2.9-0.2l0.2,0c-0.5,0.1-1.1,0.1-1.8,0.1
							c-0.6,0-1.3-0.1-2-0.2c1.3-0.1-2.4-0.7-0.7-0.7c-1.3,0-2.1-0.1-2.6-0.1c-0.5,0-0.8,0-1,0c-0.4,0-0.6,0.2-2.4,0.3l-0.7-0.5
							c-1.2,0-1.3,0.2-3.8-0.3c2.1,0.2-1.5-0.9,0.9-0.7c-2.5-1-4.5-1.3-6.1-1.7c-0.8-0.2-1.5-0.3-2.2-0.5c-0.6-0.2-1.2-0.6-1.7-1
							c-1.3,0-0.3,0.5,1,1c1.2,0.5,2.6,0.8,1.9,0.7c1,0.6-2.2,0.1-3.7-0.6c-1.6-0.6-2.4-2.1-6.3-3.8c0.4,0.2,0.4,0.1,0.8,0.3
							c-1.3-0.9-3-1-4.6-2.3c-1.2,0-2.3-1.2-2.9-0.7l3.6,1.7c-2.1-0.9-4.4-1.1-7.4-3.4c0.3,0,1.4,0.4,2.1,0.7
							c-0.8-0.7-1.9-0.9-2.7-1.7c0.3-0.2,1.4,0.4,2.6,1.1c1.3,0.8,2.8,1.6,4,1.9c-0.4-0.4-1.5-0.8-2.3-1.1c-0.8-0.4-1.2-0.6-0.5-0.7
							c-1,0-1.9-0.6-2.9-1.2c-1-0.7-2.1-1.5-3.5-2l0.4-0.2c-0.4-0.2-1.3-0.6-2-1.1l1.6,0.5c-2.2-1-3.5-2.9-5.4-4.1
							c1.9,1.5,2,1.7,1.8,1.8c-0.2,0.1-0.6,0,0.1,0.7c-4.9-3.2-2.1-2.8-7.1-6.9c0.7,0.6,2.4,2.3,1.2,1.6c-0.9-0.9-2-2.1-2.4-2.8
							c-3.2-2.9,0.2,0.7-1.3-0.4c-0.8-1.3-1.6-1.4-3-2.7l0.2-0.2c-1.6-1.9-1.9-2.1-2.2-2.1c-0.3-0.1-0.6-0.1-1.9-2
							c0.5,0.4,1,0.8,1.6,1.2c-0.5-0.6-1.1-1.1-1.6-1.7l0.6,0.2c-1.8-1.8-2.3-2.5-3.6-4.6c0.2,0.6-0.6,0-1.9-1.8
							c-0.7-1.4,0.7,0.6-1-2.1c0.5,0.5,1.1,1,1.6,2.3c0.2,0.1,0.6,0.5,0.7,0.5c-0.8-1.4-2.2-3.4-2.8-4.3c0.2,0.4,0.5,0.8,0.6,1.1
							c-0.9-1.2-1.8-2.5-2.6-3.7c-0.3-0.7,0.1-0.2,0.4,0.2c-0.5-0.8-0.9-1.3-1.5-2.5c0.4,0.2,0.4,0.1,1.5,1.7
							c-0.8-1.2-1.5-2.5-2.2-3.7c-0.1-0.3-0.7-2.1-0.4-1.6c-0.4-1.1-1.2-2.4-1.8-3.8c-0.6-1.4-1.4-2.9-1.8-4.5
							c-0.1-0.1-0.2-0.5-0.4-1.1c-0.2-0.7-0.4-1.4-0.6-2.1c-0.2-0.7-0.3-1.4-0.5-2.1c-0.4-1.4-0.7-2.9-1.2-4.6
							c-0.1-0.7-0.1-1.3-0.2-2c-0.5-2.7,0.1,2.7-0.7-1.8c-0.6-3.2,0-1.2-0.1-2.4c-0.1-0.8-0.4-1.9-0.5-3.2c-0.2-1.3-0.2-2.7-0.2-4.2
							C208.6,125.7,208.6,126.5,208.6,127.4z M212.9,93.6c-0.2,0.6-0.5,1.9-0.7,2.4C212.3,95.2,212.5,94.7,212.9,93.6z M242.7,51.7
							c-0.3,0.4-1,0.8-1.7,1.2C241.4,52.6,242,52.1,242.7,51.7z M372.7,71.4C372.7,71.4,372.7,71.4,372.7,71.4
							C372,70,372.2,70.5,372.7,71.4z M374.2,74.3c0.2,0.2,0.3,0.2,0.3,0c-0.2-0.1-0.6-0.7-1-1.5C373.5,73.1,373.6,73.5,374.2,74.3z
							 M259.9,204.3l-0.5-0.4C260.7,204.4,260.3,204.4,259.9,204.3z"/>
						<path class="st1" d="M238.4,55.8c-0.2,0.1-0.3,0.1-0.3,0.1C237.9,56.1,237.9,56.1,238.4,55.8z"/>
						<path class="st1" d="M212.9,148.2L212.9,148.2c0.1,0.2,0.1,0.2,0.1,0.2L212.9,148.2z"/>
						<path class="st1" d="M336.8,44.7c-0.5-0.4-0.8-0.6-0.9-0.8C335.8,44,336,44.2,336.8,44.7z"/>
						<path class="st1" d="M382,89.2c-0.3-0.6-0.5-1.3-0.8-1.9c0.4,0.9,0.4,1.3,0.5,1.8C381.8,89,381.8,88.6,382,89.2z"/>
						<path class="st1" d="M384,106.7c0.1,0.3,0.1,0.6,0.2,0.9l0.1-0.1C384.2,106.3,383.9,105.5,384,106.7z"/>
						<path class="st1" d="M381.3,91.4c-0.3,0.3,0.3,1.4,0.7,2.7L382,94C382.5,94.2,382,92.8,381.3,91.4z"/>
						<path class="st1" d="M382.1,94.5c0.1,0.4,0.3,0.8,0.4,1.2C382.7,95.9,382.4,95.2,382.1,94.5z"/>
						<path class="st1" d="M376.4,77.6c0.2,0.6,0.6,0.1,0.7,0.6C377.9,78.6,374.5,74.5,376.4,77.6z"/>
						<polygon class="st1" points="380.6,92.9 380.9,92.3 380.3,91.7 						"/>
						<path class="st1" d="M376.8,82.6l0.8,2.1c0.1-0.1,0.2,0.2,0.4,0.5C377.4,83.9,376.9,82.5,376.8,82.6z"/>
						<path class="st1" d="M378,85.1c0.3,0.7,0.5,1.3,0.8,1.6C378.6,86.4,378.3,85.6,378,85.1z"/>
						<path class="st1" d="M379.5,90.1l-0.1-0.7c-0.2-0.5-0.4-1-0.6-1.5C379,88.7,379.3,89.4,379.5,90.1z"/>
						<path class="st1" d="M363.6,62.5l-1.8-1.7c-0.3-0.1,0.1,0.5,0.7,1.1C363.1,62.3,363.8,62.9,363.6,62.5z"/>
						<path class="st1" d="M367.2,69.1c-0.3-0.6-0.2-0.7-0.3-1.1l-0.5,0.3L367.2,69.1z"/>
						<path class="st1" d="M362.6,63.8c-0.3-0.1-2.7-2.2-0.7,0C362.3,63.8,364,65.5,362.6,63.8z"/>
						<polygon class="st1" points="334.4,41.4 334.9,41.6 335.3,40.6 						"/>
						<path class="st1" d="M303.3,35.6c2.8,0.5,0.7-0.6,3.2,0c0.7-0.2-2-0.5-1.3-0.6C303.4,35.1,302.6,34.8,303.3,35.6z"/>
						<path class="st1" d="M305.2,35c0.3,0,0.6,0,0.9-0.1C305.5,34.9,305.3,34.9,305.2,35z"/>
						<path class="st1" d="M363.7,179.8c0.4-0.4,0.8-0.9,1.2-1.4l-0.8,0.9L363.7,179.8z"/>
						<path class="st1" d="M365.9,177.1l0.3-0.3l0.7-0.9C366.7,176.2,366.1,176.8,365.9,177.1z"/>
						<path class="st1" d="M215.2,89l0-0.1c-0.2,0.2-0.4,0.6-0.7,1.4C214.7,89.9,215,89.5,215.2,89z"/>
						<polygon class="st1" points="209,112.9 209,112.5 208.8,113.3 						"/>
						<path class="st1" d="M209.7,133.7c-0.1-0.8-0.3-1.8-0.4-2.7C209.6,132.8,209.6,133.9,209.7,133.7z"/>
					</g>
				</g>
			</g>
			<g>
				<g>
					<g>
						<path class="st1" d="M79.2,466.5c-0.5,0.7-0.3,0.5-0.3,0.6C79.7,465.9,79.2,466.6,79.2,466.5z"/>
						<polygon class="st1" points="87,454.7 86.9,454.9 88,453.1 						"/>
						<path class="st1" d="M94.5,443.6c-0.8,1-2.7,4-4,5.9l-0.2,0.3l-0.5,0.9C91.3,448.4,93.3,445.3,94.5,443.6z"/>
						<path class="st1" d="M98.8,438c-0.3,0.3,0.8-1.3-1,1.3c0.1-0.1,0.1-0.2,0.2-0.2C98.2,438.9,98.4,438.6,98.8,438z"/>
						<path class="st1" d="M98,439.1C97.2,440.3,98.6,438.4,98,439.1L98,439.1z"/>
						<path class="st1" d="M101.7,433.8l-1,1.5c0.3-0.3,1.2-1.6,0.9-1.1C102.6,432.7,102.4,433,101.7,433.8z"/>
						<path class="st1" d="M102.5,432.3l-0.5,0.8C102.1,432.9,102.3,432.7,102.5,432.3z"/>
						<path class="st1" d="M100.9,434.8l1.1-1.7c-0.2,0.2-0.3,0.2-0.5,0.8C101.5,433.7,101.4,434,100.9,434.8z"/>
						<path class="st1" d="M100.2,435.7c-0.6,0.8-1.4,1.9-0.4,0.4C97.8,439,98.2,438.6,100.2,435.7z"/>
						<path class="st1" d="M94.7,443l-0.8,1.1l-0.6,1C93.6,444.6,94.8,443,94.7,443z"/>
						<path class="st1" d="M108.4,424.5c0-0.1-0.5,0.4-0.6,0.5l-0.7,1.2C107.5,425.6,108.3,424.5,108.4,424.5z"/>
						<path class="st1" d="M107.8,425l1.1-1.7C107.8,424.7,107.6,425,107.8,425z"/>
						<polygon class="st1" points="102.5,431.9 100.8,434.7 102.9,431.3 						"/>
						<polygon class="st1" points="113,418.2 112.4,419.2 113.4,417.4 						"/>
						<path class="st1" d="M115.9,413.9c-0.4,0.8,0.9-0.8,0.5,0c0.8-1.2,1.4-2.2,1.9-3.2C117.7,411.8,117,412.7,115.9,413.9z"/>
						<path class="st1" d="M119.2,409.2c-0.3,0.5-0.6,1-0.9,1.6C118.6,410.3,118.9,409.7,119.2,409.2z"/>
						<path class="st1" d="M110.9,420.4c0.1-0.1,0.4-0.3,1.1-1.2l-0.6,0.5C111.2,420,111,420.2,110.9,420.4z"/>
						<path class="st1" d="M111.3,419.8L111.3,419.8c0.5-0.7,0.9-1.2,1-1.4C112.2,418.5,111.9,419,111.3,419.8z"/>
						<path class="st1" d="M110.8,420.6c0-0.1,0.1-0.1,0.1-0.2C110.8,420.5,110.8,420.5,110.8,420.6z"/>
						<path class="st1" d="M105.6,427.5c0.6-1,1.9-3.2,0.4-1.2C105.7,427.1,106.6,426,105.6,427.5z"/>
						<path class="st1" d="M110,421.3l-1.3,1.8c0.1,0,0.3-0.3,0.1,0.2L110,421.3z"/>
						<polygon class="st1" points="110.5,420.4 110,421.3 110.4,420.6 						"/>
						<path class="st1" d="M116.8,412.1c0.4-0.8,1-1.7,1.7-2.6c-0.8,1-1.5,2-2.2,3C116.3,412.7,116.1,413.2,116.8,412.1z"/>
						<path class="st1" d="M114.1,415.8c0-0.1,0.1-0.1,0.1-0.2C114.2,415.7,114.1,415.8,114.1,415.8z"/>
						<path class="st1" d="M125,400.1c-0.1,0-0.1,0.1-0.2,0.1c0,0,0,0,0,0.1L125,400.1z"/>
						<path class="st1" d="M116.1,412.6c-0.6,0.7-0.8,1.2-1.1,1.7c0.4-0.6,0.8-1.2,1.2-1.8C116.3,412.4,116.3,412.4,116.1,412.6z"/>
						<path class="st1" d="M120.9,406.5c-0.3,0.4-0.7,0.8-1.1,1.2C120.2,407.4,120.9,406.7,120.9,406.5z"/>
						<path class="st1" d="M114.5,415.4c0,0,0,0.1-0.1,0.1C114.6,415.3,114.6,415.3,114.5,415.4z"/>
						<path class="st1" d="M114.5,415.4c0.2-0.4,0.4-0.8,0.6-1.1c-0.3,0.5-0.6,0.9-0.8,1.3C114.3,415.5,114.4,415.5,114.5,415.4z"/>
						<path class="st1" d="M125.2,396.1c0.2,0.3-0.9,2.5-2.4,4.1c-1,1.9,0.6,1.2,2.1,0.1c-0.1-0.1-0.2-0.2,0.9-2.1
							c-0.6,0.5-3,3.7-2.2,2.1c1.5-2.4,1.4-1.9,2.3-2.9c-1,0.8,1.5-3.3,0.7-3.1l-1.2,2.2C125.3,396.4,125.6,395.6,125.2,396.1z"/>
						<path class="st1" d="M122.5,403.6l-0.5,0.7c0.6-0.8,1.1-1.3,2.1-2.3c0.7-1.3,0.8-1.6,0.8-1.7l-2.5,3.5L122.5,403.6z"/>
						<path class="st1" d="M119.8,407.6c0.2-0.7,1.2-2.5,0.3-1.6c-1.4,2.1-0.8,1.6-1.6,3C120.8,405.4,117.9,410,119.8,407.6
							c-0.5,0.7-0.9,1.3-1.3,1.9c0.5-0.6,0.9-1.2,1.3-1.7c0,0,0,0-0.1,0.1l0,0l0,0c-0.1,0.1-0.2,0.2-0.1,0c0,0,0-0.1,0-0.1
							C119.8,407.7,119.8,407.7,119.8,407.6c0.7-1,0.2-0.1,0,0.2c0,0,0,0.1,0,0.1c0,0,0,0,0,0l2.3-3.5
							C121.5,405,120.9,405.9,119.8,407.6z"/>
						<path class="st1" d="M107,424.2c0.1-0.1,0.1-0.1,0.1-0.1C107.3,423.9,107.3,423.8,107,424.2z"/>
						<path class="st1" d="M108.1,422.9c-0.1,0.3-0.2,0.5-0.8,1.3c-0.5,0.7-0.1-0.1-0.1,0c-0.3,0.5-1.1,1.8,0.1,0.3l0.1-0.3
							c1-1.4,2.4-3,2.3-2.8C109.2,421.7,108.8,422,108.1,422.9z"/>
						<path class="st1" d="M113.9,415l1.9-2.9l-1.2,1.3l0.2,0C113.5,415,113.9,414.8,113.9,415z"/>
						<polygon class="st1" points="125.4,399.9 125.4,400.5 126.2,398.6 						"/>
						<polygon class="st1" points="127.9,396.2 128.1,396.5 128.6,395.4 						"/>
						<path class="st1" d="M150.3,296.6l-0.7,0.8C150,297,150.2,296.7,150.3,296.6z"/>
						<path class="st1" d="M155.3,291.1l0.1-0.2C155.2,291.2,155.1,291.3,155.3,291.1z"/>
						<path class="st1" d="M189.6,303.9c1.1-1,2.5-2.1,2-2.2l-0.6,0.1C190.5,302.8,190,303.4,189.6,303.9z"/>
						<path class="st1" d="M195.5,245.9c0.1-0.1,0.2-0.1,0.3-0.2c0.1-0.1,0.1-0.2,0.2-0.3l0.2,0.1c0.1,0,0.3,0.1,0.4,0.1
							c-0.2-0.1-0.4-0.2-0.6-0.3c0,0,0,0-0.1,0l-0.1,0.1l-0.1,0.2L195.5,245.9z"/>
						<path class="st1" d="M195.5,247.7l-0.2,0.1c-0.1,0-0.1,0.1-0.3,0.2l-0.7,0.7c0.2-0.1,0.4-0.3,0.6-0.5
							C195.2,247.9,195.3,247.8,195.5,247.7z"/>
						<path class="st1" d="M123.4,326.7l-0.7,1C124,326.3,123.4,326.9,123.4,326.7z"/>
						<path class="st1" d="M153.8,357.8c0.9-1,1.5-1.8,2-2.5C154.8,356.5,153.8,357.3,153.8,357.8z"/>
						<path class="st1" d="M151.2,293.4c-0.4,0.5-0.6,0.7-0.5,0.7C151.1,293.7,151.3,293.4,151.2,293.4z"/>
						<path class="st1" d="M157.9,352.3c-0.2,0.2-0.3,0.3-0.5,0.5c-0.5,0.8-0.9,1.6-1.6,2.6C156.7,354.5,157.5,353.5,157.9,352.3z"
							/>
						<path class="st1" d="M36.3,432.9c0.1,0.1,0.2,0.2,0.2,0.2C36.5,433.1,36.4,433,36.3,432.9z"/>
						<path class="st1" d="M68.7,460.6c-0.3-0.3-0.9-0.7-1.4-1.1C67.6,459.7,68,460.1,68.7,460.6z"/>
						<path class="st1" d="M138.4,381.3C137.9,382.1,138.4,381.5,138.4,381.3L138.4,381.3z"/>
						<path class="st1" d="M134.5,384.3c0.1-0.2,0.1-0.4,0.1-0.4C134.6,384,134.5,384.1,134.5,384.3z"/>
						<path class="st1" d="M160.8,342.7C160.8,342.7,160.8,342.7,160.8,342.7C160.6,342.8,160.6,342.8,160.8,342.7z"/>
						<path class="st1" d="M137.5,382.4c0.2-0.3,0.5-0.6,0.8-0.9C138.1,381.6,137.9,381.9,137.5,382.4z"/>
						<path class="st1" d="M137.7,382.3c-0.2,0.3-0.4,0.5-0.5,0.7C137.2,383.2,137.3,383.1,137.7,382.3z"/>
						<path class="st1" d="M139.2,380.2c-0.3,0.5-0.6,0.9-0.9,1.3c0.1-0.1,0.2-0.2,0.2-0.1C138.6,381.1,138.8,380.8,139.2,380.2z"/>
						<path class="st1" d="M77.7,377c-0.1,0-0.1,0.1-0.2,0.1C77,378,77.3,377.6,77.7,377z"/>
						<path class="st1" d="M199.6,280.7c0,0,0,0.1,0,0.1C199.6,280.8,199.7,280.7,199.6,280.7L199.6,280.7z"/>
						<path class="st1" d="M201.3,277.7c-0.4,1.5-0.9,2.2-1.6,3l1.6-0.3L201.3,277.7z"/>
						<path class="st1" d="M138.4,309.7l1.7-1.7c-1.8,2.3-3.3,3.8-1.6,2.3c-0.1-0.5,6.3-7,6.2-7.5l1.1-1.1c-0.3,0.3-0.4,0.4-0.6,0.7
							c2.2-2.2,1.3-1.9,4.1-4.8c1-1,1.7-1.7,1.1-0.9l2-2.4c0.6-0.7,0.5-0.4-0.1,0.2l3.2-3.5l0,0c0.4-0.5,1.4-1.7,1.8-2.3
							c0.9-0.8-0.4,0.5-0.1,0.3l1.7-2c0.8-0.7-0.6,1-1.8,2.3c2-1.5,1.4-1.7,5.2-5.4l-1.6,1.9c1.3-1,2.5-2.5,4.6-4.4
							c-0.5,0.4-4.1,3.8-2.3,1.6c0.6-0.6,1.3-1.3,2.3-2.5c0.1,0.1,1.1-1,2.4-2.4l0.1,0.3c1.3-1.5,1.1-1.5,1.9-2.4
							c1.6-1.6,2-1.8,2.5-2.1c2.5-2.6-2,1.6,0.9-1.6c2.1-2.1,3.5-3.7,5.8-6.5c1.5-1.5-0.1,0.4,0.5-0.1l1.1-1.5
							c0.3-0.3,0.3-0.2,0.3-0.1c1-1.2-0.2-0.3,1.5-2.2c0.2-0.8,3.9-3.3,5.6-5.9c0.6-0.5-0.1,0.4,0.2,0.4c2.6-3.3,2.3-2.8,4.3-5.6
							l2.2-2c-1.7,1.4-0.1-0.9,1.3-2.9c-0.5,0.4-1.1,0.8-1.5,1.1l1.4-1.7l0.4-0.4l0.1-0.1c0,0,0.1,0,0.1,0.1l0.2,0.1l0.9,0.6
							c0.4,0.4,0,0.3-0.6,0.1c0.2,0.1,0.4,0.2,0.6,0.3c1.1,1.1,0.3,0.7-0.4,0.5l-0.5-0.5c-0.2-0.2-0.3-0.5-0.5-0.3
							c-0.6,1-0.8,1.7-0.6,1.8c0.1-0.2,0.3-0.4,0.5-0.7c-0.1,0.2-0.1,0.3-0.1,0.3c0,0,0.1-0.1,0.2-0.2c0-0.1,0.1-0.1,0.1-0.2
							c0,0,0.1-0.1,0.1-0.1c0,0,0.1,0,0.1,0c0.2,0.3,0.3,0.6,0.3,0.9c0-0.1,0.1-0.1,0.1-0.1l0.6,0.5l0.9,0.8l1.9,1.7
							c3.1,1.8,6.1,3.1,10.8,6.4c-1.4-0.5-0.7,0.4-1,0.7c-0.9-1.4-3.6-2.5-5.9-4.5c1.2,1,0.8,1,0.4,0.8l4.4,2.9
							c-0.3,0.2,0.7,0.9,1.7,1.9c-0.2-0.6,0.7-0.1,1.8,0.7c0.4,0.3,0.8,0.5,1.2,0.8c0.1,0.1,0.2,0.1,0.3,0.2c0,0,0.1,0.1,0.1,0.1
							l-0.1,0.1c-0.1,0.2-0.2,0.4-0.3,0.5c-0.2,0-0.3-0.1-0.3-0.3c0-0.1,0-0.1,0-0.2c0-0.1,0.1-0.2,0-0.2c-0.2-0.1-0.4-0.3-0.7-0.5
							c0.2,0.3,0.4,0.5,0.6,0.6c-0.1,0.2-0.1,0.4-0.1,0.7c0,0.2-0.1,0.5-0.2,0.9c-0.2,0.5-0.6,1-1.1,1.5c0.4-0.5,0.6-0.8,0.6-1.1
							c-0.6,1.4-2.8,4.3-2.6,3.5l0.4-0.5c-2.5,3.5-7.2,10.8-6.9,11.7c-0.1,0-0.5-1-0.5-1.3c-0.7,2.6-1.3,5.2-2,7.8
							c-0.2-0.9-3,0.3-1.4-2.8c-0.6,0.8-1.4,1.8-2.4,3.7c0.5-0.5,1.8-0.9,1.3-0.1c-2.1,1.7-1.3,1.3-3.7,3.6c0.7-0.8,1,0.8,0,2.1
							c0-0.3-1-0.5-0.8-1.1l-1.4,4c0.4-1-0.7-0.7-1.4-0.1c0.4-0.2-2,2.9-2.5,3.9l1.2-1.3c-2.7,3.7-1.2,4.6-3.8,8.4
							c0.1-0.6-0.5-1.9-1.9-0.1c-0.1,1.2-0.2,5.5-2.1,9.1l-0.7,0.5l-1.4,2.8c0.3-2.1,1.7-7.7,2.7-10.5c-1.2,1.3-0.6,0.2-2,2.3
							c-0.8,0.6,0.4-1.4,0.8-2.1l-3.5,4.9c0.7,0.2-2,4.2-1.3,4.3l3-5.8c0.7,0.2-0.4,4.2-2.9,7.7c-0.8,0.7-0.6-1.4-0.8-1.4
							c-0.1,0.6-1.8,3.6-2.2,3.8l0.7-1.7c-1.5,1.8-1.4,3.7-3.5,5.7c-0.6,0.8-2.4,1.9-2.1,2.3c1.6-0.9,3.9,0.3,3.8,1.5
							c-0.2,0.3-3.5,3.9-4.5,4.6c-1.4,1,0.1-2.9-1.2-2c0.1,0.2-0.2,1-0.3,1.4c-0.7,0.8-0.3-0.7-1.4,1.2c0.4,0.7-2.6,3.8-0.1,1.2
							c-1,1.9-1.4,1.9-2.8,4c0.8-0.4,0.1,2.8-1,4.8c-0.1-0.2-0.6,0.1-0.8,0.2c-2.5,3.7-4.1,5.5-6.5,9c-0.4,0.2-1.6,1.8-1.4,0.9
							c-0.2,0.6-0.3,1.2-1,2.3c-1.9,1.7,1.5-2.5-0.2-1.3c0.3,0.4-1.4,3.1-2.2,4.8c0.8-0.1,2.4-3.5,3.2-5.2c0.7,0.5-0.2,3.7-2.3,7.5
							c-1.7,3-1.3,0.9-1.5,1.5c-3.7,5.4-1.8,5.5-5.4,9.6c-1.6,1.5-0.9-0.5-1.5-0.3c1.4-2.5,2.7-3.4,3.7-5.1l-1.5,1.8
							c0.3-0.9,1.3-2.5,2-3.3c-1.4,1.2-6.2,9.2-9.3,13.1c-0.3,0.8-1.1,2.2-0.5,1.7l0.8-1.4c1.2-1-1.2,2.8,0.1,1.2
							c-0.9,1.9-1.9,4.2-3.8,6.5l-0.8,0.2c0.2,0,1.4-1.5,1.7-2.3c-0.5,1.2-3.2,3.4-3.4,5l1.5-1.5c-1,1.9-2,4.4-3.7,6.5
							c1.1-0.7,0.3-0.5,1.9-1.8c-1.6,0.9,3.9-5.6,1.7-3.9c1.7-1.2,2.2-2.6,4.1-4.4c-0.2,0-0.8,0.5,0.5-1.3c0-0.1,0.1-0.3,0.1-0.5
							c0-0.1,0.1-0.1,0.1-0.1c0,0-0.1,0.1-0.1,0.1c0-0.1,0-0.1,0,0c-0.4,0.4-0.7,0.7-0.9,0.8c0.3-1.2,2.3-4.1,2.8-5.2
							c0.8-1.1-0.1,0.6,0.5,0.1l0.7-1.7c0.5,0.1,2.6-2.5,1,0.2l1.6-2.3c1.1-1.2,2.5-3.1,3.1-4.3c0.8-1,1.5-3.1,1.1-1.9l2.2-3.8
							l0.1,0c2.5-3.6,4.4-7.9,7.8-11.6c0.7-1.3,1.4-2.6,2.9-4.6l0.6-0.2c0.9-1.6,3.5-4.5,3.6-5.4c2.1-1.1,5.3-7.5,7.3-10.2l-0.4-0.4
							c1.3-1.9,2.4-3.8,3.7-6.3l-0.5-0.1c1-2.3,3.7-5.1,5.8-8.3c0,0.3-0.6,1.1-1,1.6c3.4-3.3,4.7-8.6,7.6-11.7
							c0.4-1,0.9-1.6,1.4-2.1c-0.1,0.1-0.1,0.2-0.1,0.2c0.1-0.1,0.1-0.2,0.2-0.4c0.3-0.3,0.7-0.7,1-1.1c-0.3,0.3-0.6,0.6-0.9,0.9
							c0.4-0.7,1.1-1.7,1.6-2.8l0.7-0.2c0-0.1,0.1-0.2,0.1-0.2c0.8-0.9,0.3-0.9-0.3-0.6c0.3-0.5,0.5-1.1,0.6-1.5
							c1.2-0.4,1.5-2.8,2.9-3.4c0.1-0.9,3-5.2,2.7-6.2c0.1,0,0.3-0.2,0,0.3c0.8-1.1,1.6-2.1,2.1-3.3l0.8-0.2l0.9-2.9
							c1.3-1.3,1.8-1.8,1.2-0.1c1.8-3.9,1.7-3,3.1-6.4l0.2,0.3c0.7-1.1,1.4-3.1,2.1-3.6c1.1-1,3-4,5.3-7.4c0.6-0.9,1.2-1.8,1.8-2.7
							c0.8-1.2,1.6-2.4,2.4-3.6l0.3-0.5l0.1-0.1c0.1,0-0.1-0.1-0.1-0.1l-0.2-0.2l-0.9-0.7c-0.6-0.5-1.2-1-1.8-1.4
							c-0.2-0.2-0.5-0.4-0.7-0.6c-0.2-0.2-0.4-0.3-0.6-0.5c-0.4-0.3-0.7-0.6-1.1-0.9c0.6,1.6-2.5-2.4-3.2-2c-0.2-0.4-1-1.1,0.1-0.6
							c-3.2-2.1-4.4-3.7-6.8-4.8c-0.2-0.4,0.8,0.2,0.6-0.1c-0.3-0.1-1.1-0.6-1.3-0.9c-0.2-0.3,0.5,0.2,1.1,0.5
							c-3.2-2.3-3.8-2-4.5-1.8c-0.5-0.4-0.9-0.8-1.3-1.2c-0.2-0.2-0.4-0.3-0.6-0.5c-0.1-0.1-0.2-0.1-0.3-0.2c-0.1,0-0.2,0.2-0.2,0.2
							c-0.6,0.7-1.1,1.4-1.6,2.2c-0.4,0.3-0.7,0.5-0.8,0.5c-0.1,0,0-0.1,0.1-0.3c0.1-0.1,0.1-0.2,0.3-0.4c0.2-0.2,0.4-0.5,0.7-0.8
							c-0.3,0.3-0.8,0.9-1.5,1.6c-0.6,0.6-1.2,1.4-1.9,2.1c-1.3,1.4-2.4,2.8-2.3,3c-0.4,0.2-1.3,1.4-1.5,1.7c-2,2.2-2.2,2.4-4.2,4.7
							l0.6-0.6c-0.5,1.2-1.6,1.9-3.1,3.7l0-0.1c-3.9,3.9-1.5,1.9-5.3,5.7l0.4-0.1c0,0.7-3.4,3.4-5.4,5.9l0.8-0.8
							c-1,1.4-3.6,3.2-4.8,4.5c-0.3,0.3,0.4-0.5,0.7-0.9c-3.2,3.2-0.2,0.6-2.4,3.2c-0.5,0.4,0.3-0.8-1.2,0.9
							c-0.8,0.8-4.1,5.2-6.3,7.3c0.5-0.4,1-0.9,0,0.3c-1.6,1.8-4.6,4.6-5.8,6.4c-0.2,0.2-0.3,0.3-0.3,0.3c-1.2,1.4-3.9,4.5-4.6,5.4
							c-1.5,0.9-7.5,8.6-7.8,8.2l-3.8,4.2l0.1-0.1c-2.5,2.6-3.2,3.6-4,4.7c-0.6,0.6-0.2,0.1-0.2,0c-3.6,3.8-4,4.2-6.8,7.6l-0.5,0.2
							c-0.7,1-5.4,5.4-8.8,9.3c0-0.1,0.1-0.2,0.3-0.5c-1.9,2.2-4.4,4.6-6.5,6.8c-2.2,2.1-3.9,3.9-4.3,5.1l-2.4,3
							c3.4-3.6-0.1,0.9,1.4-0.5c-1.3,1.5-3.7,3.5-2.1,1.7l0.3-0.2c0.1-1.1-4.4,4.4-4.6,4c-6.6,7.2-13.4,13.8-19.7,20.5l1.2-0.3
							l-2.2,2.3c-0.7,0.5-1.1,0.5,0.4-1.2c-1.1,0.6-2.4,3-2.3,3.2c-3.2,3.1,0.6-1.8-0.3-0.8l-1.2,1.4l0.3-0.3
							c-0.8,1.3-0.7,1.6-2.6,3.6c-1.3,1.2-0.9,0.4-1.4,0.9c0,0-0.2,0.1-0.7,0.8l-2.7,2.9l1.5-0.8c-1,1.5-2.6,2.8-0.9,1.8
							c-2.5,1.4-10.3,10.9-11.6,12c-1.4,2.1-3.1,3.9-5.1,6.2c0.6-0.5,1.3-0.5-0.5,1.4c-0.2-1.4-3.6,3.3-5.5,4.4
							c1.6-1.1-4.9,5.7-2.4,3.9c-1.5,1.6-0.4-0.1-1.6,1c-1.5,2-3.4,4.1-5.4,6.2c-1,1.1-2,2.2-3,3.3l-0.8,0.9l-0.5,0.6
							c-0.2,0.2-0.4,0.4-0.5,0.7c-0.3,0.4-0.4,1-0.3,1.6c0.1,0.6,0.5,0.9,1,1.3c0.2,0.2,0.5,0.4,0.7,0.6c0.1,0-0.1-0.2-0.2-0.4
							c0-0.1,0-0.1,0.1,0c0.1,0,0.2,0.1,0.3,0.1c0.1,0.1,0.2,0.1,0.4,0.2l2.4,2.4c1,0.7,1.2,0.4,2.9,2c-0.2-0.2-0.5-0.6,0.1-0.1
							c4.9,4,10.1,7.9,15.2,11.9c5.1,4,10.2,8,15.2,12.1c-1.3-1.1-0.4-0.4,0.6,0.4c-0.7-0.5,0,0-0.1-0.2l4.2,3.4
							c0.8,0.6,4.5,3.6,5,3.9l-1.3-1.1c1.8,1.4-2.4-2.1-2-2c-2-1.5-5.1-4.3-8.4-6.8c-0.7-0.6,0.6,0.5,0.3,0.1
							c-0.9-0.6-1.8-1.4-3.7-2.9l0.2,0.2c-5.1-4.2-7.3-6-13-10.9l0.3,0.5c-1.2-1-1.5-1.3-2-1.8c-1.5-1,3.5,2.9,2,2
							c-1.5-1.6-8.7-7.2-9.5-8.4c-1.9-1.6,0.4,0.6-1.5-0.9l-0.4-0.5l-0.6-0.3c-1.2-1.1-1.7-1.7-1.7-1.8c0.3,0.3,0.9,0.7,1.2,1
							c-0.7-0.7-1.8-1.6-2.8-2.4c-0.9-0.7-1.6-1.3-1.9-1.5l4.5-3.1l0,0l0,0l0,0l-0.1,0l-0.1,0.1l-0.2,0.2c-0.2,0.1-0.3,0.2-0.5,0.3
							c-0.3,0.2-0.6,0.4-0.8,0.6c-0.5,0.4-1,0.7-1.3,0.9c-0.4,0.3-0.7,0.5-1.1,0.7c-0.1,0.1-0.3,0.2-0.4,0.3l0,0l2-1.4l1.3-0.9
							l0.6-0.4l0.3-0.2l0.2-0.1l0.1-0.1l0,0l0,0l0,0l-4.5,3.1l0.6,0.5l0.8,0.8c-0.3-0.2-0.6-0.5-0.9-0.7l-0.4-0.4l-0.2-0.1
							c-0.1-0.1-0.3-0.2-0.3-0.4c-0.1-0.2,0-0.4,0.2-0.5c0.4-0.5,0.9-0.9,1.3-1.4c1.1-1.2,2.3-2.4,3.4-3.6c2.3-2.4,4.5-4.8,6.3-7
							l-0.5,0.3c3.2-3.8,2.9-2.8,6.5-6.9l-0.1,0.2c0.6-0.9,1.5-2,2.6-3.1c-0.8,1.2,2.1-1.6,1-0.1c3.4-4.2,1.6-2.1,3.5-5.2l0.8-0.4
							c0.6-1.1,0.6-1.3,2.3-3.3c-1.3,1.8,1.5-0.9,0.1,1.1c4.4-3.7,5.2-6.7,7.7-8c1.1-2.6-3.7,3.3-2.9,2.1c-1.1,0.7,1-2.1,2.2-3.3
							c1.2-1.3,3-1.5,6-4.9c-0.3,0.3-0.3,0.4-0.6,0.7c1.3-1.1,2-2.7,3.7-4c0.4-1.2,1.9-2,1.6-2.7l-2.7,3.2c1.5-1.9,2.4-4.1,5.3-6.8
							c-0.1,0.3-0.7,1.3-1.2,2c0.9-0.7,1.4-1.7,2.3-2.5c0.3,0.7-3.3,3.9-4.6,6.2c1-0.7,2.9-3.9,2.6-2.5c0.5-2,3.1-3.3,4.6-6.1
							l0.2,0.4c0.3-0.4,0.8-1.3,1.4-2l-0.7,1.6c1.3-2.2,3.5-3.4,4.9-5.3c-3.3,3.8-1.1,0.5-2.7,1.9c3.8-5,3.1-2,7.6-7.4
							c-0.6,0.7-2.5,2.5-1.7,1.3c0.9-0.9,2.2-2.2,2.9-2.7c3-3.5-0.7,0.3,0.4-1.3c1.4-0.9,1.4-1.8,2.6-3.4l0.3,0.2
							c3.6-3.8,0.4-1.5,3.7-4.9l-1,1.8l1.5-1.9l-0.1,0.6c1.6-2.2,2.2-2.8,4-4.7c-0.6,0.3-0.2-0.6,1.4-2.4c1.2-1.1-0.4,0.8,1.8-1.7
							c-0.4,0.7-0.7,1.4-1.9,2.3c0,0.2-0.4,0.7-0.4,0.9c1.3-1.2,2.9-3.2,3.6-4.1c-0.3,0.3-0.7,0.7-0.9,0.9l2.9-3.9
							c0.6-0.5,0.2,0-0.1,0.5c0.6-0.8,1-1.3,1.9-2.4c-0.1,0.4,0.1,0.5-1.1,2.1l2.8-3.6c0.3-0.2,1.7-1.6,1.4-1.1
							c1.7-1.9,3.8-4.9,6.1-7.3c0.1-0.2,0.3-0.4,0.8-1c2.1-2.3,4.1-4.3,6.4-7.2l1.6-1.4c1.9-2.2-2.1,1.9,1.1-1.8
							c2.3-2.6,1-0.8,1.9-1.7c1.1-1.4,2.9-3.7,5.1-6C139.6,308.4,139.1,308.9,138.4,309.7z M162.7,283c-0.4,0.5-1.3,1.6-1.7,1.9
							C161.4,284.2,161.9,283.8,162.7,283z M199.2,248.7c-0.5-0.2-1.1-0.8-1.7-1.4C198,247.6,198.6,248.1,199.2,248.7z M144,372.4
							C144,372.4,144,372.4,144,372.4C145.1,371.2,144.7,371.6,144,372.4z M142,375c-0.1,0.3-0.1,0.3,0.1,0.2c0-0.3,0.4-0.9,0.9-1.5
							C142.8,373.8,142.5,374.1,142,375z M68.7,382.6l0.5-0.4C68.3,383.4,68.5,383,68.7,382.6z"/>
						<path class="st1" d="M195.5,247.5c-0.1,0-0.2,0-0.2,0C195.2,247.7,195.2,247.7,195.5,247.5z"/>
						<path class="st1" d="M123.6,326.5L123.6,326.5c-0.1,0.1-0.1,0.2-0.1,0.2L123.6,326.5z"/>
						<path class="st1" d="M166.2,330.8c0.4-0.5,0.7-0.8,0.9-0.9C167.1,329.8,166.8,330,166.2,330.8z"/>
						<path class="st1" d="M133,389.6l1.1-1.8c-0.6,0.8-0.8,1.1-1.2,1.5C133,389.3,133.3,389.1,133,389.6z"/>
						<path class="st1" d="M120.8,403.2c-0.1,0.3-0.4,0.5-0.5,0.8l0.2,0C121.2,402.9,121.6,402.1,120.8,403.2z"/>
						<path class="st1" d="M130.7,390.4c-0.4-0.1-1,1.1-1.8,2.3l0.1-0.2C129.2,393.1,130,391.8,130.7,390.4z"/>
						<path class="st1" d="M128.8,393c-0.2,0.4-0.5,0.8-0.7,1.1C128.1,394.4,128.3,393.7,128.8,393z"/>
						<path class="st1" d="M139.9,378.5c-0.5,0.5,0.2,0.6-0.2,0.9C139.7,380.3,141.8,375.3,139.9,378.5z"/>
						<polygon class="st1" points="129.1,390.8 129.7,390.6 129.9,389.7 						"/>
						<path class="st1" d="M135.7,381.4l-1.4,1.9c0.1,0,0,0.3-0.2,0.6C134.9,382.7,135.9,381.4,135.7,381.4z"/>
						<path class="st1" d="M134.1,383.8c-0.4,0.6-0.8,1.2-1,1.6C133.4,385.1,133.8,384.4,134.1,383.8z"/>
						<polygon class="st1" points="130.7,388 131.2,387.5 132.1,386.2 						"/>
						<path class="st1" d="M149.6,360.6l1.3-2.2c0-0.3-0.5,0.2-0.9,1C149.7,360,149.3,360.8,149.6,360.6z"/>
						<path class="st1" d="M144.2,366.2c0.5-0.5,0.6-0.5,0.9-0.7l-0.5-0.4L144.2,366.2z"/>
						<path class="st1" d="M148.2,360c0-0.3,1.6-3.4-0.1-0.6C148,359.6,146.8,361.8,148.2,360z"/>
						<polygon class="st1" points="169.9,328.5 169.6,329.1 170.5,329.6 						"/>
						<path class="st1" d="M186.5,299.1c-1.9,2.4,0.1,0.9-1.6,3c-0.2,0.7,1.4-1.7,1.2-1C186.8,299.5,187.5,298.8,186.5,299.1z"/>
						<path class="st1" d="M186,301.2c-0.1,0.3-0.3,0.5-0.4,0.9C185.9,301.5,186,301.3,186,301.2z"/>
						<polygon class="st1" points="74.2,465.1 75.7,466.3 74.7,465.5 						"/>
						<path class="st1" d="M77.1,467.3c0.1,0.1,0.3,0.2,0.5,0.3c0.5,0.1,1-0.2,1.2-0.6c-0.1,0.2-0.5,0.5-0.8,0.5
							C77.6,467.6,77.3,467.5,77.1,467.3z"/>
						<path class="st1" d="M166.7,279.4l0.1-0.1c-0.3,0.2-0.6,0.5-1.2,1.2L166.7,279.4z"/>
						<polygon class="st1" points="148.8,298.5 149.1,298.2 148.4,298.7 						"/>
						<path class="st1" d="M134.2,315c0.6-0.7,1.3-1.5,1.9-2.2C134.8,314.3,133.9,315,134.2,315z"/>
					</g>
				</g>
			</g>
			<g>
				<g>
					<g>
						<path class="st1" d="M395.2,110.3c-0.2-1.9-0.2-1.2-0.2-1.5C395.3,112,395.2,110.2,395.2,110.3z"/>
						<path class="st1" d="M393.8,141.9l0.1-0.6c-0.2,1.5-0.7,3-1,4.6C393.2,144.6,393.6,143.2,393.8,141.9z"/>
						<path class="st1" d="M383.4,169.5c0.7-1.2,2.1-3.5,3.3-6.3c0.3-0.7,0.6-1.4,1-2.1c0.3-0.7,0.6-1.4,0.9-2.1
							c0.3-0.7,0.6-1.4,0.9-2.1c0.3-0.7,0.5-1.3,0.7-2l0.3-0.8c0.2-0.8,0.5-1.5,0.7-2.3c-0.5,1.5-1.1,3.1-1.7,4.8
							c-0.7,1.6-1.3,3.3-2,4.9c-0.7,1.6-1.4,3.1-2.1,4.4C384.5,167.3,383.9,168.5,383.4,169.5z"/>
						<path class="st1" d="M374.2,182.4c0.3-0.4-0.2,0.3-0.2,0.4c-0.1,0.1,0.4-0.4,2.5-3.3c-0.2,0.3-0.3,0.4-0.4,0.5
							C375.7,180.5,375.2,181.2,374.2,182.4z"/>
						<path class="st1" d="M376.1,180C377.9,177.5,374.8,181.6,376.1,180L376.1,180z"/>
						<path class="st1" d="M366.7,190.8l1.4-1.5l1.4-1.5c-0.3,0.3-1.1,1.1-1.7,1.7c-0.6,0.6-1,1-0.6,0.5
							C364.3,193,364.9,192.5,366.7,190.8z"/>
						<path class="st1" d="M364,193.6c0.5-0.5,1-1,1.5-1.5C365.2,192.4,364.8,192.8,364,193.6z"/>
						<path class="st1" d="M368.6,188.9c-1,1.1-2.1,2.1-3.1,3.2c0.4-0.4,0.5-0.4,1.5-1.5C366.7,191,367.4,190.4,368.6,188.9z"/>
						<path class="st1" d="M370.4,187.1c0.4-0.4,0.8-0.9,1.2-1.3c0.4-0.4,0.7-0.7,0.8-0.9c0.3-0.4,0.2-0.1-1.1,1.4
							c2.5-3,3.5-4.3,3.3-4.1c-0.1,0.1-0.5,0.6-1.2,1.4C372.7,184.4,371.7,185.7,370.4,187.1z"/>
						<path class="st1" d="M382.7,170.9c0.6-0.9,1-1.8,1.5-2.7l1.2-2.4C384.9,167.1,382.6,171.1,382.7,170.9z"/>
						<path class="st1" d="M346.4,206.1c-0.2,0.2,1.3-0.5,1.6-0.6c0.9-0.5,1.7-1,2.5-1.6C349.2,204.6,346.6,206,346.4,206.1z"/>
						<path class="st1" d="M348,205.4c-1.3,0.8-2.5,1.6-3.9,2.3c1.8-0.9,2.8-1.6,3.4-1.9C348,205.5,348.1,205.4,348,205.4z"/>
						<path class="st1" d="M363.6,194.3l1.4-1.3l1.3-1.3c0.9-0.9,1.7-1.8,2.6-2.7c-2,2.2-4.1,4.3-6.3,6.3L363.6,194.3z"/>
						<path class="st1" d="M330.8,213.2c0.8-0.3,1.6-0.7,2.3-1c-1.4,0.7-2.8,1.2-4.2,1.8L330.8,213.2z"/>
						<path class="st1" d="M319.9,216.3c1.8-0.6-2.6,0.3-0.7-0.2c-1.5,0.4-2.9,0.6-4.2,0.9c-1.3,0.3-2.5,0.5-3.7,0.8
							c1.2-0.2,2.5-0.4,3.9-0.6C316.7,216.9,318.2,216.7,319.9,216.3z"/>
						<path class="st1" d="M307.5,218.5c1.2-0.2,2.5-0.4,3.9-0.7C310.1,218,308.8,218.3,307.5,218.5z"/>
						<path class="st1" d="M337.2,211.1c-0.3,0.1-1,0.2-3.4,1.1l1.7-0.5C336.1,211.6,336.6,211.4,337.2,211.1z"/>
						<path class="st1" d="M335.6,211.8L335.6,211.8c-1.8,0.7-3.1,1.3-3.6,1.4C332.5,213,333.5,212.6,335.6,211.8z"/>
						<path class="st1" d="M337.6,210.9c-0.1,0.1-0.3,0.1-0.4,0.2C337.4,211,337.5,211,337.6,210.9z"/>
						<path class="st1" d="M354.3,201.7c-2.1,1.6-6.7,4.7-2.2,1.9C353.7,202.4,351.1,204.1,354.3,201.7z"/>
						<path class="st1" d="M339.7,210.2c1.5-0.6,2.9-1.4,4.3-2.1c-0.1,0-0.9,0.3,0.2-0.3C342.7,208.6,341.3,209.5,339.7,210.2z"/>
						<polygon class="st1" points="337.6,211.3 339.7,210.2 338.1,210.9 						"/>
						<path class="st1" d="M315.6,217.6c-2,0.5-4.2,0.8-6.8,1.2c1.4-0.2,2.7-0.3,4.1-0.5c1.4-0.2,2.7-0.5,4-0.7
							C317.3,217.4,318.5,217,315.6,217.6z"/>
						<path class="st1" d="M325.5,215.3c-0.1,0-0.3,0.1-0.4,0.1C325.3,215.4,325.5,215.3,325.5,215.3z"/>
						<path class="st1" d="M283.9,218.5c0.1,0,0.3,0.1,0.4,0.1c0,0,0.1,0,0.1,0L283.9,218.5z"/>
						<path class="st1" d="M317.4,217.5c2-0.3,3.2-0.8,4.3-1.1c-1.5,0.4-3.1,0.8-4.8,1.1C316.8,217.6,316.8,217.6,317.4,217.5z"/>
						<path class="st1" d="M300.5,219.1c1.1,0,2.3,0,3.5,0C303,219,300.9,219,300.5,219.1z"/>
						<path class="st1" d="M324.4,215.6c0.1,0,0.2-0.1,0.3-0.1C324,215.6,324.1,215.6,324.4,215.6z"/>
						<path class="st1" d="M324.4,215.6c-1,0.3-1.8,0.6-2.6,0.8c1.2-0.3,2.3-0.6,3.3-1C324.8,215.5,324.5,215.6,324.4,215.6z"/>
						<path class="st1" d="M276,219.2c0.4-0.2,5.8,0.6,10.5,1.4c2.3,0.1,2.7-0.2,2.1-0.6c-0.7-0.4-2.4-0.9-4.3-1.5
							c-0.1,0.1-0.1,0.1-0.7,0.1c-0.6,0-1.8-0.1-4.1-0.4c0.8,0.2,3.4,0.8,5.3,1.1c1.9,0.3,3.1,0.6,1.1,0.5c-3.1-0.3-4.4-0.5-5.3-0.7
							c-0.9-0.2-1.3-0.4-2.8-0.8c1.2,0.4-0.8,0.2-2.9-0.1c-2.1-0.3-4.4-0.7-3.8-0.3c1.8,0.4,3.6,0.8,5.5,1.1
							C276.5,219.1,274.5,218.8,276,219.2z"/>
						<path class="st1" d="M293.2,219.4c0.6,0,1.3,0,1.9,0c-2.2-0.1-3.8-0.3-6.7-0.8c-3.2-0.2-3.9-0.2-4.1-0.1
							c3.1,0.4,6.3,0.7,9.5,0.9L293.2,219.4z"/>
						<path class="st1" d="M303.8,219.2c-1.5,0.4-6.2,0.7-3.3,0.9c2.9-0.1,3.9-0.3,4.6-0.4c0.7-0.1,1.1-0.2,2.8-0.5
							C298.7,220.1,310.5,218.9,303.8,219.2c1.9-0.1,3.5-0.3,5-0.5c-1.6,0.2-3.2,0.3-4.7,0.3c0.1,0,0.1,0,0.2,0l0,0l0,0
							c0.4,0,0.5,0,0.1,0c0,0-0.1,0-0.2,0C304.2,219.2,304,219.2,303.8,219.2c-2.7,0.1-0.4,0,0.4-0.1c0,0,0.1,0,0.1,0c0,0,0,0,0,0
							c-3.1,0.3-6.1,0.4-9.2,0.4C297.1,219.5,299.5,219.5,303.8,219.2z"/>
						<path class="st1" d="M348.1,206.5c-0.3,0.1-0.3,0.1-0.3,0.1C347.4,207,347.2,207.1,348.1,206.5z"/>
						<path class="st1" d="M344.8,208.4c0.6-0.4,1.1-0.6,2.9-1.8c1.7-0.9,0,0.1,0.2,0.1c1.1-0.7,3.9-2.5,0.3-0.4l-0.6,0.4
							c-3.2,1.9-7.7,3.8-7.1,3.5C341.6,209.8,342.5,209.4,344.8,208.4z"/>
						<path class="st1" d="M324.6,216.3c-1.2,0.4-2.5,0.7-3.7,1c-1.2,0.3-2.5,0.7-3.8,0.9c1.3-0.2,2.6-0.4,3.9-0.7l-0.2-0.1
							C325.1,216.5,324.1,216.5,324.6,216.3z"/>
						<path class="st1" d="M283,218.2l1-0.2c-1.5,0-2.9-0.1-4.4-0.2C280.8,217.9,281.9,218.1,283,218.2z"/>
						<path class="st1" d="M273.3,216.2l0.4-0.2c-0.9-0.1-1.7-0.3-2.6-0.5L273.3,216.2z"/>
						<path class="st1" d="M119.8,311.9l1.5-1.7C120.6,311,120.1,311.6,119.8,311.9z"/>
						<path class="st1" d="M108.6,324.2l-0.2,0.3C108.9,323.9,109.1,323.7,108.6,324.2z"/>
						<path class="st1" d="M127.9,407.5c-2.1,2.6-4.7,5.4-4.1,5.3l0.9-0.6C126,410.1,127,408.7,127.9,407.5z"/>
						<path class="st1" d="M19.1,425.8c-0.1,0.3-0.2,0.6-0.3,0.9c0,0.8,0.1,1.6,0.2,2.3C18.9,428.1,19,427,19.1,425.8z"/>
						<path class="st1" d="M18.8,423.1c0.4-0.7,0.8-1.4,1.3-2c0.5-0.6,1.1-1.2,1.6-1.7C21,420,19.8,421.1,18.8,423.1z"/>
						<path class="st1" d="M180.3,244.8l1.6-2.1C179.2,245.8,180.5,244.5,180.3,244.8z"/>
						<path class="st1" d="M207.8,286.7c-1.7,2.3-3.1,4.2-4.2,5.8C205.8,289.8,207.7,287.7,207.8,286.7z"/>
						<path class="st1" d="M116.5,317.7c0.9-1.1,1.3-1.5,1.3-1.5C116.8,317.3,116.2,317.9,116.5,317.7z"/>
						<path class="st1" d="M199.1,299.5c0.3-0.4,0.6-0.8,0.9-1.2c1.1-1.8,2.2-3.6,3.7-5.7C202.1,294.6,200.3,296.9,199.1,299.5z"/>
						<path class="st1" d="M317,22.8c0.2,0.1,0.5,0.1,0.7,0.2C317.9,23,317.5,22.9,317,22.8z"/>
						<path class="st1" d="M387.8,82.1c-0.2-0.4-0.4-1-0.7-1.6c-0.3-0.6-0.6-1.3-0.9-1.9C386.4,79.2,387,80.3,387.8,82.1z"/>
						<path class="st1" d="M242.5,234.2C243.6,232.4,242.6,233.9,242.5,234.2L242.5,234.2z"/>
						<path class="st1" d="M249.6,226.5c-0.2,0.4-0.4,0.7-0.3,0.8C249.3,227.1,249.4,226.8,249.6,226.5z"/>
						<path class="st1" d="M189.7,318.9c0,0.1-0.1,0.1-0.1,0.2C190,318.5,189.9,318.6,189.7,318.9z"/>
						<path class="st1" d="M244.4,231.7c-0.5,0.6-1,1.4-1.6,2.2C243.1,233.5,243.6,232.9,244.4,231.7z"/>
						<path class="st1" d="M244,231.9c0.4-0.6,0.8-1.1,1.1-1.5C245.2,230.1,245,230.3,244,231.9z"/>
						<path class="st1" d="M240.8,236.7c0.7-1,1.3-2,2-2.9c-0.3,0.3-0.4,0.5-0.3,0.4C242.1,234.8,241.6,235.5,240.8,236.7z"/>
						<path class="st1" d="M195.7,120.2c0-0.1,0-0.3,0-0.5c-0.1-1.1-0.1-1.4-0.1-1.2C195.7,118.7,195.7,119.3,195.7,120.2z"/>
						<path class="st1" d="M100.8,456.4c0-0.1,0.1-0.1,0.1-0.2C100.9,456.3,100.8,456.4,100.8,456.4L100.8,456.4z"/>
						<path class="st1" d="M96.8,463c1.4-3,2.5-4.5,4-6.5l-2.4,1.5L96.8,463z"/>
						<path class="st1" d="M146.4,282.6l-3.7,3.9c4.2-5,7.5-8.4,3.9-4.8c-0.2,0.9-14.1,15.6-14.3,16.4l-2.5,2.6
							c0.7-0.8,0.8-0.9,1.5-1.6c-4.8,5-3.2,4-9.3,10.6c-2.1,2.3-3.6,3.8-2.2,2.2l-4.6,5.2c-1.4,1.5-1.1,1.1,0.3-0.4l-7.1,7.8l0-0.1
							c-1,1.2-3.2,3.8-4.3,5c-1.9,1.9,0.9-1,0.4-0.6l-3.9,4.4c-1.7,1.7,1.5-2,4.2-5c-4,3.7-3.2,3.7-11.4,12.2l3.7-4.1
							c-2.6,2.4-5.5,5.7-9.8,10.2c1.1-1,8.8-8.9,4.6-4.2c-1.2,1.3-2.9,3-5.1,5.6c-0.2-0.1-2.4,2.4-5.2,5.5l0-0.4
							c-3,3.4-2.7,3.2-4.4,5.2c-3.4,3.7-4.3,4.3-5.2,5.1c-5.5,5.9,4-3.9-2.4,3.2c-4.6,4.9-7.8,8.4-13.1,14.5
							c-3.3,3.4,0.4-0.7-0.8,0.4l-2.6,3.2c-0.7,0.7-0.5,0.5-0.4,0.3c-2.3,2.7,0,0.4-3.6,4.6c-0.7,1.4-8.1,8-12.4,13.3
							c-1.2,1.2,0.4-0.8-0.1-0.5c-6.1,7.1-5.3,6.1-10.2,12l-4.6,4.7c1.8-1.7,1.6-1.3,0.7,0c-0.5,0.6-1.2,1.5-1.9,2.7
							c-0.6,1.1-1.1,2.5-1.4,3.8c0.5-1.6,1.4-2.9,1.9-3.6c-1.5,2.4-2,5.3-1.5,8c0.1,1-0.3,0.2-0.5-1.2c0.1,0.6,0.2,1.1,0.3,1.5
							c0.2,1.5,0.3,1.9,0.1,1.6c-0.2-0.2-0.6-1.1-0.9-2.3c0-1.1,0.1-2.2,0.3-3.2c0-2.2,0.8-4.2,0.4-3.9c-0.2,0.6-0.7,1.6-0.9,2.9
							c0.1-0.6,0.1-1,0-0.7c-0.1,0.3-0.3,1.3-0.3,2.8c-0.2,0.7-0.4,1.4-0.4,2.2c0.1,0.2,0.2,0.3,0.3,0.5c0.3,2.1,1,4.1,2.2,5.8
							c0.6,0.9,1.3,1.7,2.1,2.4l2.2,1.9c6.6,4.7,12.6,8.5,22.7,16.3c-2.7-1.7-1,0.1-1.4,0.4c-2.4-2.6-7.8-6.1-12.9-10.3
							c2.7,2.2,1.9,1.9,1.2,1.4l9.5,7.1c-0.5,0.1,1.8,1.8,4.1,3.9c-1.3-2.1,7.2,5.1,11.1,8c0.1,0.4-1-0.1-5.5-3.8
							c4.6,4.6,7.1,4.5,11.7,8.9c-1.1-0.9-1.7-1.4-2.2-1.7c2.8,1.9,9,7.2,7.4,6.2l-1.1-0.9c0.8,0.7,2.1,1.8,3.6,2.4
							c1.5,0.7,3.2,1.2,5,1.2c0.4,0,0.9,0,1.4,0c0.5,0,0.9-0.1,1.4-0.1c0.9-0.1,1.8-0.4,2.6-0.7c1.7-0.7,3.2-1.7,4.5-2.9
							c0.6-0.6,1.1-1.3,1.6-2c0.4-0.6,0.8-1.2,1.2-1.8c0.7-1.2,1.4-2.2,1.9-3.2c1.1-1.9,1.8-3.2,1.8-3.6c0.1,0,0.1,1.6-0.1,2.1
							l7.2-15.6c-0.3,1.6,4.3-2.3,0.2,4.5c1.3-1.8,3-4.1,5.4-8.2c-0.9,1.2-3,2.7-1.9,0.9c3.9-4.4,2.6-3.1,7.1-8.7
							c-1.4,1.8-0.9-0.9,1.2-3.9c-0.2,0.6,1.1,0.3,0.4,1.5l4.1-8.2c-1.1,2,0.6,0.8,1.9-0.7c-0.7,0.7,4.4-6.6,5.6-8.6l-2.4,3.1
							c5.8-8.5,4.3-9.3,10-17.8c-0.5,1.2-0.5,3.3,2.5-0.9c0.8-2.3,3.5-10.3,8-18.2l1.2-1.3l3.5-6c-1.6,4.1-6.7,15.3-9.8,21.2
							c2.4-3.1,0.9-0.7,4.1-5.5c1.4-1.5-1.3,2.9-2.3,4.3l7.6-11.1c-0.9,0.1,5.1-8.9,4.3-8.8l-7.5,12.6c-0.9,0.1,3-8.1,8.4-16
							c1.6-1.9,0.1,2.2,0.4,2.2c0.5-1.2,4.6-7.8,5.2-8.4l-1.9,3.6c3.2-4.3,4-7.7,8.1-12.7c1.3-1.8,4.4-5,4.3-5.5
							c-2.7,2.5-5.2,1.7-4.4-0.6c0.5-0.6,7-9.2,8.7-11.1c2.5-2.7-1.7,5.4,0.5,3.1c-0.1-0.2,0.8-2,1.2-2.8c1.4-1.8,0,1.1,2.7-3.1
							c-0.1-1.1,5.7-8.5,0.8-2.3c2.5-4.2,3-4.3,6.2-9.1c-1.4,1.3,1.5-5.2,4-9.4c0,0.3,0.8-0.4,1.2-0.8c5.6-8.4,8.9-12.7,14-20.5
							c0.6-0.6,3.3-4.3,2.5-2.5c0.6-1.2,1.1-2.4,2.7-4.8c3.6-4.3-3.5,5.4-0.5,2.3c-0.1-0.5,3.6-6.6,5.7-10.1
							c-1.2,0.7-5.4,7.9-7.4,11.5c-0.8-0.5,2.4-7,7.5-15.4c4.1-6.6,2.3-2.5,3-3.7c8.2-12.1,5.6-11.2,12.9-21c3.1-3.7,1,0.4,1.9-0.3
							c-3.3,5.4-5.7,7.9-8,11.5l3.1-4.3c-1,1.8-3.2,5.4-4.6,7.2c2.6-3.1,13.7-20.6,20.3-29.8c1-1.8,2.7-4.8,1.7-3.5l-1.9,3
							c-2.2,2.5,3.2-5.9,0.6-2.3c2.4-4.2,5-8.9,9-14.3l1.2-0.8c-0.2,0-2.7,3.5-3.6,5.2c0.7-1.2,2.3-3.3,3.8-5.4
							c0.8-1.1,1.5-2.1,2.2-3.1c0.3-0.5,0.6-1,0.9-1.4c0.1-0.2,0.2-0.4,0.3-0.6c0.1-0.2,0.2-0.4,0.3-0.7l-3,3.8
							c0.6-1,1.2-2.1,1.9-3.3c0.2-0.3,0.4-0.7,0.6-1c0.3-0.4,0.5-0.9,0.8-1.3c0.3-0.4,0.5-0.9,0.8-1.3c0.1-0.4,0.4-0.1,0.6-0.1
							l0.7,0.3c0.5,0.2,1,0.4,1.5,0.5c0.5,0.2,1.1,0.4,1.4,0.5c0.7,0.2,1.4,0.5,2,0.7c1.4,0.5,2.8,0.9,4.2,1.4
							c-2.4-1.3-1.3-0.3-5-2.3c0.8,0.5,0.3,0.4-0.8,0c-0.1,0-0.3-0.1-0.4-0.1c-0.2-0.1-0.4-0.2-0.7-0.3c-0.6-0.2-1.1-0.4-1.8-0.7
							c-0.3-0.1-0.6-0.2-1-0.4l-0.5-0.2l-0.2-0.1c-0.1,0-0.1,0.1-0.2,0.2c-0.4,0.6-0.8,1.2-1.2,1.8c-0.6,0.9-1.3,1.9-1.8,2.7
							c-0.4,0.6-0.8,1.2-1,1.6c-0.5,0.8-0.4,0.9,0.6-0.2c-3,3.2-4.5,6.1-8.2,10.5c0.3,0,1.4-1.5-1.5,2.6c-0.1,0.2-0.3,0.7-0.5,1
							c-0.1,0.1-0.1,0.2-0.2,0.3c0.1-0.1,0.1-0.1,0.2-0.2c-0.1,0.2-0.1,0.2,0.1-0.1c0.7-0.9,1.4-1.7,1.7-2c-1,2.3-5.5,8.9-6.8,11.3
							c-1.7,2.4,0.5-1.2-0.6,0.1l-1.9,3.5c-0.6,0.1-5,6.2-1.3,0.2l-3.5,5.2c-2.3,3-5.2,7.1-6.8,9.9c-1.7,2.4-3.8,6.5-2.6,4.2
							l-5.3,8.4l-0.1,0c-5.5,8.1-10.5,17.2-17.4,26c-1.7,2.8-3.5,5.7-6.6,10.2l-0.9,0.7c-2.2,3.6-7.4,10.3-8,12.1
							c-3.5,3.2-11.5,17-15.8,23l0.3,0.5c-2.8,4.2-5.4,8.4-8.7,13.8l0.6-0.1c-2.7,4.8-8,11.6-12.8,18.8c0.2-0.6,1.4-2.4,2.4-3.6
							c-6.6,8.1-11.4,18.6-17.2,26.1c-1.1,2-2.1,3.4-3.1,4.7c0.1-0.2,0.2-0.3,0.3-0.5c-0.1,0.2-0.3,0.5-0.5,0.8
							c-0.6,0.8-1.3,1.7-2,2.6c0.6-0.8,1.2-1.5,1.7-2.1c-1,1.5-2.4,3.8-3.8,6.1l-1,0.7c-0.1,0.2-0.2,0.3-0.3,0.5
							c-1.6,2.1-1,1.9,0.1,0.9c-0.7,1.2-1.3,2.3-1.7,3.1c-1.8,1.4-3.6,6-5.9,8c-0.7,1.7-7.2,11.4-7.3,13.1c-0.1,0-0.6,0.6,0.2-0.6
							c-1.7,2.4-3.4,4.9-4.7,7.2l-1.2,0.7l-2.9,5.9c-2.5,3.1-3.5,4.4-1.8,0.8c-4.7,8.3-4,6.6-7.9,13.7l-0.1-0.5
							c-0.8,1.2-1.7,2.8-2.6,4.3c-0.4,0.7-0.9,1.5-1.3,2.1c-0.2,0.3-0.4,0.6-0.6,0.8c-0.2,0.2-0.3,0.4-0.5,0.5c-1,1-2.9,2.9-6,3.6
							c-1.5,0.3-3.3,0.4-5.1-0.1c-0.9-0.2-1.8-0.6-2.6-1.1c-0.4-0.2-0.8-0.5-1.2-0.8c-0.4-0.4-0.9-0.7-1.3-1.1
							c-7.2-5.8-15.4-12.4-21.7-17.8c1.9,2.7-5.8-5.1-6.7-5c-0.6-0.8-2.4-2.3-0.1-0.8c-6.8-5.1-9.8-8.2-14.7-11.3
							c-0.6-0.8,1.6,0.9,1,0.3c-0.6-0.4-2.2-1.5-2.8-2.2c-0.6-0.6,1.1,0.6,2.2,1.4c-0.9-0.7-1.6-1.2-2.3-1.8
							c-0.4-0.3-0.6-0.4-0.8-0.6c-0.2-0.2-0.5-0.4-0.7-0.6c-0.8-0.8-1.3-1.4-1.7-1.9c-0.7-1-1.1-1.2-1.5-1.4c-0.5-2-0.4-3.5-0.3-4.9
							c0.2-1.4,0.5-2.6,1-4c0.4-0.6,1.1-1.3,1.2-1.4c0.1,0,0,0.1-0.2,0.5c-0.2,0.4-0.7,1-1.1,2.2c0.3-0.6,0.9-1.9,2.1-3.1
							c1.3-1.4,2.8-3,4.2-4.6c2.9-3.2,5.5-6.1,5.4-6.4c0.7-0.6,2.8-3.1,3.3-3.7c4.6-5,5-5.4,9.4-10.4l-1.3,1.3
							c1.4-2.2,3.6-4.2,7.2-8.2l-0.1,0.1c8.5-9,3.5-4,11.8-12.8l-0.6,0.3c0.4-1.2,7.4-7.8,12-13.1l-1.8,1.8
							c2.5-2.9,7.6-7.6,10.3-10.4c0.6-0.6-0.8,1-1.6,1.9c6.9-7.4,0.7-1.1,5.7-6.8c1-0.9-1,1.5,2.5-2.2c1.8-1.8,9.6-11.2,14.4-16.2
							c-1.1,1.1-2.2,2.1,0.1-0.5c3.6-4,10-10.5,13-14.3c0.5-0.5,0.7-0.7,0.7-0.7c2.7-3.1,8.9-9.9,10.4-11.9c1.5-1.2,5.7-6,9.6-10.4
							c3.9-4.4,7.5-8.4,7.7-8.3l8.5-9.3l-0.2,0.3c5.5-5.9,7.3-8.1,9.1-10.3c1.3-1.4,0.4-0.3,0.3-0.2c8-8.6,8.8-9.5,15.3-17l0.8-0.6
							c1.7-2.1,11.8-12.3,19.4-21c-0.1,0.1-0.2,0.3-0.8,1c4.3-4.9,9.7-10.5,14.4-15.4c4.7-4.9,8.6-9.1,9.8-11.2l5.8-6.7
							c-0.6,0.6-1,1.1-1.5,1.6c-0.4,0.4-0.7,0.7-0.9,0.9c-0.5,0.5-0.8,0.8-1,1c-0.3,0.3-0.1-0.1,0.3-0.6c0.7-1,2-2.6,0.4-1
							c0.7-0.8,1.6-1.7,2.4-2.6l0.3-0.3l0.2-0.2c0-0.1,0.2-0.1,0.1-0.2c-0.2-0.2-0.4-0.4-0.6-0.6c-0.4-0.4-0.7-0.8-1-1.1
							c-0.6-0.6-0.9-1-0.8-1c0,0,0.2,0.1,0.4,0.3c0.1,0.1,0.3,0.2,0.4,0.4c0.2,0.2,0.5,0.4,0.7,0.7l0.6,0.7c0.6,0.4,0.2-0.1-0.8-1.3
							c-0.4-0.5-1-1-1.6-1.6c-0.5-0.6-1.1-1.3-1.8-1.9c-2.5-2.7-4.8-5.7-4.5-5.7c-6.7-8.5-11.8-18-15.2-27.9
							c-3.4-9.9-5.1-20.1-5.4-30.2l-0.5,2.3c0-1.2-0.1-2.3-0.1-3.5l0-3.5c0.1-0.9,0.2-1.5,0.3-1.3c0.1,0.2,0.2,1.3,0.1,3.8
							c0.3-2.6,0-8.4-0.2-8.6c1.2-9.7,0.4,3.9,0.7,0.9c0.1-1.4,0.2-2.7,0.3-4.1l-0.2,0.9c0-1.7,0-2.6,0.1-3.8
							c0.1-1.2,0.2-2.8,0.9-5.8c0.9-3.7,0.8-1.8,1.2-3.3c0,0,0.2-0.5,0.6-2.2c0.3-1.4,0.8-2.8,1.3-4.2c0.4-1.4,0.9-2.8,1.4-4.2
							c-0.5,1.1-1.2,2.1-1.7,3.2c1-3.8,2.9-7.8,0.9-4.2c0.2-0.3,0.4-0.8,0.6-1.2c0.2-0.5,0.5-1,0.8-1.6c0.6-1.2,1.2-2.6,2-4.2
							c0.4-0.8,0.8-1.6,1.2-2.4c0.4-0.8,0.9-1.7,1.4-2.5c0.9-1.7,1.9-3.4,3-5.2c4.1-6.8,9.1-12.8,10.5-14c3.4-4.3,7.3-8.2,12.7-12.4
							c-1.4,0.9-2.5,1.1,2.2-2.4c-0.3,0.6,0.1,0.4,1-0.1c0.9-0.5,2.2-1.3,3.6-2.3c1.5-0.9,3.2-1.9,4.8-2.8c1.6-0.8,3.1-1.6,4.3-2
							c-1,0.4-0.6,0.1,0.5-0.5c1.1-0.6,2.8-1.6,4.6-2.3c3.5-1.7,6.8-2.8,3.6-2c4.6-1.6,0.4,0.2,3.9-0.9c10.8-4.2,24.9-6.2,39.1-5.4
							c0.2-0.1-2.2-0.4,0.9-0.3l3.8,0.5l3.7,0.7c1.4,0.1,2.1,0.2,3,0.3c0.9,0.1,2.2,0.2,4.7,1c-0.7-0.2-1.7-0.6,0.1-0.2
							c13.7,3.4,27,9.6,38.4,18.6c11.4,8.9,20.9,20.4,27.2,33.3c-0.8-1.8-1-2-0.8-1.6c0.3,0.5,0.9,1.7,1.5,3c-0.8-1.7,0.1,0-0.1-0.3
							c1.8,3.6,3.2,7.4,4.5,11.1c0.2,0.5,0.5,1.5,0.9,2.8c0.2,0.6,0.4,1.3,0.6,2.1c0.2,0.7,0.4,1.5,0.6,2.2c0.8,3,1.3,6,1.5,6.6
							l-0.8-3.7c0.3,1.2,0.3,1.4,0.3,1c-0.1-0.4-0.2-1.4-0.5-2.5c-0.3-1.1-0.6-2.4-0.8-3.3c-0.2-0.9-0.4-1.5-0.3-1.4
							c-1.6-5.4-4.7-14.3-9.6-22.3c-1-1.8,0.9,1.5,0.4,0.5c-0.6-1-1.3-2.1-2.2-3.5c-0.5-0.7-1-1.5-1.6-2.3c-0.6-0.9-1.2-1.9-2-2.9
							l0.4,0.5c-2.2-3-4.2-5.5-6.1-7.7c-1-1.1-1.9-2.1-2.9-3.2c-1-1-2-2-2.9-3c-4-3.8-8.4-7.7-15.4-12.3l1,0.8c-1.5-1-2.4-1.6-3.1-2
							c-0.7-0.5-1.2-0.8-1.9-1.2c-1.8-1,0.3,0.3,2.5,1.7c2.2,1.4,4.3,2.9,2.7,1.9c-1.9-1.5-7.3-4.8-12.9-7.5
							c-5.6-2.6-11.2-4.6-12.7-5.2c-5.3-1.6,1.5,0.6-3.8-0.9l-1.4-0.5l-1.4-0.2c-3.5-0.8-5.3-1.3-5.4-1.5c0.9,0.2,2.5,0.5,3.4,0.7
							c-1.2-0.3-2.5-0.6-4-0.9c-1.5-0.2-3-0.5-4.5-0.7c-2.9-0.3-5.5-0.5-6.3-0.6l1.3,0.1l1.3,0.2l2.7,0.3
							c-7.6-0.8-16.1-0.9-24.4,0.1c-8.3,1-16.5,3.2-23.3,6l1.1-0.2c-5.2,2.1-7.2,3.1-9.4,4.1c-1.1,0.5-2.2,1-3.7,1.8
							c-0.7,0.4-1.6,0.8-2.6,1.4c-1,0.6-2.1,1.3-3.4,2.1l0.4-0.3c-2,1.5-4.7,3.4-7.3,5.4c1.2-1-0.1-0.2-1.2,0.5
							c-1.1,0.8-2.1,1.5-0.6,0.1c-2.3,2-3.7,3.3-4.6,4.2c-0.9,0.9-1.3,1.4-1.7,1.7c-0.7,0.7-0.9,1.2-3.4,4.3l-1.5,1.2
							c-1.6,2.2-1.7,2.4-5.4,7.3c2.8-4.2-2.8,2.8,0.4-1.9c-4.3,4.9-6.6,9.2-8.5,12.6c-0.9,1.8-1.7,3.3-2.4,4.8
							c-0.7,1.5-1.5,2.8-2.3,4c-0.7,2.9,0.4,0.4,1.8-2.4c0.3-0.7,0.7-1.4,1-2.1c0.3-0.6,0.7-1.2,0.9-1.7c0.5-0.9,0.7-1.3,0.4-0.6
							c0.8-1.2,0.4,0-0.5,1.9c-0.4,0.9-0.9,2.1-1.4,3.2c-0.3,0.6-0.5,1.1-0.8,1.7c-0.2,0.5-0.5,1.1-0.7,1.5
							c-0.4,0.9-0.8,1.8-1.3,2.7c-0.5,0.9-1,1.9-1.5,3c-0.3,0.6-0.6,1.2-0.9,1.9c-0.3,0.7-0.6,1.5-0.9,2.3c-0.7,1.7-1.3,3.7-1.9,6.3
							c0.3-1,0.2-1.1,0.5-2.1c-0.3,0.9-0.5,1.9-0.8,2.8c-0.2,1-0.3,1.9-0.5,2.9c-0.4,2-0.6,4.1-1.1,6.5c0.2,2.7-0.7,6.2,0.1,7
							c0-1.6,0.2-3.2,0.3-4.8c0.1-1.6,0.3-3.2,0.5-4.7c-0.4,2.7-0.3,5.3-0.4,8.4c0,3,0,6.5-0.1,10.9c-0.2-0.7-0.4-3.3-0.5-5.1
							c-0.1,1.3-0.1,2.6,0,3.8c0.1,1.3,0.2,2.5,0.2,3.9c-0.2-0.2-0.3-1-0.4-2.2c-0.1-1.2-0.2-2.8-0.2-4.6c-0.1-1.8,0-3.7,0.1-5.5
							c0-1.9,0.2-3.6,0.2-5.1c-0.1,0.7-0.3,1.7-0.3,2.8c-0.1,1.1-0.1,2.3-0.1,3.3c0,2,0,3.4-0.4,1.9c0.2,1.1,0.4,2.2,0.4,3.5
							c0,0.6,0,1.3,0,2c0,0.7,0.1,1.4,0.1,2.1c0.1,1.5,0.1,3,0.3,4.6c0.2,1.6,0.4,3.3,0.9,5l-0.5-0.4c0.2,1.1,0.7,3.4,1.2,5.4
							c-0.4-1.2-0.8-2.4-1.2-3.6c1.4,5.6,1.8,11,3.8,16.1c-0.5-1.4-0.8-2.4-1-3.3c-0.2-0.8-0.4-1.4-0.5-1.9c-0.2-0.8-0.2-1-0.1-0.9
							c0.2,0.1,0.6,1.1,0.2-1.3c1,3.4,1.7,5.6,2.2,7.2c0.5,1.6,0.7,2.7,1,3.8c0.3,1.1,0.5,2.3,1.2,4.1c0.3,0.9,0.7,1.9,1.3,3.2
							c0.6,1.2,1.3,2.8,2.3,4.5c-1.1-1.9-3.4-7.4-1.8-4.4c1.2,2.8,3,6.4,3.8,8c1.4,2.3,2,3.3,2.3,3.6c0.3,0.3,0.1,0-0.2-0.5
							c-0.5-1-1.4-2.8-0.1-0.9c0.8,1.6,1.6,2.7,2.4,3.8c0.9,1.1,2,2.2,3.4,4l-0.3,0.2c0.9,1.2,1.6,2.1,2.2,2.8
							c0.6,0.7,1.1,1.2,1.4,1.6c0.7,0.7,1,1,1.3,1.1c0.3,0.2,0.5,0.4,1.2,1c0.3,0.3,0.7,0.7,1.3,1.3c0.6,0.6,1.3,1.4,2.2,2.3
							c-1.2-0.9-2.3-1.9-3.5-2.9l2,2l1.8,1.7c-0.1,0-0.2-0.1-0.3-0.1c0,0,0,0-0.1,0l-0.1-0.1l-0.3-0.1c0.1,0.1,0.2,0.2,0.4,0.3
							l0.1,0.1c0.1,0.1,0.2,0.2,0.3,0.2l0.2,0.1c0,0,0.1,0.1,0.1,0.1c-0.1,0.1-0.1,0.2-0.2,0.3c-0.1,0.1-0.1,0.2-0.2,0.3l-0.1,0.1
							l-0.1,0.2c-0.3,0.4-0.7,0.7-1,1.1c-1.3,1.5-2.6,2.9-4.6,5.1c1.1-0.9-0.1,0.9-3.6,4.8c-2.5,2.5,1.1-1.7-3.8,3.9
							c1-1.4,2-2.9,4.4-5.1c0.2-0.3,1-1.4,1.1-1.7c-2.7,2.7-6.4,7.2-8.2,9.2c0.7-0.8,1.5-1.7,2-2.1l-6.9,8.2
							c-1.2,1.2-0.4,0.1,0.5-0.9c-1.4,1.6-2.3,2.8-4.5,5.2c0.4-0.7,0.1-0.7,3.1-4.2l-6.6,7.8c-0.5,0.5-3.7,3.8-2.8,2.7
							c-3.8,4.2-9,10.6-14.1,16.1c-0.2,0.3-0.7,0.9-1.8,2.1c-4.7,5.2-9,9.8-14.5,16.1l-3.4,3.4c-4.3,4.9,4.5-4.6-2.7,3.6
							c-5.1,5.8-2.1,2-3.9,4c-2.5,2.9-6.8,8-11.7,13.2C143.7,285.6,145,284.2,146.4,282.6z M92,342.4c1-1.2,3.1-3.6,3.9-4.3
							C94.9,339.5,93.9,340.5,92,342.4z M21.8,437.3c-1-0.8-2.2-2.4-2.8-4.5C19.6,434.3,20.5,435.9,21.8,437.3z M229.7,254
							c0,0.1,0,0.1-0.1,0.2C227.5,256.9,228.3,256,229.7,254z M233.9,248.1c0.4-0.6,0.3-0.6,0-0.4c-0.2,0.5-1.1,1.8-2.1,3.4
							C232.2,250.7,232.8,249.9,233.9,248.1z M201.5,98l-0.5,1.3C201.7,96.2,201.6,97.1,201.5,98z"/>
						<path class="st1" d="M18.8,423.5c0.2-0.4,0.4-0.5,0.5-0.6C19.5,422.3,19.4,422.2,18.8,423.5z"/>
						<path class="st1" d="M180,245.2l0.2-0.2c0.1-0.1,0.1-0.2,0.1-0.2L180,245.2z"/>
						<path class="st1" d="M175.4,344.1c-0.9,1.2-1.4,1.8-1.8,2.3C173.6,346.5,174.1,346,175.4,344.1z"/>
						<path class="st1" d="M254.7,215.7l-2.5,3.9c1.2-1.9,1.8-2.5,2.5-3.4C254.5,216.3,253.9,216.9,254.7,215.7z"/>
						<path class="st1" d="M294.4,221.1c0.7,0,1.4,0,2.1,0l-0.2-0.2C293.5,220.9,291.5,220.9,294.4,221.1z"/>
						<path class="st1" d="M259,212.5c0.3,0.3,1.3,0.7,2.7,1.3c0.6,0.2,1.2,0.4,1.9,0.7c0.7,0.2,1.4,0.5,2.2,0.7
							c-0.2-0.1-0.4-0.1-0.5-0.2c0.5-0.1,0-0.3-1.1-0.7C262.8,213.8,260.9,213.2,259,212.5z"/>
						<path class="st1" d="M266.5,215.4c1,0.3,1.9,0.6,2.9,0.9C269.8,216.2,268.2,215.9,266.5,215.4z"/>
						<path class="st1" d="M238.8,240.3c0.9-1.2,0.1-1.1,0.7-1.7C240.1,236.8,234.3,247.4,238.8,240.3z"/>
						<path class="st1" d="M261.8,214.8c-0.3-0.3-0.7-0.5-1.1-0.9l-0.9-0.2l-0.4-0.1l-0.2,0c-0.1,0-0.1,0-0.2,0.1c0,0,0-0.1,0.1-0.1
							l0.1,0l0.2,0.1l0.4,0.2l0.7,0.3C260.9,214.4,261.3,214.6,261.8,214.8z"/>
						<path class="st1" d="M246.2,232.6l3-4.3c-0.1,0,0.2-0.6,0.6-1.2C248.1,229.8,246,232.6,246.2,232.6z"/>
						<path class="st1" d="M249.8,227.1c0.9-1.4,1.8-2.7,2.3-3.5C251.6,224.3,250.5,225.9,249.8,227.1z"/>
						<polygon class="st1" points="256.9,217.4 255.9,218.6 253.9,221.6 						"/>
						<path class="st1" d="M215.2,279.2l-3,4.8c-0.2,0.6,0.8-0.6,1.9-2.5C214.8,280.3,215.9,278.5,215.2,279.2z"/>
						<path class="st1" d="M225.9,265.6c-0.9,1.2-1.1,1.2-1.7,1.9l0.4,0.5L225.9,265.6z"/>
						<path class="st1" d="M216.9,279.5c-0.2,0.6-4.1,7.2-0.2,1.1C216.9,280.1,219.9,275.2,216.9,279.5z"/>
						<polygon class="st1" points="169,350.4 169.8,349.2 168.8,348.8 						"/>
						<path class="st1" d="M129.4,414.7c3.9-5.5,0.4-1.7,4-6.6c0.7-1.4-3,4-2.2,2.5C129.2,414.1,127.8,415.8,129.4,414.7z"/>
						<path class="st1" d="M131.2,410.6c0.3-0.6,0.7-1.2,1-1.8C131.6,409.8,131.3,410.3,131.2,410.6z"/>
						<path class="st1" d="M392.8,97.1l0.5,2.1l0.4,2.1c-0.2-0.9-0.3-1.8-0.5-2.7L392.8,97.1z"/>
						<path class="st1" d="M394.6,105.2l0.1,1l0.5,2.6C395,107.8,394.7,106,394.6,105.2z"/>
						<path class="st1" d="M83.5,350.9l-0.2,0.3c0.5-0.4,1.2-1.2,2.6-2.7L83.5,350.9z"/>
						<polygon class="st1" points="123.3,307.8 122.6,308.5 124,307.3 						"/>
						<path class="st1" d="M156.2,271.1c-1.3,1.5-2.9,3.3-4.3,4.8C154.9,272.6,156.8,270.9,156.2,271.1z"/>
					</g>
				</g>
			</g>
		</g>
	</g>
	<g>
		<path class="st1" d="M288.1,62.9c-4.1,0.7-8.1,2.2-11.6,4.5c-3.5,2.3-6.5,5.2-8.5,8.8c3.7-1.8,7.1-3.4,10.6-4.6
			c3.5-1.2,7-2.2,10.5-2.8c3.6-0.6,7.2-0.9,10.8-0.8c3.7,0,7.4,0.4,11.5,0.9c-3-2.8-6.8-4.6-10.9-5.6
			C296.5,62.3,292.2,62.2,288.1,62.9z"/>
		<g>
			<g>
				<g>
					<g>
						<path class="st1" d="M288.4,64.1c-0.1,0-0.1,0.2-0.1,0.2C288.6,64.2,288.4,64,288.4,64.1z"/>
						<polygon class="st1" points="290.6,63.3 290.5,63.4 290.9,63.1 						"/>
						<path class="st1" d="M292.7,63.2c-0.2-0.4-0.8,0.1-1.1,0l-0.1-0.1l-0.2,0.3C291.8,63.3,292.4,63.1,292.7,63.2z"/>
						<path class="st1" d="M293.8,64c-0.1-0.1,0.2-0.1-0.3,0c0,0,0,0,0,0C293.6,63.9,293.7,63.9,293.8,64z"/>
						<path class="st1" d="M293.6,63.9C293.4,63.9,293.7,64.1,293.6,63.9L293.6,63.9z"/>
						<path class="st1" d="M294.6,63.9l-0.3,0.1c0.1,0.1,0.3,0.1,0.2,0.2C294.8,64.1,294.7,64,294.6,63.9z"/>
						<path class="st1" d="M294.9,63.6l-0.2,0C294.7,63.7,294.8,63.7,294.9,63.6z"/>
						<path class="st1" d="M294.4,63.8l0.3-0.1c0-0.1,0-0.2-0.1,0C294.6,63.6,294.5,63.7,294.4,63.8z"/>
						<path class="st1" d="M294.2,63.7c-0.2-0.1-0.4-0.1-0.1-0.3C293.6,63.5,293.7,63.8,294.2,63.7z"/>
						<path class="st1" d="M292.8,62.8l-0.2-0.1l-0.2,0.1C292.5,62.8,292.8,62.9,292.8,62.8z"/>
						<path class="st1" d="M296.3,64.2c0-0.1-0.1-0.2-0.1-0.3L296,64C296.1,64,296.3,64.1,296.3,64.2z"/>
						<path class="st1" d="M296.2,63.9l0.3-0.1C296.3,63.8,296.2,63.8,296.2,63.9z"/>
						<polygon class="st1" points="294.9,63.2 294.4,63.5 295,63.2 						"/>
						<polygon class="st1" points="297.5,64.4 297.3,64.5 297.7,64.3 						"/>
						<path class="st1" d="M298.3,64.5c-0.2,0.1,0.1,0.3,0,0.3c0.2,0,0.4-0.1,0.6-0.2C298.7,64.7,298.5,64.6,298.3,64.5z"/>
						<path class="st1" d="M299.2,64.5c-0.1,0-0.2,0.1-0.3,0.1C299,64.6,299.1,64.6,299.2,64.5z"/>
						<path class="st1" d="M297.1,63.9c0,0,0.1,0.2,0.2,0.2l-0.1-0.2C297.2,63.9,297.2,63.9,297.1,63.9z"/>
						<path class="st1" d="M297.2,63.9L297.2,63.9c0.1,0,0.2,0,0.3,0.1C297.5,64,297.4,63.9,297.2,63.9z"/>
						<path class="st1" d="M297.1,63.9L297.1,63.9C297.1,63.9,297.1,63.9,297.1,63.9z"/>
						<path class="st1" d="M295.8,63.5c0.2-0.1,0.6-0.2,0.2-0.4C295.9,63.2,296.1,63.3,295.8,63.5z"/>
						<path class="st1" d="M297,63.6l-0.3-0.1c0,0.1,0.1,0.1,0,0.2L297,63.6z"/>
						<polygon class="st1" points="297.1,63.6 297,63.6 297.1,63.6 						"/>
						<path class="st1" d="M298.7,64.2c0.2-0.1,0.3,0,0.5,0c-0.2-0.1-0.4-0.1-0.6-0.2C298.6,64.1,298.5,64.2,298.7,64.2z"/>
						<path class="st1" d="M298,64L298,64C298,64,298,64,298,64z"/>
						<polygon class="st1" points="300.9,64.6 300.9,64.6 300.9,64.6 						"/>
						<path class="st1" d="M298.6,64c-0.1-0.1-0.2,0-0.3,0C298.4,64,298.5,64,298.6,64C298.6,64,298.6,64,298.6,64z"/>
						<path class="st1" d="M299.7,64.5c-0.1-0.1-0.1-0.1-0.2-0.2C299.5,64.4,299.7,64.6,299.7,64.5z"/>
						<path class="st1" d="M298,64.1L298,64.1C298.1,64.2,298.1,64.1,298,64.1z"/>
						<path class="st1" d="M298,64.1c0.1,0,0.1-0.1,0.2-0.1C298.2,64,298.1,64,298,64.1C298,64.1,298,64.1,298,64.1z"/>
						<path class="st1" d="M301.8,63.4c-0.1,0.2-0.5,0.2-0.8,0c-0.4,0.1-0.3,0.7-0.1,1.2c0-0.1,0.1-0.2,0.4-0.2
							c-0.1-0.1-0.7-0.4-0.3-0.5c0.5,0,0.3,0.2,0.5,0.3c-0.1-0.3,0.7-0.2,0.7-0.6l-0.4,0C301.7,63.6,301.9,63.5,301.8,63.4z"/>
						<path class="st1" d="M300.3,64.4l-0.1,0c0.1,0.1,0.2,0.2,0.4,0.4c0.2,0,0.3-0.1,0.3-0.2L300.3,64.4L300.3,64.4z"/>
						<path class="st1" d="M299.5,64.2c0.1-0.2,0.5-0.2,0.3-0.5c-0.4-0.1-0.3,0.1-0.6,0.2C299.9,64,299.1,64,299.5,64.2
							c-0.1,0-0.2,0-0.4,0c0.1,0,0.2,0.1,0.3,0.2l0,0l0,0l0,0C299.4,64.3,299.4,64.3,299.5,64.2L299.5,64.2
							C299.5,64.3,299.5,64.3,299.5,64.2C299.7,64.3,299.5,64.3,299.5,64.2c-0.1,0.1-0.1,0.1-0.1,0.1l0,0l0.7,0
							C300,64.3,299.8,64.3,299.5,64.2z"/>
						<path class="st1" d="M296.4,62.7C296.4,62.7,296.4,62.7,296.4,62.7C296.5,62.7,296.5,62.7,296.4,62.7z"/>
						<path class="st1" d="M296.7,62.8c-0.1,0-0.1,0.1-0.3,0.1c-0.1-0.1,0-0.1,0-0.2c-0.1,0-0.3,0.1-0.1,0.3l0.1,0
							c0.3,0.1,0.6,0.4,0.5,0.4C296.9,63.2,296.8,63,296.7,62.8z"/>
						<path class="st1" d="M298.2,63.4l0.6,0l-0.2-0.2l0,0.1C298.2,63.2,298.2,63.4,298.2,63.4z"/>
						<polygon class="st1" points="300.9,64.7 300.8,64.9 301.2,64.7 						"/>
						<polygon class="st1" points="301.6,64.9 301.5,65.1 301.7,65 						"/>
						<path class="st1" d="M281.6,71.8l-0.1,0.1C281.6,71.8,281.6,71.8,281.6,71.8z"/>
						<path class="st1" d="M282.8,71.5l0-0.1C282.7,71.4,282.7,71.5,282.8,71.5z"/>
						<path class="st1" d="M304.5,66.9c-0.2-0.2-0.5-0.5-0.5-0.3l0.1,0.2C304.2,66.8,304.3,66.9,304.5,66.9z"/>
						<path class="st1" d="M292.1,68.4L292.1,68.4c0.1,0,0.2-0.1,0.2-0.2C292.2,68.3,292.1,68.4,292.1,68.4z"/>
						<path class="st1" d="M292,69.3l-0.3-0.1C291.7,69.3,291.9,69.3,292,69.3z"/>
						<path class="st1" d="M275.7,74.2l-0.1,0.3C275.9,74.3,275.7,74.3,275.7,74.2z"/>
						<path class="st1" d="M308.1,67.8c0.1,0.2,0.2,0.3,0.3,0.4C308.3,67.9,308.3,67.7,308.1,67.8z"/>
						<path class="st1" d="M281.4,69.4c-0.1,0.1-0.1,0.1-0.1,0.2C281.4,69.5,281.4,69.5,281.4,69.4z"/>
						<path class="st1" d="M308.9,68.5c0,0,0-0.1-0.1-0.1c-0.1-0.1-0.3-0.1-0.4-0.2C308.5,68.4,308.7,68.5,308.9,68.5z"/>
						<path class="st1" d="M279.1,64.5C279.1,64.5,279.1,64.5,279.1,64.5C279.1,64.4,279.1,64.4,279.1,64.5z"/>
						<path class="st1" d="M286.4,64.2c-0.1,0-0.2,0.1-0.3,0.1C286.1,64.3,286.2,64.3,286.4,64.2z"/>
						<path class="st1" d="M304.2,65.9C304.1,65.9,304.2,65.9,304.2,65.9L304.2,65.9z"/>
						<path class="st1" d="M303.9,64.9C303.9,64.9,303.9,64.8,303.9,64.9C303.9,64.8,303.9,64.9,303.9,64.9z"/>
						<path class="st1" d="M310.9,68.4C310.9,68.4,310.9,68.4,310.9,68.4C310.9,68.3,310.9,68.3,310.9,68.4z"/>
						<path class="st1" d="M304,65.8c0,0,0.1,0.1,0.2,0.1C304.2,65.9,304.1,65.8,304,65.8z"/>
						<path class="st1" d="M304,65.9c0,0-0.1,0-0.1-0.1C303.9,65.8,303.9,65.8,304,65.9z"/>
						<path class="st1" d="M304.4,66c-0.1,0-0.1-0.1-0.2-0.1c0,0,0,0,0,0C304.3,65.9,304.3,66,304.4,66z"/>
						<path class="st1" d="M269.3,73.1C269.3,73.1,269.3,73,269.3,73.1C269.3,72.9,269.3,72.9,269.3,73.1z"/>
						<polygon class="st1" points="300.3,69 300.3,69 300.3,69 						"/>
						<path class="st1" d="M299.8,69.1c0.2-0.3,0.4-0.2,0.5-0.2l-0.2-0.6L299.8,69.1z"/>
						<path class="st1" d="M279,72.7l0.4,0.1c-0.3,0.5-0.7,0.5-0.3,0.6c-0.2-0.7,1.4-0.6,1.2-1.2l0.3,0.1c-0.1,0-0.1,0.1-0.1,0.1
							c0.6,0.2,0.2-0.6,0.8-0.7c0.2,0,0.4,0,0.3,0.2l0.4-0.3c0.1,0,0.1,0.1,0,0.1l0.7-0.3l0,0c0.1-0.1,0.3-0.4,0.4-0.5
							c0.2,0-0.1,0.1,0,0.2l0.4-0.3c0.2,0.1-0.1,0.4-0.4,0.4c0.6,0.5,0.3-0.3,1.2-0.1l-0.4,0.2c0.3,0.3,0.6,0.1,1.1,0.2
							c-0.1-0.1-1-0.4-0.6-0.6c0.1,0,0.3,0,0.5-0.2c0.1,0.2,0.3,0.1,0.6,0l0.1,0.3c0.3-0.2,0.2-0.3,0.4-0.5c0.4,0,0.5,0.2,0.6,0.4
							c0.6-0.1-0.5-0.3,0.2-0.5c0.5,0,0.8-0.2,1.3-0.5c0.4,0,0,0.2,0.1,0.3l0.2-0.3c0.1,0,0.1,0.1,0.1,0.1c0.2-0.1,0-0.3,0.3-0.5
							c0-0.4,0.9,0.4,1.3-0.1c0.1,0.1,0,0.2,0,0.3c0.6-0.4,0.5-0.3,1-0.7l0.5,0.1c-0.4-0.2,0-0.5,0.4-0.8c-0.1-0.1-0.3-0.2-0.3-0.2
							l0.6-0.2c0.1,0,0,0.2-0.1,0.3c0,0,0.1-0.1,0.1-0.1c0.2,0.1,0.1,0.3,0,0.5c-0.1-0.1-0.2-0.1-0.2-0.2c-0.1,0.2-0.2,0.4-0.2,0.6
							c0,0,0.1-0.1,0.2-0.1c0,0.1-0.1,0.1,0,0.1c0,0,0.1,0,0.2-0.1l0.2,0.3l0-0.1l0.8,0.1c0.5-0.4,1-1,1.9-1.2c-0.2,0.3,0,0.4,0,0.7
							c-0.3-0.3-0.7,0.2-1.2,0.2c0.2,0,0.2,0.2,0.1,0.2l0.8-0.4c0,0.3,0.2,0.2,0.4,0.3c-0.2-0.5,0.6-0.4,0.9-0.5
							c0,0.2,0,0.3-0.5,0.3c0.5,0.4,0.6-0.6,1-0.3c-0.1,0-0.2,0-0.2,0.1c0.2-0.2,0.8-0.1,0.7,0.1l-0.1,0c0.7,0,2.1,0,2.2-0.4
							c0,0.1-0.1,0.5-0.1,0.6l1.2-1.4c-0.1,0.4,0.3,1.2-0.3,1.4c0.2,0.1,0.4,0.1,0.7,0c-0.1-0.1-0.3-0.5-0.1-0.6
							c0.4,0.4,0.3,0.2,0.8,0.6c-0.2-0.1,0-0.6,0.3-0.6c0,0.1,0,0.6-0.1,0.6l0.7-0.5c-0.2,0.1-0.1,0.5,0.1,0.6c-0.1-0.1,0.6,0,0.7,0
							l-0.3-0.1c0.7,0.1,0.8-0.7,1.5-0.7c-0.1,0.1-0.3,0.7,0.1,0.8c0.2-0.3,0.9-1.3,1.5-1.5l0.1,0.2l0.5-0.1
							c-0.4,0.4-1.3,1.2-1.8,1.5c0.3,0.2,0.1,0.2,0.5,0.2c0.1,0.2-0.2,0.2-0.4,0.2l0.9,0.2c0-0.3,0.8-0.3,0.8-0.5l-1.1,0.2
							c0-0.3,0.7-0.9,1.4-0.8c0.2,0.2-0.2,0.6-0.2,0.7c0.1-0.1,0.7-0.2,0.7-0.1l-0.3,0.1c0.4,0.2,0.7-0.4,1.1,0
							c0.2,0,0.4,0.5,0.5,0.3c-0.2-0.4-0.1-1.6,0.1-1.9c0.1,0,0.8,0.5,1,0.7c0.2,0.3-0.5,0.7-0.3,0.9c0-0.1,0.2-0.2,0.2-0.2
							c0.2,0.1-0.1,0.3,0.3,0.3c0.1-0.3,0.7,0.1,0.2-0.3c0.4-0.1,0.4,0.1,0.8,0.1c0-0.1,0-0.2,0.2-0.4l0.5-0.5l-0.3,0.1
							c-0.3,0-0.6,0-0.8-0.1c0.1-0.1,0.1-0.2,0.1-0.3c-0.5-0.5-0.8-0.9-1.3-1.3c0-0.1-0.2-0.4,0-0.4c-0.1,0-0.3,0-0.4-0.1
							c-0.2-0.5,0.4,0.2,0.4-0.2c-0.1,0.1-0.6-0.1-0.9-0.1c-0.1,0.3,0.6,0.4,0.9,0.5c-0.2,0.3-0.9,0.4-1.6,0.2
							c-0.5-0.2-0.1-0.4-0.2-0.4c-0.9-0.6-1.1,0.2-1.7-0.5c-0.2-0.4,0.2-0.5,0.2-0.7c0.5,0.1,0.5,0.5,0.8,0.6l-0.3-0.3
							c0.2,0,0.5,0.1,0.6,0.2c-0.1-0.4-1.6-0.9-2.2-1.4c-0.2,0-0.4,0-0.4,0.2l0.3,0.1c0.1,0.3-0.6,0.1-0.3,0.3
							c-0.4,0-0.8,0.1-1.2-0.2l0-0.3c0,0.1,0.2,0.3,0.4,0.2c-0.2,0.1-0.5-0.7-0.9-0.3l0.2,0.3c-0.4,0-0.9,0.2-1.2,0
							c0.1,0.3,0.1,0,0.3,0.4c-0.1-0.5,1,0.4,0.8-0.2c0.1,0.5,0.4,0.3,0.7,0.8c0-0.1-0.1-0.2,0.2-0.1c0,0,0.1,0,0.1-0.1c0,0,0,0,0,0
							l0,0c0,0,0,0,0,0c-0.1-0.1-0.1-0.1-0.1-0.2c0.2-0.1,0.8,0.1,1,0c0.2,0.1-0.1,0.1-0.1,0.2l0.3,0c-0.1,0.2,0.3,0.6-0.2,0.5
							l0.4,0.2c0.2,0.2,0.5,0.4,0.7,0.4c0.2,0.1,0.6,0,0.3,0.1l0.7,0.2l0,0.1c0.6,0.4,1.4,0.4,1.8,1.2c0.2,0.1,0.4,0.2,0.7,0.5
							l-0.1,0.2c0.3,0.1,0.5,0.7,0.8,0.6c0,0.1,0,0.3,0.1,0.4l1.3-2.8c-0.5-0.2-1.3-0.1-1.7-0.2l0,0.2c-0.4-0.1-0.7,0-1.2,0l0,0.2
							c-0.4,0.1-1-0.3-1.6-0.3c0.1-0.1,0.2,0,0.3,0c-0.7-0.6-1.6,0.2-2.3-0.2c-0.2,0.1-0.3,0-0.4,0c0,0,0,0,0,0c0,0,0,0-0.1,0
							c-0.1,0-0.1-0.1-0.2-0.1c0.1,0.1,0.1,0.1,0.2,0.1c-0.1,0-0.3,0-0.5,0l-0.1-0.2c0,0,0,0,0,0c-0.2-0.1-0.2,0.1-0.1,0.3
							c-0.1,0-0.2,0.1-0.3,0.1c-0.1-0.4-0.5,0.1-0.7-0.3c-0.1,0.2-1,0.1-1.1,0.5c0-0.1-0.1-0.1,0-0.1c-0.2-0.1-0.4-0.1-0.6,0
							l-0.1-0.3l-0.5,0.4c-0.3-0.2-0.4-0.3-0.1-0.5c-0.7,0.4-0.6,0.1-1.2,0.5l0-0.2c-0.2,0-0.5,0.3-0.7,0.1c-0.5-0.4-2.3,0-3.6-0.3
							c0.3,0.6-0.6-0.2-0.6,0.2c-0.1-0.1-0.3-0.2-0.1-0.3c-0.6,0.2-1-0.1-1.4,0.3c-0.1-0.1,0.1-0.2,0-0.3c0,0-0.2,0.1-0.3,0.1
							c-0.1-0.1,0.1-0.1,0.2-0.2c-0.6,0.1-0.7,0.5-0.7,0.9c-0.3-0.2-0.5-0.1-0.7,0.2c-0.1-0.1-0.3-0.2,0.1-0.3c-0.2,0-1.4,0-1.3,0.3
							c-0.1-0.1-0.3,0-0.4,0.1c-0.5,0.1-0.5,0-1,0.1l0.1,0c-0.1,0.4-0.4,0.2-0.8,0.3l0,0c-0.9-0.1-0.4,0.2-1.3,0.1l0.1,0.2
							c0,0.5-0.8-0.1-1.3,0.2l0.2,0.1c-0.2,0.2-0.9-0.5-1.2-0.5c-0.1,0,0.1-0.1,0.2-0.1c-0.8-0.1,0,0.3-0.5,0.5
							c-0.1-0.1,0-0.5-0.3-0.4c-0.2-0.1-0.9,0.8-1.5,0.6c0.1,0.1,0.3,0.2,0.1,0.4c-0.4,0.1-1.2-0.2-1.4,0.3c-0.1,0-0.1,0-0.1-0.1
							c-0.3,0.2-0.9,0.5-1,0.7c-0.5-0.7-1.6,1-1.9,0.3l-0.9,0.4l0-0.1c-0.6,0.2-0.7,0.4-0.8,0.7c-0.1,0-0.1-0.1-0.1-0.1
							c-0.9,0.2-0.9,0.2-1.5,0.9L275,72c-0.1,0.2-1.3,0.1-2,0.7c0,0,0-0.1,0-0.1c-0.8,0.6-2.4,0.3-2.3,1.3l-0.5,0.5
							c0.8-0.3,0.1,0.4,0.4,0.4c-0.3,0.2-0.9,0.1-0.5-0.1l0.1,0c-0.1-0.5-1,0.3-1.1,0c-0.5,0.3-1.1,0.5-1.6,0.7l1.1,1.2
							c0.5-0.8,1.1-1.5,1.6-2.2l-0.4-0.1l0.3-0.4c0.1-0.1,0.3,0,0.1,0.3c0.3,0,0.2-0.6,0.2-0.6c0.5-0.5,0.2,0.5,0.3,0.3l0.2-0.2
							l-0.1,0c0-0.3-0.1-0.4,0.2-0.7c0.2-0.2,0.3,0,0.3,0c0,0,0.1,0,0.1-0.1c0.1-0.1,0.3-0.3,0.4-0.4l-0.4,0c0.1-0.3,0.4-0.4,0-0.4
							c0.6,0,1.8-1.5,2.1-1.6c0.2-0.4,0.5-0.7,0.9-0.9c-0.1,0-0.4-0.2,0-0.4c0.3,0.6,0.8-0.2,1.3,0c-0.4-0.1,0.9-0.7,0.3-0.8
							c0.3-0.1,0.2,0.2,0.5,0.2c0.5-0.7,1.6-0.8,2.5-1.4c0-0.1-0.2-0.1-0.1-0.3l0.7,0.1c0.2-0.1-0.1-0.5,0.4-0.4
							c-0.1,0-0.2-0.1-0.1-0.2c2-0.5,3.7-1.9,5.9-1.6c-0.3-0.1-0.1-0.2,0.1-0.2c-0.1,0,0-0.2-0.1-0.3l0.9,0.1
							c0.1-0.4,0.9-0.2,0.9-0.5l-0.3,0.1c0.3-0.4-0.7-0.7-0.7-1.2c-0.3,0.5-1.2-0.4-1.8,0.4c-0.2-0.1,0.1-0.2,0-0.3
							c-0.1,0.2-0.3,0.3-0.7,0.4l0-0.1c-1,0.4-1.6,0.3-2.8,0.6l0.2,0.2c-0.3,0.1-0.3,0-0.5,0c-0.2,0.4,0.7-0.3,0.6,0.2
							c-0.5-0.3-1.7,0.7-2.2,0.3c-0.4,0.2,0.2,0.2-0.2,0.4l-0.2-0.1l0,0.2c-0.3,0.1-0.5,0-0.5-0.1c0.1,0,0.2-0.1,0.2-0.2
							c-0.4,0-0.9,0.5-1,0.5l0.4-0.1c-0.9,0.6-2.2,1.2-3,2l0.1,0c-0.6,0.6-0.6,0.3-1.3,0.9l0,0c-0.1,0.2-0.2,0.4-0.4,0.5
							c0.1-0.2-0.5,0.1-0.3-0.2c-0.6,0.7-0.2,0.4-0.4,1.1l-0.2-0.1c0,0.3,0,0.3-0.3,0.7c0.2-0.4-0.4,0-0.2-0.5
							c-1,0.3-0.7,1.3-1.5,1.2c0.1,0.7,0.8-0.4,0.7-0.1c0.3,0,0,0.5-0.2,0.7c-0.2,0.2-0.8-0.1-1.3,0.5c0.1-0.1,0-0.1,0.1-0.1
							c-0.3,0.1-0.2,0.5-0.6,0.7c0.1,0.3-0.3,0.4,0,0.6c0.1-0.2,0.2-0.4,0.4-0.6c-0.2,0.4,0,0.9-0.6,1.3c0-0.1,0-0.3,0-0.4
							c-0.2,0.1-0.2,0.3-0.4,0.4c-0.3-0.3,0.4-0.7,0.5-1.3c-0.3,0.1-0.3,0.8-0.5,0.4c0.2,0.6-0.5,0.6-0.5,1.3l-0.2-0.2
							c0,0.1,0,0.3-0.1,0.4l-0.1-0.4c0,0.5-0.6,0.6-0.7,1c0.5-0.7,0.3,0,0.7-0.2c-0.2,0.9-0.7,0.4-1.2,1l-2.6,3.4l4.5-1.4
							c0.1,0,0.2-0.1,0.3-0.2c-0.1,0.1-0.3,0.1-0.4,0.1l-3.7-0.9l2-0.9c0.1,0,0.1,0,0.1,0.1l1.6,1.6c0,0,0,0,0,0
							c0.2-0.1,0.5-0.1,0.7,0c0.6-0.4-0.2-0.2,0-0.4c0.4,0.1,0.3-0.3,0.5-0.5l0.1,0.2c0.8-0.2,0-0.6,0.8-0.7l-0.1,0.4l0.3-0.2l0,0.3
							c0.3-0.4,0.4-0.4,0.9-0.5c-0.2-0.1-0.1-0.4,0.2-0.6c0.3,0,0,0.3,0.4,0c0,0.2-0.1,0.4-0.4,0.3c0,0.1,0,0.2,0,0.3
							c0.3,0,0.6-0.3,0.8-0.3c-0.1,0-0.2,0-0.2,0l0.6-0.6c0.1,0,0.1,0.1,0,0.2c0.1-0.1,0.2-0.2,0.4-0.3c0,0.2,0.1,0.4-0.1,0.6
							l0.6-0.5c0.1,0.1,0.4,0.1,0.4,0.2c0.4-0.1,0.8-0.7,1.3-0.8c0,0,0-0.1,0.1-0.2c0.5-0.2,1-0.1,1.4-0.6l0.4,0.2
							c0.4-0.2-0.6-0.3,0.1-0.7c0.5-0.3,0.3,0.2,0.5,0.2c0.2-0.3,0.5-0.8,1.1-0.7C279.3,72.7,279.1,72.6,279,72.7z M284.4,70.9
							c-0.1,0.1-0.3,0.3-0.4,0.2C284.1,70.8,284.2,70.9,284.4,70.9z M293,68.8c-0.1,0.1-0.2,0.1-0.4,0
							C292.7,68.7,292.8,68.7,293,68.8z M305.8,66.4L305.8,66.4C306,66.6,305.9,66.5,305.8,66.4z M305.4,66.1
							C305.3,66.1,305.3,66.2,305.4,66.1c0,0,0.1,0.1,0.2,0.2C305.6,66.2,305.5,66.1,305.4,66.1z M271.6,72.8l-0.1,0
							C271.5,72.6,271.5,72.7,271.6,72.8z"/>
						<path class="st1" d="M292,69.2c0,0-0.1-0.1-0.1-0.1C291.9,69.1,291.9,69.2,292,69.2z"/>
						<path class="st1" d="M275.7,74.1L275.7,74.1C275.7,74.2,275.7,74.2,275.7,74.1L275.7,74.1z"/>
						<path class="st1" d="M309.9,69.7c-0.1,0-0.2-0.1-0.2-0.1C309.7,69.6,309.8,69.7,309.9,69.7z"/>
						<path class="st1" d="M302.8,65.5l0.3,0c-0.1,0-0.2-0.1-0.2-0.2C302.8,65.4,302.8,65.5,302.8,65.5z"/>
						<path class="st1" d="M300.4,63.2c-0.1,0-0.1,0-0.2,0l0,0.1C300.5,63.4,300.6,63.3,300.4,63.2z"/>
						<path class="st1" d="M302.7,64.6c0-0.2-0.2-0.2-0.4-0.2c0,0,0,0,0,0C302.2,64.7,302.5,64.6,302.7,64.6z"/>
						<path class="st1" d="M302.3,64.4c-0.1,0-0.1,0-0.2-0.1C302,64.4,302.1,64.4,302.3,64.4z"/>
						<path class="st1" d="M304.7,66c-0.1-0.1-0.2,0.2-0.2,0.1C304.3,66.3,305.3,66.1,304.7,66z"/>
						<polygon class="st1" points="302.8,63.9 302.8,64.2 303,64 						"/>
						<path class="st1" d="M304.4,64.8l-0.3-0.2c0,0-0.1,0-0.1,0C304.2,64.7,304.4,64.8,304.4,64.8z"/>
						<path class="st1" d="M304,64.6c-0.1,0-0.2-0.1-0.3-0.1C303.8,64.5,303.9,64.6,304,64.6z"/>
						<polygon class="st1" points="303.3,64 303.4,64.1 303.6,64.2 						"/>
						<path class="st1" d="M308,66.6l0.4,0.2c0.1,0,0-0.2-0.1-0.2C308.1,66.5,308,66.5,308,66.6z"/>
						<path class="st1" d="M307.3,65.4c0.1,0.1,0.1,0.2,0.1,0.3l0.2-0.3L307.3,65.4z"/>
						<path class="st1" d="M308.4,65.9c0.1-0.1,0.7,0.1,0.2-0.2C308.5,65.8,308.1,65.7,308.4,65.9z"/>
						<polygon class="st1" points="309.4,68.8 309.5,68.8 309.6,68.3 						"/>
						<path class="st1" d="M303.9,69.5c0.5,0.2,0.1-0.3,0.6-0.1c0.1-0.1-0.3-0.2-0.2-0.2C303.9,69.2,303.8,69.1,303.9,69.5z"/>
						<path class="st1" d="M304.2,69.1c0,0,0.1,0,0.2-0.1C304.3,69.1,304.3,69.1,304.2,69.1z"/>
						<polygon class="st1" points="287.5,64.2 287.8,64.3 287.6,64.1 						"/>
						<path class="st1" d="M288,63.7l0.1,0.3l0.1-0.3C288.2,63.8,288.1,63.8,288,63.7z"/>
						<path class="st1" d="M285.4,71.3L285.4,71.3c-0.1-0.2-0.1-0.1-0.3-0.1L285.4,71.3z"/>
						<polygon class="st1" points="281.4,72.2 281.4,72.2 281.2,71.9 						"/>
						<path class="st1" d="M278.2,73.7c0.1,0,0.3-0.2,0.4-0.2C278.3,73.6,278,73.4,278.2,73.7z"/>
					</g>
				</g>
			</g>
		</g>
	</g>
	<g>
		<g>
			<g>
				<g>
					<path class="st1" d="M375.4,121c0,0.7,0,0.5,0,0.6C375.4,120.3,375.4,121,375.4,121z"/>
					<polygon class="st1" points="374.4,108.9 374.4,109.1 374.1,107.4 					"/>
					<path class="st1" d="M371.8,97.9c0.2,1,1.2,3.9,1.5,5.9l0.1,0.3l0.2,0.9c-0.3-1.2-0.6-2.6-0.9-3.8
						C372.4,99.9,372.1,98.8,371.8,97.9z"/>
					<path class="st1" d="M370,92.2c0.1,0.4-0.5-1.2,0.5,1.3c0-0.1-0.1-0.2-0.1-0.2C370.3,93,370.2,92.7,370,92.2z"/>
					<path class="st1" d="M370.4,93.3C370.8,94.4,370.2,92.5,370.4,93.3L370.4,93.3z"/>
					<path class="st1" d="M368.3,88.2l0.7,1.4c-0.1-0.3-0.7-1.6-0.4-1.1C367.9,87,368,87.3,368.3,88.2z"/>
					<path class="st1" d="M367.6,86.8c0.1,0.2,0.3,0.5,0.4,0.7C368,87.4,367.9,87.2,367.6,86.8z"/>
					<path class="st1" d="M368.7,89.1l-0.7-1.6c0.1,0.2,0.1,0.3,0.3,0.7C368.2,88.2,368.4,88.5,368.7,89.1z"/>
					<path class="st1" d="M369.1,90c0.3,0.8,0.7,1.9,0.1,0.4C370.3,93.3,370.2,92.8,369.1,90z"/>
					<path class="st1" d="M371.6,97.4c0.1,0.4,0.2,0.7,0.3,1.1l0.3,1C372.1,99,371.6,97.3,371.6,97.4z"/>
					<path class="st1" d="M363.9,79.4c-0.1-0.1,0.2,0.5,0.2,0.6c0.2,0.3,0.4,0.7,0.6,1C364.5,80.5,363.9,79.5,363.9,79.4z"/>
					<path class="st1" d="M364.1,80.1l-1-1.5C363.9,79.9,364.1,80.2,364.1,80.1z"/>
					<path class="st1" d="M367.4,86.6c0.5,0.8,0.8,1.7,1.3,2.6c-0.5-1-0.9-2.1-1.5-3L367.4,86.6z"/>
					<path class="st1" d="M360.2,73.8l0.6,0.8c-0.4-0.5-0.7-0.9-1.1-1.4L360.2,73.8z"/>
					<path class="st1" d="M357.5,70.3c0.5,0.5-0.5-0.9,0-0.3c-0.8-0.9-1.5-1.7-2.1-2.3C356.1,68.4,356.7,69.3,357.5,70.3z"/>
					<path class="st1" d="M354.3,66.6c0.4,0.3,0.7,0.7,1.1,1.1C355,67.3,354.7,67,354.3,66.6z"/>
					<path class="st1" d="M361.5,76.1c-0.1-0.1-0.2-0.4-0.7-1.2l0.3,0.6C361.3,75.7,361.4,75.9,361.5,76.1z"/>
					<path class="st1" d="M361.2,75.6L361.2,75.6c-0.4-0.6-0.7-1.1-0.8-1.2C360.4,74.5,360.7,74.8,361.2,75.6z"/>
					<path class="st1" d="M361.6,76.2c0-0.1-0.1-0.1-0.1-0.1C361.6,76.2,361.6,76.2,361.6,76.2z"/>
					<path class="st1" d="M365.4,82.6c-0.5-0.9-1.6-2.7-0.7-0.9C365.1,82.3,364.6,81.3,365.4,82.6z"/>
					<path class="st1" d="M362,77c0.3,0.5,0.6,1,1,1.6c0,0-0.1-0.3,0.1,0.1C362.8,78.1,362.4,77.5,362,77z"/>
					<polygon class="st1" points="361.5,76.3 362,77 361.6,76.5 					"/>
					<path class="st1" d="M356.3,69.1c-0.5-0.6-1.1-1.2-1.8-2c0.7,0.8,1.4,1.6,2.1,2.4C356.7,69.7,357,70,356.3,69.1z"/>
					<path class="st1" d="M358.7,72.2c0,0-0.1-0.1-0.1-0.1C358.7,72.1,358.7,72.2,358.7,72.2z"/>
					<path class="st1" d="M347.5,60.3c0,0,0.1,0.1,0.1,0.1l0,0L347.5,60.3z"/>
					<path class="st1" d="M356.6,69.7c0.5,0.6,0.8,1,1.1,1.3c-0.4-0.5-0.8-0.9-1.2-1.4C356.5,69.5,356.5,69.5,356.6,69.7z"/>
					<path class="st1" d="M352.4,64.7c0.3,0.3,0.6,0.7,0.9,1C353,65.4,352.5,64.8,352.4,64.7z"/>
					<path class="st1" d="M358.5,71.8C358.5,71.8,358.5,71.9,358.5,71.8C358.4,71.7,358.4,71.7,358.5,71.8z"/>
					<path class="st1" d="M358.5,71.8c-0.3-0.3-0.5-0.6-0.7-0.8c0.3,0.4,0.6,0.7,0.8,1C358.6,72,358.5,71.9,358.5,71.8z"/>
					<path class="st1" d="M344.5,59.3c0.2,0,2,1.1,3.2,2.4c1.4,1.1,0.8,0-0.1-1.3c-0.1,0-0.1,0-1.6-1c0.5,0.4,3,2.8,1.7,1.9
						c-1.9-1.5-1.5-1.3-2.3-2.1c0.7,0.8-2.6-1.7-2.4-1.1c0.6,0.4,1.2,0.8,1.7,1.2C344.7,59.4,344.1,58.9,344.5,59.3z"/>
					<path class="st1" d="M350.2,62.8l0.6,0.5c-0.6-0.6-1-1.1-1.8-1.9c-1-0.8-1.2-0.9-1.3-0.9c0.9,0.8,1.9,1.6,2.7,2.5L350.2,62.8z"
						/>
					<path class="st1" d="M353.1,65.7c-0.5-0.4-1.8-1.5-1.2-0.7c1.6,1.5,1.2,1,2.1,1.9C351.6,64.4,354.8,67.7,353.1,65.7
						c0.5,0.5,0.9,1,1.3,1.4c-0.4-0.5-0.8-1-1.2-1.4c0,0,0,0,0,0.1l0,0l0,0c0.1,0.1,0.1,0.2,0,0c0,0,0,0-0.1-0.1
						C353.2,65.8,353.2,65.8,353.1,65.7c-0.7-0.8-0.1-0.1,0.1,0.1c0,0,0,0,0,0l0,0c-0.8-0.9-1.7-1.6-2.6-2.5
						C351.3,63.9,351.9,64.5,353.1,65.7z"/>
					<path class="st1" d="M363.6,80.2c-0.1-0.1,0-0.1,0-0.1C363.4,79.9,363.3,79.8,363.6,80.2z"/>
					<path class="st1" d="M362.8,78.9c0.1,0.2,0.3,0.4,0.7,1.1c0.4,0.6,0,0,0,0.1c0.3,0.4,1,1.5,0.2,0.1l-0.1-0.2
						c-0.7-1.2-1.6-2.8-1.5-2.6C362.2,77.7,362.4,78.1,362.8,78.9z"/>
					<path class="st1" d="M358.2,72.1c-0.6-0.8-1.3-1.5-1.9-2.2l0.9,1.2l0-0.1C358.2,72.2,358,71.9,358.2,72.1z"/>
					<path class="st1" d="M347.3,60.1l0.4,0.1c-0.5-0.3-1-0.6-1.5-0.9L347.3,60.1z"/>
					<path class="st1" d="M344.3,57.6l0.2,0c-0.3-0.2-0.6-0.4-0.9-0.5L344.3,57.6z"/>
					<path class="st1" d="M229.1,161.5l0.4,0.7C229.4,161.8,229.2,161.6,229.1,161.5z"/>
					<path class="st1" d="M226.2,156l-0.1-0.1C226.2,156.1,226.3,156.2,226.2,156z"/>
					<path class="st1" d="M254.5,53.5c-1.2,0.5-2.5,1.1-2.3,1.2l0.5,0C253.4,54.1,253.9,53.8,254.5,53.5z"/>
					<path class="st1" d="M219.4,106c0-0.1,0.1-0.2,0.1-0.4c0-0.3,0-0.6,0.1-0.9C219.5,105.2,219.4,105.6,219.4,106z"/>
					<path class="st1" d="M219.8,107l-0.4,1.6C219.5,108.3,219.7,107.8,219.8,107z"/>
					<path class="st1" d="M252.4,186c0.3,0.2,0.6,0.3,0.9,0.5C251.9,185.6,252.5,186,252.4,186z"/>
					<path class="st1" d="M307.9,42.4c-1.1-0.2-2-0.4-2.7-0.5C306.5,42.2,307.6,42.5,307.9,42.4z"/>
					<path class="st1" d="M227.3,159.7c0.3,0.5,0.4,0.6,0.4,0.6C227.4,159.8,227.2,159.6,227.3,159.7z"/>
					<path class="st1" d="M302,41.6c0.2,0,0.4,0.1,0.6,0.1c0.8,0,1.6,0,2.6,0.2C304.2,41.7,303.1,41.6,302,41.6z"/>
					<path class="st1" d="M361.4,165.3c0.1-0.1,0.1-0.2,0.2-0.2C361.5,165,361.5,165.1,361.4,165.3z"/>
					<path class="st1" d="M374.7,132c0,0.4-0.1,0.9-0.2,1.5C374.5,133.2,374.6,132.8,374.7,132z"/>
					<path class="st1" d="M331,49.3C331.8,49.7,331.2,49.3,331,49.3L331,49.3z"/>
					<path class="st1" d="M334.2,51.9c-0.2-0.1-0.3-0.1-0.3-0.1C334,51.8,334.1,51.8,334.2,51.9z"/>
					<path class="st1" d="M293.8,42.9C293.8,42.9,293.8,42.9,293.8,42.9C294,42.9,294,42.9,293.8,42.9z"/>
					<path class="st1" d="M332.1,50c-0.3-0.2-0.6-0.4-0.9-0.5C331.3,49.5,331.6,49.7,332.1,50z"/>
					<path class="st1" d="M332,49.8c0.2,0.1,0.4,0.2,0.6,0.4C332.7,50.2,332.7,50.1,332,49.8z"/>
					<path class="st1" d="M330,48.8c0.4,0.2,0.8,0.4,1.2,0.6c-0.1-0.1-0.2-0.1-0.2-0.1C330.8,49.2,330.5,49.1,330,48.8z"/>
					<path class="st1" d="M306.8,199c0.1,0,0.1,0,0.2,0C307.8,198.8,307.4,198.9,306.8,199z"/>
					<path class="st1" d="M239.5,68.6C239.6,68.6,239.6,68.6,239.5,68.6C239.6,68.6,239.5,68.6,239.5,68.6L239.5,68.6z"/>
					<path class="st1" d="M237.7,70.9c0.6-1.1,1.1-1.6,1.8-2.2c-0.4,0.1-0.7,0.2-1.1,0.3L237.7,70.9z"/>
					<path class="st1" d="M237.9,173.5l-1.3-1.6c1.7,1.8,2.8,3.1,1.6,1.7c-0.2-0.1-1.5-1.5-2.7-3c-0.6-0.8-1.2-1.5-1.7-2.1
						c-0.5-0.6-0.8-1-0.9-1.1l-0.7-1.1c0.2,0.3,0.3,0.4,0.5,0.7c-1.4-2.2-1.2-1.5-3-4.4c-0.6-1-1-1.8-0.5-1.1l-1.3-2.2
						c-0.4-0.7-0.2-0.5,0.1,0.1c-0.7-1.2-1.2-2.4-1.8-3.5l0,0c-0.3-0.5-0.8-1.7-1.1-2.2c-0.4-0.9,0.2,0.5,0.1,0.2
						c-0.3-0.7-0.6-1.3-0.9-2c-0.1-0.4,0-0.2,0.2,0.3c0.2,0.5,0.6,1.2,0.9,1.9c-0.6-2-0.8-1.6-2.3-5.9c0.2,0.7,0.5,1.3,0.8,1.9
						c-0.4-1.3-0.9-2.8-1.6-5.1c0.1,0.5,1.3,4.5,0.5,2.3c-0.2-0.6-0.5-1.5-0.9-2.7c0.1,0-0.3-1.2-0.7-2.8l0.1,0.1
						c-0.5-1.6-0.5-1.5-0.8-2.5c-0.4-1.9-0.4-2.3-0.4-2.7c-0.5-3,0.2,2.1-0.4-1.4c-0.1-0.6-0.2-1.2-0.3-1.8
						c-0.1-0.6-0.1-1.1-0.2-1.7c-0.1-1.1-0.4-2.3-0.5-3.8c-0.1-1.8,0.1,0.3,0.1-0.3l-0.2-1.6c0-0.4,0-0.3,0-0.2
						c-0.1-1.3-0.2-0.1-0.3-2.2c-0.1-0.3-0.1-1.4,0-2.7c0.1-1.3,0.2-2.9,0.2-4.2c0.1-0.6,0.1,0.3,0.2,0.1c0.1-3.5,0.1-3,0.3-5.9
						c0.2-0.8,0.3-1.6,0.5-2.4c-0.5,1.8-0.2-0.5,0-2.6c-0.2,0.6-0.4,1.2-0.5,1.5c0.1-1.1,0.3-2.2,0.5-3.2c0.1-0.4,0.1,0,0.1,0.5
						c0-0.2,0.1-0.4,0.1-0.6c0.3-1.1,0.3-0.5,0.3,0.3c-0.1,0.4-0.3,0.8-0.4,1.1c0,0.8,0,1.6,0.2,1.4c0-0.2,0.1-0.6,0.1-1.1
						c0,0.2,0,0.4,0,0.3c0-0.1,0-0.4,0.1-1l0.4-0.7l-0.1-0.2c0.4-1.4,0.7-2.7,1.2-4.1c0.1-0.7,0.3-1.5,0.4-2.2
						c0.2-0.7,0.4-1.5,0.5-2.3c0.2-0.8,0.4-1.7,0.7-2.6c0.3-0.9,0.6-2,1.1-3.1c-0.3,1.2,0.2,0.4,0.4,0.5c-0.4,0.5-0.7,1.4-1.1,2.5
						c-0.4,1-0.7,2.2-1.1,3.4c0.4-1.2,0.5-0.9,0.4-0.6c0.4-1.4,0.9-2.8,1.4-4.2c0.1,0.2,0.5-0.8,1.1-1.8c-0.4,0.3-0.1-0.5,0.4-1.5
						c0.4-1.1,1.2-2.4,1.5-3.2c0.2,0,0.1,0.4-0.9,2.4c1.4-2,1-3,2.4-5c-0.3,0.5-0.4,0.7-0.5,0.9c0.3-0.6,0.8-1.5,1.2-2.2
						c0.4-0.7,0.8-1.2,0.7-0.8l-0.3,0.5c0.5-0.7,1.1-1.7,1.8-2.7c0.7-1,1.4-2,2.1-3c1.4-1.9,2.5-3.5,2.6-3.8c0.1,0,0.1,0.7,0,0.9
						c1-1.9,2.1-3.8,3.3-5.7c-0.1,0.6,1.9-0.3,0,1.9c0.6-0.6,1.4-1.3,2.6-2.6c-0.5,0.4-1.4,0.6-0.8,0.1c1.9-1.2,1.2-0.9,3.4-2.5
						c-0.7,0.5-0.3-0.5,0.7-1.4c-0.1,0.2,0.4,0.3,0.1,0.7c0.7-0.9,1.5-1.8,2.3-2.6c-0.6,0.6,0.2,0.5,0.9,0.1
						c-0.2,0.1,0.4-0.4,1.1-0.9c0.7-0.5,1.6-1.1,2-1.4l-1.3,0.7c3.2-2.2,2.7-2.8,6-4.9c-0.3,0.3-0.6,1.2,1.1,0.3
						c0.6-0.7,2.8-3.2,5.8-4.9l0.7-0.1c0.8-0.4,1.6-0.9,2.4-1.2c-0.7,0.5-2,1.5-3.3,2.5c-1.4,1-2.8,2.1-3.8,2.8c1.3-0.5,0.5,0,2.4-1
						c0.7-0.2-0.9,0.7-1.5,1c1.5-0.7,3-1.5,4.5-2.1c-0.2-0.1,0.7-0.6,1.5-1.1c0.9-0.4,1.7-0.8,1.6-1c-1.7,0.7-3.3,1.6-4.9,2.5
						c-0.2-0.1,0.4-0.7,1.5-1.4c1.1-0.7,2.6-1.5,4.3-2.1c0.9-0.2-0.4,0.8-0.3,0.9c0.2-0.1,1-0.5,1.7-0.8c0.8-0.3,1.5-0.6,1.7-0.6
						l-1.4,0.7c1-0.3,1.7-0.6,2.5-1c0.8-0.4,1.7-0.6,2.8-0.8c0.8-0.2,2.5-0.2,2.6-0.4c-1.4-0.1-2-1.3-1.2-1.8c0.1,0,1.2-0.2,2.4-0.3
						c1.2-0.2,2.5-0.2,2.9-0.2c1.4,0.1-1.9,1.1-0.7,1.2c0-0.1,0.7-0.4,1-0.5c0.9-0.1-0.3,0.4,1.5,0c0.3-0.4,3.8-0.5,0.8-0.4
						c1.8-0.3,1.9-0.2,4.1-0.4c-0.7-0.2,1.9-1,3.7-1.2c-0.1,0.1,0.3,0.2,0.5,0.3c1,0,1.8,0,2.6,0c0.8,0,1.5,0.1,2.2,0.1
						c0.7,0,1.4,0.1,2.2,0.1c0.7,0.1,1.5,0.1,2.4,0.2c0.3,0.1,2,0.4,1.3,0.4c0.5,0,1-0.1,2.1,0.1c2.1,0.6-2.4-0.3-0.9,0.3
						c0.2-0.2,2.8,0,4.4,0.2c-0.2-0.2-1.1-0.4-2.1-0.5c-1-0.1-2.2-0.1-3-0.2c0-0.2,0.7-0.4,1.9-0.4c0.6,0,1.3,0,2.1,0
						c0.8,0.1,1.7,0.1,2.6,0.3c2.9,0.5,1.2,0.5,1.7,0.6c1.4,0.3,2.3,0.5,3.1,0.6c0.8,0.2,1.3,0.2,1.9,0.3c1.1,0.1,2,0.3,4.2,1.2
						c1.7,0.8-0.1,0.5,0.2,0.8c-1.2-0.3-2-0.7-2.8-1c-0.8-0.3-1.5-0.5-2.3-0.8l1.9,0.7c-0.8-0.1-2.3-0.5-3.1-0.8
						c0.4,0.2,1.1,0.4,2.1,0.7c0.5,0.1,1,0.3,1.6,0.5c0.6,0.2,1.2,0.4,1.8,0.6c0.6,0.2,1.3,0.4,1.9,0.7c0.6,0.3,1.3,0.5,1.9,0.8
						c1.3,0.5,2.4,1.1,3.4,1.5c0.7,0.2,2,0.7,1.4,0.3l-1.2-0.5c-1.1-0.7,2.4,0.8,0.9,0c0.9,0.3,1.8,0.7,2.7,1.1
						c0.5,0.2,1,0.5,1.5,0.7c0.5,0.3,1,0.6,1.6,1l0.3,0.5c0-0.1-1.4-1-2-1.3c1,0.5,3.2,2.2,4.4,2.6c-0.5-0.4-0.9-0.8-1.4-1.1
						c1.6,0.9,3.7,1.8,5.5,3.3c-0.7-0.8-0.4-0.3-1.6-1.5c1,1.1-4.9-3.2-3.2-1.7c-1.3-1.1-2.4-1.6-4.2-2.9c0,0.1,0.6,0.5-1.1-0.4
						c-0.1,0-0.3-0.1-0.4-0.1c-0.1,0-0.1,0-0.1-0.1c0,0,0.1,0,0.1,0.1c-0.1,0-0.1,0,0,0c0.4,0.3,0.7,0.5,0.8,0.6
						c-0.5-0.1-1.4-0.6-2.3-1c-0.9-0.4-1.9-0.8-2.4-1c-1-0.5,0.5,0.1,0-0.3c-0.5-0.2-1-0.3-1.5-0.5c-0.1-0.3-2.7-1.5-0.1-0.6
						l-2.3-0.9c-1.3-0.6-3.2-1.3-4.3-1.6c-1.1-0.4-2.9-0.6-1.8-0.5l-1.9-0.5l-1.9-0.4l0-0.1c-1.8-0.5-3.8-0.7-5.7-1
						c-2-0.2-4-0.5-6.2-0.9c-0.6,0-1.3,0-2-0.1c-0.8,0-1.6,0-2.7-0.1l-0.4-0.2c-0.8,0-2,0-3.1,0c-1.1,0-2.1,0-2.4,0.1
						c-0.4-0.1-1.2-0.1-2-0.1c-0.9,0-1.9,0.1-2.9,0.3c-1.1,0.2-2.1,0.3-3.1,0.5c-1,0.2-1.9,0.4-2.6,0.5l-0.1,0.3
						c-1,0.1-1.9,0.4-2.9,0.7c-1,0.3-2,0.6-3.2,1l0.2,0.2c-1,0.4-2.3,0.7-3.7,1.1c-0.7,0.2-1.5,0.4-2.3,0.7
						c-0.8,0.3-1.5,0.6-2.3,0.9c0.2-0.2,1-0.5,1.5-0.6c-4,0.9-7.5,3.7-10.9,5.1c-0.7,0.5-1.3,0.8-1.9,1.1c0.1,0,0.1-0.1,0.2-0.1
						c-0.1,0-0.2,0.1-0.3,0.2c-0.4,0.2-0.7,0.3-1.1,0.6c0.3-0.2,0.7-0.3,1-0.5c-0.6,0.4-1.5,1-2.3,1.6l-0.5,0
						c-0.1,0-0.1,0.1-0.2,0.1c-0.9,0.5-0.6,0.5-0.1,0.4c-0.4,0.3-0.8,0.6-1,0.9c-0.9,0.2-2.1,1.6-3.2,2c-0.2,0.3-1.2,1.1-2.2,2
						c-0.9,0.9-1.8,1.8-1.9,2.1c-0.1,0-0.3,0.2,0.1-0.2c-0.9,0.7-1.8,1.5-2.4,2.3l-0.6,0.1c-0.5,0.7-1,1.3-1.5,2
						c-1.2,1-1.7,1.4-0.8,0.1c-1.1,1.4-1.6,2-2,2.5c-0.4,0.5-0.8,1-1.7,2.3l0-0.2c-0.7,0.9-1.6,2.4-2.1,2.8
						c-0.9,0.9-2.7,3.4-4.5,6.4c-1.8,3-3.7,6.6-5,9.5c0.5-0.5,0.1,0.2-0.3,1c-0.4,0.8-0.9,1.8-0.7,2c-0.2,0.3-0.6,1.1-0.3,0.1
						c-0.6,1.5-0.9,2.7-1.3,3.7c-0.4,1-0.6,2-0.8,3.1c-0.2,0.3,0-0.7-0.1-0.4c0,0.3-0.2,1-0.3,1.3c-0.1,0.3,0-0.5,0.1-1
						c-0.2,0.8-0.4,1.4-0.5,1.9c-0.1,0.5-0.1,0.9-0.1,1.1c0,0.5,0.1,0.7,0.2,0.9c-0.2,0.8-0.4,1.4-0.5,2c-0.1,0.6-0.1,1.1-0.1,1.7
						c-0.2,0.6-0.4,1.5-0.1-0.5c-0.1,0.6-0.5,2.3-0.7,3.9c-0.2,1.6-0.4,3.1-0.2,3.2c-0.1,0.4-0.1,1.6-0.1,1.9
						c-0.2,2.6-0.1,2.8-0.2,5.3l0-0.7c0.2,1,0.1,2.1,0.1,4.1l0-0.1c0,2.3,0.1,2.8,0.2,3.3c0,0.2,0.1,0.5,0.1,1
						c0,0.5,0.1,1.2,0.2,2.3l0.1-0.3c0.1,0.2,0.2,1.2,0.4,2.5c0.2,1.3,0.4,2.9,0.7,4.2l-0.1-1c0.1,0.7,0.3,1.7,0.5,2.7
						c0.2,1,0.3,2,0.5,2.7c0.1,0.3-0.2-0.5-0.3-0.9c1,3.7,0.3,0.5,1.1,3.2c0.1,0.5-0.4-0.6,0.2,1.2c0.1,0.5,0.6,1.8,1.2,3.3
						c0.7,1.5,1.3,3.2,1.8,4.4c-0.2-0.5-0.4-1.1,0.2,0.1c0.8,1.9,2.2,5.1,3.3,6.6c0.1,0.2,0.2,0.3,0.2,0.3c0.4,0.7,1,1.8,1.7,2.8
						c0.7,1,1.3,1.9,1.6,2.3c0.1,0.3,0.6,1,1.1,1.8c0.6,0.8,1.2,1.8,2,2.6c1.4,1.8,2.8,3.3,2.7,3.3c0.5,0.6,1,1.2,1.6,1.8l1.7,1.7
						l-0.1-0.1c1,1.1,1.8,1.8,2.4,2.4c0.6,0.5,1,0.9,1.4,1.2c0.5,0.5,0.1,0.2,0.1,0.1c1.7,1.5,2.6,2.3,3.5,3
						c0.9,0.7,1.7,1.4,3.3,2.4l0.3,0.3c0.8,0.6,5.2,3.9,9.2,5.8c0,0-0.1,0-0.5-0.2c4.4,2.3,10.7,5.3,12.6,5.3c1,0.3,2.1,0.6,3.2,0.8
						c-4-1.2,0.7-0.1-1-0.6c0.8,0.2,1.8,0.5,2.4,0.8c0.6,0.2,0.7,0.3-0.3,0.1l-0.3-0.1c-0.8,0.2,5.1,1.4,4.9,1.5
						c8.2,1.6,16.4,2.2,24.2,1.4c-0.3-0.1-0.6-0.1-0.9-0.2c0.9-0.1,1.8-0.2,2.7-0.3c0.7,0,1,0.1-0.9,0.4c1,0.1,3.2-0.6,3.3-0.7
						c3.8-0.5-1.4,0.6-0.3,0.4l1.6-0.3l-0.4,0c0.6-0.2,1-0.3,1.4-0.4c0.5-0.1,1.1-0.3,2.2-0.5c1.5-0.3,0.8,0,1.4-0.1
						c0,0,0.2,0,0.9-0.2c1.1-0.3,2.2-0.6,3.3-0.9l-1.4,0.1c1.4-0.5,3.1-0.9,1.5-0.7c1.2-0.1,4.2-1.1,7.1-2.3
						c1.4-0.6,2.8-1.3,3.9-1.8c1.1-0.5,1.9-1,2.3-1.1c0.5-0.3,0.9-0.6,1.4-0.8c0.5-0.3,0.9-0.6,1.4-0.9c1-0.6,2-1.1,3.1-1.9
						c-0.6,0.3-1,0.3,0.9-0.9c-0.2,0.4,0.7,0,1.8-0.8c1.1-0.8,2.5-1.7,3.3-2.2c-0.7,0.4,0.5-0.6,1.7-1.5c1.1-1,2.1-1.9,1.1-1.2
						c1.4-1.2,0.2,0.1,1.3-0.8c3.2-3.1,7.1-6.8,10.4-11.3c0-0.1-0.6,0.6,0.1-0.4c0.7-0.7,1.3-1.5,1.9-2.2c0.6-0.9,0.4-0.9,1.6-2.5
						c-0.2,0.2-0.4,0.5-0.1-0.1c5.9-9,9.9-19.8,11.7-30.5c-0.3,1.5-0.1,0.5,0.1-0.6c-0.1,0.7,0,0-0.1,0.1c0.2-1.5,0.4-3,0.6-4.5
						c0-0.4,0.1-1.6,0.2-2.8c0.1-1.2,0.1-2.3,0.1-2.6l0,1.4c0-1,0-0.3-0.1,0.6c-0.1,0.9-0.2,2-0.2,1.8c0,0.6-0.1,1.2-0.1,1.8
						c-0.1,0.7-0.2,1.4-0.3,2.2c-0.2,1.6-0.5,3.3-0.8,5c-0.2,0.8,0.1-0.7,0-0.3c-0.1,0.9-0.4,1.9-0.8,3.9l0-0.2
						c-0.3,1.4-0.7,2.5-1,3.6c-0.3,1.1-0.6,2-1,3c-0.3,1-0.7,2-1.2,3.1c-0.5,1.1-0.9,2.3-1.6,3.8l0.3-0.4c-0.6,1.2-0.7,1.5-1,2
						c-0.6,1.5,1.6-3.4,1.1-2.1c-0.2,0.4-0.6,1.1-1,2c-0.4,0.9-1,1.9-1.5,3c-0.5,1-1.1,2-1.6,2.8c-0.5,0.8-0.9,1.4-1.1,1.6
						c-1.1,1.7,0.4-0.5-0.7,1.3l-0.4,0.4l-0.2,0.5c-0.8,1.1-1.3,1.6-1.3,1.6c0.2-0.3,0.5-0.8,0.7-1.1c-0.6,0.7-1.3,1.7-1.9,2.6
						c-0.6,0.9-1.3,1.6-1.4,1.9l1.3-1.5c-3.4,4.6-8.3,9.4-12.4,13l0.4-0.2c-1.5,1.4-2.3,1.9-3,2.4c-0.7,0.5-1.5,1.1-3.4,2.4l0.1-0.1
						c-0.7,0.6-1.7,1.3-2.8,2c0.9-0.7-1.9,1-0.7,0.1c-1.9,1.2-2.4,1.5-2.7,1.8c-0.3,0.2-0.4,0.4-1.6,1.3l-0.7,0.2
						c-0.9,0.6-0.9,0.7-2.9,1.7c1.7-0.9-1.4,0.4,0.4-0.7c-1.1,0.4-2.1,0.8-2.9,1.2c-0.8,0.4-1.6,0.7-2.3,1c-1.3,0.6-2.4,1-3.5,1.1
						c-1,0.6,0,0.3,1.1-0.1c1.1-0.3,2.3-0.9,1.7-0.6c0.5-0.1,0.1,0.1-0.6,0.5c-0.7,0.3-1.7,0.7-2.5,0.9c-0.7,0.2-1.4,0.3-2.3,0.4
						c-0.5,0.1-1,0.1-1.7,0.3c-0.7,0.1-1.4,0.3-2.4,0.5c0.4-0.1,0.4-0.1,0.8-0.2c-0.7,0.1-1.4,0.3-2.1,0.5c-0.7,0.2-1.5,0.4-2.4,0.4
						c-0.9,0.4-2.3,0.4-2.5,0.8l3.5-0.7c-1,0.2-1.9,0.5-3,0.8c-1.1,0.3-2.4,0.5-4.1,0.6c0.2-0.1,1.2-0.3,1.9-0.5
						c-1,0-1.8,0.3-2.8,0.3c0.1-0.2,1.2-0.3,2.5-0.5c0.6-0.1,1.4-0.2,2-0.3c0.7-0.1,1.3-0.3,1.8-0.4c-0.5,0-1.5,0.3-2.2,0.4
						c-0.7,0.1-1.2,0.2-0.7-0.1c-0.7,0.3-1.7,0.4-2.8,0.6c-1.1,0.1-2.3,0.1-3.6,0.4l0.2-0.2c-0.4,0.1-1.3,0.2-2,0.2l1.4-0.3
						c-2.1,0.3-4.1,0-6.1,0c2.1,0,2.3,0.1,2.3,0.2c-0.1,0.1-0.4,0.2,0.5,0.2c-5.2,0.2-3-0.5-8.8-0.8c0.8,0,3,0.3,1.7,0.3
						c-1.1-0.1-2.6-0.3-3.2-0.5c-3.8-0.4,0.6,0.3-1.1,0.2c-1.3-0.3-1.9-0.2-3.6-0.4l0-0.2c-1.1-0.2-1.7-0.3-2.1-0.4
						c-0.4-0.1-0.5,0-0.6,0c-0.3,0-0.4,0.1-2.4-0.4l1.7,0.1c-0.7-0.1-1.4-0.2-2-0.4c0.2,0,0.3,0,0.5-0.1c-1.1-0.2-1.8-0.4-2.5-0.6
						c-0.7-0.2-1.4-0.4-2.5-0.8c0.5,0.3-0.4,0.2-2.2-0.4c-1.2-0.5,0.7,0.2-1.9-0.8c0.6,0.1,1.3,0.3,2.4,0.8c0.1,0,0.6,0.1,0.8,0.1
						c-1.4-0.5-3.4-1.2-4.3-1.6c0.4,0.1,0.8,0.3,1,0.4c-0.6-0.2-1.3-0.4-1.9-0.6l-1.9-0.7c-0.6-0.3-0.1-0.1,0.4,0
						c-0.7-0.3-1.3-0.5-2.4-1c0.3,0,0.3,0,1.9,0.6c-1.2-0.4-2.4-1-3.5-1.5c-0.2-0.1-1.7-1-1.2-0.8c-0.9-0.5-2.1-1.1-3.3-1.8
						c-1.2-0.7-2.5-1.4-3.6-2.3c-0.1-0.1-0.4-0.2-0.9-0.6c-0.5-0.4-1.1-0.8-1.6-1.1c-0.5-0.4-1-0.8-1.5-1.2c-0.5-0.4-1-0.8-1.6-1.3
						c-0.5-0.4-1.1-0.9-1.7-1.4c-0.4-0.4-0.9-0.8-1.3-1.3c-1.8-1.7,1.7,1.8-1.4-1c-2.1-2-0.7-0.8-1.4-1.6c-0.5-0.5-1.2-1.2-2.1-2
						c-0.8-0.8-1.6-1.8-2.5-2.9C236.9,172.4,237.4,172.9,237.9,173.5z M222.6,147.4c0.1,0.3,0.3,0.7,0.4,1.1c0.2,0.4,0.3,0.8,0.4,1
						C223,148.9,222.9,148.3,222.6,147.4z M220.7,101.7c-0.1,0.4-0.2,1.1-0.5,1.8C220.4,103,220.5,102.4,220.7,101.7z M322.6,46
						C322.6,46,322.6,46,322.6,46C321.3,45.5,321.7,45.7,322.6,46z M325.2,47.1c0.3,0.1,0.3,0,0.2,0c-0.2,0-0.8-0.2-1.4-0.5
						C324.1,46.6,324.4,46.8,325.2,47.1z M315.6,198.8l-0.5,0.1C316.2,198.5,315.9,198.7,315.6,198.8z"/>
					<path class="st1" d="M219.8,106.9c-0.1,0.2-0.1,0.2-0.1,0.2C219.6,107.4,219.7,107.4,219.8,106.9z"/>
					<path class="st1" d="M252.2,185.9L252.2,185.9c0.1,0.1,0.1,0.1,0.2,0.1L252.2,185.9z"/>
					<path class="st1" d="M283.1,45c-0.6,0.1-0.9,0.1-1.1,0.1C282,45.2,282.3,45.2,283.1,45z"/>
					<path class="st1" d="M338.5,53.4c-0.5-0.3-1-0.6-1.6-0.9c0.7,0.4,1,0.6,1.3,0.9C338.3,53.4,338.1,53.1,338.5,53.4z"/>
					<path class="st1" d="M350,63.8c0.2,0.2,0.4,0.4,0.6,0.5l0-0.1C349.8,63.4,349.2,63,350,63.8z"/>
					<path class="st1" d="M339.5,54.9c0,0.2,1,0.7,2,1.5l-0.2-0.1C341.8,56.3,340.7,55.5,339.5,54.9z"/>
					<path class="st1" d="M341.8,56.5c0.3,0.2,0.6,0.4,0.9,0.7C342.9,57.2,342.4,56.9,341.8,56.5z"/>
					<path class="st1" d="M328.5,48.3c0.5,0.3,0.4-0.1,0.7,0.1C329.9,48.5,325.5,47.1,328.5,48.3z"/>
					<polygon class="st1" points="340.1,55.9 339.8,55.5 339.1,55.3 					"/>
					<path class="st1" d="M331.7,50.9l1.7,1c0,0,0.2,0,0.5,0.2C332.9,51.5,331.7,50.8,331.7,50.9z"/>
					<path class="st1" d="M333.9,52c0.6,0.3,1.1,0.6,1.4,0.8C335.1,52.6,334.4,52.2,333.9,52z"/>
					<path class="st1" d="M337.8,54.5l-0.5-0.4l-1.2-0.7C336.7,53.8,337.2,54.1,337.8,54.5z"/>
					<path class="st1" d="M311.7,44l-2.1-0.3c-0.2,0,0.3,0.2,1.1,0.3C311.2,44.1,312,44.2,311.7,44z"/>
					<path class="st1" d="M317.8,46.2c-0.5-0.2-0.6-0.3-0.9-0.4l-0.1,0.3L317.8,46.2z"/>
					<path class="st1" d="M311.8,44.8c-0.2,0-3.1-0.3-0.4,0.2C311.6,44.9,313.7,45.3,311.8,44.8z"/>
					<polygon class="st1" points="279.7,44.8 280.2,44.6 280,44.1 					"/>
					<path class="st1" d="M254.2,56.8c2.2-1.2,0.3-0.6,2.3-1.7c0.4-0.4-1.6,0.9-1.2,0.5C254.2,56.5,253.4,56.9,254.2,56.8z"/>
					<path class="st1" d="M255.4,55.6c0.2-0.2,0.4-0.3,0.6-0.5C255.6,55.4,255.5,55.5,255.4,55.6z"/>
					<path class="st1" d="M375.3,126.1c0.1-0.5,0.1-1.1,0.1-1.6l0,1.1C375.3,125.7,375.3,125.9,375.3,126.1z"/>
					<path class="st1" d="M375.3,122.9l0-0.4l0-1C375.3,121.9,375.3,122.6,375.3,122.9z"/>
					<path class="st1" d="M221.5,143l-0.1-0.1c0,0.3,0.1,0.6,0.3,1.4L221.5,143z"/>
					<polygon class="st1" points="230.3,163.2 230.1,162.8 230.4,163.5 					"/>
					<path class="st1" d="M242,177.4c-0.6-0.5-1.2-1.1-1.7-1.7C241.4,176.9,242.1,177.7,242,177.4z"/>
				</g>
			</g>
		</g>
	</g>
</g>
</svg>
