<?xml version="1.0" encoding="utf-8"?>
<!-- Generator: Adobe Illustrator 24.2.0, SVG Export Plug-In . SVG Version: 6.00 Build 0)  -->
<svg version="1.1" id="Layer_1" xmlns="http://www.w3.org/2000/svg" xmlns:xlink="http://www.w3.org/1999/xlink" x="0px" y="0px"
	 viewBox="0 0 350 500" style="enable-background:new 0 0 350 500;" xml:space="preserve">
<style type="text/css">
	.st0{fill:#863399;}
	.st1{fill:#FFC844;}
	.st2{fill:#6CCA98;}
	.st3{fill:#E74F3D;}
	.st4{fill:#A9E0C0;}
	.st5{fill:#E64783;}
	.st6{fill:#1C355E;}
	.st7{fill:#F697B2;}
	.st8{fill:#FFDD92;}
	.st9{fill-rule:evenodd;clip-rule:evenodd;fill:#863399;}
	.st10{fill:#B884C1;}
	.st11{fill-rule:evenodd;clip-rule:evenodd;fill:#E64783;}
	.st12{fill:none;stroke:#000000;stroke-width:0.25;stroke-miterlimit:10;}
	.st13{clip-path:url(#SVGID_2_);}
	.st14{fill:#7F3F98;}
	.st15{fill:#FFFFFF;}
	.st16{fill:#FA9A86;}
	.st17{fill:#B984BA;}
	.st18{fill:#F79A87;}
	.st19{fill:#1C365E;}
	.st20{fill:#71C597;}
	.st21{fill:#757F9B;}
	.st22{fill:#FFC944;}
	.st23{fill:#853795;}
	.st24{clip-path:url(#SVGID_4_);}
	.st25{clip-path:url(#SVGID_6_);}
	.st26{fill:#F1F2F2;}
	.st27{clip-path:url(#SVGID_8_);}
	.st28{clip-path:url(#SVGID_10_);}
	.st29{clip-path:url(#SVGID_12_);}
	.st30{clip-path:url(#SVGID_14_);}
	.st31{clip-path:url(#SVGID_16_);}
	.st32{clip-path:url(#SVGID_18_);}
	.st33{clip-path:url(#SVGID_20_);}
	.st34{clip-path:url(#SVGID_22_);}
	.st35{clip-path:url(#SVGID_24_);}
	.st36{clip-path:url(#SVGID_26_);}
	.st37{clip-path:url(#SVGID_28_);}
	.st38{clip-path:url(#SVGID_30_);}
	.st39{clip-path:url(#SVGID_32_);}
	.st40{clip-path:url(#SVGID_34_);}
	.st41{clip-path:url(#SVGID_36_);}
	.st42{clip-path:url(#SVGID_38_);}
	.st43{clip-path:url(#SVGID_40_);}
	.st44{clip-path:url(#SVGID_42_);}
	.st45{clip-path:url(#SVGID_44_);}
	.st46{clip-path:url(#SVGID_46_);}
	.st47{clip-path:url(#SVGID_48_);}
	.st48{clip-path:url(#SVGID_50_);}
	.st49{clip-path:url(#SVGID_52_);}
	.st50{clip-path:url(#SVGID_54_);}
	.st51{clip-path:url(#SVGID_56_);}
	.st52{clip-path:url(#SVGID_58_);}
	.st53{clip-path:url(#SVGID_60_);}
	.st54{clip-path:url(#SVGID_62_);}
	.st55{clip-path:url(#SVGID_64_);}
	.st56{clip-path:url(#SVGID_66_);}
	.st57{clip-path:url(#SVGID_68_);}
	.st58{clip-path:url(#SVGID_70_);}
	.st59{clip-path:url(#SVGID_72_);}
	.st60{clip-path:url(#SVGID_74_);}
	.st61{clip-path:url(#SVGID_76_);}
	.st62{clip-path:url(#SVGID_78_);}
	.st63{clip-path:url(#SVGID_80_);}
	.st64{clip-path:url(#SVGID_82_);}
	.st65{clip-path:url(#SVGID_84_);}
	.st66{clip-path:url(#SVGID_86_);}
	.st67{clip-path:url(#SVGID_88_);}
	.st68{clip-path:url(#SVGID_90_);}
	.st69{clip-path:url(#SVGID_92_);}
	.st70{clip-path:url(#SVGID_94_);}
	.st71{clip-path:url(#SVGID_96_);}
	.st72{clip-path:url(#SVGID_98_);}
	.st73{clip-path:url(#SVGID_100_);}
	.st74{clip-path:url(#SVGID_102_);}
	.st75{clip-path:url(#SVGID_104_);}
	.st76{clip-path:url(#SVGID_106_);}
	.st77{clip-path:url(#SVGID_108_);}
	.st78{clip-path:url(#SVGID_110_);}
	.st79{clip-path:url(#SVGID_112_);}
	.st80{clip-path:url(#SVGID_114_);}
	.st81{clip-path:url(#SVGID_116_);}
	.st82{clip-path:url(#SVGID_118_);}
	.st83{clip-path:url(#SVGID_120_);}
	.st84{clip-path:url(#SVGID_122_);}
	.st85{clip-path:url(#SVGID_124_);}
	.st86{clip-path:url(#SVGID_126_);}
	.st87{clip-path:url(#SVGID_128_);}
	.st88{clip-path:url(#SVGID_130_);}
	.st89{clip-path:url(#SVGID_132_);}
	.st90{clip-path:url(#SVGID_134_);}
	.st91{clip-path:url(#SVGID_136_);}
	.st92{clip-path:url(#SVGID_138_);}
	.st93{clip-path:url(#SVGID_140_);}
	.st94{clip-path:url(#SVGID_142_);}
	.st95{clip-path:url(#SVGID_144_);}
	.st96{clip-path:url(#SVGID_146_);}
	.st97{clip-path:url(#SVGID_148_);}
	.st98{fill:url(#);}
	.st99{clip-path:url(#SVGID_150_);}
	.st100{clip-path:url(#SVGID_152_);}
	.st101{clip-path:url(#SVGID_154_);}
	.st102{clip-path:url(#SVGID_156_);}
	.st103{clip-path:url(#SVGID_158_);}
	.st104{clip-path:url(#SVGID_160_);}
	.st105{clip-path:url(#SVGID_162_);}
	.st106{clip-path:url(#SVGID_164_);}
	.st107{clip-path:url(#SVGID_166_);}
	.st108{clip-path:url(#SVGID_168_);}
	.st109{clip-path:url(#SVGID_170_);}
	.st110{clip-path:url(#SVGID_172_);}
	.st111{clip-path:url(#SVGID_174_);}
	.st112{clip-path:url(#SVGID_176_);}
	.st113{clip-path:url(#SVGID_178_);}
	.st114{clip-path:url(#SVGID_180_);}
	.st115{clip-path:url(#SVGID_182_);}
	.st116{clip-path:url(#SVGID_184_);}
	.st117{clip-path:url(#SVGID_186_);}
	.st118{clip-path:url(#SVGID_188_);}
	.st119{clip-path:url(#SVGID_190_);}
	.st120{clip-path:url(#SVGID_192_);}
	.st121{clip-path:url(#SVGID_194_);}
	.st122{clip-path:url(#SVGID_196_);}
	.st123{clip-path:url(#SVGID_198_);}
	.st124{clip-path:url(#SVGID_200_);}
	.st125{clip-path:url(#SVGID_202_);}
	.st126{clip-path:url(#SVGID_204_);}
	.st127{clip-path:url(#SVGID_206_);}
	.st128{clip-path:url(#SVGID_208_);}
	.st129{clip-path:url(#SVGID_210_);}
	.st130{clip-path:url(#SVGID_212_);}
	.st131{clip-path:url(#SVGID_214_);}
	.st132{clip-path:url(#SVGID_216_);}
	.st133{clip-path:url(#SVGID_218_);}
	.st134{clip-path:url(#SVGID_220_);}
	.st135{clip-path:url(#SVGID_222_);}
	.st136{clip-path:url(#SVGID_224_);}
	.st137{clip-path:url(#SVGID_226_);}
	.st138{fill:#414042;}
	.st139{clip-path:url(#SVGID_228_);}
	.st140{clip-path:url(#SVGID_230_);}
	.st141{clip-path:url(#SVGID_232_);}
	.st142{clip-path:url(#SVGID_234_);}
	.st143{clip-path:url(#SVGID_236_);}
	.st144{clip-path:url(#SVGID_238_);}
	.st145{clip-path:url(#SVGID_240_);}
	.st146{clip-path:url(#SVGID_242_);}
	.st147{clip-path:url(#SVGID_244_);}
	.st148{clip-path:url(#SVGID_246_);}
	.st149{clip-path:url(#SVGID_248_);}
	.st150{clip-path:url(#SVGID_250_);}
	.st151{clip-path:url(#SVGID_252_);}
	.st152{clip-path:url(#SVGID_254_);}
	.st153{clip-path:url(#SVGID_256_);}
	.st154{clip-path:url(#SVGID_258_);}
	.st155{clip-path:url(#SVGID_260_);}
	.st156{clip-path:url(#SVGID_262_);}
	.st157{clip-path:url(#SVGID_264_);}
	.st158{clip-path:url(#SVGID_266_);}
	.st159{clip-path:url(#SVGID_268_);}
	.st160{clip-path:url(#SVGID_270_);}
	.st161{clip-path:url(#SVGID_272_);}
	.st162{clip-path:url(#SVGID_274_);}
	.st163{clip-path:url(#SVGID_276_);}
	.st164{clip-path:url(#SVGID_278_);}
	.st165{clip-path:url(#SVGID_280_);}
	.st166{clip-path:url(#SVGID_282_);}
	.st167{clip-path:url(#SVGID_284_);}
	.st168{clip-path:url(#SVGID_286_);}
	.st169{clip-path:url(#SVGID_288_);}
	.st170{clip-path:url(#SVGID_290_);}
	.st171{clip-path:url(#SVGID_292_);}
	.st172{clip-path:url(#SVGID_294_);}
	.st173{clip-path:url(#SVGID_296_);}
	.st174{clip-path:url(#SVGID_298_);}
	.st175{clip-path:url(#SVGID_300_);}
	.st176{clip-path:url(#SVGID_302_);}
	.st177{clip-path:url(#SVGID_304_);}
	.st178{clip-path:url(#SVGID_306_);}
	.st179{clip-path:url(#SVGID_308_);}
	.st180{clip-path:url(#SVGID_310_);}
	.st181{clip-path:url(#SVGID_312_);}
	.st182{clip-path:url(#SVGID_314_);}
	.st183{clip-path:url(#SVGID_316_);}
	.st184{clip-path:url(#SVGID_318_);}
	.st185{clip-path:url(#SVGID_320_);}
	.st186{clip-path:url(#SVGID_322_);}
	.st187{clip-path:url(#SVGID_324_);}
	.st188{clip-path:url(#SVGID_326_);}
	.st189{clip-path:url(#SVGID_328_);}
	.st190{clip-path:url(#SVGID_330_);}
	.st191{clip-path:url(#SVGID_332_);}
	.st192{clip-path:url(#SVGID_334_);}
	.st193{clip-path:url(#SVGID_336_);}
	.st194{clip-path:url(#SVGID_338_);}
	.st195{clip-path:url(#SVGID_340_);}
	.st196{clip-path:url(#SVGID_342_);}
	.st197{clip-path:url(#SVGID_344_);}
	.st198{clip-path:url(#SVGID_346_);}
	.st199{clip-path:url(#SVGID_348_);}
	.st200{clip-path:url(#SVGID_350_);}
	.st201{clip-path:url(#SVGID_352_);}
	.st202{clip-path:url(#SVGID_354_);}
	.st203{clip-path:url(#SVGID_356_);}
	.st204{clip-path:url(#SVGID_358_);}
	.st205{clip-path:url(#SVGID_360_);}
	.st206{clip-path:url(#SVGID_362_);}
	.st207{fill:none;}
</style>
<g>
	<path class="st1" d="M217,224.9c0.5-0.5,0.9-1.1,1.5-1.5c0.3-0.2,0.5-0.5,0.8-0.7l0.9-0.6c1.1-0.8,2.5-1.5,3.9-2.1
		c2.8-1.2,5.9-1.9,9.1-2.3c6.4-0.8,13.1-0.5,19.7,0.3c6.6,0.7,13.3,2.4,20.6,3.1c3.6,0.4,7.4,0.4,11.3-0.2c3.8-0.6,7.7-1.8,11.1-3.9
		c4.3-2.5,8-6,10.7-10c2.8-4,4.8-8.4,6.1-12.9c1.4-4.5,2.1-9.2,2.4-13.8c0.3-4.6-0.1-9.4-0.9-14c-1.5-8.5-3.1-17.1-4.8-25.6
		c-0.9-4.3-1.8-8.5-2.7-12.8l-1.5-6.4l-0.8-3.2l-1.4-5.7c-0.5-2-1-3.9-1.5-5.9c-1.9,0.8-3.8,1.7-5.7,2.5l-2.9,1.2
		c-0.5,0.2-0.9,0.4-1.5,0.6l-0.8,0.3c-2,0.7-4,1.3-6,1.9c-4,1.2-8.2,2.2-12.4,3c-8.3,1.6-16.8,2.6-25.2,2.8
		c-4.2,0.1-8.4-0.1-12.4-0.6c-4-0.5-8-1.3-11.4-2.8l-1.3-0.5c-0.4-0.2-0.8-0.4-1.2-0.6c-0.8-0.4-1.4-0.9-2.2-1.4
		c-0.3-0.2-0.6-0.5-0.9-0.8l-0.5-0.4c-0.1-0.1-0.2-0.3-0.4-0.4l-0.7-0.8c-0.2-0.3-0.4-0.6-0.6-0.9c-0.2-0.3-0.3-0.6-0.5-1l-0.2-0.5
		l-0.1-0.2l-0.1-0.3c-0.1-0.4-0.2-0.7-0.3-1.1c-0.1-0.2-0.1-0.3-0.1-0.4c0-0.1,0-0.3,0-0.5c-0.1-1.6,0-3.6,0.2-5.6
		c0.2-2,0.6-4.2,1-5.9c0.1-0.2,0.1-0.4,0.2-0.5c0-0.2,0.2-0.5,0.3-0.7l0.6-1.6l1.2-3.2c1.6-4.2,3.2-8.6,4.6-13.1
		c1.4-4.5,2.6-9.3,3-14.3c0.4-5,0.1-10.3-1.3-15.3c-1.4-4.8-3.8-9.2-6.9-12.9c-3.1-3.7-6.8-6.9-10.9-9.3c-2-1.3-4.2-2.2-6.4-3.1
		c-2.2-0.8-4.5-1.6-6.8-2c-4.6-1-9.3-1.2-13.9-0.8c-9.2,0.8-17.9,4-25.6,8.6l-1.4,0.9l-1.4,0.9c-0.9,0.6-1.8,1.2-2.7,1.8
		c-1.8,1.3-3.6,2.6-5.4,4.2c-1.7,1.5-3.4,3.3-4.8,5.2c-1.4,2-2.6,4.2-3.4,6.6c-1.1,3.1-1.4,6.5-1.3,9.6c0.1,3.2,0.7,6.2,1.6,9.1
		c1.7,5.8,4.3,10.9,6.9,15.8c2.1,4,4,8.1,5.1,12.3c1.1,4.2,1.4,8.6,0.1,12.6c-0.4,1.5-1.2,2.8-2,4.1c-0.8,1.3-1.8,2.4-3,3.5
		c-2.2,2.1-4.9,3.8-7.5,5.7c0.1,1.2,0.5,2,1.5,2.3c1,0.3,2.5,0.2,4.6-0.7c1.8-0.8,3.8-1.8,5.5-3.2c1.7-1.3,3.3-3.1,4.2-4.9
		c1-1.8,1.7-3.8,2.2-5.8c0.5-2,0.6-4.1,0.6-6c-0.1-4-1-7.6-2.1-11c-2.2-6.8-5.3-13-7.3-19.3c-1-3.1-2.2-6.3-3-9.4
		c-0.4-1.6-0.7-3.2-0.9-4.8c-0.1-0.8-0.1-1.6-0.1-2.4c0-0.4,0-0.8,0-1.2l0.1-1.2c0.2-1.7,0.6-3.3,1.4-4.8c0.7-1.5,1.6-3,2.7-4.3
		c2.2-2.7,5.2-4.8,8.3-6.9c3.2-2.1,6.4-4,9.7-5.6c3.3-1.6,6.8-2.9,10.3-4c6.9-2.1,14.4-2.5,21.5-0.6c3.5,0.9,6.9,2.4,10,4.4
		c3.1,2,5.9,4.5,8.2,7.3c2,2.5,3.6,5.2,4.8,8.1c1.2,2.9,1.8,6,2.1,9.1c0.6,6.3-0.6,12.7-2.3,18.9c-1.7,6.2-4.1,12.3-6.2,18.5
		c-0.6,1.6-0.9,3.3-1.2,4.9c-0.3,1.6-0.5,3.3-0.6,4.9c-0.1,1.7-0.2,3.3-0.1,5c0,0.8,0.1,1.8,0.4,2.6c0.2,0.8,0.4,1.7,0.8,2.4
		c1.4,3.4,4.2,6.2,7.3,8.1c3.1,1.9,6.6,3.1,10.1,4c7,1.7,14.2,2,21.3,1.8c7.1-0.2,14.2-0.9,21.2-2.1c7-1.2,14-2.7,20.8-4.9
		c0.7-0.2,1.5-0.5,2.2-0.7l1-0.4c0.2-0.1,0.5-0.2,0.8-0.3c1-0.4,2-0.8,3-1.2c0,0,0.1,0,0.1,0l0,0.1l0,0.2l0.1,0.3l0.2,0.6l0.3,1.3
		l0.7,2.8l1.6,7.1c1.1,4.8,2.1,9.5,3,14.3c1,4.8,1.9,9.6,2.8,14.4l1.3,7.2c0.4,2.4,0.9,4.8,1.2,7.1c1.2,9.3,0,19.1-4,27.5
		c-2,4.2-4.7,8-8.2,10.9c-3.5,2.9-7.6,4.8-12.1,5.4c-6.1,1-12.5,0-19-1.2c-3.3-0.6-6.6-1.2-10-1.6c-3.4-0.5-6.8-0.8-10.2-0.9
		c-6.9-0.3-13.9,0.1-20.8,2.3c-3.4,1.1-6.8,2.8-9.7,5.4c-2.8,2.6-5,5.8-6.4,9.2c-2.8,6.9-3,14.6-0.7,21.7c0.4,0.9,0.6,1.8,1.1,2.6
		c0.4,0.8,0.9,1.7,1.3,2.5l1.7,2.3c0.6,0.7,1.3,1.4,1.9,2.1c2.7,2.7,6,4.6,9.4,6c6.8,2.7,13.9,3.4,20.8,3.5c3.5,0,7-0.3,10.3-0.6
		c3.3-0.3,6.6-0.7,9.9-0.9c6.4-0.4,12.7-0.5,18.4,0.8c2.9,0.7,5.6,1.7,8,3.1l1.7,1.2c0.6,0.4,1.1,0.9,1.6,1.3c0.5,0.4,1,1,1.5,1.5
		l0.8,0.8l0.7,0.9c3.8,4.5,6.6,10,8.4,15.8c1.8,5.8,2.5,11.9,2.1,17.9l-0.2,2.2c-0.1,0.7-0.2,1.6-0.3,2.4l-0.6,4.9l-1.3,9.7
		l-2.7,19.5l-1.4,9.7l-0.4,2.4c0,0.1,0,0.1,0,0.1l0,0l0,0.1l0,0.2c-0.1,0.2-0.1,0.5-0.2,0.6l-0.6-0.4c0,0-0.1-0.1-0.1-0.1l0,0
		l-0.6-0.2c-0.8-0.3-1.6-0.7-2.4-1c-1.6-0.6-3.2-1.2-4.9-1.7c-1.6-0.5-3.3-1-4.9-1.5c-8.2-2.2-16.7-3.3-25.1-3.7
		c-8.4-0.4-16.7-0.2-24.9,0.1c-3,0.1-5.9,0.4-8.7,1c-2.9,0.7-5.6,1.8-8,3.6c3.1,0.2,6,0.3,8.6,0.5c2.7,0.2,5.2,0.3,7.8,0.3
		c7.8,0.1,15.5,0.2,23.3,0.7c7.7,0.5,15.4,1.4,22.9,3.1l2.8,0.7c0.9,0.2,1.8,0.5,2.8,0.8c1.9,0.5,3.7,1.1,5.5,1.7
		c0.9,0.3,1.8,0.7,2.7,1c0.8,0.3,2.1,0.8,3.2,1.3l3.4,1.6l1.7,0.8l0.4,0.2l0.2,0.1c0,0,0,0,0-0.1l0-0.1l0.1-0.9l1.9-13.3l1.7-11.5
		c1.5-9.7,2.9-19.4,4.3-29.1c0.3-2.4,0.7-5,0.7-7.6c0-1.3,0-2.6,0-3.9c-0.1-1.3-0.1-2.6-0.3-3.8c-0.6-5.1-1.8-10.1-3.8-14.9
		c-1.9-4.8-4.5-9.3-7.9-13.3c-1.6-2-3.5-3.8-5.7-5.5l-1.7-1.1c-0.3-0.2-0.6-0.4-0.8-0.6l-0.9-0.5c-0.6-0.3-1.2-0.6-1.8-0.9l-1.9-0.8
		l-0.9-0.4l-0.9-0.3l-1.9-0.6c-1.3-0.3-2.6-0.6-3.8-0.8l-1.9-0.3c-0.6-0.1-1.3-0.1-1.9-0.2c-1.3-0.1-2.6-0.2-3.8-0.2
		c-5.1-0.1-10.1,0.3-15,0.7c-3.5,0.3-6.9,0.7-10.2,1c-3.3,0.2-6.6,0.2-9.9,0c-3.3-0.2-6.5-0.7-9.6-1.6c-3-0.9-5.9-2.1-8.4-3.8
		c-2.5-1.7-4.4-3.9-5.8-6.4c-1.4-2.5-2.1-5.5-2.4-8.5c-0.3-3,0.1-6.1,0.9-9C213.8,229.8,215.1,227.1,217,224.9z"/>
	<path class="st1" d="M218.4,357.2c-0.9-0.6-2.3-0.8-4.3-0.6c-3.7,0.3-7.7,0.7-11.1,2.3c-3.4,1.6-6.7,3.7-9.5,6.5l-1,1l-1,1.1
		c-0.7,0.7-1.2,1.6-1.8,2.4c-1,1.7-2,3.4-2.6,5.2c-1.4,3.7-1.9,7.5-1.8,11.2c0,3.7,0.5,7.3,1,10.8c1,6.9,3.7,13.6,4.4,20.3
		c0.4,3.6,0.2,7.2-0.8,10.6c-0.9,3.4-2.5,6.7-4.5,9.7c-4,6.1-9.5,11.1-15.5,15.5c-5.9,4.2-12.7,7.4-20,8.4c-7.2,1.1-14.9,0-21.1-3.9
		c-5.3-3.3-9.7-8.2-12-14c-1.1-2.9-1.7-6-1.6-9.1c0.2-3.1,0.9-6.2,2.2-9.1c2.5-5.9,6.5-11.1,10-16.6c1.8-2.8,3.5-5.6,4.8-8.7
		c1.3-3.1,2.2-6.4,2.4-9.7c0.1-3.8-1.1-7.3-2.4-10.6c-1.4-3.3-3.3-6.4-5.5-9.3c-4.4-5.7-10.5-10.2-17.4-12.5
		c-6.9-2.4-14.4-2.5-21.4-1.4c-7,1.1-13.9,2.6-20.8,3.5c-2.6,0.3-5.1,0.6-7.7,0.6c-2.5,0-5-0.2-7.3-0.9l-0.8-0.3
		c-0.2-0.1-0.5-0.1-0.7-0.3c-0.4-0.2-0.7-0.6-1-0.9c-0.6-0.8-1.2-2-1.7-3.1c-1-2.3-1.7-4.7-2.4-7.2c-1.3-5-2.2-10.1-2.8-15.3
		c-0.6-5.2-1-10.3-1.1-15.5c-0.1-5.2,0.1-10.4,0.7-15.5c0.7-5.1,1.7-10.2,3.8-14.6c1.1-2.2,2.4-4.1,4.2-5.4c0.4-0.3,0.8-0.6,1.4-0.8
		l1.7-0.8c1.1-0.6,2.3-1,3.5-1.5c4.7-1.9,9.6-3.1,14.6-3.5c6.4-0.6,12.8,0,19.3,1c6.5,1,12.9,2.6,19.8,3.5c3.4,0.4,7,0.6,10.6,0.2
		c3.6-0.4,7.3-1.5,10.5-3.2c3.3-1.8,6.1-4.2,8.5-6.8c2.4-2.7,4.4-5.6,6.1-8.7c1.7-3.1,3.1-6.3,4.2-9.6c1.1-3.3,2-6.7,2.5-10.2
		c0.6-3.5,0.9-7,0.7-10.6c-0.1-1.8-0.3-3.6-0.7-5.5c-0.4-1.8-1-3.7-2.2-5.6c-0.3-0.5-0.6-0.9-1-1.4c-0.2-0.2-0.4-0.5-0.6-0.6
		l-0.5-0.5c-0.7-0.6-1.3-1.3-2-1.8c-0.7-0.6-1.4-1.2-2.1-1.7c-0.8-0.5-1.5-1.1-2.3-1.6c-3.1-2-6.5-3.4-10.1-4.3
		c-7.1-1.8-14.3-1.4-21.1-0.8c-6.6,0.7-13.1,1.6-19.4,2.1c-6.3,0.5-12.5,0.3-18.5-0.8c-1.5-0.3-3-0.7-4.4-1
		c-0.2-0.1-0.4-0.2-0.8-0.5c-0.3-0.3-0.7-0.7-1.1-1.1c-1.6-1.9-2.9-4.7-4.1-7.4c-2.3-5.7-3.9-11.9-5.1-18.1
		c-1.3-6.3-2.2-12.6-2.8-19c-0.6-6.4-0.9-12.8-0.7-19.1c0.1-3.2,0.3-6.3,0.7-9.3c0.4-3,1-6,2-8.5c0.2-0.6,0.5-1.2,0.8-1.7
		c0.1-0.2,0.3-0.5,0.4-0.6l0.2-0.3c0,0,0.1,0,0.1-0.1c0.2-0.2,1-0.6,2.1-0.9c2.3-0.6,5.3-0.6,8.3-0.5c3.8,0.2,7.7,0.6,11.6,1.1
		c3.9,0.5,7.9,1.1,11.9,1.7c4,0.6,8,1.2,12.1,1.8c4.1,0.6,8.2,1.1,12.7,1.3c1.6,0.1,3.4,0,5.1-0.2c1.5-0.2,3-0.6,4.5-1
		c2.9-0.9,5.7-2.5,7.7-4.8c-3.2,0.6-6,0.8-8.7,0.9c-2.7,0.1-5.3,0.1-7.9-0.1c-3.9-0.4-7.7-1.1-11.5-1.7c-3.8-0.7-7.6-1.4-11.4-2.1
		c-7.7-1.4-15.3-2.7-23.2-3.1c-3.9-0.2-7.9-0.3-12,0.6c-2,0.5-4.2,1.2-5.9,3c-0.8,0.9-1.3,1.8-1.8,2.8c-0.5,0.9-0.9,1.9-1.2,2.9
		c-1.3,3.9-1.9,7.8-2.3,11.8c-0.4,3.9-0.6,7.9-0.6,11.8c-0.1,9.9,0.7,19.8,2.3,29.6c0.8,4.9,1.8,9.8,3.1,14.6
		c1.3,4.8,2.9,9.6,5.3,14.3c0.6,1.2,1.3,2.3,2.1,3.4c0.8,1.1,1.7,2.2,3,3.2c0.6,0.5,1.3,0.9,2.1,1.3c0.2,0.1,0.4,0.2,0.6,0.2
		c0.2,0.1,0.5,0.2,0.6,0.2l0.9,0.2l1.9,0.5l1.9,0.4c5,1,10.1,1.2,15.2,1.1c10.1-0.3,19.9-2.3,29.4-2.9c6.6-0.4,13.2,0.1,18.8,2.6
		c2.8,1.3,5.4,3,7.8,5.1l1.7,1.6c0.3,0.4,0.7,0.8,0.9,1.4c0.6,1.1,1,2.5,1.2,3.9c0.5,2.9,0.5,6.2,0.2,9.4c-0.3,3.2-1,6.4-1.9,9.5
		c-1.8,6.2-4.5,12.3-8.4,17.2c-1,1.2-2,2.4-3.1,3.4c-0.6,0.5-1.1,1.1-1.7,1.5c-0.6,0.4-1.2,0.9-1.8,1.3c-2.5,1.6-5.2,2.7-8.1,3.3
		c-5.9,1.1-12.4,0-19.1-1.2c-6.7-1.3-13.6-2.7-20.9-3.2c-7.2-0.5-14.7,0.1-21.8,2.2c-1.1,0.3-2.2,0.7-3.3,1.1
		c-1.1,0.4-2.2,0.8-3.2,1.2l-1.6,0.7c-0.5,0.2-1,0.5-1.6,0.7l-1.6,0.8c-0.3,0.1-0.5,0.2-0.8,0.4l-1,0.6c-2.5,1.7-4.3,3.9-5.7,6.1
		c-1.3,2.2-2.3,4.5-3.1,6.8c-1.5,4.6-2.3,9.1-2.8,13.6c-0.5,4.5-0.7,9-0.6,13.5c0.1,8.9,0.9,17.8,2.6,26.6c0.9,4.4,1.9,8.8,3.6,13.3
		c0.4,1.1,0.9,2.3,1.5,3.4l0.5,0.9l0.6,0.9c0.2,0.3,0.4,0.6,0.7,1c0.3,0.4,0.7,0.8,1,1.1c0.4,0.4,0.8,0.7,1.2,1
		c0.2,0.1,0.4,0.2,0.7,0.4c0.2,0.1,0.4,0.3,0.7,0.3c1,0.4,1.5,0.5,2.2,0.8c1.3,0.3,2.7,0.6,3.9,0.7c1.3,0.2,2.6,0.2,3.9,0.2
		c1.2,0,2.5,0,3.7-0.1c2.4-0.1,4.8-0.5,7.1-0.8c4.6-0.7,9.1-1.6,13.5-2.4c4.4-0.8,8.7-1.6,12.7-1.7c4-0.2,8,0.4,11.7,1.6
		c7.4,2.4,13.7,7.7,17.7,14.5c1,1.7,1.9,3.5,2.6,5.3c0.7,1.8,1.2,3.7,1.4,5.3c0,0.2,0.1,0.4,0.1,0.6c0,0.2,0,0.4,0,0.5
		c0,0.2,0,0.3,0,0.5l-0.1,0.7l-0.1,1.3c0,0.4-0.2,0.9-0.3,1.3c-0.1,0.4-0.2,0.9-0.3,1.3l-0.5,1.3c-0.3,0.9-0.7,1.8-1.1,2.7
		c-1.7,3.6-4.1,7.1-6.7,10.8c-2.6,3.7-5.3,7.6-7.5,12.2c-2.2,4.5-3.7,10.1-3.3,15.7c0,0.7,0.1,1.4,0.2,2.1c0.1,0.7,0.2,1.4,0.4,2
		c0.4,1.3,0.7,2.7,1.2,3.9c0.4,1.3,1.1,2.5,1.7,3.7c0.3,0.6,0.7,1.2,1,1.7c0.3,0.6,0.7,1.1,1.1,1.7c2.9,4,6.6,7.5,10.8,10l1.6,0.9
		l1.7,0.8c1.1,0.6,2.3,1,3.4,1.4c1.2,0.4,2.4,0.7,3.5,1c1.2,0.2,2.4,0.5,3.5,0.6c2.4,0.4,4.8,0.4,7.1,0.4c2.4-0.1,4.7-0.3,7-0.8
		c4.6-0.9,8.9-2.4,13-4.3c8.2-3.9,15.5-9.5,21.3-16.5c2.9-3.5,5.3-7.4,7.1-11.8c1.8-4.3,2.7-9,2.8-13.7c0.1-6.2-1.2-12.1-2.6-17.5
		c-1.4-5.5-3-10.7-3.7-15.9c-0.6-4.2-0.2-8.5,1.8-12.3c1-1.9,2.2-3.6,3.7-5.1c1.5-1.5,3.3-2.7,5.1-3.8c2.7-1.5,5.8-2.5,8.9-3.4
		c3.1-0.9,6.2-1.7,9.1-3C219.6,358.6,219.3,357.8,218.4,357.2z"/>
</g>
</svg>
