<?xml version="1.0" encoding="utf-8"?>
<!-- Generator: Adobe Illustrator 24.1.3, SVG Export Plug-In . SVG Version: 6.00 Build 0)  -->
<svg version="1.1" id="Layer_1" xmlns="http://www.w3.org/2000/svg" xmlns:xlink="http://www.w3.org/1999/xlink" x="0px" y="0px" fill="#fff"
	 viewBox="0 0 318.89 326.27" style="enable-background:new 0 0 318.89 326.27;" xml:space="preserve">
<style type="text/css">
	.st0{fill:#B884C1;}
	.st1{fill:#FA9A86;}
	.st2{fill:#863399;}
	.st3{fill:#E64783;}
	.st4{fill:none;stroke:#000000;stroke-width:6;stroke-miterlimit:10;}
	.st5{fill:#FFDD92;}
	.st6{fill:#FFC844;}
	.st7{fill:#6CCA98;}
	.st8{fill:#1C355E;}
	.st9{fill:#757F9B;}
	.st10{fill:#E74F3D;}
	.st11{fill:#FFFFFF;}
	.st12{fill:#F697B2;}
	.st13{fill:#A9E0C0;}
	.st14{fill:none;stroke:#000000;stroke-width:2;stroke-miterlimit:10;}
	.st15{opacity:0.41;}
	.st16{stroke:#000000;stroke-width:4;stroke-miterlimit:10;}
	.st17{fill:none;stroke:#414042;stroke-width:2;stroke-miterlimit:10;}
	.st18{fill:#6FBB8F;}
	.st19{fill:#DB6041;}
	.st20{fill:#EC9E8B;}
	.st21{fill:#B5DEC2;}
	.st22{fill:#B086BE;}
	.st23{fill:#E99BB2;}
	.st24{fill:#FEDE9C;}
	.st25{fill:#767E99;}
	.st26{stroke:#000000;stroke-miterlimit:10;}
	.st27{fill:none;stroke:#000000;stroke-miterlimit:10;}
	.st28{fill:none;stroke:#000000;stroke-width:3;stroke-miterlimit:10;}
	.st29{fill:#7C3894;}
	.st30{fill:#83C89C;}
	.st31{fill:#FFFFFF;stroke:#000000;stroke-width:6;stroke-miterlimit:10;}
	.st32{fill:#F7CA5E;}
	.st33{fill:none;}
	.st34{fill:none;stroke:#000000;stroke-width:8;stroke-linecap:round;stroke-linejoin:round;stroke-miterlimit:10;}
	.st35{fill:#D45382;}
	.st36{fill-rule:evenodd;clip-rule:evenodd;fill:#D65A47;}
	.st37{fill-rule:evenodd;clip-rule:evenodd;fill:#83C89C;}
	.st38{fill-rule:evenodd;clip-rule:evenodd;fill:#D45382;}
	.st39{fill:#D65A47;}
	.st40{fill:#22345B;}
	.st41{fill:none;stroke:#000000;stroke-width:12;stroke-miterlimit:10;}
	.st42{fill:none;stroke:#000000;stroke-width:10;stroke-miterlimit:10;}
	.st43{opacity:0.26;}
	.st44{clip-path:url(#SVGID_8_);}
	.st45{clip-path:url(#SVGID_10_);fill:none;stroke:#B086BE;stroke-width:3.5;stroke-linecap:round;stroke-dasharray:0,6.5;}
	.st46{clip-path:url(#SVGID_10_);fill:none;stroke:#B086BE;stroke-width:3.25;stroke-linecap:round;stroke-dasharray:0,6.5;}
	.st47{clip-path:url(#SVGID_10_);fill:none;stroke:#B086BE;stroke-width:3;stroke-linecap:round;stroke-dasharray:0,6.5;}
	.st48{clip-path:url(#SVGID_10_);fill:none;stroke:#B086BE;stroke-width:2.75;stroke-linecap:round;stroke-dasharray:0,6.5;}
	.st49{clip-path:url(#SVGID_10_);fill:none;stroke:#B086BE;stroke-width:2.5;stroke-linecap:round;stroke-dasharray:0,6.5;}
	.st50{clip-path:url(#SVGID_10_);fill:none;stroke:#B086BE;stroke-width:2.25;stroke-linecap:round;stroke-dasharray:0,6.5;}
	.st51{clip-path:url(#SVGID_10_);fill:none;stroke:#B086BE;stroke-width:2;stroke-linecap:round;stroke-dasharray:0,6.5;}
	.st52{clip-path:url(#SVGID_10_);fill:none;stroke:#B086BE;stroke-width:1.75;stroke-linecap:round;stroke-dasharray:0,6.5;}
	.st53{clip-path:url(#SVGID_10_);fill:none;stroke:#B086BE;stroke-width:1.499;stroke-linecap:round;stroke-dasharray:0,6.5;}
	.st54{clip-path:url(#SVGID_10_);fill:none;stroke:#B086BE;stroke-width:1.25;stroke-linecap:round;stroke-dasharray:0,6.5;}
	.st55{clip-path:url(#SVGID_12_);fill:none;stroke:#B086BE;stroke-width:3.5;stroke-linecap:round;stroke-dasharray:0,6.5;}
	.st56{clip-path:url(#SVGID_12_);fill:none;stroke:#B086BE;stroke-width:3.25;stroke-linecap:round;stroke-dasharray:0,6.5;}
	.st57{clip-path:url(#SVGID_12_);fill:none;stroke:#B086BE;stroke-width:3;stroke-linecap:round;stroke-dasharray:0,6.5;}
	.st58{clip-path:url(#SVGID_12_);fill:none;stroke:#B086BE;stroke-width:2.75;stroke-linecap:round;stroke-dasharray:0,6.5;}
	.st59{clip-path:url(#SVGID_12_);fill:none;stroke:#B086BE;stroke-width:2.5;stroke-linecap:round;stroke-dasharray:0,6.5;}
	.st60{clip-path:url(#SVGID_12_);fill:none;stroke:#B086BE;stroke-width:2.25;stroke-linecap:round;stroke-dasharray:0,6.5;}
	.st61{clip-path:url(#SVGID_12_);fill:none;stroke:#B086BE;stroke-width:2;stroke-linecap:round;stroke-dasharray:0,6.5;}
	.st62{clip-path:url(#SVGID_12_);fill:none;stroke:#B086BE;stroke-width:1.75;stroke-linecap:round;stroke-dasharray:0,6.5;}
	.st63{clip-path:url(#SVGID_12_);fill:none;stroke:#B086BE;stroke-width:1.499;stroke-linecap:round;stroke-dasharray:0,6.5;}
	.st64{clip-path:url(#SVGID_12_);fill:none;stroke:#B086BE;stroke-width:1.25;stroke-linecap:round;stroke-dasharray:0,6.5;}
	.st65{clip-path:url(#SVGID_14_);fill:none;stroke:#B086BE;stroke-width:3.5;stroke-linecap:round;stroke-dasharray:0,6.5;}
	.st66{clip-path:url(#SVGID_14_);fill:none;stroke:#B086BE;stroke-width:3.25;stroke-linecap:round;stroke-dasharray:0,6.5;}
	.st67{clip-path:url(#SVGID_14_);fill:none;stroke:#B086BE;stroke-width:3;stroke-linecap:round;stroke-dasharray:0,6.5;}
	.st68{clip-path:url(#SVGID_14_);fill:none;stroke:#B086BE;stroke-width:2.75;stroke-linecap:round;stroke-dasharray:0,6.5;}
	.st69{clip-path:url(#SVGID_14_);fill:none;stroke:#B086BE;stroke-width:2.5;stroke-linecap:round;stroke-dasharray:0,6.5;}
	.st70{clip-path:url(#SVGID_14_);fill:none;stroke:#B086BE;stroke-width:2.25;stroke-linecap:round;stroke-dasharray:0,6.5;}
	.st71{clip-path:url(#SVGID_14_);fill:none;stroke:#B086BE;stroke-width:2;stroke-linecap:round;stroke-dasharray:0,6.5;}
	.st72{clip-path:url(#SVGID_14_);fill:none;stroke:#B086BE;stroke-width:1.75;stroke-linecap:round;stroke-dasharray:0,6.5;}
	.st73{clip-path:url(#SVGID_14_);fill:none;stroke:#B086BE;stroke-width:1.499;stroke-linecap:round;stroke-dasharray:0,6.5;}
	.st74{clip-path:url(#SVGID_14_);fill:none;stroke:#B086BE;stroke-width:1.25;stroke-linecap:round;stroke-dasharray:0,6.5;}
	.st75{clip-path:url(#SVGID_16_);fill:none;stroke:#B086BE;stroke-width:3.5;stroke-linecap:round;stroke-dasharray:0,6.5;}
	.st76{clip-path:url(#SVGID_16_);fill:none;stroke:#B086BE;stroke-width:3.25;stroke-linecap:round;stroke-dasharray:0,6.5;}
	.st77{clip-path:url(#SVGID_16_);fill:none;stroke:#B086BE;stroke-width:3;stroke-linecap:round;stroke-dasharray:0,6.5;}
	.st78{clip-path:url(#SVGID_16_);fill:none;stroke:#B086BE;stroke-width:2.75;stroke-linecap:round;stroke-dasharray:0,6.5;}
	.st79{clip-path:url(#SVGID_16_);fill:none;stroke:#B086BE;stroke-width:2.5;stroke-linecap:round;stroke-dasharray:0,6.5;}
	.st80{clip-path:url(#SVGID_16_);fill:none;stroke:#B086BE;stroke-width:2.25;stroke-linecap:round;stroke-dasharray:0,6.5;}
	.st81{clip-path:url(#SVGID_16_);fill:none;stroke:#B086BE;stroke-width:2;stroke-linecap:round;stroke-dasharray:0,6.5;}
	.st82{clip-path:url(#SVGID_16_);fill:none;stroke:#B086BE;stroke-width:1.75;stroke-linecap:round;stroke-dasharray:0,6.5;}
	.st83{clip-path:url(#SVGID_16_);fill:none;stroke:#B086BE;stroke-width:1.499;stroke-linecap:round;stroke-dasharray:0,6.5;}
	.st84{clip-path:url(#SVGID_16_);fill:none;stroke:#B086BE;stroke-width:1.25;stroke-linecap:round;stroke-dasharray:0,6.5;}
	.st85{clip-path:url(#SVGID_18_);fill:none;stroke:#B086BE;stroke-width:3.5;stroke-linecap:round;stroke-dasharray:0,6.5;}
	.st86{clip-path:url(#SVGID_18_);fill:none;stroke:#B086BE;stroke-width:3.25;stroke-linecap:round;stroke-dasharray:0,6.5;}
	.st87{clip-path:url(#SVGID_18_);fill:none;stroke:#B086BE;stroke-width:3;stroke-linecap:round;stroke-dasharray:0,6.5;}
	.st88{clip-path:url(#SVGID_18_);fill:none;stroke:#B086BE;stroke-width:2.75;stroke-linecap:round;stroke-dasharray:0,6.5;}
	.st89{clip-path:url(#SVGID_18_);fill:none;stroke:#B086BE;stroke-width:2.5;stroke-linecap:round;stroke-dasharray:0,6.5;}
	.st90{clip-path:url(#SVGID_18_);fill:none;stroke:#B086BE;stroke-width:2.25;stroke-linecap:round;stroke-dasharray:0,6.5;}
	.st91{clip-path:url(#SVGID_18_);fill:none;stroke:#B086BE;stroke-width:2;stroke-linecap:round;stroke-dasharray:0,6.5;}
	.st92{clip-path:url(#SVGID_18_);fill:none;stroke:#B086BE;stroke-width:1.75;stroke-linecap:round;stroke-dasharray:0,6.5;}
	.st93{clip-path:url(#SVGID_18_);fill:none;stroke:#B086BE;stroke-width:1.499;stroke-linecap:round;stroke-dasharray:0,6.5;}
	.st94{clip-path:url(#SVGID_18_);fill:none;stroke:#B086BE;stroke-width:1.25;stroke-linecap:round;stroke-dasharray:0,6.5;}
	.st95{clip-path:url(#SVGID_20_);fill:none;stroke:#B086BE;stroke-width:3.5;stroke-linecap:round;stroke-dasharray:0,6.5;}
	.st96{clip-path:url(#SVGID_20_);fill:none;stroke:#B086BE;stroke-width:3.25;stroke-linecap:round;stroke-dasharray:0,6.5;}
	.st97{clip-path:url(#SVGID_20_);fill:none;stroke:#B086BE;stroke-width:3;stroke-linecap:round;stroke-dasharray:0,6.5;}
	.st98{clip-path:url(#SVGID_20_);fill:none;stroke:#B086BE;stroke-width:2.75;stroke-linecap:round;stroke-dasharray:0,6.5;}
	.st99{clip-path:url(#SVGID_20_);fill:none;stroke:#B086BE;stroke-width:2.5;stroke-linecap:round;stroke-dasharray:0,6.5;}
	.st100{clip-path:url(#SVGID_20_);fill:none;stroke:#B086BE;stroke-width:2.25;stroke-linecap:round;stroke-dasharray:0,6.5;}
	.st101{clip-path:url(#SVGID_20_);fill:none;stroke:#B086BE;stroke-width:2;stroke-linecap:round;stroke-dasharray:0,6.5;}
	.st102{clip-path:url(#SVGID_20_);fill:none;stroke:#B086BE;stroke-width:1.75;stroke-linecap:round;stroke-dasharray:0,6.5;}
	.st103{clip-path:url(#SVGID_20_);fill:none;stroke:#B086BE;stroke-width:1.499;stroke-linecap:round;stroke-dasharray:0,6.5;}
	.st104{clip-path:url(#SVGID_20_);fill:none;stroke:#B086BE;stroke-width:1.25;stroke-linecap:round;stroke-dasharray:0,6.5;}
	.st105{clip-path:url(#SVGID_22_);fill:none;stroke:#B086BE;stroke-width:3.5;stroke-linecap:round;stroke-dasharray:0,6.5;}
	.st106{clip-path:url(#SVGID_22_);fill:none;stroke:#B086BE;stroke-width:3.25;stroke-linecap:round;stroke-dasharray:0,6.5;}
	.st107{clip-path:url(#SVGID_22_);fill:none;stroke:#B086BE;stroke-width:3;stroke-linecap:round;stroke-dasharray:0,6.5;}
	.st108{clip-path:url(#SVGID_22_);fill:none;stroke:#B086BE;stroke-width:2.75;stroke-linecap:round;stroke-dasharray:0,6.5;}
	.st109{clip-path:url(#SVGID_22_);fill:none;stroke:#B086BE;stroke-width:2.5;stroke-linecap:round;stroke-dasharray:0,6.5;}
	.st110{clip-path:url(#SVGID_22_);fill:none;stroke:#B086BE;stroke-width:2.25;stroke-linecap:round;stroke-dasharray:0,6.5;}
	.st111{clip-path:url(#SVGID_22_);fill:none;stroke:#B086BE;stroke-width:2;stroke-linecap:round;stroke-dasharray:0,6.5;}
	.st112{clip-path:url(#SVGID_22_);fill:none;stroke:#B086BE;stroke-width:1.75;stroke-linecap:round;stroke-dasharray:0,6.5;}
	.st113{clip-path:url(#SVGID_22_);fill:none;stroke:#B086BE;stroke-width:1.499;stroke-linecap:round;stroke-dasharray:0,6.5;}
	.st114{clip-path:url(#SVGID_22_);fill:none;stroke:#B086BE;stroke-width:1.25;stroke-linecap:round;stroke-dasharray:0,6.5;}
	.st115{clip-path:url(#SVGID_24_);fill:none;stroke:#B086BE;stroke-width:3.5;stroke-linecap:round;stroke-dasharray:0,6.5;}
	.st116{clip-path:url(#SVGID_24_);fill:none;stroke:#B086BE;stroke-width:3.25;stroke-linecap:round;stroke-dasharray:0,6.5;}
	.st117{clip-path:url(#SVGID_24_);fill:none;stroke:#B086BE;stroke-width:3;stroke-linecap:round;stroke-dasharray:0,6.5;}
	.st118{clip-path:url(#SVGID_24_);fill:none;stroke:#B086BE;stroke-width:2.75;stroke-linecap:round;stroke-dasharray:0,6.5;}
	.st119{clip-path:url(#SVGID_24_);fill:none;stroke:#B086BE;stroke-width:2.5;stroke-linecap:round;stroke-dasharray:0,6.5;}
	.st120{clip-path:url(#SVGID_24_);fill:none;stroke:#B086BE;stroke-width:2.25;stroke-linecap:round;stroke-dasharray:0,6.5;}
	.st121{clip-path:url(#SVGID_24_);fill:none;stroke:#B086BE;stroke-width:2;stroke-linecap:round;stroke-dasharray:0,6.5;}
	.st122{clip-path:url(#SVGID_24_);fill:none;stroke:#B086BE;stroke-width:1.75;stroke-linecap:round;stroke-dasharray:0,6.5;}
	.st123{clip-path:url(#SVGID_24_);fill:none;stroke:#B086BE;stroke-width:1.499;stroke-linecap:round;stroke-dasharray:0,6.5;}
	.st124{clip-path:url(#SVGID_24_);fill:none;stroke:#B086BE;stroke-width:1.25;stroke-linecap:round;stroke-dasharray:0,6.5;}
	.st125{clip-path:url(#SVGID_26_);fill:none;stroke:#B086BE;stroke-width:3.5;stroke-linecap:round;stroke-dasharray:0,6.5;}
	.st126{clip-path:url(#SVGID_26_);fill:none;stroke:#B086BE;stroke-width:3.25;stroke-linecap:round;stroke-dasharray:0,6.5;}
	.st127{clip-path:url(#SVGID_26_);fill:none;stroke:#B086BE;stroke-width:3;stroke-linecap:round;stroke-dasharray:0,6.5;}
	.st128{clip-path:url(#SVGID_26_);fill:none;stroke:#B086BE;stroke-width:2.75;stroke-linecap:round;stroke-dasharray:0,6.5;}
	.st129{clip-path:url(#SVGID_26_);fill:none;stroke:#B086BE;stroke-width:2.5;stroke-linecap:round;stroke-dasharray:0,6.5;}
	.st130{clip-path:url(#SVGID_26_);fill:none;stroke:#B086BE;stroke-width:2.25;stroke-linecap:round;stroke-dasharray:0,6.5;}
	.st131{clip-path:url(#SVGID_26_);fill:none;stroke:#B086BE;stroke-width:2;stroke-linecap:round;stroke-dasharray:0,6.5;}
	.st132{clip-path:url(#SVGID_26_);fill:none;stroke:#B086BE;stroke-width:1.75;stroke-linecap:round;stroke-dasharray:0,6.5;}
	.st133{clip-path:url(#SVGID_26_);fill:none;stroke:#B086BE;stroke-width:1.499;stroke-linecap:round;stroke-dasharray:0,6.5;}
	.st134{clip-path:url(#SVGID_26_);fill:none;stroke:#B086BE;stroke-width:1.25;stroke-linecap:round;stroke-dasharray:0,6.5;}
	.st135{clip-path:url(#SVGID_28_);fill:none;stroke:#B086BE;stroke-width:3.5;stroke-linecap:round;stroke-dasharray:0,6.5;}
	.st136{clip-path:url(#SVGID_28_);fill:none;stroke:#B086BE;stroke-width:3.25;stroke-linecap:round;stroke-dasharray:0,6.5;}
	.st137{clip-path:url(#SVGID_28_);fill:none;stroke:#B086BE;stroke-width:3;stroke-linecap:round;stroke-dasharray:0,6.5;}
	.st138{clip-path:url(#SVGID_28_);fill:none;stroke:#B086BE;stroke-width:2.75;stroke-linecap:round;stroke-dasharray:0,6.5;}
	.st139{clip-path:url(#SVGID_28_);fill:none;stroke:#B086BE;stroke-width:2.5;stroke-linecap:round;stroke-dasharray:0,6.5;}
	.st140{clip-path:url(#SVGID_28_);fill:none;stroke:#B086BE;stroke-width:2.25;stroke-linecap:round;stroke-dasharray:0,6.5;}
	.st141{clip-path:url(#SVGID_28_);fill:none;stroke:#B086BE;stroke-width:2;stroke-linecap:round;stroke-dasharray:0,6.5;}
	.st142{clip-path:url(#SVGID_28_);fill:none;stroke:#B086BE;stroke-width:1.75;stroke-linecap:round;stroke-dasharray:0,6.5;}
	.st143{clip-path:url(#SVGID_28_);fill:none;stroke:#B086BE;stroke-width:1.499;stroke-linecap:round;stroke-dasharray:0,6.5;}
	.st144{clip-path:url(#SVGID_28_);fill:none;stroke:#B086BE;stroke-width:1.25;stroke-linecap:round;stroke-dasharray:0,6.5;}
	.st145{clip-path:url(#SVGID_30_);fill:none;stroke:#B086BE;stroke-width:3.5;stroke-linecap:round;stroke-dasharray:0,6.5;}
	.st146{clip-path:url(#SVGID_30_);fill:none;stroke:#B086BE;stroke-width:3.25;stroke-linecap:round;stroke-dasharray:0,6.5;}
	.st147{clip-path:url(#SVGID_30_);fill:none;stroke:#B086BE;stroke-width:3;stroke-linecap:round;stroke-dasharray:0,6.5;}
	.st148{clip-path:url(#SVGID_30_);fill:none;stroke:#B086BE;stroke-width:2.75;stroke-linecap:round;stroke-dasharray:0,6.5;}
	.st149{clip-path:url(#SVGID_30_);fill:none;stroke:#B086BE;stroke-width:2.5;stroke-linecap:round;stroke-dasharray:0,6.5;}
	.st150{clip-path:url(#SVGID_30_);fill:none;stroke:#B086BE;stroke-width:2.25;stroke-linecap:round;stroke-dasharray:0,6.5;}
	.st151{clip-path:url(#SVGID_30_);fill:none;stroke:#B086BE;stroke-width:2;stroke-linecap:round;stroke-dasharray:0,6.5;}
	.st152{clip-path:url(#SVGID_30_);fill:none;stroke:#B086BE;stroke-width:1.75;stroke-linecap:round;stroke-dasharray:0,6.5;}
	.st153{clip-path:url(#SVGID_30_);fill:none;stroke:#B086BE;stroke-width:1.499;stroke-linecap:round;stroke-dasharray:0,6.5;}
	.st154{clip-path:url(#SVGID_30_);fill:none;stroke:#B086BE;stroke-width:1.25;stroke-linecap:round;stroke-dasharray:0,6.5;}
	.st155{clip-path:url(#SVGID_32_);fill:none;stroke:#B086BE;stroke-width:3.5;stroke-linecap:round;stroke-dasharray:0,6.5;}
	.st156{clip-path:url(#SVGID_32_);fill:none;stroke:#B086BE;stroke-width:3.25;stroke-linecap:round;stroke-dasharray:0,6.5;}
	.st157{clip-path:url(#SVGID_32_);fill:none;stroke:#B086BE;stroke-width:3;stroke-linecap:round;stroke-dasharray:0,6.5;}
	.st158{clip-path:url(#SVGID_32_);fill:none;stroke:#B086BE;stroke-width:2.75;stroke-linecap:round;stroke-dasharray:0,6.5;}
	.st159{clip-path:url(#SVGID_32_);fill:none;stroke:#B086BE;stroke-width:2.5;stroke-linecap:round;stroke-dasharray:0,6.5;}
	.st160{clip-path:url(#SVGID_32_);fill:none;stroke:#B086BE;stroke-width:2.25;stroke-linecap:round;stroke-dasharray:0,6.5;}
	.st161{clip-path:url(#SVGID_32_);fill:none;stroke:#B086BE;stroke-width:2;stroke-linecap:round;stroke-dasharray:0,6.5;}
	.st162{clip-path:url(#SVGID_32_);fill:none;stroke:#B086BE;stroke-width:1.75;stroke-linecap:round;stroke-dasharray:0,6.5;}
	.st163{clip-path:url(#SVGID_32_);fill:none;stroke:#B086BE;stroke-width:1.499;stroke-linecap:round;stroke-dasharray:0,6.5;}
	.st164{clip-path:url(#SVGID_32_);fill:none;stroke:#B086BE;stroke-width:1.25;stroke-linecap:round;stroke-dasharray:0,6.5;}
	.st165{clip-path:url(#SVGID_34_);fill:none;stroke:#B086BE;stroke-width:3.5;stroke-linecap:round;stroke-dasharray:0,6.5;}
	.st166{clip-path:url(#SVGID_34_);fill:none;stroke:#B086BE;stroke-width:3.25;stroke-linecap:round;stroke-dasharray:0,6.5;}
	.st167{clip-path:url(#SVGID_34_);fill:none;stroke:#B086BE;stroke-width:3;stroke-linecap:round;stroke-dasharray:0,6.5;}
	.st168{clip-path:url(#SVGID_34_);fill:none;stroke:#B086BE;stroke-width:2.75;stroke-linecap:round;stroke-dasharray:0,6.5;}
	.st169{clip-path:url(#SVGID_34_);fill:none;stroke:#B086BE;stroke-width:2.5;stroke-linecap:round;stroke-dasharray:0,6.5;}
	.st170{clip-path:url(#SVGID_34_);fill:none;stroke:#B086BE;stroke-width:2.25;stroke-linecap:round;stroke-dasharray:0,6.5;}
	.st171{clip-path:url(#SVGID_34_);fill:none;stroke:#B086BE;stroke-width:2;stroke-linecap:round;stroke-dasharray:0,6.5;}
	.st172{clip-path:url(#SVGID_34_);fill:none;stroke:#B086BE;stroke-width:1.75;stroke-linecap:round;stroke-dasharray:0,6.5;}
	.st173{clip-path:url(#SVGID_34_);fill:none;stroke:#B086BE;stroke-width:1.499;stroke-linecap:round;stroke-dasharray:0,6.5;}
	.st174{clip-path:url(#SVGID_34_);fill:none;stroke:#B086BE;stroke-width:1.25;stroke-linecap:round;stroke-dasharray:0,6.5;}
	.st175{clip-path:url(#SVGID_36_);fill:none;stroke:#B086BE;stroke-width:3.5;stroke-linecap:round;stroke-dasharray:0,6.5;}
	.st176{clip-path:url(#SVGID_36_);fill:none;stroke:#B086BE;stroke-width:3.25;stroke-linecap:round;stroke-dasharray:0,6.5;}
	.st177{clip-path:url(#SVGID_36_);fill:none;stroke:#B086BE;stroke-width:3;stroke-linecap:round;stroke-dasharray:0,6.5;}
	.st178{clip-path:url(#SVGID_36_);fill:none;stroke:#B086BE;stroke-width:2.75;stroke-linecap:round;stroke-dasharray:0,6.5;}
	.st179{clip-path:url(#SVGID_36_);fill:none;stroke:#B086BE;stroke-width:2.5;stroke-linecap:round;stroke-dasharray:0,6.5;}
	.st180{clip-path:url(#SVGID_36_);fill:none;stroke:#B086BE;stroke-width:2.25;stroke-linecap:round;stroke-dasharray:0,6.5;}
	.st181{clip-path:url(#SVGID_36_);fill:none;stroke:#B086BE;stroke-width:2;stroke-linecap:round;stroke-dasharray:0,6.5;}
	.st182{clip-path:url(#SVGID_36_);fill:none;stroke:#B086BE;stroke-width:1.75;stroke-linecap:round;stroke-dasharray:0,6.5;}
	.st183{clip-path:url(#SVGID_36_);fill:none;stroke:#B086BE;stroke-width:1.499;stroke-linecap:round;stroke-dasharray:0,6.5;}
	.st184{clip-path:url(#SVGID_36_);fill:none;stroke:#B086BE;stroke-width:1.25;stroke-linecap:round;stroke-dasharray:0,6.5;}
	.st185{clip-path:url(#SVGID_38_);fill:none;stroke:#B086BE;stroke-width:3.5;stroke-linecap:round;stroke-dasharray:0,6.5;}
	.st186{clip-path:url(#SVGID_38_);fill:none;stroke:#B086BE;stroke-width:3.25;stroke-linecap:round;stroke-dasharray:0,6.5;}
	.st187{clip-path:url(#SVGID_38_);fill:none;stroke:#B086BE;stroke-width:3;stroke-linecap:round;stroke-dasharray:0,6.5;}
	.st188{clip-path:url(#SVGID_38_);fill:none;stroke:#B086BE;stroke-width:2.75;stroke-linecap:round;stroke-dasharray:0,6.5;}
	.st189{clip-path:url(#SVGID_38_);fill:none;stroke:#B086BE;stroke-width:2.5;stroke-linecap:round;stroke-dasharray:0,6.5;}
	.st190{clip-path:url(#SVGID_38_);fill:none;stroke:#B086BE;stroke-width:2.25;stroke-linecap:round;stroke-dasharray:0,6.5;}
	.st191{clip-path:url(#SVGID_38_);fill:none;stroke:#B086BE;stroke-width:2;stroke-linecap:round;stroke-dasharray:0,6.5;}
	.st192{clip-path:url(#SVGID_38_);fill:none;stroke:#B086BE;stroke-width:1.75;stroke-linecap:round;stroke-dasharray:0,6.5;}
	.st193{clip-path:url(#SVGID_38_);fill:none;stroke:#B086BE;stroke-width:1.499;stroke-linecap:round;stroke-dasharray:0,6.5;}
	.st194{clip-path:url(#SVGID_38_);fill:none;stroke:#B086BE;stroke-width:1.25;stroke-linecap:round;stroke-dasharray:0,6.5;}
	.st195{clip-path:url(#SVGID_40_);fill:none;stroke:#B086BE;stroke-width:3.5;stroke-linecap:round;stroke-dasharray:0,6.5;}
	.st196{clip-path:url(#SVGID_40_);fill:none;stroke:#B086BE;stroke-width:3.25;stroke-linecap:round;stroke-dasharray:0,6.5;}
	.st197{clip-path:url(#SVGID_40_);fill:none;stroke:#B086BE;stroke-width:3;stroke-linecap:round;stroke-dasharray:0,6.5;}
	.st198{clip-path:url(#SVGID_40_);fill:none;stroke:#B086BE;stroke-width:2.75;stroke-linecap:round;stroke-dasharray:0,6.5;}
	.st199{clip-path:url(#SVGID_40_);fill:none;stroke:#B086BE;stroke-width:2.5;stroke-linecap:round;stroke-dasharray:0,6.5;}
	.st200{clip-path:url(#SVGID_40_);fill:none;stroke:#B086BE;stroke-width:2.25;stroke-linecap:round;stroke-dasharray:0,6.5;}
	.st201{clip-path:url(#SVGID_40_);fill:none;stroke:#B086BE;stroke-width:2;stroke-linecap:round;stroke-dasharray:0,6.5;}
	.st202{clip-path:url(#SVGID_40_);fill:none;stroke:#B086BE;stroke-width:1.75;stroke-linecap:round;stroke-dasharray:0,6.5;}
	.st203{clip-path:url(#SVGID_40_);fill:none;stroke:#B086BE;stroke-width:1.499;stroke-linecap:round;stroke-dasharray:0,6.5;}
	.st204{clip-path:url(#SVGID_40_);fill:none;stroke:#B086BE;stroke-width:1.25;stroke-linecap:round;stroke-dasharray:0,6.5;}
	.st205{clip-path:url(#SVGID_42_);fill:none;stroke:#B086BE;stroke-width:3.5;stroke-linecap:round;stroke-dasharray:0,6.5;}
	.st206{clip-path:url(#SVGID_42_);fill:none;stroke:#B086BE;stroke-width:3.25;stroke-linecap:round;stroke-dasharray:0,6.5;}
	.st207{clip-path:url(#SVGID_42_);fill:none;stroke:#B086BE;stroke-width:3;stroke-linecap:round;stroke-dasharray:0,6.5;}
	.st208{clip-path:url(#SVGID_42_);fill:none;stroke:#B086BE;stroke-width:2.75;stroke-linecap:round;stroke-dasharray:0,6.5;}
	.st209{clip-path:url(#SVGID_42_);fill:none;stroke:#B086BE;stroke-width:2.5;stroke-linecap:round;stroke-dasharray:0,6.5;}
	.st210{clip-path:url(#SVGID_42_);fill:none;stroke:#B086BE;stroke-width:2.25;stroke-linecap:round;stroke-dasharray:0,6.5;}
	.st211{clip-path:url(#SVGID_42_);fill:none;stroke:#B086BE;stroke-width:2;stroke-linecap:round;stroke-dasharray:0,6.5;}
	.st212{clip-path:url(#SVGID_42_);fill:none;stroke:#B086BE;stroke-width:1.75;stroke-linecap:round;stroke-dasharray:0,6.5;}
	.st213{clip-path:url(#SVGID_42_);fill:none;stroke:#B086BE;stroke-width:1.499;stroke-linecap:round;stroke-dasharray:0,6.5;}
	.st214{clip-path:url(#SVGID_42_);fill:none;stroke:#B086BE;stroke-width:1.25;stroke-linecap:round;stroke-dasharray:0,6.5;}
	.st215{clip-path:url(#SVGID_44_);fill:none;stroke:#B086BE;stroke-width:3.5;stroke-linecap:round;stroke-dasharray:0,6.5;}
	.st216{clip-path:url(#SVGID_44_);fill:none;stroke:#B086BE;stroke-width:3.25;stroke-linecap:round;stroke-dasharray:0,6.5;}
	.st217{clip-path:url(#SVGID_44_);fill:none;stroke:#B086BE;stroke-width:3;stroke-linecap:round;stroke-dasharray:0,6.5;}
	.st218{clip-path:url(#SVGID_44_);fill:none;stroke:#B086BE;stroke-width:2.75;stroke-linecap:round;stroke-dasharray:0,6.5;}
	.st219{clip-path:url(#SVGID_44_);fill:none;stroke:#B086BE;stroke-width:2.5;stroke-linecap:round;stroke-dasharray:0,6.5;}
	.st220{clip-path:url(#SVGID_44_);fill:none;stroke:#B086BE;stroke-width:2.25;stroke-linecap:round;stroke-dasharray:0,6.5;}
	.st221{clip-path:url(#SVGID_44_);fill:none;stroke:#B086BE;stroke-width:2;stroke-linecap:round;stroke-dasharray:0,6.5;}
	.st222{clip-path:url(#SVGID_44_);fill:none;stroke:#B086BE;stroke-width:1.75;stroke-linecap:round;stroke-dasharray:0,6.5;}
	.st223{clip-path:url(#SVGID_44_);fill:none;stroke:#B086BE;stroke-width:1.499;stroke-linecap:round;stroke-dasharray:0,6.5;}
	.st224{clip-path:url(#SVGID_44_);fill:none;stroke:#B086BE;stroke-width:1.25;stroke-linecap:round;stroke-dasharray:0,6.5;}
	.st225{clip-path:url(#SVGID_46_);fill:none;stroke:#B086BE;stroke-width:3.5;stroke-linecap:round;stroke-dasharray:0,6.5;}
	.st226{clip-path:url(#SVGID_46_);fill:none;stroke:#B086BE;stroke-width:3.25;stroke-linecap:round;stroke-dasharray:0,6.5;}
	.st227{clip-path:url(#SVGID_46_);fill:none;stroke:#B086BE;stroke-width:3;stroke-linecap:round;stroke-dasharray:0,6.5;}
	.st228{clip-path:url(#SVGID_46_);fill:none;stroke:#B086BE;stroke-width:2.75;stroke-linecap:round;stroke-dasharray:0,6.5;}
	.st229{clip-path:url(#SVGID_46_);fill:none;stroke:#B086BE;stroke-width:2.5;stroke-linecap:round;stroke-dasharray:0,6.5;}
	.st230{clip-path:url(#SVGID_46_);fill:none;stroke:#B086BE;stroke-width:2.25;stroke-linecap:round;stroke-dasharray:0,6.5;}
	.st231{clip-path:url(#SVGID_46_);fill:none;stroke:#B086BE;stroke-width:2;stroke-linecap:round;stroke-dasharray:0,6.5;}
	.st232{clip-path:url(#SVGID_46_);fill:none;stroke:#B086BE;stroke-width:1.75;stroke-linecap:round;stroke-dasharray:0,6.5;}
	.st233{clip-path:url(#SVGID_46_);fill:none;stroke:#B086BE;stroke-width:1.499;stroke-linecap:round;stroke-dasharray:0,6.5;}
	.st234{clip-path:url(#SVGID_46_);fill:none;stroke:#B086BE;stroke-width:1.25;stroke-linecap:round;stroke-dasharray:0,6.5;}
	.st235{clip-path:url(#SVGID_48_);fill:none;stroke:#B086BE;stroke-width:3.5;stroke-linecap:round;stroke-dasharray:0,6.5;}
	.st236{clip-path:url(#SVGID_48_);fill:none;stroke:#B086BE;stroke-width:3.25;stroke-linecap:round;stroke-dasharray:0,6.5;}
	.st237{clip-path:url(#SVGID_48_);fill:none;stroke:#B086BE;stroke-width:3;stroke-linecap:round;stroke-dasharray:0,6.5;}
	.st238{clip-path:url(#SVGID_48_);fill:none;stroke:#B086BE;stroke-width:2.75;stroke-linecap:round;stroke-dasharray:0,6.5;}
	.st239{clip-path:url(#SVGID_48_);fill:none;stroke:#B086BE;stroke-width:2.5;stroke-linecap:round;stroke-dasharray:0,6.5;}
	.st240{clip-path:url(#SVGID_48_);fill:none;stroke:#B086BE;stroke-width:2.25;stroke-linecap:round;stroke-dasharray:0,6.5;}
	.st241{clip-path:url(#SVGID_48_);fill:none;stroke:#B086BE;stroke-width:2;stroke-linecap:round;stroke-dasharray:0,6.5;}
	.st242{clip-path:url(#SVGID_48_);fill:none;stroke:#B086BE;stroke-width:1.75;stroke-linecap:round;stroke-dasharray:0,6.5;}
	.st243{clip-path:url(#SVGID_48_);fill:none;stroke:#B086BE;stroke-width:1.499;stroke-linecap:round;stroke-dasharray:0,6.5;}
	.st244{clip-path:url(#SVGID_48_);fill:none;stroke:#B086BE;stroke-width:1.25;stroke-linecap:round;stroke-dasharray:0,6.5;}
	.st245{clip-path:url(#SVGID_50_);fill:none;stroke:#B086BE;stroke-width:3.5;stroke-linecap:round;stroke-dasharray:0,6.5;}
	.st246{clip-path:url(#SVGID_50_);fill:none;stroke:#B086BE;stroke-width:3.25;stroke-linecap:round;stroke-dasharray:0,6.5;}
	.st247{clip-path:url(#SVGID_50_);fill:none;stroke:#B086BE;stroke-width:3;stroke-linecap:round;stroke-dasharray:0,6.5;}
	.st248{clip-path:url(#SVGID_50_);fill:none;stroke:#B086BE;stroke-width:2.75;stroke-linecap:round;stroke-dasharray:0,6.5;}
	.st249{clip-path:url(#SVGID_50_);fill:none;stroke:#B086BE;stroke-width:2.5;stroke-linecap:round;stroke-dasharray:0,6.5;}
	.st250{clip-path:url(#SVGID_50_);fill:none;stroke:#B086BE;stroke-width:2.25;stroke-linecap:round;stroke-dasharray:0,6.5;}
	.st251{clip-path:url(#SVGID_50_);fill:none;stroke:#B086BE;stroke-width:2;stroke-linecap:round;stroke-dasharray:0,6.5;}
	.st252{clip-path:url(#SVGID_50_);fill:none;stroke:#B086BE;stroke-width:1.75;stroke-linecap:round;stroke-dasharray:0,6.5;}
	.st253{clip-path:url(#SVGID_50_);fill:none;stroke:#B086BE;stroke-width:1.499;stroke-linecap:round;stroke-dasharray:0,6.5;}
	.st254{clip-path:url(#SVGID_50_);fill:none;stroke:#B086BE;stroke-width:1.25;stroke-linecap:round;stroke-dasharray:0,6.5;}
	.st255{clip-path:url(#SVGID_52_);fill:none;stroke:#B086BE;stroke-width:3.5;stroke-linecap:round;stroke-dasharray:0,6.5;}
	.st256{clip-path:url(#SVGID_52_);fill:none;stroke:#B086BE;stroke-width:3.25;stroke-linecap:round;stroke-dasharray:0,6.5;}
	.st257{clip-path:url(#SVGID_52_);fill:none;stroke:#B086BE;stroke-width:3;stroke-linecap:round;stroke-dasharray:0,6.5;}
	.st258{clip-path:url(#SVGID_52_);fill:none;stroke:#B086BE;stroke-width:2.75;stroke-linecap:round;stroke-dasharray:0,6.5;}
	.st259{clip-path:url(#SVGID_52_);fill:none;stroke:#B086BE;stroke-width:2.5;stroke-linecap:round;stroke-dasharray:0,6.5;}
	.st260{clip-path:url(#SVGID_52_);fill:none;stroke:#B086BE;stroke-width:2.25;stroke-linecap:round;stroke-dasharray:0,6.5;}
	.st261{clip-path:url(#SVGID_52_);fill:none;stroke:#B086BE;stroke-width:2;stroke-linecap:round;stroke-dasharray:0,6.5;}
	.st262{clip-path:url(#SVGID_52_);fill:none;stroke:#B086BE;stroke-width:1.75;stroke-linecap:round;stroke-dasharray:0,6.5;}
	.st263{clip-path:url(#SVGID_52_);fill:none;stroke:#B086BE;stroke-width:1.499;stroke-linecap:round;stroke-dasharray:0,6.5;}
	.st264{clip-path:url(#SVGID_52_);fill:none;stroke:#B086BE;stroke-width:1.25;stroke-linecap:round;stroke-dasharray:0,6.5;}
	.st265{clip-path:url(#SVGID_54_);fill:none;stroke:#B086BE;stroke-width:3.5;stroke-linecap:round;stroke-dasharray:0,6.5;}
	.st266{clip-path:url(#SVGID_54_);fill:none;stroke:#B086BE;stroke-width:3.25;stroke-linecap:round;stroke-dasharray:0,6.5;}
	.st267{clip-path:url(#SVGID_54_);fill:none;stroke:#B086BE;stroke-width:3;stroke-linecap:round;stroke-dasharray:0,6.5;}
	.st268{clip-path:url(#SVGID_54_);fill:none;stroke:#B086BE;stroke-width:2.75;stroke-linecap:round;stroke-dasharray:0,6.5;}
	.st269{clip-path:url(#SVGID_54_);fill:none;stroke:#B086BE;stroke-width:2.5;stroke-linecap:round;stroke-dasharray:0,6.5;}
	.st270{clip-path:url(#SVGID_54_);fill:none;stroke:#B086BE;stroke-width:2.25;stroke-linecap:round;stroke-dasharray:0,6.5;}
	.st271{clip-path:url(#SVGID_54_);fill:none;stroke:#B086BE;stroke-width:2;stroke-linecap:round;stroke-dasharray:0,6.5;}
	.st272{clip-path:url(#SVGID_54_);fill:none;stroke:#B086BE;stroke-width:1.75;stroke-linecap:round;stroke-dasharray:0,6.5;}
	.st273{clip-path:url(#SVGID_54_);fill:none;stroke:#B086BE;stroke-width:1.499;stroke-linecap:round;stroke-dasharray:0,6.5;}
	.st274{clip-path:url(#SVGID_54_);fill:none;stroke:#B086BE;stroke-width:1.25;stroke-linecap:round;stroke-dasharray:0,6.5;}
	.st275{clip-path:url(#SVGID_56_);fill:none;stroke:#B086BE;stroke-width:3.5;stroke-linecap:round;stroke-dasharray:0,6.5;}
	.st276{clip-path:url(#SVGID_56_);fill:none;stroke:#B086BE;stroke-width:3.25;stroke-linecap:round;stroke-dasharray:0,6.5;}
	.st277{clip-path:url(#SVGID_56_);fill:none;stroke:#B086BE;stroke-width:3;stroke-linecap:round;stroke-dasharray:0,6.5;}
	.st278{clip-path:url(#SVGID_56_);fill:none;stroke:#B086BE;stroke-width:2.75;stroke-linecap:round;stroke-dasharray:0,6.5;}
	.st279{clip-path:url(#SVGID_56_);fill:none;stroke:#B086BE;stroke-width:2.5;stroke-linecap:round;stroke-dasharray:0,6.5;}
	.st280{clip-path:url(#SVGID_56_);fill:none;stroke:#B086BE;stroke-width:2.25;stroke-linecap:round;stroke-dasharray:0,6.5;}
	.st281{clip-path:url(#SVGID_56_);fill:none;stroke:#B086BE;stroke-width:2;stroke-linecap:round;stroke-dasharray:0,6.5;}
	.st282{clip-path:url(#SVGID_56_);fill:none;stroke:#B086BE;stroke-width:1.75;stroke-linecap:round;stroke-dasharray:0,6.5;}
	.st283{clip-path:url(#SVGID_56_);fill:none;stroke:#B086BE;stroke-width:1.499;stroke-linecap:round;stroke-dasharray:0,6.5;}
	.st284{clip-path:url(#SVGID_56_);fill:none;stroke:#B086BE;stroke-width:1.25;stroke-linecap:round;stroke-dasharray:0,6.5;}
	.st285{fill-rule:evenodd;clip-rule:evenodd;}
	.st286{fill-rule:evenodd;clip-rule:evenodd;fill:#FFFFFF;}
</style>
<g>
	<polygon class="st33" points="275.78,95.72 157.99,236.22 29.41,95.1 20.34,103.37 158.37,254.86 285.19,103.6 	"/>
	<path class="st285" d="M74.34,161.06c-0.18-0.13-0.44-0.4-0.73-0.72C73.73,160.38,74.15,160.76,74.34,161.06z"/>
	<path class="st285" d="M70.07,144.02c-0.24-0.21-0.94-0.88-0.77-0.9C69.68,143.52,69.81,143.72,70.07,144.02z"/>
	<path class="st285" d="M69.09,142.66c-0.1-0.02-0.57-0.61-0.82-0.86C68.35,141.75,68.97,142.47,69.09,142.66z"/>
	<path class="st285" d="M64.95,140c-0.2-0.15-0.66-0.6-0.82-0.86C64.24,139.16,64.7,139.75,64.95,140z"/>
	<path class="st285" d="M64.47,137.5c-0.33-0.25-0.82-0.74-1.43-1.45C63.33,136.23,63.97,136.97,64.47,137.5z"/>
	<path class="st285" d="M55.67,137.56c-0.7-0.76-2.21-2.25-2.6-2.89C53.85,135.66,54.93,136.64,55.67,137.56z"/>
	<path class="st285" d="M55.92,133.57c-1-0.84-2.41-2.68-3.61-3.82c-0.05-0.27,1.64,1.78,2.05,2.05c0.26,0.3,0.44,0.54,0.63,0.79
		C55.3,132.92,55.66,133.17,55.92,133.57z"/>
	<path class="st285" d="M45.58,121.58c-0.03,0.08-0.15,0.03-0.44-0.31c-0.07-0.11-0.06-0.17-0.01-0.19L45.58,121.58z"/>
	<path class="st285" d="M40.4,117.41c-0.8-0.68-2.41-2.44-3.22-3.48c-0.13-0.12-0.18-0.09-0.39-0.34c-0.54-0.57-1.68-1.91-0.54-0.64
		C37.74,114.44,38.79,115.74,40.4,117.41z"/>
	<path class="st285" d="M40.98,115.81c-0.2-0.15-0.49-0.45-0.84-0.84C40.27,115.01,40.87,115.65,40.98,115.81z"/>
	<path class="st285" d="M36.99,117.27c-0.18-0.09-0.72-0.78-1.04-1.11C36.21,116.38,36.79,116.95,36.99,117.27z"/>
	<path class="st285" d="M39.76,115.22c-0.34-0.26-0.95-0.97-1.35-1.31C38.19,113.49,39.31,114.75,39.76,115.22z"/>
	<path class="st285" d="M39.54,114.36c-0.29-0.18-0.93-0.93-1.44-1.46C38.46,113.17,39.08,113.89,39.54,114.36z"/>
	<path class="st285" d="M35.37,116.54c-0.12,0.02-0.56-0.48-0.89-0.81C34.62,115.74,35.06,116.26,35.37,116.54z"/>
	<path class="st285" d="M35.41,115.51c-0.43-0.35-1.69-1.77-2.31-2.47C33.95,113.87,34.55,114.54,35.41,115.51z"/>
	<path class="st285" d="M37.88,112.65c-0.69-0.55-1.46-1.56-1.95-2.12C36.53,111.08,37.21,112.03,37.88,112.65z"/>
	<path class="st285" d="M35.34,111.94c-0.26-0.21-0.64-0.62-0.98-0.95C34.39,110.83,34.95,111.52,35.34,111.94z"/>
	<path class="st285" d="M34.57,110.64c-0.33-0.25-0.54-0.53-0.93-0.99C33.79,109.71,34.29,110.35,34.57,110.64z"/>
	<path class="st285" d="M33.86,109.31c-0.18-0.09-1.05-1.01-0.74-0.91c0.25,0.26,0.18,0.26,0.15,0.3
		C33.53,109.01,33.56,108.94,33.86,109.31z"/>
	<path class="st285" d="M29.76,108.23C30.42,108.76,31.25,109.95,29.76,108.23L29.76,108.23z"/>
	<path class="st285" d="M27.7,107.6c-0.51-0.47-0.96-0.99-1.5-1.61C26.58,106.34,27.49,107.32,27.7,107.6z"/>
	<path class="st285" d="M27.21,107.32c0.1,0.24-0.82-0.77-0.57-0.63L27.21,107.32z"/>
	<path class="st285" d="M24.97,107.21c-0.21-0.14-0.58-0.52-0.84-0.84C24.26,106.41,24.86,107.05,24.97,107.21z"/>
	<path class="st285" d="M21.9,103.63C20.85,102.68,20.62,102.22,21.9,103.63L21.9,103.63z"/>
	<path class="st285" d="M47.47,131.78c-0.22-0.18-0.5-0.46-0.67-0.56c-0.26-0.47-0.99-1.1-1.42-1.66
		C46.06,130.11,46.56,130.91,47.47,131.78z"/>
	<path class="st285" d="M36.66,116.09c-0.28-0.3-0.2-0.3-0.54-0.64c0.01-0.06,0.15,0.09,0.19,0.07c-0.55-0.64-0.9-0.95-1.38-1.49
		c0.08,0.05,0.16,0.1,0.19,0.08c-0.76-0.6-1.32-1.59-2.72-3.01c1.41,1.29,4.16,4.5,5.31,5.7c-0.25-0.1-1.16-1.26-1.37-1.29
		C36.23,115.53,36.95,116.21,36.66,116.09z"/>
	<path class="st285" d="M37.56,112.87c-0.13-0.14-0.09-0.05-0.02,0.02c-0.09,0.01-0.51-0.54-0.57-0.63
		C37.17,112.36,38.63,114.04,37.56,112.87z"/>
	<path class="st285" d="M28.85,103.81l0.1-0.07c-0.73-0.79-1.92-2.06-2.32-2.67c0.92,0.89,2.6,3.04,3.36,3.59
		c0.12,0.18,0.39,0.48,0.52,0.66c2.15,2.08,4.18,4.6,6.35,6.81c-1.17-0.81-2.97-3.43-4.28-4.38c-0.16-0.2,0.02-0.02,0.14,0.11
		C31.79,106.86,30.18,104.99,28.85,103.81z"/>
	<path class="st285" d="M26.78,107.2c-0.22-0.16-0.55-0.5-0.78-0.68C25.9,106.4,26.61,106.9,26.78,107.2z"/>
	<path class="st285" d="M257.65,136.45c0.49-0.58,0.94-1.29,1.45-1.9c1.19-1.43,2.35-2.63,3.51-4.1c1.02-1.3,1.9-2.6,2.98-3.94
		c0.8-1,1.04-1.35,1.56-2.03c1.52-1.99,2.88-3.52,3.34-4.55c0.97-1.47,2.29-3.24,3.13-4.53c0.13-0.2,0.47-0.59,0.53-0.67
		c2.14-3.3,3.08-5.63,5.77-9.37c0.12-0.42,0.1-0.79,0.43-1.53c0.15-0.33,0.61-0.98,0.69-1.24c0.31-0.96-0.58-0.63,0.33-2.15
		c-0.01-0.13-0.23,0.09-0.34,0.12c-0.54-0.52-1.47-0.39-1.63-1.09c-1.03,0.7-1.17,0.25-2.01,0.75c-0.52,0.31-1.4,1.06-2.02,1.5
		c-0.71,0.51-1.42,1.08-2.04,1.48c-0.17-0.15-0.89,0.65-1.17,0.69c-0.95,0.92-1.74,1.56-2.7,2.5c-0.14,0.05-0.38,0.26-0.47,0.23
		c-2.1,1.9-4.28,3.77-6.86,6.62c-0.23,0.26-0.73,0.81-1,1.14c-1.83,2.19-4.71,5.5-5.9,6.45c-0.35,0.38-0.29,0.42-0.63,0.8
		c-0.32,0.16-1.5,1.14-2.34,2.16c-0.29,0.35-0.65,1.08-1.26,1.86c-0.91,1.16-2.01,2.07-2.83,3.11c-0.38,0.48-0.66,1.09-1.04,1.6
		c-0.99,1.34-3.21,3.87-4.15,4.9c-0.74,0.81-1.12,1.03-1.63,1.69c-0.46,0.59-0.71,1.13-0.48,1.22c-1,1.98-4.87,5.99-6.83,8.68
		c-1.71,1.75-2.98,3.74-4.5,5.51c-0.31,0.35-0.71,0.74-1.02,1.11c-0.51,0.61-1.12,1.5-1.76,2.31c-1.08,1.39-2.09,2.56-2.95,3.72
		c-1.67,1.52-2.46,3-3.67,4.43c-0.46,0.54-0.97,1-1.48,1.61c-0.43,0.51-0.77,1.06-1.25,1.61c-0.47,0.55-1.03,1.07-1.48,1.61
		c-0.33,0.4-0.55,0.76-0.83,1.08c-0.37,0.42-0.65,0.65-1.02,1.11c-0.39,0.49-0.71,1.04-1.1,1.53c-1.44,1.79-3.13,3.62-4.35,5.42
		c-2.67,2.89-4.63,5.7-7.77,9.13c-0.7,0.93-1.21,1.61-2.03,2.49c-0.16,0.22-0.1,0.26-0.38,0.58c-1.62,1.79-3.06,3.9-4.74,5.74
		c-0.03,0.09-0.07,0.19-0.16,0.33c-2.32,2.54-5.13,5.86-6.73,8.04c-1.46,1.51-2.89,3.48-4.54,5.46c-0.78,0.93-1.61,1.79-2.31,2.68
		c-1.38,1.75-3.31,3.93-4.65,5.59c-0.4,0.5-0.73,1.03-1.12,1.51c-0.71,0.88-1.55,1.75-2.29,2.71c-2.85,3.67-6.37,7.68-8.98,10.79
		c-0.81,0.96-1.42,1.85-2.3,2.95c-0.36,0.46-0.74,0.91-1.12,1.36l-0.17,0.19l-0.09,0.09l-0.18,0.18c-0.24,0.24-0.46,0.46-0.67,0.74
		c-0.1,0.14-0.2,0.35-0.31,0.49l-0.03,0.04c-0.27-0.26-0.52-0.62-0.8-0.92l-0.56-0.57c-0.58-0.61-1.16-1.23-1.73-1.83
		c-1.22-1.3-2.41-2.6-3.51-3.9c-3.07-3.08-7.3-7.81-10.73-11.53c-0.89-0.73-1.51-1.62-2.31-2.47c-2.48-2.63-5.73-5.92-8.19-8.8
		c-10.93-11.57-22.01-23.92-32.86-35.34c-0.74-0.99-2.09-2.36-2.88-3.1c-0.1-0.23-0.59-0.76-0.94-1.18
		c-1.48-1.32-3.03-3.27-4.74-5.07c-0.57-0.34-1.47-1.54-2.21-2.14c-0.19-0.37,0.43,0.34,0.01-0.21c-1.35-0.95-4.9-5.1-6.62-6.84
		c0.11,0.13,0.1,0.19-0.05,0.03c-0.33-0.5-0.65-0.59-1.09-1.08c-3.02-3.26-5.41-5.37-8.06-8.08c-0.28-0.38-1.03-1.43-1.42-1.66
		c0.45,0.52,1.04,1.16,0.89,1.21c-0.73-0.87-1.79-1.94-2.39-2.42c-0.96-1.03-1.39-1.62-2.31-2.48c-0.21-0.23,0.09,0.32-0.35-0.17
		c-1.27-1.51-2.03-2.16-3.17-3.51c-0.45-0.29-1.88-1.79-2.25-2.32c-0.43-0.38,0.34,0.55-0.01,0.21c-1.11-1.15-2.16-2.22-3.08-3.37
		c-0.29-0.23-0.52-0.35-0.94-0.78c-0.28-0.29,0.18-0.01-0.26-0.43c-0.44-0.37,0.2,0.42,0.03,0.39c-0.58-0.56-0.52-0.39-0.86-0.63
		c-0.69-0.88-1.33-1.33-2.05-2.05c-0.74-0.74-1.49-1.63-2.2-2.35c-0.61-0.62-0.94-0.82-1.6-1.55c-0.54-0.59-0.91-1.16-1.51-1.81
		c-0.33-0.33,0.13,0.31-0.33-0.18c-2.12-2.27-4.23-4.54-5.91-6.1c2.54,2.44,4.08,4.5,6.31,6.64c0.21,0.43,0.99,0.97,1.17,1.43
		c0.2,0.1-0.24-0.46,0.21,0.06c0.15,0.18,0.18,0.26,0.43,0.52c-0.41-0.22,0.03,0.27,0.11,0.53c1.79,1.91,3.19,3.42,4.74,5.07
		c0.31,0.29-0.13-0.28,0.21,0.06c0.6,0.62,1.03,1.12,1.75,1.85c0.12,0.31,0.54,0.85,0.17,0.69c-2.05-2.27-5.03-5.18-7.5-7.86
		c-0.75-0.81-1.43-1.74-2-2.08c1.14,1.17,1.88,2.28,2.82,3.35c1.22,1.37,2.68,2.7,3.86,4.05c0.33,0.38,0.43,0.57,0.74,0.91
		c0.24,0.26,0.72,0.65,0.98,0.95c0.29,0.33,0.26,0.39,0.52,0.66c0.53,0.56,1,0.93,1.57,1.56c0.96,1.06,1.81,2.17,2.89,3.29
		c0.15,0.25-0.03,0.24-0.29-0.01c-1.25-1.37-1.46-1.6-2.74-2.99c0.13,0.17,0.2,0.28,0.15,0.3c-0.39-0.44-0.5-0.61-0.82-0.86
		c0.95,1.03,0.69,1.1,0.29,0.81c-2.32-2.61-5.28-5.7-7.16-7.89c-0.26-0.19-0.46-0.28-0.83-0.65c-2.23-2.34-4.62-5.07-7-7.58
		c2.53,3.04,5.39,6.03,8.54,9.37c0.1,0.15-0.06,0.1,0.26,0.43c1.38,1.39,2.9,3.09,3.95,4.2c0.35,0.58,0.69,1.15,1.03,1.73
		c3.33,3.49,5.31,6.45,8.41,9.86c-0.08,0.05,0.14,0.33,0.19,0.48c-0.3-0.22-0.54-0.34-0.88-0.62c-0.51-0.56-1.07-1.1-1.47-1.63
		c-2.82-2.69-6.39-6.9-9.76-10.37c-0.51-0.33-0.28,0.08-0.1,0.47c1.5,1.78,3.09,3.21,4.61,5.16c0.33,0.89-0.47,0.37-1.77-1.02
		c-2.15-2.31-5.79-6.36-7.13-7.9c-6.39-6.7-12.51-13.55-19.03-20.46c3.5,3.94,6.93,7.42,10.01,11c0.04-0.06,0.17,0.05,0.42,0.33
		c3.1,3.46,6.58,7.26,9.41,10.2c0.99,1.41,3.4,3.67,4.4,5.1c-0.54-0.09-1.61-1.03-2.88-2.3c1.24,1.33,2.3,2.67,3.32,3.81
		c0.83,0.94,2.37,2.47,2.74,2.99c0.09,0.13-0.16-0.05,0.04,0.17c-0.34-0.38,0.63,0.66,0.71,0.74c0.49,0.48,0.42,0.37,0.95,0.97
		c0.69,0.78,0.67,0.77,1.06,1.3c2.38,2.69,4.8,5.19,7.16,7.88c0.25,0.28,0.75,0.83,0.79,0.88c0.21,0.26-0.03,0.09,0.27,0.43
		c0.17,0.19,0.14,0.06,0.39,0.34c0.92,1.05,1.97,2.25,2.92,3.28c2.34,2.59,5.11,5.66,7.02,7.78c0.41,0.48-0.23-0.06,0.35,0.57
		c3.27,3.66,6.73,7.54,10.22,11.46c0.26,0.3-0.05,0.16,0.35,0.57c0.47,0.55,0.46,0.32,0.89,0.81c0.24,0.33,0.46,0.63,0.55,0.84
		c3.97,4.53,8.24,9.03,12.46,13.59c3.92,4.26,7.84,8.54,11.56,12.58c2.93,3.19,5.81,6.16,8.36,9.08c3.58,3.77,6.6,7.1,9.88,10.68
		c2.37,2.58,4.92,5.49,6.95,7.62c0.35,0.37,0.81,0.77,1.21,1.21c0.6,0.66,1.13,1.4,1.73,2.06c1.62,1.79,3.38,3.53,4.99,5.31
		c2.32,2.56,4.54,5.02,6.82,7.54c1.62,1.79,3.2,3.4,4.78,5.11l0.39-0.47c1.1-1.27,2.27-2.62,3.41-3.95c1.48-1.8,2.97-3.62,4.45-5.41
		c0.89-1.11,1.77-2.2,2.65-3.23c2.35-2.74,4.83-5.5,7.07-8.4c2.66-3.05,5.82-6.82,8.27-9.82c2.2-2.25,4.11-4.92,6.44-7.61
		c0.25-0.28,0.44-0.44,0.69-0.73c3.59-4.01,7.19-8.79,10.11-12.04c0.93-1.35,1.96-2.32,2.97-3.46c1.08-1.23,1.98-2.47,3-3.68
		c0.33-0.4,0.68-0.72,1.02-1.11c1.04-1.21,1.97-2.47,3.09-3.83c1.67-2.03,3.66-4.01,5.48-6.42c1.58-1.71,3.9-4.27,5.5-6.4
		c3.07-3.3,5.79-6.96,8.84-10.44c1.03-1.18,2.06-2.16,2.97-3.46c1.17-1.15,2.35-2.7,3.64-4.21c1.29-1.47,2.65-3.01,4.01-4.55
		c1.92-2.21,4.16-5.08,5.82-6.54c1.16-0.33,1.64-2.46,3.24-4.16c0.9-0.86,0.94-0.61,1.47-0.86c0.79-0.78,1.41-1.61,2.05-2.47
		C255.76,138.22,256.58,137.72,257.65,136.45z M59.14,135.04c0.05,0,0.02-0.06-0.06-0.16C59.42,135.05,59.8,135.78,59.14,135.04z
		 M58.86,134.82c-0.96-1.03-2.39-2.4-2.99-3.23c-0.18-0.2,0.04,0.3-0.29-0.01c-0.35-0.49-0.79-1.06-1.48-1.82
		c0.14-0.22,1.41,1.4,1.64,1.32c0.52,0.6,0.77,0.89,1.09,1.08c1.03,1.26,1.39,1.42,2.15,2.38C58.65,134.4,59.04,134.78,58.86,134.82
		z"/>
</g>
</svg>
